<svg xmlns="http://www.w3.org/2000/svg" version="1.1" xmlns:xlink="http://www.w3.org/1999/xlink" width="512" height="512" x="0" y="0" viewBox="0 0 512 512" style="enable-background:new 0 0 512 512" xml:space="preserve" class=""><g><path d="m431.765 232.344-32.173-8.662-8.662-32.173a3.5 3.5 0 0 0-6.76 0l-8.661 32.173-32.173 8.662a3.5 3.5 0 0 0 0 6.76l32.173 8.661 8.661 32.174a3.5 3.5 0 0 0 6.76 0l8.662-32.174 32.173-8.661a3.5 3.5 0 0 0 0-6.76zm-35.939 9.186a3.5 3.5 0 0 0-2.47 2.469l-5.806 21.567L381.744 244a3.5 3.5 0 0 0-2.47-2.469l-21.565-5.806 21.565-5.807a3.5 3.5 0 0 0 2.47-2.469l5.806-21.566 5.806 21.566a3.5 3.5 0 0 0 2.47 2.469l21.566 5.807z" fill="#ffffff" opacity="1" data-original="#000000" class=""></path><path d="m340.472 408.33-.271-.272a106.115 106.115 0 0 0-9.548-122.71 23.871 23.871 0 0 0 1.958-9.539v-14.285c0-10.921-12.579-20.586-34.538-26.583-3.21-13.877-3.019-24.1.571-31.053 4.888-9.462 16.057-13.011 28.99-17.119 9.64-3.063 20.566-6.533 30.284-13.1 20.112-13.59 29.81-35.047 26.608-58.869-3.792-28.21-24.825-52.74-53.586-62.495-23.164-7.857-40.658-1.158-51.254 5.845a63.157 63.157 0 0 0-17.553 17.263 3.5 3.5 0 0 0 5.194 4.555c1.144-.939 28.3-22.632 53.824 6.566 7.383 8.445 7.792 18.032 1.095 25.646-7.874 8.951-24.1 12.79-37.633 3.72-28.736-19.261-63.782-20.306-93.75-2.793-27.373 16-43.727 43.507-41.664 70.085 2.3 29.713 14.725 50.22 25.66 62.807-7.766 5.777-9.5 11.549-9.5 15.524v14.285a23.882 23.882 0 0 0 1.958 9.537 106.178 106.178 0 0 0-9.939 122.094c-.327.285-.647.582-.956.89-3.145 3.145-9.022 11.446-13.413 19.9-6.082 11.7-7.165 19.266-3.309 23.122a8.391 8.391 0 0 0 6.219 2.255c4.157 0 9.76-1.85 16.9-5.563a105.655 105.655 0 0 0 18.736-12.343 105.579 105.579 0 0 0 51.761 23c.5 1.943 1.05 3.905 1.657 5.826 3.974 12.577 8.557 18.69 14.01 18.69s10.036-6.113 14.01-18.69a111.38 111.38 0 0 0 1.658-5.828 105.5 105.5 0 0 0 51.19-22.561 108.389 108.389 0 0 0 18.229 11.9c7.146 3.713 12.748 5.563 16.906 5.563a8.388 8.388 0 0 0 6.217-2.255c3.857-3.856 2.774-11.419-3.308-23.122-4.392-8.447-10.269-16.748-13.413-19.893zm2.121-21.66a38.681 38.681 0 0 1-29.349-39.276q.28 1.152.631 2.3c4.5 14.714 17.2 25.264 31.736 26.892a98.707 98.707 0 0 1-3.018 10.084zM172.354 275.809V275c12.682 11.443 41.454 19.063 76.629 19.063s63.947-7.62 76.628-19.063v.807c0 22.339-39.584 30.3-76.628 30.3s-76.629-7.959-76.629-30.298zm127.934-19.444c0 6.017-19.986 14.758-51.305 14.758-28.391 0-48.624-7.115-51.088-13.707-.016-.043-.046-.078-.064-.121l.015-.006c-13.882-33.141-14.935-57.669-3.13-72.9 14.521-18.737 45.2-18.805 57.557-17.991-5.269 9.662-14.963 31.863-6.542 52.452 7.052 17.239 25.032 28.992 53.436 34.951a4.238 4.238 0 0 1 1.121 2.564zm53.71-88.5c-8.88 6-18.846 9.167-28.483 12.229-13.818 4.39-26.87 8.535-33.09 20.577-5.209 10.082-4.857 24.328 1.144 44.616-21.9-5.764-35.791-15.518-41.346-29.063-8.007-19.522 3.526-41.949 7.512-48.762a116.685 116.685 0 0 0 29.209 3.47h.358c35.874 0 60.743-9.472 73.912-28.153 9.857-13.982 11.17-30.283 10.115-42.844a63.982 63.982 0 0 1 4.26 15.8c2.834 21.087-5.764 40.089-23.589 52.134zM327.5 116.8c7.131-8.106 10.592-21.525-1.081-34.876C310.2 63.373 293.075 62.619 280.694 65.9c10.111-7.627 26.2-14.361 48-6.969a75.54 75.54 0 0 1 33.756 23.048c.072 5.253-.5 28.494-15.568 39.472-8.076 5.885-19.158 7.377-33.037 4.527A33.727 33.727 0 0 0 327.5 116.8zm-46.787 4.911a37.866 37.866 0 0 0 14.059 5.846c24.2 9.238 43.127 9.1 56.23-.451 8.355-6.088 12.956-14.992 15.474-23.393.473 10.85-1.174 23.975-9.011 35.069-11.789 16.69-34.719 25.15-68.162 25.15h-.349c-30.4-.054-52.083-9.468-64.434-27.983a59.657 59.657 0 0 1-9.391-25.51c22.16-5.956 45.542-2.16 65.586 11.276zm-86.32-2.563a86.024 86.024 0 0 1 13.941-6.559 66.362 66.362 0 0 0 10.166 26.943 62.94 62.94 0 0 0 20.873 19.655c-15.85.644-37.647 4.749-50.173 20.893-11.958 15.413-12.717 38.319-2.312 68.185-10.925-10.328-28.073-31.67-30.707-65.613-1.86-23.922 13.141-48.852 38.219-63.5zm-14.741 132a78.581 78.581 0 0 0 12.452 10.354c6.457 11.4 33.494 16.616 56.877 16.616 28.974 0 58.305-7.473 58.305-21.758 0-2.622-1.1-6.458-6.145-10.234a165.105 165.105 0 0 1-.995-3.3c15.828 4.932 25.463 11.922 25.463 18.689 0 12.08-31.469 25.541-76.628 25.541s-76.629-13.461-76.629-25.541c.002-4.181 3.701-7.815 7.302-10.362zm-27.522 124.51a38.344 38.344 0 0 0 26.782-25.965q.35-1.144.63-2.3a38.654 38.654 0 0 1-24.713 37.8 98.8 98.8 0 0 1-2.699-9.535zm7.761 66.013c-10.654 5.585-14.739 5.148-15.244 4.73-.422-.512-.861-4.6 4.726-15.251 3.927-7.485 9.13-14.912 11.828-17.7a107.339 107.339 0 0 0 15.052 17.581 102.868 102.868 0 0 1-16.362 10.64zm96.53 20.421c-3.581 11.483-6.781 14.064-7.434 14.126-.66-.061-3.86-2.641-7.442-14.124-2.568-8.23-4.156-17.37-4.156-21.118a11.594 11.594 0 1 1 23.188 0c0 3.748-1.589 12.887-4.156 21.116zm-7.438-39.711a18.616 18.616 0 0 0-18.594 18.6 62.611 62.611 0 0 0 1.281 10.372 99.532 99.532 0 0 1-74.354-59.615 45.61 45.61 0 0 0 18.545-71.944 3.5 3.5 0 0 0-5.778 3.88 31.794 31.794 0 0 1-19.267 45.1 98.963 98.963 0 0 1 20.389-77.111c11.333 13.669 38.665 21.451 77.778 21.451s66.446-7.782 77.779-21.452A98.921 98.921 0 0 1 347 369.694c-12.051-1.085-22.677-9.806-26.427-22.05a31.4 31.4 0 0 1 2.135-23.975 3.5 3.5 0 0 0-5.778-3.88 45.615 45.615 0 0 0 23.089 73.426 99.612 99.612 0 0 1-73.719 58.124 62.551 62.551 0 0 0 1.279-10.363 18.616 18.616 0 0 0-18.596-18.595zM352.247 446.4c-.512.425-4.6.861-15.25-4.725a105.644 105.644 0 0 1-15.809-10.178 107.539 107.539 0 0 0 15.1-17.386 98.591 98.591 0 0 1 11.226 17.044c5.586 10.645 5.15 14.734 4.733 15.245z" fill="#ffffff" opacity="1" data-original="#000000" class=""></path><path d="M294.621 359.971a45.508 45.508 0 0 0-20.839-38.315 3.5 3.5 0 0 0-4.388 5.4 31.4 31.4 0 0 1 9.06 22.3c0 17.048-13.221 30.918-29.471 30.918s-29.471-13.87-29.471-30.918a31.4 31.4 0 0 1 9.06-22.3 3.5 3.5 0 0 0-4.388-5.4 45.639 45.639 0 1 0 70.437 38.315zm-45.638 38.639a38.674 38.674 0 0 1-36.4-51.636q-.07 1.185-.07 2.383c0 20.908 16.361 37.918 36.471 37.918s36.471-17.01 36.471-37.918q0-1.2-.07-2.383a38.674 38.674 0 0 1-36.4 51.636z" fill="#ffffff" opacity="1" data-original="#000000" class=""></path><path d="M248.983 357.834a17.272 17.272 0 1 0-17.272-17.272 17.291 17.291 0 0 0 17.272 17.272zm0-27.544a10.272 10.272 0 1 1-10.272 10.272 10.284 10.284 0 0 1 10.272-10.272zM115.283 79.925l23.1 6.218 6.218 23.1a3.5 3.5 0 0 0 6.759 0l6.217-23.095 23.1-6.218a3.5 3.5 0 0 0 0-6.76l-23.1-6.217-6.217-23.095a3.5 3.5 0 0 0-6.759 0l-6.218 23.095-23.1 6.217a3.5 3.5 0 0 0 0 6.76zm26.861-6.742a3.5 3.5 0 0 0 2.47-2.47l3.363-12.487 3.361 12.487a3.5 3.5 0 0 0 2.47 2.47l12.492 3.362-12.489 3.362a3.5 3.5 0 0 0-2.47 2.47l-3.361 12.488-3.363-12.488a3.5 3.5 0 0 0-2.47-2.47l-12.489-3.362zM133.386 129.6l-18.276-4.92-4.92-18.28a3.5 3.5 0 0 0-6.759 0l-4.92 18.275-18.276 4.925a3.5 3.5 0 0 0 0 6.76l18.276 4.92 4.92 18.275a3.5 3.5 0 0 0 6.759 0l4.92-18.275 18.276-4.92a3.5 3.5 0 0 0 0-6.76zm-22.041 5.444a3.5 3.5 0 0 0-2.47 2.47l-2.064 7.669-2.065-7.669a3.5 3.5 0 0 0-2.47-2.47l-7.669-2.064 7.669-2.065a3.5 3.5 0 0 0 2.47-2.469l2.065-7.669 2.064 7.669a3.5 3.5 0 0 0 2.47 2.469l7.669 2.065zM106.811 221.222a27.213 27.213 0 1 0 27.212 27.213 27.244 27.244 0 0 0-27.212-27.213zm0 47.426a20.213 20.213 0 1 1 20.212-20.213 20.236 20.236 0 0 1-20.212 20.213zM387.55 73.132A19.033 19.033 0 1 0 368.517 54.1a19.054 19.054 0 0 0 19.033 19.032zm0-31.066A12.033 12.033 0 1 1 375.517 54.1a12.047 12.047 0 0 1 12.033-12.034zM248.983 48.349a9.784 9.784 0 1 0-9.783-9.783 9.795 9.795 0 0 0 9.783 9.783zm0-12.567a2.784 2.784 0 1 1-2.783 2.784 2.788 2.788 0 0 1 2.783-2.784z" fill="#ffffff" opacity="1" data-original="#000000" class=""></path></g></svg>