<?xml version="1.0" encoding="utf-8"?>
<!-- Generator: Adobe Illustrator 28.2.0, SVG Export Plug-In . SVG Version: 6.00 Build 0)  -->
<svg version="1.1" id="Capa_1" xmlns="http://www.w3.org/2000/svg" xmlns:xlink="http://www.w3.org/1999/xlink" x="0px" y="0px"
	 viewBox="0 0 512 512" enable-background="new 0 0 512 512" xml:space="preserve">
<g>
	<path fill="#9B48DB" d="M431.765,232.344l-32.173-8.662l-8.662-32.173c-0.502-1.867-2.422-2.973-4.289-2.471
		c-1.206,0.324-2.147,1.266-2.471,2.471l-8.661,32.173l-32.173,8.662c-1.867,0.502-2.973,2.422-2.471,4.289
		c0.324,1.206,1.266,2.147,2.471,2.471l32.173,8.661l8.661,32.174c0.502,1.867,2.422,2.973,4.289,2.471
		c1.206-0.324,2.147-1.266,2.471-2.471l8.662-32.174l32.173-8.661c1.867-0.502,2.973-2.422,2.471-4.289
		C433.912,233.61,432.971,232.668,431.765,232.344L431.765,232.344z M395.826,241.53c-1.204,0.324-2.145,1.265-2.47,2.469
		l-5.806,21.567L381.744,244c-0.325-1.204-1.266-2.145-2.47-2.469l-21.565-5.806l21.565-5.807c1.204-0.324,2.145-1.265,2.47-2.469
		l5.806-21.566l5.806,21.566c0.325,1.204,1.266,2.145,2.47,2.469l21.566,5.807L395.826,241.53z"/>
	<path fill="#9B48DB" d="M340.472,408.33l-0.271-0.272c23.287-38.76,19.454-88.019-9.548-122.71
		c1.301-3.011,1.968-6.259,1.958-9.539v-14.285c0-10.921-12.579-20.586-34.538-26.583c-3.21-13.877-3.019-24.1,0.571-31.053
		c4.888-9.462,16.057-13.011,28.99-17.119c9.64-3.063,20.566-6.533,30.284-13.1c20.112-13.59,29.81-35.047,26.608-58.869
		c-3.792-28.21-24.825-52.74-53.586-62.495c-23.164-7.857-40.658-1.158-51.254,5.845c-6.927,4.547-12.891,10.413-17.553,17.263
		c-1.023,1.64-0.524,3.799,1.116,4.822c1.276,0.796,2.917,0.689,4.078-0.267c1.144-0.939,28.3-22.632,53.824,6.566
		c7.383,8.445,7.792,18.032,1.095,25.646c-7.874,8.951-24.1,12.79-37.633,3.72c-28.736-19.261-63.782-20.306-93.75-2.793
		c-27.373,16-43.727,43.507-41.664,70.085c2.3,29.713,14.725,50.22,25.66,62.807c-7.766,5.777-9.5,11.549-9.5,15.524v14.285
		c-0.009,3.28,0.657,6.526,1.958,9.537c-28.822,34.492-32.803,83.395-9.939,122.094c-0.327,0.285-0.647,0.582-0.956,0.89
		c-3.145,3.145-9.022,11.446-13.413,19.9c-6.082,11.7-7.165,19.266-3.309,23.122c1.677,1.572,3.925,2.387,6.219,2.255
		c4.157,0,9.76-1.85,16.9-5.563c6.666-3.438,12.946-7.575,18.736-12.343c14.837,12.238,32.734,20.191,51.761,23
		c0.5,1.943,1.05,3.905,1.657,5.826c3.974,12.577,8.557,18.69,14.01,18.69s10.036-6.113,14.01-18.69
		c0.605-1.927,1.158-3.871,1.658-5.828c18.783-2.777,36.468-10.571,51.19-22.561c5.662,4.568,11.769,8.555,18.229,11.9
		c7.146,3.713,12.748,5.563,16.906,5.563c2.294,0.131,4.541-0.684,6.217-2.255c3.857-3.856,2.774-11.419-3.308-23.122
		C349.493,419.776,343.616,411.475,340.472,408.33L340.472,408.33z M342.593,386.67c-17.891-4.428-30.172-20.864-29.349-39.276
		c0.187,0.768,0.397,1.535,0.631,2.3c4.5,14.714,17.2,25.264,31.736,26.892C344.785,379.999,343.778,383.365,342.593,386.67z
		 M172.354,275.809V275c12.682,11.443,41.454,19.063,76.629,19.063s63.947-7.62,76.628-19.063v0.807
		c0,22.339-39.584,30.3-76.628,30.3S172.354,298.148,172.354,275.809z M300.288,256.365c0,6.017-19.986,14.758-51.305,14.758
		c-28.391,0-48.624-7.115-51.088-13.707c-0.016-0.043-0.046-0.078-0.064-0.121l0.015-0.006c-13.882-33.141-14.935-57.669-3.13-72.9
		c14.521-18.737,45.2-18.805,57.557-17.991c-5.269,9.662-14.963,31.863-6.542,52.452c7.052,17.239,25.032,28.992,53.436,34.951
		C299.82,254.504,300.215,255.408,300.288,256.365L300.288,256.365z M353.998,167.865c-8.88,6-18.846,9.167-28.483,12.229
		c-13.818,4.39-26.87,8.535-33.09,20.577c-5.209,10.082-4.857,24.328,1.144,44.616c-21.9-5.764-35.791-15.518-41.346-29.063
		c-8.007-19.522,3.526-41.949,7.512-48.762c9.551,2.384,19.365,3.55,29.209,3.47h0.358c35.874,0,60.743-9.472,73.912-28.153
		c9.857-13.982,11.17-30.283,10.115-42.844c2.09,5.063,3.522,10.373,4.26,15.8c2.834,21.087-5.764,40.089-23.589,52.134
		L353.998,167.865z M327.5,116.8c7.131-8.106,10.592-21.525-1.081-34.876C310.2,63.373,293.075,62.619,280.694,65.9
		c10.111-7.627,26.2-14.361,48-6.969c13.156,4.435,24.836,12.409,33.756,23.048c0.072,5.253-0.5,28.494-15.568,39.472
		c-8.076,5.885-19.158,7.377-33.037,4.527C319.085,124.093,323.776,120.94,327.5,116.8z M280.713,121.711
		c4.242,2.88,9.025,4.869,14.059,5.846c24.2,9.238,43.127,9.1,56.23-0.451c8.355-6.088,12.956-14.992,15.474-23.393
		c0.473,10.85-1.174,23.975-9.011,35.069c-11.789,16.69-34.719,25.15-68.162,25.15h-0.349c-30.4-0.054-52.083-9.468-64.434-27.983
		c-5.052-7.667-8.266-16.397-9.391-25.51c22.16-5.956,45.542-2.16,65.586,11.276L280.713,121.711z M194.393,119.148
		c4.441-2.599,9.107-4.794,13.941-6.559c1.376,9.617,4.846,18.814,10.166,26.943c5.353,8.07,12.496,14.796,20.873,19.655
		c-15.85,0.644-37.647,4.749-50.173,20.893c-11.958,15.413-12.717,38.319-2.312,68.185c-10.925-10.328-28.073-31.67-30.707-65.613
		c-1.86-23.922,13.141-48.852,38.219-63.5L194.393,119.148z M179.652,251.148c3.783,3.871,7.956,7.341,12.452,10.354
		c6.457,11.4,33.494,16.616,56.877,16.616c28.974,0,58.305-7.473,58.305-21.758c0-2.622-1.1-6.458-6.145-10.234
		c-0.343-1.097-0.675-2.197-0.995-3.3c15.828,4.932,25.463,11.922,25.463,18.689c0,12.08-31.469,25.541-76.628,25.541
		s-76.629-13.461-76.629-25.541c0.002-4.181,3.701-7.815,7.302-10.362L179.652,251.148z M152.13,375.658
		c12.819-3.437,22.95-13.258,26.782-25.965c0.233-0.763,0.443-1.529,0.63-2.3c0.745,16.602-9.206,31.823-24.713,37.8
		C153.77,382.062,152.87,378.879,152.13,375.658z M159.891,441.671c-10.654,5.585-14.739,5.148-15.244,4.73
		c-0.422-0.512-0.861-4.6,4.726-15.251c3.927-7.485,9.13-14.912,11.828-17.7c4.369,6.386,9.416,12.28,15.052,17.581
		C171.149,435.088,165.67,438.651,159.891,441.671z M256.421,462.092c-3.581,11.483-6.781,14.064-7.434,14.126
		c-0.66-0.061-3.86-2.641-7.442-14.124c-2.568-8.23-4.156-17.37-4.156-21.118c-0.006-6.403,5.179-11.599,11.582-11.606
		s11.599,5.179,11.606,11.582c0,0.008,0,0.016,0,0.023C260.577,444.724,258.988,453.863,256.421,462.092L256.421,462.092z
		 M248.983,422.381c-10.266,0.012-18.585,8.333-18.594,18.6c0.137,3.487,0.566,6.956,1.281,10.372
		c-33.306-5.943-61.312-28.398-74.354-59.615c23.515-9.032,35.256-35.416,26.224-58.931c-1.818-4.735-4.414-9.133-7.679-13.013
		c-1.243-1.48-3.451-1.673-4.931-0.43c-1.261,1.059-1.613,2.853-0.847,4.31c8.063,15.599,1.954,34.78-13.644,42.843
		c-1.798,0.93-3.681,1.685-5.623,2.257c-4.321-27.426,3.077-55.405,20.389-77.111c11.333,13.669,38.665,21.451,77.778,21.451
		s66.446-7.782,77.779-21.452c17.519,21.957,24.877,50.328,20.238,78.032c-12.051-1.085-22.677-9.806-26.427-22.05
		c-2.501-7.958-1.733-16.584,2.135-23.975c0.9-1.711,0.242-3.827-1.468-4.727c-1.457-0.766-3.251-0.414-4.31,0.847
		c-16.219,19.277-13.741,48.052,5.536,64.271c5.11,4.3,11.102,7.425,17.553,9.155c-13.331,30.465-40.985,52.269-73.719,58.124
		c0.714-3.413,1.142-6.879,1.279-10.363C267.567,430.711,259.248,422.392,248.983,422.381L248.983,422.381z M352.247,446.4
		c-0.512,0.425-4.6,0.861-15.25-4.725c-5.562-2.916-10.852-6.322-15.809-10.178c5.641-5.238,10.703-11.067,15.1-17.386
		c4.322,5.278,8.084,10.99,11.226,17.044C353.1,441.8,352.664,445.889,352.247,446.4L352.247,446.4z"/>
	<path fill="#9B48DB" d="M294.621,359.971c0.025-15.485-7.826-29.921-20.839-38.315c-1.624-1.048-3.791-0.58-4.838,1.044
		c-0.889,1.378-0.702,3.189,0.45,4.356c5.862,5.935,9.122,13.958,9.06,22.3c0,17.048-13.221,30.918-29.471,30.918
		s-29.471-13.87-29.471-30.918c-0.062-8.342,3.198-16.365,9.06-22.3c1.358-1.376,1.343-3.592-0.032-4.95
		c-1.167-1.152-2.978-1.339-4.356-0.45c-21.16,13.696-27.212,41.952-13.516,63.112c13.696,21.16,41.952,27.212,63.112,13.516
		C286.775,389.874,294.621,375.45,294.621,359.971L294.621,359.971z M248.983,398.61c-21.359-0.021-38.657-17.352-38.637-38.711
		c0.004-4.404,0.761-8.775,2.237-12.925c-0.047,0.79-0.07,1.584-0.07,2.383c0,20.908,16.361,37.918,36.471,37.918
		s36.471-17.01,36.471-37.918c0-0.8-0.023-1.594-0.07-2.383c7.159,20.124-3.351,42.24-23.475,49.399
		c-4.15,1.476-8.521,2.233-12.925,2.237L248.983,398.61z"/>
	<path fill="#9B48DB" d="M248.983,357.834c9.539,0,17.272-7.733,17.272-17.272s-7.733-17.272-17.272-17.272
		c-9.539,0-17.272,7.733-17.272,17.272C231.721,350.097,239.448,357.824,248.983,357.834z M248.983,330.29
		c5.673,0,10.272,4.599,10.272,10.272s-4.599,10.272-10.272,10.272s-10.272-4.599-10.272-10.272
		C238.718,334.892,243.313,330.297,248.983,330.29z M115.283,79.925l23.1,6.218l6.218,23.1c0.503,1.866,2.424,2.972,4.29,2.469
		c1.204-0.324,2.145-1.265,2.469-2.469l6.217-23.095l23.1-6.218c1.867-0.502,2.973-2.422,2.471-4.289
		c-0.324-1.206-1.266-2.147-2.471-2.471l-23.1-6.217l-6.217-23.095c-0.503-1.866-2.424-2.972-4.29-2.469
		c-1.204,0.324-2.145,1.265-2.469,2.469l-6.218,23.095l-23.1,6.217c-1.867,0.502-2.973,2.422-2.471,4.289
		c0.324,1.206,1.266,2.147,2.471,2.471V79.925z M142.144,73.183c1.205-0.324,2.146-1.265,2.47-2.47l3.363-12.487l3.361,12.487
		c0.324,1.205,1.265,2.146,2.47,2.47l12.492,3.362l-12.489,3.362c-1.205,0.324-2.146,1.265-2.47,2.47l-3.361,12.488l-3.363-12.488
		c-0.324-1.205-1.265-2.146-2.47-2.47l-12.489-3.362L142.144,73.183z M133.386,129.6l-18.276-4.92l-4.92-18.28
		c-0.503-1.866-2.424-2.972-4.29-2.469c-1.204,0.324-2.145,1.265-2.469,2.469l-4.92,18.275L80.235,129.6
		c-1.867,0.502-2.973,2.422-2.471,4.289c0.324,1.206,1.266,2.147,2.471,2.471l18.276,4.92l4.92,18.275
		c0.503,1.866,2.424,2.972,4.29,2.469c1.204-0.324,2.145-1.265,2.469-2.469l4.92-18.275l18.276-4.92
		c1.867-0.502,2.973-2.422,2.471-4.289C135.533,130.866,134.592,129.924,133.386,129.6z M111.345,135.044
		c-1.205,0.324-2.146,1.265-2.47,2.47l-2.064,7.669l-2.065-7.669c-0.324-1.205-1.265-2.146-2.47-2.47l-7.669-2.064l7.669-2.065
		c1.204-0.324,2.145-1.265,2.47-2.469l2.065-7.669l2.064,7.669c0.325,1.204,1.266,2.145,2.47,2.469l7.669,2.065L111.345,135.044z
		 M106.811,221.222c-15.029-0.001-27.213,12.183-27.214,27.212c-0.001,15.029,12.183,27.213,27.212,27.214
		s27.213-12.183,27.214-27.212c0,0,0-0.001,0-0.001C134.006,233.413,121.833,221.24,106.811,221.222z M106.811,268.648
		c-11.163,0.001-20.213-9.049-20.214-20.212c-0.001-11.163,9.049-20.213,20.212-20.214s20.213,9.049,20.214,20.212
		c0,0,0,0.001,0,0.001C127.01,259.593,117.969,268.635,106.811,268.648z M387.55,73.132c10.512,0,19.033-8.521,19.033-19.033
		s-8.521-19.033-19.033-19.033c-10.512,0-19.033,8.521-19.033,19.033c0,0,0,0.001,0,0.001
		C368.529,64.606,377.044,73.12,387.55,73.132z M387.55,42.066c6.646,0,12.033,5.387,12.033,12.033
		c0,6.646-5.387,12.033-12.033,12.033c-6.645,0-12.032-5.387-12.033-12.032C375.524,47.457,380.907,42.074,387.55,42.066z
		 M248.983,48.349c5.404,0.001,9.784-4.379,9.785-9.783s-4.379-9.784-9.783-9.785c-5.404-0.001-9.784,4.379-9.785,9.783
		c0,0.001,0,0.001,0,0.002C239.207,43.966,243.583,48.342,248.983,48.349z M248.983,35.782c1.538-0.001,2.784,1.245,2.785,2.783
		s-1.245,2.784-2.783,2.785c-1.538,0.001-2.784-1.245-2.785-2.783c0,0,0-0.001,0-0.001C246.202,37.03,247.447,35.785,248.983,35.782
		z"/>
</g>
</svg>
