<?xml version="1.0" encoding="utf-8"?>
<!-- Generator: Adobe Illustrator 28.3.0, SVG Export Plug-In . SVG Version: 6.00 Build 0)  -->
<svg version="1.1" id="Capa_2" xmlns="http://www.w3.org/2000/svg" xmlns:xlink="http://www.w3.org/1999/xlink" x="0px" y="0px"
	 viewBox="0 0 500 360" style="enable-background:new 0 0 500 360;" xml:space="preserve">
<style type="text/css">
	.st0{fill:#9B48DB;}
	.st1{fill:#343135;}
	.st2{fill:#C9C9C9;}
	.st3{fill:#9C03B7;}
	.st4{fill:#FFFFFF;}
</style>
<rect x="0.5" class="st0" width="500" height="360"/>
<g>
	<path class="st1" d="M319.1,69.7c5-0.8,10.5-1.1,15.4-2.8c0.5-0.2,0.5-1.1-0.1-1c-4.9,0.6-9.7,1.7-14.6,2.5
		c-4.3,0.7-8.3,2.2-12.5,3c-0.2,0-0.1,0.3,0,0.3C311.3,71.8,315.2,70.3,319.1,69.7z"/>
	<path class="st1" d="M352,71c-3.6,0.5-7.1,1.2-10.8,1.4c-3.2,0.2-6.4,0.3-9.6,0.8c-8.1,1.1-16.2,2.6-24.4,3.2c-0.1,0-0.1,0.2,0,0.2
		c8.2-0.3,16.3-1.5,24.5-2.5c3.7-0.5,7.5-0.5,11.2-0.7c3-0.2,6.5-0.3,9.3-1.6C352.7,71.5,352.4,71,352,71z"/>
	<path class="st1" d="M331.8,80.8c0.5-0.1,0.5-0.7,0-0.7c-8.7,0-17.2,2.3-26,1.6c-0.2,0-0.2,0.3,0,0.3
		C314.3,83.4,323.3,81.8,331.8,80.8z"/>
	<path class="st1" d="M342.2,80.4c0.4,0,0.4-0.6,0-0.6c-2,0.1-3.9,0.2-5.9,0.3c-0.2,0-0.2,0.3,0,0.3
		C338.3,80.5,340.2,80.5,342.2,80.4z"/>
	<path class="st1" d="M344.6,87.7c-6.6-0.2-13.3-0.4-19.9-0.4c-5.8,0-11.7,0.8-17.5,0.3c-0.2,0-0.2,0.3,0,0.3
		c5.5,0.8,11.1,0.3,16.6,0.3c7,0,13.9,0.6,20.9,0.3C345.1,88.4,345.1,87.7,344.6,87.7z"/>
	<path class="st1" d="M325.9,94.6c-2.6-0.7-5.3-0.6-7.9-0.7c-3.2-0.1-6.3-0.7-9.5-1.1c-0.1,0-0.1,0.1-0.1,0.1
		c2.4,1.3,5.1,1.6,7.8,1.9c3.1,0.3,6.5,0.7,9.7,0.4C326.1,95.2,326.2,94.7,325.9,94.6z"/>
	<path class="st1" d="M309.4,98.5c8,2,16.3,3.9,24.5,4.3c0.4,0,0.5-0.7,0.1-0.8c-8.1-1.8-16.4-2.2-24.6-3.8
		C309.3,98.2,309.2,98.5,309.4,98.5z"/>
	<path class="st1" d="M341.9,103.4c-1.6-0.3-3.2-0.3-4.9-0.7c-0.3-0.1-0.5,0.4-0.1,0.5c1.6,0.5,3.3,1,4.9,0.8
		C342.2,104.1,342.3,103.5,341.9,103.4z"/>
	<path class="st1" d="M305.4,103.4c6.6,2.9,13.5,5.4,20.3,7.4c0.4,0.1,0.7-0.5,0.3-0.7c-6.5-3.2-13.8-4.5-20.6-6.9
		C305.4,103.2,305.3,103.3,305.4,103.4z"/>
	<path class="st1" d="M306.6,65c4.1-1.3,8.4-1.7,12.4-3c0.4-0.1,0.2-0.7-0.2-0.6c-4.2,1-8.5,1.6-12.4,3.4
		C306.3,64.8,306.4,65.1,306.6,65z"/>
	<path class="st1" d="M303.1,109.1c-0.2-0.1-0.4,0.2-0.2,0.3c2.6,2.1,5.8,3.1,9,4.2c0.4,0.2,0.7-0.6,0.3-0.8
		C309.2,111.4,305.9,110.8,303.1,109.1z"/>
</g>
<g>
	<path class="st1" d="M191.1,52.7c-3.9-1.8-7.4-4.3-11.4-6c-4.5-2-8.9-4.3-13.5-6.1c-0.6-0.2-0.8,0.6-0.4,0.9
		c4.2,2.9,9.5,4.6,14.2,6.6c3.7,1.6,7.1,4,11,4.9C191.2,53,191.3,52.8,191.1,52.7z"/>
	<path class="st1" d="M166.6,49c7.7,3,15.3,6.3,23.2,8.6c0.1,0,0.2-0.1,0-0.2c-7.8-2.6-15.3-6.1-22.8-9.2c-2.8-1.2-5.7-2.1-8.7-3
		c-3.6-1.1-7-2.6-10.4-4.1c-0.4-0.1-0.8,0.3-0.4,0.6c2.3,1.9,5.4,2.8,8.2,3.8C159.3,46.7,163,47.6,166.6,49z"/>
	<path class="st1" d="M189.9,63c-8.7-1.5-16.3-5.9-24.8-8.1c-0.5-0.1-0.6,0.5-0.2,0.7c8,3.1,16.3,6.9,24.9,7.7
		C190.1,63.3,190.1,63,189.9,63z"/>
	<path class="st1" d="M160.7,54.1c0.2,0,0.2-0.2,0.1-0.3c-1.9-0.6-3.7-1.2-5.6-1.8c-0.4-0.1-0.5,0.5-0.1,0.6
		C156.9,53.3,158.8,53.7,160.7,54.1z"/>
	<path class="st1" d="M187.1,68.3c-5.7-0.9-11.3-3.2-16.9-4.7c-6.4-1.7-12.9-3.1-19.4-4.6c-0.5-0.1-0.7,0.6-0.2,0.7
		c6.3,2,12.9,3.1,19.3,4.7c5.6,1.4,11.3,3.4,17,4.1C187.3,68.6,187.3,68.3,187.1,68.3z"/>
	<path class="st1" d="M184.6,73.1c-3.2-0.3-6.3-0.6-9.5-1.3c-2.6-0.5-5.2-1.4-7.9-1.4c-0.4,0-0.4,0.5-0.1,0.6c3,1.1,6.3,1.5,9.5,2
		c2.6,0.4,5.4,0.8,8,0.1C184.8,73.2,184.7,73.1,184.6,73.1z"/>
	<path class="st1" d="M182.2,78.1c-8.3-0.5-16.5-2.2-24.7-2.5c-0.5,0-0.5,0.7-0.1,0.8c8.1,1.7,16.6,2,24.8,2
		C182.4,78.4,182.4,78.1,182.2,78.1z"/>
	<path class="st1" d="M153.8,75.4c-1.7,0-3.2-0.4-4.9-0.6c-0.4,0-0.4,0.6-0.1,0.7c1.5,0.6,3.3,0.5,5,0.4
		C154.2,76,154.1,75.4,153.8,75.4z"/>
	<path class="st1" d="M163.3,86.2c7.2-0.3,14.5-0.9,21.6-2.1c0.1,0,0.1-0.1,0-0.1c-7.2,0.6-14.6,0-21.6,1.5
		C162.8,85.6,162.9,86.2,163.3,86.2z"/>
	<path class="st1" d="M193.6,46.5c-3.3-2.7-7.4-4.3-11.1-6.4c-0.4-0.2-0.6,0.3-0.3,0.5c3.6,2.3,7.7,3.8,11.3,6.1
		C193.5,46.8,193.7,46.6,193.6,46.5z"/>
	<path class="st1" d="M176.1,92.4c3.3-0.2,6.7-0.4,9.7-1.8c0.2-0.1,0.1-0.4-0.1-0.3c-3.2,0.9-6.5,0.7-9.8,1.3
		C175.5,91.7,175.6,92.4,176.1,92.4z"/>
</g>
<path class="st2" d="M415.2,149.9c-2.5-0.8-4.2-1.6-5.9-3.6c-1.6-1.8-2.4-4.4-2.7-6.8c0-0.2-0.1-0.2-0.2-0.2c-0.1,0-0.2,0.1-0.2,0.2
	c-0.3,2.4-1.2,4.8-2.7,6.8c-1.6,2-3.5,2.8-5.9,3.6c-0.7,0.2-0.7,1.1,0,1.3c2.5,0.8,4.2,1.6,5.9,3.6c1.6,1.8,2.4,4.4,2.7,6.8
	c0,0.1,0.1,0.2,0.2,0.2c0.1,0,0.2-0.1,0.2-0.2c0.3-2.4,1.2-4.8,2.7-6.8c1.6-2,3.5-2.8,5.9-3.6C415.9,151,415.9,150.1,415.2,149.9z
	 M406.4,157.6c-0.5-2.8-1.8-5.6-3.8-7.1c2.1-1.4,3.3-4.3,3.8-7.1c0.5,2.8,1.8,5.6,3.8,7.1C408.1,152,406.9,154.8,406.4,157.6z"/>
<path class="st2" d="M337.2,230.3c-2.6-0.8-4.4-1.7-6.3-3.8c-1.7-1.9-2.6-4.7-2.9-7.2c0-0.2-0.1-0.2-0.2-0.2c-0.1,0-0.2,0.1-0.2,0.2
	c-0.3,2.6-1.3,5.2-2.9,7.2c-1.7,2.1-3.7,3-6.3,3.8c-0.7,0.2-0.7,1.2,0,1.4c2.6,0.8,4.5,1.7,6.3,3.8c1.7,1.9,2.6,4.7,2.9,7.2
	c0,0.2,0.1,0.2,0.2,0.2c0.1,0,0.2-0.1,0.2-0.2c0.3-2.6,1.3-5.2,2.9-7.2c1.7-2.1,3.7-3,6.3-3.8C337.9,231.5,337.9,230.6,337.2,230.3z
	"/>
<path class="st1" d="M370.4,227.6c-3.8,0-3.8,5.9,0,5.9C374.3,233.6,374.3,227.6,370.4,227.6z"/>
<path class="st1" d="M319.4,313.6c-3.8,0-3.8,5.9,0,5.9C323.3,319.6,323.3,313.6,319.4,313.6z"/>
<path class="st3" d="M342.9,278.6c0,3.2,2.6,5.8,5.8,5.8c3.2,0,5.8-2.6,5.8-5.8c0-3.2-2.6-5.8-5.8-5.8
	C345.6,272.8,342.9,275.5,342.9,278.6z"/>
<path class="st1" d="M412.8,91.6c0.2-0.9,0.1-1.8-0.6-2.5c-1-1-2.8-0.8-3.5,0.5c-0.5,0.9-0.3,1.9,0.3,2.6c0.4,0.6,1,1,1.8,1
	C411.7,93.2,412.6,92.5,412.8,91.6z"/>
<path class="st1" d="M459.4,131.7c2,0,2.6-2.2,1.5-3.6c-0.1-0.1-0.2-0.2-0.2-0.3c-0.6-0.7-1.9-0.7-2.5,0c-0.1,0.1-0.2,0.2-0.2,0.3
	C456.8,129.5,457.4,131.7,459.4,131.7z"/>
<path class="st3" d="M423.3,177.3c-6.3,0-6.3,9.8,0,9.8C429.6,187.1,429.6,177.3,423.3,177.3z"/>
<path class="st1" d="M412.7,262.9c1.7-0.9,1.7-3.2,0.4-4.4c0,0-0.3-0.2-0.5-0.3c0,0,0.1,0,0.1,0c0.1,0.1,0.2,0.2,0.3,0.2
	c-0.1-0.1-0.2-0.2-0.4-0.3c-0.1-0.1-0.3-0.1-0.5-0.2c-0.1-0.1-0.3-0.1-0.3-0.2c-0.4-0.1-0.7-0.1-1.1-0.1c-1.6,0-3.1,1.7-2.5,3.3
	C409,262.7,410.8,263.9,412.7,262.9z M409.1,259.1C409.1,259.1,409.1,259.1,409.1,259.1c0,0,0,0.1,0,0.1
	C409.1,259.2,409.1,259.2,409.1,259.1z"/>
<path class="st2" d="M84.8,151.2c2.4,0.7,4.3,1.6,5.9,3.6c1.6,1.9,2.4,4.3,2.7,6.8c0,0.1,0.1,0.2,0.2,0.2c0.1,0,0.2-0.1,0.2-0.2
	c0.3-2.4,1.1-4.9,2.7-6.8c1.7-1.9,3.4-2.8,5.9-3.6c0.7-0.2,0.7-1.1,0-1.3c-2.4-0.8-4.3-1.6-5.9-3.6c-1.6-1.9-2.4-4.3-2.7-6.8
	c0-0.2-0.1-0.2-0.2-0.2c-0.1,0-0.2,0.1-0.2,0.2c-0.3,2.4-1.1,4.9-2.7,6.8c-1.7,1.9-3.4,2.8-5.9,3.6C84.1,150.1,84.1,151,84.8,151.2z
	 M89.8,150.5c2.1-1.4,3.3-4.3,3.8-7.1c0.5,2.8,1.8,5.6,3.8,7.1c-2.1,1.4-3.3,4.3-3.8,7.1C93.1,154.8,91.9,152,89.8,150.5z"/>
<path class="st2" d="M162.8,230.3c2.6-0.8,4.4-1.7,6.3-3.8c1.7-1.9,2.6-4.7,2.9-7.2c0-0.2,0.1-0.2,0.2-0.2c0.1,0,0.2,0.1,0.2,0.2
	c0.3,2.6,1.3,5.2,2.9,7.2c1.7,2.1,3.7,3,6.3,3.8c0.7,0.2,0.7,1.2,0,1.4c-2.6,0.8-4.5,1.7-6.3,3.8c-1.7,1.9-2.6,4.7-2.9,7.2
	c0,0.2-0.1,0.2-0.2,0.2c-0.1,0-0.2-0.1-0.2-0.2c-0.3-2.6-1.3-5.2-2.9-7.2c-1.7-2.1-3.7-3-6.3-3.8
	C162.1,231.5,162.1,230.6,162.8,230.3z"/>
<path class="st1" d="M129.6,227.6c3.8,0,3.8,5.9,0,5.9C125.7,233.6,125.7,227.6,129.6,227.6z"/>
<path class="st1" d="M180.6,313.6c3.8,0,3.8,5.9,0,5.9C176.7,319.6,176.7,313.6,180.6,313.6z"/>
<path class="st3" d="M157.1,278.6c0,3.2-2.6,5.8-5.8,5.8c-3.2,0-5.8-2.6-5.8-5.8c0-3.2,2.6-5.8,5.8-5.8
	C154.4,272.8,157.1,275.5,157.1,278.6z"/>
<path class="st1" d="M87.2,91.6c-0.2-0.9-0.1-1.8,0.6-2.5c1-1,2.8-0.8,3.5,0.5c0.5,0.9,0.3,1.9-0.3,2.6c-0.4,0.6-1,1-1.8,1
	C88.3,93.2,87.4,92.5,87.2,91.6z"/>
<path class="st1" d="M40.6,131.7c-2,0-2.6-2.2-1.5-3.6c0.1-0.1,0.2-0.2,0.2-0.3c0.6-0.7,1.9-0.7,2.5,0c0.1,0.1,0.2,0.2,0.2,0.3
	C43.2,129.5,42.6,131.7,40.6,131.7z"/>
<path class="st3" d="M76.7,177.3c6.3,0,6.3,9.8,0,9.8C70.4,187.1,70.4,177.3,76.7,177.3z"/>
<path class="st1" d="M91.7,260.9c0.6-1.6-0.9-3.3-2.5-3.3c-0.4,0-0.7,0.1-1.1,0.1c-0.1,0-0.2,0.1-0.3,0.2c-0.1,0.1-0.3,0.1-0.5,0.2
	c-0.1,0.1-0.2,0.2-0.4,0.3c0.1,0,0.2-0.1,0.3-0.2c0,0,0.1,0,0.1,0c-0.3,0.2-0.5,0.3-0.5,0.3c-1.3,1.2-1.3,3.5,0.4,4.4
	C89.2,263.9,91,262.7,91.7,260.9z M90.9,259.3c0,0,0-0.1-0.1-0.1c0,0,0,0,0,0C90.9,259.2,90.9,259.2,90.9,259.3z"/>
<g>
	<path class="st1" d="M264.8,231.2c2.2-0.7,4.3-0.8,6.3-0.1c4.5,1.4,7.4,4.6,7.7,9.4c0.2,3.3-0.3,6.3-2.5,8.9
		c-0.7,0.9-1.6,1.6-2.6,2.2c5.7,6.6,3.8,17.4-1.7,23.3c0.9,0.1,1.7,0.2,2.5,0.2c2.1,0,2.6,1.1,2.5,3c-0.1,1.8-0.9,3.5-1.9,5.1
		c4.4,1.9,8,4.7,11.1,8.3c5.7-1.9,10.6,1,12,7c0.8,3.5,0.4,6.7-1.9,9.6c-0.8,1-1.7,1.7-2.8,2.2c-0.4,0.2-0.6,0.4-0.6,0.9
		c0.1,11.1-5.7,18.4-15,23.5c-0.2,0.1-0.5,0.3-0.8,0.4c0.6,1.5,1.3,2.9,1.6,4.4c0.2,0.7,0.2,1.4,0.1,2.1c-0.3,2.2-2.4,3.1-4.3,1.9
		c-2.1-1.4-3.4-3.6-4.7-5.7c-2.8,0.6-5.6,1.2-8.5,1.3c-2.3,0.1-4.6,0.4-6.9,0.2c-2.3-0.2-4.6-0.1-6.8,0c-2.8,0.1-5.6,0.1-8.4-0.1
		c-2.9-0.3-5.8-0.7-8.7-1.4c-1,1.6-2,3.3-3.4,4.6c-0.4,0.4-0.8,0.8-1.3,1.1c-2,1.3-4.2,0.1-4.3-2.3c-0.1-2,0.8-3.6,1.5-5.3
		c0.1-0.2,0.2-0.5,0.3-0.6c-9.8-5.3-16.1-12.9-15.8-24.6c-6.2-2.3-7.4-10.9-3.2-16.3c1.7-2.2,3.8-3.5,6.6-3.5c1.1,0,2.2,0.3,3.2,0.8
		c3.1-3.6,6.7-6.4,11.1-8.3c-0.4-0.7-0.8-1.4-1.1-2.1c-0.6-1.3-1-2.7-0.7-4.1c0.2-1.4,0.8-1.8,2.2-1.9c1.5-0.1,3-0.2,4.7-0.2
		c-1.8-1.2-3.2-2.5-4.4-4.1c-2.2-2.9-3.1-6.3-3.5-9.9c-0.3-3.5,0.2-6.8,1.6-9.9c1.9-4.3,5-7.3,9.7-8.3c0.8-0.2,1.6-0.2,2.6-0.3
		c-2-2.4-2.5-5.3-2.3-8.2c0.4-7.6,3.3-14,9.3-18.7c3.4-2.7,7.4-3.5,11.6-3c3.8,0.4,6.9,2,9.2,5c2.8,3.7,3.4,7.7,1.8,12.1
		C265.3,230,265.1,230.6,264.8,231.2z M234.5,262.9c-0.1,0.5-0.3,1-0.3,1.6c0.1,3.7,1.4,6.9,4,9.6c0.4,0.4,0.9,0.6,1.5,0.6
		c4.1-0.1,8.2-0.1,12.3-0.2c0.3,0,0.6-0.1,0.9-0.3c1.5-1.2,2.5-2.7,3.2-4.5c1.4-3.8,2.2-7.6,2-11.7c-0.3-4.8-2.1-8.7-5.9-11.8
		c-3.8-3.1-5.2-7.1-2.3-11.5c-2-2.4-1.5-4.9-0.4-7.4c-2-0.2-3.9,0.8-5.3,2.8c-2.4,3.3-3.2,7-2.8,11c0.1,1.6,0.4,3.2,1.3,4.5
		c2.2,3.2,2.5,6.7,1.9,10.3C243.7,260.8,239.2,263.8,234.5,262.9z M257,274.7c2.2,0,4.2-0.2,6.1,0c2.3,0.3,3.9-0.7,5.1-2.5
		c0.3-0.5,0.6-0.9,0.9-1.4c2.2-4,2.9-8.3,2.2-12.7c-0.5-3.1-1.7-5.7-4.6-7.5c-2.2-1.4-3.4-3.5-2.8-6.2c0.5-2.4,1.7-4.1,4.2-4.8
		c2.5-0.7,4.7,1.3,4.4,3.8c-0.1,0.6-0.4,0.9-1,0.6c-0.4-0.2-0.4-0.6-0.4-0.9c-0.1-2-1.5-2.8-3.4-2.1c-1.6,0.6-2.9,2.8-2.7,4.5
		c0.2,2.3,3.1,5.1,5.5,5.2c1.9,0.1,3.3-0.9,4.5-2.2c1.9-2.1,2.4-4.6,2.4-7.3c-0.1-4.3-2.5-7.6-6.7-8.8c-2.6-0.7-5.1-0.5-7.3,1.1
		c-1.5,1.1-2.8,2.4-4.6,3.2c-0.2,0.1-0.4,0.3-0.5,0.5c-2,3.1-2,7.7,1.1,10.4c1,0.8,2.1,1.3,3.3,1.5c0.4,0,0.8,0.1,0.8,0.6
		c-0.1,0.5-0.6,0.3-0.9,0.3c-0.5-0.1-1-0.2-1.5-0.3c-4-1.4-5-5-6-8.5c-0.4-1.2,0-2.4,0.2-3.7c-1,0-1.8-0.2-2.6-0.6
		c-0.8-0.3-1.5-0.9-2.2-1.3c-1.6,2.4-1.6,5.1-0.1,7.5c1.3,2.1,3.3,3.3,5.3,4.6c1.9,1.2,3.5,2.7,4.7,4.5c2.5,3.8,2.6,8,1.7,12.3
		C261.2,268.3,259.9,271.8,257,274.7z M240.1,243.5c-0.9-1.7-1.4-3.4-1.6-5.1c-0.3-4,0.7-7.6,3.1-10.8c2.4-3.2,5.5-5.1,9.7-4.7
		c1.3,0.1,2.6,1,4,0.4c0.2-0.1,0.4-0.1,0.6-0.1c2.9-0.3,5.1,2.3,4.2,4.9c-0.2,0.5-0.3,1-0.9,0.8c-0.6-0.2-0.4-0.6-0.3-1.1
		c0.4-1.7-0.8-3.2-2.5-3.2c-2,0-3.7,0.7-4.9,2.2c-1.2,1.5-1.9,3.2-1.5,5.2c0.6,2.7,4.4,4.7,7,3.7c4.1-1.4,6.7-4.2,7.7-8.4
		c0.9-4.1-0.4-7.6-3.5-10.4c-4.2-3.8-11.6-4.2-16.7-0.9c-6.3,4.1-10.6,13.8-9.2,21.2C235.7,240.2,237,242.5,240.1,243.5z
		 M236.1,274.6c-0.2-0.2-0.3-0.3-0.5-0.4c-0.1-0.1-0.3-0.2-0.4-0.4c-3.6-3.6-5.4-7.7-4.2-12.8c0.1-0.5,0.1-0.9-0.1-1.4
		c-1.4-3.1-0.8-6.9,2.3-8.9c1.4-0.9,2.9-1.1,4.4-0.3c1.5,0.9,1.8,2.3,1.8,3.9c0,0.5-0.2,0.9-0.7,0.9c-0.5,0-0.6-0.4-0.6-0.8
		c0-0.2,0-0.3,0-0.5c-0.1-2.4-2.2-3.5-4.2-2.2c-2.2,1.4-3,4.2-2,6.7c1,2.4,3.5,3.8,6.1,3.3c1.6-0.3,2.8-1.4,3.8-2.6
		c2.8-3.4,2.3-9.4,0.1-12.5c-1.4-2-3.4-3-5.9-3c-4,0-7,1.8-9.3,4.9c-2.5,3.3-3.4,7.1-3.2,11.2c0.2,4,1.3,7.6,3.9,10.6
		C229.5,273,232,275.3,236.1,274.6z M260.7,311.3c0.7-0.7,1.4-1.4,2-2.3c0.6-0.9,1.1-1.9,1.3-3c0.1-0.6,0.1-1.1-0.5-1.4
		c-0.6-0.2-1,0-1.3,0.6c-0.1,0.1-0.2,0.3-0.2,0.4c-2.8,4.6-6.7,7.1-12.2,7c-5-0.1-8.7-2.4-11.3-6.5c-0.2-0.4-0.4-0.8-0.7-1.1
		c-0.3-0.4-0.7-0.5-1.2-0.4c-0.4,0.2-0.6,0.6-0.6,1c0,0.4,0.2,0.8,0.3,1.2c0.5,1.8,1.8,3.2,3.1,4.5c-0.5,0.6-1,1.1-1.4,1.7
		c-0.4,0.5-0.4,1,0,1.4c0.5,0.5,1.1,0.3,1.5-0.2c0.5-0.5,0.9-1.1,1.4-1.7c2.4,1.8,5.1,2.5,8,2.9c0.1,0.8,0,1.5,0.2,2.1
		c0.2,0.6,0.1,1.6,1.1,1.5c0.9,0,0.8-0.9,0.9-1.6c0.2-1.9,0.2-1.9,2.1-2.4c2.2-0.5,4.3-1.2,6.1-2.6c0.5,0.6,0.9,1.1,1.3,1.6
		c0.4,0.5,1,0.8,1.6,0.3c0.5-0.5,0.4-1,0-1.5C261.6,312.4,261.2,311.8,260.7,311.3z M212.8,292.8c-2-0.7-3.8-0.6-5.5,0.5
		c-4.2,2.7-5.4,9.5-2.5,13.5c0.6,0.8,1.3,1.6,2.4,2c0-2.9,0.4-5.7,1.4-8.3C209.7,297.7,211,295.2,212.8,292.8z M287.2,292.8
		c3.4,4.9,5.5,10.1,5.5,16c1-0.5,1.6-0.9,2.1-1.6c3.1-3.8,2.3-10.5-1.6-13.5C291.4,292.3,289.5,292,287.2,292.8z M254.1,274.6
		c1.1,0.4,1.8-0.2,2.4-0.8c1.8-1.7,2.8-3.8,3.7-6.1c1.5-4.1,2.1-8.2,0.7-12.4c-0.8-2.4-2.4-4.1-4.3-5.7c2.3,4,2.8,8.3,2.3,12.8
		C258.2,266.8,257.2,271.1,254.1,274.6z M268.3,274.9c1.7,0,2.9-0.7,3.6-1.8c3.3-4.5,4.5-9.5,3.3-14.9c-0.4-2.1-1.2-4.1-2.7-5.7
		c-0.3-0.3-0.5-0.7-1-0.2c0.3,0.5,0.6,0.9,0.9,1.4c1,1.5,1.5,3.2,1.6,4.9C274.2,264.6,273,270.2,268.3,274.9z M252.5,224.2
		c-0.9-0.2-1.8-0.5-2.6-0.4c-2.8,0.3-5.2,1.6-7,3.8c-2.7,3.3-3.9,7-3.4,11.3c0.1,1,0.3,2.1,0.9,3.1c0-0.1,0.1-0.2,0-0.3
		c-0.5-4.3,0.3-8.3,2.8-11.8c1.5-2.1,3.5-3.6,6.4-3.4c0.2,0,0.4,0.1,0.5-0.1C250.8,225.4,251.6,224.9,252.5,224.2z M213.7,304.4
		c0.2-0.5,0.4-0.9,0.5-1.3c2.2-5,5.3-9.4,10-12.4c1-0.6,2-1,3.1-1.5c0.3-0.1,0.8-0.3,0.6-0.8c-0.2-0.4-0.5-0.5-1-0.4
		c-1.1,0.2-2.1,0.6-3,1.1c-3.2,1.9-5.5,4.8-7.6,7.8c-1.1,1.6-2.1,3.4-2.7,5.3C213.3,302.9,213,303.7,213.7,304.4z M236.5,273.7
		c-2.3-3.5-3.9-7-2.9-11.2c-0.6-0.4-1.1-0.8-1.7-1.2C230.2,265.3,233.4,271.9,236.5,273.7z M273.5,340.4c0.6,0.8,1.3,1.4,2.1,1.9
		c0.6,0.4,1,0.2,1.3-0.4c0.2-0.4,0.4-0.9,0.3-1.4c-0.2-1.1-0.5-2.2-1-3.3C275.2,338.3,274.4,339.3,273.5,340.4z M226.5,340.4
		c-0.9-1.1-1.8-2.1-2.7-3.1c-0.4,0.9-0.7,1.7-0.9,2.6c-0.1,0.6-0.2,1.2,0.1,1.8c0.3,0.7,0.8,1,1.5,0.5
		C225.3,341.7,226,341.1,226.5,340.4z M270,252.3c2,2.8,2.5,6.1,2.4,9.4c0,3.3-0.9,6.5-2.4,9.5c0.2-0.2,0.4-0.5,0.6-0.8
		c2-3.6,2.6-7.5,2.5-11.5c-0.1-2.5-1.2-4.6-2.6-6.6C270.3,252.3,270.2,252.2,270,252.3z M279.7,320c0-0.2,0-0.5-0.3-0.5
		c-0.3-0.1-0.4,0.1-0.5,0.4c-0.2,0.5-0.4,1.1-0.6,1.6c-0.1,0.3-0.2,0.5,0.1,0.6c0.3,0.1,0.5,0,0.7-0.2
		C279.4,321.3,279.7,320.7,279.7,320z M280.4,323.8c0.1,0,0.2,0,0.2-0.1c0.5-0.5,0.8-1.1,1.1-1.7c0.1-0.1-0.1-0.3-0.2-0.4
		c-0.2-0.1-0.4-0.1-0.5,0.1c-0.4,0.5-0.8,1-1,1.6C280,323.5,280,323.7,280.4,323.8z M275.3,328.3c0.3,0,1.3-1,1.3-1.4
		c0-0.2-0.1-0.4-0.4-0.5c-0.3,0-1.3,1-1.3,1.3C274.8,328.1,275,328.3,275.3,328.3z M257,237.4c-0.9,0.3-1.2,1.5-1,3.2
		C256.3,239.5,256.5,238.4,257,237.4z"/>
	<path class="st1" d="M224.7,231.3c0-0.1-0.1-0.3-0.1-0.5c-0.1-0.4-0.1-0.8,0.4-0.9c0.5-0.1,0.8,0.3,0.8,0.7
		c0.1,0.6,0.3,1.1,0.6,1.7c0.2,0.4,0.5,0.8,0.9,1c0.6,0.4,0.7,0.9,0.1,1.4c-0.7,0.6-1,1.4-1.2,2.3c-0.1,0.4-0.2,0.7-0.7,0.8
		c-0.5,0.1-0.7-0.3-0.8-0.6c-0.4-0.9-0.7-1.7-1.7-2.2c-0.6-0.3-0.2-0.8,0.2-1.2C223.9,233.2,224.6,232.4,224.7,231.3z M225.4,233.4
		c-0.3,0.4-0.6,0.7-0.9,1.1c0.3,0.4,0.6,0.7,1,1.1c0.1-0.6,0.5-0.9,0.7-1.3C225.8,234,225.6,233.7,225.4,233.4z"/>
	<path class="st1" d="M274.3,218.7c0,0.2-0.1,0.4-0.3,0.6c-0.8,0.6-1.1,1.4-1.3,2.3c-0.1,0.4-0.3,0.8-0.8,0.8
		c-0.5,0-0.6-0.3-0.7-0.7c-0.3-0.9-0.5-1.9-1.4-2.5c-0.5-0.4-0.3-1,0.2-1.4c0.8-0.7,1.6-1.4,1.6-2.6c0-0.5,0.5-0.6,0.8-0.2
		c0.2,0.2,0.3,0.5,0.4,0.7c0.2,0.9,0.5,1.8,1.3,2.4C274.2,218.3,274.3,218.5,274.3,218.7z M272.1,217.9c-0.3,0.2-0.7,0.4-1.1,0.7
		c0.6,0.3,0.6,0.8,1,1.1c0.2-0.3,0.4-0.6,0.6-0.9C272.4,218.5,272.2,218.1,272.1,217.9z"/>
	<path class="st1" d="M282.7,249.5c0,0.4-0.1,0.6-0.4,0.8c-0.7,0.5-1.2,1.2-1.5,2c-0.1,0.4-0.2,0.7-0.7,0.6c-0.4,0-0.6-0.4-0.7-0.7
		c-0.3-1-0.5-2-1.5-2.6c-0.4-0.2-0.3-0.7,0-1c0.8-0.8,1.6-1.5,1.9-2.6c0.2-0.5,1-0.6,1.2-0.1c0.4,1.2,0.8,2.3,1.5,3.3
		C282.8,249.4,282.7,249.5,282.7,249.5z M281.3,249.7c-0.3-0.6-0.5-1.1-0.7-1.7c-0.4,0.5-0.8,0.8-1.1,1.2c0.3,0.5,0.6,1,0.9,1.4
		C280.7,250.3,280.9,250,281.3,249.7z"/>
	<path class="st1" d="M253.8,263.3c0.1,3.2-0.8,6-2.8,8.5c-0.1,0.1-0.2,0.3-0.4,0.4c-0.2,0.2-0.4,0.3-0.7,0.1
		c-0.3-0.2-0.2-0.4,0-0.7c0.3-0.5,0.7-0.9,1-1.4c1.3-1.8,1.8-3.8,1.9-5.9c0.1-2.6-0.1-5.2-1.1-7.6c-0.4-1.1-1-2.1-1.9-2.9
		c-0.3-0.3-0.7-0.6-0.3-1c0.4-0.4,0.7,0.1,1,0.4c1.6,1.7,2.4,3.7,2.8,6C253.7,260.5,253.9,261.9,253.8,263.3z"/>
	<path class="st1" d="M273.4,247.7c-0.5,0-0.7,0.5-1.1,0.7c-0.3,0.1-0.6,0.2-0.8,0c-0.2-0.3,0-0.6,0.2-0.7c1.9-1,2.4-2.8,2.7-4.7
		c0.3-1.9-0.1-3.8-1.1-5.5c-0.8-1.3-2.1-2.1-3.6-2.4c-0.4-0.1-1,0-0.9-0.6c0.1-0.6,0.7-0.4,1.1-0.3c2.7,0.6,4.8,3,5.2,5.8
		C275.8,242.8,275.2,245.4,273.4,247.7L273.4,247.7z"/>
	<path class="st1" d="M273.4,247.7c0.1,0,0.2-0.1,0.3-0.1c0.3-0.1,0.5-0.6,0.9-0.2c0.2,0.2,0.1,0.5-0.1,0.7c-0.3,0.3-0.6,0.6-1,0.4
		C273,248.2,273.4,247.9,273.4,247.7C273.4,247.7,273.4,247.7,273.4,247.7z"/>
	<path class="st1" d="M252.7,216.3c3,0.2,5.8,0.9,8.1,3c0.3,0.2,0.5,0.5,0.3,0.8c-0.3,0.4-0.6,0.1-0.9-0.1
		c-3.9-3.1-8.1-3.4-12.6-1.7c-1.4,0.5-2.8,1.3-3.8,2.4c-0.2,0.2-0.4,0.4-0.7,0.2c-0.3-0.3-0.1-0.5,0.1-0.8c0.4-0.5,0.9-0.8,1.4-1.2
		C246.9,217.2,249.7,216.5,252.7,216.3z"/>
	<path class="st1" d="M256,218.6c1.6,0.3,3,1.2,4.2,2.5c0.2,0.2,0.2,0.4,0,0.6c-0.2,0.2-0.4,0.1-0.6,0c-1.2-1.1-2.4-1.9-4-2.3
		c-0.2-0.1-0.4-0.3-0.3-0.5C255.3,218.5,255.6,218.6,256,218.6z"/>
	<path class="st1" d="M225.2,257.7c0.4-4.9,2-9.2,6.4-12c0.1-0.1,0.3-0.2,0.4-0.2c0.4-0.2,0.8-0.6,1.1-0.1c0.3,0.5-0.3,0.7-0.6,0.9
		c-4,2.4-5.7,6-6.3,10.4c-0.2,1.8,0.2,3.5,0.5,5.2c0.1,0.4,0.2,0.8-0.3,0.9c-0.5,0.1-0.5-0.4-0.6-0.8
		C225.5,260.6,225.1,259.2,225.2,257.7z"/>
	<path class="st1" d="M227.7,260.8c-0.1,0.3,0.2,0.8-0.3,0.9c-0.6,0.1-0.5-0.5-0.6-0.8c-0.1-0.7-0.2-1.4-0.2-2.1
		c0-0.2,0.1-0.5,0.4-0.5c0.3,0,0.4,0.2,0.5,0.5C227.6,259.5,227.7,260.1,227.7,260.8z"/>
</g>
<g>
	<path class="st1" d="M239.4,33.6c-0.8-0.7-1.6-1.2-2.2-1.9c-1.6-1.6-1.3-4,0.7-5.1c0.8-0.5,1.7-0.8,2.7-1.2c0-0.1,0-0.3,0-0.4
		c-0.7-2.8-1.4-5.7-2.1-8.5c-0.1-0.5-0.3-1-0.5-1.6c-0.5-1.2-0.2-2,1-2.4c1.5-0.5,3.1-1,4.6-1.2c5-0.8,9.8,0.2,14.5,1.8
		c0.2,0.1,0.4,0.2,0.6,0.3c1,0.5,1.1,1,0.5,1.9c-0.2,0.3-0.4,0.6-0.5,1c-0.6,3-1.2,6.1-1.8,9.2c0,0.1,0,0.2,0,0.4
		c0.3,0,0.7,0.1,1,0.1c1.4,0.1,2.8,0.6,3.9,1.5c1.4,1.2,1.5,2.7,0.2,4.1c-0.2,0.2-0.3,0.4-0.5,0.5c-0.9,0.4-1,1.2-0.9,2.1
		c0,1.2,0.4,2.2,1.1,3.2c0.4,0.6,0.9,1,1.6,1.2c1.5,0.6,3,1.2,4.5,1.7c0.6,0.2,1.3,0.4,2,0.6c1.1,0.3,2.2,0.5,3.3,0.8
		c3.5,0.9,6.3,2.9,8.8,5.5c3.5,3.8,5.9,8.1,7.2,13.1c1.1,3.9,1.3,7.8,1.1,11.8c-0.2,3.4-0.7,6.8-1.6,10.1c-1.1,3.9-2.9,7.4-5.2,10.7
		c-3.1,4.5-6.7,8.4-10.5,12.3c-1.7,1.8-3,3.8-4,6c-0.6,1.3-0.9,2.8-0.6,4.4c1.2,0.2,2.3,0.6,3.2,1.4c0.1,0.1,0.3,0.2,0.4,0.3
		c1.2,0.9,2,2,0.5,4c-1.2,1.7-2.8,2.8-4.7,3.4c-2.6,0.9-5.2,1.9-8,2.4c-1.6,0.3-3.2,0.7-4.8,1c-3.9,0.8-7.8,1-11.7,1
		c-3.8,0-7.5-0.6-11.3-1.4c-3-0.6-5.6-2.1-8-4c-1.2-1-2-2.3-2.3-3.8c-0.4-2.5,1.4-5,4-5.9c0.5-0.2,0.9-0.3,1.6-0.5
		c-0.6-1.9-0.9-3.7-2-5.3c-1.9-2.8-4-5.5-6.3-7.9c-2.2-2.3-4.3-4.6-6.3-7c-1.6-1.8-2.7-4-3.7-6.2c-3-6.7-4-13.7-2.7-21
		c0.1-0.7,0.3-1.3,0.5-2c1.3-3.7,2.7-7.4,4.9-10.7c2.8-4.2,6.4-7.7,11-10c2.8-1.4,5.7-2.3,8.6-3.2c1.1-0.3,2.3-0.7,3.4-1.1
		c1-0.3,1.9-0.9,2.6-1.7c0.4-0.5,0.9-0.9,1.3-1.4C239.1,35.2,239.4,34.5,239.4,33.6z M239.6,46.7L239.6,46.7
		c0.5-0.2,0.9-0.3,1.4-0.5c0.3-0.1,0.7-0.3,1-0.4c-0.1-0.6-0.1-1-0.2-1.6c-0.4,0.1-0.7,0.1-1.3,0.2c0.6-0.4,0.9-0.6,1.3-0.9
		c0-1.5,0-2.9,0-4.3c0-1.4,0.4-2.8,0.3-4.3c-1.2,0-2.1,0.4-2.7,1.5c-0.3,0.6-0.8,1-1.2,1.5c-0.8,1.1-1.8,1.8-3.1,2.2
		c-1,0.4-2,0.7-3,1c-2.8,0.9-5.6,1.9-8.3,3.2c-4,1.9-7.2,4.7-9.8,8.2c-2.8,3.9-4.7,8.3-5.6,13c-1.4,6.7-0.2,13.2,2.3,19.5
		c1.5,3.8,3.9,7.1,6.5,10.3c2.5,3.1,5,6.1,7.4,9.2c0.8,1,1.6,2.1,2.4,3.2c0.5,0.7,0.9,1.4,1.3,2.1c1.3,2.6,1.3,5.4,0.6,8.2
		c-0.1,0.2-0.1,0.5-0.3,0.6c-0.2,0.2-0.6,0.3-0.8,0.3c-0.2,0-0.4-0.3-0.5-0.5c-0.1-0.3-0.1-0.6-0.2-0.9c-1.3,0.1-1.5,0.4-0.9,1.3
		c0.3,0.4,0.7,0.9,1.1,1.2c1.3,1,2.7,1.9,4.3,2.3c2.5,0.6,5,1.3,7.4,1.9c3.9,0.9,7.9,1.2,11.9,0.8c5.4-0.5,10.7-1.6,16-3.3
		c1.1-0.3,2-0.9,2.9-1.6c0.5-0.4,0.9-0.9,1-1.5c-1.2-0.8-2.1-0.3-2.9,0.5c-0.9-0.9-1-1-1.2-1.9c-0.3-2.1-0.2-4.2,0.6-6.2
		c1-2.3,2.2-4.5,3.9-6.4c1.7-1.9,3.3-3.8,5.1-5.5c2.8-2.7,5-5.9,7-9.1c1.8-2.9,3.1-6.1,3.8-9.5c0.6-2.8,1-5.6,1.1-8.4
		c0.1-2.3,0.1-4.7-0.2-7c-0.8-6.3-3.2-12-7.5-16.7c-2.2-2.4-4.6-4.3-7.8-5.1c-1.1-0.3-2.2-0.5-3.3-0.8c-0.7-0.2-1.5-0.4-2.2-0.6
		c-1.2-0.4-2.4-1-3.7-1.4c-2.4-0.6-3.5-2.3-4-4.5c-0.1-0.4-0.1-0.8-0.2-1.2c-0.8-0.4-1.5-0.5-2.3-0.4c-0.3,2.5-0.1,4.9-0.2,7.2
		c0.3,0.2,0.5,0.3,0.8,0.5c-0.3,0.1-0.5,0.3-0.8,0.4c0,0.5,0,1,0,1.4c0.6,0.2,1.1,0.3,1.8,0.6c-0.8,0-1.3,0-1.8,0c0,0.6,0,1.1,0,1.6
		c-0.1,1.1-0.3,2.2-0.4,3.2c-0.1,1.2-0.3,1.4-1.5,1.5c-1.4,0.2-2.9,0.3-4.4,0.4c-1.9,0.1-3.7,0-5.6-0.5c-1.5-0.4-2.2-1.3-2.5-2.7
		c-0.1-0.5-0.2-1-0.3-1.5C241.1,46.5,240.4,46.6,239.6,46.7z M251.7,26.7c1.4,1.1,2.5,0,3.8-0.2c0.8-3.5,1.6-6.8,2.2-10.4
		c-5.2,0.7-10.3,0.3-15.5,0c0.7,3.3,1.4,6.5,1.8,9.7c-0.5-1.6-1-3.2-1.4-4.8c-0.4-1.6-0.5-3.3-1.1-4.9c-0.6-0.1-1.1-0.2-1.8-0.4
		c0,0.5-0.1,0.8,0,1.2c0.6,2.8,1.3,5.7,2,8.5c0,0.2,0.3,0.3,0.5,0.4c-0.2-2-0.9-3.9-0.8-5.9c0.7,1,0.9,2.2,1.2,3.3
		c0.3,1.1,0.6,2.3,0.8,3.5c2.3,0.8,4.7,1.2,7.2,0.9C251.2,27.5,251.5,27.2,251.7,26.7z M241.6,26.4c-1.3,0.1-2.3,0.6-3.1,1.3
		c-0.9,0.8-1,1.9-0.2,2.8c0.6,0.7,1.4,1.2,2.2,1.5c2.2,0.9,4.6,1.3,7,1.3c2.1,0,4.2-0.1,6.3-0.3c1.8-0.2,3.6-0.6,5.3-1.4
		c0.7-0.3,1.4-0.7,1.9-1.3c0.8-0.7,0.7-1.4-0.2-2.1c-1.6-1.3-3.4-1.3-5.2-0.8c-3,1-6.1,1.5-9.3,0.9
		C244.6,28.3,242.9,27.9,241.6,26.4z M272.3,119.3c-0.7,0.8-1.2,1.5-1.8,2c-1,0.9-2.3,1.5-3.6,1.9c-4.9,1.5-9.8,2.5-14.9,2.9
		c-2.3,0.2-4.7,0.4-7,0.3c-4.8-0.2-9.5-1.3-14.1-2.7c-1.5-0.5-2.9-1.2-4.1-2.1c-1.7-1.3-3-2.9-2.1-5.4c-1.6,1.5-1.9,3-0.9,4.7
		c0.4,0.7,1,1.3,1.6,1.8c0.5,0.5,1.1,0.8,1.7,1.2c1.4,1.1,2.9,1.8,4.5,2.2c1.8,0.4,3.6,0.9,5.5,1.3c1,0.2,2,0.3,3,0.4
		c2.6,0.1,5.1,0.2,7.7,0.3c2.7,0,5.3-0.1,7.9-0.9c1.6-0.5,3.2-0.9,4.8-1.1c2.3-0.3,4.5-1,6.6-1.7c1.8-0.6,3.4-1.7,4.7-3.2
		C272.1,120.7,272.4,120.2,272.3,119.3z M255,41.5c0.3-2.4,0.5-4.5,0.7-6.7c0-0.1,0-0.2,0-0.3c0,0,0-0.1-0.1-0.1
		c0,0-0.1-0.1-0.1-0.1c-1.9,0.2-3.9,0.4-5.8,0.6c-1.9,0.1-3.9-0.1-5.7,0c-0.1,0.2-0.2,0.2-0.2,0.2c0.1,2.1,0.2,4.2,0.3,6.3
		c0,0.1,0.3,0.2,0.7,0.4c0-1.1,0-2,0.1-2.9c0.1-0.9-0.3-1.8,0.3-2.7c0.6,0.8,0.4,1.7,0.5,2.6c0.1,0.9-0.1,1.8,0.3,2.7
		c0.8-0.8,0.2-2,0.7-3.1c0.2,1.1,0.2,2.1,0.6,3c1.3-0.1,2.6-0.2,3.9-0.1C252.4,41.3,253.6,41.4,255,41.5z M254.7,14.6
		c0,0.1,0,0.2,0,0.4c-1.7,0.1-3.4,0.2-5.1,0.3c0.1,0.3,0.3,0.3,0.5,0.3c2.2-0.1,4.4-0.2,6.6-0.4c0.4,0,0.7-0.1,1.1-0.3
		c0.3-0.1,0.6-0.4,0.6-0.9c-0.2-0.1-0.5-0.3-0.8-0.4c-2.2-0.8-4.6-1.3-6.9-1.5c-2-0.2-3.9-0.1-5.9,0c-1.7,0.1-3.4,0.6-5,1.4
		c-0.3,0.2-0.7,0.3-0.6,0.9c0.6,0.6,1.5,0.5,2.3,0.5c-0.4-0.2-0.7-0.4-1.1-0.7c0.8,0,1.4,0.2,2.2,0.3c2.8,0.3,5.6,0.5,8.5,0.1
		c1-0.1,2.1-0.2,3.1-0.2C254.2,14.4,254.5,14.5,254.7,14.6z M248.8,45.2c1.1,0,2.1,0,3.1,0c1,0,2,0.2,3.1,0.2c0-0.5-0.1-0.9-0.1-1.4
		c-1.3-0.1-2.5-0.1-3.8-0.2c1.3-0.2,2.5-0.1,3.8-0.3c0-0.5,0-0.9,0-1.4c-0.3-0.1-0.6-0.2-0.9-0.3c-1.2-0.1-2.4-0.1-3.6-0.2
		c-0.4,0-0.8,0-1.2,0c-0.6,0.1-0.9,0.4-0.8,1C248.5,43.4,248.6,44.2,248.8,45.2z M254.7,47.4c-2,0.8-3.9,0.7-5.8,0.7
		c0,0-0.1,0-0.1,0.1c-0.1,0.4-0.2,0.7-0.4,1.3c-0.2-0.8-0.3-1.2-0.5-1.8c-0.3,0.5-0.5,0.9-0.6,1.2c-0.5-0.1-0.6-0.5-0.7-0.8
		c-0.1-0.2-0.3-0.4-0.5-0.5c-0.1,0-0.2,0.1-0.2,0.1c0,0.6,0.1,1.1,0.1,1.7c2.9,0.9,5.7,0.8,8.5,0.3
		C254.6,48.9,254.6,48.2,254.7,47.4z M244.5,45.4c0.7-0.1,1.3-0.1,1.9-0.2c0-0.5,0.1-0.9,0.1-1.3c0-0.5,0-0.9-0.1-1.4
		c0-0.2-0.3-0.3-0.5-0.4c-0.5,0.6,0,1.4-0.7,1.9c-0.2-0.6-0.4-1.1-0.6-1.7C244.1,42.8,244.1,43,244.5,45.4z M254.7,45.9
		c-2.1-0.4-4-0.5-5.8-0.3c-0.2,0.5-0.2,0.9,0.3,1C251,46.9,252.7,46.8,254.7,45.9z M247.2,42c0.1,0.8,0.1,1.7,0.2,2.6
		c0,0.4,0.3,0.6,0.8,0.3c0-0.8,0.1-1.6,0-2.5C248.2,41.9,248,41.9,247.2,42z M245,48.7c0.5-1.2,0.4-1.4-0.5-1.4
		C244.6,47.8,244.4,48.3,245,48.7z"/>
	<path class="st4" d="M270.8,67.4c1,1.2,1.1,2.4,1.1,3.6c-0.1,1.2-0.6,2.2-1.6,2.8c-0.6,0.3-1.2,0.7-1.9,0.8
		c-2.1,0.3-4.2,0.6-6.2,0.8c-1.1,0.1-2.2,0.2-3.3,0.2c-1,0-2.1-0.1-3.3-0.1c0.3,0.3,0.4,0.5,0.6,0.6c1.3,0.4,2.2,1.4,3.2,2.3
		c0.6,0.5,1.1,1.1,1.7,1.6c0.9,0.8,1.3,1.9,1.4,3c0.1,1,0.1,2.1-0.3,3.1c-0.1,0.3,0,0.7,0,1c0,0.2,0.1,0.3,0.2,0.5
		c0.1,0.4,0.1,0.8-0.3,1.1c-0.4,0.3-0.8,0.3-1.2,0c-0.5-0.4-0.9-0.9-1.4-1.4c-3.6-0.2-5.9-2.5-7.6-5.5c-0.3-0.5-0.5-0.9-1-1.4
		c-0.1,0.8-0.2,1.6-0.2,2.4c0,0.4,0,0.8-0.2,1.2c-0.1,0.5-0.5,0.7-0.9,0.6c-0.4-0.1-0.6-0.4-0.6-0.8c0-0.7,0-1.3-0.2-2.1
		c-0.1,0.2-0.2,0.3-0.3,0.5c-1.1,2-2.6,3.6-4.3,5.1c-0.1,0.1-0.1,0.1-0.2,0.2c-1.1,0.6-2.4,1.1-3.3,2.1c-0.4,0.4-1.1,0.5-1.7,0.1
		c-0.6-0.4-0.7-0.9-0.5-1.6c0.1-0.2,0.1-0.4,0.2-0.8c-0.3-0.3-0.6-0.6-0.9-1c-1.7-1.8-1.6-4.2,0.1-5.9c1.1-1.1,2.3-1.9,3.7-2.5
		c0.8-0.3,1.6-0.7,2.3-1.2c-0.3,0-0.6,0.1-0.8,0.1c-1.9,0.5-3.8,0.5-5.7,0.4c-1.8-0.2-3.3-0.8-4.8-1.9c-1.8-1.3-2.9-5-0.9-7.2
		c-0.3-0.3-0.7-0.6-1-0.8c-2.9-2-3.6-5.2-1.8-8.3c0.7-1.3,1.5-1.6,3-1.2c2.1,0.6,4.1,1.6,5.9,2.8c1.9,1.3,3.6,2.6,5.5,3.9
		c1.6,1.1,3,2.4,4.1,4c0.3,0.4,0.6,0.7,0.9,1.1c0.4-0.3,0.7-0.6,1.1-1c-0.9-3.6-3.2-6.5-5.8-9.5c0.8,0.3,1.2,0.5,1.5,0.9
		c2.2,2.2,4.1,4.4,4.8,7.5c0.1,0.6,0.2,0.6,1,0.6c0.2-0.9,0.4-1.8,0.6-2.8c0.4-1.9,1.2-3.6,2.6-4.9c0.2-0.2,0.4-0.3,0.9-0.6
		c-0.3,0.6-0.4,1-0.5,1.2c-1.3,1.9-1.9,4.1-2.4,6.4c-0.2,0.7-0.1,1.3,0.7,1.8c0.3-0.3,0.6-0.7,0.9-1c2.9-3.8,6.8-6.2,11.1-7.9
		c2.4-1,4.9-1.6,7.5-1.5c2.2,0.1,2.9,0.8,2.6,3c-0.2,1.6-0.9,2.9-2.2,3.8C272.1,66.5,271.5,66.9,270.8,67.4z"/>
	<path class="st1" d="M264.6,117.8c-0.1-0.3-0.2-0.7-0.2-1c-0.2-3.4,0.4-6.7,2.3-9.6c0.7-1.1,1.5-2.2,2.3-3.2
		c2.5-2.9,5.1-5.7,7.4-8.6c2.8-3.5,4.9-7.4,6.6-11.5c0.3-0.6,0.3-1.3,0.6-2.2c0.1,0.4,0.2,0.6,0.3,0.8c0.1,1.5-0.4,2.9-1,4.2
		c-0.9,1.8-1.8,3.5-2.7,5.2c-1.4,2.8-3.6,5-5.6,7.4c-2,2.5-4.1,5.1-6.1,7.6c-1.2,1.5-1.9,3.2-2.3,5.1c-0.4,1.8-0.7,3.6-1.1,5.4
		c0,0.2-0.1,0.3-0.1,0.5C264.7,117.8,264.7,117.8,264.6,117.8z"/>
	<path class="st1" d="M260.5,109.1c-0.1,0.7-0.6,0.9-1,1.1c-1.1,0.6-2.3,0.9-3.5,1c-4.1,0.2-8.1,0.2-12.1-0.6
		c-2.1-0.4-4.1-1.1-6.2-1.8c-1.5-0.5-2.7-1.5-3.8-2.7c1.9,1,3.6,2.1,5.7,2.6c2.1,0.5,4.1,1.1,6.3,1.2c-0.8-0.2-1.6-0.4-2.4-0.7
		c-0.8-0.3-1.7-0.3-2.2-1.3c1.7,0.4,3.3,0.8,5,1c1.7,0.2,3.4,0.1,5.1,0c1.6-0.1,3.3-0.3,4.9-0.7c1.6-0.4,3.2-1,4.9-1.5
		c-0.2,0.8-0.6,1-1.1,1.2c-2.1,1.2-4.4,1.7-6.8,1.9c-1.8,0.1-3.6,0.2-5.6,0.3c1.1,0.3,2.2,0.4,3.2,0.4c1.1,0,2.2,0,3.3,0
		c1.1-0.1,2.2-0.2,3.3-0.4C258.4,109.9,259.5,109.5,260.5,109.1z"/>
	<path class="st1" d="M284.4,74.8c0.1-1.3,0.2-2.5,0.3-3.8c0.5-4.5,0-8.8-1.6-13.1c-1.1-3-2.9-5.6-4.9-8c-1-1.3-2.3-2.3-3.8-3.1
		c-0.2-0.1-0.3-0.2-0.6-0.5c0.5-0.1,0.7-0.2,0.9-0.1c0.6,0.2,1.2,0.5,1.7,0.9c1.2,1,2.3,2.1,3.3,3.3c1.8,2.2,3.3,4.7,4.3,7.4
		c1.3,3.5,1.9,7.1,1.6,10.8c-0.1,1.9-0.6,3.9-0.9,5.8c0,0.2-0.1,0.3-0.2,0.5C284.5,74.9,284.5,74.8,284.4,74.8z"/>
	<path class="st1" d="M212.8,83.9c-4.2-5.2-4.8-15.2-1.3-21.3c0,0.4,0.1,0.6,0,0.7c-0.1,0.7-0.2,1.4-0.3,2.2
		c-1.1,5.5-0.6,10.8,1.1,16.1C212.4,82.3,212.6,83.1,212.8,83.9z"/>
	<path class="st1" d="M215.5,89.7c0.2,0.2,0.3,0.4,0.5,0.5c3,3.8,6,7.7,9,11.5c2,2.6,3.5,5.4,4.7,8.4c0.7,1.8,1.2,3.6,1.1,5.5
		c0,0.4-0.2,0.9-0.3,1.5c-0.5-0.6-0.5-1.2-0.6-1.7c-0.3-4.2-1.8-7.9-4.1-11.3c-1.9-2.7-4.1-5.2-6.1-7.9c-1.4-1.8-2.7-3.7-4-5.6
		c-0.2-0.3-0.3-0.6-0.5-0.9C215.4,89.8,215.4,89.8,215.5,89.7z"/>
	<path class="st1" d="M279.3,52.9c-0.2-0.2-0.5-0.4-0.6-0.6c-1.2-1.4-2.6-2.5-4.3-3.3c-2.9-1.5-6-2.6-9.3-3.1
		c-1.4-0.2-2.8-0.7-4.2-1.1c-0.3-0.1-0.6-0.3-1.1-0.6c0.3-0.1,0.5-0.1,0.6-0.1c2.4,0.9,5,1.1,7.5,1.6c3,0.6,5.8,1.7,8.4,3.4
		c1.2,0.8,2.2,1.9,3,3.2c0.1,0.2,0.2,0.4,0.3,0.6C279.5,52.8,279.4,52.8,279.3,52.9z"/>
	<path class="st1" d="M213.1,57c-0.1-0.3-0.1-0.3-0.1-0.4c1.4-3.4,3.1-6.5,6.4-8.5c1.4-0.9,2.9-1.7,4.3-2.6c0.3-0.2,0.7-0.5,1-0.1
		c0.3,0.5-0.3,0.6-0.6,0.8c-1.5,0.9-2.9,1.8-4.4,2.8c-1.3,0.8-2.4,2-3.3,3.2c-0.9,1.4-1.9,2.7-2.8,4C213.5,56.6,213.3,56.7,213.1,57
		z"/>
	<path class="st1" d="M217.9,55c0.3-1.2,0.9-2.2,1.7-3.1c1.6-1.8,3.3-3.2,5.4-4.3c0.2-0.1,0.3-0.2,0.5-0.2c2-0.8,3.9-1.5,5.9-2.3
		c2.3-0.8,4.5-1.7,6.5-3.1c0.2-0.1,0.4-0.2,0.7-0.2c-0.2,0.2-0.4,0.4-0.6,0.6c-2,1.5-4.2,2.5-6.6,3.3c-2.2,0.8-4.4,1.5-6.4,2.6
		c-2.5,1.4-4.5,3.3-6.1,5.6C218.5,54.2,218.2,54.6,217.9,55z"/>
	<path class="st1" d="M235.3,121.3c0.4,0,0.7,0.1,1,0.1c3.3,0.7,6.7,1.4,10.1,1.7c1,0.1,2,0.2,3,0.1c2.5-0.2,5.1-0.2,7.6-0.7
		c0.1,0,0.2,0,0.3,0.1C252.8,124.6,241.7,124.3,235.3,121.3z"/>
	<path class="st1" d="M263.7,118.6c-0.9-1.4-1.1-2.9-0.9-4.4c0.3-3.6,1.3-7,3.2-10.1c0.2-0.3,0.5-0.7,0.7-1c0.2-0.2,0.4-0.5,0.6-0.7
		c0.1,0.1,0.2,0.1,0.2,0.2c-0.1,0.3-0.2,0.5-0.3,0.8c-1.9,2.9-3,6.1-3.6,9.5c-0.3,1.8-0.4,3.5,0.1,5.3
		C263.7,118.3,263.7,118.5,263.7,118.6z"/>
	<path class="st1" d="M215.6,58.9c-0.1,0.2-0.1,0.3-0.2,0.5c-1.6,3.5-2.2,7.1-2.1,10.9c0.1,3.1,0.8,6.1,1.7,9.1
		c0.2,0.7,0.4,1.4,0.4,2.1c-0.3-0.7-0.6-1.3-0.8-2c-1.6-4.7-2.1-9.5-1.5-14.4c0.2-2,1-4,1.9-5.8c0.1-0.2,0.3-0.3,0.4-0.5
		C215.5,58.7,215.6,58.8,215.6,58.9z"/>
	<path class="st1" d="M215.1,72.4c0.4,1.7,0.7,3.4,1.1,5.1c0.4,1.7,0.9,3.3,1.6,5c0.6,1.6,1.4,3.2,2.2,4.7c0.8,1.5,1.8,2.9,2.7,4.3
		C219.1,88.3,214.9,77.9,215.1,72.4z"/>
	<path class="st1" d="M228,44.8c0.4-0.6,0.9-0.6,1.3-0.8c1.7-0.6,3.4-1,5.1-1.7c1.7-0.6,3.2-1.6,4.1-3.3c0.3-0.6,0.7-1.2,1.1-1.7
		c0.1-0.2,0.4-0.2,0.7-0.3c0.1,0.2,0.2,0.5,0.2,0.7c-0.1,0.3-0.3,0.7-0.5,1c-1.6,2.2-3.7,3.6-6.2,4.5c-1.6,0.6-3.2,1.2-4.8,1.5
		C228.6,44.7,228.3,44.7,228,44.8z"/>
	<path class="st1" d="M232.3,118c-0.7-2-0.5-4.2-1.1-6.2c-0.6-2-1.3-4.1-1.9-6.2C231.3,107.4,233.1,114.3,232.3,118z"/>
	<path class="st1" d="M258.2,39.2c0.4,0.4,0.9,0.8,1.3,1.3c1.7,1.8,3.7,3,6.3,3.4c1.2,0.2,2.4,0.4,3.6,0.6c0.3,0.1,0.7,0.2,1.1,0.3
		c-0.8,0.3-1,0.4-1.7,0.3c-1.3-0.2-2.7-0.4-4-0.7c-2.7-0.6-4.8-2.2-6.4-4.4c-0.1-0.1-0.1-0.2-0.2-0.4
		C258.1,39.5,258.2,39.4,258.2,39.2z"/>
	<path class="st1" d="M217.9,88.4c0.9,1.4,1.8,2.9,2.8,4.3c1,1.4,1.9,2.8,3,4.1c1.1,1.3,2.3,2.5,3.6,3.9
		C224.4,99.3,219,92.3,217.9,88.4z"/>
	<path class="st1" d="M235.8,109.4c2.4,0.6,4.8,1.4,7.2,1.9c2.4,0.5,4.8,0.7,7.3,1.1C247.2,113.2,238,111.4,235.8,109.4z"/>
	<path class="st1" d="M280.9,58.9c-1.3-2.2-2.7-4.3-4.6-5.9c-1.9-1.6-3.9-3-6.2-4.1c1.4,0,2.5,0.8,3.6,1.5c2.9,1.9,5.4,4.2,7.1,7.2
		C281.1,58.2,281,58.2,280.9,58.9z"/>
	<path class="st1" d="M283.4,75.4c0-1.4,0.1-2.9,0.1-4.3c0-1.5-0.2-2.9-0.2-4.4c0-1.4-0.7-2.8-0.5-4.4
		C284.1,64.1,284.5,71.4,283.4,75.4z"/>
	<path class="st1" d="M218.8,56.1c0.3-0.5,0.5-0.9,0.8-1.4c1.5-2.2,3.3-4.2,5.4-5.8c0.6-0.5,1.4-0.9,2.1-1.2
		c0.4-0.2,0.8-0.2,1.3-0.3C223.8,50.3,223.5,50.3,218.8,56.1z"/>
	<path class="st1" d="M232.5,108.6c1.4,3.2,1.7,6.5,1.3,9.9c-0.7-1.6-0.4-3.3-0.6-4.9C232.9,111.9,232.7,110.3,232.5,108.6z"/>
	<path class="st1" d="M276.9,89.1c-1.5,2.9-3.3,5.5-5.7,7.8c-0.1-0.1-0.2-0.2-0.2-0.2c0,0,0-0.1,0-0.1c1.9-2.5,3.7-5.1,5.6-7.6
		C276.6,89,276.8,89,276.9,89.1z"/>
	<path class="st1" d="M250.7,105.8c1.9-0.5,3.6-0.8,5.2-1.3c1.5-0.5,3-1,4.6-1.5c-0.8,0.7-1.7,1-2.6,1.4c-1.9,0.7-3.9,1.2-6,1.5
		C251.7,105.9,251.3,105.8,250.7,105.8z"/>
	<path class="st1" d="M218.3,67.4c-0.3-3.4,0.7-6.5,2.4-9.4C219.4,61,218.5,64.1,218.3,67.4z"/>
	<path class="st1" d="M239.6,46.7c-0.4,0.2-0.7,0.4-1.1,0.5c-1.7,0.5-3.2,1.2-4.8,2.1c-1.5,0.8-3,1.7-4.8,2.7
		c0.3-0.3,0.3-0.5,0.4-0.5c2.8-1.7,5.6-3.5,8.8-4.5C238.7,46.8,239.2,46.8,239.6,46.7L239.6,46.7z"/>
	<path class="st1" d="M242.8,105.5c-3.2-0.3-6-1.8-8.5-3.8C237,103.3,239.8,104.6,242.8,105.5z"/>
	<path class="st1" d="M260.6,118.9c-0.5-2.1-0.3-4.1-0.2-6.2c0.1,0,0.2,0,0.3,0c0,2.1,0.1,4.1,0.1,6.2
		C260.7,118.8,260.7,118.8,260.6,118.9z"/>
	<path class="st1" d="M238.6,105.9c-1.6,0-4.8-1.7-6.9-3.7C234.2,103.5,236.4,104.7,238.6,105.9z"/>
	<path class="st1" d="M236.8,119.8c-0.1-1.6-0.1-3.3-0.2-5.2c0.7,1.2,0.8,3.5,0.5,5.2C237,119.8,236.9,119.8,236.8,119.8z"/>
	<path class="st1" d="M244.8,113.2c-1.7,0.3-5-0.2-6.4-1C240.6,112.6,242.7,112.9,244.8,113.2z"/>
	<path class="st1" d="M267.6,100c-0.9,1.3-2.1,2.2-3.6,3c0.3-0.8,0.3-0.8,1.6-1.8c0.6-0.5,1.2-1,1.8-1.4
		C267.4,99.9,267.5,99.9,267.6,100z"/>
	<path class="st1" d="M262.4,121.7c0.3-0.2,0.5-0.3,0.7-0.3c1.4-0.5,2.8-0.9,4.4-1.4C266.2,121,264.1,121.7,262.4,121.7z"/>
	<path class="st1" d="M225.3,96.2c1,0.9,2.1,1.8,2.9,2.9c-0.2,0.1-0.3,0.2-0.3,0.2C226.9,98.8,225.6,97.4,225.3,96.2z"/>
	<path class="st1" d="M257.7,114.9c0.1,0.5,0.2,1,0.3,1.6c0.1,0.7,0.1,1.5,0.1,2.2c-0.8-1.2-0.7-2.5-0.7-3.8
		C257.5,114.9,257.6,114.9,257.7,114.9z"/>
	<path class="st1" d="M258.9,114.1c0.3,1.5,0.7,2.9,0.5,4.4C258.9,117,258.9,115.5,258.9,114.1z"/>
	<path class="st1" d="M285.2,83.1c0.3-1.6,0.7-3.1,1-4.7C286.5,79.3,286.1,81.7,285.2,83.1z"/>
	<path class="st1" d="M235.4,116.8c-0.6-1.5-0.4-3-0.3-4.4C235.4,113.8,235.5,115.3,235.4,116.8z"/>
	<path class="st1" d="M242.3,114.6c-1.2,0.2-2.4,0-3.5-0.6C240.1,113.9,241.2,114.3,242.3,114.6z"/>
	<path class="st1" d="M279,88.3c0.6-1.1,1.2-2.2,1.9-3.4C280.6,86,280,87.2,279,88.3z"/>
	<path class="st1" d="M234.4,45.8c-0.7,0.3-1.3,0.6-2,0.9C232.9,46.2,233.6,45.9,234.4,45.8z"/>
	<path class="st1" d="M216.6,64.5c-0.1,0.8-0.3,1.6-0.4,2.5C215.8,66,216.2,65.2,216.6,64.5z"/>
	<path class="st1" d="M256.6,16.7c-0.2,0.5-0.4,0.8-0.5,1.1c-0.1,0.3-0.1,0.7-0.1,1.2c-0.4-0.1-0.8-0.2-1.3-0.4
		c0,0.1-0.2,0.2-0.2,0.3c-0.1,0.4-0.1,0.8-0.2,1.2c-0.1,0.3-0.2,0.7-0.4,1c0-0.8-0.9-1.4-0.1-2.3c-1.4-0.3-2.7-0.1-4-0.3
		c1.3-0.1,2.7-0.3,4.2-0.4c-0.2-0.3-0.3-0.5-0.5-0.5c-0.3-0.1-0.6-0.1-0.9-0.1c-2.3,0.4-4.5-0.2-6.8-0.3c-0.3,0-0.6-0.1-0.9-0.3
		c2-0.3,3.9,0.2,5.9,0.1C252.7,17,254.6,16.8,256.6,16.7z"/>
	<path class="st1" d="M252.8,24c0.4,0.1,0.8,0.3,1.2,0.4c0.1-0.4,0.2-0.8,0.3-1.2c0.3,0,0.6,0.1,0.9,0.1c0.1-0.8,0.3-1.5,0.4-2.4
		c0.1,0.1,0.3,0.2,0.3,0.3c-0.1,1.3-0.3,2.6-0.4,3.9c0,0.2-0.2,0.4-0.4,0.6c0-0.5,0-1.1,0-1.8c-0.7,0.5-0.6,1.1-0.7,1.6
		c-0.1,0.8-0.6,1.2-1.7,1.2c0.2-0.6,1.1-0.5,1-1.2c-0.4-0.4-0.7-0.7-1.1-1.1C252.7,24.2,252.8,24.1,252.8,24z"/>
	<path class="st1" d="M243.7,17.9c0.9,1.4,1,2.9,1.1,4.6c-0.8-0.8-0.6-1.7-0.8-2.4C243.9,19.4,243.8,18.6,243.7,17.9z"/>
	<path class="st1" d="M252,21.4c0.2,0.9-0.9,0.9-1,1.6c-0.1,0-0.2-0.1-0.3-0.1c0-0.2-0.2-0.6-0.1-0.6
		C251.1,21.9,251.5,21.7,252,21.4L252,21.4z"/>
	<path class="st1" d="M241.1,18.5c-0.6-0.6-0.7-1.3-0.6-2.1C241.1,17,241.4,17.6,241.1,18.5z"/>
	<path class="st1" d="M250.2,22.8c-0.3,0.2-0.5,0.4-0.8,0.4c-0.1,0-0.4-0.3-0.3-0.5c0-0.2,0.3-0.4,0.5-0.4
		C249.8,22.4,250,22.6,250.2,22.8z"/>
	<path class="st1" d="M252,21.4c-0.1-0.6,0.2-0.8,0.8-0.8c-0.1,0.3,0,0.6-0.2,0.7C252.5,21.5,252.2,21.4,252,21.4L252,21.4z"/>
	<path class="st1" d="M255.3,28.3c1.3-0.4,2.6-0.4,3.8,0.1c0.9,0.4,1.1,1.1,0.4,1.9c-0.2-1-0.3-1.1-1.2-1.3
		c-0.6-0.1-1.3-0.1-1.9-0.2c-0.4,0-0.8-0.1-1.2-0.1C255.3,28.6,255.3,28.4,255.3,28.3z"/>
	<path class="st1" d="M239.2,30.4c-0.7-0.5-0.6-1.1-0.4-1.6c0.2-0.6,0.7-1,1.4-1.2C239.2,29,239.2,29,239.2,30.4z"/>
	<path class="st1" d="M241.6,31.4c1.1,0.3,2.2,0.5,3.4,0.8C243.8,32.5,242.8,32.3,241.6,31.4z"/>
	<path class="st1" d="M254.6,31.9c-0.9,0.1-1.8,0.2-2.7,0.3c0.9-0.5,1.8-0.6,2.7-0.6C254.6,31.7,254.6,31.8,254.6,31.9z"/>
	<path class="st1" d="M229.2,124.1c-1.7-0.3-3.3-1-4.3-2.5C226.4,122.4,227.8,123.3,229.2,124.1z"/>
	<path class="st1" d="M254.6,35.3c0.3,1.8,0.1,3.5-0.2,5.3C254,38.8,254.1,37,254.6,35.3z"/>
</g>
</svg>
