<svg xmlns="http://www.w3.org/2000/svg" version="1.1" xmlns:xlink="http://www.w3.org/1999/xlink" width="512" height="512" x="0" y="0" viewBox="0 0 512 512" style="enable-background:new 0 0 512 512" xml:space="preserve" class=""><g><path d="M112.56 295.76a148.202 148.202 0 0 0 20.85 44.61c23.71 34.4 61.52 58.32 105.09 63.42M273.5 403.78c43.57-5.09 81.38-29.02 105.09-63.41 9.22-13.36 16.3-28.31 20.77-44.34M398.52 213.05a148.08 148.08 0 0 0-19.93-41.42c-26.84-38.93-71.73-64.44-122.59-64.44-21.76 0-42.42 4.67-61.05 13.07M164.95 138.29a149.487 149.487 0 0 0-31.54 33.34 147.97 147.97 0 0 0-20.51 43.4M158.73 235.097c21.462-18.323 57.027-42.054 97.27-42.054 40.044 0 75.456 23.497 96.95 41.782M352.323 277.707c-21.552 18.205-56.666 41.25-96.323 41.25-40.362 0-76.017-23.871-97.459-42.216" style="stroke-width:15;stroke-linecap:round;stroke-linejoin:round;stroke-miterlimit:10;" fill="none" stroke="#ffffff" stroke-width="15" stroke-linecap="round" stroke-linejoin="round" stroke-miterlimit="10" data-original="#000000" opacity="1"></path><path d="M297.014 201.298c16.483 12.439 27.138 32.461 27.138 54.702 0 22.72-11.117 42.843-28.209 55.226M216.16 311.299c-17.149-12.377-28.311-32.535-28.311-55.299 0-22.8 11.196-42.985 28.39-55.356" style="stroke-width:15;stroke-linecap:round;stroke-linejoin:round;stroke-miterlimit:10;" fill="none" stroke="#ffffff" stroke-width="15" stroke-linecap="round" stroke-linejoin="round" stroke-miterlimit="10" data-original="#000000" opacity="1"></path><circle cx="256" cy="256" r="29.226" style="stroke-width:15;stroke-linecap:round;stroke-linejoin:round;stroke-miterlimit:10;" fill="none" stroke="#ffffff" stroke-width="15" stroke-linecap="round" stroke-linejoin="round" stroke-miterlimit="10" data-original="#000000" opacity="1"></circle><path d="M256 162.511v-29.383M216.49 171.27l-12.418-26.63M295.51 171.27l12.418-26.63M256 349.489v29.383M216.49 340.73l-12.418 26.63M295.51 340.73l12.418 26.63M7.5 104.45c83.699 0 151.55 67.851 151.55 151.55S91.199 407.55 7.5 407.55M504.5 104.45c-83.699 0-151.55 67.851-151.55 151.55s67.851 151.55 151.55 151.55" style="stroke-width:15;stroke-linecap:round;stroke-linejoin:round;stroke-miterlimit:10;" fill="none" stroke="#ffffff" stroke-width="15" stroke-linecap="round" stroke-linejoin="round" stroke-miterlimit="10" data-original="#000000" opacity="1"></path><path d="M59.69 180.36c-3.8-.59-7.69-.9-11.66-.9-14.94 0-28.84 4.38-40.53 11.89 31.71 3.61 56.34 30.52 56.34 63.19S39.21 314.11 7.5 317.72a74.65 74.65 0 0 0 40.53 11.9c34.8 0 64.07-23.68 72.58-55.81M92.17 193.81c14.42 10.49 24.96 26 29.06 43.96M391.76 275.14c4.79 16.84 15.31 31.26 29.32 41.02M390.96 236.98c7.91-33 37.6-57.52 73.01-57.52 14.94 0 28.84 4.38 40.53 11.89-31.71 3.61-56.34 30.52-56.34 63.19s24.63 59.57 56.34 63.18a74.65 74.65 0 0 1-40.53 11.9c-3.49 0-6.93-.24-10.29-.71" style="stroke-width:15;stroke-linecap:round;stroke-linejoin:round;stroke-miterlimit:10;" fill="none" stroke="#ffffff" stroke-width="15" stroke-linecap="round" stroke-linejoin="round" stroke-miterlimit="10" data-original="#000000" opacity="1"></path><circle cx="137.317" cy="255.974" r="21.733" style="stroke-width:15;stroke-linecap:round;stroke-linejoin:round;stroke-miterlimit:10;" fill="none" stroke="#ffffff" stroke-width="15" stroke-linecap="round" stroke-linejoin="round" stroke-miterlimit="10" data-original="#000000" opacity="1"></circle><circle cx="374.683" cy="255.974" r="21.733" style="stroke-width:15;stroke-linecap:round;stroke-linejoin:round;stroke-miterlimit:10;" fill="none" stroke="#ffffff" stroke-width="15" stroke-linecap="round" stroke-linejoin="round" stroke-miterlimit="10" data-original="#000000" opacity="1"></circle><path d="M60.171 254.539H7.5M449.426 254.539H504.5M256 78.015c15.136 0 29.834 1.905 43.874 5.477L256 7.5l-43.874 75.992A177.733 177.733 0 0 1 256 78.015zM155.137 111.952a108.432 108.432 0 0 1 23.844-12.616L130.46 76.71l4.666 53.333a108.457 108.457 0 0 1 20.011-18.091zM356.863 400.048a108.432 108.432 0 0 1-23.844 12.616l48.521 22.626-4.666-53.333a108.457 108.457 0 0 1-20.011 18.091zM356.863 111.952a108.432 108.432 0 0 0-23.844-12.616L381.54 76.71l-4.666 53.333a108.457 108.457 0 0 0-20.011-18.091zM155.137 400.048a108.432 108.432 0 0 0 23.844 12.616L130.46 435.29l4.666-53.333a108.457 108.457 0 0 0 20.011 18.091zM256 433.986a177.733 177.733 0 0 1-43.874-5.477L256 504.5l43.874-75.992A177.686 177.686 0 0 1 256 433.986zM112.574 50.83h0M95.638 26.695h0M399.425 50.83h0M416.362 26.695h0M112.574 461.17h0M95.638 485.305h0M399.425 461.17h0M416.362 485.305h0" style="stroke-width:15;stroke-linecap:round;stroke-linejoin:round;stroke-miterlimit:10;" fill="none" stroke="#ffffff" stroke-width="15" stroke-linecap="round" stroke-linejoin="round" stroke-miterlimit="10" data-original="#000000" opacity="1"></path></g></svg>