<?xml version="1.0" encoding="utf-8"?>
<!-- Generator: Adobe Illustrator 28.2.0, SVG Export Plug-In . SVG Version: 6.00 Build 0)  -->
<svg version="1.1" xmlns="http://www.w3.org/2000/svg" xmlns:xlink="http://www.w3.org/1999/xlink" x="0px" y="0px"
	 viewBox="0 0 1280 800" enable-background="new 0 0 1280 800" xml:space="preserve">
<pattern  width="118" height="118" patternUnits="userSpaceOnUse" id="Nueva_muestra_de_motivo_5" viewBox="0.5 -118.5 118 118" overflow="visible">
	<g>
		<rect x="0.5" y="-118.5" fill="none" width="118" height="118"/>
		<g>
			<rect x="1" y="-118" fill="#C9C9C9" width="117" height="117"/>
			<path fill="#C9C9C9" d="M117.5-117.5H1.5v116h116V-117.5 M118.5-118.5v118H0.5v-118H118.5L118.5-118.5z"/>
		</g>
		<path fill="#E0E0E0" d="M49.312-68.771c0.629,0.076,1.085,0.645,1.017,1.274c-0.065,0.591-0.558,1.031-1.139,1.031
			c-0.037,0-0.074-0.001-0.111-0.005c-0.849-0.082-2.348-0.634-3.024-2.104c-2.336,1.322-5.257,2.109-8.421,2.109
			s-6.084-0.787-8.421-2.109c-0.676,1.47-2.174,2.022-3.024,2.104c-0.037,0.003-0.074,0.005-0.111,0.005
			c-0.589,0-1.092-0.447-1.15-1.046c-0.06-0.632,0.4-1.193,1.029-1.26c0.27-0.034,1.124-0.216,1.27-1.174
			c-2.152-1.804-3.46-4.168-3.46-6.756c0-3.475,1.794-6.478,3.141-8.244h-0.83c-0.638,0-1.156-0.518-1.156-1.156
			s0.518-1.156,1.156-1.156l23.113-0.01l0,0c0.638,0,1.156,0.518,1.156,1.156s-0.518,1.157-1.156,1.157h-0.838
			c1.347,1.765,3.148,4.774,3.148,8.255c0,2.586-1.308,4.952-3.46,6.756C48.184-68.985,49.045-68.804,49.312-68.771L49.312-68.771z
			 M33.588-90.735c0.957,0,1.733-0.777,1.733-1.733s-0.777-1.733-1.733-1.733s-1.733,0.777-1.733,1.733S32.631-90.735,33.588-90.735
			z M41.677-89.58c0.957,0,1.733-0.777,1.733-1.733c0-0.957-0.777-1.733-1.733-1.733s-1.733,0.777-1.733,1.733
			C39.944-90.356,40.72-89.58,41.677-89.58z"/>
		<path fill="#E0E0E0" d="M97.312-27.771c0.629,0.076,1.085,0.645,1.017,1.274c-0.065,0.591-0.558,1.031-1.139,1.031
			c-0.037,0-0.074-0.001-0.111-0.005c-0.849-0.082-2.348-0.634-3.024-2.104c-2.336,1.322-5.257,2.109-8.421,2.109
			c-3.164,0-6.084-0.787-8.421-2.109c-0.676,1.47-2.174,2.022-3.024,2.104c-0.037,0.003-0.074,0.005-0.111,0.005
			c-0.589,0-1.092-0.447-1.15-1.046c-0.06-0.632,0.4-1.193,1.029-1.26c0.27-0.034,1.124-0.216,1.27-1.174
			c-2.152-1.804-3.46-4.168-3.46-6.756c0-3.475,1.794-6.478,3.141-8.244h-0.83c-0.638,0-1.156-0.518-1.156-1.156
			s0.518-1.156,1.156-1.156l23.113-0.01l0,0c0.638,0,1.156,0.518,1.156,1.156s-0.518,1.157-1.156,1.157h-0.838
			c1.347,1.765,3.148,4.774,3.148,8.255c0,2.586-1.308,4.952-3.46,6.756C96.184-27.985,97.045-27.804,97.312-27.771L97.312-27.771z
			 M81.588-49.735c0.957,0,1.733-0.777,1.733-1.733s-0.777-1.733-1.733-1.733s-1.733,0.777-1.733,1.733S80.631-49.735,81.588-49.735
			z M89.677-48.58c0.957,0,1.733-0.777,1.733-1.733s-0.777-1.733-1.733-1.733s-1.733,0.777-1.733,1.733S88.72-48.58,89.677-48.58z"
			/>
	</g>
</pattern>
<g id="Capa_1">
	<rect fill="url(#Nueva_muestra_de_motivo_5)" width="1280" height="800"/>
</g>
<g id="Capa_2">
</g>
</svg>
