<?xml version="1.0" encoding="utf-8"?>
<!-- Generator: Adobe Illustrator 28.3.0, SVG Export Plug-In . SVG Version: 6.00 Build 0)  -->
<svg version="1.1" id="Capa_1" xmlns="http://www.w3.org/2000/svg" xmlns:xlink="http://www.w3.org/1999/xlink" x="0px" y="0px"
	 viewBox="0 0 1280 800" enable-background="new 0 0 1280 800" xml:space="preserve">
<pattern  width="110" height="110" patternUnits="userSpaceOnUse" id="Nueva_muestra_de_motivo_2" viewBox="0 -110 110 110" overflow="visible">
	<g>
		<rect x="0" y="-110" fill="none" width="110" height="110"/>
		<g>
			<rect x="0" y="-110" fill="#343135" width="110" height="110"/>
		</g>
		<g opacity="0.1">
			<path fill="#FFFFFF" d="M61.629-29.465c1.493,0.303,2.535,1.578,2.535,3.101c0,1.523-1.043,2.798-2.535,3.101l-1.295,0.263
				c-2.648,0.533-4.718,2.603-5.252,5.252l-0.263,1.295c-0.303,1.493-1.577,2.535-3.101,2.535s-2.798-1.042-3.101-2.535
				l-0.263-1.295c-0.533-2.648-2.603-4.718-5.252-5.252l-1.295-0.263c-1.493-0.303-2.535-1.578-2.535-3.101
				c0-1.523,1.043-2.798,2.535-3.101l1.295-0.263c2.648-0.533,4.718-2.603,5.252-5.252l0.263-1.295
				c0.303-1.493,1.577-2.535,3.101-2.535s2.798,1.042,3.101,2.535l0.263,1.295c0.534,2.648,2.603,4.718,5.252,5.252L61.629-29.465
				L61.629-29.465z M61.034-26.336c0.004-0.019,0.004-0.038,0-0.057c-0.007-0.002-0.015-0.004-0.026-0.006l-1.295-0.263
				c-3.881-0.782-6.914-3.815-7.696-7.696l-0.263-1.295c-0.002-0.011-0.005-0.02-0.006-0.026c-0.019-0.004-0.038-0.004-0.057,0
				c-0.002,0.006-0.004,0.015-0.006,0.026l-0.263,1.295c-0.782,3.881-3.815,6.914-7.696,7.696L42.431-26.4
				c-0.009,0.002-0.018,0.004-0.026,0.006c-0.004,0.019-0.004,0.038,0,0.057c0.009,0.002,0.017,0.005,0.026,0.006l1.295,0.263
				c3.881,0.782,6.914,3.815,7.696,7.696l0.263,1.295c0.002,0.009,0.004,0.018,0.006,0.026c0.019,0.004,0.038,0.004,0.057,0
				c0.003-0.009,0.005-0.017,0.006-0.026l0.263-1.295c0.782-3.881,3.815-6.914,7.696-7.696l1.295-0.263
				C61.016-26.331,61.025-26.334,61.034-26.336L61.034-26.336z M84.361-22.21v4.234c-0.014,0.844-0.694,1.525-1.538,1.538
				c-0.864,0.014-1.575-0.675-1.589-1.538v-4.234c0-0.864,0.7-1.564,1.564-1.564C83.661-23.774,84.361-23.074,84.361-22.21z
				 M84.361-10.811v4.234c-0.014,0.844-0.694,1.525-1.538,1.538c-0.864,0.014-1.575-0.675-1.589-1.538v-4.234
				c0-0.864,0.7-1.564,1.564-1.564C83.661-12.375,84.361-11.675,84.361-10.811z M90.614-15.958c0.844,0.014,1.525,0.694,1.538,1.538
				c0.014,0.864-0.675,1.575-1.538,1.589H86.38c-0.844-0.014-1.525-0.695-1.538-1.538c-0.014-0.864,0.675-1.575,1.538-1.589
				L90.614-15.958L90.614-15.958z M79.215-15.958c0.844,0.014,1.525,0.694,1.538,1.538c0.014,0.864-0.675,1.575-1.538,1.589h-4.234
				c-0.844-0.014-1.525-0.695-1.538-1.538c-0.014-0.864,0.675-1.575,1.538-1.589L79.215-15.958L79.215-15.958z M11.784-43.478
				c0.864,0,1.563,0.7,1.563,1.564v4.234c0,0.864-0.7,1.564-1.564,1.564s-1.564-0.7-1.564-1.564v-4.234
				C10.22-42.778,10.92-43.478,11.784-43.478C11.784-43.478,11.784-43.478,11.784-43.478z M11.784-32.079
				c0.864,0,1.563,0.7,1.563,1.564v4.234c0,0.864-0.7,1.564-1.564,1.564s-1.564-0.7-1.564-1.564v-4.234
				C10.22-31.378,10.92-32.079,11.784-32.079C11.784-32.079,11.784-32.079,11.784-32.079z M19.601-35.661
				c0.844,0.014,1.525,0.694,1.538,1.538c0.014,0.864-0.675,1.575-1.538,1.589h-4.234c-0.864,0-1.564-0.7-1.564-1.564
				c0-0.864,0.7-1.564,1.564-1.564L19.601-35.661L19.601-35.661z M8.201-35.661c0.864,0,1.564,0.7,1.564,1.564
				c0,0.864-0.7,1.564-1.564,1.564H3.967c-0.864,0-1.564-0.7-1.564-1.564c0-0.864,0.7-1.564,1.564-1.564L8.201-35.661L8.201-35.661z
				 M83-104.611C83-104.611,83-104.611,83-104.611c0.864,0,1.564,0.7,1.564,1.564v4.234c-0.014,0.844-0.695,1.525-1.538,1.538
				c-0.864,0.014-1.575-0.675-1.589-1.538v-4.234C81.436-103.911,82.136-104.611,83-104.611L83-104.611z M83-93.211
				C83-93.211,83-93.211,83-93.211c0.864,0,1.564,0.7,1.564,1.564v4.234l0,0c0,0.864-0.7,1.564-1.564,1.564
				c-0.864,0-1.564-0.7-1.564-1.564v-4.234C81.436-92.511,82.136-93.211,83-93.211L83-93.211z M90.817-96.794
				c0.864,0,1.564,0.7,1.564,1.564s-0.7,1.564-1.564,1.564h-4.234c-0.864,0-1.564-0.7-1.564-1.564s0.7-1.564,1.564-1.564H90.817
				L90.817-96.794z M80.956-95.256c0.014,0.864-0.675,1.575-1.538,1.589h-4.234c-0.864,0-1.564-0.7-1.564-1.564
				s0.7-1.564,1.564-1.564h4.234C80.261-96.78,80.942-96.1,80.956-95.256z M65.467-78.942c0,2.104-1.386,3.799-3.448,4.217
				l-6.199,1.257c-5.496,1.107-9.792,5.403-10.899,10.899l-1.257,6.199c-0.418,2.062-2.113,3.448-4.217,3.448
				c-2.104,0-3.799-1.386-4.217-3.448l-1.257-6.199c-1.107-5.496-5.403-9.792-10.899-10.899l-6.199-1.257
				c-2.062-0.418-3.448-2.113-3.448-4.217c0-2.104,1.386-3.799,3.448-4.217l6.199-1.257c5.496-1.107,9.792-5.403,10.899-10.899
				l1.257-6.199c0.418-2.062,2.113-3.448,4.217-3.448c2.104,0,3.799,1.386,4.217,3.448l1.257,6.199
				c1.107,5.496,5.403,9.792,10.899,10.899l6.199,1.257C64.081-82.741,65.467-81.046,65.467-78.942z M62.339-78.942
				c0-0.226-0.068-0.975-0.942-1.152l-6.199-1.257c-6.728-1.355-11.987-6.614-13.343-13.343l-1.257-6.199
				c-0.177-0.874-0.926-0.942-1.152-0.942s-0.974,0.068-1.152,0.942l-1.257,6.199c-1.356,6.728-6.615,11.987-13.343,13.343
				l-6.199,1.257c-0.874,0.177-0.942,0.927-0.942,1.152c0,0.225,0.068,0.974,0.942,1.152l6.199,1.257
				c6.728,1.355,11.987,6.614,13.343,13.343l1.257,6.199c0.177,0.874,0.926,0.942,1.152,0.942s0.974-0.068,1.152-0.942l1.257-6.199
				c1.355-6.728,6.614-11.987,13.343-13.343l6.199-1.257C62.271-77.967,62.339-78.717,62.339-78.942z M104.658-60.053
				c1.73,0.351,2.939,1.829,2.939,3.594s-1.208,3.243-2.939,3.594l-4.76,0.965c-4.078,0.821-7.265,4.009-8.087,8.087l-0.965,4.76
				c-0.351,1.73-1.829,2.939-3.594,2.939c-1.766,0-3.244-1.208-3.594-2.939l-0.965-4.76c-0.822-4.078-4.009-7.265-8.087-8.087
				l-4.76-0.965c-1.73-0.351-2.939-1.829-2.939-3.594c0-1.765,1.208-3.244,2.939-3.594l4.76-0.965
				c4.078-0.821,7.265-4.009,8.087-8.087l0.965-4.76c0.351-1.73,1.829-2.939,3.594-2.939c1.765,0,3.243,1.208,3.594,2.939
				l0.965,4.76c0.822,4.078,4.009,7.265,8.087,8.087L104.658-60.053L104.658-60.053z M104.469-56.459
				c0-0.293-0.146-0.471-0.432-0.529l-4.76-0.965c-5.31-1.07-9.461-5.22-10.53-10.53l-0.965-4.76
				c-0.058-0.287-0.236-0.432-0.529-0.432c-0.293,0-0.471,0.146-0.529,0.432l-0.965,4.76c-1.07,5.31-5.22,9.461-10.53,10.53
				l-4.76,0.965c-0.287,0.058-0.432,0.236-0.432,0.529s0.146,0.471,0.432,0.529l4.76,0.965c5.31,1.07,9.461,5.22,10.53,10.53
				l0.965,4.76c0.058,0.287,0.236,0.432,0.529,0.432c0.293,0,0.471-0.146,0.529-0.432l0.965-4.76c1.07-5.31,5.22-9.461,10.53-10.53
				l4.76-0.965C104.323-55.988,104.469-56.167,104.469-56.459z"/>
		</g>
	</g>
</pattern>
<rect fill="url(#Nueva_muestra_de_motivo_2)" width="1280" height="800"/>
</svg>
