<?xml version="1.0" encoding="utf-8"?>
<!-- Generator: Adobe Illustrator 28.3.0, SVG Export Plug-In . SVG Version: 6.00 Build 0)  -->
<svg version="1.1" id="Capa_1" xmlns="http://www.w3.org/2000/svg" xmlns:xlink="http://www.w3.org/1999/xlink" x="0px" y="0px"
	 viewBox="0 0 320 900" style="enable-background:new 0 0 320 900;" xml:space="preserve">
<style type="text/css">
	.st0{fill:none;}
	.st1{fill:#C9C9C9;}
	.st2{fill:#E0E0E0;}
	.st3{fill:url(#SVGID_1_);}
</style>
<pattern  x="-740" y="734.3" width="118" height="118" patternUnits="userSpaceOnUse" id="Nueva_muestra_de_motivo_4" viewBox="0 -118 118 118" style="overflow:visible;">
	<g>
		<rect y="-118" class="st0" width="118" height="118"/>
		<g>
			<rect y="-118" class="st0" width="118" height="118"/>
			<g>
				<rect x="0.5" y="-117.5" class="st1" width="117" height="117"/>
				<path class="st1" d="M117-1H1v-116h116V-1 M118,0v-118H0V0H118L118,0z"/>
			</g>
			<g>
				<path class="st2" d="M86.5-47c0,9.5-1,15-1,15s-1-5.5-1-15c-4.8,0-8.5-0.3-11.1-0.5S69.5-48,69.5-48s5.5-1,15-1
					c0-4.8,0.3-8.5,0.5-11s0.5-3.9,0.5-3.9s1,5.5,1,15c4.8,0,8.5,0.3,11.1,0.5s3.9,0.5,3.9,0.5S96-47,86.5-47z"/>
				<path class="st2" d="M87.6-47c2.1,1.7,3.8,3.8,5.2,6.2c0,0-3.1-1-6.2-5.2 M84.5-45.9c-1.7,2.1-3.8,3.8-6.2,5.2
					c0,0,1-3.1,5.2-6.2 M83.4-49c-2.1-1.7-3.8-3.8-5.2-6.2c0,0,3.1,1,6.2,5.2 M86.5-50.1c1.7-2.1,3.8-3.8,6.2-5.2c0,0-1,3.1-5.2,6.2
					"/>
				<circle class="st2" cx="85.5" cy="-48" r="2.6"/>
			</g>
			<g>
				<path class="st2" d="M24.2-24.3c0,4.3-0.5,6.8-0.5,6.8s-0.5-2.5-0.5-6.8c-2.2,0-3.9-0.1-5-0.2c-1.2-0.1-1.8-0.2-1.8-0.2
					s2.5-0.5,6.8-0.5c0-2.2,0.1-3.8,0.2-5s0.2-1.8,0.2-1.8s0.5,2.5,0.5,6.8c2.2,0,3.9,0.1,5,0.2c1.2,0.1,1.8,0.2,1.8,0.2
					S28.5-24.3,24.2-24.3z"/>
				<path class="st2" d="M24.7-24.3c0.9,0.8,1.7,1.7,2.3,2.8c0,0-1.4-0.5-2.8-2.3 M23.3-23.8c-0.8,0.9-1.7,1.7-2.8,2.3
					c0,0,0.5-1.4,2.3-2.8 M22.8-25.2C21.9-26,21.1-27,20.5-28c0,0,1.4,0.5,2.8,2.3 M24.2-25.7C25-26.6,26-27.4,27-28
					c0,0-0.5,1.4-2.3,2.8"/>
				<circle class="st2" cx="23.8" cy="-24.8" r="1.2"/>
			</g>
			<g>
				<path class="st2" d="M39.3-61.5c2.2-12.2,4.1-14,16.3-16.3C43.3-80,41.5-81.8,39.3-94C37-81.8,35.2-80,23-77.7
					C35.2-75.5,37-73.6,39.3-61.5L39.3-61.5z M67.2-94.7c-7.8-1.4-8.9-2.6-10.3-10.3c-1.4,7.8-2.6,8.9-10.3,10.3
					c7.8,1.4,8.9,2.6,10.3,10.3C58.3-92.1,59.5-93.2,67.2-94.7z"/>
			</g>
		</g>
	</g>
</pattern>
<pattern  id="SVGID_1_" xlink:href="#Nueva_muestra_de_motivo_4" patternTransform="matrix(1.1689 0 0 1 1129.3351 0)">
</pattern>
<rect class="st3" width="374" height="900"/>
</svg>
