<?xml version="1.0" encoding="utf-8"?>
<!-- Generator: Adobe Illustrator 28.2.0, SVG Export Plug-In . SVG Version: 6.00 Build 0)  -->
<svg version="1.1" xmlns="http://www.w3.org/2000/svg" xmlns:xlink="http://www.w3.org/1999/xlink" x="0px" y="0px"
	 viewBox="0 0 1280 800" enable-background="new 0 0 1280 800" xml:space="preserve">
<pattern  width="118" height="118" patternUnits="userSpaceOnUse" id="Nueva_muestra_de_motivo_4" viewBox="0.5 -118.5 118 118" overflow="visible">
	<g>
		<rect x="0.5" y="-118.5" fill="none" width="118" height="118"/>
		<g>
			<rect x="1" y="-118" fill="#C9C9C9" width="117" height="117"/>
			<path fill="#C9C9C9" d="M117.5-117.5H1.5v116h116V-117.5 M118.5-118.5v118H0.5v-118H118.5L118.5-118.5z"/>
		</g>
		<g>
			<path fill="#E0E0E0" d="M87.032-71.532C87.032-81.039,86-86.5,86-86.5s-1.032,5.461-1.032,14.968
				c-4.754,0-8.495,0.258-11.05,0.516S70-70.5,70-70.5s5.461,1.032,14.968,1.032c0,4.754,0.258,8.495,0.516,11.05S86-54.5,86-54.5
				s1.032-5.461,1.032-14.968c4.754,0,8.495-0.258,11.05-0.516S102-70.5,102-70.5S96.539-71.532,87.032-71.532z"/>
			<path fill="#E0E0E0" d="M88.065-71.532c2.082-1.734,3.831-3.833,5.161-6.194c0,0-3.097,1.032-6.194,5.161 M84.968-72.565
				c-1.734-2.082-3.833-3.831-6.194-5.161c0,0,1.032,3.097,5.161,6.194 M83.935-69.468c-2.082,1.734-3.831,3.833-5.161,6.194
				c0,0,3.097-1.032,6.194-5.161 M87.032-68.435c1.734,2.082,3.833,3.831,6.194,5.161c0,0-1.032-3.097-5.161-6.194"/>
			<circle fill="#E0E0E0" cx="86" cy="-70.5" r="2.581"/>
		</g>
		<g>
			<path fill="#E0E0E0" d="M24.718-94.218c0-4.308-0.468-6.782-0.468-6.782s-0.468,2.474-0.468,6.782
				c-2.154,0-3.85,0.117-5.007,0.234C17.617-93.867,17-93.75,17-93.75s2.474,0.468,6.782,0.468c0,2.154,0.117,3.85,0.234,5.007
				S24.25-86.5,24.25-86.5s0.468-2.474,0.468-6.782c2.154,0,3.85-0.117,5.007-0.234c1.158-0.117,1.775-0.234,1.775-0.234
				S29.026-94.218,24.718-94.218z"/>
			<path fill="#E0E0E0" d="M25.185-94.218c0.943-0.786,1.736-1.737,2.339-2.806c0,0-1.403,0.468-2.806,2.339 M23.782-94.685
				c-0.786-0.943-1.737-1.736-2.806-2.339c0,0,0.468,1.403,2.339,2.806 M23.315-93.282c-0.943,0.786-1.736,1.737-2.339,2.806
				c0,0,1.403-0.468,2.806-2.339 M24.718-92.815c0.786,0.943,1.737,1.736,2.806,2.339c0,0-0.468-1.403-2.339-2.806"/>
			<circle fill="#E0E0E0" cx="24.25" cy="-93.75" r="1.169"/>
		</g>
		<g>
			<path fill="#E0E0E0" d="M39.754-57.042c2.244,12.19,4.063,14.01,16.254,16.254c-12.19,2.244-14.01,4.063-16.254,16.254
				c-2.244-12.19-4.063-14.01-16.254-16.254C35.691-43.032,37.51-44.852,39.754-57.042L39.754-57.042z M67.732-23.837
				c-7.752,1.427-8.91,2.584-10.337,10.337c-1.427-7.752-2.584-8.91-10.337-10.337c7.752-1.427,8.91-2.584,10.337-10.337
				C58.823-26.421,59.98-25.264,67.732-23.837z"/>
		</g>
	</g>
</pattern>
<g id="Capa_1">
</g>
<g id="Capa_2">
	<rect fill="url(#Nueva_muestra_de_motivo_4)" width="1280" height="800"/>
</g>
</svg>
