<?xml version="1.0" encoding="utf-8"?>
<!-- Generator: Adobe Illustrator 28.3.0, SVG Export Plug-In . SVG Version: 6.00 Build 0)  -->
<svg version="1.1" id="Capa_1" xmlns="http://www.w3.org/2000/svg" xmlns:xlink="http://www.w3.org/1999/xlink" x="0px" y="0px"
	 viewBox="0 0 320 900" style="enable-background:new 0 0 320 900;" xml:space="preserve">
<style type="text/css">
	.st0{fill:none;}
	.st1{fill:#C9C9C9;}
	.st2{fill:#E0E0E0;}
	.st3{fill:url(#SVGID_1_);}
</style>
<pattern  width="118" height="118" patternUnits="userSpaceOnUse" id="Nueva_muestra_de_motivo_5" viewBox="0 -118 118 118" style="overflow:visible;">
	<g>
		<rect y="-118" class="st0" width="118" height="118"/>
		<g>
			<rect y="-118" class="st0" width="118" height="118"/>
			<g>
				<rect x="0.5" y="-117.5" class="st1" width="117" height="117"/>
				<path class="st1" d="M117-1H1v-116h116V-1 M118,0v-118H0V0H118L118,0z"/>
			</g>
			<path class="st2" d="M48.8-49.7c0.6-0.1,1.1-0.6,1-1.3c-0.1-0.6-0.6-1-1.1-1c0,0-0.1,0-0.1,0c-0.8,0.1-2.3,0.6-3,2.1
				c-2.3-1.3-5.3-2.1-8.4-2.1s-6.1,0.8-8.4,2.1c-0.7-1.5-2.2-2-3-2.1c0,0-0.1,0-0.1,0c-0.6,0-1.1,0.4-1.1,1c-0.1,0.6,0.4,1.2,1,1.3
				c0.3,0,1.1,0.2,1.3,1.2c-2.2,1.8-3.5,4.2-3.5,6.8c0,3.5,1.8,6.5,3.1,8.2h-0.8c-0.6,0-1.2,0.5-1.2,1.2s0.5,1.2,1.2,1.2l23.1,0l0,0
				c0.6,0,1.2-0.5,1.2-1.2s-0.5-1.2-1.2-1.2h-0.8c1.3-1.8,3.1-4.8,3.1-8.3c0-2.6-1.3-5-3.5-6.8C47.7-49.5,48.5-49.7,48.8-49.7
				L48.8-49.7z M33.1-27.8c1,0,1.7,0.8,1.7,1.7s-0.8,1.7-1.7,1.7s-1.7-0.8-1.7-1.7S32.1-27.8,33.1-27.8z M41.2-28.9
				c1,0,1.7,0.8,1.7,1.7c0,1-0.8,1.7-1.7,1.7s-1.7-0.8-1.7-1.7C39.4-28.1,40.2-28.9,41.2-28.9z"/>
			<path class="st2" d="M96.8-90.7c0.6-0.1,1.1-0.6,1-1.3c-0.1-0.6-0.6-1-1.1-1c0,0-0.1,0-0.1,0c-0.8,0.1-2.3,0.6-3,2.1
				c-2.3-1.3-5.3-2.1-8.4-2.1c-3.2,0-6.1,0.8-8.4,2.1c-0.7-1.5-2.2-2-3-2.1c0,0-0.1,0-0.1,0c-0.6,0-1.1,0.4-1.2,1
				c-0.1,0.6,0.4,1.2,1,1.3c0.3,0,1.1,0.2,1.3,1.2c-2.2,1.8-3.5,4.2-3.5,6.8c0,3.5,1.8,6.5,3.1,8.2h-0.8c-0.6,0-1.2,0.5-1.2,1.2
				s0.5,1.2,1.2,1.2l23.1,0l0,0c0.6,0,1.2-0.5,1.2-1.2c0-0.6-0.5-1.2-1.2-1.2h-0.8c1.3-1.8,3.1-4.8,3.1-8.3c0-2.6-1.3-5-3.5-6.8
				C95.7-90.5,96.5-90.7,96.8-90.7L96.8-90.7z M81.1-68.8c1,0,1.7,0.8,1.7,1.7s-0.8,1.7-1.7,1.7s-1.7-0.8-1.7-1.7
				S80.1-68.8,81.1-68.8z M89.2-69.9c1,0,1.7,0.8,1.7,1.7s-0.8,1.7-1.7,1.7s-1.7-0.8-1.7-1.7S88.2-69.9,89.2-69.9z"/>
		</g>
	</g>
</pattern>
<pattern  id="SVGID_1_" xlink:href="#Nueva_muestra_de_motivo_5" patternTransform="matrix(1.0054 0 0 -1.1456 29.5838 -14431.5264)">
</pattern>
<rect class="st3" width="319" height="901"/>
</svg>
