<svg xmlns="http://www.w3.org/2000/svg" version="1.1" xmlns:xlink="http://www.w3.org/1999/xlink" width="512" height="512" x="0" y="0" viewBox="0 0 512 512" style="enable-background:new 0 0 512 512" xml:space="preserve" class=""><g><path fill="#ffffff" d="M456 160c0 10.439-4.399 40.512-8 48-20.449 42.64-67.928 123.928-192 248 0 0-152.753-142.414-192-248-5.148-13.806-8-47.194-8-48 0-48 38.566-104 96-104s104 32 104 56c0-24 46.566-56 104-56s96 56 96 104z" opacity="1" data-original="#b077c7" class=""></path><path fill="#ffffff" d="M416 184c0 8.03-5.23 26.24-8 32-15.73 32.8-56.56 96.56-152 192 0 0-121.81-110.78-152-192-3.96-10.62-8-31.38-8-32 0-44.18 35.82-80 80-80s80 35.82 80 80c0-44.18 35.82-80 80-80s80 35.82 80 80z" opacity="1" data-original="#d1a6f7" class=""></path><path fill="#ffffff" d="M384 240s-57.308 56-128 56-128-56-128-56 57.308-56 128-56 128 56 128 56z" opacity="1" data-original="#e9eef2" class=""></path><circle cx="256" cy="240" r="56" fill="#ffffff" opacity="1" data-original="#54382d" class=""></circle><circle cx="256" cy="240" r="24" fill="#ffffff" opacity="1" data-original="#452d23" class=""></circle><circle cx="256" cy="200" r="16" fill="#ffffff" opacity="1" data-original="#e9eef2" class=""></circle><path d="M336 96c-35.451 0-66.073 21.073-80 51.349C242.073 117.073 211.451 96 176 96c-48.523 0-88 39.477-88 88 0 2.4 4.536 24.153 8.501 34.787 30.518 82.1 149.084 190.555 154.116 195.132a7.976 7.976 0 0 0 5.382 2.081 7.98 7.98 0 0 0 5.658-2.343c101.02-101.021 139.568-165.032 153.553-194.19C418.142 213.37 424 193.756 424 184c0-48.523-39.477-88-88-88zm-80 96c4.411 0 8 3.589 8 8s-3.589 8-8 8-8-3.589-8-8 3.589-8 8-8zm19.183 22.405A23.871 23.871 0 0 0 280 200c0-.53-.023-1.054-.057-1.576C294.307 206.729 304 222.249 304 240c0 26.468-21.532 48-48 48s-48-21.532-48-48c0-17.751 9.693-33.271 24.057-41.576A24.199 24.199 0 0 0 232 200c0 5.401 1.794 10.39 4.817 14.405C229.04 220.248 224 229.546 224 240c0 17.645 14.355 32 32 32s32-14.355 32-32c0-10.454-5.04-19.752-12.817-25.595zM256 256c-8.822 0-16-7.178-16-16s7.178-16 16-16 16 7.178 16 16-7.178 16-16 16zm-134.45-20.717c-3.991-7.543-7.4-14.939-10.054-22.078-3.363-9.019-6.904-26.412-7.494-29.785C104.315 143.985 136.493 112 176 112c37.084 0 67.701 28.183 71.577 64.255-69.099 4.005-122.828 55.736-125.168 58.024-.318.31-.6.65-.859 1.004zm83.104 42.877c-30.082-11.186-53.748-29.07-64.597-38.168 10.846-9.114 34.498-27.012 64.624-38.189C196.719 212.472 192 225.695 192 240c0 14.289 4.709 27.498 12.654 38.16zm51.138 118.709c-19.418-18.324-84.742-81.862-122.698-141.796C153.389 271.585 200.322 304 256 304c50.518 0 93.837-26.686 116.593-43.966-22.427 32.763-58.654 78.148-116.801 136.835zm51.554-195.029c30.08 11.185 53.744 29.067 64.597 38.168-10.846 9.114-34.498 27.012-64.624 38.189C315.281 267.528 320 254.305 320 240c0-14.289-4.709-27.498-12.654-38.16zm93.441 10.701c-2.748 5.73-6.489 12.863-11.529 21.416-5.095-4.888-57.709-53.812-124.836-57.702C268.299 140.183 298.916 112 336 112c39.701 0 72 32.299 72 72 0 6.367-4.703 23.32-7.213 28.541zM496 128a8 8 0 0 0-11.864-7.004l-.001-.001-23.435 12.93c-4.24-17.007-12.436-33.548-23.808-47.503l56.765-56.765a8 8 0 0 0-11.314-11.314L425.95 74.736c-11.523-10.688-25.29-18.916-40.776-23.273l13.727-23.417-.006-.003A7.951 7.951 0 0 0 400 24a8 8 0 0 0-8-8 7.987 7.987 0 0 0-6.895 3.958l-.006-.003-16.662 28.424A93.86 93.86 0 0 0 360 48c-16.188 0-32.265 2.426-47.25 6.988l7.027-29.111-.007-.001c.145-.603.23-1.229.23-1.876a8 8 0 0 0-8-8c-3.771 0-6.925 2.613-7.77 6.125l-.007-.001-9.576 39.67a134.052 134.052 0 0 0-12.222 6.3c-7.149 4.179-13.341 8.776-18.426 13.599V24a8 8 0 0 0-16 0v57.691c-5.085-4.822-11.277-9.42-18.426-13.599a134.56 134.56 0 0 0-12.222-6.3l-9.576-39.67-.007.001C206.925 18.613 203.771 16 200 16a8 8 0 0 0-8 8c0 .647.085 1.273.23 1.875l-.007.001 7.027 29.111C184.265 50.426 168.188 48 152 48c-2.853 0-5.666.129-8.436.378l-16.663-28.424-.006.003A7.988 7.988 0 0 0 120 16a8 8 0 0 0-8 8c0 1.477.407 2.855 1.105 4.042l-.006.003 13.727 23.417C111.341 55.82 97.573 64.047 86.05 74.736L29.657 18.343a8 8 0 0 0-11.314 11.314l56.765 56.765c-11.373 13.955-19.569 30.496-23.808 47.503l-23.435-12.93-.001.001a8 8 0 0 0-7.728 14.008l-.001.001.025.014.046.025 28.235 15.578A102.667 102.667 0 0 0 48 160c0 1.004 1.273 16.608 3.812 31.373l-25.685-7.085-.002.006A8.005 8.005 0 0 0 24 184a8 8 0 0 0-8 8c0 3.681 2.49 6.774 5.875 7.706l-.002.006 34.039 9.39c.193.582.389 1.148.589 1.686 4.331 11.652 10.112 24.071 17.295 37.213H24a8 8 0 0 0 0 16h59.023c5.209 8.604 10.966 17.489 17.28 26.653l-78.429 21.635.002.006C18.49 313.226 16 316.319 16 320a8 8 0 0 0 8 8c.737 0 1.448-.108 2.125-.294l.002.006 84.013-23.176a781.62 781.62 0 0 0 12.064 16.145L20.207 376.956l-.046.025-.025.014.001.001A7.995 7.995 0 0 0 16 384a8 8 0 0 0 11.864 7.004l.001.001 104.321-57.556a1019.71 1019.71 0 0 0 15.757 19.294l-129.6 129.6a8 8 0 0 0 11.314 11.314l128.678-128.678a1251.952 1251.952 0 0 0 14.687 16.754l-59.923 102.221.006.003A7.951 7.951 0 0 0 112 488a8 8 0 0 0 8 8 7.987 7.987 0 0 0 6.895-3.958l.006.003 57.369-97.865a1430.209 1430.209 0 0 0 23.978 25.551l-16.025 66.391.007.001a8.002 8.002 0 0 0-.23 1.875 8 8 0 0 0 8 8c3.771 0 6.925-2.613 7.77-6.125l.007.001 13.662-56.603c12.675 12.845 22.237 22.055 26.561 26.171V488a8 8 0 0 0 16 0v-28.699a1831.774 1831.774 0 0 0 26.333-26.968l13.89 57.543.007-.001c.845 3.512 3.999 6.125 7.77 6.125a8 8 0 0 0 8-8c0-.647-.085-1.273-.23-1.875l.007-.001-16.329-67.646a1518.556 1518.556 0 0 0 23.468-25.684l58.183 99.253.006-.003a7.99 7.99 0 0 0 6.895 3.958 8 8 0 0 0 8-8 7.945 7.945 0 0 0-1.105-4.042l.006-.003-60.85-103.807c4.851-5.571 9.584-11.1 14.199-16.586l130.093 130.093a8 8 0 0 0 11.314-11.314L362.515 351.201a1077.618 1077.618 0 0 0 15.142-18.942l106.478 58.746.001-.001a8 8 0 0 0 7.728-14.008l.001-.001-.025-.014-.046-.025-104.271-57.528a896.756 896.756 0 0 0 11.561-15.657l86.79 23.942.002-.006a7.97 7.97 0 0 0 2.125.294 8 8 0 0 0 8-8c0-3.681-2.489-6.773-5.874-7.705l.002-.007-81.229-22.408a712.301 712.301 0 0 0 17.057-25.88H488a8 8 0 0 0 0-16h-52.323c7.322-12.491 13.847-24.677 19.533-36.533.328-.683.655-1.494.979-2.393l33.938-9.362-.002-.006c3.385-.933 5.875-4.026 5.875-7.707a8 8 0 0 0-8-8c-.737 0-1.448.108-2.125.294l-.002-.006-25.439 7.017C462.547 179.387 464 166.059 464 160c0-3.109-.153-6.24-.442-9.378l28.235-15.578.046-.025.025-.014-.001-.001A7.995 7.995 0 0 0 496 128zm-55.213 76.541c-33.176 69.176-95.374 149.981-184.933 240.269-27.769-26.759-150.439-148.352-184.358-239.604-4.362-11.698-7.252-41.757-7.496-45.416.11-45.353 36.22-95.79 88-95.79 56.411 0 96 31.14 96 48a8 8 0 0 0 16 0c0-16.86 39.589-48 96-48 51.859 0 88 50.594 88 96 0 9.914-4.382 38.651-7.213 44.541z" fill="#9b48db" opacity="1" data-original="#000000" class=""></path></g></svg>