<svg xmlns="http://www.w3.org/2000/svg" version="1.1" xmlns:xlink="http://www.w3.org/1999/xlink" width="512" height="512" x="0" y="0" viewBox="0 0 512 512" style="enable-background:new 0 0 512 512" xml:space="preserve" class=""><g><path d="M172.364 215.782c-17.979-7.278-36.727.743-47.77 20.426-12.648 22.547 3.041 46.558 3.715 47.569a3.5 3.5 0 0 0 2.91 1.556 3.436 3.436 0 0 0 .579-.048 3.5 3.5 0 0 0 2.81-2.565c.058-.223 5.925-21.925 20.118-21.925.265 0 .535.008.805.024 20.361 1.154 29.928-8.8 32.11-18.517 2.464-10.976-3.818-21.881-15.277-26.52zm8.447 24.987c-1.553 6.914-8.907 13.968-24.88 13.061-13.643-.772-21.491 11.063-25.255 19.362-3.326-7.8-6.918-21.186.023-33.559 7.086-12.632 17.389-19.511 28.373-19.511a28.316 28.316 0 0 1 10.665 2.149c8.218 3.329 12.772 10.929 11.074 18.498zM354.37 267.1a22.9 22.9 0 1 0 22.9 22.9 22.929 22.929 0 0 0-22.9-22.9zm0 38.808a15.9 15.9 0 1 1 15.9-15.9 15.922 15.922 0 0 1-15.9 15.902zM325.855 324.293a12.611 12.611 0 1 0 12.611 12.612 12.626 12.626 0 0 0-12.611-12.612zm0 18.222a5.611 5.611 0 1 1 5.611-5.61 5.618 5.618 0 0 1-5.611 5.61z" fill="#ffffff" opacity="1" data-original="#000000" class=""></path><path d="m433.557 206.535-34.32-9.239L390 162.977a3.5 3.5 0 0 0-6.76 0l-4.04 14.989c-21.581-14.33-46.1-17.18-73-8.482v-36c0-6.215-3.782-12-10.927-16.77l6.991-52.035a8.765 8.765 0 0 0 .225-1.908c0-12.722-26.742-19.378-53.159-19.378s-53.159 6.656-53.159 19.378a8.834 8.834 0 0 0 .225 1.908l6.991 52.033c-7.145 4.77-10.926 10.562-10.926 16.772v33.786c-26.217-8.177-62.968-7.968-96.6 33.511-21.61 26.654-25.741 58.763-12.279 95.435 10.037 27.342 29.857 57.181 58.932 88.747l-12.49 3.362a3.5 3.5 0 0 0 0 6.76l28.136 7.574 7.574 28.137a3.5 3.5 0 0 0 6.76 0l3.394-12.6a714.449 714.449 0 0 0 71.881 58.024 3.5 3.5 0 0 0 3.939 0c.55-.374 55.5-37.955 102.592-88.285 27.785-29.7 47.481-58 58.541-84.115 13.5-31.875 14.157-60.612 1.994-85.484l18.719-5.04a3.5 3.5 0 0 0 0-6.76zm-56.284-21.406-2.842 10.555c-20.55-17.058-45.068-21.79-71.658-13.977a18.483 18.483 0 0 0 2.451-4.5c26.822-9.541 51.048-6.878 72.049 7.922zm-37.6 28.166 21.619 5.821c-15.466 8.88-34.481 24.77-48.852 52.851-18.785 36.709-43.975 58.319-74.873 64.232-60.8 11.63-125.683-40.98-133.161-47.263-9.257-28.45-5.367-53.345 11.617-74.076 16.521-20.166 35.373-30.692 56.03-31.286 16.237-.461 31.538 5.282 44.042 12.32l6.682 46.6a28.015 28.015 0 0 0 55.53-.507l5.609-44.925c2.6-1.383 5.3-2.715 8.107-3.955 28.506-12.6 53.854-10.591 75.425 5.955l-27.775 7.477a3.5 3.5 0 0 0 0 6.76zm55.949 22.65c7.057 19.163 5.286 41.074-5.307 65.272-9.839 22.477-27.215 46.925-51.646 72.667-37.077 39.066-79.431 69.329-88.935 75.942a650.483 650.483 0 0 1-61.573-49.345l20.042-5.4a3.5 3.5 0 0 0 0-6.76l-28.136-7.575-7.567-28.131a3.5 3.5 0 0 0-6.76 0l-5.529 20.54c-23.932-25.309-40.986-49.267-50.818-71.372a267.81 267.81 0 0 0 33.713 21.39c19.715 10.5 47.518 21.689 76.428 21.689a102.789 102.789 0 0 0 19.331-1.784c33.138-6.331 59.992-29.183 79.816-67.921 15.7-30.693 37.154-45.948 52.541-53.37l2.778.748 9.24 34.32a3.5 3.5 0 0 0 6.76 0zm-196.16-88.816c9.587 8.62 28.117 14.344 49.869 14.344s40.283-5.724 49.87-14.344v24.819c0 9.929-20.48 20.994-49.87 20.994s-49.869-11.065-49.869-20.994zm49.869 52.813a114.434 114.434 0 0 0 18.636-1.491 157.1 157.1 0 0 0-18.124 14.037 147.1 147.1 0 0 0-16-13.565 116.41 116.41 0 0 0 15.488 1.019zm26.991 1.484-4.956 39.69a21.014 21.014 0 0 1-41.654.38l-5.86-40.866a139.8 139.8 0 0 1 23.308 19.131 3.5 3.5 0 0 0 5.051.107 147.451 147.451 0 0 1 24.111-18.442zm10.719-76.008a3.635 3.635 0 0 0-.031.466c0 7.283-15.474 15.4-37.679 15.4s-37.678-8.115-37.678-15.4a3.464 3.464 0 0 0-.032-.466l-6.938-51.638c9.988 5.52 27.385 8.364 44.648 8.364s34.661-2.844 44.648-8.364zm-37.71-75.03c27.749 0 46.159 7.45 46.159 12.378s-18.41 12.378-46.159 12.378-46.159-7.45-46.159-12.378 18.41-12.378 46.159-12.378zm-44.875 74.267.2 1.482c.251 12.644 19.374 22.145 44.676 22.145s44.425-9.5 44.676-22.145l.2-1.483c2.687 2.314 5 5.318 5 8.825 0 9.929-20.48 20.994-49.87 20.994s-49.869-11.065-49.869-20.994c-.007-3.51 2.31-6.517 4.987-8.824zM90.156 293.8c-12.552-34.195-8.8-64.01 11.146-88.615 26-32.066 56.753-42.3 91.431-30.455a16.216 16.216 0 0 0 1.643 4.56 79.61 79.61 0 0 0-22.48-2.718c-22.791.643-43.409 12.031-61.283 33.848-19.984 24.393-23.488 53.849-10.414 87.548 9.9 25.514 29.3 53.388 57.648 82.863l-7.688 2.07c-29.813-31.88-50.003-61.853-60.003-89.101zm78.961 122.619-4.717-17.525a3.5 3.5 0 0 0-2.47-2.47l-17.53-4.719 17.529-4.719a3.5 3.5 0 0 0 2.47-2.47l4.718-17.529 4.72 17.529a3.5 3.5 0 0 0 2.47 2.47l17.529 4.719-17.529 4.719a3.5 3.5 0 0 0-2.47 2.47zm237.3-115.377c-10.724 25.348-29.953 52.946-57.153 82.028-41.546 44.422-89.325 78.831-99.518 85.987a720.674 720.674 0 0 1-71.8-58.508l2.125-7.894.083-.022a645.817 645.817 0 0 0 67.624 54.342 3.5 3.5 0 0 0 3.913 0c.491-.33 49.613-33.575 91.986-78.2 25.013-26.343 42.856-51.479 53.035-74.71 12.921-29.494 13.53-56.038 1.816-78.9l.708-2.632 8.7-2.343c11.857 23.245 11.351 50.435-1.52 80.856zM395.472 216.3a3.5 3.5 0 0 0-2.47 2.47l-6.385 23.713-6.384-23.713a3.5 3.5 0 0 0-2.47-2.47l-23.713-6.385 23.713-6.383a3.5 3.5 0 0 0 2.47-2.47l6.384-23.713L393 201.062a3.5 3.5 0 0 0 2.47 2.47l23.713 6.383z" fill="#ffffff" opacity="1" data-original="#000000" class=""></path><path d="m109.129 108.529 22.783 6.132 6.134 22.785a3.5 3.5 0 0 0 6.76 0l6.134-22.785 22.783-6.132a3.5 3.5 0 0 0 0-6.76l-22.783-6.134-6.134-22.784a3.5 3.5 0 0 0-6.76 0l-6.134 22.784-22.783 6.134a3.5 3.5 0 0 0 0 6.76zm26.549-6.659a3.5 3.5 0 0 0 2.47-2.469l3.278-12.177L144.7 99.4a3.5 3.5 0 0 0 2.47 2.469l12.176 3.279-12.176 3.277a3.5 3.5 0 0 0-2.47 2.47l-3.278 12.177-3.274-12.172a3.5 3.5 0 0 0-2.47-2.47l-12.178-3.281z" fill="#ffffff" opacity="1" data-original="#000000" class=""></path></g></svg>