<svg xmlns="http://www.w3.org/2000/svg" version="1.1" xmlns:xlink="http://www.w3.org/1999/xlink" width="512" height="512" x="0" y="0" viewBox="0 0 512.002 512" style="enable-background:new 0 0 512 512" xml:space="preserve" class=""><g><path d="M494.34 208.805c15.988-15.989 17.531-46.32 17.656-49.727a9.994 9.994 0 0 0-2.922-7.433c-1.965-1.965-4.672-3.04-7.433-2.922-2.293.082-16.778.816-30.88 6.152a534.079 534.079 0 0 0 8.829-27.027 9.94 9.94 0 0 0 .41-2.88c.148-.198 22.004-35.19 22.004-56.8 0-21.145-18.95-58.55-21.11-62.746a10.002 10.002 0 0 0-17.781 0c-2.054 3.984-19.218 37.879-20.957 59.394-13.828-4.941-27.773-5.097-29.98-5.097-5.492.02-9.934 4.465-9.957 9.957-.016 3.308.332 32.8 16.48 48.949 10.293 10.293 26.528 14.594 37.7 16.39a493.206 493.206 0 0 1-15.876 42.102c-4.464-9.742-10.39-20.5-17.406-28.144-16.824-18.328-48.98-20.106-52.594-20.25a10.032 10.032 0 0 0-7.441 2.898 10.01 10.01 0 0 0-2.95 7.426c.13 3.851 1.731 38.129 18.255 56.133 10.695 11.648 30.574 16.007 45.004 17.629a475.14 475.14 0 0 1-29.692 48.52c-.355-9.763-2-19.767-6.199-27.563-11.508-21.344-47.078-35.36-51.098-36.887a10 10 0 0 0-13.355 7.375c-.867 4.293-8.121 42.57 3.332 63.82 7.633 14.168 25.703 24.856 38.21 30.895a502.087 502.087 0 0 1-35.237 37.168 86.99 86.99 0 0 0-8.551 4.707c2.5-8.934 3.75-18.004 2.562-26.235-4.351-30.058-43.18-62.464-47.59-66.058a10.004 10.004 0 0 0-7.75-2.149 10.019 10.019 0 0 0-6.824 4.254c-3.21 4.7-31.262 46.781-26.91 76.84 3.137 21.691 24.125 44.172 37.277 56.371a578.113 578.113 0 0 1-44.101 28.63c-2.344-.317-4.672-.497-6.957-.497-1.578 0-3.18.105-4.79.262 5.934-11.63 10.282-24.114 10.282-35.73 0-34.438-38.246-77.438-42.605-82.227a10.007 10.007 0 0 0-14.79 0C164.246 299.094 126 342.094 126 376.53c0 22.59 16.422 48.438 28.988 64.918-8.37 6.422-14.222 11.762-15.804 13.235-.34.316-.645.66-.934 1.015a690.303 690.303 0 0 1-48.813 17.145c10.88-16.297 20.563-40.32 20.563-74.246 0-75.614-48.102-103.168-50.148-104.305a10 10 0 0 0-11.415 1.2C46.461 297.214 0 338.327 0 398.592c0 40.45 20.914 71.778 35.305 88.548C18.78 490.719 9 492.047 8.71 492.086c-5.477.71-9.336 5.727-8.625 11.2C.742 508.327 5.043 512 9.992 512c.43 0 .863-.027 1.301-.082 2.969-.387 59.45-8.016 133.816-37.355 13.7 11.68 47.11 37.437 75.403 37.437 34.437 0 77.433-38.246 82.222-42.605a9.996 9.996 0 0 0 0-14.79c-3.336-3.039-25.242-22.53-49.87-34.07a592.25 592.25 0 0 0 34.8-23.457c12.273 7.797 40.055 23.606 63.52 23.606 2.246 0 4.457-.149 6.605-.457 30.059-4.352 62.465-43.176 66.059-47.59a9.982 9.982 0 0 0 2.144-7.746 9.988 9.988 0 0 0-4.254-6.825c-3.832-2.62-32.547-21.77-59.312-26.37.547-.579 1.105-1.145 1.648-1.727a501.917 501.917 0 0 0 19.719-22.278c10.066 4.625 28.809 12.059 45.324 12.059 3.262 0 6.434-.29 9.438-.95 23.683-5.195 46.933-35.546 49.504-38.991a9.98 9.98 0 0 0 1.734-8.227 9.989 9.989 0 0 0-5.152-6.64c-3.739-1.934-35.996-18.141-59.434-14.833a495.663 495.663 0 0 0 14.488-25.144c10.989-.274 40.805-2.317 54.645-16.16zM381.332 150.19c9.281 1.809 20.793 5.485 27.055 12.309 6.804 7.41 12.953 20.066 17.164 30.395-11.758-1.336-26.238-4.497-32.43-11.243-6.683-7.28-10.164-20.886-11.789-31.46zm-37.348 108.395c-4.484-8.32-4.539-24.508-3.171-37.84 10.73 5.399 24.386 13.797 29.082 22.512 4.476 8.304 4.43 24.312 2.96 37.441-10.62-5.215-24.18-13.414-28.87-22.113zM146.004 376.53c0-18.367 17.746-44.633 30.004-60.011 12.258 15.363 29.996 41.597 29.996 60.011 0 13.29-9.324 30.5-19.11 44.696-5.367 2.625-10.578 5.609-15.464 8.703-11.649-15.285-25.426-37.239-25.426-53.399zm-89.93-60.48c11.102 9.148 33.93 33.887 33.93 82.543 0 37.87-13.692 60.781-25 73.254V442c0-5.512-4.492-10-10-10-5.512 0-10 4.488-10 10v25.238c-11.574-15.308-25-39.37-25-68.644 0-39.551 24.762-70.485 36.07-82.543zM220.512 492c-18.352 0-44.176-17.766-59.211-30 15.039-12.234 40.86-30 59.21-30 18.364 0 44.622 17.738 60.005 30-15.383 12.262-41.641 30-60.004 30zm33.574-167.367c-2.16-14.934 9.055-38.356 17.594-53.028 12.34 11.633 29.726 30.895 31.89 45.868 2.157 14.914-9.125 37.984-17.683 52.363-12.285-11.363-29.645-30.293-31.801-45.203zm100.84 75.8c-14.149 2.036-35.637-8.003-50.078-16.347a544.142 544.142 0 0 0 36.504-31.406c2.195-.828 4.343-1.43 6.414-1.73 14.93-2.157 38.351 9.058 53.027 17.593-11.633 12.34-30.895 29.723-45.867 31.89zM463.93 277.5c-8.793 9.535-20.563 19.77-29.664 21.766-9.22 2.023-24.598-2.422-36.817-7.442 7.934-8.777 19.543-19.562 29.2-21.68 9.238-2.027 24.831 2.372 37.28 7.356zm16.27-82.84c-5.02 5.024-17.305 8.07-29.012 9.457 3.851-8.324 9.113-17.84 14.87-23.597 5.645-5.649 15.946-8.778 24.52-10.38-1.601 8.575-4.734 18.876-10.379 24.52zm-8.196-160.844c5.3 12.676 10 26.508 10 34.352 0 7.703-4.723 19.738-9.992 30.328-5.008-10.027-10.008-22.215-10.008-30.328 0-7.828 4.7-21.668 10-34.352zm-48.84 46.864c7.941 1.246 17.66 3.93 23.328 9.207 3.035 8.558 7.098 16.851 10.52 23.199.125.598.242 1.191.351 1.777-8.574-1.601-18.875-4.734-24.52-10.379-5.613-5.613-8.402-15.609-9.679-23.804zm0 0" fill="#ffffff" opacity="1" data-original="#000000" class=""></path><path d="M55.004 412c5.508 0 10-4.488 10-10s-4.492-10-10-10c-5.512 0-10 4.488-10 10s4.488 10 10 10zm0 0" fill="#ffffff" opacity="1" data-original="#000000" class=""></path></g></svg>