<svg xmlns="http://www.w3.org/2000/svg" version="1.1" xmlns:xlink="http://www.w3.org/1999/xlink" width="512" height="512" x="0" y="0" viewBox="0 0 512 512" style="enable-background:new 0 0 512 512" xml:space="preserve"><g><path d="M341.5 371.5c-.27 0-.55-.03-.82-.08a3.98 3.98 0 0 1-3.08-3.05c-.08-.33-7.98-34.05-37.5-45.12-23.51-8.82-87.2 8.39-121.12 19.95a4 4 0 0 1-4.28-.89c-1.56-1.56-1.58-4.08-.02-5.64.43-.43 1-.8 1.58-1l.14-.05c15.7-5.35 95.61-31.46 126.51-19.87 24.48 9.18 35.65 31.11 40.05 42.98l114.09-155.92c-1.03-2.92-3.3-8.95-6.84-16-.99-1.97-.19-4.38 1.78-5.37s4.38-.19 5.37 1.78c5.29 10.53 7.86 18.74 7.96 19.09.38 1.21.16 2.53-.59 3.55l-120 164a4.008 4.008 0 0 1-3.23 1.64z" fill="#ffffff" opacity="1" data-original="#000000"></path><path d="M177.5 343.5c-.65 0-1.31-.16-1.92-.49l-124-68a3.987 3.987 0 0 1-1.58-5.43 3.99 3.99 0 0 1 5.43-1.58l124 68a3.987 3.987 0 0 1 1.58 5.43 4.01 4.01 0 0 1-3.51 2.07zM317.5 179.5c-1.67 0-3.23-1.06-3.79-2.73-.07-.22-7.51-22.21-20.75-40.83-1.28-1.8-.86-4.3.94-5.58s4.3-.86 5.58.94c13.95 19.62 21.5 41.99 21.81 42.93.7 2.1-.43 4.36-2.53 5.06-.41.14-.84.21-1.26.21zM125.26 199.98c-.99 0-1.98-.36-2.75-1.1a4.009 4.009 0 0 1-.15-5.66l80.24-84.48c.4-.42.88-.75 1.42-.96.42-.17 10.34-4.07 23.88-6.12a3.997 3.997 0 0 1 4.55 3.36 3.997 3.997 0 0 1-3.36 4.55c-10.49 1.58-18.8 4.42-21.33 5.35l-79.61 83.81c-.78.83-1.83 1.25-2.89 1.25z" fill="#ffffff" opacity="1" data-original="#000000"></path><path d="M53.54 275.46c-.99 0-1.98-.37-2.75-1.1a4.009 4.009 0 0 1-.15-5.66l53.2-56a3.988 3.988 0 0 1 5.65-.14c1.6 1.52 1.67 4.05.14 5.65l-53.2 56c-.78.83-1.83 1.25-2.89 1.25z" fill="#ffffff" opacity="1" data-original="#000000"></path><path d="M337.9 371.51c-.22 0-.44-.01-.67-.02a6.29 6.29 0 0 1-.43-.05l-160-28c-.81-.14-1.56-.53-2.14-1.11-.24-.24-.49-.55-.66-.84-7.24-12.33-39.06-61.11-62.5-74.51-25.04-14.32-54.38 6.81-55.54 7.66-1.57 1.21-3.85 1.11-5.28-.33-1.56-1.56-1.58-4.08-.02-5.64l.04-.04c.13-.13.28-.26.43-.37 1.39-1.04 34.4-25.35 64.35-8.23 26.17 14.97 58.54 66.2 64.47 75.84l3.02.53c.57-.46 1.27-.77 2.05-.87 3.1-.38 76.14-9.1 101.28-3.95 37.88 7.78 59.38 25.51 58.13 34.8-.35 2.61-2.5 5.13-6.53 5.13zm-128.47-30.48 125.5 21.96c-4.7-5.68-20.15-17.39-50.23-23.57-15.32-3.14-51.25-.63-75.27 1.61z" fill="#ffffff" opacity="1" data-original="#000000"></path><path d="M169.5 339.5c-1.08 0-2.15-.43-2.94-1.29-.47-.51-47.58-51.33-70.33-58.92-22.12-7.37-33.36-4.04-33.47-4-2.1.7-4.36-.43-5.06-2.53s.43-4.36 2.53-5.06c.54-.18 13.55-4.33 38.53 4 24.69 8.23 71.69 58.93 73.67 61.08a3.99 3.99 0 0 1-.23 5.65c-.76.72-1.73 1.07-2.7 1.07zM341.5 363.5c-.75 0-1.5-.21-2.18-.65a3.993 3.993 0 0 1-1.17-5.53l112-172c1.21-1.85 3.68-2.38 5.53-1.17s2.38 3.68 1.17 5.53l-112 172a3.997 3.997 0 0 1-3.35 1.82z" fill="#ffffff" opacity="1" data-original="#000000"></path><path d="M445.5 203.5a4.007 4.007 0 0 1-3.47-5.99l14.86-26.01c-2.29-3.69-8.43-12.36-19.1-19.01-1.87-1.17-2.45-3.64-1.28-5.51s3.63-2.45 5.51-1.28c15.85 9.88 22.77 23.43 23.06 24 .6 1.2.56 2.61-.1 3.78l-16 28c-.75 1.3-2.1 2.02-3.48 2.02zM177.5 339.5c-.94 0-1.88-.33-2.64-.99a4.013 4.013 0 0 1-.37-5.65l144-164c.2-.22.42-.42.66-.6 1.04-.76 25.88-18.66 55.63-27.71 2.12-.65 4.35.55 4.99 2.66s-.55 4.35-2.66 4.99c-26.62 8.1-49.81 24.09-52.91 26.28L180.51 338.14c-.8.9-1.9 1.36-3.01 1.36zM345.5 387.5c-.19 0-.39-.01-.58-.04l-108-15.8c-2.19-.32-3.7-2.35-3.38-4.54s2.35-3.69 4.54-3.38l105.67 15.46 66.49-87.09c1.34-1.75 3.85-2.09 5.61-.75s2.09 3.85.75 5.61l-67.92 88.96c-.76 1-1.94 1.57-3.18 1.57z" fill="#ffffff" opacity="1" data-original="#000000"></path><path d="M173.5 371.5c-.5 0-1-.09-1.48-.29l-20-8a4.002 4.002 0 0 1-2.31-2.45l-3.5-10.5-94.61-51.25a4 4 0 0 1-2.09-3.52v-24c0-2.21 1.79-4 4-4s4 1.79 4 4v21.62l93.91 50.87c.89.48 1.57 1.29 1.89 2.25l3.41 10.24 15.83 6.33 6.13-6.13c.89-.89 2.16-1.31 3.41-1.13l38.4 5.6c2.19.32 3.7 2.35 3.38 4.54s-2.35 3.7-4.54 3.38l-36.41-5.31-6.58 6.58c-.78.76-1.8 1.17-2.84 1.17zM422.54 286.54a4 4 0 0 1-3.17-6.43l19.92-26.08c1.34-1.75 3.85-2.09 5.61-.75s2.09 3.85.75 5.61l-19.92 26.08a4.033 4.033 0 0 1-3.19 1.57zM449.38 251.38a4 4 0 0 1-3.17-6.43l11.3-14.81V203.5c0-2.21 1.79-4 4-4s4 1.79 4 4v28c0 .88-.29 1.73-.82 2.43l-12.12 15.88a4.033 4.033 0 0 1-3.19 1.57zM273.5 187.5c-1.29 0-2.56-.63-3.33-1.78-2.23-3.34-6.98-10.84-8.31-15.88-.89.13-1.98.34-2.89.51-2.69.51-6.04 1.15-9.47 1.15-3.2 0-5.02-1.34-5.97-2.46-2.41-2.83-1.8-6.7-1.25-10.12.22-1.37.62-3.88.33-4.66-1.13-.97-4.56-.47-8.53.11-3.43.5-7.7 1.12-12.58 1.12-4.75 0-8.09-1.14-10.21-3.49-3.02-3.35-2.54-7.94-2.11-11.99.16-1.5.32-3.06.32-4.52 0-.5-.09-.68-.09-.68-.61-.53-3.87-.43-6.65.48-2.09.69-4.36-.45-5.05-2.54s.44-4.35 2.53-5.05c1.48-.49 9.11-2.78 13.86.64 1.55 1.12 3.41 3.27 3.41 7.15 0 1.88-.19 3.72-.36 5.35-.23 2.15-.53 5.1.1 5.81.08.09.86.84 4.26.84 4.29 0 8.08-.55 11.42-1.04 6.18-.9 11.51-1.68 15.41 2.21 3.17 3.17 2.44 7.8 1.84 11.51-.15.95-.38 2.39-.4 3.31 2.6-.03 5.3-.55 7.7-1.01 4.22-.81 7.56-1.44 10.06.62 1.27 1.05 1.97 2.61 1.97 4.39.13 1.66 3.55 8.12 7.33 13.78 1.23 1.84.73 4.32-1.11 5.55-.69.47-1.46.69-2.23.69zM429.5 199.5c-.42 0-.85-.07-1.26-.21-.55-.18-13.38-4.55-18.18-13.74-.54-.2-2.81-.73-9.32.8-2.14.51-4.3-.83-4.81-2.98s.83-4.3 2.98-4.81c6.39-1.5 15.24-2.81 18.18 3.16 2.64 5.29 10.77 9 13.68 9.98 2.09.7 3.22 2.97 2.52 5.06a4 4 0 0 1-3.79 2.74zM359.83 201.06c-2.11 0-4.08-.54-5.89-1.63-3.65-2.19-6.06-6.24-7.93-9.96-2.98-1.53-17.48 2.98-30.73 9.6-1.98.99-4.38.18-5.37-1.79a3.999 3.999 0 0 1 1.79-5.37c.34-.17 8.32-4.15 16.96-7.19 8.73-3.08 20.75-6.33 24.41.98 1.19 2.37 2.99 5.67 4.98 6.86.59.36 1.98 1.19 5.65-.65 2.2-1.07 5.65-2.71 9.79-4.46 2.04-.86 4.38.09 5.25 2.12.86 2.03-.08 4.38-2.12 5.25-3.98 1.69-7.29 3.25-9.37 4.27-2.62 1.32-5.1 1.97-7.42 1.97zM381.5 247.5c-1.02 0-2.05-.39-2.83-1.17-.06-.05-7.93-7.53-30.44-15.03-5.16-1.73-10.8-3.02-16.79-3.83-2.19-.3-3.72-2.31-3.43-4.5s2.3-3.72 4.5-3.43c6.49.88 12.63 2.28 18.25 4.17 24.61 8.2 33.2 16.61 33.56 16.96a4.008 4.008 0 0 1 0 5.66c-.77.78-1.8 1.17-2.82 1.17zM301.5 227.5c-1.92 0-3.62-1.39-3.94-3.35a3.998 3.998 0 0 1 3.29-4.6c.22-.04 5.47-.89 13.47-1.01h.06a4 4 0 0 1 .06 8c-7.36.11-12.24.9-12.29.91-.22.03-.44.05-.65.05zM345.5 307.5c-1.87 0-3.54-1.32-3.92-3.22-.12-.57-3.49-14.84-26.16-22.81-2.08-.73-3.18-3.02-2.45-5.1s3.01-3.18 5.1-2.45c27.24 9.57 31.2 28.01 31.36 28.79.43 2.17-.98 4.27-3.14 4.7-.27.07-.54.09-.79.09zM292.42 276.58c-.14 0-.28-.01-.43-.02-13.81-1.47-26.23-1.06-26.36-1.06-2.2.04-4.06-1.65-4.14-3.86s1.65-4.06 3.86-4.14c.53-.02 13.09-.43 27.48 1.1 2.2.23 3.79 2.2 3.55 4.4-.2 2.06-1.94 3.58-3.96 3.58zM237.18 192.78c-1.12 0-2.23-.46-3.02-1.37a94.645 94.645 0 0 0-18.88-16.58c-19.19-12.79-27.5-8.04-27.58-7.99.08-.05.11-.08.11-.08l-4.63-6.52c1.22-.87 12.62-8.02 36.54 7.93 7.63 5.09 14.52 11.14 20.48 17.98a3.993 3.993 0 0 1-.39 5.64c-.76.67-1.7.99-2.63.99zM249.5 211.5a4.02 4.02 0 0 1-3.72-2.52c-.03-.07-1.32-3.23-4.32-7.86-1.2-1.85-.67-4.33 1.18-5.53s4.33-.67 5.53 1.18c3.5 5.39 4.98 9.11 5.04 9.27.81 2.05-.19 4.38-2.25 5.19-.47.18-.97.27-1.46.27zM217.5 267.5c-1.47 0-2.89-.81-3.58-2.22-.03-.06-3.16-6.3-8.81-14.36-1.27-1.81-.83-4.3.98-5.57s4.3-.83 5.57.98c6.02 8.59 9.29 15.12 9.43 15.4.98 1.98.18 4.38-1.8 5.36-.58.28-1.19.41-1.79.41zM141.44 215.54c-1.52 0-2.96-.89-3.63-2.37-.91-2.01.03-4.4 2.05-5.31.62-.28 6.39-2.66 18.42-.28 2.17.43 3.58 2.53 3.15 4.7s-2.53 3.57-4.7 3.15c-9.39-1.86-13.63-.25-13.67-.24-.53.23-1.08.35-1.62.35zM199.42 241.06c-1.12 0-2.24-.47-3.03-1.39-4.33-5.01-8.83-9.4-13.39-13.05-4.5-3.6-9.64-6.42-15.3-8.39a3.994 3.994 0 0 1-2.46-5.09 3.994 3.994 0 0 1 5.09-2.46c6.52 2.27 12.46 5.53 17.66 9.69 4.94 3.95 9.8 8.69 14.45 14.07a4.003 4.003 0 0 1-.41 5.64c-.75.66-1.68.98-2.61.98zM165.78 107.5c-2.21 0-4-1.79-4-4 0-14.78-12.02-26.8-26.8-26.8-2.21 0-4-1.79-4-4s1.79-4 4-4c14.78 0 26.8-12.02 26.8-26.8 0-2.21 1.79-4 4-4s4 1.79 4 4c0 14.78 12.02 26.8 26.8 26.8 2.21 0 4 1.79 4 4s-1.79 4-4 4c-4.44 0-8.77 1.08-12.53 3.12-1.94 1.05-4.37.33-5.42-1.61s-.33-4.37 1.61-5.42c.05-.03.1-.06.16-.08a35.005 35.005 0 0 1-14.61-14.61 35.005 35.005 0 0 1-14.61 14.61c6.22 3.28 11.33 8.4 14.62 14.62.53-1 1.12-1.98 1.75-2.92 1.23-1.84 3.71-2.33 5.55-1.1s2.33 3.71 1.1 5.55c-2.88 4.3-4.4 9.37-4.4 14.65a4.027 4.027 0 0 1-4.02 3.99zM454.99 103.5c-2.21 0-4-1.79-4-4 0-8.82-7.18-16-16-16-2.21 0-4-1.79-4-4s1.79-4 4-4c8.82 0 16-7.18 16-16 0-2.21 1.79-4 4-4s4 1.79 4 4c0 8.82 7.18 16 16 16 2.21 0 4 1.79 4 4s-1.79 4-4 4c-8.82 0-16 7.18-16 16 0 2.21-1.79 4-4 4zm-6.75-24c2.67 1.78 4.97 4.07 6.75 6.75 1.78-2.67 4.07-4.97 6.75-6.75a24.235 24.235 0 0 1-6.75-6.75 24.235 24.235 0 0 1-6.75 6.75zM430.26 427.5c-2.21 0-4-1.79-4-4 0-12.81-10.44-23.24-23.28-23.24-2.21 0-4-1.79-4-4s1.79-4 4-4c12.84 0 23.28-10.44 23.28-23.28 0-2.21 1.79-4 4-4s4 1.79 4 4c0 12.84 10.43 23.28 23.24 23.28 2.21 0 4 1.79 4 4s-1.79 4-4 4c-4.53 0-8.9 1.3-12.65 3.75a4.002 4.002 0 1 1-4.38-6.7c.57-.37 1.15-.73 1.74-1.06-5-2.82-9.14-6.97-11.96-11.97-2.82 5-6.97 9.16-11.98 11.98 5.17 2.91 9.43 7.23 12.25 12.45 1.14-.79 2.66-.98 4-.34 2 .94 2.85 3.33 1.91 5.32-1.43 3.02-2.18 6.42-2.18 9.81.01 2.21-1.78 4-3.99 4zM141.5 415.5c-8.82 0-16-7.18-16-16s7.18-16 16-16 16 7.18 16 16-7.18 16-16 16zm0-24c-4.41 0-8 3.59-8 8s3.59 8 8 8 8-3.59 8-8-3.59-8-8-8zM385.5 59.5c-2.21 0-4-1.79-4-4v-20c0-2.21 1.79-4 4-4s4 1.79 4 4v20c0 2.21-1.79 4-4 4z" fill="#ffffff" opacity="1" data-original="#000000"></path><path d="M397.5 51.5h-20c-2.21 0-4-1.79-4-4s1.79-4 4-4h20c2.21 0 4 1.79 4 4s-1.79 4-4 4zM77.5 151.5c-2.21 0-4-1.79-4-4v-20c0-2.21 1.79-4 4-4s4 1.79 4 4v20c0 2.21-1.79 4-4 4z" fill="#ffffff" opacity="1" data-original="#000000"></path><path d="M89.5 143.5h-20c-2.21 0-4-1.79-4-4s1.79-4 4-4h20c2.21 0 4 1.79 4 4s-1.79 4-4 4zM117.5 119.5c-4.41 0-8-3.59-8-8s3.59-8 8-8 8 3.59 8 8-3.59 8-8 8zM325.5 83.5c-11.03 0-20-8.97-20-20s8.97-20 20-20 20 8.97 20 20-8.97 20-20 20zm0-32c-6.62 0-12 5.38-12 12s5.38 12 12 12 12-5.38 12-12-5.38-12-12-12zM321.5 427.5c-4.41 0-8-3.59-8-8s3.59-8 8-8 8 3.59 8 8-3.59 8-8 8zM53.5 371.5c-4.41 0-8-3.59-8-8s3.59-8 8-8 8 3.59 8 8-3.59 8-8 8zM161.5 483.5c-.72 0-1.45-.19-2.1-.6a4.005 4.005 0 0 1-1.3-5.51l34.48-55.72c1.16-1.88 3.63-2.46 5.51-1.3s2.46 3.63 1.3 5.51L164.9 481.6a3.98 3.98 0 0 1-3.4 1.9zM202.54 417.22c-.72 0-1.44-.19-2.1-.6a4.005 4.005 0 0 1-1.3-5.51l10.96-17.72c1.16-1.88 3.63-2.46 5.51-1.3s2.46 3.63 1.3 5.51l-10.96 17.72a3.997 3.997 0 0 1-3.41 1.9zM241.5 435.5c-.36 0-.73-.05-1.1-.16a4.008 4.008 0 0 1-2.75-4.94l8-28a4.007 4.007 0 0 1 4.95-2.75c2.12.61 3.35 2.82 2.75 4.94l-8 28a4.008 4.008 0 0 1-3.85 2.91zM297.5 475.5c-1.92 0-3.61-1.39-3.94-3.34l-12-72a3.998 3.998 0 0 1 3.29-4.6 4.003 4.003 0 0 1 4.6 3.29l12 72a3.998 3.998 0 0 1-3.29 4.6c-.22.03-.45.05-.66.05zM477.5 315.5c-.66 0-1.32-.16-1.94-.5l-36-20a3.994 3.994 0 0 1-1.55-5.44 3.994 3.994 0 0 1 5.44-1.55l36 20a3.994 3.994 0 0 1 1.55 5.44 4.008 4.008 0 0 1-3.5 2.05zM477.5 391.5c-1.02 0-2.05-.39-2.83-1.17l-30.92-30.92a4.008 4.008 0 0 1 0-5.66 4.008 4.008 0 0 1 5.66 0l30.92 30.92a3.998 3.998 0 0 1-2.83 6.83zM437.82 351.82c-1.02 0-2.05-.39-2.83-1.17l-16.32-16.32a4.008 4.008 0 0 1 0-5.66 4.008 4.008 0 0 1 5.66 0l16.32 16.32a3.998 3.998 0 0 1-2.83 6.83zM413.5 475.5c-1.29 0-2.56-.62-3.33-1.78l-21.72-32.56c-1.23-1.84-.73-4.32 1.11-5.55s4.32-.73 5.55 1.11l21.72 32.56a3.998 3.998 0 0 1-3.33 6.22zM380.1 425.38c-1.29 0-2.56-.62-3.33-1.78l-14.6-21.88c-1.23-1.84-.73-4.32 1.11-5.55s4.32-.73 5.55 1.11l14.6 21.88a3.998 3.998 0 0 1-3.33 6.22zM49.5 447.5c-.95 0-1.9-.34-2.67-1.02-1.65-1.47-1.79-4-.31-5.65l35.88-40.08c1.47-1.65 4-1.79 5.65-.31 1.65 1.47 1.79 4 .31 5.65l-35.88 40.08a3.99 3.99 0 0 1-2.98 1.33zM98.02 393.3c-.95 0-1.9-.33-2.66-1.02-1.65-1.47-1.79-4-.32-5.65l19.48-21.8a4.002 4.002 0 0 1 5.97 5.33L101 391.96c-.79.89-1.88 1.34-2.98 1.34zM289.5 191.5c-.32 0-.65-.04-.97-.12-2.14-.54-3.45-2.71-2.91-4.85.08-.3 7.41-31.03-7.7-61.24-6.87-13.76-19.52-18.59-31.75-23.27-7.93-3.03-15.43-5.9-20.86-11.06a4 4 0 0 1-.14-5.66 4 4 0 0 1 5.66-.14c4.28 4.06 11.04 6.65 18.21 9.39 13.03 4.98 27.8 10.62 36.05 27.16 16.47 32.94 8.64 65.39 8.3 66.76a4.02 4.02 0 0 1-3.89 3.03z" fill="#ffffff" opacity="1" data-original="#000000"></path><path d="M269.37 86.14c-3.35 0-6.79-1.11-10.09-3.31-4.72-3.15-7.11-6.86-7.11-11.03 0-6.69 6.39-11.14 7.11-11.62 1.84-1.23 4.32-.73 5.55 1.11s.73 4.32-1.11 5.55c-1.15.79-3.56 3.06-3.55 4.98.01 1.74 2.23 3.48 3.55 4.36 3.23 2.16 6.25 2.54 8.98 1.14 3.69-1.9 6.39-6.93 6.57-12.23.11-3.46-.75-9.91-7.82-14.15-10.99-6.59-25.18-7.51-34.51-2.22-7.48 4.23-11.43 12.12-11.43 22.79 0 2.58.35 4.9 1.03 6.92a3.998 3.998 0 0 1-7.57 2.57c-.96-2.84-1.45-6.03-1.45-9.48 0-13.53 5.5-24.1 15.49-29.75 11.89-6.77 28.99-5.83 42.55 2.3 7.73 4.64 11.99 12.39 11.7 21.27-.27 8.33-4.56 15.82-10.91 19.08-2.23 1.15-4.58 1.72-6.98 1.72zM361.5 179.5c-2.21 0-4-1.79-4-4 0-2.11 1.71-7.37 13.17-18.83 12.26-12.26 23.57-13.92 33.55-15.38 10.24-1.5 18.32-2.68 25.8-15.78a4.007 4.007 0 0 1 5.46-1.49 4.007 4.007 0 0 1 1.49 5.46c-9.42 16.48-20.69 18.13-31.59 19.72-9.18 1.34-18.67 2.73-29.06 13.12-9.26 9.26-10.69 13.11-10.86 13.66a3.983 3.983 0 0 1-3.96 3.52zM382.07 134.82c-4.29 0-9.12-1.12-14.36-3.74-8.51-4.26-12.07-14.2-9.29-25.94 3.48-14.73 16.65-29.64 35.08-29.64 16.26 0 31.9 6.23 40.81 16.25 6 6.75 8.65 14.82 7.64 23.34a3.995 3.995 0 0 1-4.44 3.5 4 4 0 0 1-3.5-4.44c.74-6.27-1.17-12.02-5.68-17.08-7.33-8.24-21-13.57-34.83-13.57-14.27 0-24.54 11.81-27.3 23.48-1.47 6.22-.91 13.94 5.09 16.94 11.4 5.7 18.76 2.02 21.59-2.87 1.84-3.18 2.13-7.74-1.6-10.23-1.74-1.16-3.34-1.57-4.89-1.26-2.67.54-4.9 3.15-5.54 4.11-1.21 1.84-3.69 2.36-5.53 1.16s-2.38-3.65-1.19-5.5c.41-.64 4.18-6.26 10.59-7.59 3.67-.77 7.47.07 11 2.43 6.77 4.51 8.49 13.3 4.08 20.9-3.25 5.6-9.48 9.75-17.73 9.75zM325.5 131.5c-1.05 0-2.08-.43-2.83-1.17a4.065 4.065 0 0 1-1.17-2.83c0-.26.03-.52.08-.78s.13-.51.23-.75.22-.47.36-.69c.15-.22.32-.42.5-.61.18-.18.39-.35.61-.5.22-.14.45-.26.69-.36s.49-.18.75-.23c1.3-.26 2.68.16 3.61 1.09.18.19.35.39.5.61.14.22.26.45.36.69s.18.49.23.75.08.52.08.78c0 1.05-.43 2.08-1.17 2.83-.75.74-1.78 1.17-2.83 1.17z" fill="#ffffff" opacity="1" data-original="#000000"></path><path d="M325.5 151.5c-.2 0-20-.32-20-28 0-11.58 5.91-17.45 10.87-20.34a4 4 0 1 1 4.03 6.91c-4.64 2.7-6.89 7.09-6.89 13.42 0 19.77 11.51 20 12 20 2.21 0 4 1.79 4 4s-1.8 4.01-4.01 4.01z" fill="#ffffff" opacity="1" data-original="#000000"></path><path d="M331.69 133.75c-3.47 0-6.78-1.02-9.59-2.96a3.98 3.98 0 0 1-1.54-4.48 4.003 4.003 0 0 1 3.82-2.81h1.12c1.39 0 2.62.71 3.33 1.79.91.3 1.88.46 2.86.46a9.16 9.16 0 0 0 7.35-3.73c1.77-2.41 2.24-5.38 1.3-8.38-1.12-3.62-4.84-6.14-9.03-6.14-2.21 0-4-1.79-4-4s1.79-4 4-4c7.66 0 14.52 4.84 16.67 11.77 1.68 5.4.77 11.05-2.5 15.49a17.16 17.16 0 0 1-13.79 6.99zM85.5 91.5c-1.29 0-2.56-.62-3.33-1.78l-4.92-7.36a4.005 4.005 0 0 1 1.1-5.55 4.005 4.005 0 0 1 5.55 1.1l4.92 7.36c1.23 1.84.73 4.32-1.1 5.55-.68.46-1.45.68-2.22.68zM72.94 72.66c-1.29 0-2.56-.63-3.33-1.78L50.17 41.72c-1.23-1.84-.73-4.32 1.11-5.55s4.32-.73 5.55 1.11l19.44 29.16a3.998 3.998 0 0 1-3.33 6.22zM85.5 195.5c-.85 0-1.71-.27-2.44-.83l-10.12-7.8a4 4 0 1 1 4.88-6.34l10.12 7.8a4.008 4.008 0 0 1 .73 5.61 4 4 0 0 1-3.17 1.56zM59.5 175.5c-.85 0-1.71-.27-2.44-.83l-26-20a4 4 0 0 1-.73-5.61 4 4 0 0 1 5.61-.73l26 20a4 4 0 0 1-2.44 7.17zM129.04 161.66c3.14 0 6.15-2.76 6-6-.15-3.25-2.64-6-6-6-3.14 0-6.15 2.76-6 6 .15 3.25 2.64 6 6 6z" fill="#ffffff" opacity="1" data-original="#000000"></path><path d="M331.1 107.5c-1.87 0-3.54-1.32-3.92-3.22l-1.6-8c-.43-2.17.97-4.27 3.14-4.71 2.17-.43 4.27.97 4.71 3.14l1.6 8c.43 2.17-.97 4.27-3.14 4.71-.27.06-.53.08-.79.08zM318.38 110.62c-1.17 0-2.34-.51-3.13-1.5L306.37 98c-1.38-1.73-1.1-4.24.63-5.62s4.24-1.1 5.62.63l8.88 11.12a3.993 3.993 0 0 1-3.12 6.49z" fill="#ffffff" opacity="1" data-original="#000000"></path></g></svg>