<svg xmlns="http://www.w3.org/2000/svg" version="1.1" xmlns:xlink="http://www.w3.org/1999/xlink" width="512" height="512" x="0" y="0" viewBox="0 0 512 512" style="enable-background:new 0 0 512 512" xml:space="preserve"><g><circle cx="119.359" cy="329.727" r="10" fill="#ffffff" opacity="1" data-original="#000000"></circle><circle cx="392.641" cy="329.727" r="10" fill="#ffffff" opacity="1" data-original="#000000"></circle><circle cx="374.699" cy="435.23" r="10" fill="#ffffff" opacity="1" data-original="#000000"></circle><path d="m493.815 429.148-21.494-44.588c-2-4.15-6.573-6.405-11.08-5.455-.525.111-53.36 10.765-124.105-10.103-41.517-12.252-69.101-.1-81.136 7.513-12.035-7.613-39.62-19.764-81.136-7.514-70.401 20.768-123.592 10.208-124.106 10.104a10.019 10.019 0 0 0-11.08 5.455l-21.494 44.588C7.381 434.863 0 446.216 0 459.265c0 18.778 15.277 34.055 34.054 34.055H230.26c7.818 7.113 18.047 11.116 28.717 11.116s20.899-4.004 28.717-11.116h190.251c18.777 0 34.054-15.277 34.054-34.055.001-13.049-7.38-24.402-18.184-30.117zm-15.869 44.133H283.514a10.023 10.023 0 0 0-7.528 3.407c-4.304 4.899-10.503 7.709-17.009 7.709s-12.706-2.81-17.009-7.709a10.023 10.023 0 0 0-7.528-3.407H34.054c-7.728 0-14.015-6.288-14.015-14.016s6.287-14.016 14.015-14.016H230.26c7.818 7.114 18.047 11.117 28.717 11.117s20.899-4.003 28.717-11.117h41.921c5.534 0 10.02-4.486 10.02-10.02s-4.486-10.02-10.02-10.02h-46.101a10.023 10.023 0 0 0-7.528 3.407c-4.304 4.9-10.504 7.71-17.009 7.71s-12.705-2.81-17.009-7.71a10.023 10.023 0 0 0-7.528-3.407H42.328l12.158-25.221c18.16 2.432 65.915 5.971 126.048-11.768 44.523-13.137 67.714 7.19 68.613 8 3.837 3.732 9.731 3.722 13.638.062.965-.873 24.155-21.2 68.681-8.061 60.137 17.738 107.892 14.195 126.047 11.767l12.158 25.221H419.63c-5.534 0-10.02 4.486-10.02 10.02s4.486 10.02 10.02 10.02h58.316c7.728 0 14.015 6.288 14.015 14.016s-6.287 14.016-14.015 14.016zM253.87 182.421a34.05 34.05 0 0 0 5.585-.155c14.287-1.042 28.354-7.049 39.335-18.029 19.434-19.434 23.813-49.519 10.648-73.159l-43.641-78.369a10.022 10.022 0 0 0-8.702-5.145h-.052a10.02 10.02 0 0 0-8.702 5.054l-45.224 79.261c-13.628 23.886-9.775 53.938 9.369 73.083 11.39 11.39 26.303 17.189 41.384 17.459zm-7.383-23.788c-4.156-4.156-4.992-10.697-2.034-15.906l11.765-20.722 11.434 20.429c2.888 5.161 1.929 11.743-2.334 16.005-2.219 2.22-6.039 3.61-9.091 3.944-.653.035.653-.004 0 0-3.335-.121-7.397-1.407-9.74-3.75zm-25.965-56.823 36.415-63.823 34.993 62.84c7.725 13.872 6.391 31.104-2.857 43.995-.503-4.201-1.789-8.341-3.935-12.175l-20.115-35.938a10.016 10.016 0 0 0-8.712-5.126h-.031a10.02 10.02 0 0 0-8.713 5.072l-20.541 36.178a33.367 33.367 0 0 0-4.204 13.487c-9.349-12.69-10.458-30.214-2.3-44.51zM52.411 355.328a10.002 10.002 0 0 0 7.855 3.791c2.182 0 4.38-.709 6.222-2.171 4.335-3.44 5.06-9.743 1.62-14.077l-45.519-57.357c-3.441-4.335-9.744-5.06-14.077-1.619-4.335 3.44-5.06 9.743-1.62 14.077zM445.512 356.947c4.277 3.393 10.684 2.656 14.077-1.619l45.519-57.357c3.44-4.335 2.715-10.637-1.62-14.077-4.335-3.438-10.636-2.715-14.077 1.619l-45.519 57.357c-3.439 4.334-2.714 10.637 1.62 14.077zM38.363 234.786l32.035 17.521 17.521 32.035a10.019 10.019 0 0 0 17.582 0l17.521-32.035 32.035-17.521a10.02 10.02 0 0 0 0-17.582l-32.035-17.521-17.522-32.034a10.018 10.018 0 0 0-17.582-.001l-17.521 32.036-32.035 17.521a10.02 10.02 0 0 0 .001 17.581zm44.225-18.929a10.014 10.014 0 0 0 3.983-3.982l10.138-18.537 10.138 18.536a10.004 10.004 0 0 0 3.983 3.983l18.536 10.138-18.536 10.138a10.02 10.02 0 0 0-3.983 3.982l-10.138 18.537-10.138-18.537a10.014 10.014 0 0 0-3.983-3.982l-18.536-10.138zM351.733 225.995c0 3.662 1.999 7.033 5.212 8.791l32.035 17.521 17.521 32.035a10.019 10.019 0 0 0 17.582 0l17.521-32.035 32.035-17.521a10.02 10.02 0 0 0 0-17.582l-32.035-17.521-17.521-32.036a10.019 10.019 0 0 0-17.582.001l-17.521 32.035-32.035 17.521a10.02 10.02 0 0 0-5.212 8.791zm49.437-10.138a10.016 10.016 0 0 0 3.983-3.983l10.138-18.536 10.138 18.537a10.008 10.008 0 0 0 3.983 3.982l18.536 10.138-18.536 10.138a10.02 10.02 0 0 0-3.983 3.982l-10.138 18.537-10.138-18.537a10.014 10.014 0 0 0-3.983-3.982l-18.536-10.138zM168.44 303.104v5.096h-5.095c-5.534 0-10.02 4.486-10.02 10.02s4.486 10.02 10.02 10.02h5.095v5.095c0 5.533 4.486 10.02 10.02 10.02s10.02-4.486 10.02-10.02v-5.095h5.095c5.534 0 10.02-4.486 10.02-10.02s-4.486-10.02-10.02-10.02h-5.095v-5.096c0-5.533-4.486-10.02-10.02-10.02s-10.02 4.486-10.02 10.02zM308.406 318.219c0 5.533 4.486 10.02 10.02 10.02h5.095v5.095c0 5.533 4.486 10.02 10.02 10.02s10.02-4.486 10.02-10.02v-5.095h5.095c5.534 0 10.02-4.486 10.02-10.02s-4.486-10.02-10.02-10.02h-5.095v-5.096c0-5.533-4.486-10.02-10.02-10.02s-10.02 4.486-10.02 10.02v5.096h-5.095c-5.534.001-10.02 4.487-10.02 10.02zM219.689 243.836c-5.534 0-10.02 4.486-10.02 10.02 0 5.533 4.486 10.02 10.02 10.02h15.993c5.534 0 10.02-4.486 10.02-10.02 0-5.533-4.486-10.02-10.02-10.02zM276.318 243.836c-5.534 0-10.02 4.486-10.02 10.02 0 5.533 4.486 10.02 10.02 10.02h15.993c5.534 0 10.02-4.486 10.02-10.02 0-5.533-4.486-10.02-10.02-10.02zM256 264.154c-5.534 0-10.02 4.486-10.02 10.02v15.992c0 5.533 4.486 10.02 10.02 10.02s10.02-4.486 10.02-10.02v-15.992c0-5.534-4.486-10.02-10.02-10.02zM266.02 217.545c0-5.533-4.486-10.02-10.02-10.02s-10.02 4.486-10.02 10.02v15.993c0 5.533 4.486 10.02 10.02 10.02s10.02-4.486 10.02-10.02z" fill="#ffffff" opacity="1" data-original="#000000"></path></g></svg>