<?xml version="1.0" encoding="utf-8"?>
<!-- Generator: Adobe Illustrator 28.3.0, SVG Export Plug-In . SVG Version: 6.00 Build 0)  -->
<svg version="1.1" id="Capa_1" xmlns="http://www.w3.org/2000/svg" xmlns:xlink="http://www.w3.org/1999/xlink" x="0px" y="0px"
	 viewBox="0 0 300 550" style="enable-background:new 0 0 300 550;" xml:space="preserve">
<style type="text/css">
	.st0{fill:#9B48DB;}
	.st1{fill:#343135;}
	.st2{fill:#FFFFFF;}
	.st3{fill:#C9C9C9;}
	.st4{fill:#9C03B7;}
</style>
<rect y="0" class="st0" width="300" height="550"/>
<g>
	<g>
		<path class="st1" d="M236.9,99.4c6.3-1,13.2-1.3,19.3-3.5c0.6-0.2,0.6-1.3-0.2-1.3c-6.1,0.7-12.2,2.2-18.3,3.2
			c-5.3,0.9-10.4,2.8-15.7,3.8c-0.2,0-0.1,0.4,0,0.4C227.1,102,232,100.1,236.9,99.4z"/>
		<path class="st1" d="M278.2,101c-4.5,0.7-8.9,1.5-13.5,1.7c-4,0.2-8,0.4-12,0.9c-10.2,1.4-20.3,3.2-30.6,4c-0.1,0-0.1,0.2,0,0.2
			c10.3-0.3,20.5-1.8,30.7-3.1c4.7-0.6,9.4-0.6,14-0.9c3.8-0.2,8.2-0.4,11.7-2C279.1,101.6,278.7,101,278.2,101z"/>
		<path class="st1" d="M252.9,113.3c0.6-0.1,0.6-0.9,0-0.9c-11,0.1-21.7,2.9-32.7,2c-0.2,0-0.3,0.3,0,0.4
			C230.9,116.5,242.1,114.6,252.9,113.3z"/>
		<path class="st1" d="M265.9,112.8c0.5,0,0.5-0.8,0-0.8c-2.5,0.1-4.9,0.3-7.4,0.4c-0.2,0-0.2,0.4,0,0.4
			C261,112.9,263.4,113,265.9,112.8z"/>
		<path class="st1" d="M268.9,121.9c-8.3-0.3-16.7-0.5-25-0.5c-7.3,0-14.7,1-22,0.3c-0.2,0-0.3,0.4-0.1,0.4c6.8,1,13.9,0.4,20.8,0.4
			c8.7,0,17.5,0.8,26.2,0.4C269.5,122.8,269.5,121.9,268.9,121.9z"/>
		<path class="st1" d="M245.4,130.6c-3.2-0.9-6.7-0.7-10-0.8c-4-0.1-7.9-0.8-11.9-1.4c-0.1,0-0.2,0.1-0.1,0.2c3,1.6,6.4,2,9.8,2.4
			c3.9,0.4,8.2,0.9,12.1,0.5C245.7,131.3,245.8,130.7,245.4,130.6z"/>
		<path class="st1" d="M224.7,135.6c10,2.6,20.5,4.9,30.8,5.4c0.6,0,0.7-0.9,0.1-1c-10.2-2.2-20.6-2.7-30.8-4.7
			C224.6,135.2,224.5,135.5,224.7,135.6z"/>
		<path class="st1" d="M265.5,141.7c-2-0.3-4.1-0.4-6.1-0.8c-0.4-0.1-0.6,0.5-0.2,0.7c1.9,0.6,4.1,1.2,6.2,1
			C265.8,142.5,266,141.8,265.5,141.7z"/>
		<path class="st1" d="M219.7,141.7c8.2,3.7,16.9,6.7,25.5,9.3c0.5,0.1,0.8-0.6,0.4-0.8c-8.1-4-17.3-5.7-25.8-8.6
			C219.7,141.5,219.6,141.6,219.7,141.7z"/>
		<path class="st1" d="M221.1,93.5c5.1-1.6,10.5-2.2,15.6-3.8c0.5-0.2,0.3-0.9-0.2-0.7c-5.2,1.3-10.6,2-15.5,4.2
			C220.8,93.2,220.9,93.6,221.1,93.5z"/>
		<path class="st1" d="M216.8,148.9c-0.2-0.1-0.5,0.2-0.3,0.4c3.3,2.6,7.3,3.9,11.3,5.3c0.6,0.2,0.9-0.7,0.4-1
			C224.5,151.8,220.3,151,216.8,148.9z"/>
	</g>
	<g>
		<path class="st1" d="M76.2,78c-4.9-2.3-9.3-5.4-14.3-7.6C56.3,68,50.7,65,45,62.8c-0.7-0.3-1,0.8-0.5,1.2
			c5.3,3.7,11.9,5.8,17.8,8.3c4.6,2,8.9,5,13.8,6.1C76.3,78.4,76.4,78.1,76.2,78z"/>
		<path class="st1" d="M45.4,73.4c9.7,3.8,19.2,7.9,29.1,10.8c0.1,0,0.2-0.2,0.1-0.2c-9.8-3.3-19.2-7.6-28.7-11.6
			c-3.5-1.5-7.2-2.6-10.9-3.8c-4.6-1.4-8.7-3.3-13.1-5.2c-0.4-0.2-1,0.4-0.5,0.7c2.9,2.4,6.8,3.5,10.3,4.7
			C36.2,70.4,40.9,71.6,45.4,73.4z"/>
		<path class="st1" d="M74.7,91C63.8,89,54.2,83.6,43.6,80.8c-0.6-0.2-0.7,0.7-0.2,0.9c10,3.9,20.5,8.6,31.3,9.6
			C74.9,91.4,74.9,91,74.7,91z"/>
		<path class="st1" d="M38,79.8c0.2,0.1,0.3-0.3,0.1-0.4c-2.4-0.8-4.7-1.5-7.1-2.3c-0.5-0.1-0.7,0.6-0.2,0.8
			C33.2,78.7,35.6,79.3,38,79.8z"/>
		<path class="st1" d="M71.2,97.6C64,96.5,57,93.6,50,91.8c-8.1-2.1-16.2-3.9-24.3-5.7c-0.6-0.1-0.8,0.7-0.2,0.9
			c8,2.5,16.2,4,24.3,5.9c7.1,1.7,14.1,4.3,21.4,5.1C71.3,98,71.4,97.7,71.2,97.6z"/>
		<path class="st1" d="M68.1,103.6c-4-0.4-7.9-0.8-11.9-1.6c-3.2-0.7-6.5-1.8-9.9-1.7c-0.5,0-0.5,0.7-0.1,0.8
			c3.8,1.4,7.9,1.9,11.9,2.5c3.3,0.5,6.8,1,10,0.2C68.2,103.8,68.2,103.6,68.1,103.6z"/>
		<path class="st1" d="M65,109.9c-10.4-0.6-20.7-2.7-31.1-3.1c-0.6,0-0.7,0.9-0.1,1c10.1,2.1,20.8,2.5,31.2,2.5
			C65.3,110.3,65.3,110,65,109.9z"/>
		<path class="st1" d="M29.3,106.6c-2.1-0.1-4.1-0.5-6.1-0.7c-0.5,0-0.5,0.7-0.1,0.9c1.9,0.7,4.2,0.6,6.2,0.5
			C29.8,107.2,29.8,106.6,29.3,106.6z"/>
		<path class="st1" d="M41.3,120.1c9-0.3,18.2-1.1,27.1-2.6c0.1,0,0.1-0.2,0-0.2c-9,0.7-18.3,0-27.2,1.9
			C40.7,119.3,40.8,120.1,41.3,120.1z"/>
		<path class="st1" d="M79.3,70.2c-4.2-3.4-9.3-5.4-14-8c-0.4-0.2-0.8,0.4-0.4,0.7c4.5,2.9,9.6,4.7,14.2,7.6
			C79.2,70.6,79.4,70.3,79.3,70.2z"/>
		<path class="st1" d="M57.3,127.9c4.2-0.3,8.4-0.5,12.2-2.2c0.3-0.1,0.2-0.5-0.1-0.4c-4,1.2-8.2,0.9-12.2,1.7
			C56.6,127,56.7,127.9,57.3,127.9z"/>
	</g>
	<g>
		<path class="st1" d="M136.9,54.1c-1.1-0.9-2-1.5-2.8-2.4c-2-2-1.6-5,0.9-6.4c1-0.6,2.2-1,3.4-1.5c0-0.1,0-0.3,0-0.5
			c-0.9-3.6-1.8-7.1-2.7-10.7c-0.2-0.7-0.4-1.3-0.7-2c-0.6-1.5-0.3-2.5,1.2-3c1.9-0.7,3.8-1.2,5.8-1.6c6.3-1,12.3,0.3,18.3,2.2
			c0.3,0.1,0.5,0.2,0.8,0.3c1.3,0.7,1.4,1.2,0.6,2.4c-0.2,0.4-0.5,0.8-0.6,1.2c-0.8,3.8-1.5,7.7-2.2,11.5c0,0.1,0,0.2,0,0.5
			c0.4,0,0.8,0.1,1.3,0.1c1.8,0.2,3.5,0.7,4.9,1.9c1.8,1.5,1.9,3.4,0.3,5.1c-0.2,0.2-0.4,0.5-0.6,0.6c-1.1,0.6-1.2,1.5-1.2,2.6
			c0,1.5,0.5,2.8,1.4,4c0.5,0.7,1.2,1.2,2,1.6c1.9,0.7,3.7,1.5,5.6,2.2c0.8,0.3,1.6,0.5,2.5,0.7c1.4,0.3,2.8,0.6,4.2,1
			c4.4,1.1,8,3.6,11.1,6.9c4.4,4.7,7.4,10.2,9.1,16.4c1.4,4.9,1.7,9.8,1.3,14.9c-0.3,4.3-0.8,8.6-2,12.7c-1.4,4.9-3.7,9.3-6.5,13.4
			c-3.8,5.6-8.4,10.6-13.2,15.4c-2.1,2.2-3.7,4.8-5,7.6c-0.8,1.7-1.1,3.5-0.8,5.5c1.5,0.3,2.8,0.8,4,1.7c0.2,0.1,0.4,0.3,0.6,0.4
			c1.6,1.2,2.5,2.5,0.7,5c-1.5,2.1-3.6,3.5-5.9,4.3c-3.3,1.2-6.6,2.4-10,3c-2,0.3-4,0.9-6.1,1.3c-4.9,1-9.8,1.3-14.7,1.3
			c-4.8,0-9.5-0.8-14.1-1.7c-3.8-0.8-7.1-2.7-10.1-5c-1.5-1.2-2.5-2.8-2.8-4.8c-0.5-3.1,1.7-6.3,5-7.4c0.6-0.2,1.2-0.4,2-0.6
			c-0.8-2.4-1.2-4.7-2.5-6.7c-2.4-3.5-5-6.9-8-9.9c-2.8-2.8-5.4-5.8-8-8.8c-2-2.3-3.4-5-4.7-7.8c-3.8-8.5-5-17.3-3.4-26.4
			c0.1-0.8,0.3-1.7,0.6-2.5c1.6-4.7,3.4-9.3,6.2-13.4c3.6-5.3,8-9.7,13.9-12.6c3.5-1.7,7.1-2.9,10.8-4c1.4-0.4,2.8-0.9,4.2-1.4
			c1.3-0.4,2.4-1.1,3.2-2.2c0.5-0.6,1.1-1.2,1.6-1.8C136.4,56,136.8,55.1,136.9,54.1z M137.1,70.5L137.1,70.5
			c0.6-0.2,1.1-0.4,1.7-0.7c0.4-0.2,0.8-0.3,1.3-0.5c-0.1-0.7-0.2-1.3-0.3-2c-0.5,0.1-0.9,0.2-1.6,0.3c0.7-0.5,1.2-0.8,1.6-1.1
			c0-1.9,0-3.6,0-5.4c-0.1-1.8,0.5-3.6,0.3-5.4c-1.6,0-2.6,0.6-3.4,1.9c-0.4,0.7-1,1.3-1.5,1.9c-1,1.4-2.3,2.2-3.8,2.8
			c-1.2,0.4-2.5,0.9-3.8,1.3c-3.5,1.1-7,2.3-10.4,4c-5,2.4-9.1,5.9-12.3,10.3c-3.6,4.9-5.9,10.4-7.1,16.3
			c-1.7,8.4-0.3,16.6,2.9,24.5c1.9,4.8,5,8.9,8.2,12.9c3.1,3.8,6.2,7.7,9.3,11.5c1,1.3,2,2.6,3,4c0.6,0.8,1.2,1.7,1.6,2.6
			c1.6,3.3,1.6,6.8,0.8,10.3c-0.1,0.3-0.1,0.6-0.3,0.8c-0.3,0.2-0.7,0.4-1,0.4c-0.2,0-0.5-0.4-0.7-0.7c-0.2-0.3-0.2-0.7-0.2-1.1
			c-1.6,0.1-1.9,0.5-1.1,1.7c0.4,0.6,0.8,1.1,1.4,1.5c1.7,1.2,3.4,2.4,5.4,2.9c3.1,0.8,6.2,1.6,9.3,2.3c4.9,1.2,9.9,1.5,14.9,1
			c6.8-0.6,13.5-2,20-4.1c1.3-0.4,2.5-1.1,3.6-2c0.6-0.5,1.2-1.1,1.3-1.9c-1.5-1.1-2.6-0.4-3.6,0.6c-1.1-1.1-1.3-1.3-1.5-2.4
			c-0.4-2.7-0.3-5.3,0.7-7.8c1.2-2.9,2.7-5.7,4.8-8.1c2.1-2.4,4.2-4.7,6.4-7c3.5-3.4,6.2-7.4,8.8-11.5c2.3-3.7,3.9-7.6,4.8-11.9
			c0.7-3.5,1.2-7,1.3-10.6c0.1-2.9,0.1-5.9-0.3-8.8c-1-8-4-15-9.5-21c-2.7-3-5.8-5.3-9.8-6.4c-1.4-0.4-2.8-0.7-4.2-1
			c-0.9-0.2-1.9-0.5-2.8-0.8c-1.6-0.6-3.1-1.3-4.7-1.7c-3-0.8-4.4-2.9-5-5.7c-0.1-0.5-0.2-1-0.3-1.5c-1-0.4-1.9-0.6-2.9-0.5
			c-0.4,3.1-0.2,6.1-0.2,9.1c0.4,0.2,0.7,0.4,1.1,0.6c-0.4,0.2-0.7,0.3-1,0.5c0,0.6,0,1.2,0,1.8c0.7,0.2,1.3,0.4,2.3,0.7
			c-1,0-1.6,0-2.3,0c0,0.7,0.1,1.4,0,2c-0.2,1.4-0.4,2.7-0.6,4.1c-0.2,1.5-0.3,1.7-1.9,1.9c-1.8,0.2-3.6,0.4-5.5,0.5
			c-2.4,0.2-4.7-0.1-7-0.6c-1.9-0.5-2.8-1.6-3.1-3.4c-0.1-0.6-0.2-1.2-0.4-1.9C139,70.3,138.1,70.4,137.1,70.5z M152.3,45.4
			c1.8,1.3,3.2,0,4.7-0.3c1-4.3,2-8.5,2.8-13c-6.5,0.9-12.9,0.4-19.5-0.1c0.9,4.2,1.8,8.1,2.3,12.2c-0.7-2-1.2-4-1.8-6.1
			c-0.6-2-0.6-4.2-1.4-6.2c-0.7-0.2-1.4-0.3-2.2-0.5c0,0.6-0.1,1.1,0,1.5c0.8,3.6,1.6,7.1,2.5,10.7c0.1,0.2,0.4,0.4,0.6,0.6
			c-0.3-2.5-1.1-4.9-1-7.4c0.9,1.2,1.1,2.7,1.5,4.1c0.4,1.4,0.7,2.9,1,4.4c2.9,1,6,1.5,9.1,1.2C151.6,46.4,151.9,46,152.3,45.4z
			 M139.6,45.1c-1.6,0.1-2.8,0.8-3.9,1.7c-1.1,1-1.2,2.4-0.2,3.5c0.8,0.9,1.7,1.5,2.8,1.9c2.8,1.1,5.7,1.6,8.7,1.7
			c2.6,0.1,5.3-0.1,7.9-0.3c2.3-0.2,4.5-0.8,6.6-1.7c0.9-0.4,1.7-0.9,2.4-1.6c0.9-0.9,0.8-1.8-0.2-2.6c-2-1.7-4.3-1.7-6.5-0.9
			c-3.8,1.3-7.7,1.9-11.6,1.2C143.3,47.4,141.2,46.9,139.6,45.1z M178.1,161.7c-0.9,1-1.5,1.8-2.3,2.6c-1.3,1.2-2.9,1.9-4.5,2.4
			c-6.1,1.8-12.3,3.1-18.7,3.7c-2.9,0.3-5.8,0.5-8.8,0.3c-6-0.3-11.9-1.6-17.7-3.4c-1.9-0.6-3.6-1.5-5.2-2.7
			c-2.1-1.7-3.8-3.6-2.7-6.7c-2.1,1.9-2.4,3.8-1.1,5.9c0.5,0.9,1.3,1.6,2,2.3c0.6,0.6,1.4,1,2.1,1.5c1.7,1.3,3.6,2.3,5.7,2.8
			c2.3,0.6,4.6,1.1,6.9,1.6c1.2,0.2,2.5,0.4,3.7,0.5c3.2,0.2,6.4,0.3,9.6,0.3c3.3,0.1,6.6-0.2,9.9-1.1c2-0.6,4-1.1,6-1.4
			c2.9-0.4,5.6-1.2,8.3-2.1c2.3-0.8,4.3-2.1,5.9-4C177.8,163.4,178.3,162.8,178.1,161.7z M156.4,64c0.3-3,0.6-5.7,0.9-8.4
			c0-0.1,0-0.2,0-0.3c0,0-0.1-0.1-0.1-0.1c0,0-0.1-0.1-0.1-0.1c-2.4,0.2-4.9,0.5-7.3,0.7c-2.4,0.2-4.9-0.2-7.2,0
			c-0.2,0.2-0.2,0.2-0.2,0.3c0.1,2.6,0.3,5.3,0.4,7.9c0,0.1,0.4,0.3,0.8,0.5c0-1.4,0-2.5,0.1-3.6c0.1-1.1-0.3-2.3,0.4-3.4
			c0.8,1.1,0.5,2.2,0.6,3.2c0.1,1.1-0.1,2.2,0.4,3.3c1-1,0.2-2.5,0.9-3.9c0.3,1.4,0.2,2.7,0.7,3.8c1.7-0.1,3.3-0.2,4.8-0.2
			C153.1,63.7,154.7,63.9,156.4,64z M156.1,30.1c0,0.2,0,0.3,0,0.5c-2.1,0.1-4.3,0.3-6.4,0.4c0.2,0.3,0.4,0.4,0.6,0.4
			c2.7-0.1,5.5-0.3,8.2-0.5c0.4,0,0.9-0.2,1.3-0.3c0.4-0.2,0.8-0.5,0.8-1.1c-0.3-0.2-0.6-0.4-1-0.5c-2.8-1-5.7-1.6-8.7-1.9
			c-2.5-0.3-4.9-0.2-7.4,0c-2.2,0.2-4.3,0.7-6.3,1.7c-0.4,0.2-0.9,0.4-0.8,1.1c0.8,0.7,1.8,0.6,2.9,0.6c-0.5-0.3-0.9-0.5-1.4-0.8
			c1,0,1.8,0.3,2.7,0.4c3.5,0.4,7.1,0.6,10.6,0.1c1.3-0.2,2.6-0.2,3.9-0.3C155.4,30,155.8,30.1,156.1,30.1z M148.6,68.6
			c1.4,0,2.6,0,3.9,0c1.2,0,2.5,0.2,3.8,0.3c-0.1-0.7-0.1-1.2-0.1-1.8c-1.6-0.1-3.2-0.1-4.7-0.2c1.6-0.3,3.2-0.1,4.8-0.4
			c0-0.6,0-1.2,0-1.8c-0.4-0.1-0.8-0.3-1.2-0.3c-1.5-0.1-3-0.2-4.5-0.2c-0.5,0-1,0-1.5,0c-0.8,0.1-1.1,0.5-1,1.3
			C148.2,66.4,148.4,67.4,148.6,68.6z M156,71.4c-2.5,1-4.9,0.9-7.3,0.9c0,0-0.1,0.1-0.1,0.1c-0.1,0.5-0.3,0.9-0.5,1.7
			c-0.2-0.9-0.4-1.5-0.6-2.3c-0.3,0.7-0.6,1.1-0.8,1.5c-0.7-0.2-0.7-0.7-0.9-1.1c-0.1-0.3-0.4-0.4-0.6-0.7c-0.1,0-0.2,0.1-0.3,0.1
			c0,0.7,0.1,1.4,0.1,2.1c3.6,1.1,7.1,1,10.7,0.3C155.9,73.2,156,72.4,156,71.4z M143.2,68.9c0.8-0.1,1.6-0.2,2.4-0.3
			c0-0.7,0.1-1.2,0.1-1.7c0-0.6,0-1.2-0.1-1.7c0-0.2-0.4-0.4-0.6-0.5c-0.6,0.7,0,1.7-0.9,2.4c-0.3-0.8-0.5-1.4-0.8-2.1
			C142.7,65.6,142.7,65.9,143.2,68.9z M156,69.5c-2.6-0.5-5-0.7-7.3-0.4c-0.2,0.7-0.2,1.1,0.4,1.2C151.3,70.8,153.6,70.6,156,69.5z
			 M146.6,64.7c0.1,1.1,0.1,2.1,0.2,3.2c0,0.5,0.3,0.7,1,0.4c0-1,0.1-2.1,0-3.1C147.8,64.5,147.6,64.4,146.6,64.7z M143.8,73
			c0.6-1.5,0.5-1.7-0.6-1.8C143.3,71.9,143.1,72.6,143.8,73z"/>
		<path class="st2" d="M176.2,96.5c1.2,1.5,1.4,3,1.4,4.5c-0.1,1.5-0.7,2.8-2.1,3.6c-0.7,0.4-1.5,0.9-2.4,1c-2.6,0.4-5.2,0.8-7.8,1
			c-1.4,0.2-2.7,0.2-4.1,0.2c-1.3,0-2.6-0.1-4.2-0.2c0.3,0.3,0.5,0.6,0.7,0.7c1.6,0.5,2.8,1.8,4,2.9c0.7,0.6,1.4,1.4,2.1,2
			c1.1,1,1.7,2.3,1.8,3.8c0.1,1.3,0.1,2.6-0.3,3.9c-0.1,0.4,0,0.9,0,1.3c0,0.2,0.2,0.4,0.2,0.6c0.2,0.5,0.1,1-0.4,1.4
			c-0.5,0.4-1,0.4-1.4,0c-0.6-0.5-1.1-1.1-1.8-1.8c-4.6-0.2-7.4-3.2-9.6-6.9c-0.3-0.6-0.6-1.2-1.2-1.7c-0.1,1-0.2,2-0.3,3
			c-0.1,0.5-0.1,1-0.2,1.5c-0.2,0.6-0.7,0.9-1.1,0.8c-0.5-0.1-0.7-0.5-0.7-1c0-0.8,0-1.7-0.3-2.6c-0.1,0.2-0.3,0.4-0.4,0.6
			c-1.4,2.5-3.3,4.6-5.4,6.4c-0.1,0.1-0.2,0.2-0.3,0.2c-1.4,0.8-3,1.3-4.1,2.6c-0.5,0.6-1.4,0.6-2.1,0.1c-0.7-0.5-0.9-1.2-0.6-2
			c0.1-0.3,0.2-0.5,0.3-1c-0.4-0.4-0.8-0.8-1.1-1.2c-2.1-2.3-2.1-5.2,0.1-7.4c1.4-1.3,2.9-2.4,4.7-3.1c1-0.4,2-0.9,2.9-1.5
			c-0.4,0.1-0.7,0.1-1.1,0.2c-2.4,0.6-4.8,0.7-7.2,0.5c-2.2-0.2-4.2-1-6-2.4c-2.3-1.7-3.6-6.3-1.2-9.1c-0.4-0.3-0.9-0.7-1.3-1
			c-3.6-2.6-4.5-6.6-2.2-10.4c0.9-1.6,1.9-2,3.7-1.5c2.7,0.8,5.1,2,7.4,3.5c2.3,1.6,4.6,3.3,6.9,4.9c2,1.4,3.7,3,5.2,5
			c0.3,0.5,0.7,0.9,1.2,1.4c0.5-0.4,0.9-0.7,1.4-1.2c-1.2-4.6-4-8.1-7.3-11.9c1,0.3,1.5,0.7,1.9,1.1c2.7,2.7,5.1,5.6,6,9.4
			c0.2,0.7,0.2,0.7,1.3,0.8c0.2-1.1,0.5-2.3,0.7-3.5c0.5-2.3,1.4-4.5,3.3-6.1c0.2-0.2,0.5-0.3,1.2-0.7c-0.3,0.8-0.4,1.2-0.7,1.6
			c-1.6,2.4-2.4,5.2-3,8c-0.2,0.9-0.1,1.7,0.9,2.2c0.3-0.4,0.7-0.8,1.1-1.3c3.6-4.8,8.5-7.8,14-10c3-1.2,6.1-2,9.4-1.9
			c2.7,0.1,3.6,1.1,3.3,3.8c-0.2,2-1.1,3.6-2.8,4.8C177.8,95.3,177.1,95.9,176.2,96.5z"/>
		<path class="st1" d="M168.4,159.8c-0.1-0.4-0.3-0.8-0.3-1.3c-0.2-4.3,0.6-8.4,2.8-12c0.9-1.4,1.9-2.8,2.9-4
			c3.1-3.6,6.3-7.1,9.3-10.8c3.5-4.4,6.1-9.3,8.2-14.4c0.3-0.8,0.4-1.6,0.7-2.8c0.2,0.5,0.3,0.7,0.3,0.9c0.1,1.9-0.5,3.6-1.3,5.3
			c-1.1,2.2-2.3,4.4-3.4,6.6c-1.8,3.5-4.5,6.3-7,9.3c-2.6,3.2-5.1,6.4-7.6,9.5c-1.5,1.9-2.4,4-2.9,6.4c-0.5,2.2-0.9,4.5-1.4,6.7
			c0,0.2-0.1,0.4-0.2,0.6C168.6,159.8,168.5,159.8,168.4,159.8z"/>
		<path class="st1" d="M163.3,148.9c-0.1,0.9-0.7,1.1-1.3,1.4c-1.4,0.7-2.9,1.1-4.5,1.2c-5.1,0.3-10.2,0.3-15.2-0.7
			c-2.6-0.5-5.2-1.4-7.7-2.3c-1.9-0.6-3.4-1.9-4.7-3.4c2.4,1.2,4.6,2.7,7.2,3.3c2.6,0.6,5.2,1.4,7.9,1.5c-1-0.3-2-0.5-3-0.9
			c-1-0.3-2.2-0.4-2.8-1.6c2.2,0.4,4.2,1,6.3,1.2c2.1,0.2,4.2,0.2,6.4,0c2.1-0.1,4.1-0.4,6.1-0.8c2-0.5,4-1.2,6.2-1.9
			c-0.2,1-0.8,1.2-1.3,1.5c-2.6,1.5-5.5,2.2-8.5,2.4c-2.3,0.1-4.6,0.3-7.1,0.4c1.4,0.4,2.7,0.5,4,0.5c1.4,0,2.8,0,4.1-0.1
			c1.4-0.1,2.7-0.2,4.1-0.5C160.7,149.8,162,149.3,163.3,148.9z"/>
		<path class="st1" d="M193.3,105.8c0.1-1.6,0.2-3.2,0.4-4.8c0.6-5.6,0-11.1-2-16.4c-1.4-3.8-3.6-7.1-6.2-10.1
			c-1.3-1.6-2.9-2.9-4.8-3.9c-0.2-0.1-0.3-0.2-0.8-0.6c0.6-0.1,0.9-0.2,1.1-0.1c0.7,0.3,1.6,0.6,2.1,1.1c1.4,1.3,2.9,2.6,4.1,4.1
			c2.3,2.8,4.2,5.9,5.4,9.3c1.6,4.4,2.4,8.9,2.1,13.5c-0.2,2.4-0.8,4.9-1.2,7.3c0,0.2-0.2,0.4-0.2,0.6
			C193.5,105.8,193.4,105.8,193.3,105.8z"/>
		<path class="st1" d="M103.4,117.2c-5.3-6.5-6.1-19.1-1.7-26.7c0,0.5,0.1,0.7,0,0.9c-0.1,0.9-0.2,1.8-0.4,2.7
			c-1.4,6.8-0.8,13.5,1.3,20.2C102.9,115.2,103.1,116.2,103.4,117.2z"/>
		<path class="st1" d="M106.8,124.5c0.2,0.2,0.4,0.4,0.6,0.7c3.8,4.8,7.6,9.6,11.4,14.5c2.5,3.2,4.5,6.8,6,10.6
			c0.9,2.2,1.5,4.5,1.3,6.9c0,0.5-0.2,1.1-0.3,1.9c-0.6-0.8-0.7-1.5-0.7-2.1c-0.4-5.2-2.2-9.9-5.2-14.2c-2.4-3.4-5.1-6.6-7.7-9.9
			c-1.7-2.3-3.3-4.6-5-7c-0.2-0.3-0.4-0.8-0.6-1.2C106.6,124.6,106.7,124.6,106.8,124.5z"/>
		<path class="st1" d="M186.9,78.3c-0.3-0.3-0.6-0.5-0.8-0.8c-1.5-1.8-3.3-3.1-5.4-4.2c-3.7-1.9-7.6-3.2-11.7-3.9
			c-1.8-0.3-3.5-0.9-5.3-1.4c-0.4-0.1-0.7-0.4-1.3-0.8c0.4-0.1,0.6-0.2,0.7-0.1c3,1.2,6.2,1.4,9.4,2c3.8,0.7,7.3,2.2,10.6,4.3
			c1.6,1,2.8,2.4,3.7,4c0.1,0.2,0.2,0.5,0.3,0.7C187.1,78.1,187,78.2,186.9,78.3z"/>
		<path class="st1" d="M103.8,83.5c-0.1-0.4-0.1-0.4-0.1-0.5c1.7-4.3,4-8.1,8-10.6c1.8-1.1,3.6-2.2,5.5-3.3c0.4-0.2,0.9-0.6,1.2-0.1
			c0.4,0.7-0.4,0.8-0.8,1.1c-1.8,1.2-3.7,2.3-5.5,3.5c-1.7,1.1-3,2.4-4.1,4.1c-1.2,1.7-2.4,3.4-3.5,5.1
			C104.3,82.9,104.1,83.1,103.8,83.5z"/>
		<path class="st1" d="M109.9,80.9c0.3-1.5,1.1-2.8,2.1-3.9c2-2.2,4.2-4.1,6.8-5.5c0.2-0.1,0.4-0.2,0.6-0.3c2.4-1,4.9-1.9,7.4-2.9
			c2.9-1.1,5.7-2.1,8.2-3.9c0.2-0.2,0.5-0.3,0.8-0.2c-0.3,0.3-0.5,0.5-0.8,0.7c-2.5,1.9-5.3,3.1-8.2,4.2c-2.7,1-5.5,1.9-8.1,3.3
			c-3.1,1.7-5.6,4.1-7.7,7C110.6,80,110.2,80.5,109.9,80.9z"/>
		<path class="st1" d="M131.7,164.2c0.4,0.1,0.9,0.1,1.3,0.2c4.2,0.9,8.4,1.8,12.7,2.1c1.3,0.1,2.5,0.2,3.8,0.1
			c3.2-0.3,6.4-0.2,9.6-0.9c0.1,0,0.2,0,0.3,0.1C153.7,168.3,139.7,167.9,131.7,164.2z"/>
		<path class="st1" d="M167.3,160.8c-1.1-1.7-1.3-3.7-1.2-5.6c0.4-4.5,1.7-8.8,4.1-12.6c0.3-0.4,0.6-0.8,0.9-1.2
			c0.2-0.3,0.5-0.6,0.7-0.9c0.1,0.1,0.2,0.1,0.3,0.2c-0.1,0.3-0.2,0.7-0.4,1c-2.4,3.7-3.8,7.7-4.5,12c-0.4,2.2-0.5,4.4,0.1,6.6
			C167.3,160.4,167.3,160.6,167.3,160.8z"/>
		<path class="st1" d="M107,85.8c-0.1,0.2-0.1,0.4-0.2,0.6c-2.1,4.3-2.8,8.9-2.6,13.7c0.2,3.9,1,7.7,2.1,11.4
			c0.3,0.9,0.5,1.7,0.5,2.6c-0.3-0.8-0.7-1.7-1-2.5c-2-5.9-2.6-12-1.9-18.1c0.3-2.6,1.3-5,2.4-7.3c0.1-0.2,0.3-0.4,0.5-0.6
			C106.8,85.6,106.9,85.7,107,85.8z"/>
		<path class="st1" d="M106.4,102.8c0.5,2.1,0.9,4.3,1.4,6.3c0.6,2.1,1.2,4.2,2,6.2c0.8,2,1.7,4,2.8,5.9c1,1.9,2.3,3.6,3.4,5.4
			C111.3,122.8,106,109.7,106.4,102.8z"/>
		<path class="st1" d="M122.5,68.1c0.4-0.8,1.1-0.8,1.7-1c2.1-0.7,4.3-1.3,6.4-2.1c2.1-0.8,4-2.1,5.1-4.1c0.4-0.7,0.9-1.5,1.4-2.2
			c0.2-0.2,0.6-0.2,0.9-0.4c0.1,0.3,0.3,0.7,0.2,0.9c-0.1,0.4-0.4,0.8-0.6,1.2c-2,2.7-4.6,4.5-7.8,5.6c-2,0.7-4,1.5-6.1,1.8
			C123.3,68,122.9,68,122.5,68.1z"/>
		<path class="st1" d="M127.9,160.1c-0.9-2.5-0.6-5.3-1.4-7.8c-0.8-2.6-1.6-5.1-2.4-7.7C126.7,146.8,128.9,155.4,127.9,160.1z"/>
		<path class="st1" d="M160.4,61.1c0.6,0.6,1.1,1.1,1.6,1.6c2.2,2.2,4.7,3.8,7.9,4.2c1.5,0.2,3,0.5,4.6,0.8c0.4,0.1,0.9,0.2,1.4,0.4
			c-0.9,0.4-1.3,0.5-2.1,0.4c-1.7-0.3-3.4-0.5-5.1-0.9c-3.4-0.7-6-2.7-8-5.5c-0.1-0.1-0.2-0.3-0.2-0.5
			C160.3,61.4,160.4,61.3,160.4,61.1z"/>
		<path class="st1" d="M109.8,122.9c1.2,1.8,2.3,3.6,3.5,5.4c1.2,1.7,2.4,3.5,3.8,5.1c1.4,1.6,2.9,3.1,4.6,4.9
			C118,136.6,111.2,127.7,109.8,122.9z"/>
		<path class="st1" d="M132.3,149.3c3.1,0.8,6,1.7,9,2.3c3,0.6,6.1,0.9,9.2,1.3C146.6,154,135.1,151.7,132.3,149.3z"/>
		<path class="st1" d="M189,85.9c-1.6-2.8-3.4-5.4-5.8-7.4c-2.4-2-4.9-3.8-7.8-5.1c1.7,0.1,3.1,0.9,4.5,1.8c3.7,2.3,6.8,5.2,8.9,9.1
			C189.1,84.9,189.1,84.9,189,85.9z"/>
		<path class="st1" d="M192.1,106.6c0-1.8,0.1-3.6,0.1-5.4c0-1.8-0.3-3.7-0.2-5.5c0-1.8-0.8-3.5-0.7-5.5
			C193,92.3,193.5,101.5,192.1,106.6z"/>
		<path class="st1" d="M110.9,82.4c0.3-0.6,0.6-1.2,1-1.7c1.8-2.8,4.1-5.2,6.7-7.3c0.8-0.6,1.8-1.1,2.7-1.5c0.5-0.2,1-0.3,1.6-0.4
			C117.2,75,116.9,75,110.9,82.4z"/>
		<path class="st1" d="M128.1,148.2c1.8,4,2.1,8.2,1.7,12.4c-0.9-2-0.4-4.1-0.8-6.2C128.6,152.4,128.4,150.3,128.1,148.2z"/>
		<path class="st1" d="M183.9,123.7c-1.9,3.6-4.2,6.9-7.1,9.8c-0.1-0.2-0.2-0.2-0.2-0.2c0,0,0-0.1,0-0.2c2.3-3.2,4.7-6.4,7-9.5
			C183.6,123.6,183.7,123.6,183.9,123.7z"/>
		<path class="st1" d="M151,144.6c2.4-0.6,4.5-1,6.5-1.6c1.9-0.6,3.8-1.3,5.8-1.8c-1,0.9-2.1,1.3-3.3,1.8c-2.4,0.9-4.9,1.5-7.5,1.8
			C152.2,144.9,151.8,144.7,151,144.6z"/>
		<path class="st1" d="M110.3,96.5c-0.3-4.3,0.9-8.2,3.1-11.8C111.8,88.5,110.6,92.4,110.3,96.5z"/>
		<path class="st1" d="M137.1,70.5c-0.5,0.2-0.9,0.5-1.4,0.6c-2.1,0.6-4.1,1.6-6,2.6c-1.9,1.1-3.8,2.1-6,3.4
			c0.3-0.4,0.4-0.6,0.5-0.7c3.5-2.1,7-4.4,11-5.6C135.9,70.6,136.5,70.6,137.1,70.5L137.1,70.5z"/>
		<path class="st1" d="M141.1,144.3c-4.1-0.4-7.5-2.2-10.7-4.7C133.8,141.5,137.3,143.2,141.1,144.3z"/>
		<path class="st1" d="M163.4,161.1c-0.6-2.6-0.4-5.2-0.2-7.8c0.1,0,0.2,0,0.4,0c0.1,2.6,0.1,5.2,0.2,7.8
			C163.6,161.1,163.5,161.1,163.4,161.1z"/>
		<path class="st1" d="M135.7,144.8c-2,0-6-2.1-8.7-4.7C130.2,141.8,133,143.3,135.7,144.8z"/>
		<path class="st1" d="M133.5,162.2c-0.1-2.1-0.2-4.1-0.3-6.5c0.9,1.5,1.1,4.4,0.6,6.5C133.7,162.3,133.6,162.3,133.5,162.2z"/>
		<path class="st1" d="M143.6,154c-2.2,0.4-6.3-0.2-8.1-1.2C138.3,153.2,140.9,153.6,143.6,154z"/>
		<path class="st1" d="M172.2,137.4c-1.1,1.6-2.7,2.7-4.5,3.8c0.4-1,0.4-1,2-2.3c0.8-0.6,1.5-1.2,2.3-1.8
			C172,137.2,172.1,137.3,172.2,137.4z"/>
		<path class="st1" d="M165.7,164.6c0.4-0.2,0.6-0.3,0.9-0.4c1.8-0.6,3.5-1.1,5.6-1.8C170.5,163.8,167.8,164.6,165.7,164.6z"/>
		<path class="st1" d="M119.1,132.7c1.3,1.1,2.6,2.2,3.7,3.6c-0.2,0.2-0.3,0.3-0.4,0.3C121.1,135.9,119.5,134.1,119.1,132.7z"/>
		<path class="st1" d="M159.8,156.1c0.1,0.7,0.2,1.3,0.3,2c0.1,0.9,0.2,1.8,0.1,2.8c-1-1.5-0.9-3.1-0.9-4.7
			C159.5,156.1,159.7,156.1,159.8,156.1z"/>
		<path class="st1" d="M161.3,155.1c0.3,1.8,0.9,3.6,0.6,5.5C161.3,158.8,161.3,156.9,161.3,155.1z"/>
		<path class="st1" d="M194.4,116.2c0.4-2,0.8-3.9,1.3-6C196,111.5,195.4,114.5,194.4,116.2z"/>
		<path class="st1" d="M131.8,158.5c-0.7-1.9-0.5-3.7-0.4-5.6C131.8,154.8,131.9,156.6,131.8,158.5z"/>
		<path class="st1" d="M140.5,155.7c-1.5,0.2-3,0-4.3-0.7C137.7,154.8,139.1,155.3,140.5,155.7z"/>
		<path class="st1" d="M186.5,122.7c0.8-1.4,1.5-2.8,2.3-4.3C188.6,119.9,187.8,121.4,186.5,122.7z"/>
		<path class="st1" d="M130.5,69.4c-0.8,0.4-1.6,0.8-2.5,1.2C128.7,69.9,129.5,69.5,130.5,69.4z"/>
		<path class="st1" d="M108.2,92.8c-0.2,1-0.3,2.1-0.5,3.1C107.2,94.8,107.7,93.7,108.2,92.8z"/>
		<path class="st1" d="M158.4,32.8c-0.3,0.6-0.6,1-0.7,1.4c-0.1,0.4-0.1,0.9-0.2,1.5c-0.6-0.2-1-0.3-1.6-0.5
			c-0.1,0.1-0.2,0.2-0.2,0.4c-0.1,0.5-0.2,1-0.3,1.5c-0.1,0.4-0.2,0.8-0.4,1.2c0-1-1.1-1.8-0.1-2.9c-1.8-0.4-3.4-0.1-5-0.4
			c1.7-0.2,3.4-0.4,5.3-0.6c-0.3-0.3-0.4-0.6-0.6-0.7c-0.4-0.1-0.8-0.1-1.2-0.1c-2.9,0.5-5.7-0.3-8.6-0.3c-0.4,0-0.7-0.2-1.1-0.4
			c2.5-0.4,4.9,0.2,7.4,0.2C153.5,33.2,155.9,33,158.4,32.8z"/>
		<path class="st1" d="M153.7,42c0.5,0.2,1,0.3,1.5,0.5c0.2-0.6,0.3-1,0.4-1.5c0.4,0,0.7,0.1,1.1,0.1c0.2-1,0.4-1.9,0.6-3
			c0.1,0.1,0.3,0.2,0.3,0.3c-0.2,1.6-0.3,3.3-0.5,4.9c0,0.3-0.2,0.5-0.6,0.7c0-0.7,0-1.4,0-2.3c-0.9,0.6-0.7,1.3-0.8,2
			c-0.1,1-0.7,1.4-2.1,1.5c0.2-0.7,1.4-0.6,1.3-1.5c-0.5-0.4-0.9-0.9-1.4-1.4C153.5,42.2,153.6,42.1,153.7,42z"/>
		<path class="st1" d="M142.2,34.3c1.1,1.7,1.2,3.6,1.4,5.8c-1-1-0.7-2.1-1-3C142.4,36.2,142.4,35.3,142.2,34.3z"/>
		<path class="st1" d="M152.6,38.7c0.3,1.2-1.1,1.1-1.2,2c-0.1-0.1-0.3-0.1-0.4-0.2c0-0.3-0.2-0.7-0.1-0.8
			C151.4,39.4,152,39.1,152.6,38.7L152.6,38.7z"/>
		<path class="st1" d="M138.9,35.1c-0.7-0.8-0.9-1.6-0.7-2.7C138.9,33.2,139.4,33.9,138.9,35.1z"/>
		<path class="st1" d="M150.4,40.5c-0.4,0.3-0.7,0.5-1,0.5c-0.1,0-0.4-0.4-0.4-0.6c0-0.2,0.4-0.4,0.6-0.5
			C149.8,40,150.1,40.3,150.4,40.5z"/>
		<path class="st1" d="M152.6,38.8c-0.2-0.8,0.2-1,1.1-1c-0.1,0.4,0,0.8-0.2,0.9C153.3,38.8,152.9,38.7,152.6,38.8L152.6,38.8z"/>
		<path class="st1" d="M156.7,47.4c1.6-0.5,3.2-0.5,4.8,0.1c1.2,0.5,1.3,1.4,0.5,2.3c-0.3-1.2-0.4-1.4-1.5-1.6
			c-0.8-0.2-1.6-0.2-2.4-0.2c-0.5,0-1-0.1-1.4-0.1C156.7,47.7,156.7,47.6,156.7,47.4z"/>
		<path class="st1" d="M136.6,50c-0.9-0.7-0.7-1.4-0.6-2c0.2-0.8,0.8-1.3,1.8-1.5C136.5,48.3,136.5,48.3,136.6,50z"/>
		<path class="st1" d="M139.6,51.3c1.4,0.3,2.8,0.7,4.3,1C142.4,52.7,141,52.4,139.6,51.3z"/>
		<path class="st1" d="M155.9,51.9c-1.1,0.1-2.3,0.2-3.4,0.4c1.1-0.7,2.2-0.7,3.4-0.7C155.9,51.6,155.9,51.7,155.9,51.9z"/>
		<path class="st1" d="M124.1,167.7c-2.2-0.4-4.1-1.2-5.3-3.2C120.5,165.6,122.3,166.6,124.1,167.7z"/>
		<path class="st1" d="M155.9,56.2c0.4,2.2,0.1,4.4-0.3,6.6C155.2,60.6,155.3,58.3,155.9,56.2z"/>
	</g>
</g>
<g>
	<path class="st1" d="M165.6,418.3c2.2-0.7,4.3-0.8,6.3-0.1c4.5,1.4,7.4,4.6,7.7,9.4c0.2,3.3-0.3,6.3-2.5,8.9
		c-0.7,0.9-1.6,1.6-2.6,2.2c5.7,6.6,3.8,17.4-1.7,23.3c0.9,0.1,1.7,0.2,2.5,0.2c2.1,0,2.6,1.1,2.5,3c-0.1,1.8-0.9,3.5-1.9,5.1
		c4.4,1.9,8,4.7,11.1,8.3c5.7-1.9,10.6,1,12,7c0.8,3.5,0.4,6.7-1.9,9.6c-0.8,1-1.7,1.7-2.8,2.2c-0.4,0.2-0.6,0.4-0.6,0.9
		c0.1,11.1-5.7,18.4-15,23.5c-0.2,0.1-0.5,0.3-0.8,0.4c0.6,1.5,1.3,2.9,1.6,4.4c0.2,0.7,0.2,1.4,0.1,2.1c-0.3,2.2-2.4,3.1-4.3,1.9
		c-2.1-1.4-3.4-3.6-4.7-5.7c-2.8,0.6-5.6,1.2-8.5,1.3c-2.3,0.1-4.6,0.4-6.9,0.2c-2.3-0.2-4.6-0.1-6.8,0c-2.8,0.1-5.6,0.1-8.4-0.1
		c-2.9-0.3-5.8-0.7-8.7-1.4c-1,1.6-2,3.3-3.4,4.6c-0.4,0.4-0.8,0.8-1.3,1.1c-2,1.3-4.2,0.1-4.3-2.3c-0.1-2,0.8-3.6,1.5-5.3
		c0.1-0.2,0.2-0.5,0.3-0.6c-9.8-5.3-16.1-12.9-15.8-24.6c-6.2-2.3-7.4-10.9-3.2-16.3c1.7-2.2,3.8-3.5,6.6-3.5c1.1,0,2.2,0.3,3.2,0.8
		c3.1-3.6,6.7-6.4,11.1-8.3c-0.4-0.7-0.8-1.4-1.1-2.1c-0.6-1.3-1-2.7-0.7-4.1c0.2-1.4,0.8-1.8,2.2-1.9c1.5-0.1,3-0.2,4.7-0.2
		c-1.8-1.2-3.2-2.5-4.4-4.1c-2.2-2.9-3.1-6.3-3.5-9.9c-0.3-3.5,0.2-6.8,1.6-9.9c1.9-4.3,5-7.3,9.7-8.3c0.8-0.2,1.6-0.2,2.6-0.3
		c-2-2.4-2.5-5.3-2.3-8.2c0.4-7.6,3.3-14,9.3-18.7c3.4-2.7,7.4-3.5,11.6-3c3.8,0.4,6.9,2,9.2,5c2.8,3.7,3.4,7.7,1.8,12.1
		C166.1,417.1,165.9,417.6,165.6,418.3z M135.3,450c-0.1,0.5-0.3,1-0.3,1.6c0.1,3.7,1.4,6.9,4,9.6c0.4,0.4,0.9,0.6,1.5,0.6
		c4.1-0.1,8.2-0.1,12.3-0.2c0.3,0,0.6-0.1,0.9-0.3c1.5-1.2,2.5-2.7,3.2-4.5c1.4-3.8,2.2-7.6,2-11.7c-0.3-4.8-2.1-8.7-5.9-11.8
		c-3.8-3.1-5.2-7.1-2.3-11.5c-2-2.4-1.5-4.9-0.4-7.4c-2-0.2-3.9,0.8-5.3,2.8c-2.4,3.3-3.2,7-2.8,11c0.1,1.6,0.4,3.2,1.3,4.5
		c2.2,3.2,2.5,6.7,1.9,10.3C144.5,447.9,140.1,450.9,135.3,450z M157.8,461.8c2.2,0,4.2-0.2,6.1,0c2.3,0.3,3.9-0.7,5.1-2.5
		c0.3-0.5,0.6-0.9,0.9-1.4c2.2-4,2.9-8.3,2.2-12.7c-0.5-3.1-1.7-5.7-4.6-7.5c-2.2-1.4-3.4-3.5-2.8-6.2c0.5-2.4,1.7-4.1,4.2-4.8
		c2.5-0.7,4.7,1.3,4.4,3.8c-0.1,0.6-0.4,0.9-1,0.6c-0.4-0.2-0.4-0.6-0.4-0.9c-0.1-2-1.5-2.8-3.4-2.1c-1.6,0.6-2.9,2.8-2.7,4.5
		c0.2,2.3,3.1,5.1,5.5,5.2c1.9,0.1,3.3-0.9,4.5-2.2c1.9-2.1,2.4-4.6,2.4-7.3c-0.1-4.3-2.5-7.6-6.7-8.8c-2.6-0.7-5.1-0.5-7.3,1.1
		c-1.5,1.1-2.8,2.4-4.6,3.2c-0.2,0.1-0.4,0.3-0.5,0.5c-2,3.1-2,7.7,1.1,10.4c1,0.8,2.1,1.3,3.3,1.5c0.4,0,0.8,0.1,0.8,0.6
		c-0.1,0.5-0.6,0.3-0.9,0.3c-0.5-0.1-1-0.2-1.5-0.3c-4-1.4-5-5-6-8.5c-0.4-1.2,0-2.4,0.2-3.7c-1,0-1.8-0.2-2.6-0.6
		c-0.8-0.3-1.5-0.9-2.2-1.3c-1.6,2.4-1.6,5.1-0.1,7.5c1.3,2.1,3.3,3.3,5.3,4.6c1.9,1.2,3.5,2.7,4.7,4.5c2.5,3.8,2.6,8,1.7,12.3
		C162.1,455.3,160.7,458.9,157.8,461.8z M141,430.6c-0.9-1.7-1.4-3.4-1.6-5.1c-0.3-4,0.7-7.6,3.1-10.8c2.4-3.2,5.5-5.1,9.7-4.7
		c1.3,0.1,2.6,1,4,0.4c0.2-0.1,0.4-0.1,0.6-0.1c2.9-0.3,5.1,2.3,4.2,4.9c-0.2,0.5-0.3,1-0.9,0.8c-0.6-0.2-0.4-0.6-0.3-1.1
		c0.4-1.7-0.8-3.2-2.5-3.2c-2,0-3.7,0.7-4.9,2.2c-1.2,1.5-1.9,3.2-1.5,5.2c0.6,2.7,4.4,4.7,7,3.7c4.1-1.4,6.7-4.2,7.7-8.4
		c0.9-4.1-0.4-7.6-3.5-10.4c-4.2-3.8-11.6-4.2-16.7-0.9c-6.3,4.1-10.6,13.8-9.2,21.2C136.5,427.2,137.8,429.6,141,430.6z
		 M136.9,461.7c-0.2-0.2-0.3-0.3-0.5-0.4c-0.1-0.1-0.3-0.2-0.4-0.4c-3.6-3.6-5.4-7.7-4.2-12.8c0.1-0.5,0.1-0.9-0.1-1.4
		c-1.4-3.1-0.8-6.9,2.3-8.9c1.4-0.9,2.9-1.1,4.4-0.3c1.5,0.9,1.8,2.3,1.8,3.9c0,0.5-0.2,0.9-0.7,0.9c-0.5,0-0.6-0.4-0.6-0.8
		c0-0.2,0-0.3,0-0.5c-0.1-2.4-2.2-3.5-4.2-2.2c-2.2,1.4-3,4.2-2,6.7c1,2.4,3.5,3.8,6.1,3.3c1.6-0.3,2.8-1.4,3.8-2.6
		c2.8-3.4,2.3-9.4,0.1-12.5c-1.4-2-3.4-3-5.9-3c-4,0-7,1.8-9.3,4.9c-2.5,3.3-3.4,7.1-3.2,11.2c0.2,4,1.3,7.6,3.9,10.6
		C130.3,460.1,132.9,462.4,136.9,461.7z M161.5,498.4c0.7-0.7,1.4-1.4,2-2.3c0.6-0.9,1.1-1.9,1.3-3c0.1-0.6,0.1-1.1-0.5-1.4
		c-0.6-0.2-1,0-1.3,0.6c-0.1,0.1-0.2,0.3-0.2,0.4c-2.8,4.6-6.7,7.1-12.2,7c-5-0.1-8.7-2.4-11.3-6.5c-0.2-0.4-0.4-0.8-0.7-1.1
		c-0.3-0.4-0.7-0.5-1.2-0.4c-0.4,0.2-0.6,0.6-0.6,1c0,0.4,0.2,0.8,0.3,1.2c0.5,1.8,1.8,3.2,3.1,4.5c-0.5,0.6-1,1.1-1.4,1.7
		c-0.4,0.5-0.4,1,0,1.4c0.5,0.5,1.1,0.3,1.5-0.2c0.5-0.5,0.9-1.1,1.4-1.7c2.4,1.8,5.1,2.5,8,2.9c0.1,0.8,0,1.5,0.2,2.1
		c0.2,0.6,0.1,1.6,1.1,1.5c0.9,0,0.8-0.9,0.9-1.6c0.2-1.9,0.2-1.9,2.1-2.4c2.2-0.5,4.3-1.2,6.1-2.6c0.5,0.6,0.9,1.1,1.3,1.6
		c0.4,0.5,1,0.8,1.6,0.3c0.5-0.5,0.4-1,0-1.5C162.5,499.5,162,498.9,161.5,498.4z M113.7,479.9c-2-0.7-3.8-0.6-5.5,0.5
		c-4.2,2.7-5.4,9.5-2.5,13.5c0.6,0.8,1.3,1.6,2.4,2c0-2.9,0.4-5.7,1.4-8.3C110.6,484.8,111.8,482.3,113.7,479.9z M188,479.9
		c3.4,4.9,5.5,10.1,5.5,16c1-0.5,1.6-0.9,2.1-1.6c3.1-3.8,2.3-10.5-1.6-13.5C192.2,479.4,190.3,479,188,479.9z M154.9,461.6
		c1.1,0.4,1.8-0.2,2.4-0.8c1.8-1.7,2.8-3.8,3.7-6.1c1.5-4.1,2.1-8.2,0.7-12.4c-0.8-2.4-2.4-4.1-4.3-5.7c2.3,4,2.8,8.3,2.3,12.8
		C159.1,453.9,158.1,458.2,154.9,461.6z M169.1,462c1.7,0,2.9-0.7,3.6-1.8c3.3-4.5,4.5-9.5,3.3-14.9c-0.4-2.1-1.2-4.1-2.7-5.7
		c-0.3-0.3-0.5-0.7-1-0.2c0.3,0.5,0.6,0.9,0.9,1.4c1,1.5,1.5,3.2,1.6,4.9C175,451.7,173.8,457.3,169.1,462z M153.4,411.2
		c-0.9-0.2-1.8-0.5-2.6-0.4c-2.8,0.3-5.2,1.6-7,3.8c-2.7,3.3-3.9,7-3.4,11.3c0.1,1,0.3,2.1,0.9,3.1c0-0.1,0.1-0.2,0-0.3
		c-0.5-4.3,0.3-8.3,2.8-11.8c1.5-2.1,3.5-3.6,6.4-3.4c0.2,0,0.4,0.1,0.5-0.1C151.6,412.5,152.5,411.9,153.4,411.2z M114.5,491.5
		c0.2-0.5,0.4-0.9,0.5-1.3c2.2-5,5.3-9.4,10-12.4c1-0.6,2-1,3.1-1.5c0.3-0.1,0.8-0.3,0.6-0.8c-0.2-0.4-0.5-0.5-1-0.4
		c-1.1,0.2-2.1,0.6-3,1.1c-3.2,1.9-5.5,4.8-7.6,7.8c-1.1,1.6-2.1,3.4-2.7,5.3C114.1,490,113.8,490.7,114.5,491.5z M137.3,460.7
		c-2.3-3.5-3.9-7-2.9-11.2c-0.6-0.4-1.1-0.8-1.7-1.2C131.1,452.4,134.3,459,137.3,460.7z M174.3,527.4c0.6,0.8,1.3,1.4,2.1,1.9
		c0.6,0.4,1,0.2,1.3-0.4c0.2-0.4,0.4-0.9,0.3-1.4c-0.2-1.1-0.5-2.2-1-3.3C176.1,525.4,175.2,526.4,174.3,527.4z M127.4,527.4
		c-0.9-1.1-1.8-2.1-2.7-3.1c-0.4,0.9-0.7,1.7-0.9,2.6c-0.1,0.6-0.2,1.2,0.1,1.8c0.3,0.7,0.8,1,1.5,0.5
		C126.1,528.8,126.8,528.2,127.4,527.4z M170.8,439.4c2,2.8,2.5,6.1,2.4,9.4c0,3.3-0.9,6.5-2.4,9.5c0.2-0.2,0.4-0.5,0.6-0.8
		c2-3.6,2.6-7.5,2.5-11.5c-0.1-2.5-1.2-4.6-2.6-6.6C171.2,439.4,171.1,439.3,170.8,439.4z M180.6,507c0-0.2,0-0.5-0.3-0.5
		c-0.3-0.1-0.4,0.1-0.5,0.4c-0.2,0.5-0.4,1.1-0.6,1.6c-0.1,0.3-0.2,0.5,0.1,0.6c0.3,0.1,0.5,0,0.7-0.2
		C180.3,508.4,180.5,507.8,180.6,507z M181.2,510.8c0.1,0,0.2,0,0.2-0.1c0.5-0.5,0.8-1.1,1.1-1.7c0.1-0.1-0.1-0.3-0.2-0.4
		c-0.2-0.1-0.4-0.1-0.5,0.1c-0.4,0.5-0.8,1-1,1.6C180.8,510.5,180.9,510.8,181.2,510.8z M176.1,515.4c0.3,0,1.3-1,1.3-1.4
		c0-0.2-0.1-0.4-0.4-0.5c-0.3,0-1.3,1-1.3,1.3C175.7,515.2,175.8,515.3,176.1,515.4z M157.8,424.5c-0.9,0.3-1.2,1.5-1,3.2
		C157.1,426.6,157.3,425.5,157.8,424.5z"/>
	<path class="st1" d="M125.5,418.4c0-0.1-0.1-0.3-0.1-0.5c-0.1-0.4-0.1-0.8,0.4-0.9c0.5-0.1,0.8,0.3,0.8,0.7
		c0.1,0.6,0.3,1.1,0.6,1.7c0.2,0.4,0.5,0.8,0.9,1c0.6,0.4,0.7,0.9,0.1,1.4c-0.7,0.6-1,1.4-1.2,2.3c-0.1,0.4-0.2,0.7-0.7,0.8
		c-0.5,0.1-0.7-0.3-0.8-0.6c-0.4-0.9-0.7-1.7-1.7-2.2c-0.6-0.3-0.2-0.8,0.2-1.2C124.8,420.3,125.4,419.5,125.5,418.4z M126.2,420.5
		c-0.3,0.4-0.6,0.7-0.9,1.1c0.3,0.4,0.6,0.7,1,1.1c0.1-0.6,0.5-0.9,0.7-1.3C126.7,421,126.4,420.8,126.2,420.5z"/>
	<path class="st1" d="M175.1,405.8c0,0.2-0.1,0.4-0.3,0.6c-0.8,0.6-1.1,1.4-1.3,2.3c-0.1,0.4-0.3,0.8-0.8,0.8
		c-0.5,0-0.6-0.3-0.7-0.7c-0.3-0.9-0.5-1.9-1.4-2.5c-0.5-0.4-0.3-1,0.2-1.4c0.8-0.7,1.6-1.4,1.6-2.6c0-0.5,0.5-0.6,0.8-0.2
		c0.2,0.2,0.3,0.5,0.4,0.7c0.2,0.9,0.5,1.8,1.3,2.4C175,405.3,175.1,405.6,175.1,405.8z M172.9,405c-0.3,0.2-0.7,0.4-1.1,0.7
		c0.6,0.3,0.6,0.8,1,1.1c0.2-0.3,0.4-0.6,0.6-0.9C173.3,405.6,173.1,405.2,172.9,405z"/>
	<path class="st1" d="M183.6,436.6c0,0.4-0.1,0.6-0.4,0.8c-0.7,0.5-1.2,1.2-1.5,2c-0.1,0.4-0.2,0.7-0.7,0.6c-0.4,0-0.6-0.4-0.7-0.7
		c-0.3-1-0.5-2-1.5-2.6c-0.4-0.2-0.3-0.7,0-1c0.8-0.8,1.6-1.5,1.9-2.6c0.2-0.5,1-0.6,1.2-0.1c0.4,1.2,0.8,2.3,1.5,3.3
		C183.6,436.5,183.6,436.6,183.6,436.6z M182.1,436.7c-0.3-0.6-0.5-1.1-0.7-1.7c-0.4,0.5-0.8,0.8-1.1,1.2c0.3,0.5,0.6,1,0.9,1.4
		C181.5,437.4,181.8,437.1,182.1,436.7z"/>
	<path class="st1" d="M154.6,450.4c0.1,3.2-0.8,6-2.8,8.5c-0.1,0.1-0.2,0.3-0.4,0.4c-0.2,0.2-0.4,0.3-0.7,0.1
		c-0.3-0.2-0.2-0.4,0-0.7c0.3-0.5,0.7-0.9,1-1.4c1.3-1.8,1.8-3.8,1.9-5.9c0.1-2.6-0.1-5.2-1.1-7.6c-0.4-1.1-1-2.1-1.9-2.9
		c-0.3-0.3-0.7-0.6-0.3-1c0.4-0.4,0.7,0.1,1,0.4c1.6,1.7,2.4,3.7,2.8,6C154.5,447.6,154.7,449,154.6,450.4z"/>
	<path class="st1" d="M174.3,434.7c-0.5,0-0.7,0.5-1.1,0.7c-0.3,0.1-0.6,0.2-0.8,0c-0.2-0.3,0-0.6,0.2-0.7c1.9-1,2.4-2.8,2.7-4.7
		c0.3-1.9-0.1-3.8-1.1-5.5c-0.8-1.3-2.1-2.1-3.6-2.4c-0.4-0.1-1,0-0.9-0.6c0.1-0.6,0.7-0.4,1.1-0.3c2.7,0.6,4.8,3,5.2,5.8
		C176.6,429.8,176.1,432.5,174.3,434.7L174.3,434.7z"/>
	<path class="st1" d="M174.2,434.8c0.1,0,0.2-0.1,0.3-0.1c0.3-0.1,0.5-0.6,0.9-0.2c0.2,0.2,0.1,0.5-0.1,0.7c-0.3,0.3-0.6,0.6-1,0.4
		C173.8,435.3,174.2,435,174.2,434.8C174.3,434.7,174.2,434.8,174.2,434.8z"/>
	<path class="st1" d="M153.5,403.4c3,0.2,5.8,0.9,8.1,3c0.3,0.2,0.5,0.5,0.3,0.8c-0.3,0.4-0.6,0.1-0.9-0.1
		c-3.9-3.1-8.1-3.4-12.6-1.7c-1.4,0.5-2.8,1.3-3.8,2.4c-0.2,0.2-0.4,0.4-0.7,0.2c-0.3-0.3-0.1-0.5,0.1-0.8c0.4-0.5,0.9-0.8,1.4-1.2
		C147.7,404.3,150.5,403.6,153.5,403.4z"/>
	<path class="st1" d="M156.8,405.6c1.6,0.3,3,1.2,4.2,2.5c0.2,0.2,0.2,0.4,0,0.6c-0.2,0.2-0.4,0.1-0.6,0c-1.2-1.1-2.4-1.9-4-2.3
		c-0.2-0.1-0.4-0.3-0.3-0.5C156.2,405.6,156.4,405.6,156.8,405.6z"/>
	<path class="st1" d="M126,444.7c0.4-4.9,2-9.2,6.4-12c0.1-0.1,0.3-0.2,0.4-0.2c0.4-0.2,0.8-0.6,1.1-0.1c0.3,0.5-0.3,0.7-0.6,0.9
		c-4,2.4-5.7,6-6.3,10.4c-0.2,1.8,0.2,3.5,0.5,5.2c0.1,0.4,0.2,0.8-0.3,0.9c-0.5,0.1-0.5-0.4-0.6-0.8
		C126.3,447.7,126,446.3,126,444.7z"/>
	<path class="st1" d="M128.6,447.9c-0.1,0.3,0.2,0.8-0.3,0.9c-0.6,0.1-0.5-0.5-0.6-0.8c-0.1-0.7-0.2-1.4-0.2-2.1
		c0-0.2,0.1-0.5,0.4-0.5c0.3,0,0.4,0.2,0.5,0.5C128.4,446.6,128.5,447.2,128.6,447.9z"/>
</g>
<path class="st3" d="M65.8,190.7c2.4,0.7,4.3,1.6,5.9,3.6c1.6,1.9,2.4,4.3,2.7,6.8c0,0.1,0.1,0.2,0.2,0.2c0.1,0,0.2-0.1,0.2-0.2
	c0.3-2.4,1.1-4.9,2.7-6.8c1.7-1.9,3.4-2.8,5.9-3.6c0.7-0.2,0.7-1.1,0-1.3c-2.4-0.8-4.3-1.6-5.9-3.6c-1.6-1.9-2.4-4.3-2.7-6.8
	c0-0.2-0.1-0.2-0.2-0.2c-0.1,0-0.2,0.1-0.2,0.2c-0.3,2.4-1.1,4.9-2.7,6.8c-1.7,1.9-3.4,2.8-5.9,3.6
	C65.1,189.5,65.1,190.5,65.8,190.7z M70.8,190c2.1-1.4,3.3-4.3,3.8-7.1c0.5,2.8,1.8,5.6,3.8,7.1c-2.1,1.4-3.3,4.3-3.8,7.1
	C74.1,194.3,72.9,191.4,70.8,190z"/>
<path class="st3" d="M201.6,406.8c1.7-0.5,2.8-1.1,4-2.4c1.1-1.2,1.7-3,1.9-4.6c0-0.1,0.1-0.2,0.2-0.1c0.1,0,0.1,0,0.2,0.1
	c0.2,1.7,0.8,3.3,1.9,4.6c1.1,1.4,2.4,1.9,4,2.4c0.4,0.1,0.4,0.8,0,0.9c-1.7,0.5-2.8,1.1-4,2.4c-1.1,1.2-1.7,3-1.9,4.6
	c0,0.1-0.1,0.2-0.2,0.1c-0.1,0-0.1,0-0.2-0.1c-0.2-1.7-0.8-3.3-1.9-4.6c-1.1-1.4-2.4-1.9-4-2.4C201.1,407.5,201.1,406.9,201.6,406.8
	z"/>
<path class="st1" d="M115.2,379.1c-0.2-0.9-0.1-1.8,0.6-2.5c1-1,2.8-0.8,3.5,0.5c0.5,0.9,0.3,1.9-0.3,2.6c-0.4,0.6-1,1-1.8,1
	C116.3,380.7,115.4,380,115.2,379.1z"/>
<path class="st1" d="M135.6,214.2c-2,0-2.6-2.2-1.5-3.6c0.1-0.1,0.2-0.2,0.2-0.3c0.6-0.7,1.9-0.7,2.5,0c0.1,0.1,0.2,0.2,0.2,0.3
	C138.2,212,137.6,214.2,135.6,214.2z"/>
<path class="st4" d="M68.7,242.8c6.3,0,6.3,9.8,0,9.8C62.3,252.6,62.3,242.8,68.7,242.8z"/>
<path class="st1" d="M51.7,325.4c0.6-1.6-0.9-3.3-2.5-3.3c-0.4,0-0.7,0.1-1.1,0.1c-0.1,0-0.2,0.1-0.3,0.2c-0.1,0.1-0.3,0.1-0.5,0.2
	c-0.1,0.1-0.2,0.2-0.4,0.3c0.1,0,0.2-0.1,0.3-0.2c0,0,0.1,0,0.1,0c-0.3,0.2-0.5,0.3-0.5,0.3c-1.3,1.2-1.3,3.5,0.4,4.4
	C49.2,328.4,51,327.2,51.7,325.4z M50.9,323.7c0,0,0-0.1-0.1-0.1c0,0,0,0,0,0C50.9,323.7,50.9,323.7,50.9,323.7z"/>
<path class="st3" d="M187.7,251.5c-1.6-0.5-2.6-1-3.7-2.3c-1-1.2-1.5-2.8-1.7-4.3c0-0.1-0.1-0.1-0.1-0.1c-0.1,0-0.1,0-0.1,0.1
	c-0.2,1.5-0.7,3.1-1.7,4.3c-1,1.3-2.2,1.8-3.7,2.3c-0.4,0.1-0.4,0.7,0,0.8c1.6,0.5,2.6,1,3.7,2.3c1,1.2,1.5,2.8,1.7,4.3
	c0,0.1,0.1,0.1,0.1,0.1c0.1,0,0.1,0,0.1-0.1c0.2-1.5,0.7-3.1,1.7-4.3c1-1.3,2.2-1.8,3.7-2.3C188.1,252.2,188.1,251.6,187.7,251.5z
	 M182.1,256.4c-0.3-1.8-1.1-3.6-2.4-4.5c1.3-0.9,2.1-2.7,2.4-4.5c0.3,1.8,1.1,3.6,2.4,4.5C183.2,252.8,182.4,254.6,182.1,256.4z"/>
<path class="st3" d="M109.7,346.8c-1.5-0.5-2.5-1-3.5-2.1c-1-1.1-1.4-2.6-1.6-4c0-0.1-0.1-0.1-0.1-0.1c-0.1,0-0.1,0-0.1,0.1
	c-0.2,1.4-0.7,2.9-1.6,4c-1,1.2-2.1,1.7-3.5,2.1c-0.4,0.1-0.4,0.7,0,0.8c1.5,0.5,2.5,1,3.5,2.1c1,1.1,1.4,2.6,1.6,4
	c0,0.1,0.1,0.1,0.1,0.1c0.1,0,0.1,0,0.1-0.1c0.2-1.4,0.7-2.9,1.6-4c1-1.2,2.1-1.7,3.5-2.1C110.1,347.5,110.1,346.9,109.7,346.8z"/>
<path class="st4" d="M243.1,317.1c0,2.1,1.7,3.9,3.8,3.9c2.1,0,3.8-1.8,3.8-3.9c0-2.1-1.7-3.9-3.8-3.9
	C244.8,313.2,243.1,315,243.1,317.1z"/>
<path class="st4" d="M81.1,408.1c0,1.6,1.3,2.9,2.8,2.9c1.6,0,2.8-1.3,2.8-2.9c0-1.6-1.3-2.9-2.8-2.9
	C82.4,405.2,81.1,406.5,81.1,408.1z"/>
<path class="st1" d="M183,357.1c0.2-0.9,0.1-1.8-0.6-2.5c-1-1-2.8-0.8-3.5,0.5c-0.5,0.9-0.3,1.9,0.3,2.6c0.4,0.6,1,1,1.8,1
	C181.8,358.7,182.8,358,183,357.1z"/>
<path class="st1" d="M199.5,192.2c2,0,2.6-2.2,1.5-3.6c-0.1-0.1-0.2-0.2-0.2-0.3c-0.6-0.7-1.9-0.7-2.5,0c-0.1,0.1-0.2,0.2-0.2,0.3
	C196.9,190,197.5,192.2,199.5,192.2z"/>
<path class="st1" d="M253.6,226.6c-0.1,0.1-0.2,0.2-0.3,0.2c-0.6,0.5-0.6,1.8,0,2.3c0.1,0.1,0.2,0.2,0.3,0.2c1.3,1,3.3,0.5,3.3-1.4
	C256.9,226.2,254.8,225.6,253.6,226.6z"/>
</svg>
