<?xml version="1.0" encoding="utf-8"?>
<!-- Generator: Adobe Illustrator 28.3.0, SVG Export Plug-In . SVG Version: 6.00 Build 0)  -->
<svg version="1.1" id="Capa_1" xmlns="http://www.w3.org/2000/svg" xmlns:xlink="http://www.w3.org/1999/xlink" x="0px" y="0px"
	 viewBox="0 0 300 550" style="enable-background:new 0 0 300 550;" xml:space="preserve">
<style type="text/css">
	.st0{fill:#9B48DB;}
	.st1{stroke:#343135;stroke-miterlimit:10;}
	.st2{fill:#9B48DB;stroke:#9B48DB;stroke-width:2;stroke-miterlimit:10;}
	.st3{fill:#9C03B7;stroke:#9C03B7;stroke-width:2;stroke-miterlimit:10;}
	.st4{fill:#9C03B7;stroke:#9C03B7;stroke-miterlimit:10;}
	.st5{fill:#C9C9C9;}
	.st6{fill:#323232;}
	.st7{fill:none;stroke:#343135;stroke-width:2;stroke-miterlimit:10;}
	.st8{fill:none;}
</style>
<g id="Capa_1_00000095323603561473505410000002099798472945759414_">
	<g>
		<rect x="0.5" y="0.5" class="st0" width="299" height="549"/>
		<path class="st0" d="M299,1v548H1V1H299 M300,0H0v550h300V0L300,0z"/>
	</g>
</g>
<g>
	<path class="st1" d="M68.1,421.8c-0.1,1.8-1.8,3.4-3.4,3.3s-3.2-2-3.1-3.7c0.1-1.5,1.8-3.1,3.3-3C66.7,418.4,68.1,420,68.1,421.8z
		 M64.7,418.9c-0.8,1.4-1.8,2.2-1.6,2.9c0.1,0.7,1.3,1.8,1.9,1.7c0.7-0.1,1.7-1.2,1.8-1.9C66.8,421,65.8,420.2,64.7,418.9z"/>
	<path class="st1" d="M229,384.4c1.7,0,3.2,1.7,3.1,3.4c-0.1,1.7-1.4,3-3.1,3.1c-1.8,0-3.4-1.5-3.4-3.2
		C225.7,386.1,227.4,384.4,229,384.4z M226.3,388c1.3,0.8,2.2,1.8,2.8,1.7c0.7-0.2,1.3-1.3,1.9-2c-0.7-0.6-1.4-1.6-2.1-1.7
		C228.3,385.9,227.5,387,226.3,388z"/>
	<path class="st1" d="M124,424.4c1.7-0.1,3.4,1.5,3.5,3.2c0.1,1.6-1.6,3.3-3.3,3.3c-1.7,0-3.1-1.3-3.2-2.9
		C120.8,426.1,122.3,424.4,124,424.4z M126.9,427.7c-1.3-0.9-2-1.9-2.7-1.8s-1.4,1.1-2.1,1.7c0.6,0.7,1.2,1.8,2,1.9
		C124.8,429.7,125.6,428.6,126.9,427.7z"/>
	<path class="st2" d="M207.2,442.5c5.3-4.3,9.7-9.9,16.7-11.5c-3.7-0.3-6.7,1.1-9.5,3.1c-4.2,3-8.3,5.9-12.6,8.7
		c-4.1,2.7-8.6,4-13.4,4.3c-3,0.2-3.6-0.3-4.5-3.1c-1.4-4.2-3.2-8.2-6.1-11.6c-2.2-2.6-4.8-4.6-8.2-5.6c-1.1-0.3-2.3-1.4-3-2.5
		c-1.9-3.2-3.5-6.6-5.4-9.8c-1-1.8-2.3-4.2-4.6-3.6c-2.7,0.7-2.4,3.6-2.1,5.6c0.8,5.8,1.9,11.7,3.2,17.4c1.7,7.8,3.7,15.6,5.6,23.3
		c0.1,0.3,0,0.6,0,0.4c-6.3-2.5-12.8-4.9-19.2-7.4c0.9,2.2,1,2,3.6,3.1c4,1.5,8,3.1,11.8,5c1.9,0.9,3.5,2.6,5.8,4.5
		c-7.3-1.7-13.7-3.1-20.1-4.6c-0.1,0.3-0.2,0.7-0.2,1c2,0.5,3.9,1,5.9,1.6c5.7,1.5,11.5,2.8,16.2,6.8c0.4,0.4,1,0.7,1.3,1.1
		c3.6,4.8,7.3,9.6,11,14.5c-10.7,2.8-21.2,5.2-32.2,5.3c-3,0-5-1.8-6.7-3.9c-2.7-3.3-5.1-6.9-7.6-10.4c-1.3-1.9-2.7-3.8-4-5.6
		c-0.2,0.1-0.4,0.2-0.6,0.3c0.6,1.2,1.1,2.4,1.9,4.2c-2.7-1.8-4-3.5-4.2-6.4c-0.3-4.1-1.3-8.2-2-12.5c3.1-1.5,6-3.1,9.1-4.4
		c4.4-1.9,7.5-5.4,10.3-9.1c1.7-2.3,2.1-5.2,2.1-8c-0.3-0.1-0.5-0.2-0.8-0.3c-0.5,1.4-1.1,2.8-1.7,4.5c-0.2-1.6-0.4-2.9-0.5-4.2
		c-0.5-7.7-5-12.3-11.7-15.4c-6.2-2.8-12.8-3.3-19.3-4c-5.8-0.6-11.5-1.8-16.8-4.2c-4.4-2-9-3.8-13.3-6.1c-2.4-1.3-4.7-3-6.5-5.1
		c-4.9-5.5-0.5-13,4.5-13.8c4.2-0.6,8.5-0.8,12.8-0.6c5.3,0.2,10.6,1.1,15.9,1.6c5.9,0.6,11.3,2.5,16.6,5.1
		c19,9.1,38.9,12.3,59.9,11c15.8-1,31.1,1.8,44.5,11c4,2.7,7.5,6.2,10.9,9.7c3.7,3.8,7.8,6.9,12.6,9.1c6.1,2.7,11.7,6.1,16.8,10.5
		c6.2,5.4,9,12.5,10.7,20.2c0.2,0.7,0,1.6-0.2,2.4c-0.8,2.9-0.9,2.9,2.1,4.2c-1.5,11.8-12.9,23.6-24.1,25.5
		c3.9-3.5,8.4-7.3,12.5-11.5c2.3-2.3,3.9-5.3,5.4-8.5c-0.5,0.2-1.1,0.4-1.5,0.8s-0.8,0.8-1.1,1.3c-5.7,9.7-15.1,14.9-24.5,20
		c-4.8,2.6-10.2,3.1-15.6,3.1c-8.6,0-17.2-0.2-25.7,1.6c-7.9,1.7-15.8,3.7-23.6,5.8c-8.9,2.4-17.8,5.1-27.1,7.8
		c3.9-8.6,0.9-15.9-4.6-23c2.2-0.3,4-0.4,5.7-0.8c4.9-1.1,9.7-2.3,14.5-3.5c1.2-0.3,2.4-0.8,3.7-1.1c2.8-0.7,5.2-0.7,7.9,1.1
		c6,4,20,1.5,21.4-9.8c0.1-1.1,0-2.3-0.1-3.4c-0.1-1-0.4-2-0.7-3.7c9.3,1.7,16.2,6.5,21.8,13.6c-1.2-3.5-3.6-6.2-6.3-8.4
		c-4.8-4-9.8-7.4-16.4-7.6c-0.7,0-1.5-0.6-2.1-1.1c-4-3.7-8-7.4-11.9-11.2c-1.3-1.2-2.3-2.8-3.4-4.2c0.2-0.2,0.3-0.4,0.5-0.6
		c2.5,1,5.1,2,7.6,3.1c8,3.3,16.2,3.8,24.6,2c2.6-0.5,5.2-1.5,7.8-1.6c4.2-0.3,8.5-0.1,12.8-0.3c-4.3-1.2-8.8-1.8-13.3-1.1
		c-7.1,1.2-14.2,2.4-21.4,1.1c-4.5-0.8-8.7-2.2-12.9-4.3c4.5-1.2,8.8-2.4,13.3-3.6c0.6,1.2,1.1,3.3,3,2.2c0.9-0.5,1.2-2.2,2-3.9
		c13.9-5.3,28.1-5.3,41.7,3.3c3.7,2.3,7.2,5,9.8,8.7c0.4,0.6,1.8,1,2.6,0.8c0.5-0.1,1.3-1.7,1-2.1c-0.4-0.7-1.8-1.7-2.3-1.5
		c-1.9,0.8-2.5-0.6-3.5-1.5c-7-6.8-15-11.7-24.8-13.2c-7.2-1.1-14.1,0.2-21,2.2C211.4,441.3,209.3,441.9,207.2,442.5z M116.9,397.9
		c-2.2,2.1-2.5,4.6-2.1,8c1.7-2.1,2.9-3.9,4.3-5.4s3.6-2.2,4-4.5c-2.7,0.4-4.5,2.3-6.5,4.3C116.8,399.2,116.8,398.5,116.9,397.9z"/>
	<path class="st0" d="M127.4,516.6c-6,1.5-11.8,2.9-17.6,4.3c-0.1-0.3-0.1-0.5-0.2-0.8c4.3-1,8.5-2,12.8-3c-0.1-0.3-0.1-0.5-0.2-0.8
		c-8.6,1.4-17.2,2.7-25.7,4.1c0,0.2-0.1,0.4-0.1,0.6c1.8,0.2,3.6,0.4,5.4,0.6c0,0.1,0,0.3,0,0.4c-4,0.2-8,0.4-12,0.6
		c-3.7,0.2-6.5-1.3-8.9-3.9c-4.2-4.5-8.2-9.1-12.4-13.6c-3.7-3.9-7.4-7.7-11.2-11.4c-2.9-2.7-5-5.8-5.9-9.7c-0.7-3-1.5-6-2.2-9.1
		c6.1-0.9,6.3-1.1,7.2-7.1c0.5-3.3-0.3-6.9-1.2-10.2c-0.9-3.5-2.5-6.9-4-10.7c8.1,3.2,13.3,8.7,16.7,15.9c2.3,4.9,4,10.1,5.7,15.3
		c0.7,2.1,1.7,3.7,3.4,5.1c3.9,3.5,7.8,7,11.5,10.7c2.8,2.8,5.6,3.6,9.4,2.2c3.4-1.2,6.9-1.8,10.4-2.6c2.6-0.6,4.4,0.4,5.8,2.8
		c2.1,3.6,4.3,7.1,6.6,10.6C122.8,509.9,124.9,512.9,127.4,516.6z"/>
	<path class="st0" d="M108.7,481.5c-1.8-7.7-3.4-14.7-5-21.6c1.7-0.7,4.2-0.9,5-2.2c1.7-2.7,2.8-6,1.9-9.3c-0.8-3-1.9-6-3.1-8.8
		c-1-2.4-2.4-4.7-3.8-7.5c4.1,1,6.6,3.3,8.8,6.1c6.5,8.5,10.2,18.2,11.8,28.7c0.5,3,1.8,5.3,3.7,7.7c4.4,5.6,8.8,11.4,12.7,17.4
		c4.2,6.3,1.6,14.1-5.4,17.3c-1.2,0.5-2.4,0.9-3.6,1.3c-4.7,1.2-5.6,0.6-8.1-3.6s-5.2-8.2-8-12.2c-2.4-3.5-5-6.9-6.3-11.2
		c3-1.9,6.5-2.7,8.3-6c-1.4,0.8-2.7,1.7-4.1,2.3C112.1,480.5,110.6,480.9,108.7,481.5z"/>
	<path class="st0" d="M163.9,446.8c3.8,2.2,7.2,0.4,7.7-3.3c0.8-5-0.2-9.6-2.4-14.5c2.7,0.7,4.3,2.1,5.8,3.8
		c3.3,3.9,5.3,8.4,6.8,13.2c1.7,5.5,4.2,10.3,9.5,13.2c1.3,0.7,2.3,1.9,3.5,2.9c1.7,1.3,2.4,3.1,2.4,5.2c-0.2,9.9-5.3,15.1-16,10.6
		c-1.1-0.4-2.2-1-2.9-1.9c-5.1-5.5-10.4-11-12-18.7C165.5,453.9,164.7,450.5,163.9,446.8z M168.4,459.8c0.1,0.3,0.1,0.6,0.2,0.9
		c3.8,0.7,6.9-0.9,9.8-3.2C175.1,458.3,171.7,459,168.4,459.8z"/>
	<path class="st2" d="M107.3,482.8c-2.4,0-4.2,0-6,0c-6.5-0.2-13-0.4-19.5-0.7c-3.8-0.1-5.8-1.8-6.6-5.7c-1.6-7.2-4.1-14-8.8-20.5
		c7.2,2.5,11.9,7.2,15.8,13c0.4-0.3,0.7-0.7,1.1-1c-1.5-2.2-2.9-4.4-4.5-6.7c7.1-1.5,14-1.3,20.8-0.2c1.6,0.2,2.9,1,3.3,2.7
		C104.3,470,105.8,476.2,107.3,482.8z"/>
	<path class="st2" d="M44,463.7c-7.2-6.8-14.5-12.4-19.9-19.8c-0.7-1-1.4-2.2-1.8-3.3c-1-2.4-0.1-4.2,2.4-4.6
		c1.6-0.3,3.2-0.1,4.8,0.1c0.8,0.1,1.5,0.5,2.3,0.8c4.7,1.7,7.6,4.5,8.3,9.9C40.8,452.1,42.5,457.4,44,463.7z"/>
	<path class="st2" d="M83.2,484.8c7.9,0,16,0,24.3,0c1.1,2.4,2.1,4.5,3,6.6c-5,1.2-9.9,2.5-14.8,3.4c-1.3,0.2-3.1-0.3-4-1.1
		C88.6,490.8,85.8,487.6,83.2,484.8z"/>
	<g>
		<path class="st3" d="M90.8,416.8c3.5,2.2,6.1,5.3,7.9,8.9c3.3,6.5,6.3,13.1,9.3,19.8c1.5,3.4,1.4,6.8-0.5,10
			c-0.8,1.5-2.2,2.8-3.9,2.2c-1-0.4-1.9-1.9-2.3-3c-3.5-10.8-6.9-21.6-10.3-32.4c-0.5-1.6-0.9-3.2-1.3-4.9
			C90.1,417.2,90.4,417,90.8,416.8z"/>
		<path class="st3" d="M40.3,431.5c1.2,1.1,2.7,2,3.6,3.3c1.5,2.4,2.9,5,4,7.7c2,4.8,4,9.7,5.6,14.6c0.9,2.9,1.4,6.1,1.6,9.2
			c0.1,2.3-1.1,4.2-3.1,5.5s-3.6,0.7-4.2-1.6c-0.7-2.7-1.2-5.4-1.8-8.1c-1.8-7.8-3.8-15.6-5.5-23.4c-0.5-2.2-0.6-4.5-0.8-6.7
			C39.7,431.9,40,431.7,40.3,431.5z"/>
		<path class="st3" d="M157.6,412.8c0.8,0.9,1.7,1.8,2.2,2.8c2.2,4.1,4.6,8.1,6.5,12.3c1.4,3,2.3,6.3,3.2,9.5
			c0.3,1.1,0.3,2.3,0.1,3.4c-0.3,1.8-0.9,3.4-3.1,3.7c-2.1,0.3-3.3-0.8-4.1-2.5c-0.6-1.4-1.1-2.8-1.5-4.2c-1.1-3.9-2-7.9-3.1-11.8
			c-1.2-4.3-1.3-8.6-1.1-12.9C157.1,413,157.3,412.9,157.6,412.8z"/>
		<path class="st4" d="M75,384.2c-2.7,3.8-4.9,7.3-4,12.3c-1.2-0.5-2-0.8-2.7-1.3c-3-1.7-6.1-3.3-9.1-5c-1.1-0.6-2.3-1.2-3.1-2.1
			c-0.7-0.9-1.4-2.2-1.3-3.2c0.1-0.6,1.8-1.4,2.8-1.5c3.9-0.1,7.9,0,11.8,0.2C71,383.6,72.7,383.9,75,384.2z"/>
		<path class="st3" d="M7,424.6c6.2,1.4,10.7,5.6,15.3,8.7c-1,2.6-1.9,4.8-2.9,7.5c-4.4-5-8.8-10-13.2-15.1
			C6.4,425.3,6.7,425,7,424.6z"/>
	</g>
	<g>
		<path class="st5" d="M279.1,438.5c-3.9-5-9.3-6.9-15.3-8.2c0.2-0.1,0.3-0.3,0.4-0.3c7.7,0.9,14.6,3.8,20,9.5
			c2,2.2,3.4,5.3,4.1,8.3c2.1,9.7,1.3,19.4-2.8,28.6c-3.2,7.2-8.8,12.1-15.9,15.2c2-1.8,4.3-3.3,5.9-5.3c2.7-3.5,5.1-7.2,7.2-11
			c6.8-12.1,1.4-27-5.8-33.6c-1.8-1.6-3.6-3.2-5.6-4.7c-1.8-1.4-3.8-2.6-6.2-4.1C270.5,433.8,274.9,435.8,279.1,438.5z"/>
		<path class="st5" d="M253.8,498.5c24.7-4.2,33.9-12.7,38.7-35.4c0.5,13.5-3.5,24.2-14.5,31.4C270.8,499.2,263,501.7,253.8,498.5z"
			/>
		<path class="st5" d="M182.5,482.4c10.6,0.5,16.9-4.1,18.6-13c3.1,3.2,2.9,8.9-0.5,12.4C196.3,486.3,186.5,487.2,182.5,482.4z"/>
		<path class="st5" d="M141.2,518.5c13.4-5.6,15.7-14.1,6.5-27.5c1.3,0.8,2,1.1,2.4,1.6c3.5,4.2,6.1,8.8,6,14.4
			c-0.1,5.3-2.7,8.7-7.9,10.1C146,517.7,143.6,518,141.2,518.5z"/>
		<path class="st5" d="M138.2,516c8.2-6.4,10.6-10.6,10.8-18.9C154.6,504.5,149.1,514.2,138.2,516z"/>
		<path class="st5" d="M269.7,438.9c8.9,5.8,13.4,13.9,12.7,24.7C279.8,454.5,277.3,445.4,269.7,438.9z"/>
		<path class="st5" d="M147,499.4c-0.1,1.2,0.2,2.6-0.4,3.4c-2.5,3.4-5,7-8.1,9.9c-2.8,2.6-6.3,2.6-9.5,0.7
			c3.6-1.5,7.7-2.3,10.7-4.6S144.4,502.8,147,499.4z"/>
	</g>
	<path class="st6" d="M116.9,397.9c-0.1,0.6-0.2,1.2-0.3,2.3c2-2,3.8-3.9,6.5-4.3c-0.5,2.3-2.7,3.1-4,4.5c-1.4,1.5-2.6,3.3-4.3,5.4
		C114.4,402.5,114.7,400,116.9,397.9z"/>
	<path class="st6" d="M168.4,459.8c3.3-0.7,6.7-1.5,10-2.2c-2.9,2.3-6,3.9-9.8,3.2C168.5,460.4,168.5,460.1,168.4,459.8z"/>
	<path class="st6" d="M37.9,437.9c0-1.9-0.2-3.6,0-5.3c0.3-2.4,1.8-3.2,3.6-1.7c2.1,1.7,4,3.8,5.5,6.1c1.4,2.2,1.7,5.3,3.4,7.2
		c1.6,1.7,4.8,1.9,6.6,3.5c5.4,5,12.5,7,18.5,10.9c0.6,0.4,1.3,0.7,1.9,0.7c7.3-0.1,14.6-0.3,21.9-0.5c0.4,0,0.9-0.2,1.7-0.5
		c-3.3-10-6.6-19.9-9.9-29.8c-1-3.1-2-6.2-2.7-9.4c-0.2-1.1,0.1-2.9,0.9-3.4c0.6-0.5,2.4,0.1,3.4,0.7c3.7,2.4,6.1,6,8.1,9.9
		c1.2,2.4,2.6,4,5.4,4.8c3.9,1.1,7,3.8,9.3,7.1c2.5,3.5,4.5,7.3,6.7,11c0.6,1,1,2.1,1.6,3.6c4.9-2.6,10-4.6,14.1-8.3
		c0.4-0.4,0.8-0.9,1.1-1.4c4.2-6.4,0.9-18.8-5.9-22.3c-4.5-2.3-9.3-3.5-14.4-3.9c-15.3-1.2-28.9-7.5-42.2-14.4
		c-6.6-3.4-12.9-7.4-19.3-11.1c-1.4-0.8-2.7-1.8-3.8-3c-1.6-1.9-1.1-4,1.1-5.2c1.1-0.6,2.4-0.9,3.6-1.2c1.1-0.2,2.3-0.2,3.5-0.2
		c8.2,0,16.3,0.5,24.6-0.2c8-0.6,16.2,1,24.2,2c5.5,0.7,10.9,2.5,15.8,5.2c11.9,6.6,24.9,9.5,38.3,10.5c6.5,0.5,13,0.5,19.5,0.3
		c10.4-0.4,20.6,0.9,30.6,3.7c9.7,2.7,18.5,7.4,24.8,15.3c5.5,6.9,12.3,9.4,20.7,8.8c7.2-0.5,13.7,1.8,19.9,5.2
		c6,3.3,10,8.2,11.4,15c0.9,4.5,2,9.1,2.8,13.6c1,5.7,0.2,11.3-1.2,16.9c-4.2,15.8-19.1,23.8-31,24.6c-4.1,0.3-8-0.7-11.7-2.7
		c-0.9-0.5-2.3-0.8-3.1-0.5c-7,2.5-14.3,2.8-21.7,2.4c-10.4-0.5-20.6,0.7-30.6,3.7c-5.5,1.7-11.2,2.9-16.8,4.6
		c-8.1,2.5-16.1,5.3-24.1,8c-4.6,1.6-9.3,3-14.2,2.9c-3.4-0.1-6.7-0.7-9.6-2.6c-0.7-0.5-2-0.7-2.7-0.3c-8.5,4.4-17.8,5-27,6.3
		c-2.2,0.3-4.4,0.3-6.6,0.7c-6,1-10.7-1.6-14.6-5.6c-8.6-8.5-17-17.2-25.4-25.8c-2.7-2.8-3.5-6.5-4.5-10c-1.3-4.7-2.3-9.5-3.6-14.1
		c-0.4-1.3-1.2-2.5-2-3.5c-1.3-1.5-2.8-2.8-4.3-4c-11.6-9.6-21.8-20.5-31.7-31.8c-0.8-1-1.6-2-2.1-3.2c-0.9-2.1,0-3.4,2.3-3.2
		c1.1,0.1,2.3,0.4,3.3,0.9c2.5,1.4,5.1,2.8,7.4,4.5c3.4,2.4,6.7,4.8,11,5.5C32.5,435,35,436.7,37.9,437.9z M207.2,442.5
		c2.1-0.6,4.2-1.2,6.3-1.8c6.9-1.9,13.8-3.2,21-2.2c9.8,1.5,17.8,6.3,24.8,13.2c0.9,0.9,1.6,2.3,3.5,1.5c0.5-0.2,1.9,0.7,2.3,1.5
		c0.2,0.4-0.5,2-1,2.1c-0.8,0.2-2.1-0.2-2.6-0.8c-2.6-3.7-6.1-6.4-9.8-8.7c-13.6-8.5-27.8-8.6-41.7-3.3c-0.8,1.7-1.1,3.4-2,3.9
		c-1.9,1-2.4-1-3-2.2c-4.4,1.2-8.7,2.4-13.3,3.6c4.2,2.1,8.4,3.5,12.9,4.3c7.2,1.3,14.3,0.1,21.4-1.1c4.5-0.7,8.9-0.2,13.3,1.1
		c-4.3,0.2-8.6,0-12.8,0.3c-2.6,0.2-5.2,1.1-7.8,1.6c-8.4,1.8-16.6,1.3-24.6-2c-2.5-1-5-2-7.6-3.1c-0.2,0.2-0.3,0.4-0.5,0.6
		c1.1,1.4,2.1,2.9,3.4,4.2c3.9,3.8,7.9,7.5,11.9,11.2c0.6,0.5,1.4,1.1,2.1,1.1c6.6,0.1,11.7,3.6,16.4,7.6c2.7,2.3,5.1,4.9,6.3,8.4
		c-5.6-7.1-12.5-11.9-21.8-13.6c0.3,1.6,0.6,2.6,0.7,3.7c0.1,1.1,0.3,2.3,0.1,3.4c-1.4,11.3-15.4,13.8-21.4,9.8
		c-2.7-1.8-5.1-1.7-7.9-1.1c-1.2,0.3-2.4,0.8-3.7,1.1c-4.8,1.2-9.7,2.4-14.5,3.5c-1.8,0.4-3.6,0.5-5.7,0.8c5.5,7.1,8.6,14.3,4.6,23
		c9.3-2.7,18.2-5.4,27.1-7.8c7.8-2.1,15.7-4.1,23.6-5.8c8.4-1.8,17.1-1.6,25.7-1.6c5.4,0,10.8-0.5,15.6-3.1
		c9.4-5.1,18.8-10.3,24.5-20c0.3-0.5,0.7-1,1.1-1.3s1-0.5,1.5-0.8c-1.5,3.2-3.1,6.2-5.4,8.5c-4.1,4.2-8.6,8-12.5,11.5
		c11.2-1.9,22.6-13.6,24.1-25.5c-3-1.3-3-1.3-2.1-4.2c0.2-0.7,0.4-1.6,0.2-2.4c-1.7-7.7-4.5-14.8-10.7-20.2
		c-5-4.4-10.7-7.8-16.8-10.5c-4.9-2.1-8.9-5.3-12.6-9.1c-3.4-3.4-7-6.9-10.9-9.7c-13.4-9.2-28.7-12-44.5-11
		c-21,1.3-40.9-1.9-59.9-11c-5.3-2.5-10.7-4.4-16.6-5.1c-5.3-0.6-10.6-1.4-15.9-1.6c-4.3-0.2-8.6,0-12.8,0.6
		c-5,0.7-9.4,8.3-4.5,13.8c1.8,2,4.1,3.8,6.5,5.1c4.3,2.3,8.8,4.1,13.3,6.1c5.3,2.4,11,3.6,16.8,4.2c6.6,0.7,13.2,1.1,19.3,4
		c6.7,3.1,11.2,7.6,11.7,15.4c0.1,1.3,0.3,2.6,0.5,4.2c0.7-1.7,1.2-3.1,1.7-4.5c0.3,0.1,0.5,0.2,0.8,0.3c0.1,2.8-0.3,5.7-2.1,8
		c-2.8,3.7-5.9,7.2-10.3,9.1c-3.1,1.3-6,2.9-9.1,4.4c0.7,4.3,1.7,8.4,2,12.5c0.2,2.9,1.5,4.6,4.2,6.4c-0.8-1.8-1.4-3-1.9-4.2
		c0.2-0.1,0.4-0.2,0.6-0.3c1.3,1.9,2.6,3.8,4,5.6c2.5,3.5,4.9,7,7.6,10.4c1.7,2.1,3.7,3.9,6.7,3.9c11-0.1,21.5-2.4,32.2-5.3
		c-3.7-4.9-7.3-9.7-11-14.5c-0.3-0.4-0.9-0.7-1.3-1.1c-4.7-4-10.5-5.3-16.2-6.8c-2-0.5-3.9-1-5.9-1.6c0.1-0.3,0.2-0.7,0.2-1
		c6.4,1.5,12.8,2.9,20.1,4.6c-2.3-1.8-3.9-3.5-5.8-4.5c-3.8-1.9-7.8-3.5-11.8-5c-2.7-1-2.7-0.9-3.6-3.1c6.4,2.5,12.8,5,19.2,7.4
		c0,0.2,0.1-0.1,0-0.4c-1.9-7.8-3.9-15.5-5.6-23.3c-1.3-5.8-2.3-11.6-3.2-17.4c-0.3-2-0.7-5,2.1-5.6c2.3-0.6,3.6,1.9,4.6,3.6
		c1.9,3.2,3.4,6.6,5.4,9.8c0.6,1.1,1.8,2.2,3,2.5c3.4,1,6,3.1,8.2,5.6c2.9,3.4,4.7,7.4,6.1,11.6c0.9,2.8,1.6,3.3,4.5,3.1
		c4.8-0.3,9.4-1.6,13.4-4.3c4.3-2.8,8.4-5.7,12.6-8.7c2.8-2,5.8-3.4,9.5-3.1C216.9,432.6,212.5,438.2,207.2,442.5z M127.4,516.6
		c-2.6-3.8-4.6-6.7-6.6-9.7c-2.3-3.5-4.5-7-6.6-10.6c-1.4-2.3-3.2-3.3-5.8-2.8c-3.5,0.8-7.1,1.3-10.4,2.6c-3.8,1.4-6.7,0.5-9.4-2.2
		c-3.7-3.7-7.5-7.2-11.5-10.7c-1.6-1.4-2.7-3-3.4-5.1c-1.7-5.2-3.4-10.4-5.7-15.3c-3.4-7.2-8.7-12.7-16.7-15.9
		c1.5,3.8,3.1,7.2,4,10.7c0.8,3.3,1.7,6.9,1.2,10.2c-0.9,6-1.1,6.2-7.2,7.1c0.8,3,1.6,6,2.2,9.1c0.9,3.9,3,6.9,5.9,9.7
		c3.9,3.7,7.6,7.5,11.2,11.4c4.2,4.5,8.3,9.1,12.4,13.6c2.4,2.6,5.3,4.1,8.9,3.9c4-0.2,8-0.4,12-0.6c0-0.1,0-0.3,0-0.4
		c-1.8-0.2-3.6-0.4-5.4-0.6c0-0.2,0.1-0.4,0.1-0.6c8.6-1.4,17.2-2.7,25.7-4.1c0.1,0.3,0.1,0.5,0.2,0.8c-4.3,1-8.5,2-12.8,3
		c0.1,0.3,0.1,0.5,0.2,0.8C115.6,519.5,121.4,518.1,127.4,516.6z M108.7,481.5c1.8-0.6,3.4-1.1,4.8-1.7s2.7-1.5,4.1-2.3
		c-1.8,3.3-5.3,4.1-8.3,6c1.3,4.2,3.9,7.7,6.3,11.2c2.8,4,5.5,8,8,12.2s3.4,4.8,8.1,3.6c1.2-0.3,2.5-0.7,3.6-1.3
		c6.9-3.2,9.5-11,5.4-17.3c-4-6-8.3-11.7-12.7-17.4c-1.9-2.4-3.2-4.7-3.7-7.7c-1.6-10.5-5.3-20.2-11.8-28.7c-2.1-2.8-4.6-5-8.8-6.1
		c1.5,2.8,2.8,5.1,3.8,7.5c1.2,2.9,2.3,5.8,3.1,8.8c0.8,3.3-0.2,6.6-1.9,9.3c-0.8,1.3-3.4,1.5-5,2.2
		C105.3,466.8,107,473.9,108.7,481.5z M163.9,446.8c0.8,3.7,1.5,7.1,2.3,10.5c1.7,7.7,6.9,13.2,12,18.7c0.8,0.8,1.9,1.4,2.9,1.9
		c10.7,4.5,15.8-0.7,16-10.6c0-2.1-0.7-3.8-2.4-5.2c-1.2-0.9-2.2-2.2-3.5-2.9c-5.3-2.9-7.8-7.7-9.5-13.2c-1.5-4.8-3.5-9.3-6.8-13.2
		c-1.4-1.7-3.1-3-5.8-3.8c2.1,4.9,3.2,9.5,2.4,14.5C171.1,447.2,167.7,449,163.9,446.8z M107.3,482.8c-1.5-6.6-3-12.9-4.4-19.2
		c-0.4-1.7-1.7-2.5-3.3-2.7c-6.9-1-13.7-1.3-20.8,0.2c1.6,2.4,3,4.6,4.5,6.7c-0.4,0.3-0.7,0.7-1.1,1c-3.9-5.8-8.6-10.6-15.8-13
		c4.7,6.5,7.2,13.3,8.8,20.5c0.8,3.9,2.8,5.5,6.6,5.7c6.5,0.2,13,0.5,19.5,0.7C103.1,482.9,104.9,482.8,107.3,482.8z M90.8,416.8
		c-0.3,0.2-0.7,0.3-1,0.5c0.4,1.6,0.8,3.3,1.3,4.9c3.4,10.8,6.8,21.6,10.3,32.4c0.4,1.2,1.3,2.6,2.3,3c1.7,0.7,3-0.7,3.9-2.2
		c1.8-3.2,2-6.6,0.5-10c-3-6.6-6-13.3-9.3-19.8C96.8,422.1,94.2,419,90.8,416.8z M40.3,431.5c-0.3,0.2-0.6,0.4-0.9,0.5
		c0.3,2.2,0.3,4.5,0.8,6.7c1.8,7.8,3.7,15.6,5.5,23.4c0.6,2.7,1.1,5.5,1.8,8.1c0.6,2.3,2.2,2.9,4.2,1.6s3.3-3.2,3.1-5.5
		c-0.2-3.1-0.6-6.2-1.6-9.2c-1.6-5-3.6-9.8-5.6-14.6c-1.1-2.7-2.4-5.3-4-7.7C43,433.5,41.5,432.6,40.3,431.5z M279.1,438.5
		c-4.2-2.7-8.6-4.8-13.9-5.7c2.3,1.5,4.3,2.7,6.2,4.1c1.9,1.5,3.8,3.1,5.6,4.7c7.2,6.6,12.6,21.5,5.8,33.6c-2.1,3.8-4.6,7.5-7.2,11
		c-1.6,2.1-3.9,3.6-5.9,5.3c7.2-3.2,12.7-8.1,15.9-15.2c4.1-9.2,4.9-18.8,2.8-28.6c-0.6-2.9-2.1-6.1-4.1-8.3
		c-5.3-5.7-12.2-8.6-20-9.5c-0.1,0-0.2,0.2-0.4,0.3C269.7,431.6,275.2,433.6,279.1,438.5z M44,463.7c-1.5-6.2-3.2-11.5-3.9-17
		c-0.7-5.3-3.7-8.2-8.3-9.9c-0.8-0.3-1.5-0.7-2.3-0.8c-1.6-0.2-3.3-0.4-4.8-0.1c-2.6,0.4-3.4,2.2-2.4,4.6c0.5,1.2,1.1,2.3,1.8,3.3
		C29.5,451.2,36.8,456.8,44,463.7z M157.6,412.8c-0.2,0.1-0.5,0.2-0.7,0.3c-0.2,4.3-0.1,8.6,1.1,12.9c1.1,3.9,2,7.9,3.1,11.8
		c0.4,1.4,0.9,2.9,1.5,4.2c0.8,1.7,2,2.8,4.1,2.5c2.2-0.3,2.8-1.9,3.1-3.7c0.2-1.1,0.2-2.4-0.1-3.4c-0.9-3.2-1.8-6.5-3.2-9.5
		c-1.9-4.2-4.3-8.2-6.5-12.3C159.2,414.5,158.3,413.7,157.6,412.8z M83.2,484.8c2.7,2.9,5.4,6,8.4,8.9c0.9,0.9,2.8,1.4,4,1.1
		c4.9-0.9,9.8-2.2,14.8-3.4c-0.9-2.1-1.9-4.1-3-6.6C99.2,484.8,91,484.8,83.2,484.8z M253.8,498.5c9.2,3.2,16.9,0.7,24.1-4
		c11-7.2,15-17.9,14.5-31.4C287.7,485.9,278.5,494.3,253.8,498.5z M75,384.2c-2.3-0.3-4-0.6-5.7-0.7c-3.9-0.1-7.9-0.3-11.8-0.2
		c-1,0-2.7,0.8-2.8,1.5c-0.1,1,0.5,2.4,1.3,3.2c0.8,0.9,2,1.5,3.1,2.1c3,1.7,6.1,3.4,9.1,5c0.7,0.4,1.5,0.7,2.7,1.3
		C70.1,391.5,72.3,387.9,75,384.2z M182.5,482.4c4.1,4.8,13.8,3.9,18.1-0.6c3.3-3.5,3.5-9.2,0.5-12.4
		C199.4,478.3,193,482.9,182.5,482.4z M7,424.6c-0.3,0.4-0.5,0.7-0.8,1.1c4.4,5.1,8.8,10.1,13.2,15.1c1-2.6,1.9-4.9,2.9-7.5
		C17.7,430.2,13.1,426,7,424.6z M141.2,518.5c2.4-0.4,4.8-0.8,7.1-1.4c5.2-1.4,7.8-4.7,7.9-10.1c0.1-5.6-2.5-10.3-6-14.4
		c-0.4-0.5-1.2-0.8-2.4-1.6C156.8,504.3,154.6,512.9,141.2,518.5z M138.2,516c11-1.8,16.5-11.5,10.8-18.9
		C148.7,505.4,146.4,509.6,138.2,516z M269.7,438.9c7.6,6.5,10.1,15.6,12.7,24.7C283.1,452.9,278.6,444.7,269.7,438.9z M145.8,501.1
		c-2.2,3-3.8,6.3-6.4,8.3c-2.6,2-6.3,2.8-9.5,4.1c2.8,1.7,6,1.7,8.4-0.6c2.7-2.6,4.9-5.7,7.2-8.8C146,503.4,145.7,502.1,145.8,501.1
		z"/>
</g>
<path class="st1" d="M214.6,321c-0.1,2.1-1.9,3.8-4,3.6c-1.9-0.1-3.5-1.7-3.6-3.7c-0.1-2.1,1.7-3.9,3.8-3.9
	C212.8,317.1,214.6,318.9,214.6,321z M210.5,324.1c1.2-1.6,2.2-2.4,2.3-3.2c0.1-0.7-1.2-2.2-1.6-2.1c-1,0.2-2.2,1-2.5,1.9
	C208.5,321.3,209.5,322.3,210.5,324.1z"/>
<path class="st1" d="M47.3,321.1c-2,0-3.9-1.9-3.9-3.8s2-3.9,3.8-3.9s3.9,2,3.9,3.8C51.1,319.2,49.2,321.1,47.3,321.1z M47.2,320.5
	c1.1-1.6,2.2-2.5,2.1-3.3c-0.1-0.8-1.4-2-2.2-2c-0.7,0-2,1.3-2,2.2C45,318.1,46.1,319,47.2,320.5z"/>
<path class="st1" d="M272.3,118.1c-2,0-3.9-1.9-3.9-3.8s2-3.9,3.8-3.9s3.9,2,3.9,3.8C276.1,116.2,274.2,118.1,272.3,118.1z
	 M272.2,117.5c1.1-1.6,2.2-2.5,2.1-3.3s-1.4-2-2.2-2c-0.7,0-2,1.3-2,2.2C270,115.1,271.1,116,272.2,117.5z"/>
<path class="st1" d="M189.6,351.7c-0.2,2.1-2.1,3.6-4.3,3.3c-1.9-0.3-3.4-2-3.3-3.9c0.1-2.1,2-3.7,4.1-3.5
	C188.2,347.7,189.8,349.6,189.6,351.7z M189,351.3c-1.5-1.1-2.5-2.3-3.2-2.2c-0.8,0.1-1.5,1.4-2.3,2.2c0.8,0.7,1.5,1.9,2.3,2
	S187.5,352.3,189,351.3z"/>
<path class="st1" d="M36.9,187.2c0,2-1.9,3.9-3.9,3.9c-2.1,0-3.9-1.8-3.9-3.9c0.1-1.8,1.8-3.6,3.7-3.7
	C34.7,183.3,36.9,185.3,36.9,187.2z M29.7,187.6c1.7,1,2.7,2.1,3.5,1.9c0.8-0.2,1.7-1.5,1.8-2.5c0.1-0.5-1.4-1.8-2.1-1.7
	C32,185.4,31.2,186.5,29.7,187.6z"/>
<path class="st1" d="M90.8,163.6c0,2-1.9,3.8-3.9,3.8s-3.7-1.9-3.6-4c0.1-2,1.6-3.5,3.6-3.5C89,159.8,90.8,161.5,90.8,163.6z
	 M87.1,160.2c-1.1,1.6-2.1,2.4-2.2,3.4c-0.1,0.7,1.3,2.1,1.7,2c0.9-0.2,2.2-1.1,2.4-1.9C89.1,162.9,88.1,161.8,87.1,160.2z"/>
<path class="st1" d="M35.8,52.6c0,2-1.9,3.8-3.9,3.8s-3.7-1.9-3.6-4c0.1-2,1.6-3.5,3.6-3.5C34,48.8,35.8,50.5,35.8,52.6z M32.1,49.2
	c-1.1,1.6-2.1,2.4-2.2,3.4c-0.1,0.7,1.3,2.1,1.7,2c0.9-0.2,2.2-1.1,2.4-1.9C34.1,51.9,33.1,50.8,32.1,49.2z"/>
<path class="st7" d="M259.7,347.8l0.3,6.8c0,0,0,0.1-0.1,0l-4.9-4.7c-2.5-2.4-5.9-3.7-9.4-3.6l-6.8,0.3c0,0-0.1,0,0-0.1l4.7-4.9
	c2.4-2.5,3.7-5.9,3.6-9.4l-0.3-6.8c0,0,0-0.1,0.1,0l4.9,4.7c2.5,2.4,5.9,3.7,9.4,3.6l6.8-0.3c0,0,0.1,0,0,0.1l-4.7,4.9
	C260.8,340.9,259.5,344.3,259.7,347.8z"/>
<path class="st7" d="M30.7,362.5l3.3-1.4c0.5-0.2,0.9,0.3,0.7,0.7l-1.4,3.3c-0.6,1.5-0.6,3.2,0,4.8l1.4,3.3c0.2,0.5-0.3,0.9-0.7,0.7
	l-3.3-1.4c-1.5-0.6-3.2-0.6-4.8,0l-3.3,1.4c-0.5,0.2-0.9-0.3-0.7-0.7l1.4-3.3c0.6-1.5,0.6-3.2,0-4.8l-1.4-3.3
	c-0.2-0.5,0.3-0.9,0.7-0.7l3.3,1.4C27.5,363.1,29.2,363.1,30.7,362.5z"/>
<path class="st7" d="M228.7,175.5l3.3-1.4c0.5-0.2,0.9,0.3,0.7,0.7l-1.4,3.3c-0.6,1.5-0.6,3.2,0,4.8l1.4,3.3
	c0.2,0.5-0.3,0.9-0.7,0.7l-3.3-1.4c-1.5-0.6-3.2-0.6-4.8,0l-3.3,1.4c-0.5,0.2-0.9-0.3-0.7-0.7l1.4-3.3c0.6-1.5,0.6-3.2,0-4.8
	l-1.4-3.3c-0.2-0.5,0.3-0.9,0.7-0.7l3.3,1.4C225.5,176.1,227.2,176.1,228.7,175.5z"/>
<path class="st7" d="M83.6,209.1l7.2-3c0.5-0.2,0.9,0.3,0.7,0.7l-3,7.2c-0.6,1.5-0.6,3.2,0,4.8l3,7.2c0.2,0.5-0.3,0.9-0.7,0.7
	l-7.2-3c-1.5-0.6-3.2-0.6-4.8,0l-7.2,3c-0.5,0.2-0.9-0.3-0.7-0.7l3-7.2c0.6-1.5,0.6-3.2,0-4.8l-3-7.2c-0.2-0.5,0.3-0.9,0.7-0.7
	l7.2,3C80.3,209.7,82,209.7,83.6,209.1z"/>
<rect x="16.5" y="257" class="st8" width="267" height="36"/>
<g>
	<path class="st6" d="M129.2,72.5c-1.4-0.7-2.5-1.3-3.6-2.2c-1.5-1.3-2.8-2.8-2.9-4.9c-0.1-2.1,0.9-3.5,2.8-4.3c3.1-1.3,6.1-1,9,0.3
		c0.6,0.3,1.1,0.6,1.7,0.9c0.4-2.1,0.1-4.2,0-6.3c-0.1-1.2-0.3-2.4-0.4-3.7c-0.1-0.7-0.2-1.1-1-1.2c-0.9-0.1-1.8-0.2-2.7-0.7
		c-1.9-1-2.5-3-1.3-4.8c0.9-1.4,2.3-2.1,3.9-2.3c1.6-0.2,3.2-0.1,4.9-0.5c-0.3-1.7-0.6-3.4-1-5c-0.6-2.7-1.1-5.5-1.5-8.2
		c-0.1-0.5-0.1-1.1,0-1.6c0.2-2.1,1.6-2.9,3.6-2.8c3.1,0.2,6.2,0.2,9.2,0.2c5,0,10.1-0.1,15.1-0.1c0.5,0,1-0.2,1.5-0.1
		c1.9,0.1,2.9,1.2,2.9,3.2c0,2.5-0.6,4.9-1.1,7.4c-0.5,2.3-0.9,4.7-1.4,7.1c1.7,0.5,3.3,0.3,4.9,0.5c1.5,0.2,2.8,0.8,3.7,2.1
		c1.7,2.4,0.4,5-2.7,5.5c-1.9,0.3-1.9,0.3-2.2,2.4c-0.4,3-0.7,6-0.4,9c0,0.4,0,0.8,0.3,1.1c1.1-0.4,2-1.1,3.1-1.3
		c0.6-0.1,1.2-0.2,1.7,0c2.1,0.6,2.9,2.3,1.9,4.3c-0.8,1.6-2.2,2.7-3.7,3.9c1.7,1.4,3.5,2.3,5.7,2.4c1.8,0.1,3.6,0.2,5.3,0.5
		c4.6,0.9,8,3.5,10.6,7.3c3.4,4.9,5.3,10.3,5.9,16.2c0.8,6.6,0.2,13.2-0.6,19.8c-1.4,12.1-4.9,23.6-9.1,35c-0.2,0.6-0.5,1.3-0.8,1.9
		c-2.1,5.2-6.1,8.6-11.2,10.6c-4.8,1.8-9.7,2.9-14.8,3.4c-7.2,0.6-14.4,0.5-21.6,0.1c-5.1-0.3-10-1.4-14.8-3
		c-6.8-2.3-11.1-6.8-13.5-13.4c-3.1-8.7-6-17.4-7.7-26.4c-1.4-7.6-2.3-15.4-2.2-23.2c0.2-7.7,2-14.9,6.6-21.2c3.2-4.5,7.5-7,13-7.3
		C126.1,72.9,127.6,73,129.2,72.5z M199.7,102.9c-0.1-2-0.1-4.1-0.3-6.3c-0.5-5.3-2.2-10.2-5-14.7c-3.3-5-7.8-7.7-13.9-7.5
		c-2.8,0.1-5.3-0.9-7.5-2.6c-0.3-0.3-0.6-0.5-1.2-0.2c-5.7,3.1-11.9,3.8-18.2,4.3c-3,0.2-5.9-0.1-8.9-0.3c-4.1-0.4-8.2-1-12.2-2
		c-0.4-0.1-0.8-0.2-1.2,0c-1.8,0.8-3.7,1-5.6,1c-4.4,0.1-8.1,1.6-11,4.9c-4.8,5.5-6.8,12.1-7.3,19.3c-0.2,3.7-0.1,7.4,0.2,11.1
		c0.4,5.2,1,10.3,2,15.3c1.7,8.7,4.4,17.2,7.5,25.5c1.9,5.2,5.1,9.3,10.5,11.4c4.7,1.9,9.6,2.9,14.6,3.4c5.1,0.5,10.2,0.4,15.3,0.4
		c5.4,0,10.9-0.5,16.2-1.9c2.3-0.6,4.6-1.4,6.8-2.3c4.9-2.1,7.8-6.1,9.5-11c3.8-10.4,7.1-20.8,8.5-31.8
		C199,113.5,199.5,108.3,199.7,102.9z M133.4,72.2c0.4,0.1,0.6,0.2,0.8,0.3c5.3,1.2,10.7,1.7,16.1,1.9c5,0.2,9.9-0.6,14.7-1.8
		c2.1-0.5,4.1-1.3,6-2.4c-3.5-5.7-2.8-11.8-1.8-18c-1.3,0-2.6-0.3-3.9-0.2c-0.2,0.8-0.4,1.5-0.7,2.2c-0.6,1.3-1.4,2.5-3.1,2.6
		c-1.5,0.1-3,0.2-4.5,0.3c-3.6,0.3-7.1-0.1-10.7-0.2c-2.3-0.1-3.5-1-4.2-3.2c-0.2-0.5-0.3-1.1-0.5-1.6c-1.4-0.1-2.6,0.2-4,0.2
		c0.6,3,0.9,6,0.8,9C138.2,65.5,137.3,69.5,133.4,72.2z M153.6,26.9c-4.4-0.1-8.7,0.1-12.9-0.2c-1.3-0.1-1.8,0.4-1.8,1.8
		c0,0.8,0.1,1.7,0.3,2.5c0.7,3.6,1.5,7.2,2.1,10.8c0.2,1,0.5,1.2,1.4,1.1c2.3-0.2,4.6-0.2,6.9-0.2c5,0,9.9-0.1,14.9,0.2
		c0.5,0,1,0.1,1.2-0.6c0.7-4.3,1.8-8.6,2.4-12.9c0.3-2-0.3-2.7-2.3-2.6C161.6,27,157.6,26.8,153.6,26.9z M153.5,44.2
		c-4-0.1-7.8,0.1-11.6,0.2c-2.3,0-4.6,0.2-7,0.4c-1.2,0.1-2.2,0.6-2.9,1.7c-0.5,0.9-0.3,1.8,0.6,2.4c0.9,0.6,2,0.8,3,0.8
		c2.6,0,5.3,0,7.9-0.2c6.1-0.4,12.2-0.5,18.3-0.1c2.6,0.2,5.2,0,7.8,0.3c1.4,0.2,2.9,0,4.2-0.7c1.2-0.6,1.5-1.7,0.7-2.8
		c-0.5-0.7-1.1-1.1-1.9-1.3c-1.8-0.4-3.7-0.5-5.6-0.5C162.5,44.4,158,44,153.5,44.2z M128.9,61.6c-0.3,0-0.6,0-0.9,0
		c-1.5,0.3-3.1,0.6-3.8,2.3c-0.6,1.5-0.1,2.8,0.9,4c1.5,1.8,3.5,2.9,5.7,3.6c0.3,0.1,0.6,0,0.9-0.2c2.7-1.6,4-4.1,4.5-7.1
		c0.1-0.3-0.1-0.5-0.4-0.7C133.7,62.3,131.4,61.5,128.9,61.6z M143.4,52c0.1,2.2,1.2,3.1,2.7,3.3c4.6,0.5,9.3,0.5,13.9,0.1
		c2.2-0.2,3-1,3.4-3.3C156.8,51.7,150.1,51.7,143.4,52z M172.7,69.2c1.4-1,2.7-2,3.5-3.4c0.3-0.5,0.6-1.1,0.1-1.6
		c-0.4-0.6-1.1-0.9-1.8-0.8c-1.2,0.2-2.3,0.7-3.3,1.4c-0.2,0.2-0.4,0.3-0.3,0.7C171.3,66.8,171.7,68.1,172.7,69.2z"/>
	<path class="st6" d="M99.3,65.7c0.2-2.8,1.4-5,3.6-6.7c2.9-2.3,6.1-3.4,9.8-2.5c1.3,0.3,1.6,1,0.8,2.1c-0.7,1.1-1.3,2.3-1.3,3.7
		c0,2.2,1.6,3.5,3.7,3c0.5-0.1,0.9-0.3,1.3-0.5c0.4-0.1,0.8-0.3,1.2,0.1c0.3,0.3,0,0.7-0.2,1c-1.7,3.4-4.4,5.5-8,6.4
		c-3.2,0.8-6.3,0.5-8.9-1.7C100,69.3,99.4,67.6,99.3,65.7z M112.5,57.7c-1.2-0.3-2.2-0.1-3.3,0c-3.1,0.5-5.7,2-7.3,4.7
		c-2.2,3.5-0.7,7.3,3.3,8.2c4,1,7.5-0.3,10.3-3.2c0.2-0.2,0.4-0.4,0.3-0.7c-4.1,0.3-5.3-2.4-5-5.4C111,60.2,111.7,59,112.5,57.7z"/>
	<path class="st6" d="M103.6,128.7c0.5,0,0.6,0.3,0.7,0.7c0.4,1.6,1,3.2,2.2,4.5c0.6,0.7,0.5,1.3-0.3,1.6c-0.5,0.2-0.7,0.5-0.9,0.9
		c-0.5,1.1-0.8,2.2-1,3.4c-0.1,0.5-0.2,1.1-0.9,1c-0.7,0-0.6-0.6-0.7-1c-0.2-0.9-0.2-1.9-0.5-2.8c-0.2-0.7-0.5-1.2-1.3-1.4
		c-0.8-0.3-0.9-0.9-0.2-1.4c0.2-0.1,0.3-0.3,0.5-0.4c1.7-0.8,2.3-2.1,2-4C103,129.4,102.9,128.8,103.6,128.7z M103.9,133
		c-0.4,0.7-1.1,1.1-1.8,1.6c0.7,0.5,0.9,1.3,1.3,2.1c0.4-0.8,0.8-1.5,1.3-2.1C104.5,134.1,104.3,133.6,103.9,133z"/>
	<path class="st6" d="M196.4,63.5c0,0.4-0.1,0.7-0.4,0.8c-1.3,0.5-1.9,1.5-2.3,2.8c-0.1,0.5-0.2,1.1-0.9,1.1c-0.7,0-0.8-0.6-0.9-1
		c-0.3-1.1-0.7-2.2-2-2.6c-0.3-0.1-0.6-0.4-0.5-0.8c0-0.4,0.3-0.5,0.7-0.7c1.4-0.4,2.1-1.4,2.3-2.9c0-0.4-0.1-0.9,0.5-1
		c0.5-0.1,0.7,0.3,0.9,0.6c0.9,1,1.3,2.4,2.4,3.2C196.4,63.2,196.4,63.4,196.4,63.5z M191.8,63.9c0.4,0.5,0.7,1,1,1.5
		c0.4-0.7,1-1.3,1.7-1.7c-0.4-0.5-0.7-1-1.1-1.6C193,62.8,192.5,63.4,191.8,63.9z"/>
	<path class="st6" d="M98.1,127.3c0,1.1-0.7,1.9-1.4,1.8c-0.8-0.1-1.1-0.7-1.1-1.4c0-0.8,0.6-1.6,1.3-1.5
		C97.7,126.1,98.1,126.7,98.1,127.3z"/>
	<path class="st6" d="M102,118.6c0.1,0.7-0.2,1.2-1,1.2c-0.6,0.1-1.2-0.6-1.2-1.4c0-0.7,0.2-1.3,1.1-1.4
		C101.5,117,102,117.7,102,118.6z"/>
	<path class="st6" d="M186.5,53.6c0-0.7,0.3-1.2,1-1.1c0.7,0,0.9,0.6,0.9,1.2c0,0.6-0.2,1.2-0.8,1.2
		C186.7,54.8,186.6,54.1,186.5,53.6z"/>
	<path class="st6" d="M191,53.5c-0.1,0.6-0.2,1.1-0.9,1.2c-0.6,0-0.9-0.4-0.9-0.9c0-0.6,0.3-1.3,1-1.3C190.9,52.4,190.9,53,191,53.5
		z"/>
	<path class="st6" d="M189,47.2c0-0.6,0.3-0.9,0.9-0.9c0.5,0,0.8,0.4,0.8,0.9c0,0.6-0.3,0.9-0.9,0.9C189.2,48.1,189,47.7,189,47.2z"
		/>
	<path class="st6" d="M152.8,162c-6.3,0.2-13.7-0.8-21-2.7c-5.3-1.4-9.2-4.8-11.7-9.6c-2.3-4.4-3.7-9.2-4.8-14.1
		c-1.6-6.7-2.5-13.5-3.5-20.2c-0.7-4.7-1.1-9.3-0.9-14c0.1-4.3,0.6-8.6,2-12.7c1.1-3.2,3-5.7,5.6-7.8c1.9-1.5,4.3-1.8,6.5-2.1
		c2.1-0.3,4.3-0.3,6.5-0.2c4.9,0.1,9.7,1.3,14.3,3c2,0.8,4.1,1.5,6,2.5c0.5,0.3,0.9,0.1,1.4,0c5.4-1.3,10.8-2.6,16.2-3.8
		c4-0.8,7.9-1.4,12-1c5.2,0.6,12.1,4.6,13.4,11.8c0.3,1.8,0.8,3.5,1.2,5.3c0.6,3,0.4,5.9,0.2,8.9c-1,11.6-3.3,22.9-6.7,34
		c-1.1,3.7-2.5,7.3-4,10.9c-2.3,5.6-7,8.3-12.5,9.6C165.7,161.7,161.2,162,152.8,162z M153.4,153c0.8,0,1.5-0.1,2.3-0.2
		c3.8-0.6,7.6-1.1,11.3-2.4c4.3-1.5,7.3-4.2,9.2-8.4c1.3-3,2-6.1,2.8-9.2c1.7-6.5,2.8-13.1,4.3-19.6c0.7-3.2,1.6-6.4,1.3-9.8
		c-0.4-4.8-4-7.1-8.3-6.9c-2.2,0.1-4.4,0.3-6.6,0.3c-4.5-0.2-8.9,0-13.4-0.2c-1.5,0-3-0.2-4.5-0.1c-5.1,0.4-10.3,0.1-15.4,0.3
		c-2.6,0.1-5.2-0.4-7.8-0.1c-2.6,0.3-4.7,1.5-5.7,4.1c-1,2.6-0.9,5.4-0.3,8.1c0.9,4.3,1.9,8.5,2.8,12.8c1.2,5.8,2.4,11.7,4.1,17.4
		c1.4,4.9,4,8.8,8.9,10.9C143.2,151.8,148.3,152.4,153.4,153z M138.5,80.9c-1.8-0.5-3.7-0.6-5.5-0.9c-3.1-0.4-5.9,0.3-8.1,2.7
		c-1.8,2-1.6,3.7,0.8,4.9c0.2,0.1,0.4,0.2,0.6,0.2c3.7,1.7,7.4,0.7,11.3-0.1c-1-0.4-1.7-0.8-2.3-1.3c-1.5-1.2-1.4-3,0.2-4.1
		c0.6-0.4,1.3-0.7,2-0.9C137.8,81.2,138.2,81.3,138.5,80.9z M149.8,84.9c0-0.1,0-0.1,0-0.2c-0.9-0.4-1.9-0.8-2.8-1.1
		c-2.3-0.9-4.7-1.8-7.2-1.5c-1.3,0.1-2.6,0.4-3.8,1.1c-0.5,0.3-0.9,0.8-0.6,1.5c0.5,1.1,3.6,2.7,4.8,2.4
		C143.4,86.3,146.6,85.6,149.8,84.9z M126.6,80c-0.5,0.1-0.8,0.1-1.1,0.2c-2.3,0.4-4.5,1.1-6.3,2.6c-2.1,1.8-2.2,4.7,1,5.9
		c2.1,0.8,4.3,0.6,6.8,0.5c-0.9-0.4-1.5-0.7-2.1-1c-2.2-1.3-2.7-3.3-1.2-5.4C124.3,81.6,125.4,80.9,126.6,80z M125.5,146.4
		c-0.1-0.6-0.4-1.1-1.1-1.1c-0.5,0-0.7,0.3-0.7,0.7c0,0.6,0.3,1.1,1,1.2C125.3,147.3,125.5,146.9,125.5,146.4z M188.6,89.6
		c0-0.5-0.2-0.9-0.7-1c-0.6,0-0.8,0.4-0.9,0.9c0,0.5,0.2,1,0.8,1C188.4,90.5,188.5,90,188.6,89.6z M119.9,127.9
		c-0.4,0.1-0.8,0.2-0.8,0.7c0,0.5,0.3,0.8,0.8,0.9c0.5,0,0.8-0.3,0.8-0.7C120.7,128.2,120.4,127.9,119.9,127.9z M190.5,90.5
		c0-0.5-0.1-0.9-0.7-0.9c-0.5,0-0.8,0.2-0.8,0.7c0,0.5,0.2,0.9,0.7,0.9C190.2,91.3,190.4,90.9,190.5,90.5z M181.9,144.9
		c0-0.4-0.3-0.7-0.7-0.7c-0.5,0-0.8,0.3-0.8,0.8c0,0.4,0.3,0.7,0.7,0.7C181.6,145.6,181.9,145.3,181.9,144.9z M179.2,147.2
		c-0.4,0-0.7,0.3-0.7,0.7c0,0.4,0.2,0.7,0.7,0.7c0.5,0,0.8-0.3,0.7-0.8C179.9,147.4,179.6,147.2,179.2,147.2z M126.5,144.4
		c0-0.4-0.2-0.7-0.7-0.8c-0.4,0-0.7,0.2-0.7,0.7c0,0.4,0.2,0.7,0.7,0.7C126.2,145.1,126.4,144.8,126.5,144.4z M183.6,91.7
		c0.5,0,0.8-0.3,0.8-0.7c0-0.3-0.1-0.7-0.6-0.7c-0.6,0-0.7,0.4-0.8,0.9C183,91.5,183.2,91.7,183.6,91.7z M121.7,95
		c0-0.4-0.3-0.6-0.7-0.6c-0.4,0-0.7,0.2-0.7,0.6c0,0.4,0.3,0.6,0.7,0.6C121.4,95.6,121.6,95.3,121.7,95z"/>
	<path class="st6" d="M148.5,32.9c-1.7-0.1-3.6,0.1-5.4-0.2c-0.3,0-0.5-0.1-0.8-0.2c-0.3-0.2-0.5-0.5-0.4-0.9
		c0.1-0.3,0.4-0.4,0.8-0.4c3.4,0.5,6.9,0.3,10.3,0.6c0.4,0,0.9-0.1,0.9,0.5c0,0.6-0.5,0.5-0.9,0.5C151.6,32.9,150.2,32.9,148.5,32.9
		z"/>
	<path class="st6" d="M149.4,40.3c0.9,0,1.8,0,2.7,0c0.3,0,0.8,0.1,0.8,0.6c0,0.4-0.4,0.6-0.8,0.6c-2.1,0.1-4.2,0.1-6.3,0.2
		c-0.5,0-1,0-1.1-0.5c0-0.6,0.5-0.6,1-0.7C146.9,40.3,148.2,40.3,149.4,40.3z"/>
	<path class="st6" d="M141.4,29.7c3.6-0.3,9.6,0.3,9.9,1c-0.2,0.4-0.6,0.3-0.9,0.3c-2.6-0.1-5.2-0.2-7.8-0.3
		C141.9,30.6,141.5,30.4,141.4,29.7z"/>
	<path class="st6" d="M144.8,34.1c0.6,0,1.3,0,1.9,0c0.4,0,0.7,0.2,0.7,0.6c0,0.4-0.3,0.6-0.7,0.6c-1.3,0.1-2.6,0.2-3.9,0.2
		c-0.4,0-1-0.1-1-0.7c0-0.6,0.5-0.7,0.9-0.7C143.5,34.1,144.1,34.2,144.8,34.1C144.8,34.1,144.8,34.1,144.8,34.1z"/>
	<path class="st6" d="M133.7,118c-0.2-0.7,0.4-0.8,0.8-0.9c1.7-0.5,3.4-0.8,5.2-1.1c5.7-0.8,11.4-1.1,17.2-1c4.1,0.1,8.1,0.5,12,1.6
		c0.8,0.2,1.5,0.5,2.3,0.9c0.3,0.1,0.7,0.3,0.5,0.7c-0.2,0.3-0.5,0.3-0.8,0.1c-4.8-2-9.8-2.3-14.9-2.4c-5.2-0.1-10.4,0.2-15.6,0.9
		c-1.9,0.2-3.8,0.6-5.7,1.1C134.5,118,134.1,118.2,133.7,118z"/>
	<path class="st6" d="M151.8,126.5c6.5-0.1,12,0.5,17.5,1.8c0.1,0,0.2,0,0.3,0c0.3,0.1,0.9,0.2,0.8,0.6c-0.1,0.6-0.7,0.4-1,0.3
		c-0.5-0.1-1.1-0.2-1.6-0.4c-6.3-1.5-12.8-1.7-19.3-1.4c-4.2,0.2-8.4,0.6-12.5,1.4c-0.4,0.1-1.2,0.5-1.3-0.2
		c-0.2-0.8,0.7-0.7,1.2-0.8c3.7-0.7,7.3-1.1,11.1-1.3C148.8,126.5,150.7,126.5,151.8,126.5z"/>
	<path class="st6" d="M143.5,120.5c-2,2.5-2,2.5-4.3,0.6c0,0.9,0.3,1.8,0.5,2.6c0.2,0.6,0.3,1.2-0.5,1.5c-0.8,0.2-1-0.5-1.1-1
		c-0.3-1.3-0.7-2.6-0.9-4c0-0.5,0-1,0.5-1.3c0.5-0.3,1-0.2,1.5,0c0.8,0.5,1.3,1.2,2.1,1.8c0.8-0.7,1.2-1.6,1.8-2.5
		c0.2-0.4,0.5-0.8,1-0.7c0.6,0.1,0.8,0.5,0.9,1c0.4,1.7,0.6,3.4,0.7,5.2c0,0.4-0.1,0.9-0.6,1c-0.5,0.1-0.7-0.3-0.9-0.7
		c-0.3-0.8-0.4-1.7-0.5-2.5C143.7,121.2,143.8,120.8,143.5,120.5z"/>
	<path class="st6" d="M156,123.3c-0.5-0.4-1.5-0.3-1.3-1.1c0.2-0.8,1-0.6,1.7-0.6c0.1,0,0.3,0,0.4,0c0.7,0.1,1.6,0,1.8,0.8
		c0.3,0.9-0.5,1.4-1.1,1.9c-1.1,0.9-2.4,1-3.7,0.4c-1.2-0.6-1.5-1.8-1.5-3.1c0.2-3,2.8-5,5.2-4.2c0.6,0.2,1,0.5,1.4,1
		c0.2,0.3,0.5,0.7,0.2,1.1c-0.3,0.4-0.8,0.2-1.1,0c-0.9-0.6-1.8-0.6-2.6,0.1c-0.9,0.8-1.4,1.7-1.1,2.9
		C154.4,123.3,155,123.6,156,123.3z"/>
	<path class="st6" d="M151.7,122.8c0.1,0.6,0.1,1.2,0,1.7c-0.1,0.4-0.3,0.7-0.8,0.7c-0.5,0-0.6-0.3-0.8-0.7c-0.2-0.4,0-1.1-0.8-1
		c-0.7,0-1,0.3-1.2,1c-0.1,0.4-0.4,0.7-0.9,0.6c-0.5-0.1-0.6-0.5-0.6-0.9c0.2-1.7,0.4-3.3,1.2-4.8c0.4-0.8,1-1.4,2-1.3
		c1,0.1,1.5,0.9,1.6,1.8C151.6,120.8,151.7,121.8,151.7,122.8z M148.6,122c0.5,0,0.8,0.2,1.2-0.1c0-0.7,0-1.4-0.4-2.2
		C148.9,120.3,148.8,121.1,148.6,122z"/>
	<path class="st6" d="M166.4,118.4c0.9,0,1.8,0.3,2.3,1.1c0.2,0.4,0.3,0.8,0,1.1c-0.4,0.4-0.7,0.2-1.1-0.1c-1-0.7-1.5-0.7-2.4,0.2
		c-1,1.1-1.3,2.4-0.6,3.1c0.5,0.6,1.2,0.7,2,0.5c0.6-0.2,1.3-0.4,1.5,0.5c0.2,0.8-0.5,1-1.1,1.2c-1.4,0.4-2.8,0.1-3.7-1
		c-1-1.2-0.9-2.5-0.3-3.9C163.7,119.4,165,118.4,166.4,118.4z"/>
	<path class="st6" d="M155.1,136.2c0,2.3-1.3,3.8-3.3,3.7c-1.8-0.1-3.2-2.1-2.7-4.2c0.3-1.2,0.7-2.4,1.4-3.5c0.5-0.7,0.9-1.3,1-2.2
		c0-0.3,0.1-0.5,0.4-0.5c0.2,0,0.4,0.1,0.5,0.3C153,130.4,155.1,135.5,155.1,136.2z M152.2,131.7c-1,1.2-1.6,2.5-2,3.8
		c-0.4,1.6,0.3,3.2,1.6,3.5c1.1,0.3,2.2-0.8,2.5-2.5c0.1-0.3,0-0.6-0.1-0.9C153.9,134.1,152.8,133.1,152.2,131.7z"/>
	<path class="st6" d="M152.4,113.5c-0.6-0.5-0.6-1.2-0.8-1.8c-0.4-1.1-1-2-2.3-2.3c-0.4-0.1-0.6-0.2-0.7-0.7c0-0.5,0.3-0.5,0.6-0.6
		c1.6-0.7,2.7-1.8,2.5-3.8c0-0.4,0.1-0.8,0.6-0.8c0.3,0.1,0.3,0.4,0.3,0.7c0.2,1.6,0.8,3,2.2,4c0.5,0.3,0.5,0.8,0,1.1
		c-1.3,0.7-1.7,1.9-1.9,3.2C152.9,113,152.9,113.3,152.4,113.5z M152.3,111.3c0.4-1.1,0.9-1.9,1.6-2.6c-0.7-0.6-1.1-1.3-1.6-2.2
		c-0.5,1-1.2,1.6-2,2.2C151.3,109.4,151.9,110.2,152.3,111.3z"/>
	<path class="st6" d="M162.2,119.9c-0.3,1.7-0.6,3.4-0.9,5.1c-0.1,0.5-0.3,1.2-1,1.1c-0.8-0.1-0.8-0.8-0.8-1.4
		c0.1-1.9,0.5-3.7,1-5.4c0.1-0.5,0.4-1.1,1-0.9c0.6,0.1,0.6,0.7,0.6,1.3C162.1,119.7,162.1,119.8,162.2,119.9
		C162.1,119.9,162.1,119.9,162.2,119.9z"/>
	<path class="st6" d="M129.5,100.2c-0.1,0.1-0.1,0.3-0.2,0.5c-0.8,1.1-1.6,2.1-2.4,3.2c-0.2,0.3-0.5,0.6-0.8,0.3
		c-0.3-0.3-0.2-0.6,0-0.9c0.7-1.1,1.5-2.1,2.2-3.2c0.2-0.3,0.6-0.4,0.9-0.3C129.4,99.8,129.5,99.9,129.5,100.2z"/>
	<path class="st6" d="M173.3,141.9c-0.1,0.2-0.3,0.5-0.5,0.8c-0.8,0.9-1.5,1.8-2.3,2.7c-0.2,0.3-0.5,0.5-0.9,0.3
		c-0.4-0.3-0.1-0.6,0.1-0.9c0.9-1.1,1.9-2.1,2.7-3.2c0.1-0.2,0.3-0.4,0.6-0.3C173.2,141.4,173.4,141.6,173.3,141.9z"/>
	<path class="st6" d="M178.2,100.2c0.3,0,0.5,0.2,0.6,0.4c0.8,1,1.6,2,2.4,3.1c0.2,0.2,0.4,0.6,0,0.8c-0.3,0.2-0.6,0-0.8-0.2
		c-0.8-1.1-1.7-2.1-2.5-3.2C177.6,100.6,177.7,100.2,178.2,100.2z"/>
	<path class="st6" d="M137,145.7c-0.3,0-0.5-0.2-0.7-0.4c-0.7-0.8-1.5-1.5-2.4-2.1c-0.3-0.2-0.7-0.5-0.3-0.9
		c0.3-0.4,0.6-0.1,0.9,0.1c1,0.6,1.8,1.4,2.6,2.3c0.2,0.2,0.3,0.4,0.3,0.7C137.3,145.6,137.2,145.7,137,145.7z"/>
</g>
</svg>
