<?xml version="1.0" encoding="utf-8"?>
<!-- Generator: Adobe Illustrator 28.3.0, SVG Export Plug-In . SVG Version: 6.00 Build 0)  -->
<svg version="1.1" id="Capa_1" xmlns="http://www.w3.org/2000/svg" xmlns:xlink="http://www.w3.org/1999/xlink" x="0px" y="0px"
	 viewBox="0 0 800 420" style="enable-background:new 0 0 800 420;" xml:space="preserve">
<style type="text/css">
	.st0{fill:#FFFFFF;}
	.st1{fill:none;stroke:#000000;stroke-width:2;stroke-miterlimit:10;}
	.st2{fill:none;stroke:#000000;stroke-miterlimit:10;}
	.st3{fill:none;}
	.st4{fill:#9B48DB;stroke:#9B48DB;stroke-width:2;stroke-miterlimit:10;}
	.st5{stroke:#343135;stroke-miterlimit:10;}
	.st6{fill:none;stroke:#343135;stroke-width:2;stroke-miterlimit:10;}
	.st7{fill:#9B48DB;}
	.st8{fill:#9C03B7;stroke:#9C03B7;stroke-width:2;stroke-miterlimit:10;}
	.st9{fill:#9C03B7;stroke:#9C03B7;stroke-miterlimit:10;}
	.st10{fill:#C9C9C9;}
	.st11{fill:#323232;}
</style>
<g id="Capa_1_00000080911308266711618990000012641179313008275888_">
	<path d="M-701.1,102.1c2.2,0,4.3-0.2,6.2,0.1c2.8,0.4,3.7,2.1,2,4.2c-2,2.5-4.5,4.7-7.1,6.4c-2.6,1.7-6.2,2-8.4,3.9
		c-2,1.8-2.2,5.6-4.1,7.7c-5.8,6.4-8.2,14.6-12.7,21.6c-0.4,0.7-0.8,1.5-0.8,2.2c0.1,8.5,0.4,17,0.6,25.5c0,0.5,0.3,1,0.6,2
		c11.7-3.9,23.2-7.8,34.7-11.5c3.6-1.2,7.2-2.3,10.9-3.1c1.3-0.3,3.3,0.2,3.9,1c0.5,0.8-0.1,2.8-0.8,3.9c-2.8,4.3-7,7.1-11.5,9.4
		c-2.8,1.4-4.6,3-5.5,6.3c-1.3,4.5-4.5,8.1-8.2,10.8c-4,2.9-8.5,5.3-12.8,7.8c-1.1,0.7-2.4,1.1-4.2,1.9c3.1,5.8,5.4,11.7,9.7,16.4
		c0.4,0.5,1,0.9,1.6,1.3c7.4,4.9,21.9,1,26-6.9c2.7-5.3,4.1-10.9,4.5-16.8c1.4-17.8,8.7-33.7,16.8-49.2c4-7.7,8.6-15,13-22.5
		c1-1.6,2.1-3.2,3.5-4.4c2.2-1.9,4.7-1.3,6.1,1.3c0.7,1.3,1.1,2.8,1.4,4.2c0.3,1.3,0.3,2.7,0.3,4c0,9.6-0.5,19,0.2,28.7
		c0.7,9.3-1.1,18.9-2.3,28.2c-0.8,6.5-2.9,12.7-6.1,18.4c-7.7,13.9-11.1,29-12.2,44.6c-0.6,7.5-0.6,15.1-0.3,22.7
		c0.5,12.2-1.1,24.1-4.3,35.7c-3.2,11.3-8.6,21.6-17.8,28.9c-8.1,6.5-10.9,14.4-10.2,24.2c0.6,8.4-2.1,16-6,23.3
		c-3.8,7.1-9.6,11.6-17.5,13.3c-5.3,1.1-10.6,2.3-15.9,3.2c-6.7,1.2-13.2,0.3-19.7-1.4c-18.4-4.9-27.8-22.3-28.7-36.1
		c-0.3-4.8,0.8-9.4,3.2-13.7c0.6-1,1-2.6,0.6-3.7c-2.9-8.2-3.2-16.7-2.8-25.3c0.6-12.2-0.8-24-4.3-35.7c-2-6.5-3.4-13.1-5.4-19.5
		c-2.9-9.4-6.1-18.8-9.3-28.1c-1.8-5.4-3.5-10.8-3.4-16.6c0.1-4,0.8-7.8,3-11.2c0.5-0.8,0.8-2.4,0.4-3.2c-5.1-9.9-5.8-20.8-7.3-31.5
		c-0.4-2.5-0.4-5.1-0.8-7.7c-1.2-7,1.9-12.4,6.5-17.1c9.9-10,20-19.8,30.1-29.6c3.2-3.2,7.6-4.1,11.7-5.3c5.5-1.5,11-2.7,16.5-4.2
		c1.5-0.4,2.9-1.3,4.1-2.4c1.7-1.5,3.2-3.3,4.7-5c11.2-13.5,23.9-25.5,37-36.9c1.1-1,2.4-1.9,3.7-2.5c2.5-1.1,4,0,3.8,2.7
		c-0.1,1.3-0.4,2.7-1.1,3.9c-1.6,3-3.3,5.9-5.2,8.7c-2.8,4-5.6,7.8-6.5,12.9C-697.7,95.8-699.6,98.8-701.1,102.1z M-706.4,299.5
		c0.7,2.5,1.4,4.9,2.1,7.4c2.2,8,3.8,16.1,2.5,24.5c-1.7,11.4-7.4,20.8-15.4,28.9c-1.1,1.1-2.7,1.8-1.8,4c0.3,0.6-0.8,2.2-1.7,2.7
		c-0.5,0.3-2.4-0.6-2.5-1.2c-0.2-0.9,0.2-2.5,1-3c4.4-3,7.5-7.1,10.2-11.4c9.9-15.8,10-32.4,3.8-48.6c-2-0.9-4-1.2-4.6-2.3
		c-1.2-2.2,1.2-2.8,2.6-3.5c-1.4-5.2-2.8-10.2-4.2-15.5c-2.4,4.9-4.1,9.8-5,15c-1.5,8.4-0.1,16.7,1.3,25c0.9,5.3,0.2,10.4-1.2,15.5
		c-0.2-5,0-10-0.3-14.9c-0.2-3.1-1.3-6.1-1.9-9.1c-2.1-9.8-1.5-19.4,2.3-28.7c1.2-2.9,2.4-5.9,3.6-8.8c-0.2-0.2-0.4-0.4-0.7-0.5
		c-1.6,1.3-3.4,2.5-4.9,4c-4.4,4.6-8.7,9.2-13,13.9c-0.6,0.7-1.2,1.6-1.3,2.4c-0.2,7.7-4.2,13.6-8.8,19.2c-2.6,3.1-5.7,5.9-9.8,7.3
		c8.3-6.6,13.9-14.6,15.8-25.5c-1.9,0.4-3.1,0.7-4.3,0.9c-1.3,0.1-2.7,0.3-4,0.1c-13.1-1.6-16.1-17.9-11.4-24.9c2.1-3.1,2-6,1.2-9.2
		c-0.4-1.4-0.9-2.8-1.3-4.3c-1.4-5.6-2.8-11.3-4.1-16.9c-0.5-2.1-0.6-4.2-1-6.7c-8.2,6.4-16.7,10-26.8,5.4
		c3.1,10.8,6.3,21.2,9.1,31.6c2.5,9.1,4.8,18.3,6.8,27.6c2.1,9.9,1.9,19.9,1.9,29.9c0,6.3,0.6,12.5,3.6,18.2
		c5.9,11,12,21.9,23.3,28.6c0.6,0.3,1.2,0.8,1.6,1.3c0.4,0.5,0.6,1.2,0.9,1.8c-3.7-1.8-7.2-3.7-9.9-6.3c-4.9-4.8-9.3-10-13.4-14.5
		c2.2,13.1,15.9,26.3,29.7,28.1c1.5-3.5,1.5-3.5,4.8-2.5c0.9,0.3,1.9,0.4,2.8,0.2c9-2,17.3-5.3,23.6-12.5
		c5.1-5.9,9.1-12.4,12.2-19.5c2.5-5.7,6.2-10.4,10.6-14.7c4-4,8.1-8.1,11.3-12.7c10.8-15.6,14-33.5,12.8-51.9
		c-1.5-24.5,2.2-47.7,12.8-69.8c3-6.1,5.2-12.5,5.9-19.3c0.7-6.2,1.6-12.4,1.9-18.6c0.2-5,0-10-0.8-14.9c-0.9-5.8-9.7-11-16.1-5.2
		c-2.4,2.1-4.4,4.8-5.9,7.6c-2.7,5-4.8,10.3-7.1,15.5c-2.8,6.2-4.2,12.8-4.9,19.6c-0.8,7.6-1.3,15.4-4.6,22.6
		c-3.6,7.8-8.9,13.1-17.9,13.6c-1.5,0.1-3.1,0.4-5,0.6c2,0.8,3.6,1.4,5.3,2c-0.1,0.3-0.2,0.6-0.3,0.9c-3.3,0.1-6.6-0.4-9.4-2.4
		c-4.3-3.2-8.4-6.8-10.7-12c-1.6-3.6-3.4-7-5.1-10.6c-5,0.8-9.8,2-14.6,2.3c-3.4,0.2-5.3,1.8-7.5,4.9c2.1-1,3.5-1.6,4.9-2.3
		c0.1,0.2,0.2,0.5,0.4,0.7c-2.2,1.5-4.4,3.1-6.6,4.6c-4.1,2.9-8.2,5.7-12.1,8.9c-2.4,1.9-4.6,4.3-4.5,7.8
		c0.1,12.8,2.8,25.1,6.2,37.5c5.8-4.3,11.4-8.6,17-12.8c0.5-0.4,0.9-1,1.3-1.5c4.7-5.5,6.2-12.2,8-18.9c0.6-2.3,1.2-4.6,1.8-6.8
		c0.4,0.1,0.8,0.2,1.1,0.3c-1.7,7.5-3.4,14.9-5.4,23.4c2.1-2.7,4.1-4.5,5.2-6.8c2.2-4.5,4.1-9.1,5.9-13.7c1.2-3.1,1-3.2,3.6-4.2
		c-2.9,7.5-5.8,14.9-8.7,22.4c-0.2,0,0.2,0.1,0.5,0c9.1-2.2,18.1-4.5,27.2-6.5c6.7-1.5,13.5-2.7,20.3-3.7c2.4-0.3,5.8-0.8,6.6,2.4
		c0.7,2.7-2.2,4.1-4.2,5.3c-3.7,2.2-7.7,4-11.4,6.2c-1.2,0.7-2.5,2.1-2.9,3.5c-1.2,4-3.6,6.9-6.6,9.5c-4,3.4-8.6,5.5-13.6,7.1
		c-3.3,1.1-3.8,1.8-3.6,5.3c0.3,5.6,1.9,11,5,15.7c3.3,5,6.7,9.8,10.1,14.7c2.3,3.3,4,6.8,3.6,11.1
		C-695,310.8-701.5,305.7-706.4,299.5z M-792.9,206.5c4.4-3,7.8-5.4,11.3-7.7c4.1-2.6,8.2-5.3,12.4-7.7c2.7-1.6,3.9-3.7,3.2-6.7
		c-0.9-4.1-1.6-8.3-3-12.2c-1.6-4.5-0.6-7.8,2.6-11c4.3-4.3,8.4-8.8,12.4-13.4c1.7-1.9,3.5-3.1,5.9-3.9c6-2,12.1-3.9,17.8-6.6
		c8.4-4,14.9-10.1,18.5-19.5c-4.5,1.7-8.4,3.6-12.5,4.7c-3.9,1-8.1,2-11.9,1.4c-6.9-1.1-7.2-1.3-8.3-8.4c-3.5,0.9-7,1.8-10.6,2.6
		c-4.5,1-8.1,3.5-11.3,6.8c-4.3,4.5-8.7,8.9-13.3,13.1c-5.2,4.9-10.6,9.7-15.9,14.5c-3,2.8-4.8,6.1-4.6,10.4c0.3,4.7,0.5,9.3,0.7,14
		c0.2,0,0.3,0,0.5,0c0.2-2.1,0.5-4.2,0.7-6.4c0.2,0,0.4,0.1,0.6,0.1c1.6,10,3.2,20,4.7,30c-0.3,0.1-0.6,0.1-1,0.2
		c-1.2-5-2.3-10-3.5-15c-0.3,0.1-0.6,0.2-0.9,0.2C-796.3,192.8-794.6,199.5-792.9,206.5z M-752,184.7c0.7,2.1,1.2,3.9,2,5.6
		c0.7,1.6,1.8,3.2,2.7,4.8c-3.8-2.1-4.8-6.2-7-9.7c-5,1.5-8.9,4.5-13,7.4c-4.7,3.3-9.3,6.5-14.2,9.4s-5.6,4-4.2,9.4
		c0.4,1.4,0.9,2.9,1.5,4.2c3.7,8.1,12.8,11.1,20.1,6.2c7-4.6,13.7-9.7,20.3-14.9c2.8-2.2,5.5-3.7,9-4.3c12.2-1.9,23.5-6.2,33.4-13.7
		c3.3-2.5,5.9-5.4,7.1-10.2c-3.3,1.7-5.9,3.3-8.7,4.4c-3.4,1.4-6.8,2.7-10.3,3.6c-3.9,1-7.7-0.3-10.8-2.2c-1.5-0.9-1.8-3.9-2.6-5.9
		C-734.8,180.7-743,182.6-752,184.7z M-711.4,249.1c-4.3,0.9-8.3,1.8-12.2,2.7c-9,2-15.4,8.1-21.8,14c-1,0.9-1.6,2.2-2.2,3.4
		c-5.3,12.5,0.8,18.5,12.3,18.7c2.4,0,4.5-0.8,6.1-2.8c1.1-1.4,2.5-2.5,3.4-4.1c3.4-6.2,9-9.1,15.4-11c5.6-1.7,10.9-4.1,15.4-7.9
		c2-1.7,3.5-3.6,4.4-6.7c-5.7,2.5-11.1,3.7-16.9,2.8C-711.9,257.4-714,253.5-711.4,249.1z M-753.5,183c7.7-1.8,15-3.5,22.4-5.1
		c2-0.5,2.9-2,3.1-3.8c1.2-8,1.5-16-0.3-24.3c-2.8,1.8-5.3,3.5-7.9,5.2c-0.4-0.4-0.8-0.8-1.2-1.3c6.8-4.6,12.3-10.1,15.2-18.4
		c-7.6,5.5-15.5,8.4-23.9,10.2c-4.5,1-6.5,3.3-6.6,7.7c-0.3,7.6-0.6,15.1-0.8,22.7C-753.6,178.1-753.5,180.3-753.5,183z
		 M-676.5,163.7c-0.2-0.4-0.4-0.8-0.6-1.2c-1.9,0.5-3.8,0.9-5.7,1.5c-12.6,4-25.2,7.9-37.8,12c-1.4,0.4-3.1,1.5-3.5,2.7
		c-0.8,2,0.8,3.5,2.5,4.5c3.8,2.1,7.7,2.3,11.7,0.5c7.7-3.5,15.5-7,23.1-10.9C-682.7,170.8-679.1,167.8-676.5,163.7z M-693.6,104.9
		c-0.2-0.3-0.4-0.7-0.6-1c-2.6,0.3-5.3,0.4-7.8,1c-9.1,2.1-18.2,4.3-27.2,6.5c-3.2,0.7-6.4,1.3-9.5,2.1c-2.7,0.7-3.3,2.5-1.8,4.9
		c1.5,2.3,3.8,3.8,6.4,3.6c3.6-0.2,7.3-0.7,10.7-1.8c5.8-1.9,11.4-4.2,17.1-6.5c3.1-1.3,6.2-2.8,9-4.6
		C-696,108.1-694.9,106.3-693.6,104.9z M-701.8,383.4c3.2-4.9,5.6-10,6.7-16.2c-1.8,2.7-3.2,5-4.8,7.2c-1.7,2.3-3.6,4.4-5.5,6.5
		c-7.7,8.4-25,14.7-39.2,6.7c-4.5-2.5-8.8-5.3-12.8-8.4c-2.4-1.8-4.2-4.5-6.2-6.9c3.7,8.3,9.4,14.8,17.8,18.6
		c10.7,4.8,21.9,5.7,33.3,3.2c3.4-0.7,7.1-2.4,9.6-4.8c6.6-6.2,10-14.3,11-23.3c0-0.1-0.2-0.3-0.4-0.5
		C-693.8,372.5-696,378.9-701.8,383.4z M-731.1,109.2c7.3-1.7,13.5-3.7,19.8-4.6c6.2-0.8,9.5-4.3,11.5-9.7c0.3-0.9,0.9-1.7,1-2.7
		c0.2-1.9,0.4-3.8,0.1-5.6c-0.5-3-2.5-4-5.4-2.8c-1.4,0.6-2.7,1.3-3.9,2.1C-716.6,92.3-723.2,100.8-731.1,109.2z M-671.8,241.7
		c-0.1-0.3-0.3-0.6-0.4-0.8c-5.1-0.2-10.1-0.2-15.1,1.2c-4.6,1.3-9.2,2.3-13.7,3.6c-1.7,0.5-3.3,1.1-4.9,1.8c-2,0.9-3.3,2.3-2.9,4.7
		c0.4,2.5,2.2,3.3,4.3,3.6c1.3,0.2,2.8,0.2,4-0.1c3.7-1.1,7.6-2.2,11.1-3.8c4.9-2.3,9.6-5,14.4-7.6
		C-673.8,243.6-672.9,242.5-671.8,241.7z M-755.8,154.9c-3.3,3.1-7,6.3-10.3,9.8c-1,1.1-1.6,3.3-1.3,4.7c1.1,5.8,2.6,11.4,4,17.3
		c2.4-1.1,4.8-2.2,7.7-3.5C-755.8,173.6-755.8,164.1-755.8,154.9z M-771.8,353.9c-3.7,10.7-0.8,19.7,4.7,28.1
		c8.4,12.9,20.9,17.5,36.6,17C-757,393.5-766.9,382.7-771.8,353.9z M-638.4,145.4c0.3-2.6,0.7-4.6,0.8-6.6c0.2-4.6,0.3-9.2,0.2-13.8
		c0-1.1-1-3.1-1.7-3.2c-1.2-0.2-2.8,0.6-3.8,1.5c-1.1,0.9-1.8,2.4-2.5,3.6c-2,3.5-3.9,7.1-5.9,10.6c-0.5,0.9-0.8,1.8-1.5,3.2
		C-647,139.7-642.8,142.2-638.4,145.4z M-753,270.7c-5.6,4.8-4.5,16.1,0.7,21.1c4.1,3.9,10.7,4.1,14.5,0.6
		C-748.2,290.5-753.5,283-753,270.7z M-685.6,66c-0.4-0.3-0.9-0.6-1.3-0.9c-5.9,5.1-11.8,10.3-17.6,15.4c3.1,1.2,5.7,2.2,8.7,3.4
		C-692.1,78.5-687.2,73.2-685.6,66z M-795,222.5c0.5,2.8,0.9,5.6,1.6,8.3c1.6,6,5.5,9.1,11.7,9.2c6.6,0.1,12-2.9,16.8-7
		c0.6-0.5,0.9-1.4,1.9-2.8C-778.6,240.8-788.5,238.1-795,222.5z M-792.1,219c2.1,12.8,13.4,19.2,22.1,12.5
		C-779.8,231.4-784.7,228.6-792.1,219z M-702.3,372.4c-7.5,8.9-18.2,11.8-28.8,14.9C-718.5,388-709.1,382.8-702.3,372.4z
		 M-774.8,227.9c-3.5-2.6-7.4-4.5-9.7-7.5c-2.4-3.1-3.2-7.3-4.7-11.1c-2,3.3-2,7,0.7,9.8c3,3.2,6.7,5.7,10.2,8.3
		C-777.5,228.1-776,227.8-774.8,227.9z"/>
	<path d="M-178.8,315c-1.5,2.4-3.3,4-5.7,2.4c-1.1-0.7-2.1-2.7-1.9-4c0.5-3,3-3.5,5.8-2.8c-1.1-5.7-2.3-11.1-3.3-16.5
		c-1.5-7.9-1.4-15.9-1.3-23.9c0.2-7.4,0.2-14.9-0.6-22.3c-0.8-7.9-2.4-15.8-4.2-23.5c-1.1-4.6-2.6-9.2-4.9-13.3
		c-6.8-12.1-9.9-25.1-10.7-38.8c-0.3-4.7-0.6-9.5-0.9-14.2c-0.1-1.1-0.2-2.2,0.1-3.2c2.4-7.2,0.5-14.5,0.4-21.7
		c-0.1-3,0.1-6,0.6-8.9c0.3-2.3,1.2-4.6,3.9-5.1c2.4-0.5,4.2,1.2,5.3,3c2.1,3.4,4,7.1,6,10.6c2.7,4.5,5.5,9,8,13.6
		c2.9,5.5,5.7,11.1,8.2,16.7c1.9,4.3,3.3,8.9,5,13.3c2.5,6.5,3.3,13.4,4,20.2c0.6,5.7,1.8,11.2,4.5,16.3c2.1,3.9,4.9,6.8,9.4,7.5
		c0.5,0.1,1,0.3,1.6,0.4c12.2,2.3,16.6,0,21.5-9.9c1.4-2.9,3-5.7,4.7-8.9c-1.7-0.7-3-1.4-4.3-1.9c-5.8-2.4-11.1-5.7-15.4-10.3
		c-2.7-2.9-5.2-5.9-6-9.9c-0.4-2-1.8-2.8-3.3-3.8c-4.1-2.8-8.2-5.6-12-8.8c-1.5-1.3-3.7-3.5-1.9-5.5c0.9-1.1,3.8-1.1,5.6-0.6
		c7.3,2.1,14.4,4.7,21.6,7c3,1,5.9,1.9,8.9,2.9c4.4,1.4,8.8,2.7,13.7,4.2c0.2-2.1,0.6-4,0.7-6c0.1-6.1,0.1-12.1,0.3-18.2
		c0.1-2.5,0-4.8-1.8-6.8c-1-1.2-1.6-2.8-2.3-4.3c-2.3-5.1-4.7-10-8.4-14.3c-1.6-1.9-2.8-4.3-3.6-6.7c-0.7-2.1-1.9-2.9-3.7-3.8
		c-3.8-1.8-7.5-3.7-10.9-6c-1.8-1.2-3.9-3.3-2.9-5.7c1-2.6,3.9-1.8,6.1-1.7c0.8,0,1.6,0.1,2.8,0.2c-4.8-8.3-5.5-18.1-12.4-25
		c-2.2-2.2-3.1-5.6-4.2-8.7c-0.4-1.2,0.3-2.8,0.5-4.2c1.4,0.2,3.1,0,4.1,0.7c3.2,2.2,6.4,4.6,9.2,7.3c10.8,10.8,22.6,20.7,31.7,33.1
		c4.1,5.6,10.3,6.5,16.2,8.1c1.8,0.5,3.7,0.7,5.6,1.2c7.1,1.7,13.2,4.6,18.4,10.3c7.2,7.9,15.3,14.9,22.8,22.5
		c3.2,3.2,5.8,7.1,8.5,10.8c0.7,1,0.9,2.6,0.9,3.9c-0.8,14.9-1.6,29.8-7.9,43.7c-0.5,1-0.6,2.8,0,3.6c3.4,5.1,3.7,10.7,2.8,16.4
		c-0.7,4-1.8,7.9-3.1,11.7c-7,20.2-13.3,40.6-17.7,61.5c-1.4,6.9-1.2,14.3-1.2,21.4c0,8.7,0.2,17.3-2.9,25.7c-0.3,0.9-0.2,2.2,0.3,3
		c4.9,8.5,4.3,17.2,1,25.8c-7.6,19.4-23.7,27.7-43.5,26.2c-6.7-0.5-13.3-2.4-19.9-3.9c-7.9-1.9-13.2-7.3-16.7-14.4
		c-3.3-6.7-5.8-13.7-5.2-21.4c0.1-0.8,0-1.6,0-2.4c0.3-8.6-2.3-15.7-9.5-21.2C-170,332.2-174.7,324-178.8,315z M-139.1,372.5
		c7.1,10.9,17.2,16.2,30.2,15.1c10-0.9,18.1-6.1,25.1-13c4.8-4.6,7.1-10.7,8.6-17.1c-6,9.4-13.5,17-24,22.6c0.5-1.2,0.5-1.6,0.7-1.7
		c0.7-0.6,1.3-1.4,2.1-1.8c9.3-5.5,15-14.2,20.5-23.2c3.9-6.4,6.1-13.2,6.4-20.7c0.1-3.5,0-7,0.2-10.6c0.4-6.6,0.3-13.3,1.5-19.8
		c2.2-11.4,5.1-22.7,8.1-33.9c2.4-9.2,5.4-18.4,8.2-28c-10.3,4.9-18.8,1-27.1-5.4c-0.7,10-3,18.9-6.1,27.8c-0.7,2.2-1.2,5.5-0.1,7
		c3.3,4.2,2.6,9.3,4.2,13.8c0.2,0.7-0.3,1.8-0.7,2.5c-0.6,1-1.6,1.8-2.2,2.8c-4.1,7-9.6,9.5-17.4,7.7c-0.6-0.1-1.2-0.2-2.3-0.5
		c2,10.9,7.6,18.9,15.7,25.6c-2.4-1.1-4.7-2.5-6.5-4.3c-6.2-6-11.4-12.7-12-21.9c-0.1-1.2-1-2.4-1.8-3.3c-3.8-4.2-7.7-8.4-11.6-12.5
		c-1.7-1.8-3.7-3.3-5.7-5.2c-0.3,1-0.5,1.3-0.4,1.5c0.4,1,0.8,2,1.2,3c6.1,12.5,7.1,25.4,3.4,38.7c-1.3,4.6-2.1,9.2-1,14
		c0.2,0.8,0.1,1.6,0.1,2.4c0,0.6-0.2,1.3-0.3,1.9c-0.3,0-0.6,0-0.9,0c-0.2-4.6-0.7-9.1-0.4-13.7c0.2-4.6,1.4-9.1,1.8-13.7
		c0.9-9.6-1.1-18.6-5.5-27.3c-1.1,4.1-2.2,7.9-3.3,11.6c-1.8,6-3.9,11.9-5.3,17.9c-4.8,19.7,0.4,36.6,14.9,50.8
		c0.6,0.6,1.1,1.2,1.9,2.2c-0.9-0.2-1.2-0.1-1.4-0.3c-9.4-7.9-16.1-17.5-18.8-29.6c-2.2-10-0.2-19.6,2.6-29.2
		c0.6-1.9,1.1-3.8,1.7-5.7c-2.2,1.9-3.8,4-5.4,6.2c-1.7,2.3-3.6,4.4-5.1,6.8c-1.2,2.1-1.9,4.6-2.9,6.9c-0.3-0.1-0.5-0.2-0.8-0.3
		c0.3-3.9,1.8-7.4,4.1-10.7c3.5-4.8,6.8-9.7,10.2-14.7c3.1-4.6,4.6-9.8,5.1-15.3c0.4-3.8-0.3-4.5-3.9-6c-3.5-1.4-7-2.9-10.2-4.8
		c-4.6-2.8-8.2-6.5-9.8-12c-0.3-1.2-1.5-2.5-2.7-3.2c-3-1.8-6.3-3.2-9.3-5c-1.9-1.1-3.7-2.3-5.2-3.8c-2.4-2.3-1.6-4.4,1.7-5.1
		c1.3-0.3,2.7-0.4,4-0.2c3.8,0.4,7.6,0.6,11.2,1.5c7.2,1.7,14.4,3.9,21.6,5.7c5,1.2,10.1,2.1,16.1,3.3c-5.2-7.6-7.7-15.2-8.9-23.3
		c4.1,8.1,5.4,17.7,13.1,23.7c-2-7.2-3.9-14.4-4.1-22c0.6,1.1,0.9,2.2,1.3,3.4c1.3,4.5,2.5,9.1,4,13.6c1.7,5.3,4.8,9.5,9.5,12.8
		c4,2.8,7.7,5.9,11.6,8.9c0.7,0.5,1.4,0.9,2.2,1.4c0.8-3.5,1.3-6.7,2.2-9.8c2.4-8.4,3.1-17,3.8-25.7c0.3-3.7-1-6.6-3.6-9
		c-1.4-1.3-2.8-2.5-4.4-3.6c-4-2.8-8-5.5-12-8.3c-1.1-0.8-2.2-1.7-3.2-2.5c0.1-0.2,0.3-0.4,0.4-0.6c1.4,0.6,2.9,1.3,4.8,2.1
		c-2.2-3.3-4.7-4.8-8.2-4.8c-2.3,0-4.5-0.7-6.8-1c-2.4-0.4-4.7-0.9-7.1-1.3c-1.4,2.8-2.7,5.2-3.7,7.7c-2.4,5.8-6.1,10.5-11.1,14.2
		c-3.2,2.4-7.8,3.6-11.2,2.1c2.7-0.8,4.9-1.5,7.5-2.3c-3.2-0.2-6,0.1-8.5-0.6c-3.3-0.9-7.1-1.8-9.5-4c-5.8-5.3-8.6-12.3-9.7-20
		c-0.9-6.6-1.3-13.2-2.7-19.7c-2.2-10.8-7.4-20.6-12.6-30.2c-1.2-2.2-3.3-3.9-5.4-5.4c-3.1-2.3-6.6-2.1-9.9-0.2
		c-4,2.2-5.7,5.9-5.7,10.1c0,6.5,0.5,13,0.8,19.4c0.6,11.9,3.9,23,8.9,33.9c9,19.5,12.7,40.2,11.1,61.7c-0.8,10.1,0.1,20,2.1,29.9
		c2,9.8,5.1,19.2,11.4,27.1c3.3,4.1,6.9,8,10.6,11.7c4.4,4.3,8.1,9,10.5,14.8c0.9,2.1,2,4.1,3,6.2c7,13.5,17.1,22.9,32.5,25.7
		c0.7,0.1,1.4,0.6,2.1,1c-0.2,0.3-0.3,0.6-0.5,1C-121.6,384.3-131.5,380.9-139.1,372.5z M-47.9,200.8c-0.3-0.1-0.6-0.2-1-0.3
		c1.6-10,3.2-20,4.8-30c0.2,0,0.5,0,0.7-0.1c0.2,2.1,0.4,4.2,0.6,6.3c0.7-4.4,0.9-8.9,1.2-13.3c0.2-4.5-1.4-8.2-4.8-11.1
		c-2.2-2-4.3-4.1-6.5-6.1c-7.2-6.8-14.9-13-21.4-20.4c-6.5-7.3-14.9-8.3-23.4-10.5c-0.3,1.9-0.4,3.4-0.8,4.8c-0.3,0.9-1.1,2-1.9,2.2
		c-3.1,0.8-6.3,1.9-9.4,1.6c-3.8-0.3-7.6-1.7-11.3-2.9c-2.7-0.8-5.2-2-7.8-3c-0.2,0.2-0.4,0.4-0.6,0.6c1.1,2.1,2.1,4.2,3.5,6.2
		c4.2,6.1,9.8,10.5,16.5,13.4c5.3,2.2,10.9,3.9,16.4,6c1.6,0.6,3.3,1.3,4.5,2.5c4.9,5,9.6,10.3,14.4,15.4c2.7,2.8,3.4,5.8,2.1,9.6
		c-1.4,4.2-2.2,8.6-3.1,13c-0.7,3,0.7,5,3.4,6.6c7.7,4.7,15.2,9.7,23,14.7c3.1-6.2,4.3-13.2,4.7-20.3
		C-45.5,190.7-46.7,195.7-47.9,200.8z M-86.9,185c-1.3,2.5-2.3,4.4-3.3,6.3c-1.5,3-1.4,3-4,3.8c1.7-3.4,4.5-6.3,4.1-10.5
		c-8.3-2-16.6-3.9-25-5.9c0,0.4-0.3,1.2-0.1,1.3c2.7,1.3,1.5,3,0,3.8c-4.3,2.5-8.9,4.4-13.9,2.8c-4.7-1.5-9.2-3.7-13.8-5.7
		c-1.2-0.5-2.4-1.2-4.3-2.1c1.6,4.8,4,7.7,7.2,10.2c10.3,7.9,22,12,34.6,14c2.8,0.4,4.9,1.8,7.1,3.5c7.3,5.6,14.8,10.9,22.3,16.3
		c2.5,1.8,5.3,2.4,8.4,1.5c7.1-2,13-9.9,12.2-17.2c-0.1-1.3-1.3-3-2.5-3.8c-6.6-4.5-13.2-8.9-20-13.2
		C-80.6,188.3-83.8,186.8-86.9,185z M-150.7,255.6c1.6,4.7,4.7,7.4,8.3,9.2c4.7,2.4,9.6,4.4,14.5,6.2c4.8,1.8,9,4.3,11.6,8.9
		c0.9,1.6,2.3,3,3.5,4.4c4.8,5.4,16.1,4.2,19.7-2.1c0.6-1.1,1.1-2.5,1.1-3.8c0.1-4.6-0.5-9.3-3.9-12.4c-5-4.6-10.3-9.3-16.3-12.4
		c-5.3-2.7-11.7-3.2-18.1-4.8c2.3,3.5,1.3,8.7-1.5,9.1c-3.5,0.5-7.2,0.6-10.7,0.2C-145.1,257.8-147.6,256.6-150.7,255.6z
		 M-88.2,182.9c0.3-0.9,0.5-1.2,0.5-1.6c-0.3-9.9-0.6-19.7-1-29.6c-0.1-2.6-2.6-5.4-5.3-5.9c-8.9-1.8-17.3-4.8-25.4-10.6
		c2.9,7,6.6,12.3,12.2,16.2c1,0.7,1.8,1.8,2.7,2.7c-0.3,0.3-0.5,0.6-0.8,0.8c-2.5-1.7-5-3.3-7.7-5.2c-1.6,8.4-1.4,16.4-0.2,24.4
		c0.3,2,1.4,3.4,3.6,3.9C-102.7,179.6-95.5,181.3-88.2,182.9z M-164.5,162.6c-0.2,0.3-0.3,0.6-0.5,0.9c0.7,0.9,1.2,2.1,2,2.8
		c3.2,2.6,6.4,5.5,10,7.6c4.8,2.8,9.9,5,14.9,7.3c3.2,1.4,6.5,2.7,9.9,3.6c3.6,0.9,7,0,9.8-2.6c2.4-2.2,1.7-4.8-1.4-5.8
		c-2.5-0.7-5-1-7.5-1.8c-10.6-3.5-21.3-7.2-31.9-10.7C-160.9,163.3-162.7,163-164.5,162.6z M-147.2,103.7c-0.2,0.3-0.4,0.6-0.6,1
		c0.9,1.2,1.6,2.7,2.8,3.6c2.2,1.6,4.5,3.1,6.9,4.1c7.2,3,14.5,5.9,21.9,8.5c2.8,1,6.1,1.2,9.1,1.1c1.8-0.1,3.9-1.2,5.3-2.5
		c3-2.7,2.1-5.3-1.8-6.2c-10.9-2.6-21.8-5.3-32.7-7.8C-139.8,104.6-143.5,104.3-147.2,103.7z M-79.4,374.4c-0.5,0.6-1.1,1.2-1.6,1.8
		c-6.1,6.8-13.7,11.7-22.4,13.9c-13,3.2-24.3-0.7-33.5-10.3c-3-3.1-5.4-6.7-8.1-10c0.3,2.7,1.1,5.2,2.2,7.5c1.1,2.3,2.7,4.5,4.1,6.7
		c-6.2-4.4-8.6-10.8-10.5-17.7c-0.1,1.3-0.1,2.7,0.3,3.9c2,4.9,3.8,9.8,6.3,14.4c2.9,5.4,7.8,8.5,13.8,9.7
		c10.9,2.1,21.6,1.4,31.9-2.7C-88.9,388.2-82.9,382.7-79.4,374.4z M-111.4,109c0.2-0.2,0.4-0.5,0.6-0.7
		c-6.4-6.6-12.7-13.2-19.3-19.6c-1.8-1.8-4.1-3.2-6.3-4.3c-3.9-2-6.2-0.6-6.5,3.8c-0.4,5.5,2.7,9.8,5.5,14.1c0.3,0.5,1.1,0.8,1.7,1
		C-127.6,105.1-119.5,107-111.4,109z M-169.2,240.3c-0.2,0.5-0.3,1-0.5,1.4c1.1,0.9,2.1,1.9,3.4,2.6c5.1,2.8,10.2,5.6,15.5,8
		c3.3,1.5,6.9,2.4,10.4,3.2c1.6,0.4,3.6,0.2,5.1-0.4c3.3-1.2,3.8-4.9,0.9-7c-1.4-1-3-1.9-4.7-2.3c-5.5-1.5-10.9-3.1-16.5-4.1
		C-160.1,240.9-164.7,240.8-169.2,240.3z M-85.9,155.3c0,6.3,0,13.2,0,20c0,2.2,0.1,4.3,0.5,6.4c0.2,0.9,1,1.9,1.7,2.3
		c1.9,1,3.9,1.8,5.6,2.5c1.4-5.7,2.8-11.3,4-17c0.3-1.4,0-3.5-0.9-4.5C-78.5,161.6-82.4,158.4-85.9,155.3z M-70.1,353.4
		c0.3,11.8-4.2,21.8-11.2,30.7c-7.2,9.3-17.5,13.1-28.8,14.7c20,1.5,36.3-9.7,41.2-28.5C-67.4,364.5-67.4,358.8-70.1,353.4z
		 M-203.4,145.8c4.8-3.7,9.1-6.1,15.1-5c-3.4-6.1-6.4-11.5-9.5-16.8c-0.9-1.5-2.3-3.3-4.2-2.3c-1.1,0.5-2,2.6-2,4
		C-204,132-203.7,138.5-203.4,145.8z M-88.3,270.4c-0.1,13.3-4.3,19.3-15.3,22.1c4.9,3.9,12.1,2.8,15.9-2.4
		C-83.6,284.4-83.7,276.8-88.3,270.4z M-137,80.5c-6-5.2-11.5-10.9-18.4-15c1.1,7.6,6.1,12.9,9.8,18.3
		C-142.7,82.7-140,81.7-137,80.5z M-46.4,221.8c-5.7,16.1-15.5,18.9-31.9,8.5c0.6,1.1,0.7,2,1.3,2.4c4.4,3.8,9.2,6.7,15.1,7.2
		c8,0.7,12.6-2.8,14.3-10.6C-47.1,226.9-46.8,224.3-46.4,221.8z M-49.9,220.1c-5.8,6.8-12,12.3-21.9,11.4
		C-64.2,237.6-50.5,232.3-49.9,220.1z M-53.2,208.2c0.1,10.3-5,16-13.6,19.3c1.2,0.4,2.3,0.7,3,0.3c4.7-2.2,8.8-5.4,11.6-9.8
		C-50.3,215.1-50.4,212-53.2,208.2z M-179.6,314.3c-1.5-1.1-2.4-2.2-3.2-2.2c-0.8,0.1-2.2,1.4-2.2,2.1c0,0.8,1.2,2.1,2.1,2.3
		C-182.1,316.6-181.1,315.4-179.6,314.3z"/>
	<path d="M-201.9,294.9c-0.1,2-2.1,3.8-4.1,3.7c-1.9-0.1-3.6-1.9-3.6-3.7c0-2,1.9-4,3.9-3.9C-203.7,290.9-201.8,292.9-201.9,294.9z
		 M-205.6,291.4c-1.2,1.5-2.4,2.4-2.3,3.2c0.1,0.9,1.3,1.6,2,2.4c0.8-0.7,2-1.4,2.2-2.2C-203.6,294-204.7,293.1-205.6,291.4z"/>
	<path d="M-233.8,331.2c-0.1,2-2.1,3.8-4.1,3.7c-1.9-0.1-3.6-1.9-3.6-3.7c0-2,1.9-4,3.9-3.9C-235.6,327.3-233.7,329.3-233.8,331.2z
		 M-237.5,327.8c-1.2,1.5-2.4,2.4-2.3,3.2c0.1,0.9,1.3,1.6,2,2.4c0.8-0.7,2-1.4,2.2-2.2C-235.5,330.4-236.5,329.4-237.5,327.8z"/>
	<path d="M-602.5,308.1c-0.1,2-2.1,3.8-4.1,3.7c-1.9-0.1-3.6-1.9-3.6-3.7c0-2,1.9-4,3.9-3.9C-604.3,304.1-602.4,306.1-602.5,308.1z
		 M-606.2,304.6c-1.2,1.5-2.4,2.4-2.3,3.2c0.1,0.9,1.3,1.6,2,2.4c0.8-0.7,2-1.4,2.2-2.2C-604.2,307.2-605.2,306.3-606.2,304.6z"/>
	<path d="M-364.7,214c-0.1,2.1-1.9,3.8-4,3.6c-1.9-0.1-3.5-1.7-3.6-3.7c-0.1-2.1,1.7-3.9,3.8-3.9C-366.4,210.1-364.6,212-364.7,214z
		 M-368.8,217.1c1.2-1.6,2.2-2.4,2.3-3.2c0.1-0.7-1.2-2.2-1.6-2.1c-1,0.2-2.2,1-2.5,1.9C-370.8,214.3-369.7,215.4-368.8,217.1z"/>
	<path d="M-154.8,137.3c0,2-1.9,3.9-3.9,3.9s-3.7-1.6-3.8-3.5c-0.2-2,1.6-4,3.6-4.1C-156.9,133.5-154.8,135.4-154.8,137.3z
		 M-158.6,140.6c1-1.5,2.1-2.4,2-3.2s-1.4-2-2.1-2c-0.8,0-2,1.3-2.1,2.1C-160.9,138.3-159.7,139.1-158.6,140.6z"/>
	<path d="M-479,231.1c-2,0-3.9-1.9-3.9-3.8c0-1.9,2-3.9,3.8-3.9s3.9,2,3.9,3.8C-475.1,229.2-477,231.1-479,231.1z M-479,230.6
		c1.1-1.6,2.2-2.5,2.1-3.3s-1.4-2-2.2-2c-0.7,0-2,1.3-2,2.2C-481.2,228.2-480.1,229.1-479,230.6z"/>
	<path d="M-269.7,162.7c-0.2,2.1-2.1,3.6-4.3,3.3c-1.9-0.3-3.4-2-3.3-3.9c0.1-2.1,2-3.7,4.1-3.5C-271,158.7-269.4,160.6-269.7,162.7
		z M-270.2,162.3c-1.5-1.1-2.5-2.3-3.2-2.2c-0.8,0.1-1.5,1.4-2.3,2.2c0.8,0.7,1.5,1.9,2.3,2C-272.6,164.4-271.7,163.3-270.2,162.3z"
		/>
	<path d="M-616.3,206.2c0,2-1.9,3.9-3.9,3.9c-2.1,0-3.9-1.8-3.9-3.9c0.1-1.8,1.8-3.6,3.7-3.7C-618.5,202.4-616.3,204.3-616.3,206.2z
		 M-623.5,206.6c1.7,1,2.7,2.1,3.5,1.9c0.8-0.2,1.7-1.5,1.8-2.5c0.1-0.5-1.4-1.8-2.1-1.7C-621.2,204.4-622,205.5-623.5,206.6z"/>
	<path d="M-682.3,137.3c-2.1-0.1-4-2.1-3.8-4s2.4-3.8,4.3-3.6c1.8,0.2,3.6,2.1,3.6,3.9C-678.4,135.6-680.2,137.4-682.3,137.3z
		 M-679,133.4c-1.6-1-2.6-2.1-3.3-1.9c-0.8,0.1-2.1,1.5-2,2.2c0.1,0.8,1.4,2,2.2,2.1C-681.3,135.8-680.5,134.6-679,133.4z"/>
	<path d="M-237,191.2c0,2.1-1.9,3.9-3.8,3.9c-1.9-0.1-3.8-2.2-3.7-4.1c0.1-1.8,2-3.6,3.7-3.7C-238.9,187.3-237,189.2-237,191.2z
		 M-237.4,191.4c-1.5-1.1-2.3-2.3-3.2-2.3c-0.8,0-2.1,1.3-2.2,2c0,0.8,1.2,2.1,2,2.2C-240,193.5-239,192.4-237.4,191.4z"/>
	<path d="M-492.5,74.5c-2.1-0.1-3.8-2-3.6-4.1c0.2-2,1.8-3.6,3.7-3.7c1.9,0,3.9,1.9,3.9,4C-488.6,72.8-490.5,74.6-492.5,74.5z
		 M-492.5,67.4c-1.1,1.5-2.2,2.5-2.1,3.2c0.2,0.9,1.4,1.5,2.2,2.3c0.7-0.8,1.9-1.5,2-2.4C-490.3,69.8-491.4,68.9-492.5,67.4z"/>
	<path d="M-574.5,170.6c0,2-1.9,3.8-3.9,3.8s-3.7-1.9-3.6-4c0.1-2,1.6-3.5,3.6-3.5C-576.2,166.8-574.5,168.5-574.5,170.6z
		 M-578.1,167.2c-1.1,1.6-2.1,2.4-2.2,3.4c-0.1,0.7,1.3,2.1,1.7,2c0.9-0.2,2.2-1.1,2.4-1.9C-576.1,169.9-577.2,168.8-578.1,167.2z"
		/>
	<path d="M-638.7,325c0,2-1.9,3.7-4,3.6c-2-0.1-3.5-1.7-3.6-3.6c-0.1-2.1,1.7-3.9,3.7-3.9C-640.7,321.1-638.7,323.1-638.7,325z
		 M-642.8,321.8c-1,1.5-2.1,2.6-1.9,3.3c0.2,0.9,1.5,1.5,2.3,2.2c0.7-0.8,1.9-1.6,2-2.5C-640.5,324.1-641.7,323.2-642.8,321.8z"/>
	<path d="M-439.6,344.2c-2,0-3.9-1.9-3.9-3.9c0-1.9,1.6-3.5,3.6-3.6c2.1-0.1,4,1.6,4.1,3.6C-435.7,342.3-437.5,344.2-439.6,344.2z
		 M-439.4,343.6c1-1.6,2.1-2.6,1.9-3.3c-0.2-0.9-1.4-1.5-2.2-2.3c-0.7,0.8-1.9,1.6-2,2.5C-441.7,341.3-440.5,342.1-439.4,343.6z"/>
	<path d="M-685.3,202.5c0.1,2-1.7,4-3.7,4c-1.9,0.1-3.8-1.8-3.8-3.9c0-2,1.5-3.6,3.4-3.7C-687.3,198.8-685.4,200.5-685.3,202.5z
		 M-689.2,205.9c1.1-1.5,2.2-2.4,2.1-3.2c-0.1-0.9-1.3-1.6-2-2.4c-0.8,0.8-2.1,1.4-2.2,2.3C-691.5,203.4-690.3,204.4-689.2,205.9z"
		/>
	<path class="st0" d="M-706.4,299.5c5,6.2,11.5,11.3,13.4,19.5c0.4-4.3-1.3-7.8-3.6-11.1c-3.4-4.9-6.9-9.7-10.1-14.7
		c-3.1-4.7-4.7-10-5-15.7c-0.2-3.5,0.4-4.2,3.6-5.3c4.9-1.6,9.6-3.7,13.6-7.1c3-2.6,5.4-5.6,6.6-9.5c0.4-1.3,1.7-2.7,2.9-3.5
		c3.7-2.2,7.7-4,11.4-6.2c2-1.2,4.9-2.6,4.2-5.3c-0.8-3.2-4.2-2.8-6.6-2.4c-6.8,1-13.6,2.2-20.3,3.7c-9.1,2-18.1,4.3-27.2,6.5
		c-0.3,0.1-0.7,0-0.5,0c2.9-7.4,5.8-14.9,8.7-22.4c-2.6,1.1-2.4,1.2-3.6,4.2c-1.8,4.7-3.7,9.3-5.9,13.7c-1.1,2.2-3.1,4-5.2,6.8
		c1.9-8.5,3.6-15.9,5.4-23.4c-0.4-0.1-0.8-0.2-1.1-0.3c-0.6,2.3-1.2,4.6-1.8,6.8c-1.8,6.7-3.3,13.4-8,18.9c-0.4,0.5-0.8,1.1-1.3,1.5
		c-5.6,4.3-11.2,8.5-17,12.8c-3.3-12.4-6.1-24.8-6.2-37.5c0-3.5,2.1-5.8,4.5-7.8c3.9-3.1,8.1-5.9,12.1-8.9c2.2-1.6,4.4-3.1,6.6-4.6
		c-0.1-0.2-0.2-0.5-0.4-0.7c-1.4,0.7-2.8,1.3-4.9,2.3c2.1-3.1,4.1-4.6,7.5-4.9c4.8-0.3,9.6-1.5,14.6-2.3c1.7,3.6,3.6,7,5.1,10.6
		c2.3,5.2,6.3,8.8,10.7,12c2.7,2,6.1,2.5,9.4,2.4c0.1-0.3,0.2-0.6,0.3-0.9c-1.6-0.6-3.3-1.2-5.3-2c1.9-0.2,3.4-0.5,5-0.6
		c9-0.6,14.3-5.8,17.9-13.6c3.3-7.2,3.8-14.9,4.6-22.6c0.7-6.8,2.1-13.4,4.9-19.6c2.3-5.2,4.5-10.5,7.1-15.5
		c1.5-2.8,3.5-5.5,5.9-7.6c6.4-5.7,15.2-0.6,16.1,5.2c0.7,4.9,1,10,0.8,14.9c-0.3,6.2-1.3,12.4-1.9,18.6c-0.7,6.8-3,13.2-5.9,19.3
		c-10.6,22.1-14.4,45.3-12.8,69.8c1.2,18.4-2.1,36.3-12.8,51.9c-3.2,4.6-7.2,8.8-11.3,12.7c-4.4,4.4-8.1,9-10.6,14.7
		c-3.1,7.1-7.1,13.7-12.2,19.5c-6.3,7.2-14.6,10.5-23.6,12.5c-0.9,0.2-1.9,0-2.8-0.2c-3.4-1-3.3-1-4.8,2.5
		c-13.8-1.8-27.5-15-29.7-28.1c4.1,4.5,8.5,9.8,13.4,14.5c2.7,2.7,6.2,4.6,9.9,6.3c-0.3-0.6-0.5-1.3-0.9-1.8s-1-0.9-1.6-1.3
		c-11.3-6.6-17.4-17.6-23.3-28.6c-3-5.6-3.6-11.9-3.6-18.2c0-10,0.2-20.1-1.9-29.9c-2-9.3-4.3-18.4-6.8-27.6
		c-2.8-10.4-6-20.8-9.1-31.6c10.1,4.6,18.6,1,26.8-5.4c0.3,2.5,0.5,4.7,1,6.7c1.3,5.7,2.7,11.3,4.1,16.9c0.4,1.4,0.9,2.8,1.3,4.3
		c0.8,3.2,0.8,6.1-1.2,9.2c-4.7,7-1.8,23.3,11.4,24.9c1.3,0.2,2.7,0,4-0.1c1.2-0.1,2.4-0.5,4.3-0.9c-2,10.8-7.5,18.9-15.8,25.5
		c4.1-1.4,7.2-4.2,9.8-7.3c4.6-5.5,8.7-11.5,8.8-19.2c0-0.8,0.7-1.7,1.3-2.4c4.3-4.7,8.6-9.3,13-13.9c1.4-1.5,3.2-2.7,4.9-4
		c0.2,0.2,0.4,0.4,0.7,0.5c-1.2,2.9-2.4,5.9-3.6,8.8c-3.8,9.3-4.4,18.9-2.3,28.7c0.6,3,1.7,6.1,1.9,9.1c0.3,4.9,0.1,9.9,0.3,14.9
		c1.4-5.1,2.1-10.2,1.2-15.5c-1.3-8.3-2.8-16.6-1.3-25c0.9-5.2,2.6-10.1,5-15c1.5,5.3,2.8,10.3,4.2,15.5c-1.4,0.8-3.8,1.3-2.6,3.5
		c0.6,1.1,2.6,1.4,4.6,2.3c6.2,16.2,6.1,32.7-3.8,48.6c-2.7,4.4-5.8,8.4-10.2,11.4c-0.7,0.5-1.2,2.1-1,3c0.1,0.6,2,1.5,2.5,1.2
		c0.9-0.5,2-2.1,1.7-2.7c-0.9-2.2,0.7-2.9,1.8-4c8-8.1,13.6-17.5,15.4-28.9c1.3-8.4-0.3-16.4-2.5-24.5
		C-705,304.4-705.8,302-706.4,299.5z M-654.5,194.2c-2.5-2.5-5.4-2.9-9.3-2.5c2.5,1.9,4.6,3.3,6.4,5c1.7,1.6,2.6,4.2,5.3,4.7
		c-0.5-3.2-2.7-5.2-5-7.6C-655.9,194.1-655.2,194.1-654.5,194.2z"/>
	<path class="st0" d="M-792.9,206.5c-1.7-7-3.4-13.7-5.1-20.5c0.3-0.1,0.6-0.2,0.9-0.2c1.2,5,2.3,10,3.5,15c0.3-0.1,0.6-0.1,1-0.2
		c-1.6-10-3.2-20-4.7-30c-0.2,0-0.4-0.1-0.6-0.1c-0.2,2.1-0.5,4.2-0.7,6.4c-0.2,0-0.3,0-0.5,0c-0.2-4.7-0.4-9.3-0.7-14
		c-0.3-4.3,1.5-7.6,4.6-10.4c5.3-4.9,10.7-9.6,15.9-14.5c4.5-4.3,9-8.6,13.3-13.1c3.2-3.4,6.7-5.8,11.3-6.8c3.5-0.8,7-1.7,10.6-2.6
		c1.1,7.1,1.3,7.3,8.3,8.4c3.8,0.6,8-0.4,11.9-1.4c4.1-1.1,8-2.9,12.5-4.7c-3.7,9.4-10.2,15.6-18.5,19.5c-5.7,2.7-11.8,4.6-17.8,6.6
		c-2.4,0.8-4.3,2-5.9,3.9c-4,4.6-8.1,9.1-12.4,13.4c-3.2,3.2-4.2,6.5-2.6,11c1.4,3.9,2.1,8.1,3,12.2c0.7,3-0.5,5.1-3.2,6.7
		c-4.2,2.4-8.3,5.1-12.4,7.7C-785.1,201.1-788.5,203.5-792.9,206.5z"/>
	<path class="st0" d="M-752,184.7c8.9-2.1,17.2-4,25.2-5.9c0.8,2,1.1,4.9,2.6,5.9c3.1,2,7,3.2,10.8,2.2c3.5-0.9,6.9-2.2,10.3-3.6
		c2.8-1.2,5.4-2.7,8.7-4.4c-1.2,4.8-3.8,7.7-7.1,10.2c-9.9,7.6-21.2,11.9-33.4,13.7c-3.5,0.5-6.2,2.1-9,4.3
		c-6.6,5.2-13.3,10.2-20.3,14.9c-7.4,4.9-16.4,1.9-20.1-6.2c-0.6-1.3-1.1-2.8-1.5-4.2c-1.4-5.5-0.7-6.5,4.2-9.4s9.6-6.1,14.2-9.4
		c4.1-2.9,8.1-5.9,13-7.4c2.2,3.5,3.2,7.6,7,9.7c-0.9-1.6-1.9-3.1-2.7-4.8C-750.7,188.6-751.2,186.8-752,184.7z"/>
	<path class="st0" d="M-711.4,249.1c-2.6,4.4-0.5,8.3,3.8,9c5.8,0.9,11.2-0.3,16.9-2.8c-0.9,3.1-2.4,5.1-4.4,6.7
		c-4.5,3.8-9.9,6.2-15.4,7.9c-6.4,2-12,4.9-15.4,11c-0.8,1.5-2.3,2.7-3.4,4.1c-1.6,1.9-3.6,2.8-6.1,2.8
		c-11.5-0.2-17.6-6.1-12.3-18.7c0.5-1.2,1.2-2.5,2.2-3.4c6.4-6,12.8-12.1,21.8-14C-719.7,250.9-715.7,250-711.4,249.1z
		 M-726.6,254.3c-0.4,0.1-0.7,0.1-1.1,0.2c-0.8,4.4,1,8.1,3.7,11.5C-724.9,262.1-725.7,258.2-726.6,254.3z"/>
	<path class="st0" d="M-753.5,183c0-2.8-0.1-4.9,0-7c0.2-7.6,0.5-15.1,0.8-22.7c0.2-4.5,2.1-6.8,6.6-7.7c8.4-1.8,16.3-4.7,23.9-10.2
		c-2.9,8.4-8.4,13.9-15.2,18.4c0.4,0.4,0.8,0.8,1.2,1.3c2.6-1.7,5.1-3.4,7.9-5.2c1.7,8.3,1.5,16.3,0.3,24.3
		c-0.3,1.8-1.1,3.3-3.1,3.8C-738.5,179.6-745.8,181.3-753.5,183z"/>
	<path class="st0" d="M-676.5,163.7c-2.5,4-6.2,7.1-10.3,9.2c-7.5,3.9-15.3,7.3-23.1,10.9c-3.9,1.8-7.9,1.6-11.7-0.5
		c-1.7-1-3.3-2.5-2.5-4.5c0.5-1.2,2.2-2.2,3.5-2.7c12.6-4.1,25.2-8.1,37.8-12c1.9-0.6,3.8-1,5.7-1.5
		C-676.9,163-676.7,163.3-676.5,163.7z"/>
	<path class="st0" d="M-693.6,104.9c-1.3,1.4-2.3,3.2-3.9,4.2c-2.8,1.8-5.9,3.3-9,4.6c-5.6,2.3-11.3,4.6-17.1,6.5
		c-3.4,1.1-7.1,1.6-10.7,1.8c-2.7,0.2-5-1.3-6.4-3.6c-1.5-2.4-0.9-4.2,1.8-4.9c3.1-0.8,6.3-1.4,9.5-2.1c9.1-2.2,18.1-4.4,27.2-6.5
		c2.6-0.6,5.2-0.6,7.8-1C-694,104.2-693.8,104.5-693.6,104.9z"/>
	<path class="st0" d="M-701.8,383.4c5.8-4.5,8.1-10.9,9.6-17.8c0.2,0.2,0.4,0.4,0.4,0.5c-1,9-4.4,17.1-11,23.3
		c-2.5,2.4-6.2,4-9.6,4.8c-11.4,2.5-22.6,1.5-33.3-3.2c-8.4-3.8-14.1-10.2-17.8-18.6c2.1,2.3,3.8,5,6.2,6.9
		c4.1,3.1,8.4,5.9,12.8,8.4c14.1,8,31.5,1.6,39.2-6.7c1.9-2.1,3.8-4.2,5.5-6.5c1.6-2.1,3-4.5,4.8-7.2
		C-696.3,373.4-698.7,378.5-701.8,383.4z"/>
	<path class="st0" d="M-731.1,109.2c8-8.4,14.5-16.9,23.1-23.3c1.2-0.9,2.5-1.6,3.9-2.1c2.8-1.2,4.9-0.2,5.4,2.8
		c0.3,1.8,0.1,3.8-0.1,5.6c-0.1,0.9-0.6,1.8-1,2.7c-2,5.5-5.3,8.9-11.5,9.7C-717.7,105.5-723.9,107.5-731.1,109.2z"/>
	<path class="st0" d="M-671.8,241.7c-1.1,0.9-2.1,1.9-3.3,2.6c-4.7,2.6-9.4,5.3-14.4,7.6c-3.5,1.6-7.3,2.7-11.1,3.8
		c-1.2,0.4-2.7,0.3-4,0.1c-2.1-0.3-3.9-1.1-4.3-3.6c-0.4-2.5,0.9-3.9,2.9-4.7c1.6-0.7,3.2-1.3,4.9-1.8c4.6-1.2,9.2-2.3,13.7-3.6
		c5-1.4,10-1.5,15.1-1.2C-672,241.1-671.9,241.4-671.8,241.7z"/>
	<path class="st0" d="M-755.8,154.9c0,9.2,0,18.7,0,28.3c-2.9,1.3-5.3,2.4-7.7,3.5c-1.4-5.9-2.9-11.5-4-17.3
		c-0.3-1.5,0.3-3.6,1.3-4.7C-762.8,161.2-759.1,158-755.8,154.9z"/>
	<path class="st0" d="M-771.8,353.9c4.9,28.7,14.8,39.6,41.2,45.1c-15.7,0.5-28.2-4.1-36.6-17C-772.6,373.7-775.5,364.7-771.8,353.9
		z"/>
	<path class="st0" d="M-638.4,145.4c-4.4-3.2-8.6-5.7-14.4-4.6c0.6-1.4,1-2.3,1.5-3.2c1.9-3.6,3.9-7.1,5.9-10.6
		c0.7-1.3,1.4-2.7,2.5-3.6c1-0.9,2.6-1.7,3.8-1.5c0.7,0.1,1.7,2.1,1.7,3.2c0.1,4.6,0,9.2-0.2,13.8
		C-637.7,140.7-638.1,142.7-638.4,145.4z"/>
	<path class="st0" d="M-753,270.7c-0.6,12.3,4.7,19.8,15.1,21.6c-3.7,3.6-10.4,3.3-14.5-0.6C-757.5,286.8-758.6,275.5-753,270.7z"/>
	<path class="st0" d="M-685.6,66c-1.6,7.2-6.6,12.5-10.2,17.8c-3-1.2-5.6-2.2-8.7-3.4c5.8-5.1,11.7-10.2,17.6-15.4
		C-686.4,65.4-686,65.7-685.6,66z"/>
	<path class="st0" d="M-795,222.5c6.5,15.6,16.5,18.3,32.1,7.6c-1,1.5-1.3,2.3-1.9,2.8c-4.9,4.1-10.2,7.1-16.8,7
		c-6.2-0.1-10.2-3.1-11.7-9.2C-794.2,228.1-794.5,225.3-795,222.5z"/>
	<path class="st0" d="M-792.1,219c7.5,9.6,12.3,12.3,22.1,12.5C-778.8,238.2-790,231.8-792.1,219z"/>
	<path class="st0" d="M-702.3,372.4c-6.8,10.4-16.2,15.6-28.8,14.9C-720.5,384.2-709.8,381.3-702.3,372.4z"/>
	<path class="st0" d="M-774.8,227.9c-1.2-0.1-2.7,0.2-3.5-0.4c-3.5-2.6-7.2-5.2-10.2-8.3c-2.7-2.9-2.7-6.5-0.7-9.8
		c1.5,3.7,2.4,8,4.7,11.1C-782.2,223.5-778.3,225.3-774.8,227.9z"/>
	<path class="st0" d="M-139.1,372.5c7.6,8.4,17.5,11.8,28,13.9c0.2-0.3,0.3-0.6,0.5-1c-0.7-0.3-1.4-0.9-2.1-1
		c-15.4-2.8-25.6-12.2-32.5-25.7c-1.1-2-2.2-4.1-3-6.2c-2.4-5.7-6.1-10.5-10.5-14.8c-3.8-3.7-7.4-7.6-10.6-11.7
		c-6.3-7.9-9.4-17.3-11.4-27.1c-2.1-9.9-2.9-19.7-2.1-29.9c1.6-21.5-2-42.2-11.1-61.7c-5-10.9-8.3-22-8.9-33.9
		c-0.3-6.5-0.8-13-0.8-19.4c0-4.2,1.7-7.9,5.7-10.1c3.4-1.8,6.8-2.1,9.9,0.2c2,1.5,4.2,3.3,5.4,5.4c5.2,9.6,10.3,19.4,12.6,30.2
		c1.3,6.5,1.7,13.1,2.7,19.7c1.1,7.7,4,14.8,9.7,20c2.4,2.2,6.2,3.1,9.5,4c2.5,0.7,5.3,0.4,8.5,0.6c-2.6,0.8-4.8,1.4-7.5,2.3
		c3.5,1.5,8,0.3,11.2-2.1c5-3.8,8.7-8.4,11.1-14.2c1-2.5,2.3-4.9,3.7-7.7c2.3,0.4,4.7,0.9,7.1,1.3c2.3,0.4,4.5,1.1,6.8,1
		c3.5,0,5.9,1.5,8.2,4.8c-1.9-0.9-3.4-1.5-4.8-2.1c-0.1,0.2-0.3,0.4-0.4,0.6c1.1,0.8,2.1,1.7,3.2,2.5c4,2.8,8.1,5.5,12,8.3
		c1.5,1.1,3,2.3,4.4,3.6c2.6,2.4,3.9,5.3,3.6,9c-0.7,8.6-1.4,17.3-3.8,25.7c-0.9,3.1-1.4,6.3-2.2,9.8c-0.8-0.5-1.5-0.9-2.2-1.4
		c-3.9-3-7.6-6.1-11.6-8.9c-4.7-3.2-7.8-7.5-9.5-12.8c-1.5-4.5-2.7-9.1-4-13.6c-0.3-1.1-0.7-2.3-1.3-3.4c0.2,7.5,2.1,14.7,4.1,22
		c-7.7-6.1-9.1-15.6-13.1-23.7c1.1,8.2,3.7,15.7,8.9,23.3c-6-1.2-11.1-2.1-16.1-3.3c-7.2-1.8-14.3-4-21.6-5.7
		c-3.7-0.9-7.5-1.1-11.2-1.5c-1.3-0.1-2.7,0-4,0.2c-3.3,0.7-4.1,2.8-1.7,5.1c1.5,1.5,3.4,2.7,5.2,3.8c3,1.8,6.3,3.2,9.3,5
		c1.1,0.7,2.3,1.9,2.7,3.2c1.5,5.5,5.2,9.2,9.8,12c3.2,1.9,6.7,3.4,10.2,4.8s4.2,2.1,3.9,6c-0.5,5.5-2,10.7-5.1,15.3
		c-3.3,4.9-6.7,9.9-10.2,14.7c-2.3,3.2-3.8,6.7-4.1,10.7c0.3,0.1,0.5,0.2,0.8,0.3c0.9-2.3,1.6-4.8,2.9-6.9c1.4-2.4,3.4-4.6,5.1-6.8
		c1.6-2.1,3.2-4.3,5.4-6.2c-0.6,1.9-1.1,3.8-1.7,5.7c-2.8,9.6-4.8,19.2-2.6,29.2c2.7,12.1,9.4,21.7,18.8,29.6
		c0.2,0.1,0.5,0.1,1.4,0.3c-0.8-1-1.3-1.7-1.9-2.2c-14.4-14.2-19.7-31-14.9-50.8c1.5-6,3.6-11.9,5.3-17.9c1.1-3.8,2.1-7.5,3.3-11.6
		c4.3,8.7,6.4,17.7,5.5,27.3c-0.4,4.6-1.6,9.1-1.8,13.7c-0.2,4.5,0.2,9.1,0.4,13.7c0.3,0,0.6,0,0.9,0c0.1-0.6,0.2-1.3,0.3-1.9
		c0-0.8,0.1-1.6-0.1-2.4c-1-4.8-0.3-9.5,1-14c3.8-13.4,2.8-26.2-3.4-38.7c-0.5-1-0.9-2-1.2-3c-0.1-0.2,0.1-0.5,0.4-1.5
		c2.1,1.9,4,3.4,5.7,5.2c3.9,4.1,7.8,8.2,11.6,12.5c0.8,0.9,1.8,2.2,1.8,3.3c0.6,9.2,5.8,15.8,12,21.9c1.8,1.8,4.1,3.1,6.5,4.3
		c-8.2-6.6-13.8-14.6-15.7-25.6c1.1,0.2,1.7,0.3,2.3,0.5c7.8,1.8,13.3-0.7,17.4-7.7c0.6-1,1.6-1.8,2.2-2.8c0.4-0.7,1-1.8,0.7-2.5
		c-1.6-4.5-0.9-9.6-4.2-13.8c-1.1-1.5-0.7-4.8,0.1-7c3-8.9,5.4-17.8,6.1-27.8c8.3,6.4,16.8,10.3,27.1,5.4c-2.9,9.6-5.8,18.7-8.2,28
		c-3,11.2-5.9,22.5-8.1,33.9c-1.3,6.5-1.2,13.2-1.5,19.8c-0.2,3.5,0,7-0.2,10.6c-0.3,7.4-2.5,14.3-6.4,20.7
		c-5.5,9-11.1,17.7-20.5,23.2c-0.8,0.5-1.5,1.2-2.1,1.8c-0.2,0.2-0.2,0.5-0.7,1.7c10.5-5.6,18.1-13.2,24-22.6
		c-1.5,6.5-3.8,12.5-8.6,17.1c-7.1,6.8-15.2,12.1-25.1,13C-121.9,388.8-132,383.4-139.1,372.5z M-189.4,201.8
		c3.2-0.7,3.7-3.7,5.5-5.2c1.8-1.6,3.8-3,6.3-4.9c-4-0.2-7,0.1-9.7,2.2c0.6,0.4,1,0.7,1.5,1C-186.7,197.1-189.6,198.5-189.4,201.8z"
		/>
	<path class="st0" d="M-47.9,200.8c1.2-5.1,2.4-10.1,3.5-15.2c-0.4,7.2-1.6,14.1-4.7,20.3c-7.8-5-15.3-10-23-14.7
		c-2.6-1.6-4-3.6-3.4-6.6c0.9-4.3,1.7-8.8,3.1-13c1.3-3.8,0.6-6.8-2.1-9.6c-4.8-5.1-9.5-10.4-14.4-15.4c-1.1-1.2-2.9-1.9-4.5-2.5
		c-5.4-2-11-3.7-16.4-6c-6.7-2.8-12.4-7.3-16.5-13.4c-1.3-1.9-2.3-4.1-3.5-6.2c0.2-0.2,0.4-0.4,0.6-0.6c2.6,1,5.1,2.2,7.8,3
		c3.7,1.2,7.5,2.6,11.3,2.9c3.1,0.2,6.3-0.8,9.4-1.6c0.8-0.2,1.6-1.4,1.9-2.2c0.5-1.4,0.5-2.9,0.8-4.8c8.5,2.2,17,3.2,23.4,10.5
		c6.5,7.4,14.2,13.6,21.4,20.4c2.2,2,4.3,4.1,6.5,6.1c3.3,3,5,6.6,4.8,11.1c-0.2,4.4-0.5,8.9-1.2,13.3c-0.2-2.1-0.4-4.2-0.6-6.3
		c-0.2,0-0.5,0-0.7,0.1c-1.6,10-3.2,20-4.8,30C-48.6,200.6-48.2,200.7-47.9,200.8z"/>
	<path class="st0" d="M-86.9,185c3.2,1.8,6.3,3.3,9.2,5.1c6.7,4.3,13.4,8.7,20,13.2c1.2,0.8,2.3,2.4,2.5,3.8
		c0.7,7.3-5.1,15.2-12.2,17.2c-3.2,0.9-5.9,0.3-8.4-1.5c-7.5-5.4-14.9-10.7-22.3-16.3c-2.2-1.7-4.3-3-7.1-3.5
		c-12.6-2-24.4-6.1-34.6-14c-3.2-2.5-5.6-5.4-7.2-10.2c1.9,0.9,3.1,1.5,4.3,2.1c4.6,1.9,9.1,4.2,13.8,5.7c5,1.6,9.6-0.3,13.9-2.8
		c1.5-0.9,2.7-2.5,0-3.8c-0.2-0.1,0.1-0.9,0.1-1.3c8.4,2,16.7,3.9,25,5.9c0.4,4.2-2.4,7.1-4.1,10.5c2.5-0.8,2.5-0.8,4-3.8
		C-89.3,189.4-88.2,187.5-86.9,185z"/>
	<path class="st0" d="M-150.7,255.6c3.1,1,5.6,2.2,8.2,2.5c3.5,0.4,7.2,0.3,10.7-0.2c2.8-0.4,3.8-5.5,1.5-9.1
		c6.4,1.6,12.8,2.1,18.1,4.8c6,3.1,11.3,7.8,16.3,12.4c3.4,3.1,4.1,7.8,3.9,12.4c0,1.3-0.5,2.7-1.1,3.8c-3.6,6.3-14.9,7.5-19.7,2.1
		c-1.3-1.4-2.6-2.8-3.5-4.4c-2.7-4.6-6.8-7.1-11.6-8.9c-4.9-1.8-9.8-3.8-14.5-6.2C-146,262.9-149.2,260.3-150.7,255.6z
		 M-116.8,264.3c2.5-2.9,4.2-6.2,3-9.9c-0.4-0.1-0.8-0.2-1.2-0.3C-115.6,257.5-116.2,260.9-116.8,264.3z"/>
	<path class="st0" d="M-88.2,182.9c-7.2-1.6-14.4-3.3-21.6-4.9c-2.2-0.5-3.3-1.9-3.6-3.9c-1.2-8-1.4-16,0.2-24.4
		c2.7,1.8,5.2,3.5,7.7,5.2c0.3-0.3,0.5-0.6,0.8-0.8c-0.9-0.9-1.7-2-2.7-2.7c-5.6-3.9-9.3-9.2-12.2-16.2c8.1,5.8,16.5,8.8,25.4,10.6
		c2.7,0.5,5.2,3.3,5.3,5.9c0.4,9.9,0.7,19.7,1,29.6C-87.8,181.7-88,182.1-88.2,182.9z"/>
	<path class="st0" d="M-164.5,162.6c1.7,0.4,3.5,0.6,5.2,1.2c10.6,3.5,21.2,7.2,31.9,10.7c2.4,0.8,5,1.1,7.5,1.8
		c3.1,0.9,3.8,3.5,1.4,5.8c-2.7,2.6-6.2,3.5-9.8,2.6c-3.4-0.9-6.7-2.2-9.9-3.6c-5-2.3-10.1-4.5-14.9-7.3c-3.6-2.1-6.7-4.9-10-7.6
		c-0.9-0.7-1.4-1.8-2-2.8C-164.8,163.2-164.6,162.9-164.5,162.6z"/>
	<path class="st0" d="M-147.2,103.7c3.7,0.5,7.4,0.8,11,1.7c10.9,2.5,21.8,5.2,32.7,7.8c3.9,1,4.8,3.5,1.8,6.2
		c-1.4,1.3-3.5,2.4-5.3,2.5c-3,0.1-6.3-0.1-9.1-1.1c-7.4-2.5-14.7-5.5-21.9-8.5c-2.5-1-4.8-2.5-6.9-4.1c-1.2-0.9-1.9-2.3-2.8-3.6
		C-147.5,104.4-147.4,104.1-147.2,103.7z"/>
	<path class="st0" d="M-79.4,374.4c-3.5,8.3-9.5,13.9-17.6,17.1c-10.3,4.2-21,4.9-31.9,2.7c-6-1.2-10.9-4.4-13.8-9.7
		c-2.5-4.6-4.3-9.6-6.3-14.4c-0.5-1.2-0.4-2.6-0.3-3.9c1.9,6.9,4.4,13.3,10.5,17.7c-1.4-2.2-2.9-4.3-4.1-6.7
		c-1.2-2.3-1.9-4.9-2.2-7.5c2.7,3.3,5.2,6.9,8.1,10c9.2,9.6,20.6,13.6,33.5,10.3c8.8-2.2,16.3-7.1,22.4-13.9
		C-80.5,375.6-79.9,375-79.4,374.4z"/>
	<path class="st0" d="M-111.4,109c-8.1-1.9-16.3-3.9-24.4-5.8c-0.6-0.2-1.4-0.5-1.7-1c-2.8-4.3-5.8-8.5-5.5-14.1
		c0.3-4.4,2.7-5.9,6.5-3.8c2.3,1.2,4.5,2.6,6.3,4.3c6.5,6.4,12.9,13.1,19.3,19.6C-111,108.5-111.2,108.7-111.4,109z"/>
	<path class="st0" d="M-169.2,240.3c4.5,0.5,9.1,0.6,13.6,1.5c5.6,1.1,11,2.6,16.5,4.1c1.7,0.5,3.3,1.3,4.7,2.3
		c2.9,2.1,2.5,5.8-0.9,7c-1.6,0.6-3.5,0.8-5.1,0.4c-3.5-0.8-7.1-1.7-10.4-3.2c-5.3-2.4-10.4-5.2-15.5-8c-1.2-0.7-2.2-1.7-3.4-2.6
		C-169.5,241.3-169.4,240.8-169.2,240.3z"/>
	<path class="st0" d="M-85.9,155.3c3.4,3.1,7.4,6.3,11,10c0.9,0.9,1.2,3,0.9,4.5c-1.1,5.6-2.6,11.2-4,17c-1.7-0.8-3.8-1.5-5.6-2.5
		c-0.8-0.4-1.6-1.5-1.7-2.3c-0.4-2.1-0.5-4.3-0.5-6.4C-85.9,168.5-85.9,161.6-85.9,155.3z"/>
	<path class="st0" d="M-70.1,353.4c2.7,5.4,2.7,11.1,1.2,16.9c-4.9,18.8-21.2,30.1-41.2,28.5c11.3-1.6,21.6-5.4,28.8-14.7
		C-74.3,375.1-69.8,365.2-70.1,353.4z"/>
	<path class="st0" d="M-203.4,145.8c-0.2-7.3-0.6-13.7-0.5-20.2c0-1.4,0.9-3.4,2-4c1.9-0.9,3.3,0.9,4.2,2.3
		c3.1,5.3,6.1,10.7,9.5,16.8C-194.3,139.6-198.6,142.1-203.4,145.8z"/>
	<path class="st0" d="M-88.3,270.4c4.6,6.3,4.7,14,0.6,19.7c-3.8,5.2-11,6.3-15.9,2.4C-92.6,289.7-88.4,283.7-88.3,270.4z"/>
	<path class="st0" d="M-137,80.5c-3,1.2-5.7,2.2-8.7,3.3c-3.6-5.4-8.7-10.7-9.8-18.3C-148.5,69.6-143,75.3-137,80.5z"/>
	<path class="st0" d="M-46.4,221.8c-0.4,2.5-0.7,5.1-1.2,7.6c-1.7,7.8-6.3,11.3-14.3,10.6c-5.9-0.5-10.7-3.4-15.1-7.2
		c-0.5-0.4-0.7-1.3-1.3-2.4C-61.8,240.7-52,237.9-46.4,221.8z"/>
	<path class="st0" d="M-49.9,220.1c-0.6,12.3-14.3,17.5-21.9,11.4C-61.9,232.4-55.7,226.8-49.9,220.1z"/>
	<path class="st0" d="M-53.2,208.2c2.7,3.8,2.8,7,1,9.8c-2.8,4.4-6.9,7.6-11.6,9.8c-0.8,0.4-1.9,0.1-3-0.3
		C-58.2,224.2-53.1,218.5-53.2,208.2z"/>
	<path d="M-654.5,194.2c-0.7-0.1-1.4-0.2-2.7-0.3c2.3,2.3,4.5,4.4,5,7.6c-2.7-0.5-3.6-3.1-5.3-4.7c-1.8-1.7-3.9-3.1-6.4-5
		C-659.8,191.3-656.9,191.7-654.5,194.2z"/>
	<path d="M-726.6,254.3c0.9,3.9,1.7,7.8,2.6,11.7c-2.7-3.4-4.6-7-3.7-11.5C-727.4,254.4-727,254.4-726.6,254.3z"/>
	<path d="M-189.4,201.8c-0.2-3.3,2.7-4.7,3.6-7c-0.5-0.3-0.9-0.6-1.5-1c2.7-2.1,5.7-2.4,9.7-2.2c-2.5,2-4.5,3.4-6.3,4.9
		C-185.7,198.1-186.2,201.1-189.4,201.8z"/>
	<path d="M-116.8,264.3c0.6-3.4,1.2-6.8,1.8-10.2c0.4,0.1,0.8,0.2,1.2,0.3C-112.6,258.2-114.3,261.4-116.8,264.3z"/>
	<g>
		<path d="M-407.9,188.5H-433c-11.3,0-21.8-6-27.4-15.8l-3.6-6.3c-5.7-9.9-8.6-21.1-8.4-32.5c0-0.8,0.6-1.4,1.4-1.4l0,0
			c0.8,0,1.4,0.7,1.4,1.4c-0.2,10.9,2.6,21.6,8,31.1l3.6,6.3c5.2,8.9,14.7,14.4,25,14.4h25.1c10.3,0,19.8-5.5,25-14.4l3.6-6.3
			c10.6-18.5,10.6-41.3,0-59.8l-12-20.8c-7.4-0.3-13.3-6.5-13.3-13.9V51.4c0-0.8,0.6-1.4,1.4-1.4s1.4,0.6,1.4,1.4v19.1
			c0,6.1,5,11.1,11.1,11.1h0.2c0.5,0,1,0.3,1.2,0.7l12.4,21.4c11.1,19.4,11.1,43.2,0,62.6l-3.6,6.3
			C-386.1,182.5-396.6,188.5-407.9,188.5z"/>
		<path d="M-471,132.5L-471,132.5c-0.9-0.1-1.4-0.7-1.4-1.5l0,0c0.6-9.6,3.5-18.9,8.3-27.2l12.4-21.5c0.2-0.4,0.7-0.7,1.2-0.7
			c6.1,0,11.1-5,11.1-11.1V51.4c0-0.8,0.6-1.4,1.4-1.4s1.4,0.6,1.4,1.4v19.1c0,7.4-5.8,13.5-13.1,13.9l-12,20.8
			c-4.6,8-7.3,16.9-7.9,26C-469.6,131.9-470.2,132.5-471,132.5z M-410.5,178.1h-20c-9.1,0-17.5-4.9-22-12.7l-2.9-5
			c-3.1-5.4-5.2-11.3-6.1-17.4c-0.1-0.8,0.4-1.5,1.2-1.6s1.5,0.4,1.6,1.2c0.9,5.8,2.8,11.4,5.8,16.5l2.9,5
			c4.1,7,11.5,11.3,19.6,11.3h20c8.1,0,15.5-4.3,19.6-11.3l2.9-5c8.4-14.6,8.4-32.6,0-47.2l-9.6-16.6c-1.1-0.7-11.9-7.4-11-16.1
			c0.1-0.8,0.8-1.3,1.5-1.2c0.8,0.1,1.3,0.8,1.2,1.5c-0.6,6.6,7.8,12.3,9.5,13.3c0.4,0.1,0.7,0.3,0.9,0.7l9.8,17
			c8.9,15.5,8.9,34.5,0,50l-2.9,5C-393,173.3-401.4,178.1-410.5,178.1L-410.5,178.1z"/>
		<path d="M-420.4,55.6c-11.7,0-24.1-3.2-24.1-9.2V35.1c0-1.7,1-4.2,6-6.3c0.7-0.3,1.5,0,1.8,0.8c0.3,0.7,0,1.5-0.8,1.8
			c-2.7,1.1-4.3,2.5-4.3,3.7v11.3c0,2.7,8.1,6.4,21.3,6.4c13.2,0,21.3-3.7,21.3-6.4V35.1c0-1.2-1.6-2.6-4.3-3.7
			c-0.7-0.3-1-1.1-0.8-1.8c0.3-0.7,1.1-1,1.8-0.8c5,2.1,6,4.6,6,6.3v11.3C-396.3,52.4-408.8,55.6-420.4,55.6L-420.4,55.6z"/>
		<path d="M-420.4,46.5c-13.7,0-24.1-4.4-24.1-10.3c0-0.8,0.6-1.4,1.4-1.4s1.4,0.6,1.4,1.4c0,3.6,8.7,7.5,21.3,7.5
			c12.6,0,21.3-4,21.3-7.5c0-0.8,0.6-1.4,1.4-1.4s1.4,0.6,1.4,1.4C-396.3,42.1-406.7,46.5-420.4,46.5L-420.4,46.5z"/>
		<path d="M-420.4,41.2c-9.4,0-18.9-2.6-18.9-7.7c0-0.1,0-0.2,0-0.3l2.8-13.4c0.1-0.8,0.9-1.3,1.6-1.1c0.8,0.1,1.3,0.9,1.1,1.6l0,0
			l-2.7,13.3c0.2,2,6.5,4.7,16.1,4.7c9.7,0,15.9-2.8,16.1-4.7l-2.7-13.3c-0.2-0.8,0.3-1.5,1.1-1.7c0.8-0.2,1.5,0.3,1.7,1.1l0,0
			l2.8,13.4c0,0.1,0,0.2,0,0.3C-401.5,38.5-411,41.2-420.4,41.2L-420.4,41.2z"/>
		<path d="M-420.4,26.2c-7.8,0-16.1-1.9-16.1-6.1s8.4-6.1,16.1-6.1c7.8,0,16.1,1.9,16.1,6.1S-412.7,26.2-420.4,26.2z M-420.4,16.8
			c-8.7,0-13.3,2.4-13.3,3.3c0,1,4.7,3.3,13.3,3.3s13.3-2.4,13.3-3.3C-407.1,19.1-411.8,16.8-420.4,16.8z M-362.1,97.5
			c-0.6,0-1.2-0.4-1.4-1l-3.9-14.6L-382,78c-0.7-0.2-1.2-1-1-1.7c0.1-0.5,0.5-0.9,1-1l14.6-3.9l3.9-14.6c0.2-0.6,0.7-1,1.4-1
			c0.6,0,1.2,0.4,1.4,1l3.9,14.6l14.6,3.9c0.7,0.2,1.2,1,1,1.7c-0.1,0.5-0.5,0.9-1,1l-14.6,3.9l-3.9,14.6
			C-360.9,97.1-361.4,97.5-362.1,97.5z M-376.3,76.6l10.4,2.8c0.5,0.1,0.9,0.5,1,1l2.8,10.4l2.8-10.4c0.1-0.5,0.5-0.9,1-1l10.4-2.8
			l-10.4-2.8c-0.5-0.1-0.9-0.5-1-1l-2.8-10.4l-2.8,10.4c-0.1,0.5-0.5,0.9-1,1L-376.3,76.6z M-482.8,148.7c-0.6,0-1.2-0.4-1.4-1
			l-2.9-10.8l-10.8-2.9c-0.7-0.2-1.2-1-1-1.7c0.1-0.5,0.5-0.9,1-1l10.8-2.9l2.9-10.8c0.2-0.6,0.7-1,1.4-1c0.6,0,1.2,0.4,1.4,1
			l2.9,10.8l10.8,2.9c0.7,0.2,1.2,1,1,1.7c-0.1,0.5-0.5,0.9-1,1l-10.8,2.9l-2.9,10.8C-481.7,148.3-482.2,148.7-482.8,148.7z
			 M-492.1,132.6l6.6,1.8c0.5,0.1,0.9,0.5,1,1l1.8,6.6l1.8-6.6c0.1-0.5,0.5-0.9,1-1l6.6-1.8l-6.6-1.8c-0.5-0.1-0.9-0.5-1-1l-1.8-6.6
			l-1.8,6.6c-0.1,0.5-0.5,0.9-1,1L-492.1,132.6z M-373.3,57.1c-0.6,0-1.2-0.4-1.4-1l-2.6-9.7l-9.7-2.6c-0.7-0.2-1.2-1-1-1.7
			c0.1-0.5,0.5-0.9,1-1l9.7-2.6l2.6-9.7c0.2-0.7,1-1.2,1.7-1c0.5,0.1,0.9,0.5,1,1l2.6,9.7l9.7,2.6c0.7,0.2,1.2,1,1,1.7
			c-0.1,0.5-0.5,0.9-1,1l-9.7,2.6l-2.6,9.7C-372.1,56.6-372.6,57.1-373.3,57.1z M-381.2,42.3l5.5,1.5c0.5,0.1,0.9,0.5,1,1l1.5,5.5
			l1.5-5.5c0.1-0.5,0.5-0.9,1-1l5.5-1.5l-5.5-1.5c-0.5-0.1-0.9-0.5-1-1l-1.5-5.5l-1.5,5.5c-0.1,0.5-0.5,0.9-1,1L-381.2,42.3z
			 M-434.9,172.6c-5.4,0-11.2-2.3-17.2-6.8c-0.6-0.5-0.7-1.3-0.3-2c0.4-0.5,1-0.7,1.6-0.5c0.1,0,9.6,3.6,14.4-0.3
			c2.7-2.3,3.6-6.7,2.4-13.1c-0.1-0.8,0.4-1.5,1.1-1.6s1.5,0.4,1.6,1.1l0,0c1.3,7.5,0.2,12.9-3.4,15.8c-2.6,2.1-6,2.6-9.1,2.5
			c4.6,2.1,8.9,2.6,12.9,1.6c7.5-2,14.2-9.6,20-22.6c2.6-6,6.5-10,11.6-11.9c4.6-1.7,9.2-1.4,12.7-0.7c-5.6-5.2-10.8-7.8-15.9-7.9
			c-5.5-0.1-10.5,2.5-15.3,5.1c-1.8,1-3.7,2-5.5,2.8c-0.7,0.3-1.5,0-1.8-0.7s0-1.5,0.7-1.8l0,0c1.8-0.8,3.5-1.7,5.3-2.7
			c10-5.4,21.4-11.6,38.4,7.3c0.5,0.6,0.5,1.5-0.1,2c-0.4,0.4-1,0.5-1.5,0.2c-0.1,0-8.3-3.8-16-0.9c-4.3,1.6-7.7,5.1-10,10.4
			c-6.1,13.8-13.4,22-21.8,24.2C-431.6,172.4-433.2,172.6-434.9,172.6L-434.9,172.6z M-447.9,101.8c-0.8,0-1.4-0.6-1.4-1.4
			c0-0.2,0.1-0.5,0.2-0.7l3.6-6.3c0.1-0.3,0.4-0.5,0.6-0.6c0.5-0.2,12.7-5.8,10.8-16.5c-0.1-0.8,0.4-1.5,1.1-1.6
			c0.8-0.1,1.5,0.4,1.6,1.1c2,11.6-9.6,18.2-12,19.4l-3.4,5.9C-447,101.5-447.4,101.8-447.9,101.8L-447.9,101.8z"/>
		<path d="M-427.3,85.1c-0.5,0-0.9-0.2-1.1-0.6l-10.7-15c-0.4-0.6-0.3-1.5,0.3-2c0.1-0.1,0.3-0.2,0.5-0.2l11.1-2.9l-10.9-5.1
			c-0.7-0.3-1-1.2-0.7-1.9s1.2-1,1.9-0.7l13.9,6.6l19.5-5c0.8-0.2,1.5,0.3,1.7,1s-0.3,1.5-1,1.7l-16.2,4.2l17.2,8.1
			c0.7,0.3,1,1.2,0.7,1.9c-0.2,0.3-0.4,0.6-0.8,0.7l-24.8,9.1C-426.9,85.1-427.1,85.1-427.3,85.1z M-435.6,69.5l8.9,12.5l20.7-7.6
			l-17.2-8.1L-435.6,69.5z M-428.3,152.2c-0.1,0-0.2,0-0.4,0l-36.3-9.9c-0.7-0.2-1.2-0.9-1-1.7l9.5-41.6c0.2-0.7,0.9-1.2,1.7-1.1
			l36.7,8c0.8,0.2,1.2,0.9,1.1,1.7l0,0l-9.8,43.4C-427.1,151.8-427.7,152.2-428.3,152.2L-428.3,152.2z M-463,140l33.6,9.1l9.2-40.6
			l-33.9-7.4L-463,140z"/>
		<path d="M-439.3,116.7c-2.8,0-5.1-2.3-5.1-5.1c0-2.8,2.3-5.1,5.1-5.1s5.1,2.3,5.1,5.1l0,0C-434.2,114.5-436.5,116.7-439.3,116.7z
			 M-439.3,109.4c-1.3,0-2.3,1-2.3,2.3s1,2.3,2.3,2.3s2.3-1,2.3-2.3l0,0C-437,110.4-438,109.4-439.3,109.4z"/>
		<path d="M-442.7,140.3c-7.5,0-13.5-6-13.5-13.5c0-6.1,4-11.4,9.9-13c0.7-0.2,1.5,0.2,1.7,1c0.2,0.6-0.1,1.3-0.7,1.6
			c-2,1.1-3.5,2.9-4.2,5.1c-1.4,4.5,0.9,9.2,5.2,10.5c2.1,0.6,4.3,0.4,6.2-0.7c4.1-2.3,5.7-7.5,3.5-11.7c-0.4-0.7-0.1-1.5,0.6-1.9
			c0.6-0.3,1.3-0.2,1.7,0.3c4.8,5.7,4,14.3-1.8,19.1C-436.5,139.2-439.6,140.3-442.7,140.3L-442.7,140.3z M-452.7,122.7
			c-0.1,0.3-0.2,0.6-0.3,0.8c-1.8,5.7,1.4,11.7,7,13.4s11.7-1.4,13.4-7c0.1-0.3,0.2-0.6,0.2-0.9c-1,2-2.6,3.6-4.6,4.7
			c-2.5,1.4-5.6,1.8-8.4,0.9C-450.2,133-453.3,128-452.7,122.7L-452.7,122.7z M-439.3,113.1c-0.7,0-1.3-0.6-1.4-1.3L-443,80
			c-0.1-0.8,0.5-1.4,1.3-1.5s1.4,0.5,1.5,1.3l2.1,28.7l34.6-34.9c0.5-0.5,1.4-0.6,2,0c0.5,0.5,0.6,1.4,0,2l-36.8,37.1
			C-438.5,112.9-438.9,113.1-439.3,113.1L-439.3,113.1z M-395.8,173.2c-0.3,0-0.6-0.1-0.8-0.2c-0.1-0.1-10.9-7.6-2.3-21.8
			c5.2-8.6,17.1-5.3,17.6-5.2c0.7,0.2,1.2,1,1,1.7s-1,1.2-1.7,1l0,0c-0.2,0-10.4-2.8-14.4,3.9c-7.1,11.9,1.2,17.8,1.5,18.1
			c0.6,0.4,0.8,1.3,0.4,1.9C-394.9,172.9-395.4,173.2-395.8,173.2z"/>
	</g>
	<polygon class="st1" points="-540.1,211.2 -537.1,222.4 -546.1,215.1 -555.9,221.5 -551.8,210.6 -560.8,203.3 -549.2,203.9 
		-545,193 -542,204.3 -530.4,204.8 	"/>
	<polygon class="st2" points="-329.7,42.6 -327.6,48.6 -332.8,45 -337.9,48.8 -336.1,42.8 -341.3,39.1 -334.9,39 -333.1,32.9 
		-331,38.9 -324.7,38.8 	"/>
	<polygon class="st2" points="-507.9,323.8 -501,320.6 -504.2,327.6 -501,334.5 -507.9,331.3 -514.9,334.5 -511.7,327.6 
		-514.9,320.6 	"/>
	<polygon class="st2" points="-301.3,218.1 -304,210.3 -298.1,216 -290.3,213.3 -296,219.3 -293.3,227 -299.2,221.3 -307,224 	"/>
	<rect x="-625.5" y="251.1" class="st3" width="403.7" height="46.4"/>
	<text transform="matrix(1 0 0 1 -624.4751 266.3174)" style="font-family:'YuseiMagic-Regular'; font-size:20px;">Tu receta ha sido creada con éxito, ve al </text>
	<text transform="matrix(1 0 0 1 -577.7751 290.3174)" style="font-family:'YuseiMagic-Regular'; font-size:20px;">Recetario para ver como quedó.</text>
</g>
<rect x="-5" y="-2.5" class="st4" width="808" height="427"/>
<path class="st5" d="M618.9,297c-0.1,2-2.1,3.8-4.1,3.7c-1.9-0.1-3.6-1.9-3.6-3.7c0-2,1.9-4,3.9-3.9
	C617.1,293.1,619,295.1,618.9,297z M615.2,293.6c-1.2,1.5-2.4,2.4-2.3,3.2c0.1,0.9,1.3,1.6,2,2.4c0.8-0.7,2-1.4,2.2-2.2
	C617.2,296.2,616.2,295.2,615.2,293.6z"/>
<path class="st5" d="M587,333.4c-0.1,2-2.1,3.8-4.1,3.7c-1.9-0.1-3.6-1.9-3.6-3.7c0-2,1.9-4,3.9-3.9
	C585.2,329.5,587.1,331.5,587,333.4z M583.3,330c-1.2,1.5-2.4,2.4-2.3,3.2c0.1,0.9,1.3,1.6,2,2.4c0.8-0.7,2-1.4,2.2-2.2
	C585.4,332.6,584.3,331.6,583.3,330z"/>
<path class="st5" d="M218.3,310.2c-0.1,2-2.1,3.8-4.1,3.7c-1.9-0.1-3.6-1.9-3.6-3.7c0-2,1.9-4,3.9-3.9
	C216.5,306.3,218.4,308.3,218.3,310.2z M214.6,306.8c-1.2,1.5-2.4,2.4-2.3,3.2c0.1,0.9,1.3,1.6,2,2.4c0.8-0.7,2-1.4,2.2-2.2
	C216.7,309.4,215.6,308.4,214.6,306.8z"/>
<path class="st5" d="M456.2,216.2c-0.1,2.1-1.9,3.8-4,3.6c-1.9-0.1-3.5-1.7-3.6-3.7c-0.1-2.1,1.7-3.9,3.8-3.9
	C454.4,212.3,456.2,214.1,456.2,216.2z M452.1,219.3c1.2-1.6,2.2-2.4,2.3-3.2c0.1-0.7-1.2-2.2-1.6-2.1c-1,0.2-2.2,1-2.5,1.9
	C450.1,216.5,451.1,217.6,452.1,219.3z"/>
<path class="st5" d="M341.9,233.3c-2,0-3.9-1.9-3.9-3.8c0-1.9,2-3.9,3.8-3.9s3.9,2,3.9,3.8C345.7,231.4,343.8,233.3,341.9,233.3z
	 M341.8,232.7c1.1-1.6,2.2-2.5,2.1-3.3s-1.4-2-2.2-2c-0.7,0-2,1.3-2,2.2C339.6,230.4,340.7,231.3,341.8,232.7z"/>
<path class="st5" d="M551.2,164.9c-0.2,2.1-2.1,3.6-4.3,3.3c-1.9-0.3-3.4-2-3.3-3.9c0.1-2.1,2-3.7,4.1-3.5
	C549.8,160.9,551.4,162.8,551.2,164.9z M550.6,164.5c-1.5-1.1-2.5-2.3-3.2-2.2c-0.8,0.1-1.5,1.4-2.3,2.2c0.8,0.7,1.5,1.9,2.3,2
	C548.2,166.6,549.1,165.5,550.6,164.5z"/>
<path class="st5" d="M222.5,216.4c0,2-1.9,3.9-3.9,3.9c-2.1,0-3.9-1.8-3.9-3.9c0.1-1.8,1.8-3.6,3.7-3.7S222.5,214.5,222.5,216.4z
	 M215.3,216.8c1.7,1,2.7,2.1,3.5,1.9c0.8-0.2,1.7-1.5,1.8-2.5c0.1-0.5-1.4-1.8-2.1-1.7C217.6,214.6,216.8,215.7,215.3,216.8z"/>
<path class="st5" d="M583.8,193.4c0,2.1-1.9,3.9-3.8,3.9c-1.9-0.1-3.8-2.2-3.7-4.1c0.1-1.8,2-3.6,3.7-3.7
	C582,189.5,583.8,191.4,583.8,193.4z M583.4,193.6c-1.5-1.1-2.3-2.3-3.2-2.3c-0.8,0-2.1,1.3-2.2,2c0,0.8,1.2,2.1,2,2.2
	C580.9,195.6,581.8,194.6,583.4,193.6z"/>
<path class="st5" d="M246.4,172.8c0,2-1.9,3.8-3.9,3.8s-3.7-1.9-3.6-4c0.1-2,1.6-3.5,3.6-3.5C244.6,169,246.4,170.7,246.4,172.8z
	 M242.7,169.4c-1.1,1.6-2.1,2.4-2.2,3.4c-0.1,0.7,1.3,2.1,1.7,2c0.9-0.2,2.2-1.1,2.4-1.9C244.7,172.1,243.7,171,242.7,169.4z"/>
<path class="st5" d="M381.3,346.4c-2,0-3.9-1.9-3.9-3.9c0-1.9,1.6-3.5,3.6-3.6c2.1-0.1,4,1.6,4.1,3.6
	C385.1,344.5,383.3,346.4,381.3,346.4z M381.5,345.8c1-1.6,2.1-2.6,1.9-3.3c-0.2-0.9-1.4-1.5-2.2-2.3c-0.7,0.8-1.9,1.6-2,2.5
	C379.1,343.4,380.3,344.3,381.5,345.8z"/>
<path class="st6" d="M297.3,203l0.3,6.8c0,0,0,0.1-0.1,0l-4.9-4.7c-2.5-2.4-5.9-3.7-9.4-3.6l-6.8,0.3c0,0-0.1,0,0-0.1l4.7-4.9
	c2.4-2.5,3.7-5.9,3.6-9.4l-0.3-6.8c0,0,0-0.1,0.1,0l4.9,4.7c2.5,2.4,5.9,3.7,9.4,3.6l6.8-0.3c0,0,0.1,0,0,0.1l-4.7,4.9
	C298.4,196.1,297.1,199.5,297.3,203z"/>
<path class="st6" d="M315.3,324.7l3.3-1.4c0.5-0.2,0.9,0.3,0.7,0.7l-1.4,3.3c-0.6,1.5-0.6,3.2,0,4.8l1.4,3.3
	c0.2,0.5-0.3,0.9-0.7,0.7l-3.3-1.4c-1.5-0.6-3.2-0.6-4.8,0l-3.3,1.4c-0.5,0.2-0.9-0.3-0.7-0.7l1.4-3.3c0.6-1.5,0.6-3.2,0-4.8
	l-1.4-3.3c-0.2-0.5,0.3-0.9,0.7-0.7l3.3,1.4C312.1,325.3,313.8,325.3,315.3,324.7z"/>
<path class="st6" d="M517.6,215.6l-0.7-2.5c0-0.2,0.1-0.3,0.3-0.2l2,1.6c2.3,1.9,5.3,2.5,8.2,1.8l2.5-0.7c0.2,0,0.3,0.1,0.2,0.3
	l-1.6,2c-1.9,2.3-2.5,5.3-1.8,8.2l0.7,2.5c0,0.2-0.1,0.3-0.3,0.2l-2-1.6c-2.3-1.9-5.3-2.5-8.2-1.8l-2.5,0.7c-0.2,0-0.3-0.1-0.2-0.3
	l1.6-2C517.7,221.5,518.4,218.4,517.6,215.6z"/>
<g>
	<path class="st5" d="M129.5,139.5c-2.1-0.1-4-2.1-3.8-4s2.4-3.8,4.3-3.6c1.8,0.2,3.6,2.1,3.6,3.9
		C133.5,137.8,131.6,139.6,129.5,139.5z M132.9,135.6c-1.6-1-2.6-2.1-3.3-1.9c-0.8,0.1-2.1,1.5-2,2.2c0.1,0.8,1.4,2,2.2,2.1
		C130.5,138,131.4,136.8,132.9,135.6z"/>
	<path class="st5" d="M173.1,327.2c0,2-1.9,3.7-4,3.6c-2-0.1-3.5-1.7-3.6-3.6c-0.1-2.1,1.7-3.9,3.7-3.9
		C171.1,323.3,173.1,325.3,173.1,327.2z M169,324c-1,1.5-2.1,2.6-1.9,3.3c0.2,0.9,1.5,1.5,2.3,2.2c0.7-0.8,1.9-1.6,2-2.5
		C171.4,326.3,170.2,325.4,169,324z"/>
	<path class="st5" d="M126.5,204.7c0.1,2-1.7,4-3.7,4c-1.9,0.1-3.8-1.8-3.8-3.9c0-2,1.5-3.6,3.4-3.7
		C124.5,201,126.4,202.7,126.5,204.7z M122.6,208.1c1.1-1.5,2.2-2.4,2.1-3.2c-0.1-0.9-1.3-1.6-2-2.4c-0.8,0.8-2.1,1.4-2.2,2.3
		C120.4,205.6,121.5,206.6,122.6,208.1z"/>
	<path class="st4" d="M105.4,301.7c5,6.2,11.5,11.3,13.4,19.5c0.4-4.3-1.3-7.8-3.6-11.1c-3.4-4.9-6.9-9.7-10.1-14.7
		c-3.1-4.7-4.7-10-5-15.7c-0.2-3.5,0.4-4.2,3.6-5.3c4.9-1.6,9.6-3.7,13.6-7.1c3-2.6,5.4-5.6,6.6-9.5c0.4-1.3,1.7-2.7,2.9-3.5
		c3.7-2.2,7.7-4,11.4-6.2c2-1.2,4.9-2.6,4.2-5.3c-0.8-3.2-4.2-2.8-6.6-2.4c-6.8,1-13.6,2.2-20.3,3.7c-9.1,2-18.1,4.3-27.2,6.5
		c-0.3,0.1-0.7,0-0.5,0c2.9-7.4,5.8-14.9,8.7-22.4c-2.6,1.1-2.4,1.2-3.6,4.2c-1.8,4.7-3.7,9.3-5.9,13.7c-1.1,2.2-3.1,4-5.2,6.8
		c1.9-8.5,3.6-15.9,5.4-23.4c-0.4-0.1-0.8-0.2-1.1-0.3c-0.6,2.3-1.2,4.6-1.8,6.8c-1.8,6.7-3.3,13.4-8,18.9c-0.4,0.5-0.8,1.1-1.3,1.5
		c-5.6,4.3-11.2,8.5-17,12.8c-3.3-12.4-6.1-24.8-6.2-37.5c0-3.5,2.1-5.8,4.5-7.8c3.9-3.1,8.1-5.9,12.1-8.9c2.2-1.6,4.4-3.1,6.6-4.6
		c-0.1-0.2-0.2-0.5-0.4-0.7c-1.4,0.7-2.8,1.3-4.9,2.3c2.1-3.1,4.1-4.6,7.5-4.9c4.8-0.3,9.6-1.5,14.6-2.3c1.7,3.6,3.6,7,5.1,10.6
		c2.3,5.2,6.3,8.8,10.7,12c2.7,2,6.1,2.5,9.4,2.4c0.1-0.3,0.2-0.6,0.3-0.9c-1.6-0.6-3.3-1.2-5.3-2c1.9-0.2,3.4-0.5,5-0.6
		c9-0.6,14.3-5.8,17.9-13.6c3.3-7.2,3.8-14.9,4.6-22.6c0.7-6.8,2.1-13.4,4.9-19.6c2.3-5.2,4.5-10.5,7.1-15.5
		c1.5-2.8,3.5-5.5,5.9-7.6c6.4-5.7,15.2-0.6,16.1,5.2c0.7,4.9,1,10,0.8,14.9c-0.3,6.2-1.3,12.4-1.9,18.6c-0.7,6.8-3,13.2-5.9,19.3
		c-10.6,22.1-14.4,45.3-12.8,69.8c1.2,18.4-2.1,36.3-12.8,51.9c-3.2,4.6-7.2,8.8-11.3,12.7c-4.4,4.4-8.1,9-10.6,14.7
		c-3.1,7.1-7.1,13.7-12.2,19.5c-6.3,7.2-14.6,10.5-23.6,12.5c-0.9,0.2-1.9,0-2.8-0.2c-3.4-1-3.3-1-4.8,2.5
		c-13.8-1.8-27.5-15-29.7-28.1c4.1,4.5,8.5,9.8,13.4,14.5c2.7,2.7,6.2,4.6,9.9,6.3c-0.3-0.6-0.5-1.3-0.9-1.8s-1-0.9-1.6-1.3
		C55.4,372,49.3,361,43.4,350c-3-5.6-3.6-11.9-3.6-18.2c0-10,0.2-20.1-1.9-29.9c-2-9.3-4.3-18.4-6.8-27.6c-2.8-10.4-6-20.8-9.1-31.6
		c10.1,4.6,18.6,1,26.8-5.4c0.3,2.5,0.5,4.7,1,6.7c1.3,5.7,2.7,11.3,4.1,16.9c0.4,1.4,0.9,2.8,1.3,4.3c0.8,3.2,0.8,6.1-1.2,9.2
		c-4.7,7-1.8,23.3,11.4,24.9c1.3,0.2,2.7,0,4-0.1c1.2-0.1,2.4-0.5,4.3-0.9c-2,10.8-7.5,18.9-15.8,25.5c4.1-1.4,7.2-4.2,9.8-7.3
		c4.6-5.5,8.7-11.5,8.8-19.2c0-0.8,0.7-1.7,1.3-2.4c4.3-4.7,8.6-9.3,13-13.9c1.4-1.5,3.2-2.7,4.9-4c0.2,0.2,0.4,0.4,0.7,0.5
		c-1.2,2.9-2.4,5.9-3.6,8.8c-3.8,9.3-4.4,18.9-2.3,28.7c0.6,3,1.7,6.1,1.9,9.1c0.3,4.9,0.1,9.9,0.3,14.9c1.4-5.1,2.1-10.2,1.2-15.5
		c-1.3-8.3-2.8-16.6-1.3-25c0.9-5.2,2.6-10.1,5-15c1.5,5.3,2.8,10.3,4.2,15.5c-1.4,0.8-3.8,1.3-2.6,3.5c0.6,1.1,2.6,1.4,4.6,2.3
		c6.2,16.2,6.1,32.7-3.8,48.6c-2.7,4.4-5.8,8.4-10.2,11.4c-0.7,0.5-1.2,2.1-1,3c0.1,0.6,2,1.5,2.5,1.2c0.9-0.5,2-2.1,1.7-2.7
		c-0.9-2.2,0.7-2.9,1.8-4c8-8.1,13.6-17.5,15.4-28.9c1.3-8.4-0.3-16.4-2.5-24.5C106.8,306.6,106.1,304.2,105.4,301.7z M157.4,196.4
		c-2.5-2.5-5.4-2.9-9.3-2.5c2.5,1.9,4.6,3.3,6.4,5c1.7,1.6,2.6,4.2,5.3,4.7c-0.5-3.2-2.7-5.2-5-7.6
		C155.9,196.2,156.7,196.3,157.4,196.4z"/>
	<path class="st7" d="M18.9,208.7c-1.7-7-3.4-13.7-5.1-20.5c0.3-0.1,0.6-0.2,0.9-0.2c1.2,5,2.3,10,3.5,15c0.3-0.1,0.6-0.1,1-0.2
		c-1.6-10-3.2-20-4.7-30c-0.2,0-0.4-0.1-0.6-0.1c-0.2,2.1-0.5,4.2-0.7,6.4c-0.2,0-0.3,0-0.5,0c-0.2-4.7-0.4-9.3-0.7-14
		c-0.3-4.3,1.5-7.6,4.6-10.4c5.3-4.9,10.7-9.6,15.9-14.5c4.5-4.3,9-8.6,13.3-13.1c3.2-3.4,6.7-5.8,11.3-6.8c3.5-0.8,7-1.7,10.6-2.6
		c1.1,7.1,1.3,7.3,8.3,8.4c3.8,0.6,8-0.4,11.9-1.4c4.1-1.1,8-2.9,12.5-4.7c-3.7,9.4-10.2,15.6-18.5,19.5c-5.7,2.7-11.8,4.6-17.8,6.6
		c-2.4,0.8-4.3,2-5.9,3.9c-4,4.6-8.1,9.1-12.4,13.4c-3.2,3.2-4.2,6.5-2.6,11c1.4,3.9,2.1,8.1,3,12.2c0.7,3-0.5,5.1-3.2,6.7
		c-4.2,2.4-8.3,5.1-12.4,7.7C26.7,203.3,23.3,205.7,18.9,208.7z"/>
	<path class="st7" d="M59.9,186.9c8.9-2.1,17.2-4,25.2-5.9c0.8,2,1.1,4.9,2.6,5.9c3.1,2,7,3.2,10.8,2.2c3.5-0.9,6.9-2.2,10.3-3.6
		c2.8-1.2,5.4-2.7,8.7-4.4c-1.2,4.8-3.8,7.7-7.1,10.2c-9.9,7.6-21.2,11.9-33.4,13.7c-3.5,0.5-6.2,2.1-9,4.3
		c-6.6,5.2-13.3,10.2-20.3,14.9c-7.4,4.9-16.4,1.9-20.1-6.2c-0.6-1.3-1.1-2.8-1.5-4.2c-1.4-5.5-0.7-6.5,4.2-9.4s9.6-6.1,14.2-9.4
		c4.1-2.9,8.1-5.9,13-7.4c2.2,3.5,3.2,7.6,7,9.7c-0.9-1.6-1.9-3.1-2.7-4.8C61.1,190.8,60.6,189,59.9,186.9z"/>
	<path class="st7" d="M100.4,251.3c-2.6,4.4-0.5,8.3,3.8,9c5.8,0.9,11.2-0.3,16.9-2.8c-0.9,3.1-2.4,5.1-4.4,6.7
		c-4.5,3.8-9.9,6.2-15.4,7.9c-6.4,2-12,4.9-15.4,11c-0.8,1.5-2.3,2.7-3.4,4.1c-1.6,1.9-3.6,2.8-6.1,2.8
		c-11.5-0.2-17.6-6.1-12.3-18.7c0.5-1.2,1.2-2.5,2.2-3.4c6.4-6,12.8-12.1,21.8-14C92.1,253.1,96.1,252.2,100.4,251.3z M85.2,256.5
		c-0.4,0.1-0.7,0.1-1.1,0.2c-0.8,4.4,1,8.1,3.7,11.5C87,264.3,86.1,260.4,85.2,256.5z"/>
	<path class="st4" d="M58.3,185.2c0-2.8-0.1-4.9,0-7c0.2-7.6,0.5-15.1,0.8-22.7c0.2-4.5,2.1-6.8,6.6-7.7c8.4-1.8,16.3-4.7,23.9-10.2
		c-2.9,8.4-8.4,13.9-15.2,18.4c0.4,0.4,0.8,0.8,1.2,1.3c2.6-1.7,5.1-3.4,7.9-5.2c1.7,8.3,1.5,16.3,0.3,24.3
		c-0.3,1.8-1.1,3.3-3.1,3.8C73.4,181.8,66,183.5,58.3,185.2z"/>
	<path class="st4" d="M80.7,111.4c8-8.4,14.5-16.9,23.1-23.3c1.2-0.9,2.5-1.6,3.9-2.1c2.8-1.2,4.9-0.2,5.4,2.8
		c0.3,1.8,0.1,3.8-0.1,5.6c-0.1,0.9-0.6,1.8-1,2.7c-2,5.5-5.3,8.9-11.5,9.7C94.2,107.7,88,109.7,80.7,111.4z"/>
	<path class="st4" d="M56.1,157.1c0,9.2,0,18.7,0,28.3c-2.9,1.3-5.3,2.4-7.7,3.5c-1.4-5.9-2.9-11.5-4-17.3c-0.3-1.5,0.3-3.6,1.3-4.7
		C49,163.4,52.7,160.2,56.1,157.1z"/>
	<g>
		<path class="st8" d="M135.3,165.9c-2.5,4-6.2,7.1-10.3,9.2c-7.5,3.9-15.3,7.3-23.1,10.9c-3.9,1.8-7.9,1.6-11.7-0.5
			c-1.7-1-3.3-2.5-2.5-4.5c0.5-1.2,2.2-2.2,3.5-2.7c12.6-4.1,25.2-8.1,37.8-12c1.9-0.6,3.8-1,5.7-1.5
			C134.9,165.1,135.1,165.5,135.3,165.9z"/>
		<path class="st8" d="M118.2,107.1c-1.3,1.4-2.3,3.2-3.9,4.2c-2.8,1.8-5.9,3.3-9,4.6c-5.6,2.3-11.3,4.6-17.1,6.5
			c-3.4,1.1-7.1,1.6-10.7,1.8c-2.7,0.2-5-1.3-6.4-3.6c-1.5-2.4-0.9-4.2,1.8-4.9c3.1-0.8,6.3-1.4,9.5-2.1c9.1-2.2,18.1-4.4,27.2-6.5
			c2.6-0.6,5.2-0.6,7.8-1C117.8,106.4,118,106.7,118.2,107.1z"/>
		<path class="st8" d="M140.1,243.9c-1.1,0.9-2.1,1.9-3.3,2.6c-4.7,2.6-9.4,5.3-14.4,7.6c-3.5,1.6-7.3,2.7-11.1,3.8
			c-1.2,0.4-2.7,0.3-4,0.1c-2.1-0.3-3.9-1.1-4.3-3.6s0.9-3.9,2.9-4.7c1.6-0.7,3.2-1.3,4.9-1.8c4.6-1.2,9.2-2.3,13.7-3.6
			c5-1.4,10-1.5,15.1-1.2C139.8,243.3,139.9,243.6,140.1,243.9z"/>
		<path class="st9" d="M173.4,147.6c-4.4-3.2-8.6-5.7-14.4-4.6c0.6-1.4,1-2.3,1.5-3.2c1.9-3.6,3.9-7.1,5.9-10.6
			c0.7-1.3,1.4-2.7,2.5-3.6c1-0.9,2.6-1.7,3.8-1.5c0.7,0.1,1.7,2.1,1.7,3.2c0.1,4.6,0,9.2-0.2,13.8
			C174.1,142.9,173.7,144.9,173.4,147.6z"/>
		<path class="st8" d="M126.3,68.2c-1.6,7.2-6.6,12.5-10.2,17.8c-3-1.2-5.6-2.2-8.7-3.4c5.8-5.1,11.7-10.2,17.6-15.4
			C125.4,67.6,125.8,67.9,126.3,68.2z"/>
	</g>
	<g>
		<path class="st10" d="M110,385.6c5.8-4.5,8.1-10.9,9.6-17.8c0.2,0.2,0.4,0.4,0.4,0.5c-1,9-4.4,17.1-11,23.3
			c-2.5,2.4-6.2,4-9.6,4.8c-11.4,2.5-22.6,1.5-33.3-3.2c-8.4-3.8-14.1-10.2-17.8-18.6c2.1,2.3,3.8,5,6.2,6.9
			c4.1,3.1,8.4,5.9,12.8,8.4c14.1,8,31.5,1.6,39.2-6.7c1.9-2.1,3.8-4.2,5.5-6.5c1.6-2.1,3-4.5,4.8-7.2
			C115.5,375.6,113.2,380.7,110,385.6z"/>
		<path class="st10" d="M40,356.1c4.9,28.7,14.8,39.6,41.2,45.1c-15.7,0.5-28.2-4.1-36.6-17C39.2,375.9,36.3,366.8,40,356.1z"/>
		<path class="st10" d="M58.9,272.9c-0.6,12.3,4.7,19.8,15.1,21.6c-3.7,3.6-10.4,3.3-14.5-0.6C54.3,289,53.2,277.6,58.9,272.9z"/>
		<path class="st10" d="M16.8,224.7c6.5,15.6,16.5,18.3,32.1,7.6c-1,1.5-1.3,2.3-1.9,2.8c-4.9,4.1-10.2,7.1-16.8,7
			C24,242,20,239,18.5,232.9C17.7,230.3,17.3,227.5,16.8,224.7z"/>
		<path class="st10" d="M19.7,221.2c7.5,9.6,12.3,12.3,22.1,12.5C33.1,240.4,21.8,234,19.7,221.2z"/>
		<path class="st10" d="M109.5,374.6c-6.8,10.4-16.2,15.6-28.8,14.9C91.4,386.4,102,383.5,109.5,374.6z"/>
		<path class="st10" d="M39,231.5c-1.4-0.1-3,0.2-3.9-0.5c-4-2.9-8.1-5.9-11.5-9.4c-3.1-3.2-3.1-7.3-0.8-11.1
			c1.7,4.2,2.7,9,5.3,12.5C30.7,226.5,35.1,228.5,39,231.5z"/>
	</g>
	<path class="st11" d="M157.4,196.4c-0.7-0.1-1.4-0.2-2.7-0.3c2.3,2.3,4.5,4.4,5,7.6c-2.7-0.5-3.6-3.1-5.3-4.7
		c-1.8-1.7-3.9-3.1-6.4-5C152,193.5,154.9,193.9,157.4,196.4z"/>
	<path class="st11" d="M85.2,256.5c0.9,3.9,1.7,7.8,2.6,11.7c-2.7-3.4-4.6-7-3.7-11.5C84.5,256.6,84.8,256.6,85.2,256.5z"/>
	<path class="st11" d="M110.8,104.3c2.2,0,4.3-0.2,6.2,0.1c2.8,0.4,3.7,2.1,2,4.2c-2,2.5-4.5,4.7-7.1,6.4c-2.6,1.7-6.2,2-8.4,3.9
		c-2,1.8-2.2,5.6-4.1,7.7c-5.8,6.4-8.2,14.6-12.7,21.6c-0.4,0.7-0.8,1.5-0.8,2.2c0.1,8.5,0.4,17,0.6,25.5c0,0.5,0.3,1,0.6,2
		c11.7-3.9,23.2-7.8,34.7-11.5c3.6-1.2,7.2-2.3,10.9-3.1c1.3-0.3,3.3,0.2,3.9,1c0.5,0.8-0.1,2.8-0.8,3.9c-2.8,4.3-7,7.1-11.5,9.4
		c-2.8,1.4-4.6,3-5.5,6.3c-1.3,4.5-4.5,8.1-8.2,10.8c-4,2.9-8.5,5.3-12.8,7.8c-1.1,0.7-2.4,1.1-4.2,1.9c3.1,5.8,5.4,11.7,9.7,16.4
		c0.4,0.5,1,0.9,1.6,1.3c7.4,4.9,21.9,1,26-6.9c2.7-5.3,4.1-10.9,4.5-16.8c1.4-17.8,8.7-33.7,16.8-49.2c4-7.7,8.6-15,13-22.5
		c1-1.6,2.1-3.2,3.5-4.4c2.2-1.9,4.7-1.3,6.1,1.3c0.7,1.3,1.1,2.8,1.4,4.2c0.3,1.3,0.3,2.7,0.3,4c0,9.6-0.5,19,0.2,28.7
		c0.7,9.3-1.1,18.9-2.3,28.2c-0.8,6.5-2.9,12.7-6.1,18.4c-7.7,13.9-11.1,29-12.2,44.6c-0.6,7.5-0.6,15.1-0.3,22.7
		c0.5,12.2-1.1,24.1-4.3,35.7c-3.2,11.3-8.6,21.6-17.8,28.9c-8.1,6.5-10.9,14.4-10.2,24.2c0.6,8.4-2.1,16-6,23.3
		c-3.8,7.1-9.6,11.6-17.5,13.3c-5.3,1.1-10.6,2.3-15.9,3.2c-6.7,1.2-13.2,0.3-19.7-1.4c-18.4-4.9-27.8-22.3-28.7-36.1
		c-0.3-4.8,0.8-9.4,3.2-13.7c0.6-1,1-2.6,0.6-3.7c-2.9-8.2-3.2-16.7-2.8-25.3c0.6-12.2-0.8-24-4.3-35.7c-2-6.5-3.4-13.1-5.4-19.5
		c-2.9-9.4-6.1-18.8-9.3-28.1c-1.8-5.4-3.5-10.8-3.4-16.6c0.1-4,0.8-7.8,3-11.2c0.5-0.8,0.8-2.4,0.4-3.2c-5.1-9.9-5.8-20.8-7.3-31.5
		c-0.4-2.5-0.4-5.1-0.8-7.7c-1.2-7,1.9-12.4,6.5-17.1c9.9-10,20-19.8,30.1-29.6c3.2-3.2,7.6-4.1,11.7-5.3c5.5-1.5,11-2.7,16.5-4.2
		c1.5-0.4,2.9-1.3,4.1-2.4c1.7-1.5,3.2-3.3,4.7-5c11.2-13.5,23.9-25.5,37-36.9c1.1-1,2.4-1.9,3.7-2.5c2.5-1.1,4,0,3.8,2.7
		c-0.1,1.3-0.4,2.7-1.1,3.9c-1.6,3-3.3,5.9-5.2,8.7c-2.8,4-5.6,7.8-6.5,12.9C114.2,98,112.2,101,110.8,104.3z M105.4,301.7
		c0.7,2.5,1.4,4.9,2.1,7.4c2.2,8,3.8,16.1,2.5,24.5c-1.7,11.4-7.4,20.8-15.4,28.9c-1.1,1.1-2.7,1.8-1.8,4c0.3,0.6-0.8,2.2-1.7,2.7
		c-0.5,0.3-2.4-0.6-2.5-1.2c-0.2-0.9,0.2-2.5,1-3c4.4-3,7.5-7.1,10.2-11.4c9.9-15.8,10-32.4,3.8-48.6c-2-0.9-4-1.2-4.6-2.3
		c-1.2-2.2,1.2-2.8,2.6-3.5c-1.4-5.2-2.8-10.2-4.2-15.5c-2.4,4.9-4.1,9.8-5,15c-1.5,8.4-0.1,16.7,1.3,25c0.9,5.3,0.2,10.4-1.2,15.5
		c-0.2-5,0-10-0.3-14.9c-0.2-3.1-1.3-6.1-1.9-9.1c-2.1-9.8-1.5-19.4,2.3-28.7c1.2-2.9,2.4-5.9,3.6-8.8c-0.2-0.2-0.4-0.4-0.7-0.5
		c-1.6,1.3-3.4,2.5-4.9,4c-4.4,4.6-8.7,9.2-13,13.9c-0.6,0.7-1.2,1.6-1.3,2.4c-0.2,7.7-4.2,13.6-8.8,19.2c-2.6,3.1-5.7,5.9-9.8,7.3
		c8.3-6.6,13.9-14.6,15.8-25.5c-1.9,0.4-3.1,0.7-4.3,0.9c-1.3,0.1-2.7,0.3-4,0.1c-13.1-1.6-16.1-17.9-11.4-24.9c2.1-3.1,2-6,1.2-9.2
		c-0.4-1.4-0.9-2.8-1.3-4.3c-1.4-5.6-2.8-11.3-4.1-16.9c-0.5-2.1-0.6-4.2-1-6.7c-8.2,6.4-16.7,10-26.8,5.4
		c3.1,10.8,6.3,21.2,9.1,31.6c2.5,9.1,4.8,18.3,6.8,27.6c2.1,9.9,1.9,19.9,1.9,29.9c0,6.3,0.6,12.5,3.6,18.2
		c5.9,11,12,21.9,23.3,28.6c0.6,0.3,1.2,0.8,1.6,1.3s0.6,1.2,0.9,1.8c-3.7-1.8-7.2-3.7-9.9-6.3c-4.9-4.8-9.3-10-13.4-14.5
		c2.2,13.1,15.9,26.3,29.7,28.1c1.5-3.5,1.5-3.5,4.8-2.5c0.9,0.3,1.9,0.4,2.8,0.2c9-2,17.3-5.3,23.6-12.5
		c5.1-5.9,9.1-12.4,12.2-19.5c2.5-5.7,6.2-10.4,10.6-14.7c4-4,8.1-8.1,11.3-12.7c10.8-15.6,14-33.5,12.8-51.9
		c-1.5-24.5,2.2-47.7,12.8-69.8c3-6.1,5.2-12.5,5.9-19.3c0.7-6.2,1.6-12.4,1.9-18.6c0.2-5,0-10-0.8-14.9c-0.9-5.8-9.7-11-16.1-5.2
		c-2.4,2.1-4.4,4.8-5.9,7.6c-2.7,5-4.8,10.3-7.1,15.5c-2.8,6.2-4.2,12.8-4.9,19.6c-0.8,7.6-1.3,15.4-4.6,22.6
		c-3.6,7.8-8.9,13.1-17.9,13.6c-1.5,0.1-3.1,0.4-5,0.6c2,0.8,3.6,1.4,5.3,2c-0.1,0.3-0.2,0.6-0.3,0.9c-3.3,0.1-6.6-0.4-9.4-2.4
		c-4.3-3.2-8.4-6.8-10.7-12c-1.6-3.6-3.4-7-5.1-10.6c-5,0.8-9.8,2-14.6,2.3c-3.4,0.2-5.3,1.8-7.5,4.9c2.1-1,3.5-1.6,4.9-2.3
		c0.1,0.2,0.2,0.5,0.4,0.7c-2.2,1.5-4.4,3.1-6.6,4.6c-4.1,2.9-8.2,5.7-12.1,8.9c-2.4,1.9-4.6,4.3-4.5,7.8
		c0.1,12.8,2.8,25.1,6.2,37.5c5.8-4.3,11.4-8.6,17-12.8c0.5-0.4,0.9-1,1.3-1.5c4.7-5.5,6.2-12.2,8-18.9c0.6-2.3,1.2-4.6,1.8-6.8
		c0.4,0.1,0.8,0.2,1.1,0.3c-1.7,7.5-3.4,14.9-5.4,23.4c2.1-2.7,4.1-4.5,5.2-6.8c2.2-4.5,4.1-9.1,5.9-13.7c1.2-3.1,1-3.2,3.6-4.2
		c-2.9,7.5-5.8,14.9-8.7,22.4c-0.2,0,0.2,0.1,0.5,0c9.1-2.2,18.1-4.5,27.2-6.5c6.7-1.5,13.5-2.7,20.3-3.7c2.4-0.3,5.8-0.8,6.6,2.4
		c0.7,2.7-2.2,4.1-4.2,5.3c-3.7,2.2-7.7,4-11.4,6.2c-1.2,0.7-2.5,2.1-2.9,3.5c-1.2,4-3.6,6.9-6.6,9.5c-4,3.4-8.6,5.5-13.6,7.1
		c-3.3,1.1-3.8,1.8-3.6,5.3c0.3,5.6,1.9,11,5,15.7c3.3,5,6.7,9.8,10.1,14.7c2.3,3.3,4,6.8,3.6,11.1
		C116.9,313,110.4,307.9,105.4,301.7z M18.9,208.7c4.4-3,7.8-5.4,11.3-7.7c4.1-2.6,8.2-5.3,12.4-7.7c2.7-1.6,3.9-3.7,3.2-6.7
		c-0.9-4.1-1.6-8.3-3-12.2c-1.6-4.5-0.6-7.8,2.6-11c4.3-4.3,8.4-8.8,12.4-13.4c1.7-1.9,3.5-3.1,5.9-3.9c6-2,12.1-3.9,17.8-6.6
		c8.4-4,14.9-10.1,18.5-19.5c-4.5,1.7-8.4,3.6-12.5,4.7c-3.9,1-8.1,2-11.9,1.4c-6.9-1.1-7.2-1.3-8.3-8.4c-3.5,0.9-7,1.8-10.6,2.6
		c-4.5,1-8.1,3.5-11.3,6.8c-4.3,4.5-8.7,8.9-13.3,13.1c-5.2,4.9-10.6,9.7-15.9,14.5c-3,2.8-4.8,6.1-4.6,10.4c0.3,4.7,0.5,9.3,0.7,14
		c0.2,0,0.3,0,0.5,0c0.2-2.1,0.5-4.2,0.7-6.4c0.2,0,0.4,0.1,0.6,0.1c1.6,10,3.2,20,4.7,30c-0.3,0.1-0.6,0.1-1,0.2
		c-1.2-5-2.3-10-3.5-15c-0.3,0.1-0.6,0.2-0.9,0.2C15.5,195,17.2,201.7,18.9,208.7z M59.9,186.9c0.7,2.1,1.2,3.9,2,5.6
		c0.7,1.6,1.8,3.2,2.7,4.8c-3.8-2.1-4.8-6.2-7-9.7c-5,1.5-8.9,4.5-13,7.4c-4.7,3.3-9.3,6.5-14.2,9.4s-5.6,4-4.2,9.4
		c0.4,1.4,0.9,2.9,1.5,4.2c3.7,8.1,12.8,11.1,20.1,6.2c7-4.6,13.7-9.7,20.3-14.9c2.8-2.2,5.5-3.7,9-4.3c12.2-1.9,23.5-6.2,33.4-13.7
		c3.3-2.5,5.9-5.4,7.1-10.2c-3.3,1.7-5.9,3.3-8.7,4.4c-3.4,1.4-6.8,2.7-10.3,3.6c-3.9,1-7.7-0.3-10.8-2.2c-1.5-0.9-1.8-3.9-2.6-5.9
		C77.1,182.9,68.8,184.8,59.9,186.9z M100.4,251.3c-4.3,0.9-8.3,1.8-12.2,2.7c-9,2-15.4,8.1-21.8,14c-1,0.9-1.6,2.2-2.2,3.4
		C59,283.9,65,289.8,76.5,290c2.4,0,4.5-0.8,6.1-2.8c1.1-1.4,2.5-2.5,3.4-4.1c3.4-6.2,9-9.1,15.4-11c5.6-1.7,10.9-4.1,15.4-7.9
		c2-1.7,3.5-3.6,4.4-6.7c-5.7,2.5-11.1,3.7-16.9,2.8C99.9,259.6,97.8,255.7,100.4,251.3z M58.3,185.2c7.7-1.8,15-3.5,22.4-5.1
		c2-0.5,2.9-2,3.1-3.8c1.2-8,1.5-16-0.3-24.3c-2.8,1.8-5.3,3.5-7.9,5.2c-0.4-0.4-0.8-0.8-1.2-1.3c6.8-4.6,12.3-10.1,15.2-18.4
		c-7.6,5.5-15.5,8.4-23.9,10.2c-4.5,1-6.5,3.3-6.6,7.7c-0.3,7.6-0.6,15.1-0.8,22.7C58.3,180.3,58.3,182.4,58.3,185.2z M135.3,165.9
		c-0.2-0.4-0.4-0.8-0.6-1.2c-1.9,0.5-3.8,0.9-5.7,1.5c-12.6,4-25.2,7.9-37.8,12c-1.4,0.4-3.1,1.5-3.5,2.7c-0.8,2,0.8,3.5,2.5,4.5
		c3.8,2.1,7.7,2.3,11.7,0.5c7.7-3.5,15.5-7,23.1-10.9C129.1,173,132.8,170,135.3,165.9z M118.2,107.1c-0.2-0.3-0.4-0.7-0.6-1
		c-2.6,0.3-5.3,0.4-7.8,1c-9.1,2.1-18.2,4.3-27.2,6.5c-3.2,0.7-6.4,1.3-9.5,2.1c-2.7,0.7-3.3,2.5-1.8,4.9c1.5,2.3,3.8,3.8,6.4,3.6
		c3.6-0.2,7.3-0.7,10.7-1.8c5.8-1.9,11.4-4.2,17.1-6.5c3.1-1.3,6.2-2.8,9-4.6C115.9,110.3,116.9,108.5,118.2,107.1z M110,385.6
		c3.2-4.9,5.6-10,6.7-16.2c-1.8,2.7-3.2,5-4.8,7.2c-1.7,2.3-3.6,4.4-5.5,6.5c-7.7,8.4-25,14.7-39.2,6.7c-4.5-2.5-8.8-5.3-12.8-8.4
		c-2.4-1.8-4.2-4.5-6.2-6.9c3.7,8.3,9.4,14.8,17.8,18.6c10.7,4.8,21.9,5.7,33.3,3.2c3.4-0.7,7.1-2.4,9.6-4.8
		c6.6-6.2,10-14.3,11-23.3c0-0.1-0.2-0.3-0.4-0.5C118.1,374.7,115.8,381.1,110,385.6z M80.7,111.4c7.3-1.7,13.5-3.7,19.8-4.6
		c6.2-0.8,9.5-4.3,11.5-9.7c0.3-0.9,0.9-1.7,1-2.7c0.2-1.9,0.4-3.8,0.1-5.6c-0.5-3-2.5-4-5.4-2.8c-1.4,0.6-2.7,1.3-3.9,2.1
		C95.2,94.5,88.7,103,80.7,111.4z M140.1,243.9c-0.1-0.3-0.3-0.6-0.4-0.8c-5.1-0.2-10.1-0.2-15.1,1.2c-4.6,1.3-9.2,2.3-13.7,3.6
		c-1.7,0.5-3.3,1.1-4.9,1.8c-2,0.9-3.3,2.3-2.9,4.7c0.4,2.5,2.2,3.3,4.3,3.6c1.3,0.2,2.8,0.2,4-0.1c3.7-1.1,7.6-2.2,11.1-3.8
		c4.9-2.3,9.6-5,14.4-7.6C138,245.8,139,244.7,140.1,243.9z M56.1,157.1c-3.3,3.1-7,6.3-10.3,9.8c-1,1.1-1.6,3.3-1.3,4.7
		c1.1,5.8,2.6,11.4,4,17.3c2.4-1.1,4.8-2.2,7.7-3.5C56.1,175.8,56.1,166.3,56.1,157.1z M40,356.1c-3.7,10.7-0.8,19.7,4.7,28.1
		c8.4,12.9,20.9,17.5,36.6,17C54.8,395.7,45,384.9,40,356.1z M173.4,147.6c0.3-2.6,0.7-4.6,0.8-6.6c0.2-4.6,0.3-9.2,0.2-13.8
		c0-1.1-1-3.1-1.7-3.2c-1.2-0.2-2.8,0.6-3.8,1.5c-1.1,0.9-1.8,2.4-2.5,3.6c-2,3.5-3.9,7.1-5.9,10.6c-0.5,0.9-0.8,1.8-1.5,3.2
		C164.8,141.9,169,144.4,173.4,147.6z M58.9,272.9c-5.6,4.8-4.5,16.1,0.7,21.1c4.1,3.9,10.7,4.1,14.5,0.6
		C63.6,292.6,58.3,285.2,58.9,272.9z M126.3,68.2c-0.4-0.3-0.9-0.6-1.3-0.9c-5.9,5.1-11.8,10.3-17.6,15.4c3.1,1.2,5.7,2.2,8.7,3.4
		C119.7,80.7,124.7,75.4,126.3,68.2z M16.8,224.7c0.5,2.8,0.9,5.6,1.6,8.3c1.6,6,5.5,9.1,11.7,9.2c6.6,0.1,12-2.9,16.8-7
		c0.6-0.5,0.9-1.4,1.9-2.8C33.3,243,23.3,240.3,16.8,224.7z M19.7,221.2c2.1,12.8,13.4,19.2,22.1,12.5
		C32,233.6,27.2,230.8,19.7,221.2z M109.5,374.6c-7.5,8.9-18.2,11.8-28.8,14.9C93.3,390.2,102.8,385,109.5,374.6z M37,230.1
		c-3.5-2.6-7.4-4.5-9.7-7.5c-2.4-3.1-3.2-7.3-4.7-11.1c-2,3.3-2,7,0.7,9.8c3,3.2,6.7,5.7,10.2,8.3C34.4,230.3,35.8,230,37,230.1z"/>
</g>
<g>
	<path class="st5" d="M666.1,139.4c0,2-1.9,3.9-3.9,3.9s-3.7-1.6-3.8-3.5c-0.2-2,1.6-4,3.6-4.1C663.9,135.6,666,137.5,666.1,139.4z
		 M662.2,142.8c1-1.5,2.1-2.4,2-3.2s-1.4-2-2.1-2c-0.8,0-2,1.3-2.1,2.1C660,140.4,661.1,141.3,662.2,142.8z"/>
	<path class="st4" d="M681.7,374.7c7.6,8.4,17.5,11.8,28,13.9c0.2-0.3,0.3-0.6,0.5-1c-0.7-0.3-1.4-0.9-2.1-1
		c-15.4-2.8-25.6-12.2-32.5-25.7c-1.1-2-2.2-4.1-3-6.2c-2.4-5.7-6.1-10.5-10.5-14.8c-3.8-3.7-7.4-7.6-10.6-11.7
		c-6.3-7.9-9.4-17.3-11.4-27.1c-2.1-9.9-2.9-19.7-2.1-29.9c1.6-21.5-2-42.2-11.1-61.7c-5-10.9-8.3-22-8.9-33.9
		c-0.3-6.5-0.8-13-0.8-19.4c0-4.2,1.7-7.9,5.7-10.1c3.4-1.8,6.8-2.1,9.9,0.2c2,1.5,4.2,3.3,5.4,5.4c5.2,9.6,10.3,19.4,12.6,30.2
		c1.3,6.5,1.7,13.1,2.7,19.7c1.1,7.7,4,14.8,9.7,20c2.4,2.2,6.2,3.1,9.5,4c2.5,0.7,5.3,0.4,8.5,0.6c-2.6,0.8-4.8,1.4-7.5,2.3
		c3.5,1.5,8,0.3,11.2-2.1c5-3.8,8.7-8.4,11.1-14.2c1-2.5,2.3-4.9,3.7-7.7c2.3,0.4,4.7,0.9,7.1,1.3c2.3,0.4,4.5,1.1,6.8,1
		c3.5,0,5.9,1.5,8.2,4.8c-1.9-0.9-3.4-1.5-4.8-2.1c-0.1,0.2-0.3,0.4-0.4,0.6c1.1,0.8,2.1,1.7,3.2,2.5c4,2.8,8.1,5.5,12,8.3
		c1.5,1.1,3,2.3,4.4,3.6c2.6,2.4,3.9,5.3,3.6,9c-0.7,8.6-1.4,17.3-3.8,25.7c-0.9,3.1-1.4,6.3-2.2,9.8c-0.8-0.5-1.5-0.9-2.2-1.4
		c-3.9-3-7.6-6.1-11.6-8.9c-4.7-3.2-7.8-7.5-9.5-12.8c-1.5-4.5-2.7-9.1-4-13.6c-0.3-1.1-0.7-2.3-1.3-3.4c0.2,7.5,2.1,14.7,4.1,22
		c-7.7-6.1-9.1-15.6-13.1-23.7c1.1,8.2,3.7,15.7,8.9,23.3c-6-1.2-11.1-2.1-16.1-3.3c-7.2-1.8-14.3-4-21.6-5.7
		c-3.7-0.9-7.5-1.1-11.2-1.5c-1.3-0.1-2.7,0-4,0.2c-3.3,0.7-4.1,2.8-1.7,5.1c1.5,1.5,3.4,2.7,5.2,3.8c3,1.8,6.3,3.2,9.3,5
		c1.1,0.7,2.3,1.9,2.7,3.2c1.5,5.5,5.2,9.2,9.8,12c3.2,1.9,6.7,3.4,10.2,4.8s4.2,2.1,3.9,6c-0.5,5.5-2,10.7-5.1,15.3
		c-3.3,4.9-6.7,9.9-10.2,14.7c-2.3,3.2-3.8,6.7-4.1,10.7c0.3,0.1,0.5,0.2,0.8,0.3c0.9-2.3,1.6-4.8,2.9-6.9c1.4-2.4,3.4-4.6,5.1-6.8
		c1.6-2.1,3.2-4.3,5.4-6.2c-0.6,1.9-1.1,3.8-1.7,5.7c-2.8,9.6-4.8,19.2-2.6,29.2c2.7,12.1,9.4,21.7,18.8,29.6
		c0.2,0.1,0.5,0.1,1.4,0.3c-0.8-1-1.3-1.7-1.9-2.2c-14.4-14.2-19.7-31-14.9-50.8c1.5-6,3.6-11.9,5.3-17.9c1.1-3.8,2.1-7.5,3.3-11.6
		c4.3,8.7,6.4,17.7,5.5,27.3c-0.4,4.6-1.6,9.1-1.8,13.7c-0.2,4.5,0.2,9.1,0.4,13.7c0.3,0,0.6,0,0.9,0c0.1-0.6,0.2-1.3,0.3-1.9
		c0-0.8,0.1-1.6-0.1-2.4c-1-4.8-0.3-9.5,1-14c3.8-13.4,2.8-26.2-3.4-38.7c-0.5-1-0.9-2-1.2-3c-0.1-0.2,0.1-0.5,0.4-1.5
		c2.1,1.9,4,3.4,5.7,5.2c3.9,4.1,7.8,8.2,11.6,12.5c0.8,0.9,1.8,2.2,1.8,3.3c0.6,9.2,5.8,15.8,12,21.9c1.8,1.8,4.1,3.1,6.5,4.3
		c-8.2-6.6-13.8-14.6-15.7-25.6c1.1,0.2,1.7,0.3,2.3,0.5c7.8,1.8,13.3-0.7,17.4-7.7c0.6-1,1.6-1.8,2.2-2.8c0.4-0.7,1-1.8,0.7-2.5
		c-1.6-4.5-0.9-9.6-4.2-13.8c-1.1-1.5-0.7-4.8,0.1-7c3-8.9,5.4-17.8,6.1-27.8c8.3,6.4,16.8,10.3,27.1,5.4c-2.9,9.6-5.8,18.7-8.2,28
		c-3,11.2-5.9,22.5-8.1,33.9c-1.3,6.5-1.2,13.2-1.5,19.8c-0.2,3.5,0,7-0.2,10.6c-0.3,7.4-2.5,14.3-6.4,20.7
		c-5.5,9-11.1,17.7-20.5,23.2c-0.8,0.5-1.5,1.2-2.1,1.8c-0.2,0.2-0.2,0.5-0.7,1.7c10.5-5.6,18.1-13.2,24-22.6
		c-1.5,6.5-3.8,12.5-8.6,17.1c-7.1,6.8-15.2,12.1-25.1,13C699,390.9,688.8,385.6,681.7,374.7z M631.4,204c3.2-0.7,3.7-3.7,5.5-5.2
		c1.8-1.6,3.8-3,6.3-4.9c-4-0.2-7,0.1-9.7,2.2c0.6,0.4,1,0.7,1.5,1C634.1,199.3,631.3,200.7,631.4,204z"/>
	<path class="st4" d="M772.9,203c1.2-5.1,2.4-10.1,3.5-15.2c-0.4,7.2-1.6,14.1-4.7,20.3c-7.8-5-15.3-10-23-14.7
		c-2.6-1.6-4-3.6-3.4-6.6c0.9-4.3,1.7-8.8,3.1-13c1.3-3.8,0.6-6.8-2.1-9.6c-4.8-5.1-9.5-10.4-14.4-15.4c-1.1-1.2-2.9-1.9-4.5-2.5
		c-5.4-2-11-3.7-16.4-6c-6.7-2.8-12.4-7.3-16.5-13.4c-1.3-1.9-2.3-4.1-3.5-6.2c0.2-0.2,0.4-0.4,0.6-0.6c2.6,1,5.1,2.2,7.8,3
		c3.7,1.2,7.5,2.6,11.3,2.9c3.1,0.2,6.3-0.8,9.4-1.6c0.8-0.2,1.6-1.4,1.9-2.2c0.5-1.4,0.5-2.9,0.8-4.8c8.5,2.2,17,3.2,23.4,10.5
		c6.5,7.4,14.2,13.6,21.4,20.4c2.2,2,4.3,4.1,6.5,6.1c3.3,3,5,6.6,4.8,11.1c-0.2,4.4-0.5,8.9-1.2,13.3c-0.2-2.1-0.4-4.2-0.6-6.3
		c-0.2,0-0.5,0-0.7,0.1c-1.6,10-3.2,20-4.8,30C772.3,202.8,772.6,202.9,772.9,203z"/>
	<path class="st4" d="M733.9,187.2c3.2,1.8,6.3,3.3,9.2,5.1c6.7,4.3,13.4,8.7,20,13.2c1.2,0.8,2.3,2.4,2.5,3.8
		c0.7,7.3-5.1,15.2-12.2,17.2c-3.2,0.9-5.9,0.3-8.4-1.5c-7.5-5.4-14.9-10.7-22.3-16.3c-2.2-1.7-4.3-3-7.1-3.5
		c-12.6-2-24.4-6.1-34.6-14c-3.2-2.5-5.6-5.4-7.2-10.2c1.9,0.9,3.1,1.5,4.3,2.1c4.6,1.9,9.1,4.2,13.8,5.7c5,1.6,9.6-0.3,13.9-2.8
		c1.5-0.9,2.7-2.5,0-3.8c-0.2-0.1,0.1-0.9,0.1-1.3c8.4,2,16.7,3.9,25,5.9c0.4,4.2-2.4,7.1-4.1,10.5c2.5-0.8,2.5-0.8,4-3.8
		C731.6,191.6,732.6,189.7,733.9,187.2z"/>
	<path class="st4" d="M670.1,257.8c3.1,1,5.6,2.2,8.2,2.5c3.5,0.4,7.2,0.3,10.7-0.2c2.8-0.4,3.8-5.5,1.5-9.1
		c6.4,1.6,12.8,2.1,18.1,4.8c6,3.1,11.3,7.8,16.3,12.4c3.4,3.1,4.1,7.8,3.9,12.4c0,1.3-0.5,2.7-1.1,3.8c-3.6,6.3-14.9,7.5-19.7,2.1
		c-1.3-1.4-2.6-2.8-3.5-4.4c-2.7-4.6-6.8-7.1-11.6-8.9c-4.9-1.8-9.8-3.8-14.5-6.2C674.8,265.1,671.7,262.5,670.1,257.8z M704,266.5
		c2.5-2.9,4.2-6.2,3-9.9c-0.4-0.1-0.8-0.2-1.2-0.3C705.2,259.7,704.6,263.1,704,266.5z"/>
	<path class="st4" d="M732.6,185.1c-7.2-1.6-14.4-3.3-21.6-4.9c-2.2-0.5-3.3-1.9-3.6-3.9c-1.2-8-1.4-16,0.2-24.4
		c2.7,1.8,5.2,3.5,7.7,5.2c0.3-0.3,0.5-0.6,0.8-0.8c-0.9-0.9-1.7-2-2.7-2.7c-5.6-3.9-9.3-9.2-12.2-16.2c8.1,5.8,16.5,8.8,25.4,10.6
		c2.7,0.5,5.2,3.3,5.3,5.9c0.4,9.9,0.7,19.7,1,29.6C733.1,183.9,732.8,184.3,732.6,185.1z"/>
	<path class="st10" d="M741.4,376.6c-3.5,8.3-9.5,13.9-17.6,17.1c-10.3,4.2-21,4.9-31.9,2.7c-6-1.2-10.9-4.4-13.8-9.7
		c-2.5-4.6-4.3-9.6-6.3-14.4c-0.5-1.2-0.4-2.6-0.3-3.9c1.9,6.9,4.4,13.3,10.5,17.7c-1.4-2.2-2.9-4.3-4.1-6.7
		c-1.2-2.3-1.9-4.9-2.2-7.5c2.7,3.3,5.2,6.9,8.1,10c9.2,9.6,20.6,13.6,33.5,10.3c8.8-2.2,16.3-7.1,22.4-13.9
		C740.4,377.8,740.9,377.2,741.4,376.6z"/>
	<path class="st4" d="M709.5,111.1c-8.1-1.9-16.3-3.9-24.4-5.8c-0.6-0.2-1.4-0.5-1.7-1c-2.8-4.3-5.8-8.5-5.5-14.1
		c0.3-4.4,2.7-5.9,6.5-3.8c2.3,1.2,4.5,2.6,6.3,4.3c6.5,6.4,12.9,13.1,19.3,19.6C709.8,110.7,709.6,110.9,709.5,111.1z"/>
	<path class="st4" d="M735,157.5c3.4,3.1,7.4,6.3,11,10c0.9,0.9,1.2,3,0.9,4.5c-1.1,5.6-2.6,11.2-4,17c-1.7-0.8-3.8-1.5-5.6-2.5
		c-0.8-0.4-1.6-1.5-1.7-2.3c-0.4-2.1-0.5-4.3-0.5-6.4C734.9,170.6,735,163.8,735,157.5z"/>
	<path class="st10" d="M750.7,355.6c2.7,5.4,2.7,11.1,1.2,16.9c-4.9,18.8-21.2,30.1-41.2,28.5c11.3-1.6,21.6-5.4,28.8-14.7
		C746.5,377.3,751,367.3,750.7,355.6z"/>
	<path class="st10" d="M732.5,272.6c4.6,6.3,4.7,14,0.6,19.7c-3.8,5.2-11,6.3-15.9,2.4C728.2,291.9,732.4,285.9,732.5,272.6z"/>
	<g>
		<path class="st8" d="M656.4,164.8c1.7,0.4,3.5,0.6,5.2,1.2c10.6,3.5,21.2,7.2,31.9,10.7c2.4,0.8,5,1.1,7.5,1.8
			c3.1,0.9,3.8,3.5,1.4,5.8c-2.7,2.6-6.2,3.5-9.8,2.6c-3.4-0.9-6.7-2.2-9.9-3.6c-5-2.3-10.1-4.5-14.9-7.3c-3.6-2.1-6.7-4.9-10-7.6
			c-0.9-0.7-1.4-1.8-2-2.8C656,165.4,656.2,165.1,656.4,164.8z"/>
		<path class="st8" d="M673.7,105.9c3.7,0.5,7.4,0.8,11,1.7c10.9,2.5,21.8,5.2,32.7,7.8c3.9,1,4.8,3.5,1.8,6.2
			c-1.4,1.3-3.5,2.4-5.3,2.5c-3,0.1-6.3-0.1-9.1-1.1c-7.4-2.5-14.7-5.5-21.9-8.5c-2.5-1-4.8-2.5-6.9-4.1c-1.2-0.9-1.9-2.3-2.8-3.6
			C673.3,106.6,673.5,106.3,673.7,105.9z"/>
		<path class="st8" d="M651.6,242.5c4.5,0.5,9.1,0.6,13.6,1.5c5.6,1.1,11,2.6,16.5,4.1c1.7,0.5,3.3,1.3,4.7,2.3
			c2.9,2.1,2.5,5.8-0.9,7c-1.6,0.6-3.5,0.8-5.1,0.4c-3.5-0.8-7.1-1.7-10.4-3.2c-5.3-2.4-10.4-5.2-15.5-8c-1.2-0.7-2.2-1.7-3.4-2.6
			C651.3,243.5,651.5,243,651.6,242.5z"/>
		<path class="st8" d="M617.4,148c-0.2-7.3-0.6-13.7-0.5-20.2c0-1.4,0.9-3.4,2-4c1.9-0.9,3.3,0.9,4.2,2.3c3.1,5.3,6.1,10.7,9.5,16.8
			C626.5,141.8,622.2,144.3,617.4,148z"/>
		<path class="st8" d="M683.9,82.7c-3,1.2-5.7,2.2-8.7,3.3c-3.6-5.4-8.7-10.7-9.8-18.3C672.4,71.8,677.9,77.5,683.9,82.7z"/>
	</g>
	<path class="st10" d="M774.5,224c-0.4,2.5-0.7,5.1-1.2,7.6c-1.7,7.8-6.3,11.3-14.3,10.6c-5.9-0.5-10.7-3.4-15.1-7.2
		c-0.5-0.4-0.7-1.3-1.3-2.4C759,242.9,768.8,240.1,774.5,224z"/>
	<path class="st10" d="M771,222.3c-0.6,12.3-14.3,17.5-21.9,11.4C758.9,234.5,765.2,229,771,222.3z"/>
	<path class="st10" d="M767.7,210.4c2.7,3.8,2.8,7,1,9.8c-2.8,4.4-6.9,7.6-11.6,9.8c-0.8,0.4-1.9,0.1-3-0.3
		C762.7,226.4,767.8,220.7,767.7,210.4z"/>
	<path class="st11" d="M631.4,204c-0.2-3.3,2.7-4.7,3.6-7c-0.5-0.3-0.9-0.6-1.5-1c2.7-2.1,5.7-2.4,9.7-2.2c-2.5,2-4.5,3.4-6.3,4.9
		C635.1,200.3,634.6,203.3,631.4,204z"/>
	<path class="st11" d="M704,266.5c0.6-3.4,1.2-6.8,1.8-10.2c0.4,0.1,0.8,0.2,1.2,0.3C708.2,260.4,706.6,263.6,704,266.5z"/>
	<path class="st11" d="M642,317.2c-1.5,2.4-3.3,4-5.7,2.4c-1.1-0.7-2.1-2.7-1.9-4c0.5-3,3-3.5,5.8-2.8c-1.1-5.7-2.3-11.1-3.3-16.5
		c-1.5-7.9-1.4-15.9-1.3-23.9c0.2-7.4,0.2-14.9-0.6-22.3c-0.8-7.9-2.4-15.8-4.2-23.5c-1.1-4.6-2.6-9.2-4.9-13.3
		c-6.8-12.1-9.9-25.1-10.7-38.8c-0.3-4.7-0.6-9.5-0.9-14.2c-0.1-1.1-0.2-2.2,0.1-3.2c2.4-7.2,0.5-14.5,0.4-21.7
		c-0.1-3,0.1-6,0.6-8.9c0.3-2.3,1.2-4.6,3.9-5.1c2.4-0.5,4.2,1.2,5.3,3c2.1,3.4,4,7.1,6,10.6c2.7,4.5,5.5,9,8,13.6
		c2.9,5.5,5.7,11.1,8.2,16.7c1.9,4.3,3.3,8.9,5,13.3c2.5,6.5,3.3,13.4,4,20.2c0.6,5.7,1.8,11.2,4.5,16.3c2.1,3.9,4.9,6.8,9.4,7.5
		c0.5,0.1,1,0.3,1.6,0.4c12.2,2.3,16.6,0,21.5-9.9c1.4-2.9,3-5.7,4.7-8.9c-1.7-0.7-3-1.4-4.3-1.9c-5.8-2.4-11.1-5.7-15.4-10.3
		c-2.7-2.9-5.2-5.9-6-9.9c-0.4-2-1.8-2.8-3.3-3.8c-4.1-2.8-8.2-5.6-12-8.8c-1.5-1.3-3.7-3.5-1.9-5.5c0.9-1.1,3.8-1.1,5.6-0.6
		c7.3,2.1,14.4,4.7,21.6,7c3,1,5.9,1.9,8.9,2.9c4.4,1.4,8.8,2.7,13.7,4.2c0.2-2.1,0.6-4,0.7-6c0.1-6.1,0.1-12.1,0.3-18.2
		c0.1-2.5,0-4.8-1.8-6.8c-1-1.2-1.6-2.8-2.3-4.3c-2.3-5.1-4.7-10-8.4-14.3c-1.6-1.9-2.8-4.3-3.6-6.7c-0.7-2.1-1.9-2.9-3.7-3.8
		c-3.8-1.8-7.5-3.7-10.9-6c-1.8-1.2-3.9-3.3-2.9-5.7c1-2.6,3.9-1.8,6.1-1.7c0.8,0,1.6,0.1,2.8,0.2c-4.8-8.3-5.5-18.1-12.4-25
		c-2.2-2.2-3.1-5.6-4.2-8.7c-0.4-1.2,0.3-2.8,0.5-4.2c1.4,0.2,3.1,0,4.1,0.7c3.2,2.2,6.4,4.6,9.2,7.3c10.8,10.8,22.6,20.7,31.7,33.1
		c4.1,5.6,10.3,6.5,16.2,8.1c1.8,0.5,3.7,0.7,5.6,1.2c7.1,1.7,13.2,4.6,18.4,10.3c7.2,7.9,15.3,14.9,22.8,22.5
		c3.2,3.2,5.8,7.1,8.5,10.8c0.7,1,0.9,2.6,0.9,3.9c-0.8,14.9-1.6,29.8-7.9,43.7c-0.5,1-0.6,2.8,0,3.6c3.4,5.1,3.7,10.7,2.8,16.4
		c-0.7,4-1.8,7.9-3.1,11.7c-7,20.2-13.3,40.6-17.7,61.5c-1.4,6.9-1.2,14.3-1.2,21.4c0,8.7,0.2,17.3-2.9,25.7c-0.3,0.9-0.2,2.2,0.3,3
		c4.9,8.5,4.3,17.2,1,25.8c-7.6,19.4-23.7,27.7-43.5,26.2c-6.7-0.5-13.3-2.4-19.9-3.9c-7.9-1.9-13.2-7.3-16.7-14.4
		c-3.3-6.7-5.8-13.7-5.2-21.4c0.1-0.8,0-1.6,0-2.4c0.3-8.6-2.3-15.7-9.5-21.2C650.9,334.3,646.1,326.2,642,317.2z M681.7,374.7
		c7.1,10.9,17.2,16.2,30.2,15.1c10-0.9,18.1-6.1,25.1-13c4.8-4.6,7.1-10.7,8.6-17.1c-6,9.4-13.5,17-24,22.6c0.5-1.2,0.5-1.6,0.7-1.7
		c0.7-0.6,1.3-1.4,2.1-1.8c9.3-5.5,15-14.2,20.5-23.2c3.9-6.4,6.1-13.2,6.4-20.7c0.1-3.5,0-7,0.2-10.6c0.4-6.6,0.3-13.3,1.5-19.8
		c2.2-11.4,5.1-22.7,8.1-33.9c2.4-9.2,5.4-18.4,8.2-28c-10.3,4.9-18.8,1-27.1-5.4c-0.7,10-3,18.9-6.1,27.8c-0.7,2.2-1.2,5.5-0.1,7
		c3.3,4.2,2.6,9.3,4.2,13.8c0.2,0.7-0.3,1.8-0.7,2.5c-0.6,1-1.6,1.8-2.2,2.8c-4.1,7-9.6,9.5-17.4,7.7c-0.6-0.1-1.2-0.2-2.3-0.5
		c2,10.9,7.6,18.9,15.7,25.6c-2.4-1.1-4.7-2.5-6.5-4.3c-6.2-6-11.4-12.7-12-21.9c-0.1-1.2-1-2.4-1.8-3.3c-3.8-4.2-7.7-8.4-11.6-12.5
		c-1.7-1.8-3.7-3.3-5.7-5.2c-0.3,1-0.5,1.3-0.4,1.5c0.4,1,0.8,2,1.2,3c6.1,12.5,7.1,25.4,3.4,38.7c-1.3,4.6-2.1,9.2-1,14
		c0.2,0.8,0.1,1.6,0.1,2.4c0,0.6-0.2,1.3-0.3,1.9c-0.3,0-0.6,0-0.9,0c-0.2-4.6-0.7-9.1-0.4-13.7c0.2-4.6,1.4-9.1,1.8-13.7
		c0.9-9.6-1.1-18.6-5.5-27.3c-1.1,4.1-2.2,7.9-3.3,11.6c-1.8,6-3.9,11.9-5.3,17.9c-4.8,19.7,0.4,36.6,14.9,50.8
		c0.6,0.6,1.1,1.2,1.9,2.2c-0.9-0.2-1.2-0.1-1.4-0.3c-9.4-7.9-16.1-17.5-18.8-29.6c-2.2-10-0.2-19.6,2.6-29.2
		c0.6-1.9,1.1-3.8,1.7-5.7c-2.2,1.9-3.8,4-5.4,6.2c-1.7,2.3-3.6,4.4-5.1,6.8c-1.2,2.1-1.9,4.6-2.9,6.9c-0.3-0.1-0.5-0.2-0.8-0.3
		c0.3-3.9,1.8-7.4,4.1-10.7c3.5-4.8,6.8-9.7,10.2-14.7c3.1-4.6,4.6-9.8,5.1-15.3c0.4-3.8-0.3-4.5-3.9-6c-3.5-1.4-7-2.9-10.2-4.8
		c-4.6-2.8-8.2-6.5-9.8-12c-0.3-1.2-1.5-2.5-2.7-3.2c-3-1.8-6.3-3.2-9.3-5c-1.9-1.1-3.7-2.3-5.2-3.8c-2.4-2.3-1.6-4.4,1.7-5.1
		c1.3-0.3,2.7-0.4,4-0.2c3.8,0.4,7.6,0.6,11.2,1.5c7.2,1.7,14.4,3.9,21.6,5.7c5,1.2,10.1,2.1,16.1,3.3c-5.2-7.6-7.7-15.2-8.9-23.3
		c4.1,8.1,5.4,17.7,13.1,23.7c-2-7.2-3.9-14.4-4.1-22c0.6,1.1,0.9,2.2,1.3,3.4c1.3,4.5,2.5,9.1,4,13.6c1.7,5.3,4.8,9.5,9.5,12.8
		c4,2.8,7.7,5.9,11.6,8.9c0.7,0.5,1.4,0.9,2.2,1.4c0.8-3.5,1.3-6.7,2.2-9.8c2.4-8.4,3.1-17,3.8-25.7c0.3-3.7-1-6.6-3.6-9
		c-1.4-1.3-2.8-2.5-4.4-3.6c-4-2.8-8-5.5-12-8.3c-1.1-0.8-2.2-1.7-3.2-2.5c0.1-0.2,0.3-0.4,0.4-0.6c1.4,0.6,2.9,1.3,4.8,2.1
		c-2.2-3.3-4.7-4.8-8.2-4.8c-2.3,0-4.5-0.7-6.8-1c-2.4-0.4-4.7-0.9-7.1-1.3c-1.4,2.8-2.7,5.2-3.7,7.7c-2.4,5.8-6.1,10.5-11.1,14.2
		c-3.2,2.4-7.8,3.6-11.2,2.1c2.7-0.8,4.9-1.5,7.5-2.3c-3.2-0.2-6,0.1-8.5-0.6c-3.3-0.9-7.1-1.8-9.5-4c-5.8-5.3-8.6-12.3-9.7-20
		c-0.9-6.6-1.3-13.2-2.7-19.7c-2.2-10.8-7.4-20.6-12.6-30.2c-1.2-2.2-3.3-3.9-5.4-5.4c-3.1-2.3-6.6-2.1-9.9-0.2
		c-4,2.2-5.7,5.9-5.7,10.1c0,6.5,0.5,13,0.8,19.4c0.6,11.9,3.9,23,8.9,33.9c9,19.5,12.7,40.2,11.1,61.7c-0.8,10.1,0.1,20,2.1,29.9
		c2,9.8,5.1,19.2,11.4,27.1c3.3,4.1,6.9,8,10.6,11.7c4.4,4.3,8.1,9,10.5,14.8c0.9,2.1,2,4.1,3,6.2c7,13.5,17.1,22.9,32.5,25.7
		c0.7,0.1,1.4,0.6,2.1,1c-0.2,0.3-0.3,0.6-0.5,1C699.2,386.5,689.3,383.1,681.7,374.7z M772.9,203c-0.3-0.1-0.6-0.2-1-0.3
		c1.6-10,3.2-20,4.8-30c0.2,0,0.5,0,0.7-0.1c0.2,2.1,0.4,4.2,0.6,6.3c0.7-4.4,0.9-8.9,1.2-13.3c0.2-4.5-1.4-8.2-4.8-11.1
		c-2.2-2-4.3-4.1-6.5-6.1c-7.2-6.8-14.9-13-21.4-20.4c-6.5-7.3-14.9-8.3-23.4-10.5c-0.3,1.9-0.4,3.4-0.8,4.8c-0.3,0.9-1.1,2-1.9,2.2
		c-3.1,0.8-6.3,1.9-9.4,1.6c-3.8-0.3-7.6-1.7-11.3-2.9c-2.7-0.8-5.2-2-7.8-3c-0.2,0.2-0.4,0.4-0.6,0.6c1.1,2.1,2.1,4.2,3.5,6.2
		c4.2,6.1,9.8,10.5,16.5,13.4c5.3,2.2,10.9,3.9,16.4,6c1.6,0.6,3.3,1.3,4.5,2.5c4.9,5,9.6,10.3,14.4,15.4c2.7,2.8,3.4,5.8,2.1,9.6
		c-1.4,4.2-2.2,8.6-3.1,13c-0.7,3,0.7,5,3.4,6.6c7.7,4.7,15.2,9.7,23,14.7c3.1-6.2,4.3-13.2,4.7-20.3
		C775.3,192.8,774.1,197.9,772.9,203z M733.9,187.2c-1.3,2.5-2.3,4.4-3.3,6.3c-1.5,3-1.4,3-4,3.8c1.7-3.4,4.5-6.3,4.1-10.5
		c-8.3-2-16.6-3.9-25-5.9c0,0.4-0.3,1.2-0.1,1.3c2.7,1.3,1.5,3,0,3.8c-4.3,2.5-8.9,4.4-13.9,2.8c-4.7-1.5-9.2-3.7-13.8-5.7
		c-1.2-0.5-2.4-1.2-4.3-2.1c1.6,4.8,4,7.7,7.2,10.2c10.3,7.9,22,12,34.6,14c2.8,0.4,4.9,1.8,7.1,3.5c7.3,5.6,14.8,10.9,22.3,16.3
		c2.5,1.8,5.3,2.4,8.4,1.5c7.1-2,13-9.9,12.2-17.2c-0.1-1.3-1.3-3-2.5-3.8c-6.6-4.5-13.2-8.9-20-13.2
		C740.2,190.5,737.1,189,733.9,187.2z M670.1,257.8c1.6,4.7,4.7,7.4,8.3,9.2c4.7,2.4,9.6,4.4,14.5,6.2c4.8,1.8,9,4.3,11.6,8.9
		c0.9,1.6,2.3,3,3.5,4.4c4.8,5.4,16.1,4.2,19.7-2.1c0.6-1.1,1.1-2.5,1.1-3.8c0.1-4.6-0.5-9.3-3.9-12.4c-5-4.6-10.3-9.3-16.3-12.4
		c-5.3-2.7-11.7-3.2-18.1-4.8c2.3,3.5,1.3,8.7-1.5,9.1c-3.5,0.5-7.2,0.6-10.7,0.2C675.7,260,673.2,258.8,670.1,257.8z M732.6,185.1
		c0.3-0.9,0.5-1.2,0.5-1.6c-0.3-9.9-0.6-19.7-1-29.6c-0.1-2.6-2.6-5.4-5.3-5.9c-8.9-1.8-17.3-4.8-25.4-10.6
		c2.9,7,6.6,12.3,12.2,16.2c1,0.7,1.8,1.8,2.7,2.7c-0.3,0.3-0.5,0.6-0.8,0.8c-2.5-1.7-5-3.3-7.7-5.2c-1.6,8.4-1.4,16.4-0.2,24.4
		c0.3,2,1.4,3.4,3.6,3.9C718.2,181.8,725.4,183.5,732.6,185.1z M656.4,164.8c-0.2,0.3-0.3,0.6-0.5,0.9c0.7,0.9,1.2,2.1,2,2.8
		c3.2,2.6,6.4,5.5,10,7.6c4.8,2.8,9.9,5,14.9,7.3c3.2,1.4,6.5,2.7,9.9,3.6c3.6,0.9,7,0,9.8-2.6c2.4-2.2,1.7-4.8-1.4-5.8
		c-2.5-0.7-5-1-7.5-1.8c-10.6-3.5-21.3-7.2-31.9-10.7C659.9,165.5,658.1,165.2,656.4,164.8z M673.7,105.9c-0.2,0.3-0.4,0.6-0.6,1
		c0.9,1.2,1.6,2.7,2.8,3.6c2.2,1.6,4.5,3.1,6.9,4.1c7.2,3,14.5,5.9,21.9,8.5c2.8,1,6.1,1.2,9.1,1.1c1.8-0.1,3.9-1.2,5.3-2.5
		c3-2.7,2.1-5.3-1.8-6.2c-10.9-2.6-21.8-5.3-32.7-7.8C681,106.8,677.3,106.5,673.7,105.9z M741.4,376.6c-0.5,0.6-1.1,1.2-1.6,1.8
		c-6.1,6.8-13.7,11.7-22.4,13.9c-13,3.2-24.3-0.7-33.5-10.3c-3-3.1-5.4-6.7-8.1-10c0.3,2.7,1.1,5.2,2.2,7.5c1.1,2.3,2.7,4.5,4.1,6.7
		c-6.2-4.4-8.6-10.8-10.5-17.7c-0.1,1.3-0.1,2.7,0.3,3.9c2,4.9,3.8,9.8,6.3,14.4c2.9,5.4,7.8,8.5,13.8,9.7
		c10.9,2.1,21.6,1.4,31.9-2.7C731.9,390.4,737.9,384.9,741.4,376.6z M709.5,111.1c0.2-0.2,0.4-0.5,0.6-0.7
		c-6.4-6.6-12.7-13.2-19.3-19.6c-1.8-1.8-4.1-3.2-6.3-4.3c-3.9-2-6.2-0.6-6.5,3.8c-0.4,5.5,2.7,9.8,5.5,14.1c0.3,0.5,1.1,0.8,1.7,1
		C693.2,107.3,701.3,109.2,709.5,111.1z M651.6,242.5c-0.2,0.5-0.3,1-0.5,1.4c1.1,0.9,2.1,1.9,3.4,2.6c5.1,2.8,10.2,5.6,15.5,8
		c3.3,1.5,6.9,2.4,10.4,3.2c1.6,0.4,3.6,0.2,5.1-0.4c3.3-1.2,3.8-4.9,0.9-7c-1.4-1-3-1.9-4.7-2.3c-5.5-1.5-10.9-3.1-16.5-4.1
		C660.8,243.1,656.2,243,651.6,242.5z M735,157.5c0,6.3,0,13.2,0,20c0,2.2,0.1,4.3,0.5,6.4c0.2,0.9,1,1.9,1.7,2.3
		c1.9,1,3.9,1.8,5.6,2.5c1.4-5.7,2.8-11.3,4-17c0.3-1.4,0-3.5-0.9-4.5C742.4,163.8,738.4,160.6,735,157.5z M750.7,355.6
		c0.3,11.8-4.2,21.8-11.2,30.7c-7.2,9.3-17.5,13.1-28.8,14.7c20,1.5,36.3-9.7,41.2-28.5C753.4,366.7,753.5,361,750.7,355.6z
		 M617.4,148c4.8-3.7,9.1-6.1,15.1-5c-3.4-6.1-6.4-11.5-9.5-16.8c-0.9-1.5-2.3-3.3-4.2-2.3c-1.1,0.5-2,2.6-2,4
		C616.8,134.2,617.2,140.7,617.4,148z M732.5,272.6c-0.1,13.3-4.3,19.3-15.3,22.1c4.9,3.9,12.1,2.8,15.9-2.4
		C737.2,286.6,737.2,279,732.5,272.6z M683.9,82.7c-6-5.2-11.5-10.9-18.4-15c1.1,7.6,6.1,12.9,9.8,18.3
		C678.2,84.9,680.8,83.9,683.9,82.7z M774.5,224c-5.7,16.1-15.5,18.9-31.9,8.5c0.6,1.1,0.7,2,1.3,2.4c4.4,3.8,9.2,6.7,15.1,7.2
		c8,0.7,12.6-2.8,14.3-10.6C773.8,229.1,774.1,226.5,774.5,224z M771,222.3c-5.8,6.8-12,12.3-21.9,11.4
		C756.6,239.8,770.3,234.5,771,222.3z M767.7,210.4c0.1,10.3-5,16-13.6,19.3c1.2,0.4,2.3,0.7,3,0.3c4.7-2.2,8.8-5.4,11.6-9.8
		C770.5,217.3,770.4,214.2,767.7,210.4z M641.3,316.5c-1.5-1.1-2.4-2.2-3.2-2.2c-0.8,0.1-2.2,1.4-2.2,2.1c0,0.8,1.2,2.1,2.1,2.3
		C638.7,318.8,639.7,317.6,641.3,316.5z"/>
</g>
<g>
	<path class="st11" d="M376,79.2c-1.7-0.8-3.1-1.6-4.3-2.6c-1.9-1.6-3.4-3.4-3.5-6c-0.1-2.6,1.1-4.3,3.4-5.3c3.7-1.6,7.4-1.2,11,0.4
		c0.7,0.3,1.3,0.7,2.1,1.1c0.5-2.6,0.2-5.2,0-7.7c-0.1-1.5-0.3-3-0.4-4.5c-0.1-0.8-0.2-1.4-1.3-1.4c-1.1-0.1-2.2-0.3-3.2-0.8
		c-2.3-1.2-3-3.6-1.6-5.8c1.1-1.8,2.8-2.5,4.8-2.8c1.9-0.3,3.9-0.1,6-0.6c-0.4-2.1-0.7-4.1-1.2-6.1c-0.7-3.3-1.4-6.7-1.9-10.1
		c-0.1-0.7-0.1-1.3,0-2c0.3-2.5,1.9-3.5,4.4-3.4c3.8,0.2,7.5,0.3,11.3,0.3c6.1,0,12.3-0.1,18.4-0.1c0.6,0,1.2-0.2,1.9-0.2
		c2.3,0.1,3.6,1.5,3.6,3.9c0,3.1-0.8,6-1.4,9c-0.6,2.9-1.1,5.7-1.7,8.6c2,0.6,4.1,0.3,6,0.6c1.8,0.3,3.4,0.9,4.5,2.5
		c2,2.9,0.5,6.1-3.4,6.7c-2.3,0.4-2.3,0.4-2.6,2.9c-0.5,3.6-0.8,7.3-0.5,11c0,0.5,0,0.9,0.3,1.4c1.3-0.5,2.4-1.3,3.8-1.6
		c0.7-0.1,1.4-0.2,2.1,0c2.6,0.7,3.6,2.8,2.3,5.2c-1,2-2.7,3.3-4.5,4.8c2.1,1.7,4.3,2.8,6.9,2.9c2.2,0.1,4.3,0.3,6.5,0.6
		c5.6,1,9.8,4.3,13,8.9c4.1,5.9,6.4,12.6,7.3,19.7c0.9,8.1,0.2,16.1-0.7,24.1c-1.7,14.8-6,28.8-11.1,42.7c-0.3,0.8-0.7,1.5-1,2.3
		c-2.6,6.4-7.4,10.5-13.7,12.9c-5.8,2.2-11.8,3.6-18.1,4.1c-8.8,0.7-17.5,0.6-26.3,0.2c-6.2-0.3-12.2-1.7-18-3.7
		c-8.2-2.7-13.6-8.2-16.5-16.4c-3.8-10.6-7.3-21.2-9.4-32.2c-1.8-9.3-2.9-18.7-2.6-28.3c0.2-9.4,2.5-18.2,8-25.9
		c3.9-5.4,9.1-8.5,15.9-8.9C372.3,79.7,374.1,79.9,376,79.2z M462,116.4c-0.1-2.4-0.2-5-0.4-7.7c-0.6-6.5-2.6-12.5-6.2-17.9
		c-4-6.1-9.6-9.4-17-9.2c-3.4,0.1-6.5-1-9.1-3.2c-0.4-0.3-0.7-0.6-1.4-0.3c-6.9,3.7-14.5,4.7-22.2,5.2c-3.6,0.2-7.2-0.1-10.9-0.4
		c-5-0.5-10-1.2-14.9-2.5c-0.5-0.1-1-0.2-1.5,0c-2.2,1-4.5,1.2-6.8,1.2c-5.3,0.1-9.9,1.9-13.4,6c-5.9,6.7-8.3,14.8-8.9,23.5
		c-0.3,4.5-0.1,9,0.2,13.5c0.5,6.3,1.2,12.5,2.4,18.7c2.1,10.6,5.4,20.9,9.1,31.1c2.4,6.4,6.2,11.3,12.8,13.9
		c5.7,2.3,11.7,3.5,17.8,4.1c6.2,0.6,12.4,0.5,18.6,0.4c6.6,0,13.2-0.6,19.7-2.3c2.8-0.7,5.6-1.7,8.3-2.8c6-2.6,9.5-7.4,11.6-13.4
		c4.6-12.6,8.6-25.4,10.4-38.9C461.2,129.3,461.8,123,462,116.4z M381.2,79c0.5,0.2,0.7,0.3,1,0.3c6.5,1.4,13.1,2.1,19.7,2.3
		c6.1,0.2,12-0.8,17.9-2.2c2.6-0.6,5.1-1.6,7.3-2.9c-4.3-7-3.4-14.4-2.2-21.9c-1.6,0-3.2-0.4-4.8-0.2c-0.3,0.9-0.5,1.8-0.9,2.7
		c-0.8,1.6-1.7,3-3.8,3.1c-1.8,0.1-3.7,0.3-5.5,0.4c-4.3,0.3-8.7-0.1-13-0.3c-2.8-0.1-4.2-1.3-5.1-3.9c-0.2-0.7-0.4-1.3-0.6-2
		c-1.6-0.1-3.2,0.2-4.9,0.2c0.7,3.7,1.2,7.3,0.9,11C386.9,70.7,385.9,75.6,381.2,79z M405.8,23.7c-5.3-0.1-10.6,0.1-15.8-0.2
		c-1.6-0.1-2.2,0.5-2.2,2.2c0,1,0.2,2.1,0.4,3.1c0.8,4.4,1.8,8.8,2.6,13.2c0.2,1.2,0.6,1.4,1.7,1.3c2.8-0.3,5.6-0.2,8.4-0.2
		c6.1,0,12.1-0.2,18.2,0.2c0.6,0,1.3,0.2,1.4-0.8c0.8-5.3,2.2-10.5,3-15.8c0.4-2.5-0.3-3.3-2.8-3.2
		C415.6,23.7,410.6,23.5,405.8,23.7z M405.7,44.8c-4.8-0.2-9.5,0.1-14.2,0.2c-2.8,0-5.7,0.2-8.5,0.5c-1.5,0.1-2.7,0.7-3.5,2.1
		c-0.6,1.1-0.3,2.2,0.8,2.9c1.1,0.7,2.4,1,3.7,1c3.2,0,6.4-0.1,9.6-0.3c7.4-0.5,14.9-0.6,22.3-0.1c3.2,0.2,6.3,0,9.5,0.4
		c1.7,0.2,3.5,0,5.1-0.8c1.5-0.8,1.8-2.1,0.8-3.4c-0.6-0.8-1.3-1.3-2.3-1.6c-2.3-0.5-4.6-0.6-6.8-0.6
		C416.7,44.9,411.1,44.5,405.7,44.8z M375.7,66c-0.4,0-0.8,0-1.1,0.1c-1.9,0.4-3.8,0.7-4.6,2.7c-0.8,1.8-0.1,3.4,1,4.9
		c1.8,2.2,4.3,3.5,7,4.4c0.4,0.1,0.7,0,1.1-0.2c3.3-1.9,4.9-5,5.4-8.7c0.1-0.4-0.2-0.6-0.5-0.8C381.5,66.8,378.7,65.8,375.7,66z
		 M393.4,54.3c0.2,2.7,1.5,3.8,3.3,4c5.7,0.6,11.3,0.6,17,0.1c2.7-0.3,3.7-1.2,4.1-4.1C409.6,53.9,401.5,53.9,393.4,54.3z
		 M429.1,75.2c1.8-1.2,3.3-2.4,4.3-4.2c0.3-0.6,0.7-1.3,0.2-2c-0.5-0.7-1.3-1.1-2.2-1c-1.5,0.2-2.8,0.9-4.1,1.7
		c-0.3,0.2-0.5,0.4-0.4,0.8C427.4,72.3,427.8,73.9,429.1,75.2z"/>
	<path class="st11" d="M339.6,70.9c0.3-3.4,1.8-6.1,4.4-8.1c3.5-2.8,7.5-4.1,12-3.1c1.6,0.4,1.9,1.2,1,2.6c-0.9,1.4-1.6,2.8-1.6,4.5
		c0,2.7,1.9,4.3,4.6,3.6c0.6-0.1,1.1-0.4,1.6-0.6c0.5-0.1,1-0.3,1.4,0.1c0.4,0.4,0,0.9-0.2,1.3c-2,4.1-5.3,6.7-9.7,7.8
		c-3.9,0.9-7.6,0.7-10.8-2.1C340.4,75.3,339.7,73.3,339.6,70.9z M355.7,61.2c-1.5-0.3-2.7-0.2-4,0c-3.8,0.7-6.9,2.4-9,5.7
		c-2.6,4.2-0.8,8.9,4,10.1c4.9,1.2,9.1-0.3,12.6-3.9c0.2-0.2,0.5-0.4,0.4-0.8c-5,0.4-6.5-2.9-6.1-6.6
		C353.9,64.2,354.6,62.7,355.7,61.2z"/>
	<path class="st11" d="M344.8,147.9c0.6,0,0.7,0.4,0.8,0.8c0.5,2,1.3,3.9,2.6,5.4c0.7,0.8,0.6,1.6-0.4,1.9c-0.6,0.2-0.8,0.7-1.1,1.1
		c-0.7,1.3-0.9,2.7-1.2,4.2c-0.1,0.6-0.2,1.3-1.1,1.3c-0.9,0-0.8-0.7-0.9-1.3c-0.2-1.1-0.3-2.3-0.6-3.4c-0.3-0.8-0.6-1.5-1.5-1.8
		c-1-0.3-1.1-1-0.3-1.7c0.2-0.2,0.4-0.3,0.6-0.4c2-1,2.8-2.6,2.5-4.8C344.1,148.7,343.9,148,344.8,147.9z M345.2,153.1
		c-0.5,0.9-1.3,1.4-2.2,1.9c0.8,0.7,1.1,1.6,1.6,2.6c0.5-1,0.9-1.9,1.6-2.6C345.9,154.4,345.6,153.8,345.2,153.1z"/>
	<path class="st11" d="M458,68.3c0,0.5-0.1,0.9-0.5,1c-1.6,0.6-2.3,1.9-2.8,3.4c-0.2,0.6-0.2,1.3-1.1,1.3c-0.9,0-0.9-0.7-1.1-1.3
		c-0.4-1.4-0.9-2.7-2.4-3.2c-0.4-0.1-0.7-0.5-0.6-1c0.1-0.5,0.4-0.7,0.8-0.8c1.7-0.5,2.5-1.8,2.8-3.5c0.1-0.5-0.1-1.1,0.6-1.3
		c0.6-0.2,0.8,0.4,1.1,0.8c1.1,1.2,1.6,2.9,3,3.9C458,67.9,458,68.2,458,68.3z M452.4,68.8c0.5,0.7,0.8,1.2,1.3,1.8
		c0.5-0.9,1.2-1.6,2.1-2.1c-0.5-0.6-0.9-1.2-1.3-1.9C453.9,67.4,453.3,68.1,452.4,68.8z"/>
	<path class="st11" d="M338.1,146.1c0,1.3-0.8,2.3-1.7,2.2c-1-0.1-1.4-0.8-1.4-1.8c0-1,0.7-1.9,1.6-1.9
		C337.7,144.7,338.1,145.4,338.1,146.1z"/>
	<path class="st11" d="M342.8,135.5c0.1,0.8-0.3,1.4-1.2,1.5c-0.8,0.1-1.5-0.8-1.4-1.7c0-0.8,0.3-1.6,1.3-1.7
		C342.2,133.6,342.8,134.4,342.8,135.5z"/>
	<path class="st11" d="M446,56.1c0-0.8,0.3-1.4,1.2-1.4c0.8,0.1,1.1,0.7,1.1,1.4c0,0.7-0.2,1.4-1,1.4C446.2,57.7,446,56.9,446,56.1z
		"/>
	<path class="st11" d="M451.5,56.1c-0.1,0.7-0.3,1.4-1.1,1.4c-0.7,0-1.1-0.5-1.1-1.1c0-0.8,0.3-1.5,1.2-1.6
		C451.3,54.8,451.3,55.5,451.5,56.1z"/>
	<path class="st11" d="M449,48.5c0-0.7,0.4-1.1,1.1-1.1c0.6,0,1,0.4,0.9,1.1c0,0.7-0.4,1.1-1.1,1.1C449.2,49.5,449,49.1,449,48.5z"
		/>
	<path class="st11" d="M404.8,188.5c-7.6,0.2-16.7-1-25.6-3.3c-6.5-1.7-11.2-5.8-14.3-11.7c-2.8-5.4-4.5-11.3-5.8-17.2
		c-1.9-8.2-3.1-16.4-4.3-24.7c-0.9-5.7-1.3-11.4-1.1-17.1c0.1-5.2,0.7-10.5,2.4-15.5c1.3-3.9,3.6-7,6.9-9.5c2.4-1.8,5.2-2.2,8-2.5
		c2.6-0.4,5.2-0.3,7.9-0.3c6,0.1,11.8,1.5,17.4,3.6c2.5,0.9,5,1.8,7.4,3.1c0.6,0.3,1.1,0.2,1.7,0c6.6-1.6,13.2-3.2,19.8-4.6
		c4.8-1,9.7-1.7,14.6-1.2c6.3,0.7,14.8,5.6,16.3,14.4c0.4,2.2,1,4.3,1.5,6.4c0.7,3.6,0.5,7.2,0.2,10.9c-1.3,14.1-4.1,27.9-8.2,41.5
		c-1.4,4.5-3.1,9-4.9,13.3c-2.9,6.8-8.5,10.1-15.2,11.7C420.5,188.1,415.1,188.5,404.8,188.5z M405.6,177.5c0.9,0,1.8-0.1,2.7-0.3
		c4.6-0.7,9.3-1.4,13.8-2.9c5.2-1.8,9-5.1,11.2-10.2c1.6-3.6,2.5-7.4,3.4-11.2c2-7.9,3.4-16,5.3-24c0.9-3.9,1.9-7.8,1.6-11.9
		c-0.5-5.9-4.9-8.6-10.1-8.4c-2.7,0.1-5.3,0.4-8,0.3c-5.4-0.2-10.9,0-16.3-0.2c-1.8-0.1-3.7-0.3-5.5-0.1c-6.3,0.4-12.5,0.1-18.8,0.3
		c-3.2,0.1-6.3-0.5-9.5-0.1c-3.2,0.4-5.7,1.9-6.9,5c-1.3,3.2-1.1,6.5-0.4,9.8c1.1,5.2,2.3,10.4,3.4,15.6c1.4,7.1,3,14.2,5,21.2
		c1.8,5.9,4.9,10.8,10.9,13.3C393.2,176,399.4,176.8,405.6,177.5z M387.4,89.5c-2.2-0.7-4.5-0.8-6.7-1.1c-3.8-0.5-7.2,0.3-9.9,3.3
		c-2.2,2.4-1.9,4.5,1,5.9c0.2,0.1,0.5,0.2,0.7,0.3c4.5,2.1,9,0.8,13.8-0.2c-1.2-0.5-2.1-1-2.8-1.6c-1.8-1.5-1.7-3.7,0.2-5
		c0.8-0.5,1.6-0.8,2.5-1.1C386.5,89.8,387.1,90,387.4,89.5z M401.2,94.4c0-0.1,0-0.2,0-0.3c-1.1-0.5-2.3-0.9-3.4-1.4
		c-2.8-1.1-5.7-2.2-8.8-1.8c-1.6,0.2-3.2,0.5-4.6,1.4c-0.6,0.4-1.1,1-0.7,1.8c0.6,1.4,4.4,3.3,5.9,3
		C393.4,96.2,397.3,95.3,401.2,94.4z M372.8,88.4c-0.6,0.1-1,0.1-1.4,0.2c-2.8,0.4-5.5,1.3-7.7,3.2c-2.6,2.2-2.7,5.7,1.2,7.2
		c2.6,1,5.2,0.8,8.3,0.6c-1.1-0.5-1.9-0.8-2.6-1.2c-2.7-1.6-3.2-4.1-1.4-6.6C370.1,90.4,371.4,89.5,372.8,88.4z M371.5,169.4
		c-0.1-0.7-0.5-1.3-1.3-1.3c-0.6,0-0.9,0.3-0.8,0.9c0,0.8,0.4,1.4,1.2,1.4C371.3,170.5,371.5,170.1,371.5,169.4z M448.5,100.1
		c0-0.6-0.2-1.1-0.9-1.2c-0.7-0.1-1,0.5-1.1,1.1c0,0.6,0.2,1.2,0.9,1.2C448.2,101.2,448.4,100.7,448.5,100.1z M364.6,146.8
		c-0.5,0.1-1,0.2-0.9,0.9c0,0.6,0.4,1,1,1.1c0.6,0,0.9-0.3,0.9-0.9C365.7,147.2,365.3,146.9,364.6,146.8z M450.8,101.2
		c0-0.7-0.2-1.1-0.8-1.1c-0.6,0-0.9,0.3-1,0.9c0,0.6,0.2,1.1,0.9,1.1C450.4,102.2,450.7,101.7,450.8,101.2z M440.3,167.5
		c0-0.5-0.3-0.9-0.8-0.9c-0.7,0-1,0.4-1,1c0,0.5,0.3,0.8,0.9,0.8C440,168.5,440.3,168.1,440.3,167.5z M437,170.4
		c-0.5,0.1-0.8,0.3-0.8,0.9c0,0.5,0.3,0.9,0.8,0.9c0.6,0,0.9-0.3,0.9-0.9C437.9,170.7,437.5,170.4,437,170.4z M372.7,167
		c0-0.5-0.3-0.9-0.8-0.9c-0.5,0-0.9,0.3-0.9,0.8c0,0.5,0.3,0.9,0.8,0.9C372.4,167.8,372.7,167.5,372.7,167z M442.4,102.7
		c0.6,0,0.9-0.4,1-0.9c0-0.4-0.2-0.8-0.7-0.8c-0.7,0-0.9,0.5-0.9,1C441.7,102.4,441.9,102.7,442.4,102.7z M366.8,106.7
		c-0.1-0.5-0.3-0.8-0.8-0.8c-0.5,0-0.8,0.3-0.8,0.7c0,0.5,0.3,0.8,0.8,0.8C366.5,107.4,366.8,107.1,366.8,106.7z"/>
	<path class="st11" d="M399.6,30.9c-2-0.1-4.3,0.2-6.6-0.2c-0.3-0.1-0.7-0.1-0.9-0.3c-0.4-0.2-0.6-0.6-0.4-1
		c0.2-0.4,0.5-0.5,0.9-0.4c4.2,0.7,8.4,0.4,12.6,0.7c0.5,0,1.1-0.1,1.1,0.6c0,0.7-0.6,0.6-1.1,0.6C403.4,30.9,401.6,30.9,399.6,30.9
		z"/>
	<path class="st11" d="M400.7,40c1.1,0,2.2,0,3.2,0c0.4,0,1,0.2,0.9,0.8c0,0.5-0.5,0.7-1,0.7c-2.6,0.1-5.1,0.2-7.7,0.2
		c-0.6,0-1.2,0-1.3-0.6c-0.1-0.8,0.6-0.8,1.2-0.9C397.6,40,399.2,39.9,400.7,40z"/>
	<path class="st11" d="M390.9,27c4.4-0.3,11.7,0.4,12.1,1.2c-0.3,0.4-0.7,0.3-1.1,0.3c-3.2-0.1-6.3-0.3-9.5-0.4
		C391.6,28.2,391.1,27.9,390.9,27z"/>
	<path class="st11" d="M395,32.5c0.8,0,1.6,0,2.4,0c0.5,0,0.8,0.2,0.8,0.7c0,0.5-0.4,0.7-0.8,0.8c-1.6,0.1-3.1,0.2-4.7,0.2
		c-0.5,0-1.2-0.1-1.2-0.8c0-0.8,0.6-0.8,1.1-0.9C393.4,32.4,394.2,32.5,395,32.5C395,32.5,395,32.5,395,32.5z"/>
	<path class="st11" d="M381.6,134.7c-0.3-0.9,0.5-0.9,1-1.1c2.1-0.6,4.2-1,6.3-1.3c7-0.9,14-1.3,21-1.2c4.9,0.1,9.9,0.6,14.7,1.9
		c1,0.3,1.9,0.7,2.8,1c0.4,0.2,0.8,0.4,0.6,0.9c-0.2,0.4-0.6,0.3-1,0.2c-5.8-2.4-12-2.8-18.1-2.9c-6.4-0.1-12.7,0.3-19,1.1
		c-2.3,0.3-4.7,0.7-7,1.4C382.5,134.8,382,135,381.6,134.7z"/>
	<path class="st11" d="M403.6,145.1c7.9-0.1,14.7,0.6,21.4,2.2c0.1,0,0.3,0,0.4,0c0.4,0.2,1.1,0.2,0.9,0.8c-0.1,0.7-0.8,0.4-1.3,0.4
		c-0.7-0.1-1.3-0.3-1.9-0.4c-7.7-1.8-15.6-2-23.5-1.7c-5.1,0.2-10.2,0.7-15.2,1.7c-0.5,0.1-1.4,0.6-1.6-0.2c-0.2-1,0.9-0.8,1.4-0.9
		c4.5-0.8,9-1.3,13.5-1.6C399.9,145.1,402.3,145.1,403.6,145.1z"/>
	<path class="st11" d="M393.4,137.8c-2.5,3-2.5,3-5.3,0.8c0,1.2,0.4,2.1,0.6,3.1c0.2,0.7,0.3,1.5-0.6,1.8c-1,0.3-1.2-0.6-1.4-1.3
		c-0.4-1.6-0.9-3.2-1-4.9c-0.1-0.6,0-1.2,0.6-1.5c0.6-0.3,1.2-0.3,1.8,0.1c1,0.6,1.6,1.5,2.6,2.2c0.9-0.9,1.5-2,2.1-3
		c0.3-0.5,0.6-0.9,1.3-0.9c0.7,0.1,1,0.6,1.2,1.2c0.5,2.1,0.7,4.2,0.9,6.3c0,0.5-0.1,1-0.7,1.2c-0.6,0.2-0.9-0.3-1.1-0.8
		c-0.4-1-0.5-2-0.6-3.1C393.7,138.7,393.8,138.2,393.4,137.8z"/>
	<path class="st11" d="M408.7,141.2c-0.7-0.5-1.8-0.3-1.6-1.4c0.2-1,1.3-0.7,2-0.7c0.2,0,0.3,0,0.5,0c0.9,0.1,1.9,0,2.2,1
		c0.4,1.1-0.6,1.8-1.3,2.3c-1.4,1-2.9,1.2-4.5,0.4c-1.5-0.8-1.9-2.2-1.8-3.8c0.2-3.6,3.4-6.1,6.4-5.1c0.7,0.2,1.3,0.6,1.7,1.2
		c0.3,0.4,0.6,0.9,0.2,1.4c-0.4,0.5-0.9,0.3-1.3,0c-1.1-0.8-2.2-0.8-3.2,0.1c-1.1,0.9-1.7,2.1-1.4,3.5
		C406.8,141.2,407.5,141.6,408.7,141.2z"/>
	<path class="st11" d="M403.5,140.6c0.1,0.8,0.2,1.5,0,2.1c-0.1,0.5-0.4,0.8-1,0.9c-0.6,0-0.8-0.4-0.9-0.8c-0.2-0.5,0-1.3-1-1.3
		c-0.8,0-1.3,0.4-1.4,1.2c-0.1,0.5-0.5,0.9-1.1,0.8c-0.6-0.1-0.8-0.6-0.7-1.2c0.3-2,0.5-4.1,1.4-5.9c0.5-1,1.2-1.7,2.4-1.6
		c1.3,0.2,1.8,1.1,2,2.2C403.4,138.2,403.5,139.5,403.5,140.6z M399.7,139.6c0.6,0,1,0.3,1.5-0.1c0.1-0.9,0-1.8-0.4-2.7
		C400.1,137.6,400,138.5,399.7,139.6z"/>
	<path class="st11" d="M421.4,135.3c1.1,0,2.2,0.3,2.8,1.3c0.3,0.4,0.4,1,0,1.4c-0.5,0.4-0.9,0.2-1.3-0.1c-1.2-0.9-1.9-0.8-2.9,0.3
		c-1.2,1.3-1.6,2.9-0.8,3.8c0.6,0.8,1.4,0.9,2.4,0.6c0.7-0.2,1.6-0.4,1.8,0.6c0.2,1-0.6,1.2-1.4,1.4c-1.8,0.4-3.4,0.1-4.6-1.3
		c-1.2-1.4-1.1-3.1-0.4-4.7C418.1,136.5,419.7,135.2,421.4,135.3z"/>
	<path class="st11" d="M407.7,156.9c0,2.8-1.6,4.7-4,4.5c-2.2-0.1-3.9-2.6-3.3-5.1c0.3-1.5,0.9-2.9,1.7-4.2c0.6-0.8,1.2-1.6,1.2-2.7
		c0-0.3,0.2-0.6,0.5-0.6c0.3-0.1,0.5,0.1,0.6,0.3C405.1,149.9,407.7,156.1,407.7,156.9z M404.1,151.5c-1.2,1.5-2,3-2.4,4.7
		c-0.5,1.9,0.4,3.9,1.9,4.2c1.4,0.3,2.7-1,3-3c0.1-0.4,0-0.7-0.1-1.1C406.1,154.5,404.8,153.2,404.1,151.5z"/>
	<path class="st11" d="M404.4,129.3c-0.7-0.6-0.7-1.5-1-2.2c-0.5-1.3-1.3-2.5-2.8-2.8c-0.5-0.1-0.8-0.3-0.8-0.8
		c0-0.5,0.4-0.6,0.7-0.7c2-0.9,3.3-2.3,3.1-4.6c0-0.5,0.1-0.9,0.7-0.9c0.4,0.2,0.4,0.5,0.4,0.9c0.2,2,1,3.7,2.6,4.9
		c0.6,0.4,0.6,0.9,0,1.3c-1.6,0.9-2,2.3-2.3,3.9C405,128.6,404.9,129,404.4,129.3z M404.3,126.6c0.4-1.4,1.1-2.3,2-3.2
		c-0.8-0.8-1.4-1.6-2-2.7c-0.6,1.2-1.5,2-2.5,2.7C403,124.3,403.7,125.2,404.3,126.6z"/>
	<path class="st11" d="M416.2,137.1c-0.3,2.1-0.7,4.1-1.1,6.2c-0.1,0.7-0.4,1.4-1.2,1.3c-1-0.1-0.9-1-0.9-1.7
		c0.1-2.3,0.6-4.5,1.2-6.6c0.2-0.6,0.4-1.3,1.2-1.1c0.8,0.2,0.8,0.9,0.7,1.5C416.2,136.8,416.2,136.9,416.2,137.1
		C416.2,137,416.2,137.1,416.2,137.1z"/>
	<path class="st11" d="M376.3,113c-0.1,0.2-0.2,0.4-0.3,0.6c-1,1.3-1.9,2.6-2.9,3.9c-0.2,0.3-0.6,0.7-1,0.4c-0.4-0.3-0.2-0.8,0-1.1
		c0.9-1.3,1.8-2.6,2.7-3.9c0.3-0.3,0.7-0.5,1.1-0.4C376.3,112.5,376.4,112.7,376.3,113z"/>
	<path class="st11" d="M429.8,163.9c-0.2,0.3-0.4,0.7-0.6,1c-0.9,1.1-1.9,2.2-2.8,3.3c-0.3,0.3-0.6,0.7-1,0.3
		c-0.5-0.4-0.1-0.7,0.1-1c1.1-1.3,2.3-2.5,3.2-3.9c0.2-0.3,0.4-0.4,0.7-0.3C429.8,163.3,429.9,163.5,429.8,163.9z"/>
	<path class="st11" d="M435.8,113c0.4,0,0.6,0.3,0.7,0.5c1,1.2,2,2.5,2.9,3.7c0.2,0.3,0.5,0.7,0,1c-0.4,0.3-0.7,0.1-1-0.3
		c-1-1.3-2-2.6-3-3.9C435.1,113.5,435.2,113.1,435.8,113z"/>
	<path class="st11" d="M385.6,168.6c-0.4,0-0.6-0.3-0.8-0.5c-0.9-0.9-1.8-1.8-2.9-2.5c-0.4-0.2-0.8-0.6-0.4-1.1
		c0.4-0.5,0.7-0.1,1.1,0.1c1.2,0.8,2.2,1.7,3.2,2.8c0.2,0.3,0.4,0.5,0.3,0.9C385.9,168.4,385.8,168.5,385.6,168.6z"/>
</g>
</svg>
