<svg xmlns="http://www.w3.org/2000/svg" version="1.1" xmlns:xlink="http://www.w3.org/1999/xlink" width="512" height="512" x="0" y="0" viewBox="0 0 682.667 682.667" style="enable-background:new 0 0 512 512" xml:space="preserve" class=""><g><defs><clipPath id="a" clipPathUnits="userSpaceOnUse"><path d="M0 512h512V0H0Z" fill="#9b48db" opacity="1" data-original="#000000" class=""></path></clipPath></defs><g clip-path="url(#a)" transform="matrix(1.33333 0 0 -1.33333 0 682.667)"><path d="m0 0-.286.287c-15.705 15.77-17.738 40.585-5.094 58.901 2.886 4.18.707 9.956-4.221 11.188L-29.9 75.453l20.339 11.763c4.221 2.44 4.893 8.261 1.338 11.598l-9.431 8.858c-4.186 3.931-3.588 10.743 1.219 13.884l8.016 5.236a9.142 9.142 0 0 1 2.863 12.319l-9.384 15.818c-22.646 38.172-16.914 86.955 14.333 118.475l.607.61c59.043 59.044 146.712 72.011 218.333 38.91C174.385 355.883 114.416 382.521 48.216 383c-135.502.979-247.817-110.491-247.814-245.997.002-135.86 110.139-245.996 246-245.996 66.917 0 127.582 26.731 171.931 70.083C146.712-72.012 59.043-59.043 0 0" style="fill-opacity:1;fill-rule:nonzero;stroke:none" transform="translate(246.632 118.993)" fill="#ffffff" data-original="#ff7396" class="" opacity="1"></path><path d="M0 0c42.741-35.852 97.849-57.44 158-57.44 66.917 0 127.583 26.731 171.932 70.083-71.621-33.102-159.29-20.133-218.333 38.91l-.286.287c-15.705 15.769-17.738 40.585-5.094 58.9 2.885 4.181.707 9.956-4.221 11.189l-20.3 5.077 20.34 11.763c4.221 2.44 4.892 8.26 1.338 11.598l-9.432 8.858c-4.186 3.93-3.587 10.743 1.22 13.883l8.016 5.237a9.142 9.142 0 0 1 2.863 12.319l-9.384 15.817c-22.646 38.172-16.914 86.956 14.333 118.476l.607.609c59.043 59.044 146.712 72.012 218.333 38.911-43.948 42.959-103.918 69.597-170.117 70.076C24.313 435.532-88.002 324.062-88 188.556c.001-43.357 11.218-84.094 30.908-119.468" style="stroke-width:20;stroke-linecap:round;stroke-linejoin:round;stroke-miterlimit:10;stroke-dasharray:none;stroke-opacity:1" transform="translate(135.034 67.44)" fill="none" stroke="#9b48db" stroke-width="20" stroke-linecap="round" stroke-linejoin="round" stroke-miterlimit="10" stroke-dasharray="none" stroke-opacity="" data-original="#000000" opacity="1"></path><path d="M0 0c-12.251-8.885-28.755-14.342-46.927-14.342 18.172 0 34.676-5.456 46.927-14.34" style="stroke-width:20;stroke-linecap:round;stroke-linejoin:round;stroke-miterlimit:10;stroke-dasharray:none;stroke-opacity:1" transform="translate(182.083 282.565)" fill="none" stroke="#9b48db" stroke-width="20" stroke-linecap="round" stroke-linejoin="round" stroke-miterlimit="10" stroke-dasharray="none" stroke-opacity="" data-original="#000000" opacity="1"></path><path d="M0 0v0" style="stroke-width:20;stroke-linecap:round;stroke-linejoin:round;stroke-miterlimit:10;stroke-dasharray:none;stroke-opacity:1" transform="translate(149.502 183.064)" fill="none" stroke="#9b48db" stroke-width="20" stroke-linecap="round" stroke-linejoin="round" stroke-miterlimit="10" stroke-dasharray="none" stroke-opacity="" data-original="#000000" opacity="1"></path><path d="M0 0v0" style="stroke-width:20;stroke-linecap:round;stroke-linejoin:round;stroke-miterlimit:10;stroke-dasharray:none;stroke-opacity:1" transform="translate(103.332 99.374)" fill="none" stroke="#9b48db" stroke-width="20" stroke-linecap="round" stroke-linejoin="round" stroke-miterlimit="10" stroke-dasharray="none" stroke-opacity="" data-original="#000000" opacity="1"></path></g></g></svg>