<?xml version="1.0" encoding="utf-8"?>
<!-- Generator: Adobe Illustrator 28.3.0, SVG Export Plug-In . SVG Version: 6.00 Build 0)  -->
<svg version="1.1" id="Capa_1" xmlns="http://www.w3.org/2000/svg" xmlns:xlink="http://www.w3.org/1999/xlink" x="0px" y="0px"
	 viewBox="0 0 512 512" style="enable-background:new 0 0 512 512;" xml:space="preserve">
<style type="text/css">
	.st0{fill:none;stroke:#343135;stroke-width:15;stroke-linecap:round;stroke-linejoin:round;stroke-miterlimit:10;}
</style>
<g>
	<path class="st0" d="M50.2,49.8l37.9-37.9c5.8-5.8,15.3-5.8,21.2,0l15.7,15.7c5.9,5.9,5.9,15.4,0,21.2L48.8,125
		c-5.9,5.9-15.3,5.9-21.2,0l-15.7-15.7C6,103.5,6,94,11.9,88.1l13.6-13.6 M120,189.6l-60.5-71.9 M118.6,60.2L273,190.1 M203.2,470.3
		h171.1c10.4,0,18.9,8.4,18.9,18.9v11.5c0,2.1-1.7,3.8-3.8,3.8H122.8c-2.1,0-3.8-1.7-3.8-3.8v-11.5c0-10.4,8.4-18.9,18.9-18.9h30.3
		 M138.1,469.9c-16.7-10.1-33.8-22.2-47.1-35.9 M438.2,413.3c-17.4,22.5-38.8,41.7-63.1,56.5 M486.1,239.3v34.9
		c0,39-10.2,76.7-28.6,109.8 M54.9,385.5c-18.9-34-28.8-72.3-28.8-111.3v-36.7 M338.1,325.7l-132.8,96.5L256,266.1l50.7,156.1"/>
	<path class="st0" d="M338.1,325.7L338.1,325.7H173.9l132.8,96.5"/>
	<circle class="st0" cx="256" cy="353" r="90.5"/>
	<path class="st0" d="M405.3,123.1c-19.7,8.2-26.3,14.8-34.5,34.5c-8.2-19.7-14.8-26.3-34.5-34.5c19.7-8.2,26.3-14.8,34.5-34.5
		C379,108.4,385.6,115,405.3,123.1z M326,58c-26.5,11-35.4,19.9-46.4,46.4c-11-26.5-19.9-35.4-46.4-46.4
		c26.5-11,35.4-19.9,46.4-46.4C290.6,38.1,299.5,47,326,58z M127.8,405.9c-29.7,12.3-39.6,22.3-51.9,51.9
		c-12.3-29.7-22.3-39.6-51.9-51.9c29.7-12.3,39.6-22.3,51.9-51.9C88.1,383.7,98.1,393.7,127.8,405.9z M398.7,191.4h88
		c9.8,0,17.8,8,17.8,17.8v22.4c0,2-1.6,3.6-3.6,3.6H11.1c-2,0-3.6-1.6-3.6-3.6v-22.4c0-9.8,8-17.8,17.8-17.8h338.4"/>
</g>
</svg>
