<svg xmlns="http://www.w3.org/2000/svg" version="1.1" xmlns:xlink="http://www.w3.org/1999/xlink" width="512" height="512" x="0" y="0" viewBox="0 0 512 512" style="enable-background:new 0 0 512 512" xml:space="preserve"><g><path d="M257.493 132.626a79.563 79.563 0 0 0 5.077 12.892 6 6 0 0 0 5.318 3.224c.1 0 .205 0 .308-.008a6 6 0 0 0 5.268-3.774 17.651 17.651 0 0 0 1.022-4.347c.355-2.554.722-5.2 7.268-10.856 24.606-21.275 17.782-56.135 17.479-57.609a6 6 0 0 0-11.858 1.692c.008.1.03 10.553-17.7 18.576a23.842 23.842 0 0 0-13.1 14.156c-2.436 7.047-2.126 15.813.918 26.054zm10.428-22.154a11.652 11.652 0 0 1 6.695-7.122 55.889 55.889 0 0 0 12.784-7.806c-1.5 8.486-5.183 17.952-13.491 25.136a49.547 49.547 0 0 0-5.68 5.677c-1.319-5.416-1.898-11.298-.308-15.885zM182.024 19.122a6.127 6.127 0 0 0-8.221 1.9 5.861 5.861 0 0 0 1.52 8.029c.786.71 7.7 7.6 2.081 25.468a23.752 23.752 0 0 0 1.816 19.134c3.616 6.485 10.327 12.074 19.947 16.61a79.07 79.07 0 0 0 12.933 4.784 6 6 0 0 0 6.846-8.492 17.6 17.6 0 0 0-2.551-3.647c-1.655-1.954-3.368-3.975-3.224-12.576.546-32.387-29.853-50.456-31.147-51.21zm7.667 48.669a11.575 11.575 0 0 1-.84-9.673 55.7 55.7 0 0 0 2.687-14.591c5.277 6.729 9.821 15.715 9.638 26.6a49.527 49.527 0 0 0 .436 7.932c-4.867-2.608-9.584-6.065-11.921-10.268zM271.534 34.2a12.1 12.1 0 1 0-12.1-12.1 12.112 12.112 0 0 0 12.1 12.1zM229.13 162.306a11.021 11.021 0 1 0-11.019-11.021 11.033 11.033 0 0 0 11.019 11.021zm0-12a.98.98 0 1 1-.98.979.981.981 0 0 1 .98-.979zM173.9 243.339a11.021 11.021 0 1 0 11.019 11.02 11.033 11.033 0 0 0-11.019-11.02zm0 12a.98.98 0 1 1 .98-.98.982.982 0 0 1-.98.98zM229.13 257.023a11.021 11.021 0 1 0 11.02 11.021 11.032 11.032 0 0 0-11.02-11.021zm0 12a.979.979 0 1 1 .981-.979.981.981 0 0 1-.981.979zM102.735 54.082a9.841 9.841 0 1 0-9.841 9.841 9.853 9.853 0 0 0 9.841-9.841zm-12 0a2.16 2.16 0 1 1 2.159 2.159 2.162 2.162 0 0 1-2.159-2.159z" fill="#ffffff" opacity="1" data-original="#000000"></path><path d="m387.963 204.455 12.737-42.207a8.753 8.753 0 0 1 4.9-5.415 28.919 28.919 0 0 0-1.12-53.333l-46.143-18.237a28.916 28.916 0 0 0-35.578 41.523 8.255 8.255 0 0 1 .08 7.748l-.059.123-26.744 57.275A733.088 733.088 0 0 0 256 190.808a633.875 633.875 0 0 0-66.556 3.377 138.6 138.6 0 0 0 7.166-21.063 152.184 152.184 0 0 0 4.82-42.168 6.025 6.025 0 0 0-5.868-5.686 5.955 5.955 0 0 0-6.087 5.386c-.126 1.059-3.417 24.794-42.889 38.559a138.908 138.908 0 0 0-4.153-21.718 152.2 152.2 0 0 0-16.616-39.054 6 6 0 0 0-10.438 5.874c.118.244 11.439 24.782-22.477 59.41-12.652 12.918-17.627 28.6-14.807 46.069C57.352 230.034 46 242.452 46 255.045c0 .607.026 1.212.072 1.814a212.423 212.423 0 0 0 85.471 170.277v23.284a31.261 31.261 0 0 0 12.111 24.817c20.5 15.59 61.715 25.823 107.554 26.7 2.12.041 4.219.061 6.311.061 46.946 0 86.7-10.229 109.744-28.362a31.085 31.085 0 0 0 11.837-24.607v-20.84a211.946 211.946 0 0 0 86.789-171 23.57 23.57 0 0 0 .109-2.145c.002-27.372-46.274-43.054-78.035-50.589zm-56-98.508a16.93 16.93 0 0 1 21.967-9.524l46.143 18.24a16.918 16.918 0 0 1 .661 31.2 20.752 20.752 0 0 0-11.373 12.465c-30.472 1.262-48.792-13.89-55.025-20.161a19.977 19.977 0 0 0-1.221-17.452 16.812 16.812 0 0 1-1.156-14.768zm-2.923 43.675c9.2 8.117 28.118 20.762 56.663 20.786l-4.111 13.63c-30.531 1.155-51.379-15.1-58.507-21.663zm85.39 103.857c0 2.258-7.826 10.29-42.6 17.346-1.355.275-2.739.543-4.134.807l10.32-34.212c35.976 7.873 36.414 15.98 36.414 16.059zm-96.658-79.732a93.965 93.965 0 0 0 60.176 22.353l-23.461 77.776c-25.017 3.806-54.855 6.022-86.455 6.391zm-51.2 63.295a7.4 7.4 0 0 0 6.813-10.277q3.19.055 6.323.135l-25.076 53.416c-41.36-.2-80.042-3.553-109.3-9.491a244.935 244.935 0 0 1-12.626-2.891c1.753-7.524 5.706-18.387 16.391-25.2a99.709 99.709 0 0 0 12.767-9.685c26.913-4.312 58.568-6.415 96.718-6.415h1.24a7.385 7.385 0 0 0 6.751 10.406zM256 202.808c11.272 0 23.059.3 34.558.856l-5.315 11.385a870.343 870.343 0 0 0-26.661-.416c-32.017 0-59.6 1.464-83.748 4.456a111.52 111.52 0 0 0 8.132-12.114A621.632 621.632 0 0 1 256 202.808zm-108.7-21.182c19.6-6.3 32.124-15.038 40.114-23.438-3.863 22.914-14.711 55.258-44.77 74.427A45.813 45.813 0 0 0 128.91 246.2a99.088 99.088 0 0 1 6.547-14.709 104.194 104.194 0 0 0 11.843-49.865zm-45.826.5c15.651-15.979 22.905-30.492 25.91-42.3 7.824 21.82 13.99 54.847-2.533 86.052a100.992 100.992 0 0 0-8.287 19.592c-6.379-26.062 1.672-45.244 2.11-46.252a6 6 0 0 0-10.985-4.832c-.545 1.236-11.1 25.92-1.583 58.354a102.11 102.11 0 0 1-11.3-19.043c-9.07-20.445-6.827-37.797 6.669-51.576zM367.1 449.029a19.413 19.413 0 0 1-7.261 15.181c-21.6 17-62.126 26.635-108.4 25.733-42.766-.822-82.223-10.344-100.521-24.258a19.193 19.193 0 0 1-7.375-15.265v-14.961a207.941 207.941 0 0 0 223.559.9zm-111.1 7.48c-101.74 0-185.785-77.949-196.715-177.829 10.707 8.864 27.769 16.734 50.818 23.314 39.051 11.148 90.865 17.287 145.9 17.287s106.846-6.139 145.9-17.287c23.049-6.58 40.111-14.45 50.818-23.314C441.937 378.533 357.834 456.509 256 456.509zm142.6-166.054c-38.009 10.851-88.653 16.826-142.6 16.826s-104.593-5.975-142.6-16.826c-34.688-9.9-55.4-23.14-55.4-35.41 0-7.227 8.527-15.736 23.132-23.338q1.224 3.54 2.842 7.156a106.54 106.54 0 0 0 6.882 12.822 12.565 12.565 0 0 0-.121 1.794c0 12.456 17.078 21.977 52.21 29.107 30.95 6.281 72.018 9.74 115.637 9.74s84.687-3.459 115.637-9.74c35.133-7.13 52.211-16.651 52.211-29.107 0-11.96-14.323-20.785-44.936-27.582l3-9.93c21.315 5 38.878 11.224 51.013 18.122 8.438 4.8 18.5 12.326 18.5 20.956-.007 12.27-20.717 25.508-55.407 35.41z" fill="#ffffff" opacity="1" data-original="#000000"></path><path d="M166.863 400.5c-20.56-6.333-36.875-19.71-48.493-39.757a6 6 0 0 0-10.383 6.018c13 22.425 32.134 38.057 55.343 45.208a6 6 0 0 0 3.533-11.469zM108.812 339.037c-1.217-3.9-1.7-6.326-1.706-6.349a6 6 0 0 0-11.779 2.289 77.8 77.8 0 0 0 2.031 7.638 6 6 0 1 0 11.454-3.578z" fill="#ffffff" opacity="1" data-original="#000000"></path></g></svg>