<svg xmlns="http://www.w3.org/2000/svg" version="1.1" xmlns:xlink="http://www.w3.org/1999/xlink" width="512" height="512" x="0" y="0" viewBox="0 0 512 512" style="enable-background:new 0 0 512 512" xml:space="preserve" class=""><g><path d="m50.21 49.819 37.93-37.93c5.85-5.85 15.35-5.85 21.21 0l15.71 15.71c5.86 5.86 5.86 15.36 0 21.22l-76.24 76.23c-5.86 5.86-15.35 5.86-21.21 0l-15.71-15.71c-5.86-5.85-5.86-15.35 0-21.21l13.56-13.56M119.952 189.588l-60.5-71.911M118.606 60.22l154.383 129.886M203.19 470.319h171.1c10.41 0 18.85 8.44 18.85 18.86v11.55c0 2.08-1.69 3.77-3.77 3.77h-266.6c-2.08 0-3.77-1.69-3.77-3.77v-11.55c0-10.42 8.44-18.86 18.86-18.86h30.33M138.122 469.915c-16.714-10.141-33.805-22.223-47.082-35.857M438.24 413.279a232.834 232.834 0 0 1-63.09 56.51M486.08 239.339v34.87c0 39.02-10.2 76.66-28.58 109.8M54.906 385.486a228.969 228.969 0 0 1-28.84-111.281v-36.738M338.09 325.727l-132.825 96.502L256 266.085l50.735 156.144" style="stroke-width:15;stroke-linecap:round;stroke-linejoin:round;stroke-miterlimit:10;" fill="none" stroke="#ffffff" stroke-width="15" stroke-linecap="round" stroke-linejoin="round" stroke-miterlimit="10" data-original="#000000" opacity="1"></path><path d="M338.09 325.727h0-164.18l132.825 96.502" style="stroke-width:15;stroke-linecap:round;stroke-linejoin:round;stroke-miterlimit:10;" fill="none" stroke="#ffffff" stroke-width="15" stroke-linecap="round" stroke-linejoin="round" stroke-miterlimit="10" data-original="#000000" opacity="1"></path><circle cx="256" cy="352.999" r="90.511" style="stroke-width:15;stroke-linecap:round;stroke-linejoin:round;stroke-miterlimit:10;" fill="none" stroke="#ffffff" stroke-width="15" stroke-linecap="round" stroke-linejoin="round" stroke-miterlimit="10" data-original="#000000" opacity="1"></circle><path d="M405.325 123.129c-19.705 8.162-26.322 14.779-34.484 34.484-8.162-19.705-14.779-26.322-34.484-34.484 19.705-8.162 26.322-14.779 34.484-34.484 8.162 19.706 14.779 26.322 34.484 34.484zM326.045 57.958c-26.522 10.986-35.427 19.891-46.413 46.413-10.986-26.522-19.891-35.427-46.413-46.413 26.522-10.986 35.427-19.891 46.413-46.413 10.986 26.522 19.892 35.427 46.413 46.413zM127.764 405.943c-29.669 12.289-39.632 22.252-51.921 51.921-12.289-29.669-22.252-39.632-51.921-51.921 29.669-12.289 39.632-22.252 51.921-51.921 12.29 29.669 22.252 39.632 51.921 51.921zM398.74 191.399h87.96c9.83 0 17.8 7.97 17.8 17.8v22.41c0 1.97-1.59 3.56-3.56 3.56H11.06c-1.97 0-3.56-1.59-3.56-3.56v-22.41c0-9.83 7.97-17.8 17.8-17.8h338.44" style="stroke-width:15;stroke-linecap:round;stroke-linejoin:round;stroke-miterlimit:10;" fill="none" stroke="#ffffff" stroke-width="15" stroke-linecap="round" stroke-linejoin="round" stroke-miterlimit="10" data-original="#000000" opacity="1"></path></g></svg>