<svg xmlns="http://www.w3.org/2000/svg" version="1.1" xmlns:xlink="http://www.w3.org/1999/xlink" width="512" height="512" x="0" y="0" viewBox="0 0 512 512" style="enable-background:new 0 0 512 512" xml:space="preserve" class=""><g><path d="M499.677 412.716c-.389-1-9.849-25.112-37.913-68.766-25.842-40.2-149.249-104.945-175.85-118.584l18.9-22.1a3.5 3.5 0 0 0-5.32-4.551l-18.606 21.752a89.694 89.694 0 0 0-8.19-16.191c6.686-1.223 14.214-7.918 16.958-11.981 1.99-2.951 5.641-10.356 8.305-17.643 4.015-10.985 4.158-16.732.477-19.217s-8.956-.2-17.642 7.634c-5.761 5.2-11.262 11.354-13.252 14.3a34.912 34.912 0 0 0-5.092 16.679 13.179 13.179 0 0 0-12.91 0 34.919 34.919 0 0 0-5.091-16.679c-1.991-2.95-7.492-9.106-13.253-14.3-8.685-7.835-13.961-10.118-17.642-7.634s-3.539 8.232.477 19.217c2.664 7.287 6.315 14.692 8.305 17.643 2.744 4.064 10.272 10.76 16.958 11.981a89.694 89.694 0 0 0-8.19 16.191L212.5 198.715a3.5 3.5 0 0 0-5.32 4.551l18.9 22.1c-26.6 13.639-150.008 78.386-175.85 118.584-28.058 43.65-37.518 67.761-37.907 68.766a3.5 3.5 0 0 0 2.415 4.66 261.489 261.489 0 0 0 57.162 6.778c15.329 0 31.608-1.719 45.906-6.882a158.632 158.632 0 0 0 34.526-17.517c6.279 3.558 22.474 12.256 30.683 12.255.222 0 .442-.006.653-.019 6.787-.425 34.289-11.239 52.74-22.036 7.706 36.868 14.211 42.014 19.59 42.014s11.883-5.146 19.591-42.014c18.45 10.8 45.952 21.611 52.739 22.036q.318.02.654.019c8.208 0 24.4-8.7 30.682-12.255a158.573 158.573 0 0 0 34.527 17.517c14.3 5.164 30.574 6.882 45.906 6.882a261.519 261.519 0 0 0 57.163-6.778 3.5 3.5 0 0 0 2.415-4.66zm-43.8-64.981c18.038 28.059 28.373 48.159 33.4 58.795l-32.627-16.187a28.137 28.137 0 0 0-37.61-36.956l11.589-31.351c11.338 9.214 20.293 17.994 25.246 25.699zM331.068 404.8l-4.216-13.653 23.4 5.745c-6.8 3.519-14.54 7.018-19.184 7.908zm-56.027-23.371a75.054 75.054 0 0 1-6.5-4.6l50.384 12.37L323.4 403.7c-10.793-3.365-33.435-12.735-48.359-22.276zm-38.081 0c-14.034 8.972-34.881 17.786-46.3 21.607l4.2-14.274 48.6-11.931a75.017 75.017 0 0 1-6.5 4.593zm-75.211 15.463 25.248-6.2L182.785 405c-4.146-.05-13.212-4.061-21.036-8.113zM67.552 367.3a3.94 3.94 0 1 1-3.94 3.939 3.944 3.944 0 0 1 3.94-3.939zm-7.638 11.757a10.931 10.931 0 1 0 10.448-18.378 21.134 21.134 0 1 1-10.448 18.378zm226.638-94.7 29.966 97.04-54.318-13.338c-.564-11.877 13.179-53.551 24.352-83.703zm65.93 105.871-28.039-6.885-25.614-82.95zm-22.227-106.342 2.925 46.922-40.58-86.328zm7.5 7.851 63.471 66.416-60.089-12.16zm6.023-3.829 52.7 10.172 9.56 54.977zm60.595 14.712c7.258 4.978 14.158 9.955 20.48 14.843l-12.173 32.93zm-68.948-23.453L297.236 239.2c20.427 10.84 53.945 29.216 85.292 49.055zm-8.882 53.981-4.843-8.107-31.524-52.784c-2.685-12.025-4.379-21.191-5.445-28.051zm-76.741 34.911-52.656 12.928 28.378-96.417c11.162 30.13 24.839 71.639 24.281 83.489zM175.326 290.6l-4.419 55.38-60.136 12.17zm-69.367 62.454 9.566-55.016 53.754-11.238zm77.03-70.473 36.414-38.1-40.2 85.506zm30.976 16.48-24.681 83.854-29.767 7.309zm7.856-26.807-36.367 60.892 41.812-88.943c-1.066 6.863-2.76 16.029-5.445 28.054zm-44 5.6-47.67 9.97c31.151-19.675 64.334-37.866 84.614-48.628zm-79.083 75.87-18.074-31.116c7.959-6.513 17.136-13.251 26.96-19.988zm69.32-.022-17.341 36.886-40.79-25.122zm175.884 0 58.131 11.764-40.79 25.122zm87 4.037a21.025 21.025 0 0 1 10.089 2.565 10.936 10.936 0 1 0 10.612 14.245 21.151 21.151 0 1 1-20.7-16.81zm14.217 13.5a3.94 3.94 0 1 1-3.939-3.939 3.944 3.944 0 0 1 3.939 3.934zM273.35 181.288c3.664-5.432 15.914-17.384 20.785-19.472-.114 5.3-6.614 21.132-10.279 26.562-3.641 5.394-12.085 10.123-13.731 9.018s-.416-10.715 3.225-16.108zm-45.207 7.09c-3.665-5.43-10.165-21.263-10.278-26.562 4.871 2.088 17.121 14.041 20.786 19.472 3.64 5.393 4.872 14.995 3.224 16.107s-10.09-3.622-13.732-9.017zM256 199.362c6.1 0 13.723 10.628 19.945 27.784.016 3.976.735 16.674 7.291 46.145C278.147 286.6 259.851 335.5 256 360.123c-3.851-24.621-22.148-73.52-27.236-86.832 6.556-29.471 7.275-42.169 7.291-46.145 6.222-17.156 13.845-27.784 19.945-27.784zM56.125 347.735c4.022-6.256 10.675-13.219 19.1-20.549L89.7 352.1a28.134 28.134 0 0 0-34.349 38.24l-32.626 16.191c5.027-10.637 15.361-30.737 33.4-58.796zm59.306 62.953c-30.056 10.853-70.8 5.346-89.224 1.93L59 396.348a28.134 28.134 0 0 0 49.548-23.511l37.184 22.9a151.653 151.653 0 0 1-30.301 14.951zM256 424.956c-.641-.249-6.052-3.377-13.26-38.95 7.378-4.956 11.735-9.349 13.26-13.369 1.525 4.021 5.882 8.413 13.261 13.369-7.209 35.574-12.62 38.701-13.261 38.95zm140.57-14.268a151.562 151.562 0 0 1-30.3-14.95l37.185-22.9A28.135 28.135 0 0 0 453 396.348l32.79 16.27c-18.422 3.416-59.164 8.924-89.22-1.93z" fill="#ffffff" opacity="1" data-original="#000000" class=""></path><path d="M256 158.979a51.54 51.54 0 0 0 28-94.806 3.5 3.5 0 0 0-4.389 5.4 36.283 36.283 0 0 1 10.471 25.765c0 19.7-15.291 35.736-34.086 35.736s-34.086-16.032-34.086-35.736a36.283 36.283 0 0 1 10.471-25.765 3.5 3.5 0 0 0-4.389-5.4 51.54 51.54 0 0 0 28 94.806zm-40.678-69.715a45.3 45.3 0 0 0-.408 6.077c0 23.565 18.431 42.736 41.086 42.736s41.086-19.171 41.086-42.736a45.3 45.3 0 0 0-.408-6.077 44.537 44.537 0 1 1-81.356 0zM256 259.429a18.192 18.192 0 1 0-18.192-18.191A18.212 18.212 0 0 0 256 259.429zm0-29.384a11.192 11.192 0 1 1-11.192 11.193A11.2 11.2 0 0 1 256 230.045zM256 266.84a14.226 14.226 0 1 0 14.226 14.225A14.242 14.242 0 0 0 256 266.84zm0 21.451a7.226 7.226 0 1 1 7.226-7.226 7.235 7.235 0 0 1-7.226 7.226z" fill="#ffffff" opacity="1" data-original="#000000" class=""></path><path d="M256 118.761a18.192 18.192 0 1 0-18.192-18.192A18.213 18.213 0 0 0 256 118.761zm0-29.384a11.192 11.192 0 1 1-11.192 11.192A11.2 11.2 0 0 1 256 89.377zM256 76.014a11.429 11.429 0 1 0-11.429-11.428A11.442 11.442 0 0 0 256 76.014zm0-15.858a4.429 4.429 0 1 1-4.429 4.43 4.434 4.434 0 0 1 4.429-4.43zM256 439.291a9.777 9.777 0 1 0 9.776 9.776 9.786 9.786 0 0 0-9.776-9.776zm0 12.553a2.777 2.777 0 1 1 2.776-2.777 2.78 2.78 0 0 1-2.776 2.777zM256 250.61a3.5 3.5 0 0 0 3.5-3.5v-11.745a3.5 3.5 0 0 0-7 0v11.745a3.5 3.5 0 0 0 3.5 3.5zM82.589 131.164l26.634 7.171 7.17 26.633a3.5 3.5 0 0 0 6.76 0l7.17-26.633 26.634-7.171a3.5 3.5 0 0 0 0-6.76l-26.634-7.17-7.17-26.634a3.5 3.5 0 0 0-6.76 0l-7.17 26.635-26.634 7.165a3.5 3.5 0 0 0 0 6.76zm30.4-7.695a3.5 3.5 0 0 0 2.47-2.469l4.315-16.028L124.088 121a3.5 3.5 0 0 0 2.47 2.469l16.027 4.315-16.027 4.316a3.5 3.5 0 0 0-2.47 2.47l-4.315 16.03-4.315-16.027a3.5 3.5 0 0 0-2.47-2.47l-16.027-4.315zM51.712 192.54l19.2 5.17 5.17 19.2a3.5 3.5 0 0 0 6.76 0l5.17-19.2 19.2-5.17a3.5 3.5 0 0 0 0-6.76l-19.2-5.17-5.17-19.205a3.5 3.5 0 0 0-6.76 0l-5.17 19.205-19.2 5.17a3.5 3.5 0 0 0 0 6.76zm22.971-5.695a3.5 3.5 0 0 0 2.469-2.469l2.315-8.6 2.314 8.6a3.5 3.5 0 0 0 2.47 2.469l8.6 2.315-8.6 2.314a3.5 3.5 0 0 0-2.47 2.47l-2.314 8.6-2.315-8.6a3.5 3.5 0 0 0-2.469-2.47l-8.6-2.314zM377.315 238.745l30.024 8.084 8.083 30.022a3.5 3.5 0 0 0 6.76 0l8.083-30.022 30.023-8.084a3.5 3.5 0 0 0 0-6.76l-30.023-8.085-8.083-30.024a3.5 3.5 0 0 0-6.76 0l-8.083 30.024-30.024 8.083a3.5 3.5 0 0 0 0 6.76zm33.789-8.608a3.5 3.5 0 0 0 2.47-2.469l5.228-19.417 5.227 19.417a3.5 3.5 0 0 0 2.47 2.469l19.417 5.228-19.416 5.228a3.5 3.5 0 0 0-2.47 2.47l-5.23 19.416-5.228-19.416a3.5 3.5 0 0 0-2.47-2.47l-19.417-5.228z" fill="#ffffff" opacity="1" data-original="#000000" class=""></path></g></svg>