<svg xmlns="http://www.w3.org/2000/svg" version="1.1" xmlns:xlink="http://www.w3.org/1999/xlink" width="512" height="512" x="0" y="0" viewBox="0 0 512 512" style="enable-background:new 0 0 512 512" xml:space="preserve" class=""><g><path d="M439.406 423.379a3.57 3.57 0 0 0 .206-.141 3.581 3.581 0 0 0 .308-.254c.057-.052.113-.1.166-.16a3.371 3.371 0 0 0 .27-.327c.041-.056.085-.108.123-.166a3.413 3.413 0 0 0 .266-.49c.012-.026.027-.051.038-.077a3.494 3.494 0 0 0 .181-.584c.014-.065.021-.133.031-.2a3.278 3.278 0 0 0 .046-.455c0-.036.011-.069.011-.105V295.132h7.717a3.5 3.5 0 0 0 3.5-3.5v-61.726a3.5 3.5 0 0 0-3.5-3.5h-7.717V95.29a3.5 3.5 0 0 0-3.5-3.5h-33.695l1.324-4.916 32.377-8.717a3.5 3.5 0 0 0 0-6.76l-32.377-8.717-8.717-32.38a3.5 3.5 0 0 0-6.76 0l-8.717 32.38-32.377 8.72a3.5 3.5 0 0 0 0 6.76l32.377 8.717 1.324 4.916h-32.5l-1-3.714a3.5 3.5 0 0 0-6.759 0l-1 3.714H171.467a3.467 3.467 0 0 0-1.721.469l-.008-.013-46.886 26.621a3.5 3.5 0 0 0-1.772 3.044v187.105l-8.595-2.314-9.812-36.448a3.5 3.5 0 0 0-6.76 0L86.1 306.705l-36.449 9.813a3.5 3.5 0 0 0 0 6.76L86.1 333.09l9.812 36.449a3.5 3.5 0 0 0 6.76 0l9.812-36.449 8.595-2.314v116.269h.012a3.448 3.448 0 0 0 3.488 3.5h266.087a3.5 3.5 0 0 0 1.728-.456l46.886-26.624c.045-.025.083-.059.126-.086zm-5.354-6.458h-36.823V405.1h20.915a3.5 3.5 0 0 0 3.5-3.5v-20.913h12.408zm11.217-128.789h-28.012v-54.726h28.012zM434.052 98.79v36.234h-12.408v-20.915a3.5 3.5 0 0 0-3.5-3.5H398.79l3.182-11.819zm-71.07-24.013 21.771-5.862a3.5 3.5 0 0 0 2.47-2.469l5.861-21.771 5.861 21.771a3.5 3.5 0 0 0 2.47 2.469l21.771 5.862-21.771 5.861a3.5 3.5 0 0 0-2.47 2.47l-5.861 21.77-5.861-21.77a3.5 3.5 0 0 0-2.47-2.47zm-17.546 27.671 3.458 12.848a3.5 3.5 0 0 0 2.47 2.47l12.849 3.459-12.849 3.459a3.5 3.5 0 0 0-2.47 2.47L345.436 140l-3.459-12.848a3.5 3.5 0 0 0-2.47-2.47l-12.849-3.459 12.849-3.459a3.5 3.5 0 0 0 2.47-2.47zm-9.695 9.083-23.455 6.314a3.5 3.5 0 0 0 0 6.76l23.455 6.314 6.315 23.455a3.5 3.5 0 0 0 6.759 0l6.315-23.455 23.455-6.314a3.5 3.5 0 0 0 0-6.76l-23.455-6.314-3.43-12.741h32.5l5.509 20.46a3.5 3.5 0 0 0 6.76 0l.442-1.641h17.738v20.915a3.5 3.5 0 0 0 3.5 3.5h15.908v84.382h-16.8v-7.491a3.5 3.5 0 0 0-3.5-3.5h-20.673a3.5 3.5 0 0 0-3.5 3.5v7.491h-44.148a3.5 3.5 0 0 0-2.9 5.463l19.574 28.9-19.574 28.9a3.5 3.5 0 0 0 2.9 5.463h44.148v7.492a3.5 3.5 0 0 0 3.5 3.5h20.673a3.5 3.5 0 0 0 3.5-3.5v-7.492h16.8v78.555h-15.913a3.5 3.5 0 0 0-3.5 3.5V398.1h-20.915a3.5 3.5 0 0 0-3.5 3.5v15.32H220.151V401.6a3.5 3.5 0 0 0-3.5-3.5h-20.914v-20.913a3.5 3.5 0 0 0-3.5-3.5h-17.27V142.024h17.27a3.5 3.5 0 0 0 3.5-3.5v-20.915h20.914a3.5 3.5 0 0 0 3.5-3.5V98.79h119.02zm74.516 110.884v76.709h-13.673v-76.709zm-20.673 65.717h-37.551l17.2-25.4a3.5 3.5 0 0 0 0-3.926l-17.2-25.4h37.551zm-261.5 152.9v-14.664l39.887-23.216v15.231zm0-34.542 39.887-23.216v11.778l-39.891 23.216zm0-261.892 39.887-20.521v12.311l-39.887 20.52zm46.887 236.089h13.77V401.6a3.5 3.5 0 0 0 3.5 3.5h20.914v11.819h-38.188zm38.184-281.9v11.819h-20.918a3.5 3.5 0 0 0-3.5 3.5v20.915h-13.77V98.79zm-45.188 2.513v14.9l-39.887 20.52v-12.769zM108.72 326.855a3.5 3.5 0 0 0-2.47 2.47l-6.957 25.84-6.957-25.84a3.5 3.5 0 0 0-2.47-2.47L64.024 319.9l25.842-6.958a3.5 3.5 0 0 0 2.47-2.47l6.957-25.841 6.957 25.841a3.5 3.5 0 0 0 2.47 2.47l25.841 6.958zm40.214-3.577a3.5 3.5 0 0 0 0-6.76L128.08 310.9V164.781l39.887-20.52v230.913L128.08 398.39v-69.5zm240.807 120.267H137.832l11.115-6.311h251.909zm21.415-12.16v-1.151H161.275l11.117-6.313H424.3z" fill="#ffffff" opacity="1" data-original="#000000" class=""></path><path d="M203.359 238.488a57.978 57.978 0 0 0-3.119 18.763c0 .908.028 1.808.069 2.706a101.859 101.859 0 0 0-.069 3.546 101.639 101.639 0 0 0 186.96 55.224 3.5 3.5 0 0 0-5.4-4.389 79.011 79.011 0 0 1-110.6-.252 58.446 58.446 0 0 0 39.058-30.2 26.808 26.808 0 1 0 0-53.277 58.6 58.6 0 0 0-28.284-26.647 78.608 78.608 0 0 1 44.626-13.743 77.754 77.754 0 0 1 55.2 22.449 3.5 3.5 0 0 0 5.4-4.388 101.646 101.646 0 0 0-183.845 30.208zM258.49 206a51.358 51.358 0 0 1 8.941.8 78.452 78.452 0 0 0-24.492 56.7 77.59 77.59 0 0 0 14.39 44.969 51.306 51.306 0 0 1-50.016-48.508 94.294 94.294 0 0 1 2.778-19.538A51.329 51.329 0 0 1 258.49 206zm68.11 137.788a86.2 86.2 0 0 0 36.236-7.864 94.679 94.679 0 0 1-151.323-44.292A58.2 58.2 0 0 0 258.49 315.5c1.443 0 2.868-.07 4.285-.174a84.943 84.943 0 0 0 63.825 28.462zm-16.856-86.537a50.972 50.972 0 0 1-3.475 18.516 19.774 19.774 0 0 1 0-37.031 50.966 50.966 0 0 1 3.47 18.515zm23.309 0a19.831 19.831 0 0 1-19.781 19.807 58.23 58.23 0 0 0 0-39.613 19.83 19.83 0 0 1 19.776 19.806zm-29.774-24.879a26.8 26.8 0 0 0 0 49.759 51.359 51.359 0 0 1-37.545 25.85 70.855 70.855 0 0 1-15.79-44.478c0-21.664 9.892-41.155 25.575-54.583a51.518 51.518 0 0 1 27.755 23.452zm-1.4-63.5a94.309 94.309 0 0 1 60.958 22.214 86.657 86.657 0 0 0-88.815 10.036 58.054 58.054 0 0 0-50.792 9.812 94.617 94.617 0 0 1 78.644-42.065zM50.562 298.3a3.5 3.5 0 0 0 3.38-2.59l6.7-24.866 24.858-6.695a3.5 3.5 0 0 0 0-6.76L60.637 250.7l-6.695-24.866a3.5 3.5 0 0 0-6.759 0L40.488 250.7l-24.866 6.694a3.5 3.5 0 0 0 0 6.76l24.866 6.694 6.7 24.866a3.5 3.5 0 0 0 3.374 2.586zm-6.308-33.691L30 260.769l14.259-3.839a3.5 3.5 0 0 0 2.47-2.47l3.833-14.26 3.838 14.26a3.5 3.5 0 0 0 2.47 2.47l14.259 3.839-14.259 3.839a3.5 3.5 0 0 0-2.47 2.47l-3.839 14.258-3.838-14.258a3.5 3.5 0 0 0-2.469-2.47zM496.378 443.665l-24.639-6.632-6.633-24.639a3.5 3.5 0 0 0-6.759 0l-6.634 24.639-24.639 6.632a3.5 3.5 0 0 0 0 6.76l24.639 6.634 6.634 24.639a3.5 3.5 0 0 0 6.759 0l6.633-24.639 24.639-6.634a3.5 3.5 0 0 0 0-6.76zm-28.4 7.159a3.5 3.5 0 0 0-2.47 2.469l-3.777 14.033-3.779-14.033a3.5 3.5 0 0 0-2.47-2.469l-14.032-3.779 14.032-3.777a3.5 3.5 0 0 0 2.47-2.47l3.779-14.032L465.5 440.8a3.5 3.5 0 0 0 2.47 2.47l14.032 3.777z" fill="#ffffff" opacity="1" data-original="#000000" class=""></path></g></svg>