<svg xmlns="http://www.w3.org/2000/svg" version="1.1" xmlns:xlink="http://www.w3.org/1999/xlink" width="512" height="512" x="0" y="0" viewBox="0 0 512 512" style="enable-background:new 0 0 512 512" xml:space="preserve" class=""><g><path d="M34.133 221.867C15.309 221.867 0 237.175 0 256s15.309 34.133 34.133 34.133c18.825 0 34.133-15.309 34.133-34.133s-15.308-34.133-34.133-34.133zM477.867 221.867c-18.825 0-34.133 15.309-34.133 34.133s15.309 34.133 34.133 34.133S512 274.825 512 256s-15.309-34.133-34.133-34.133zM256 216.379c-8.371 17.237-22.391 31.249-39.62 39.62 17.229 8.38 31.249 22.391 39.62 39.62 8.371-17.229 22.391-31.241 39.62-39.62-17.229-8.371-31.249-22.383-39.62-39.62z" fill="#ffffff" opacity="1" data-original="#000000" class=""></path><path d="M256 85.333c-94.106 0-170.667 76.561-170.667 170.667S161.894 426.667 256 426.667 426.667 350.106 426.667 256 350.106 85.333 256 85.333zm76.8 179.2c-37.641 0-68.267 30.626-68.267 68.267 0 4.71-3.823 8.533-8.533 8.533s-8.533-3.823-8.533-8.533c0-37.641-30.626-68.267-68.267-68.267a8.536 8.536 0 0 1-8.533-8.533 8.536 8.536 0 0 1 8.533-8.533c37.641 0 68.267-30.626 68.267-68.267 0-4.71 3.823-8.533 8.533-8.533s8.533 3.823 8.533 8.533c0 37.641 30.626 68.267 68.267 68.267a8.536 8.536 0 0 1 8.533 8.533 8.536 8.536 0 0 1-8.533 8.533z" fill="#ffffff" opacity="1" data-original="#000000" class=""></path></g></svg>