<svg xmlns="http://www.w3.org/2000/svg" version="1.1" xmlns:xlink="http://www.w3.org/1999/xlink" width="512" height="512" x="0" y="0" viewBox="0 0 512 512" style="enable-background:new 0 0 512 512" xml:space="preserve"><g><path d="M286.329 474.33h-62.9a79.461 79.461 0 0 1-68.629-39.62l-9.118-15.793a156.616 156.616 0 0 1-20.951-81.4 3.5 3.5 0 0 1 3.5-3.43h.071a3.5 3.5 0 0 1 3.429 3.568 149.617 149.617 0 0 0 20.015 77.757l9.118 15.793a72.443 72.443 0 0 0 62.562 36.12h62.905a72.443 72.443 0 0 0 62.562-36.12l9.117-15.792a150.031 150.031 0 0 0 0-149.611l-29.99-51.946a34.906 34.906 0 0 1-33.334-34.83v-47.714a3.5 3.5 0 1 1 7 0v47.719a27.894 27.894 0 0 0 27.863 27.863h.511a3.5 3.5 0 0 1 3.031 1.75l30.981 53.663a157.048 157.048 0 0 1 0 156.611l-9.117 15.792a79.461 79.461 0 0 1-68.626 39.62z" fill="#ffffff" opacity="1" data-original="#000000"></path><path d="M128.524 334.205c-.077 0-.153 0-.23-.007a3.5 3.5 0 0 1-3.267-3.72 157.429 157.429 0 0 1 20.655-68.17l30.982-53.664a3.5 3.5 0 0 1 3.031-1.75 27.894 27.894 0 0 0 27.864-27.863v-47.719a3.5 3.5 0 0 1 7 0v47.719a34.91 34.91 0 0 1-32.808 34.8l-30.007 51.973a150.364 150.364 0 0 0-19.73 65.124 3.5 3.5 0 0 1-3.49 3.277zM279.839 448.428h-49.925a63.79 63.79 0 0 1-55.089-31.806l-7.236-12.533a124.505 124.505 0 0 1-15.314-43.613 3.5 3.5 0 1 1 6.92-1.057 117.524 117.524 0 0 0 14.456 41.17l7.237 12.533a56.767 56.767 0 0 0 49.026 28.306h49.925a56.764 56.764 0 0 0 49.025-28.306l7.237-12.533a118.345 118.345 0 0 0 0-118.016l-23.919-41.43c-2.74-1.645-29.719-18.444-27.6-40.283a3.5 3.5 0 0 1 6.967.676c-1.6 16.424 19.627 30.694 23.7 33.27a3.5 3.5 0 0 1 2.329 1.678l24.588 42.589a125.361 125.361 0 0 1 0 125.016l-7.236 12.533a63.787 63.787 0 0 1-55.091 31.806z" fill="#ffffff" opacity="1" data-original="#000000"></path><path d="M254.876 141.95c-29.228 0-60.29-8.1-60.29-23.1V90.516c0-4.278 2.624-10.473 15.123-15.7a3.5 3.5 0 0 1 2.7 6.459c-6.776 2.832-10.822 6.286-10.822 9.239v28.335c0 6.722 20.273 16.1 53.29 16.1s53.291-9.377 53.291-16.1V90.516c0-2.953-4.046-6.407-10.822-9.239a3.5 3.5 0 1 1 2.7-6.459c12.5 5.225 15.123 11.42 15.123 15.7v28.335c-.002 15.001-31.069 23.097-60.293 23.097z" fill="#ffffff" opacity="1" data-original="#000000"></path><path d="M254.876 119.128c-34.371 0-60.29-11.115-60.29-25.856a3.5 3.5 0 1 1 7 0c0 8.918 21.886 18.856 53.29 18.856s53.291-9.938 53.291-18.856a3.5 3.5 0 1 1 7 0c0 14.741-25.92 25.856-60.291 25.856z" fill="#ffffff" opacity="1" data-original="#000000"></path><path d="M254.876 105.714c-23.514 0-47.317-6.577-47.317-19.149a3.5 3.5 0 0 1 .072-.707l6.927-33.6a3.5 3.5 0 1 1 6.855 1.414l-6.838 33.171c.569 4.939 16.147 11.87 40.3 11.87s39.732-6.931 40.3-11.87l-6.835-33.17a3.5 3.5 0 1 1 6.855-1.414l6.927 33.6a3.5 3.5 0 0 1 .072.707c0 12.571-23.803 19.148-47.318 19.148z" fill="#ffffff" opacity="1" data-original="#000000"></path><path d="M254.876 68.262c-19.453 0-40.391-4.786-40.391-15.3s20.938-15.3 40.391-15.3 40.392 4.786 40.392 15.3-20.938 15.3-40.392 15.3zm0-23.592c-21.69 0-33.391 5.889-33.391 8.3s11.7 8.3 33.391 8.3 33.392-5.889 33.392-8.3-11.702-8.3-33.392-8.3zM400.963 246.784a3.5 3.5 0 0 1-3.38-2.59l-9.866-36.644-36.645-9.866a3.5 3.5 0 0 1 0-6.759l36.645-9.866 9.866-36.644a3.5 3.5 0 0 1 3.38-2.59 3.5 3.5 0 0 1 3.38 2.59l9.865 36.644 36.644 9.866a3.5 3.5 0 0 1 0 6.759l-36.644 9.866-9.865 36.644a3.5 3.5 0 0 1-3.38 2.59zm-35.519-52.479 26.038 7.009a3.5 3.5 0 0 1 2.47 2.47l7.011 26.038 7.01-26.038a3.5 3.5 0 0 1 2.469-2.47l26.038-7.009-26.038-7.011a3.5 3.5 0 0 1-2.469-2.47l-7.01-26.037-7.011 26.037a3.5 3.5 0 0 1-2.47 2.47zM98.792 374.73a3.5 3.5 0 0 1-3.38-2.589l-7.268-27-27-7.268a3.5 3.5 0 0 1 0-6.76l27-7.267 7.268-27a3.5 3.5 0 0 1 3.38-2.589 3.5 3.5 0 0 1 3.38 2.589l7.267 27 27 7.267a3.5 3.5 0 0 1 0 6.76l-27 7.268-7.267 27a3.5 3.5 0 0 1-3.38 2.589zM75.519 334.5l16.39 4.413a3.5 3.5 0 0 1 2.47 2.47l4.413 16.389 4.412-16.389a3.5 3.5 0 0 1 2.47-2.47l16.389-4.413-16.389-4.412a3.5 3.5 0 0 1-2.47-2.47l-4.412-16.389-4.413 16.389a3.5 3.5 0 0 1-2.47 2.47zM372.9 145.478a3.5 3.5 0 0 1-3.38-2.589l-6.56-24.37-24.369-6.56a3.5 3.5 0 0 1 0-6.76l24.369-6.56 6.56-24.369a3.5 3.5 0 0 1 6.76 0l6.561 24.369 24.368 6.56a3.5 3.5 0 0 1 0 6.76l-24.368 6.56-6.561 24.37a3.5 3.5 0 0 1-3.38 2.589zm-19.937-36.9 13.762 3.705a3.5 3.5 0 0 1 2.47 2.47l3.7 13.763 3.7-13.763a3.5 3.5 0 0 1 2.47-2.47l13.762-3.705-13.762-3.7a3.5 3.5 0 0 1-2.47-2.47l-3.7-13.762L369.2 102.4a3.5 3.5 0 0 1-2.47 2.47zM218.811 434.621c-13.581 0-28.009-5.671-43.054-16.948a3.5 3.5 0 0 1 3.363-6.065c.236.091 24 9.075 36.1-.872 6.876-5.652 8.929-16.719 6.1-32.893a3.5 3.5 0 0 1 6.9-1.205c3.293 18.853.409 32.15-8.571 39.519-6.485 5.321-15.028 6.56-22.8 6.185 11.431 5.253 22.22 6.588 32.225 3.962 18.836-4.942 35.645-23.945 49.959-56.483 6.577-14.949 16.367-24.957 29.1-29.745 11.478-4.316 23.12-3.547 31.735-1.77-13.887-12.994-26.99-19.517-39.815-19.876-13.823-.375-26.223 6.3-38.194 12.771-4.518 2.441-9.191 4.967-13.837 7.044a3.5 3.5 0 1 1-2.858-6.391c4.407-1.969 8.76-4.322 13.367-6.811 25.142-13.589 53.64-28.988 96.061 18.359a3.5 3.5 0 0 1-4.088 5.507c-.2-.093-20.839-9.477-39.957-2.263-10.877 4.108-19.324 12.854-25.1 25.994-15.218 34.591-33.585 54.924-54.59 60.435a47.267 47.267 0 0 1-12.046 1.546zM186.143 257.434a3.5 3.5 0 0 1-3.029-5.251l9.064-15.7a3.5 3.5 0 0 1 1.606-1.447c1.294-.58 31.726-14.561 27.043-41.379a3.5 3.5 0 0 1 6.9-1.2c5.073 29.059-24 45.408-30.019 48.455l-8.528 14.773a3.5 3.5 0 0 1-3.037 1.749z" fill="#ffffff" opacity="1" data-original="#000000"></path><path d="M237.8 215.593a3.5 3.5 0 0 1-2.855-1.474l-26.736-37.645a3.5 3.5 0 0 1 1.98-5.415l27.762-7.161-27.211-12.839a3.5 3.5 0 0 1 2.988-6.331l34.825 16.435 48.757-12.573a3.5 3.5 0 0 1 1.748 6.777l-40.6 10.471 42.936 20.262a3.5 3.5 0 0 1-.287 6.45L239 215.378a3.5 3.5 0 0 1-1.2.215zm-20.94-39.027 22.24 31.319 51.75-19.021-43-20.291zM235.19 383.568a3.5 3.5 0 0 1-.917-.122L143.4 358.787a3.5 3.5 0 0 1-2.5-4.156l23.747-104.119a3.5 3.5 0 0 1 4.162-2.641l91.728 20.109a3.5 3.5 0 0 1 2.665 4.192L238.6 380.841a3.5 3.5 0 0 1-3.414 2.727zm-86.716-30.657 84.109 22.823L255.6 274.063l-84.9-18.611z" fill="#ffffff" opacity="1" data-original="#000000"></path><path d="M207.794 294.818a12.687 12.687 0 1 1 12.686-12.686 12.7 12.7 0 0 1-12.686 12.686zm0-18.373a5.687 5.687 0 1 0 5.686 5.687 5.693 5.693 0 0 0-5.686-5.687z" fill="#ffffff" opacity="1" data-original="#000000"></path><path d="M199.2 353.684a33.842 33.842 0 0 1-9.134-66.436 3.5 3.5 0 0 1 2.581 6.463 21.639 21.639 0 0 0-10.528 12.806c-3.492 11.2 2.33 23.012 12.98 26.334a19.623 19.623 0 0 0 15.447-1.652 22.042 22.042 0 0 0 8.823-29.153 3.5 3.5 0 0 1 5.8-3.85 33.857 33.857 0 0 1-25.969 55.488zm-24.895-43.964q-.423 1.039-.762 2.126a26.831 26.831 0 1 0 51.228 15.98q.336-1.077.579-2.166a28.438 28.438 0 0 1-11.422 11.666 26.545 26.545 0 0 1-20.915 2.207c-12.643-3.943-20.269-16.656-18.708-29.813zM207.793 285.632a3.5 3.5 0 0 1-3.49-3.247L198.561 203a3.5 3.5 0 0 1 6.983-.506l5.185 71.706 86.686-87.4a3.5 3.5 0 0 1 4.971 4.929L210.279 284.6a3.5 3.5 0 0 1-2.486 1.032zM316.472 435.966a3.481 3.481 0 0 1-1.953-.6c-.274-.186-27.211-18.986-5.853-54.563 12.912-21.506 42.763-13.3 44.026-12.939a3.5 3.5 0 1 1-1.915 6.733c-.43-.119-26-7.028-36.109 9.809-17.87 29.764 2.893 44.555 3.786 45.17a3.5 3.5 0 0 1-1.982 6.39z" fill="#ffffff" opacity="1" data-original="#000000"></path></g></svg>