<?xml version="1.0" encoding="UTF-8"?>
<svg xmlns="http://www.w3.org/2000/svg" viewBox="0 0 64 64" width="512" height="512"><g id="Outline"><path d="M59.49,2.4A3.065,3.065,0,0,0,55.4,3.5l-3.35,5.8a1,1,0,1,0,1.732,1l3.35-5.8A1.016,1.016,0,0,1,58.5,4.137,1,1,0,0,1,58.864,5.5L48.182,24H45.873l5.913-10.24a1,1,0,0,0-1.732-1L43.563,24H32.842a5.068,5.068,0,0,0-4.509-3.989,4.893,4.893,0,0,0-2.115.327A6.991,6.991,0,0,0,14.08,24H14a3,3,0,0,0-.645,5.926A22,22,0,0,0,11.441,33H6a1,1,0,0,0-1,1,4.946,4.946,0,0,0,4.388,4.94A21.95,21.95,0,0,0,9,43c0,.7.032,1.388.094,2.054a1,1,0,0,0,1,.906c.031,0,.062,0,.094,0a1,1,0,0,0,.9-1.09C11.029,44.263,11,43.635,11,43a19.912,19.912,0,0,1,4.823-13H19v4a3,3,0,0,0,6,0V32a1,1,0,0,1,2,0,1,1,0,0,0,2,0,3,3,0,0,0-6,0v2a1,1,0,0,1-2,0V25a1,1,0,0,0-1-1H16.1a5,5,0,0,1,9.011-1.84,1,1,0,0,0,1.342.285,2.917,2.917,0,0,1,1.742-.438A3.185,3.185,0,0,1,31,25.235V39a1,1,0,0,1-2,0V36a1,1,0,0,0-2,0v3a3,3,0,0,0,6,0V26H50a1,1,0,0,1,0,2H36a1,1,0,0,0,0,2H50a2.994,2.994,0,0,0,.465-5.953L60.6,6.5A3.006,3.006,0,0,0,59.49,2.4ZM7.882,36.128A3.065,3.065,0,0,1,7.172,35h3.36c-.256.651-.485,1.312-.677,1.986A3.006,3.006,0,0,1,7.882,36.128ZM19,26v2H14a1,1,0,0,1,0-2Z"/><path d="M58,32H51.449a1,1,0,0,0-.878,1.478A19.957,19.957,0,0,1,45.71,58.442,6.944,6.944,0,0,1,41.3,60H38.841c-.851-2.871-5.3-5-10.841-5a20.453,20.453,0,0,0-2.2.12,8.954,8.954,0,0,0-11.794-1.593A19.83,19.83,0,0,1,11.8,48.61a1,1,0,0,0-1.92.559,21.855,21.855,0,0,0,2.59,5.663,9,9,0,0,0-.971,1.2A4.964,4.964,0,0,0,6,61a1,1,0,0,0,1,1H21a1,1,0,0,0,0-2H8.171A3.006,3.006,0,0,1,11,58a2.957,2.957,0,0,1,.745.108,1,1,0,0,0,1.125-.485,6.989,6.989,0,0,1,11.707-.84,1,1,0,0,0,.931.388A18.729,18.729,0,0,1,28,57c4.376,0,7.658,1.436,8.672,3H25a1,1,0,0,0,0,2H41.3a8.949,8.949,0,0,0,5.686-2.014,21.947,21.947,0,0,0,7.432-22A4.994,4.994,0,0,0,59,33,1,1,0,0,0,58,32Zm-1.872,3.118A3.018,3.018,0,0,1,54,36h-.155c-.228-.678-.491-1.346-.784-2h3.768A3.042,3.042,0,0,1,56.128,35.118Z"/><path d="M23,14a3,3,0,1,0,3-3A3,3,0,0,0,23,14Zm3-1a1,1,0,1,1-1,1A1,1,0,0,1,26,13Z"/><path d="M17,15a3,3,0,1,0-3-3A3,3,0,0,0,17,15Zm0-4a1,1,0,1,1-1,1A1,1,0,0,1,17,11Z"/><circle cx="20" cy="3" r="1"/><circle cx="23" cy="7" r="1"/><path d="M36,14a1,1,0,0,0,1-1V11a9.01,9.01,0,0,0-9-9,1,1,0,0,0-1,1V5A9.01,9.01,0,0,0,36,14ZM29,4.071a7.011,7.011,0,0,1,5.93,5.991L32.781,7.375a1,1,0,0,0-1.562,1.25l2.345,2.931A7.006,7.006,0,0,1,29,5Z"/><path d="M35.464,15.465a5,5,0,1,0,7.072,0A4.966,4.966,0,0,0,35.464,15.465Zm2.829,5.655h0a1,1,0,0,1-1.415,0,1,1,0,1,1,1.415,0ZM42,19a2.979,2.979,0,0,1-.878,2.121,2.929,2.929,0,0,1-.826.56,2.985,2.985,0,0,0-4-3.964,2.994,2.994,0,0,1,4.824-.838A2.979,2.979,0,0,1,42,19Z"/><path d="M44,14a1,1,0,0,0,1-1V8a1,1,0,0,0-2,0v5A1,1,0,0,0,44,14Z"/><path d="M40,10a1,1,0,0,0,1-1V3a1,1,0,0,0-2,0V9A1,1,0,0,0,40,10Z"/><circle cx="44" cy="4" r="1"/><path d="M25,44c0-1.593-1.2-4-3-4s-3,2.407-3,4a3,3,0,0,0,6,0Zm-4,0c0-.82.68-1.956,1-2,.323.044,1,1.18,1,2a1,1,0,0,1-2,0Z"/></g></svg>
