<?xml version="1.0" encoding="utf-8"?>
<!-- Generator: Adobe Illustrator 28.2.0, SVG Export Plug-In . SVG Version: 6.00 Build 0)  -->
<svg version="1.1" id="Capa_1" xmlns="http://www.w3.org/2000/svg" xmlns:xlink="http://www.w3.org/1999/xlink" x="0px" y="0px"
	 viewBox="0 0 834.3 1024" style="enable-background:new 0 0 834.3 1024;" xml:space="preserve">
<style type="text/css">
	.st0{display:none;}
	.st1{display:inline;fill:#C9C9C9;}
	.st2{fill:#9B48DB;}
	.st3{fill:#9179A1;}
	.st4{fill:#816E96;}
	.st5{fill:#FFFFFF;}
	.st6{fill:#C9C9C9;}
	.st7{fill:#FFEF21;}
	.st8{fill:#9C03B7;}
	.st9{fill:#343135;}
</style>
<g id="fondo" class="st0">
	<rect x="-4" y="1" class="st1" width="1280" height="1023"/>
</g>
<g>
	<path class="st2" d="M163.5,305.9c-28.7-1.6-56.6-7.2-82.3-20.5C33.5,260.7,17.1,214,38.1,164.5c14.6-34.3,42.5-52.1,76.7-61.9
		c23.8-6.8,48.2-8.1,72.8-8.3c18.6-0.2,37.3,1.4,55.9-1c3.2-0.4,6.3-0.8,9.4-1.6c11.7-2.8,13.1-6.1,6.8-16.1
		c-3.8-6-2.8-11.1,2.3-15.6c7.8-7.1,17.5-9.9,27.6-11.7c21.2-3.9,42.5-2.1,63.8-0.6c31.1,2.1,62,6.5,92.7,11.5
		c17.9,2.9,35.9,2.2,54.7,0.5c-1.8,5.1-5.7,6.6-9,8.4c-19.9,11.1-41.8,15.7-64,18.9c-19,2.8-38,5-57,7.8c-9,1.3-17.7,3.9-25.7,8.5
		c-8.9,5.2-13.2,13.5-11.4,21.8c1.6,7.6,7.1,12,17.9,13.3c18,2.3,35.7-0.9,53-5.4c52.1-13.4,103.9-27.8,156.1-40.9
		c44.5-11.2,89.3-21.1,135.7-18.5c33.6,1.9,64.5,11,90.2,33.8c1.2,1,2.1,2.3,3.1,3.5c-0.2,1.8-0.2,3.7-2.7,3.8
		c-4.7-0.1-7.6-3.8-10.8-6.4c-23.8-19.4-51.8-26.3-81.6-27.7C656,78.9,618.4,86,581,94.5c-56.8,12.9-112.5,30.2-169.1,44.1
		c-16.5,4.1-33.2,7.4-50.3,7.7c-4.8,0.1-9.5-0.6-14.2-1.6c-10.6-2.4-18.2-8.3-20.1-19.1c-1.9-10.5,2.3-19.5,10.9-25.8
		c11.3-8.3,24.8-10.6,38.2-12.9c24.9-4.2,50.2-5.2,74.9-11.1c9-2.2,17.8-5,26.1-8c-18.7,1.3-37.2-2.6-55.9-5.4
		c-20.8-3-41.7-5.1-62.5-7.5c-18.1-2-36.2-1.2-54.2-1.3c-10.7-0.1-21.2,2.3-30.9,7c-8.7,4.2-9.3,6.4-5.7,15.6
		c3.8,9.7,0.6,17.3-9.5,20.9c-8.6,3.1-17.6,4.2-26.7,4.3c-19.7,0.2-39.4-0.4-59.1,0.2c-25.9,0.7-51.4,4-75.5,14.5
		C63.4,131,43,156.3,37.4,193c-6.9,45.4,20.1,75.8,55.2,90.2c26.7,10.9,54.4,16.2,83.2,16.3c13.6,0,27.2-0.6,40.7,0.4
		c3.4,1.2,7.3,1.5,9.7,4.8c-4.4,1.5-8.9,1.3-13.3,1.2c-9.7-1.8-19.4,0.7-29.1,0.3C177.1,305.9,170.3,303.8,163.5,305.9z"/>
	<path class="st2" d="M442.6,652.6c30.2-8.7,60.9-15.2,91.5-22.1c28.3-6.4,56.6-13,85.8-13.7c14.7-0.4,29.3-0.5,43.3,4.9
		c6.2,2.4,12.3,5.2,16.4,10.9c5.7,7.8,2.4,15.5-7.2,16.7c-1.6,0.2-3.2,0.1-4.8,0c-3.9-0.2-8.6-2.4-11.1,1.6c-2.9,4.6,1,8.6,3.1,12.4
		c3.7,6.5,8.8,12,13.8,17.5c11.2,12.3,10.3,23.2-3,33.1c-14.5,10.7-31.5,15.2-48.7,19c-38.8,8.5-78.1,9.4-117.6,7.4
		c-21.3-1.1-42.4-3-63.9-4.4c11.3,3.4,22.6,6.9,33.9,10.3c-20.9-0.2-39.5-8.4-60.3-15.9c5.3-3.6,8.6-1.9,11.7-1.5
		c54.2,7.4,108.5,12.1,163.2,5.8c20.9-2.4,41.6-6.1,61.4-13.8c8-3.1,15.7-6.7,21.8-13c6.9-7.1,7.2-14.5,0.8-22
		c-6.3-7.2-13-14.2-17.6-22.6c-2.4-4.4-5-9.3-2-14.3c3-5,8.2-4,13-3.7c2.1,0.1,4.3,0.4,6.4,0.1c6.2-0.8,8-5,4.4-10.2
		c-4.2-6-10.6-8.8-17.2-10.9c-18.8-5.8-38-4.5-57.1-2.5c-38.8,4-76.3,14.5-114.2,23c-14,3.2-28,6.4-42,9.6
		C445.2,653.7,443.3,654.4,442.6,652.6z"/>
	<path class="st2" d="M467.9,809.7c-19.1-1.8-37.6-7.1-56.4-10.5c-25.9-4.6-51.7-10.4-78.2-10.7c-5.6,0-11.2,0.4-16.5,2.2
		c-3.4,1.2-6.5,3.1-7.2,6.8c-0.8,4,2.1,6.3,5,8.3c8.3,5.7,17.9,8,27.6,9.9c23.9,4.7,48.1,5.6,72.3,4.1c15.2-0.9,30.3-1.2,45.3,2.3
		c5,1.1,9.8,2.6,14,5.4c9.7,6.4,9.6,15.4-0.3,21.5c-2.4,1.5-5.1,2.6-7.8,4c10.4,10.6,9.9,17.9-2.1,26.6
		c-14.6,10.5-31.5,12.9-48.9,14.1c-1-4.5,2.1-6.6,3.3-9.3c5.5-12.4,2.5-21.8-9.7-27.7c-11.9-5.8-24.8-6.5-37.5-4.7
		c-24,3.3-47.8,7.4-71.8,11.1c-3.1,0.5-6.3,0.4-9.5,0.6c-0.5-0.4-0.8-0.8-0.9-1.4c0.1-0.6,0.4-1.1,0.9-1.4c25-4,49.9-8.3,74.9-12
		c12.7-1.9,25.5-2,38,1.6c19.8,5.8,25.4,16.7,18.6,36.1c-0.2,0.7-0.2,1.4-0.4,3c15.7-2.1,31-4.2,43.2-15c7.6-6.9,7.4-10.8-0.2-17.3
		c-4.1-3.5-3.8-6,1-8.1c0.2-0.1,0.5-0.2,0.7-0.3c5.1-2.2,11.7-3.7,11.5-10.5c-0.3-7.3-7.3-9.4-13-11.3c-14.4-4.7-29.3-4.7-44.3-3.8
		c-29.1,1.7-58,1-86.5-5.9c-6.5-1.6-12.8-3.6-18.5-7.2c-4.6-2.8-9.4-5.9-8.8-12.2c0.7-6.8,6-9.6,11.9-11.3c13.2-3.6,26.5-2,39.7-0.4
		c34.9,4.2,69.2,12.4,103.7,19c4.7,0.9,9.4,1.8,14.1,2.7C473.6,812.6,470.4,809.6,467.9,809.7z"/>
	<path class="st2" d="M293.1,831.5c3.2,0.3,6.4-0.7,9.5,0.7c17,0.9,34.1,0.9,51.1,0c24.6,0,48.9-6.8,73.7-4c12.4,1.4,14,2.8,17,14.7
		c0.6,2.3,1.7,3.7,3.6,4.9c8.9,5.9,10.6,15.3,3.9,23.5c-4.9,6-11.3,9.2-19.6,9.8c0-5.2,3.9-7.9,5.3-11.7c3.1-8.2,1.2-11.3-7.2-10.9
		c-3,0.1-5.5-0.6-6.4-3.5c-3.3-10.1-11.6-11.5-20.3-12.2c-17.9-1.3-35.6,1.2-53.3,3.1c-27,2.9-53.8,7.7-81,2.1
		c-12.6-2.6-24.8-6.2-35.1-14.3c-12-9.4-15.4-22-12.6-36.4c1.9-9.8,8.8-15.5,17.8-18.9c1.7,2.2,0.2,3.2-1.4,4.4
		c-18.9,14.1-18,37.2,2,50.3c13.8,9,29.4,12,45.5,13.3c21.7,1.8,43-2,64.4-4.1c19.3-2,38.5-5.6,58-2.8c8.2,1.2,15.8,3.4,19,12.2
		c0.8,2.1,2.2,2.5,4.3,2.6c11.2,0.5,13.6,4.2,10.2,15.2c-0.5,1.5-0.9,2.9-1.8,5.9c6.6-2.4,10.8-5.6,11.8-11.4
		c1-5.7,0.9-11.2-6.2-13.6c-3.1-1.1-5-4.3-4.7-7.7c0.6-8.7-5.6-10-11.8-10.8c-12.5-1.5-25-0.3-37.5,0.8c-14.3,1.2-28.4,3.8-42.8,2.5
		c-14.5,1.1-28.9,1.1-43.4,0c-4,0.1-8.2,1-11.9-1.6C292.3,832.9,292.4,832.2,293.1,831.5z"/>
	<path class="st2" d="M213.1,390.7c9.4,3,18.8,5.7,28.1,9c5.8,2.1,9.8,6.2,10.3,13c0.4,6.8-3,11.2-8.6,14.1
		c-4.2,2.2-8.7,4.2-13.2,5.4c-9.8,2.5-19.7,4.7-29.6,6.5c-28.8,5.3-57.9,8.8-85.6,19c-9.8,3.6-19.2,8-26.6,15.6
		c-10.1,10.4-11.7,20.4-3.9,32.3c9.1,13.8,9.3,28,3.4,42.6c-3.5,8.6-7.3,17.1-11.5,25.4c-19,38.1-15.3,78,15.9,107.6
		c-0.2,1.2-0.9,1.9-2.1,2.1c-24-18.3-35.1-56.1-25.9-88.2c4-13.9,10.5-26.7,16.7-39.6c8.3-17.4,10.6-34-1.3-51.2
		c-7.5-10.8-3.6-24.8,7.5-35c8.4-7.7,18.5-12.4,29.1-16c24-8.3,49.1-11.9,73.9-16.3c12.8-2.3,25.7-4.3,38.2-8
		c1.8-0.5,3.6-0.9,5.3-1.7c6.7-3,15.1-4.7,14.4-14.6c-0.7-9.2-8.8-10.2-15.5-12.4c-7.5-2.5-15.7-3.3-22.3-8.2
		C210,389.5,211.3,389.6,213.1,390.7z"/>
	<path class="st2" d="M226.3,304.6c-3.3-0.8-7.1,0.7-10.1-1.9c2.1-3.7,5.8-4.5,9.6-4.8c52.4-3.8,103.6-14.8,154.7-26.3
		c44.1-9.9,87.7-22,132.1-30.6c33.9-6.6,68-11.9,102.6-14.1c18.6-1.1,37.2-0.9,55.8-1.1c3.7,0,8.3-0.5,9,5.2
		c-8.5,1.7-17.1-0.7-25.6,1.2c-86.8,0.2-170.1,21.7-253.7,41.8c-52.5,12.7-105.4,23.5-159.2,29.6
		C236.4,304.3,231.3,304.3,226.3,304.6z"/>
	<path class="st2" d="M281.8,430.7c8.1-16.1,5.1-24.5-11.5-32.1c-6-2.8-12.3-5.1-17.2-9.9c-6.2-6.1-6.9-12-2.3-19.3
		c6.4-10.2,16.3-15,27.6-17.2c30.6-6.1,61.5-4.4,92.3-2c5.1,0.4,10.6-0.4,15.4,2.6c-1.6,3.5-4.6,2.6-7.1,3
		c-23.8,4.2-47.7,8.3-71.5,12.5c-5.2,0.9-10.3,2.7-15,5.3c-7.3,4.2-7.8,7.9-1.7,13.5c0.4,0.4,0.8,0.7,1.2,1
		c20.3,13.3,19.3,26.6,8.9,47.4c-1,0.2-1.9,0.6-2.9,0c1.4-4,2.8-8,4.2-12c4.7-13.1,2.5-20.8-8.4-29.5c-4.9-3.9-12-6.8-10.7-14.5
		c1.4-8.4,9.4-10.4,16.1-12.5c19.4-6.1,39.6-7.9,59.5-11.5c1.3-0.2,2.6-0.5,3.8-0.7c-0.2-0.8-0.2-1.7-0.4-1.7
		c-27.9-1.5-55.9-3.1-83.6,2.5c-9.7,1.9-18.1,6.1-24.1,14.3c-4.9,6.7-4.2,12.1,2.3,17.3c5.7,4.6,12.6,6.9,19,10.1
		c15.5,7.7,18.6,22,7.7,35.4C282.5,432.4,281.9,431.7,281.8,430.7z"/>
	<path class="st2" d="M468.9,414.5c-2.9-5.5,2.4-2.7,3.2-2.7c15.5,0.8,30.9,0.3,46.2-2c20.6-3.2,40.7-8.1,59.7-16.9
		c5.6-2.6,10.7-5.9,15.2-10.2c5.2-4.9,8.1-10.8,6.6-17.9c-1.7-8.4,2.4-11.9,9.8-13.2c9.8-1.7,19.6-1.3,29.5-1.1
		c21.6,0.3,43.2,1.1,64.7-1.4c27-3.2,48.8-15.5,66.1-38.3c-13.7,3.9-26,8.3-39,9.5c-2.1-1.7-5.2,0.7-7.1-1.9
		c18-2.9,35.6-7.4,52.6-15c0.9,4.4-1.4,6.3-2.8,8.3c-19.5,27.3-46.7,40.1-79.7,42c-18.1,1-36.2,0.6-54.3,0.4
		c-7.5-0.1-14.9-0.2-22.4,0.2c-12.8,0.7-13.3,1.3-13.4,14.1c-0.1,9.2-5.4,15.3-12.2,20.4c-15.8,11.7-34.5,16.3-53.2,20.8
		c-11.3,2.8-22.8,5.2-34.6,5.1C492.2,414.2,480.5,414.3,468.9,414.5z"/>
	<path class="st2" d="M701.3,438.8c37.3-2.7,77,27.4,87.2,66.5c3,11.6,5.4,23.3,6.2,35.3c0.5,8.7,2.7,16.7,6.5,24.5
		c9,18.8,6,37.2-2.6,55.2c-0.2,0.5-0.6,0.9-1,1.2c-0.4,0.3-0.9,0.4-2.5,0.9c-5.2-38-33.5-51.4-66.2-59.9c22.9-5.1,55.8,19,68.7,49.7
		c6-13.5,8.1-27,2.2-39.6c-7-14.9-8.8-30.5-11-46.2c-7.3-51-34.4-77.7-85.8-84.7c-1.8-0.2-3.8,0.1-4.9-1.9
		C698.8,438.4,699.6,437.3,701.3,438.8z"/>
	<path class="st2" d="M598.3,768.8c4-3.9,7.9-2.5,11.3-2.5c34.2,0.4,68.2-0.5,101.1-11c17.7-5.7,32.5-15.6,44.5-29.8
		c12.4-14.7,14.7-30.9,6.4-48.3c-4-8.4-8.9-16.3-12.9-24.7c-3.7-7.7-1.7-11.7,6.3-14.8c0.7-0.3,1.5-0.7,2.3-0.8
		c16.6-2.2,15.6-13.7,7.6-25.2c-6.8-9.7-17.1-14.9-27.9-19.2c-2.4-1-6.1-0.6-6.3-4.7c17.8,1,38.2,16.6,42.4,32.4
		c2.7,10.3,0.6,15.7-9.5,18.4c-17.9,4.9-13.7,8.7-6.9,21c2,3.7,4.3,7.3,6.3,11.1c12.5,24,8.9,45-10.6,63.6
		c-11.3,10.8-24.3,18.9-39.2,23.9C685.9,767.6,626.4,773.4,598.3,768.8z"/>
	<path class="st2" d="M89.2,683.9c0.7-0.7,1.4-1.4,2.2-2.1c30,23.1,65.2,26,101,24.8c51.7-1.7,100-16.3,146.6-38.4
		c16.3-7.7,32.1-16.4,48.6-23.6c1.9-0.8,3.5-2.5,6.1-1.9c0.1,2.4-1.3,3.6-3.3,4.5c-38,17.9-75,38.4-115.9,49.4
		c-42.5,11.4-85.4,18.6-129.5,11.3C124.4,704.5,105.1,698.1,89.2,683.9z"/>
	<path class="st2" d="M640.3,604.6c23.5-1,46.3,1.7,65.4,16.5c16.1,12.5,13.5,28.5-5.2,36.2c-11,4.6-12.3,8.5-5.5,18.6
		c3.3,4.9,7.2,9.2,10.6,14c9.3,13,7.9,24.3-4.8,34c-13.5,10.3-29.7,14.3-45.7,18c-16.1,3.7-32.4,6.2-48.9,7.8
		c-2.1,0.2-4.2,0.7-6.2-1.8c2.8-2.2,6-1.9,8.9-2.2c22.3-2.5,44.3-6.2,65.7-13c8.2-2.6,16-5.9,23-10.9c11.8-8.4,13.3-18.2,4.6-30.1
		c-3.6-4.9-7.8-9.5-11-14.6c-7.3-11.5-5.2-17.6,7.2-22.8c16.5-6.8,18.5-19.4,4.5-30.9c-11.8-9.7-26.5-12-40.8-15.1
		C654.9,606.8,647.6,605.8,640.3,604.6z"/>
	<path class="st2" d="M555.1,811.1c41.8-3.3,82.8-10.2,123-22.2c2.7-0.8,5.3-1.7,7.9-3.3c-26.7,1.3-53.3,4.8-80.1,3.3
		c37.7-3.2,75.3-7.1,112.8-13.1c0,3.6-1.9,3.9-3.3,4.4c-47.2,17.3-95.8,28.8-146,32.8c-0.8,0.1-1.6-0.2-2.4-0.3
		C563.1,812.9,558.5,816,555.1,811.1z"/>
	<path class="st2" d="M289.7,860.9c0,0.5-0.1,1-0.1,1.6c-9.1,0.5-18.1,2.3-27.3,0.7c-2.5-0.4-5.2-0.7-7.7,0.6
		c-25.8-2.2-49.2-9.4-60.6-35.2c-12-27.2-6.3-52.8,11.9-75.3c19-23.4,45.9-32.3,74.3-38c1.5,1.6,4.2-0.5,5.4,1.9
		c-15,3.6-30,7.3-44,13.9c-24.9,11.7-42.7,29.5-48.5,57.3c-6.4,30.4,7.7,55.9,36.7,66.7c14.5,5.4,29.5,6.5,44.8,6.1
		C279.6,861,284.7,861,289.7,860.9z"/>
	<path class="st2" d="M442.6,652.6c1.2,0.6,2.5,1.2,3.8,1.8c-23.8,5.9-47.5,11.9-71.3,17.8c-0.3-1.1-0.6-2.1-1-3.2
		c53.6-22.3,107.7-43.2,163.5-59.4c-41,15.5-82.3,30.4-123,46.7c-0.6,0.7-1.2,1.6-2.3,1.8c1.9-0.1,3.8,0.8,5.6-0.3
		C426.1,656.1,434.4,654.4,442.6,652.6z"/>
	<path class="st2" d="M298,435.5c1-0.4,1.9-1.1,2.9,0c-3,6-0.7,9.5,5.2,11.4c1,0.3,2,0.7,3,1.1c3.2,1.4,6.7,2.8,6.7,7
		c0,4.5-3.6,6.2-7.1,7.6c-6.8,2.7-14,3.8-21.1,3.3c-8.4-0.5-15.4,2-22.3,6.8c-16.9,11.8-35.9,9.3-54.8,6.9
		c-6.1-0.8-12.1-2.1-18.1-2.7c-6.9-0.6-13,2-15.6,8.7c-2.5,6.6,2.3,11.1,7,14.7c7.2,5.5,15.6,9.2,21.9,15.8
		c4.7,4.9,9.1,10.1,8.4,18.7c-5.1-3.2-4.3-8.5-7.1-11.9c-5.7-6.9-12.9-11.8-20.4-16.5c-11.8-7.4-15.9-14.6-12.7-22.7
		c3.1-8,11.7-11.6,24.6-9.7c14.7,2.2,29.3,5.3,44.4,3.3c8.1-1.1,15.5-3.5,22-8.5c5.9-4.6,12.4-6.7,20-6.3c6.9,0.4,13.9-0.3,20.5-2.6
		c2.6-0.9,6.4-1.5,6.3-5.1c-0.1-3-3.5-3.6-5.9-4.6C295.8,446.3,294.4,443.5,298,435.5z"/>
	<path class="st2" d="M315.3,507.6c72.8-16.3,144.6-36.6,217.6-51.9c2.8-0.6,5.7-2,8.3,1.5c-22.9,5.2-45.6,10.2-68.2,15.6
		c-47.1,11.4-94.1,23-141.2,34.5c-3.6,0.9-7.3,1.3-11,1.9C318.8,509.3,316.2,511.4,315.3,507.6z"/>
	<path class="st2" d="M315.3,507.6c1.6,1.4,3.6,1.4,5.5,1.6c-7.9,2.6-16.1,3.4-24.4,3.2c-12.6-0.3-17.3-8.6-11.8-20.2
		c3.5-7.4,10.1-11.6,17-15c8.8-4.3,18-8,26.9-12.1c2.2-1,4.2-2.3,6.2-3.6c2.7-1.8,5.9-3.9,5.6-7.2c-0.3-3.8-4.5-3.8-7.4-4.8
		c-0.2-0.1-0.5-0.1-0.8-0.2c-5.6-1.9-13.3-1.6-14.3-9.3c-0.9-7.6,5.2-11.9,10.9-15.4c17.5-10.7,37.2-15.3,57.1-19.1
		c0.3-0.1,0.7,0.6,1.4,1.3c-2.2,2.8-5.6,2.6-8.5,3.3c-14,3.3-27.8,7-41,13.1c-5.1,2.4-9.9,5.3-13.6,9.6c-4.9,5.7-3.9,9.4,3.2,11.7
		c3.5,1.2,7.3,1.7,10.7,3c6.8,2.5,8,7.6,3.2,13c-4.6,5.1-10.9,7.5-16.9,10.3c-9.1,4.3-18.8,7.3-27.3,13.1c-3.1,2.1-6.1,4.4-8.1,7.6
		c-2.6,4.3-4,9.1-1.8,13.6c2.2,4.6,7.1,4.1,11.3,3.9C304.2,508.7,309.8,508.1,315.3,507.6z"/>
	<path class="st2" d="M603.1,326.9c20.8,1.2,41.7,2.8,62.5,3.6c14.7,0.6,29.5,0.1,45.7,0.1c-2.7,5.5-6.4,5.4-9.5,6
		c-28.2,5.6-56.7,4.5-85.2,3.9c-4.2-0.1-8.5-0.5-12.7-0.7c-2.5-0.1-5.6,2.4-7.1-1.7c8.3-2.6,16.9-1.1,25.3-0.9
		c20.7,0.4,41.3,0.4,62-2c-26.5-0.8-52.9-3.3-79.3-5.5C603.7,329.1,602.2,328.6,603.1,326.9z"/>
	<path class="st2" d="M788.5,114.3c0.4-1.1,0.8-2.2,1.2-3.2c40.2,36,29.6,89.2,7.9,118.8c-5.2,7.1-3.3,14-0.6,21.1
		c3.1,8.2,6.7,16.5,0,24.7c-1.1,0.8-2.4,1-3.6,0.3c0.5-13-4.6-25.2-5.7-37.9c-0.6-7.6,5.1-12.5,8.3-18.5
		c12.9-23.6,17.8-48.1,8.5-74.2c-2.9-8-6.9-15.5-12.5-22.1C789.9,120.7,787.1,118.3,788.5,114.3z"/>
	<path class="st2" d="M143.6,671.2c-5.4,0.9-6.9-3.4-7.9-6.7c-2.2-7.5-7.4-12-13.7-15.9c-6.1-3.7-12.2-7.6-18-11.8
		c-12.8-9.5-16.7-22.2-12.7-37.4c2.8-10.5,7.5-20.2,15.3-29.1c-5.4,29.5,4,50.3,34.2,60c-17.4,4.9-34.5-15.4-39.3-44.7
		c-13.4,16.9-10.3,38,7.3,50.4c3.9,2.8,8.1,5.2,12.2,7.7c8.2,5.1,16.5,10.2,18.6,20.7C140.2,667,143.9,667.5,143.6,671.2z"/>
	<path class="st2" d="M737.8,468.7c9.4-2,14.7,3,12.9,10.9c-1.1,5-4.2,9.2-6.8,13.4c-2.2,3.6-1.6,5.6,2.5,7.2
		c4.9,2,9.7,4.3,14.3,6.9c8.6,4.8,13.9,12.1,15.9,21.8c1.9,9.5,3.8,19.1,4.7,29.7c-13.9-13.8-30.1-22.7-48.4-28.3
		c8.3-1.6,15.3,1.9,22.2,5c7.3,3.2,13.6,8,20.2,13c0.9-21.7-7.2-34.9-25.8-42.8c-13.3-5.7-13.5-6.4-5.9-19.5
		C749.5,475.9,749.1,474.2,737.8,468.7z"/>
	<path class="st2" d="M723.8,318.3c2.4,0.6,5.1,0,7.1,1.9c-24.8,5.1-49.6,2.9-74.4-0.4c-16.3-2.1-32.7-4-49.2-3.9
		c-13.1,0.1-25.3,2.9-35.3,12.1c-2.5,2.3-5.5,4.2-9,4.9c-1.3-0.5-3,0.1-3.7-1.7c2.8-1.5,6.1-2.4,8.4-4.5
		c14.8-13.5,32.7-15.2,51.6-14.1c28.7,1.7,57,7.3,85.8,7.5C711.6,320.2,717.5,318.2,723.8,318.3z"/>
	<path class="st2" d="M281.8,430.7c0.6,0.6,1.2,1.3,1.7,1.9c-13.1,16-31.5,21-50.7,23.8c-17.6,2.5-35.6,1.8-53.1,6.2
		c-14.6,3.6-28.5,8.5-41.3,16.5c-1.8,0.6-2.3-0.4-2.2-1.9c21.3-15.2,45.9-19.9,71.2-22.2c14.5-1.3,29.1-1.6,43.2-6
		C262.5,445.3,273.2,439.8,281.8,430.7z"/>
	<path class="st2" d="M728.8,726.1c18.6-17.1,20.2-37.5,11.4-59.9c-1.6-3.9-3.5-7.8-5.5-11.5c-8.8-16.6-8.4-18.8,5.9-30.8
		c8.2-6.9,8.1-8.9-0.9-15.5c-0.8-0.6-1.4-1.3-2.3-2.2c4.8-1.4,7.4-0.2,10.9,4.4c2.8,3.7,3.1,7.5,0.1,10.9c-2.6,3-5.8,5.4-8.9,8
		c-8,6.8-8.7,10.2-3.5,19.2c7.2,12.6,12.8,25.7,13.1,40.5c0.3,15.9-5.4,29-18.1,38.9C729.9,728,729.2,727.3,728.8,726.1z"/>
	<path class="st2" d="M261.1,489.6c-9.6,2.5-17.1,5.1-24.2,8.7c-3.2,1.6-7.3,3.3-7,7.7c0.3,4.1,4.1,5.9,7.5,7.5
		c10.4,4.9,12.4,8.3,10.5,18.3c-0.1,0.7-0.9,1.2-1.4,1.8c-2.9-1.6-1.6-4.2-1.5-6.2c0.1-5-2.3-8-6.6-9.8c-2.2-0.9-4.5-1.7-6.5-3
		c-7.9-5.2-8.2-11.9-0.4-17.1c12.3-8.1,26.7-10.5,40.1-15.3c0.4,0.6,0.7,1.3,1.1,1.9c-5,4.9-10.1,9.8-14.9,14.9
		c-3.2,3.4-3.8,6.3,2.1,7.6c5.9,1.4,9,5.3,8.9,11.5c-0.1,4.7,3.2,8.1,4,12.6c-5.2-1.8-7-6-7.4-11c-0.3-4.9-1.9-8.4-7.2-10.1
		c-7.9-2.7-8.5-5.5-3.8-12.1C256.3,495.2,258.3,493.1,261.1,489.6z"/>
	<path class="st2" d="M272.2,336.1c-3.4,0.4-6.9,1.2-10.4,0.3c-2.5,0-5.7,3-7.3-1.6c38.6-5.6,77.3-0.8,116-1.3
		c9.6-0.1,19.1,0.1,28.7,0.3c2.4,0.1,5.4-1.1,7.5,3.8c-27.3-0.2-53.9-0.1-80.4-1.5C308.4,335.2,290.3,335.2,272.2,336.1z"/>
	<path class="st2" d="M728.8,726.1c0.8,0.7,1.5,1.4,2.3,2.1c-11.9,11-26.7,16.3-41.9,20.4c-26.1,7.1-52.9,9.2-79.9,9.7
		c-2.1,0-4.8,1.3-6.3-2.2c2.4-2.3,5.5-1.3,8.1-1.5c31.7-1.4,63.3-3.6,93.4-15C713.3,736.3,721.2,731.5,728.8,726.1z"/>
	<path class="st2" d="M285.6,717.2c-1.9-0.3-3.9-0.3-5.4-1.9c20.6-4.8,41.2-4,61.8-0.2c24.8,4.6,47.9,13.7,71.2,24.5
		c-6.3,0.8-7.1,0.7-12.8-1.8c-25.1-10.5-50.6-19.6-78.1-21.7C309.9,715.2,297.8,716.5,285.6,717.2z"/>
	<path class="st2" d="M701.3,438.8c-1.4-0.5-2.3,0.4-3.2,1.1c-10.1,1.4-20.1-0.2-30.2-0.1c-39.6,0.4-78.2,8.1-116.9,15.6
		c-3.9,0.8-3.9,0.8-9.5-1.6c37.4-7.3,73-15.2,109.7-16.6c12.2,1,24.5,1.3,36.7-0.1C692.4,437.1,697,436.3,701.3,438.8z"/>
	<path class="st2" d="M793.8,275.6c1.1,0,2.2,0.1,3.3,0.1c-7.8,11.8-20.1,17.1-32.6,21.5c-24.6,8.7-49.5,7.9-74.4,0.9
		c-1.6-0.5-4.5,0-3.7-3.3c7.2-1.6,14.5-0.8,21.7-0.5c1.9,2.7,4.6,3,7.7,2.9c25.5-0.4,50.3-3.1,71.4-19.5
		C789.1,276.2,791.2,275.3,793.8,275.6z"/>
	<path class="st2" d="M559.3,331.3c1.2,0.6,2.5,1.1,3.7,1.7c-13.4,5.5-27.6,5.4-41.6,6c-24.7,1.1-49.4,0.1-74.2-0.6
		c-1.2,0-2.4-0.5-4.3-1c2.5-3.4,5.6-2.2,8.1-2.2c26.6,0.4,53.2,1.4,79.7-0.1C540.5,334.5,550,333.3,559.3,331.3z"/>
	<path class="st2" d="M707.7,298.3c-7.4-3.1-15.1-0.6-22.7-1.5c10.8-2.1,22-0.6,32.8-3.8c11.2-3.3,21.5-7.8,28.6-18
		c8.9-12.6,6.7-23.7-6.5-31c-5.2-2.9-10.9-4.7-16.4-7c0.6-2.1,2-3.2,3.8-4c12.6-0.1,22.8,5.3,28.6,16.9c5.6,11.3,1.9,22.1-5.5,31.5
		c-10.2,12.9-23.7,18.1-39.2,18.6C709.8,300,708.5,299.5,707.7,298.3z"/>
	<path class="st2" d="M555.1,358.7c-14.7,3.9-29.5,2.1-44.4,0.5c-20.8-2.1-41.2-7.5-63.1-6.4c2.4-4.8,5.6-3.4,8.2-3.4
		c16-0.2,31.7,3.3,47.5,5.5c15.8,2.2,31.7,3.1,47.7,2.1C552.7,356.7,555,355.3,555.1,358.7z"/>
	<path class="st2" d="M555.1,811.1c3.7,2.8,8.1,1,12.1,1.7c-23.4,3.7-46.9,2.6-70.4,0.9c-9.7-0.7-19.5-1.1-28.9-4.1
		c2.5-0.2,5.1,0.2,7.3-1.6C501.7,811.2,528.4,811.9,555.1,811.1z"/>
	<path class="st2" d="M254.6,334.9c2.1,1.8,4.8,1.5,7.3,1.6c-9.6,2.9-19.8,3-29.4,6.3c-7.8,2.8-15.2,6-21.1,12
		c-10.9,11.3-10.2,25.8,1.7,35.8c-1.1,0.5-2.1,1-3.2,1.5c-14.2-10-12.8-31.8,2.9-43.2C225.2,339.8,239.6,336.4,254.6,334.9z"/>
	<path class="st2" d="M293.1,831.5c-0.1,0.7-0.1,1.4-0.2,2.1c-9.6-2.1-18.1-6.1-23.8-14.3c-7.1-10.2-4.4-20.2,6.6-25.8
		c3.8-1.9,7.6-3.7,11.6-5.2c4.3-1.5,5.4-6.3,10.3-9.9c0.2,6.5-2.6,9.6-6.3,11.7c-4.4,2.5-9.1,4.2-13.6,6.5
		c-9.8,5-11.4,13.8-4.2,22.1c3.8,4.3,8.6,7,13.7,9.3C289.3,829,292.1,828.7,293.1,831.5z"/>
	<path class="st2" d="M315.6,403.6c12-11.3,25.6-18.8,40.4-23.6c-8.8,8.3-20.8,10.6-31.1,20c10.1-2.5,18.6-4.5,27.1-6.6
		c0.2,0.9,0.4,1.8,0.6,2.7C340.5,399.7,328.5,403.3,315.6,403.6z"/>
	<path class="st2" d="M596.8,338.2c2.1,1.8,4.8,1.1,7.1,1.7c-12.9,3.1-13,3.1-14.9,16.5c-1.5,10.2-6.9,17.6-15.7,22.6
		c-7.2,4-14.8,7.1-22.9,8.6c-1.3-1.6-3.8,0.3-5-1.7c7-2.5,14.1-4.7,21-7.5c11.4-4.7,18.7-12.8,19.5-25.8
		C586.3,345.5,588.2,339.2,596.8,338.2z"/>
	<path class="st2" d="M546.3,385.8c1.4,0.2,3,0.1,4,1.7c-17.8,6.5-36,9.8-54.6,8.1c-8.9-0.8-12.4-6.7-10-16.2
		c2.4-0.1,2.4,1.4,1.6,3.5c0.1,8.6,5.6,8.5,10.3,9.7c5.1,1,10.3,0.9,15.4,0C524.2,391,535.3,388.7,546.3,385.8z"/>
	<path class="st2" d="M555.1,358.7c-1.4-0.6-2.7-1.2-4.1-1.7c9.9-2.2,16.6-7.5,21.7-16.8c6.3-11.5,18.2-13.5,30.4-13.3
		c0.5,1,1,1.9,1.6,2.9c-4.9,0.7-10,1.1-14.8,2.2c-7.4,1.6-12.6,6-16,12.9C570.1,352.8,564.1,357.8,555.1,358.7z"/>
	<path class="st2" d="M136.3,477.1c0.7,0.6,1.4,1.3,2.2,1.9c-3.9,3.9-8.4,7.3-11.5,12.1c-5.2,7.9-4.9,16-1.2,24.3
		c1.5,3.5,3.1,7,5.1,11.6C112.7,516.9,116.3,490.6,136.3,477.1z"/>
	<path class="st2" d="M734,237.3c-1.6,0.6-3.2,1.2-4.8,1.8c-29.8-4.3-59.9-6.2-90.2-6.8c11-3.4,22.5-0.3,33.6-1.8
		c1.7-1.9,4.2-2.7,7-2.9c17-1,33.3,2,49.4,5.8C731.3,234.1,733.1,235.4,734,237.3z"/>
	<path class="st2" d="M717.4,463c-4.6-2.7-25.8-8.4-32.2-8.8C689,457.3,710.9,463.3,717.4,463z"/>
	<path class="st3" d="M163.5,305.9c6.1-2.9,12.5-1.5,18.8-1.3c10.2,0.3,20.6-1.9,30.7,1.3C196.5,307.5,180,307.5,163.5,305.9z"/>
	<path class="st2" d="M579,593.3c-9.1,7.9-19.7,11.9-31.8,12.4C557.6,601,568.3,597.2,579,593.3z"/>
	<path class="st2" d="M693.9,558.4c-11,0-22,0-32.9,0c0-0.7,0-1.4,0-2c11-2,22-1.1,32.9-0.4C693.9,556.8,693.9,557.6,693.9,558.4z"
		/>
	<path class="st2" d="M693.4,583.8c-10.7,0-21.4,0-32.1,0c0-0.8,0-1.6-0.1-2.4c10.7-1.1,21.4-1,32.1-0.4
		C693.4,581.9,693.4,582.8,693.4,583.8z"/>
	<path class="st2" d="M139,530.9c7.3,3.9,14.5,7.9,21.8,11.8c-0.3,0.7-0.6,1.3-1,2c-8.4-1.5-15.2-6.4-22.1-11.3
		C138.2,532.5,138.6,531.7,139,530.9z"/>
	<path class="st4" d="M272.2,336.1c6.1-2.7,12.5-1.4,18.8-1.2c11.8,0.3,23.7-1.8,35.5,1.2C308.4,336.1,290.3,336.1,272.2,336.1z"/>
	<path class="st2" d="M623.7,587.2c-6.9,4.2-15.2,4.1-22.8,6.5C601.9,589,613,585.6,623.7,587.2z"/>
	<path class="st2" d="M353.7,832.2c-17,2.2-34.1,2.3-51.1,0C319.6,832.2,336.6,832.2,353.7,832.2z"/>
	<path class="st2" d="M668.8,451.9c-7.4,0.3-14.7,0.5-22.1,0.8c0-0.8,0-1.6,0-2.3c7.4-2.5,14.8-2.8,22.3-1
		C668.9,450.1,668.8,451,668.8,451.9z"/>
	<path class="st2" d="M468.9,414.5c11.7-1.9,23.4-1.9,35,0.1C492.2,415.8,480.5,416.2,468.9,414.5z"/>
	<path class="st2" d="M254.6,863.8c11.6-2.7,23.4-0.6,35-1.3c0,0.4,0,0.8,0.1,1.3C278,865.1,266.3,865.5,254.6,863.8z"/>
	<path class="st5" d="M20.4,114.2c-0.2,2.6-1.5,4.5-4.5,4.4c-2.6-0.1-4.9-1.3-5-4.1c-0.1-3.1,2-4.9,5.1-5
		C18.8,109.5,20.3,111.3,20.4,114.2z"/>
	<path class="st5" d="M180.5,335.9c-0.1,2.8-1.8,4.5-4.4,4.7c-2.8,0.2-4.6-1.4-4.7-4.2c-0.1-2.5,1.7-4,4-4.3
		C178.1,331.6,179.9,333,180.5,335.9z"/>
	<path class="st2" d="M304.8,835.2c14.5,0,28.9,0,43.3,0C333.7,837.1,319.3,837.2,304.8,835.2z"/>
	<path class="st2" d="M452,411.8c-5.9-0.6-11.7-1.3-17.6-1.9c0.1-0.7,0.1-1.5,0.2-2.2c6-1.5,11.9-0.8,17.6,1.7
		C452.1,410.2,452.1,411,452,411.8z"/>
	<path class="st2" d="M276.8,745.4c-5,3.4-10.6,3.4-16.3,2.4C265.3,743.8,270.9,743.7,276.8,745.4z"/>
	<path class="st2" d="M687.8,437.1c-12.2,2.7-24.5,2.3-36.7,0.1C663.3,436,675.6,435.9,687.8,437.1z"/>
	<path class="st5" d="M577.3,661.4c-0.1,2.5-1.6,3.8-3.9,4.1c-2.1,0.3-3.5-0.9-3.9-2.9c-0.5-2.5,0.9-4,3.3-4.4
		C575.2,657.7,576.6,659.2,577.3,661.4z"/>
	<path class="st5" d="M479.9,904.9c2.7,0,4.3,1.3,4.4,3.7c0.1,2.1-1.5,3.3-3.5,3.5c-2.6,0.3-4.1-0.9-4.2-3.5
		C476.5,906.4,478,905.4,479.9,904.9z"/>
	<path class="st5" d="M623.2,277.6c-0.3,2.1-1.5,3.4-3.5,3.6c-2.5,0.2-4-1.2-3.9-3.7c0.1-2.1,1.7-3.3,3.7-3.2
		C621.5,274.3,622.9,275.6,623.2,277.6z"/>
	<path class="st5" d="M91.1,847c2.7,0.3,4,1.5,4,3.7c0,2.1-1.2,3.6-3.4,3.6c-2.5,0.1-4-1.3-3.8-3.9C88.1,848.2,89.7,847.4,91.1,847z
		"/>
	<path class="st5" d="M647.5,396.7c-0.4,2.5-1.6,3.7-3.8,3.5c-1.8-0.1-3.1-1.2-3.1-3c0-2.2,1.6-3.3,3.7-3.3
		C646.1,394.1,647,395.4,647.5,396.7z"/>
	<path class="st2" d="M669.1,597.7c6.6-1.5,11-2.9,15.8,1.7C679.6,599.7,675.3,600.4,669.1,597.7z"/>
	<path class="st5" d="M349.5,485.4c-0.4,2.2-1.8,3.1-3.9,2.8c-1.8-0.3-2.9-1.4-2.6-3.2c0.3-2.1,1.7-3.2,3.8-2.9
		C348.5,482.5,349.4,483.7,349.5,485.4z"/>
	<path class="st5" d="M162.7,873.8c1.8,0.1,3.1,1.1,3.2,2.9c0.2,1.9-1.1,2.9-2.9,3.1c-1.9,0.2-3-0.9-3.1-2.7
		C159.7,875.2,160.8,874.1,162.7,873.8z"/>
	<path class="st5" d="M670.4,418.9c-0.2,2-1.5,2.7-3.2,2.6c-1.7-0.1-3.1-0.8-3.1-2.8c0-2.4,1.7-3.2,3.7-3.1
		C669.5,415.8,670.5,417,670.4,418.9z"/>
	<path class="st5" d="M62.3,537.4c-0.7,1.8-1.8,3.2-4,2.8c-1.7-0.3-2.8-1.5-2.6-3.3c0.3-2.1,1.7-3.3,3.9-2.8
		C61.2,534.4,62.1,535.6,62.3,537.4z"/>
	<path class="st5" d="M82.3,29.4c-0.7,1.8-1.8,3.2-4,2.8c-1.7-0.3-2.8-1.5-2.6-3.3c0.3-2.1,1.7-3.3,3.9-2.8
		C81.2,26.4,82.1,27.6,82.3,29.4z"/>
	<path class="st5" d="M130,967.1c1.8,0.3,3.2,1.1,2.9,3.1c-0.2,1.9-1.7,2.6-3.5,2.4c-1.4-0.2-2.5-1-2.5-2.5
		C127,968.1,128.3,967.3,130,967.1z"/>
	<path class="st5" d="M743.9,40.7c1.7,0.3,3.2,0.9,2.9,3c-0.2,2-1.7,2.6-3.4,2.4c-1.3-0.2-2.5-1-2.6-2.5
		C740.7,41.5,742.1,40.9,743.9,40.7z"/>
	<path class="st5" d="M771.1,2.5c1.5-0.1,2.6,0.8,2.9,2.1c0.4,1.8-0.8,2.9-2.6,3.2c-1.4,0.2-2.7-0.7-2.9-2
		C768.1,3.9,769.5,3,771.1,2.5z"/>
	<path class="st5" d="M790.3,322.8c1.4,0.2,2.6,0.8,2.6,2.4c-0.1,1.9-1.5,2.8-3.2,2.6c-1.3-0.2-2.4-1.2-2.2-2.8
		C787.8,323.5,788.9,322.8,790.3,322.8z"/>
	<path class="st6" d="M417.9,657.9c-3.6,1.7-7.3,2.7-12.3,2.9c2.9-3.1,6-3.6,9-4.4C415.7,656.9,416.8,657.4,417.9,657.9z"/>
	<path class="st5" d="M174.3,1003.9c-0.6,1.7-1.7,2.7-3.5,2.4c-1.7-0.3-2.8-1.4-2.3-3.3c0.4-1.4,1.5-2.1,2.9-2
		C173.1,1001.2,174.3,1002,174.3,1003.9z"/>
	<path class="st5" d="M331.9,28.1c0.4-1.5,1.4-2.2,2.8-2c1.5,0.1,2.5,1,2.3,2.5c-0.2,1.4-1.3,2.2-2.8,2.1
		C332.9,30.5,332,29.6,331.9,28.1z"/>
	<path class="st5" d="M195.3,413.6c-1.2-0.1-2.5-0.6-2.4-2.2c0-1.4,1-2.4,2.4-2.5c1.5-0.1,2.5,0.9,2.6,2.2
		C198,412.6,197,413.4,195.3,413.6z"/>
	<path class="st5" d="M538.2,972.2c-0.4,1.8-1.7,2.5-3.4,2.4c-1.5-0.1-2.4-1.1-2.4-2.5c0.1-1.7,1-2.9,2.9-2.8
		C537.2,969.4,538.1,970.4,538.2,972.2z"/>
	<path class="st5" d="M578.2,301c-2-0.1-2.9-1-2.7-2.5c0.2-1.4,1.2-2.2,2.7-2.1c1.4,0.2,2.5,1,2.3,2.5
		C580.4,300.5,579.2,301,578.2,301z"/>
	<path class="st5" d="M110.2,33c-2-0.1-2.9-1-2.7-2.5c0.2-1.4,1.2-2.2,2.7-2.1c1.4,0.2,2.5,1,2.3,2.5C112.4,32.5,111.2,33,110.2,33z
		"/>
	<path class="st2" d="M382.1,38c12.1,8.8,45.9,10.6,52.9,2.7C417.2,42.1,401.2,24.6,382.1,38z M388.4,38c11.1-3.3,19.3-1.2,27.3,2.7
		C407,41.9,398.8,39.7,388.4,38z"/>
	<path class="st2" d="M382.5,79c2.6-0.3,5.3-0.3,7.8-0.9c4.8-1.2,9.5-2.8,14.1-5.5c-1.9,0-3.7-0.1-5.6,0
		c-26.8,2.1-53.1-1.6-79.5-5.4c-3.7-0.5-7.4-0.9-11.1-0.8c-8,0.3-10.2,4.6-6.5,11.8c4.7,9.2,4.4,10.3-6,13.6
		c-6.4,2.1-11.7,4.4-12.6,12.4c-0.6,5.2-5.7,6.6-10,8c-15.7,5.2-32.1,7.5-48.4,9.9c-17.9,2.7-35.9,4.4-53.8,7.3
		c-20.1,3.2-38.6,10.1-52.2,26.5c-0.5,0.6-1.2,1-2,1.2c-0.4,0.1-1-0.2-2.2-0.5c4.2-7.8,10.7-12.9,17.8-17.3
		c13.4-8.3,28.2-12.2,43.7-14.2c27.5-3.4,54.9-6.9,82.1-12.6c5.2-1.1,10.3-2.5,15.4-4.1c3.1-1,6.2-2.7,6.6-6.3
		c1-8.4,6.6-11.5,13.9-13.2c5.4-1.3,8.5-2.8,4.6-9.5c-5.5-9.3-1-16.3,9.9-16.5c14.5-0.2,28.5,3.7,42.8,5c21,1.9,42,2.5,62.9-0.5
		c1.5-0.2,3.1,0,4.9,0.9c-8.3,7.7-18.3,11.3-29.4,12.4C387.1,80.8,383.9,83.3,382.5,79z"/>
	<path class="st2" d="M758.4,283.1c12.5-18.1,19-35.9,5.5-55.6c12.5,6.8,13.5,22.6,4.5,48.2c12.1-7,16.7-19.3,13.1-35.5
		c-1.2-5.4-2.9-10.8-2.9-16.4c0-4.9,0.8-9.4,3.7-13.5c12-17,13.4-51-5.3-69.6c-1.3-1.3-2.7-2.6-1.8-5.5c6.7,3.6,10.5,9.6,13.3,15.8
		c9.4,20.7,9.2,41.2-3.1,60.9c-3.5,5.6-3.5,11.6-2.5,17.7c1,6,2.7,12,3.4,18C788.3,264.3,775.7,281.4,758.4,283.1z"/>
	<path class="st2" d="M382.5,79c2,1.9,4.7,1.4,7.1,1.8c-14.7,3.6-29.6,1.7-44.4,1.5c-3.5-0.1-6.9-0.3-10.4-0.2c-4,0.1-7,1.6-6.1,6.2
		c1,5.2-1.6,8.2-5.9,9.9c-4.7,1.9-6,4.9-5.7,9.9c1.2,20.1-3.2,26.3-22.6,32.4c-13.3,4.1-27.1,5.5-40.8,7c-4,0.4-8,0.8-11.8,1.6
		c-17,3.9-21.8,9.9-20.6,25.7c-5.6-4.1-6.7-8.2-3.3-14.4c5.1-9.2,13.9-13,23.5-14.8c11-2,22.1-3,33.2-4.4c8.2-1.1,16.2-2.9,23.9-6
		c12.5-5,16.6-11.1,15.2-24.5c-0.8-7.4,0-13.2,8-16c2.4-0.8,3.9-2.8,3.5-5.6c-1.1-8.5,3.9-10.8,11-10.7
		C351.6,78.6,367.1,78.8,382.5,79z"/>
	<path class="st2" d="M71,234.9c8.9,13.1,19.9,21.3,33.7,28.2C93.5,265,71.9,247,71,234.9z"/>
	<path class="st2" d="M744.7,113.9c-7.8-3.4-14.7-6.3-22.1-9.5C728.8,101.5,740.8,106.5,744.7,113.9z"/>
	<path class="st2" d="M499.6,220.5c-5.7,5.2-12.6,6.6-20,6.2C485.6,222.6,492.5,221.1,499.6,220.5z"/>
	<path class="st2" d="M552,209.6c-2.8,4.5-7.1,4.4-12.4,5.3C543,209,547.9,210.3,552,209.6z"/>
	<path class="st2" d="M279.4,179.1c-5,1.1-8,2.6-13.4,1.7C270.3,177,273.3,175.6,279.4,179.1z"/>
	<path class="st2" d="M696.8,102.3c2.1-2.6,4.7-2.8,8.1-2.2C702.8,104.2,699.6,102.4,696.8,102.3z"/>
	<path class="st2" d="M266.1,909.1c6.7-9.4,16.5-13.2,27.3-14.9c13.6-2.1,27-0.4,40,3.9c23.7,7.8,47.8,9.7,72.4,6.3
		c1-0.1,2-0.3,3,1.1c0.6,2.5-2,3.5-3.6,4.7c-14.8,11.7-31.4,16.4-50.1,11.7c-6.2-1.6-12.5-2.5-18.9-1.7c-3.1,0.4-6.4,1.1-7.2,4.6
		c-0.9,4,2.4,5.8,5.4,7.4c4.8,2.6,10.3,2.5,15.5,3.8c8.1,2.1,10,4.9,8.7,13c-1.4,8.6,0.5,11.1,9.7,10.7c15.4-0.6,30.4-4,44.6-9.5
		c21-8.2,42.3-13,64.9-8.7c5,1,10,2.1,14.4,4.7c12,6.9,13.5,20.4,2.5,28.9c-6.3,4.9-10,8.3-3.5,16.1c4.6,5.5,0.4,10.6-4.6,14
		c-7.2,4.8-15.6,6.2-24,6.8c-8.9,0.7-17.9,0.5-26.6,1.8c-7.6,1-15.9,1.9-19.6,10.5c-2.5,0-5.1,0-7.6,0c0.3-9.5,3.3-13.1,14.4-16.7
		c10.2-3.3,20-7.2,28.2-14.5c3.4-3.1,5.8-6.8,4.4-11.4c-1.6-5.1-5.3-8.5-11-9.3c-4.1-0.6-8.2-0.2-12.1,0.8c-7.4,1.9-14.7,4-22,6
		c-3.2,0.9-6.4,1.6-9.5,2.4c-1.3-0.6-2.2-1.3-1.9-2.9c0.7-1.8,2-3,3.7-3.6c15-5.8,30-10.9,46.5-7.9c11.3,2.1,16.3,18.6,8.6,28.3
		c-6.7,8.4-16,12.1-26.1,14.1c-6,2-12.2,3.4-16.9,8.1c4.6-4.7,10.9-6,16.8-8.1c8.8-2.7,17.6-3.7,27-3.3c7,0.3,14.5-2.1,21.2-5.3
		c5-2.4,5.7-5.9,3.8-10.7c-3.5-8.7-3.2-12.3,4.3-17.8c9.3-6.9,10-17.7-4.6-22.4c-14.3-4.7-28.7-5.2-43.5-1.3
		c-20.4,5.3-40.1,13-60.9,16.9c-5.1,0.9-10.2,1.1-15.2,0.4c-8.6-1.2-12.9-6-12.2-14.5c0.5-6.4-2.2-8.8-7.9-9.7
		c-4.5-0.7-9-1.8-13.1-4.1c-5-2.8-8.4-6.8-7.9-12.9c0.5-6,4.9-8.4,10.2-9.8c5.2-1.4,10.5-2.4,15.8-1.1c14.4,3.6,28.7,4.5,40.5-1.3
		c-13.2,0.6-28.4,0.4-43.3-4.6c-14.3-4.7-28.8-8.1-44.1-7.6c-9.7,0.3-18.6,2.8-26.4,8.6c-2.3,1.7-4.6,3.3-7.6,2.9
		C266.4,911.4,265.5,910.6,266.1,909.1z"/>
	<path class="st2" d="M266.1,909.1c0.5,0.7,1.1,1.4,1.6,2c2.3,2.9,0.8,5.9-0.1,8.7c-2.4,8.2-1.2,15.7,4.2,22.2
		c6.5,7.8,10.4,15.6,7.4,26.4c-1.9,6.7,4.6,9.9,9.6,13c3.5,2.2,8.7,2.1,10,7.2c-1,2.5-3.3,1.3-5,1.9c-6.8-1.5-13-4.4-17.8-9.6
		c-4.9-5.3-6.9-11.5-3.3-18.2c2-3.8,1.2-6.6-1.2-9.7c-2.6-3.1-5.1-6.3-7.3-9.7C256.7,931.8,257.4,920.3,266.1,909.1z"/>
	<path class="st2" d="M294,990.6c1.3-1.5,3.2-1.4,4.9-1.6c5-4.7,10.1,0.8,15.2-0.3c17.4,2.9,34.7,1.3,51.8-2.5
		c7.9-1.8,15.7-3.7,23.3-6.5c3.3-0.6,6.5-3.3,9.8,0c0.7,0.6,1.4,1.3,2.2,1.9C366.2,994.5,330.8,1001.6,294,990.6z"/>
	<path class="st2" d="M442.1,901.6c-7.6,14.9-27.2,23.7-43.2,19.1C414.2,917.1,422.2,897.8,442.1,901.6z"/>
	<path class="st6" d="M313.2,990.9c-5,0.7-9.5-1.8-14.4-1.9c-5.3-2.4-11-3.8-15.9-7.2c-7.4-5.2-9.3-10.4-5.9-18.9
		c1.7-4.1,0.9-7.4-1.4-10.6c-1.9-2.7-3.9-5.3-6.1-7.8c-8.9-10.7-8-21.8-1.8-33.3c19.1-18.9,41.9-16.3,64.3-9.6
		c22.1,6.6,44.2,9.2,67.2,7.4c-7,8-23.6,12.8-37,10.7c-3-0.5-6-1.3-9-1.8c-4-0.7-8-1.5-12.1-1.6c-9-0.3-15.3,3.4-16,8.7
		c-0.7,5.4,4.7,10.4,13.3,12.4c2,0.5,4,0.8,6,1.2c11.3,2.3,11.3,2.3,10.1,13.8c-0.7,6.9,2.3,10.3,10.4,10.8
		c12.1,0.8,23.8-2.3,35.3-5.4c9.6-2.6,18.9-6,28.3-9.3c17.6-6.3,35.4-6.3,53.4-2.2c2.2,0.5,4.4,1.2,6.5,2.2
		c12,5.6,13.3,17.2,2.9,25.3c-9.6,7.5-9.7,7.6-3.5,18.3c3.1,5.3,0.2,8.1-3.8,10.6c-7.9,4.8-16.8,5.7-25.7,6.2
		c-9.4,0.5-18.8,0.3-28.2,1.9c-0.4-0.3-0.5-0.7-0.4-1c0.1-0.4,0.2-0.5,0.4-0.5c6.7-3,13.5-5.8,19.5-10.1c8.4-6.1,11.6-12.6,9.3-19.1
		c-2.9-8.2-9.5-11.9-20.4-10.9c-13.8,1.3-26.8,5.8-39.7,10.6c-2.8,0.6-5.7,1.3-8.5,1.9c-2.7,0.5-3.6-0.9-3.7-3.3
		c3.7-5.5,10.1-6.4,15.4-9c11-5.4,22.4-9.5,35-9.1c1.3,0,2.5,0.4,1.9,0.2c-15.3-5.1-30.5,2.1-45.9,8c-15.7,6-31.5,11.3-48.6,10.9
		c-8.3-0.2-16-2.9-23.4-6.2c-3.2-1.4-6.6-3.8-6.1-7.9c0.5-4.2,4.4-5,7.9-5.9c3.5-0.9,7-1.3,10.5-1.8c3.3-0.5,5.7-2.2,6-5.9
		c0.3-3.6-2.2-4.8-4.9-5.9c-5.5-2.2-11.3-2.6-17-4c-2-0.5-4-0.6-5.9-1.5c-3.5-1.9-8.1-2.9-8.4-7.9c-0.3-5.2,3.9-6.6,7.7-8.1
		c2.1-0.8,5.3-1.7,5.6-3.6c1.4-10.1,8.9-8.5,15.6-8.7c1,0,2-0.1,3.3-1.4c-3-2.6-6.8-1.3-10-2.1c-5.9-1.4-12-2.1-18-2.4
		c-8.8-0.4-11.4,2.8-10.6,11.5c0.2,2.2-0.4,4-2.1,5.5c-1.1,1-2.5,1.8-3.9,2.4c-5.7,2.5-10.9,6.2-10.6,12.7
		c0.3,6.2,5.6,9.8,10.9,12.7c9.7,5.3,9.9,6.5,4,15.6c-4.1,6.3-3.6,7.6,2.9,12c5.8,4,13,4.4,19,7.6c1.7,1.1,4.3,1.3,4.4,4.6
		C318.9,992,316.1,991.5,313.2,990.9z"/>
	<path class="st6" d="M430.1,1009.1c0,0.5,0,1,0.1,1.6c-6.1,2.8-12.7,4.7-17.7,9.5C415.7,1012.4,423,1010.9,430.1,1009.1z"/>
	<path class="st6" d="M387.3,978.8c1,0.9,2,1.8,3.1,2.7c-25,8.7-50.5,14-77.1,9.4c2-0.2,3.9-0.3,6.6-0.6c-1.8-1.1-3.2-1.9-4.5-2.7
		c1.5-2.3,3.9-2.5,6.1-2c20.3,3.9,39.6-0.4,58.7-6.9C382.6,977.8,385,976.8,387.3,978.8z"/>
	<path class="st6" d="M435.9,905.4c-5.9,8-13.8,10.5-22.2,12C420.4,912.5,424.8,903.9,435.9,905.4z"/>
	<path class="st2" d="M387.3,978.8c-23.2,9.1-47.1,12.9-72,8.8c-6.9-1.9-13.8-3.8-19.8-7.9c-6.8-4.7-7.3-7.6-2.7-14.4
		c5.7-8.3,5.7-8.4-3.7-13.2c-5.7-2.9-10.7-6.8-11.4-13.4c-0.8-7.4,4-11.5,10.2-14.5c3.9-1.9,9.4-2.7,5.3-9.9
		c-2.3-4,3.2-10.4,9.4-10.6c14.2-0.5,28,3,43.2,5.1c-5.3,6.1-11.1,5-16.4,5.3c-4.8,0.2-10.2-1.5-10.3,6.9c0,4-5.1,4.3-8.4,5.5
		c-2.6,1-5.8,2-5.9,5.2c-0.2,3.5,3.3,4.1,5.8,5.2c5.2,2.3,10.8,3,16.3,4.1c2.7,0.5,5.6,0.9,8.1,2c4.1,1.7,8.1,4.1,7.5,9.3
		c-0.6,5.2-4.8,6.9-9.2,7.6c-4,0.6-8.1,0.5-12,2c-1.9,0.8-4.4,1.3-4.8,3.4c-0.4,2.8,2.4,3.7,4.3,4.7c11.2,5.9,23.2,7.4,35.6,5.9
		c15.1-1.8,29.1-7.2,43-12.9c11.6-4.8,23.6-8.5,36.4-6.6c5.7,0.8,11.3,2.1,15.3,8.2C427.1,958.3,407.3,969,387.3,978.8z"/>
	<path class="st2" d="M456.1,1004c0.4-4.4,4.2-5.3,6.4-7.5c4.2-4.3,5.4-8.5,1.4-13.4c-4.5-5.6-4.2-10.8,0.1-16.6
		c4.7-6.3,3.5-8.7-4.2-11.1c-5.2-1.6-11.1-0.6-16.3-3.6c8.6-5.1,33.5-3.3,40.2,2.7c5,4.5,5.1,9.8-1.2,13.8
		c-6.4,4.1-6.5,8.1-3.4,14.4c4.8,9.8,3.3,12.6-7,16.5C467,1001.3,461.9,1003.6,456.1,1004z"/>
	<path class="st6" d="M379.6,977c-25.7,10.8-51.7,12.5-77.8,1.9c-9.5-3.9-9.9-6.3-4-14.5c5-6.9,4.4-9.8-3.1-13.7
		c-2.9-1.5-6-2.9-8.5-5c-7-5.5-6.5-12.8,1.2-17.3c2.6-1.6,5.5-2.7,8.1-4.2c3.5-2.1,6.4-4.1,2.5-8.9c-3.5-4.3,0.6-6.4,3.9-7.7
		c4.5-1.7,9.1-0.4,13.6,0.5c1.4,2,5.4-1.3,5.9,2.8c-2.3,0.5-5.5,1.6-5.3,3.7c1,7.4-4.6,7.8-9.1,9.8c-3.2,1.4-5.6,4-5.9,7.4
		c-0.4,3.9,2.7,5.7,5.8,7.3c5.7,3,12,4.1,18.3,5.2c2.5,0.4,5,0.8,7.5,1.5c3.2,1,6.7,2.5,6.2,6.5c-0.5,3.7-4.2,4.1-7.2,4.3
		c-4.4,0.3-8.6,0.8-12.7,2.5c-2.9,1.2-5.8,2.8-6.1,6.2c-0.3,3.4,2.3,5.5,5,7c8.6,4.8,17.8,7.3,27.7,7.6c11.2,0.4,21.9-1.7,32.5-4.9
		C379.6,974.8,380,975.5,379.6,977z"/>
	<path class="st6" d="M379.6,977c-0.6-0.6-1.1-1.2-1.7-1.8c10.7-4.1,21.4-8.3,32.1-12.4c1.5-0.4,1.9,0.2,1.5,1.6
		C400.6,967.9,391.1,975,379.6,977z"/>
	<path class="st6" d="M411.5,964.4c-0.5-0.5-1-1.1-1.5-1.6c4.1-2.1,8.4-3.2,13.3-1.7C419.4,962.2,415.5,963.3,411.5,964.4z"/>
	<path class="st6" d="M321.3,910.9c-2-0.9-3.9-1.9-5.9-2.8c4.9-0.5,9.5,0.9,14.2,2.8C326.8,910.9,324.1,910.9,321.3,910.9z"/>
	<path class="st6" d="M467.1,997.1c4.6-6.7,2.9-11.8-0.6-16.5c-3.2-4.3-2.9-8.5,0.6-12.5c4.5-5.3,5.5-10.3-1.6-14.8
		c3.7-1,6.3,0.2,9,0.8c3.8,0.9,7.7,2.2,8.7,6.5c0.9,4.1-3.1,5.4-5.6,7.3c-5.7,4.1-5.4,8.7-2.5,14.6
		C479.6,992.2,478.9,993.2,467.1,997.1z"/>
	<g id="stars">
		<g>
			<path class="st7" d="M771.1,390.7l-6.4-1.8c-5.9-1.7-10.5-6.2-12.1-12.1l-1.8-6.4c-0.3-0.6-1-0.9-1.6-0.7
				c-0.3,0.1-0.5,0.4-0.7,0.7l-1.8,6.4c-1.7,5.9-6.2,10.5-12.1,12.1l-6.4,1.8c-0.6,0.2-1,0.8-0.8,1.5c0.1,0.4,0.4,0.7,0.8,0.8
				l6.4,1.8c5.9,1.7,10.5,6.2,12.1,12.1l1.8,6.4c0.2,0.6,0.8,1,1.5,0.8c0.4-0.1,0.7-0.4,0.8-0.8l1.8-6.4c1.7-5.9,6.2-10.5,12.1-12.1
				l6.4-1.8c0.6-0.2,1-0.8,0.8-1.5C771.8,391.1,771.5,390.8,771.1,390.7L771.1,390.7z"/>
		</g>
		<g>
			<path class="st7" d="M687.4,33l-4.4-1.9c-4-1.8-7.2-6.6-8.3-12.9l-1.3-6.8c-0.2-0.7-0.7-1-1.1-0.7c-0.2,0.1-0.4,0.4-0.5,0.7
				l-1.3,6.8c-1.1,6.2-4.3,11.1-8.3,12.9l-4.4,1.9c-0.4,0.2-0.7,0.9-0.6,1.5c0.1,0.4,0.3,0.7,0.6,0.9l4.4,1.9
				c4,1.8,7.2,6.6,8.3,12.9l1.3,6.8c0.1,0.7,0.6,1,1,0.9c0.3-0.1,0.5-0.4,0.6-0.9l1.3-6.8c1.1-6.2,4.3-11.1,8.3-12.9l4.4-1.9
				c0.4-0.2,0.7-0.9,0.6-1.5C687.9,33.5,687.7,33.2,687.4,33L687.4,33z"/>
		</g>
		<g>
			<path class="st7" d="M509.6,287.7l-2.9-1.2c-2.6-1.1-4.7-4.1-5.4-7.9l-0.8-4.2c-0.1-0.4-0.4-0.6-0.7-0.4
				c-0.1,0.1-0.2,0.2-0.3,0.4l-0.8,4.2c-0.7,3.8-2.8,6.8-5.4,7.9l-2.9,1.2c-0.3,0.1-0.4,0.5-0.4,0.9c0,0.3,0.2,0.5,0.4,0.5l2.9,1.2
				c2.6,1.1,4.7,4.1,5.4,7.9l0.8,4.2c0.1,0.4,0.4,0.6,0.6,0.5c0.2-0.1,0.3-0.3,0.4-0.5l0.8-4.2c0.7-3.8,2.8-6.8,5.4-7.9l2.9-1.2
				c0.3-0.1,0.4-0.5,0.4-0.9C509.9,288,509.8,287.8,509.6,287.7L509.6,287.7z"/>
		</g>
		<g>
			<path class="st7" d="M241.6,959.7l-2.9-1.2c-2.6-1.1-4.7-4.1-5.4-7.9l-0.8-4.2c-0.1-0.4-0.4-0.6-0.7-0.4
				c-0.1,0.1-0.2,0.2-0.3,0.4l-0.8,4.2c-0.7,3.8-2.8,6.8-5.4,7.9l-2.9,1.2c-0.3,0.1-0.4,0.5-0.4,0.9c0.1,0.3,0.2,0.5,0.4,0.5
				l2.9,1.2c2.6,1.1,4.7,4.1,5.4,7.9l0.8,4.2c0.1,0.4,0.4,0.6,0.6,0.5c0.2-0.1,0.3-0.3,0.4-0.5l0.8-4.2c0.7-3.8,2.8-6.8,5.4-7.9
				l2.9-1.2c0.3-0.1,0.4-0.5,0.4-0.9C241.9,960,241.8,959.8,241.6,959.7L241.6,959.7z"/>
		</g>
		<g>
			<path class="st7" d="M87.5,358.3l-3.7-1.2c-3.4-1.1-6.1-4.2-7-8.2l-1.1-4.3c-0.1-0.4-0.6-0.6-0.9-0.5c-0.2,0.1-0.3,0.2-0.4,0.5
				l-1.1,4.3c-1,4-3.6,7.1-7,8.2l-3.7,1.2c-0.4,0.1-0.6,0.6-0.5,1c0.1,0.3,0.2,0.5,0.5,0.5l3.7,1.2c3.4,1.1,6.1,4.2,7,8.2l1.1,4.3
				c0.1,0.4,0.5,0.7,0.8,0.5c0.2-0.1,0.4-0.3,0.5-0.5l1.1-4.3c1-4,3.6-7.1,7-8.2l3.7-1.2c0.4-0.1,0.6-0.6,0.5-1
				C87.9,358.6,87.7,358.4,87.5,358.3L87.5,358.3z"/>
		</g>
		<g>
			<path class="st7" d="M162.1,397.4l-6.6-2.5c-6-2.3-10.8-8.7-12.5-16.8l-1.9-8.9c-0.3-0.9-1-1.3-1.6-0.9c-0.3,0.2-0.6,0.5-0.7,0.9
				l-1.9,8.9c-1.7,8.2-6.4,14.5-12.5,16.8l-6.6,2.5c-0.6,0.2-1,1.2-0.8,2c0.1,0.5,0.4,1,0.8,1.1l6.6,2.5c6,2.3,10.8,8.7,12.5,16.8
				l1.9,8.9c0.2,0.9,0.9,1.4,1.5,1.1c0.4-0.2,0.7-0.6,0.8-1.1l1.9-8.9c1.7-8.2,6.4-14.5,12.5-16.8l6.6-2.5c0.6-0.2,1-1.2,0.8-2
				C162.8,397.9,162.5,397.5,162.1,397.4L162.1,397.4z"/>
		</g>
		<g>
			<path class="st7" d="M148.4,817.5l-4.7-2.3c-4.3-2.1-7.7-7.8-8.9-15.2l-1.4-8.1c-0.2-0.8-0.7-1.2-1.2-0.8
				c-0.2,0.2-0.4,0.5-0.5,0.8l-1.4,8.1c-1.2,7.4-4.6,13.1-8.9,15.2l-4.7,2.3c-0.5,0.2-0.7,1-0.6,1.8c0.1,0.5,0.3,0.9,0.6,1l4.7,2.3
				c4.3,2.1,7.7,7.8,8.9,15.2l1.4,8.1c0.1,0.8,0.6,1.2,1.1,1c0.3-0.1,0.5-0.5,0.6-1l1.4-8.1c1.2-7.4,4.6-13.1,8.9-15.2l4.7-2.3
				c0.5-0.2,0.7-1,0.6-1.8C148.9,818,148.7,817.7,148.4,817.5L148.4,817.5z"/>
		</g>
	</g>
	<g id="titulo">
		<g>
			<path class="st8" d="M375.6,397.3c-1.1,0.1-2.3-0.1-3.5-0.4c-3.1-0.8-5.1-2.8-6.1-5.8c-0.9-2.9-0.8-5.7,0-8.6
				c1.3-4.4,3.7-8.3,7.1-11.5c2.6-2.4,5.6-3.9,9.2-4.4c2-0.3,3.9-0.4,5.9,0.1c1.8,0.5,3.2,1.4,4.3,3c0.6,1,0.9,2,0.9,3.2
				c0,2.5-0.9,4.6-2.6,6.2c-1.7,1.7-3.9,2-6.2,1.3c-0.3-0.1-0.5-0.2-0.8-0.4c-0.7-0.5-0.8-1.1-0.4-1.8c0.2-0.4,0.5-0.7,0.8-1
				c1.3-1.6,1.5-3.4,1.1-5.3c-0.2-0.8-0.3-0.8-1-0.4c-1.6,1-3.1,2.2-4.2,3.7c-2.5,3.4-4.3,7.1-5.2,11.2c-0.3,1.6-0.5,3.2-0.2,4.9
				c0.1,0.7,0.4,1.4,0.8,2.1c0.4,0.5,0.8,0.8,1.4,0.8c1.9,0.1,3.6-0.5,5.2-1.3c1.8-0.9,3.5-1.9,5.1-3.1c3.5-2.6,6.9-5.2,10.4-7.8
				c0.7-0.6,1.5-1.1,2.5-1.3c0.4-0.1,0.7-0.1,1,0c0.6,0.2,0.8,0.7,0.5,1.3c-0.2,0.4-0.4,0.7-0.7,0.9c-1.5,1.4-3.1,2.6-4.7,4
				c-2.8,2.3-5.8,4.5-8.9,6.5c-3,2.1-6.3,3.5-10,3.9C376.8,397.4,376.2,397.3,375.6,397.3z"/>
			<path class="st8" d="M398.2,386.8c0.1-4.4,1.1-8.3,3.2-11.9c0.7-1.1,1.5-2.2,2.5-3.1c1.3-1,2.8-1.6,4.4-1.5c0.4,0,0.7-0.1,1-0.4
				c1.7-2.4,4.2-3.5,7-4c2-0.3,4.1-0.2,6,0.6c2.5,1.1,3.9,3,4.4,5.6c0.4,2.3,0.3,4.6-0.2,6.8c-0.4,1.7-0.8,3.4-1.4,5
				c-0.1,0.1-0.1,0.1-0.1,0.2c-0.1,0.2,0.1,0.3,0.2,0.3c0.4,0,0.7-0.1,1.1-0.1c2.8-0.4,5.5-1,8-2c0.9-0.4,1.7-0.7,2.6-1
				c0.5-0.2,1.1-0.3,1.6-0.4c0.2,0,0.5,0,0.8,0.1c0.6,0.2,0.8,0.7,0.5,1.3c-0.3,0.5-0.8,1-1.4,1.3c-0.7,0.4-1.4,0.7-2.1,1
				c-2.8,1.1-5.8,1.8-8.8,2.3c-1.2,0.2-2.4,0.4-3.6,0.5c-0.3,0.1-0.5,0.2-0.7,0.4c-1.1,2-2.5,3.9-4,5.6c-2,2.2-4.4,4-7.3,4.8
				c-3.5,1-6.8,0.5-9.8-1.7c-1.4-1.1-2.3-2.5-2.9-4.1C398.5,390.4,398.2,388.5,398.2,386.8z M407.8,381.6c-0.2,1-0.2,1.9-0.3,2.7
				c-0.1,2.3,0.2,4.6,0.8,6.8c0.2,0.9,0.5,1.9,1,2.7c0.3,0.5,0.4,0.5,0.8,0.2c1.8-1,3.3-2.3,4.6-3.9c0.6-0.8,1.2-1.6,1.7-2.4
				c0.2-0.4,0.2-0.4-0.2-0.5c-0.4-0.1-0.7-0.1-1.1-0.2c-2.3-0.7-4.3-1.9-6-3.7C408.6,382.8,408.3,382.3,407.8,381.6z M415.1,378.3
				c0,0.2,0,0.4,0,0.5c0.1,1.4,0.5,2.6,1.3,3.8c0.4,0.5,0.9,1,1.5,1.3c0.2,0.2,0.4,0.1,0.5-0.2c0.1-0.2,0.2-0.5,0.3-0.8
				c0.4-1.3,0.7-2.6,1-3.9c0.2-1.5,0.5-3.1,0.2-4.7c-0.2-1-0.4-2-0.9-3c-0.1-0.3-0.4-0.5-0.6-0.8c-0.2-0.2-0.4-0.2-0.5,0
				c-0.2,0.2-0.4,0.4-0.5,0.5C415.8,373.2,415.3,375.7,415.1,378.3z"/>
			<path class="st8" d="M447.4,377.9c0.1,0,0.2-0.1,0.2-0.2c1.9-2.4,4-4.6,6.2-6.8c1.9-1.9,4.1-3.4,6.6-4.2c1.7-0.6,3.5-0.7,5.3-0.2
				c0.8,0.2,1.4,0.5,2,1.1c0.7,0.6,0.8,1.4,0.8,2.3c-0.1,1.4-0.4,2.8-0.8,4.1c-0.7,2.3-1.7,4.4-2.6,6.5c-1,2.3-1.9,4.7-2.8,7.1
				c-0.7,1.7-1.1,3.4-1.4,5.2c-0.1,0.4-0.1,0.7-0.1,1.1c0.3,0.1,0.4-0.1,0.6-0.2c1.1-0.9,2.1-1.9,3.1-3c2.3-2.6,4.5-5.2,6.8-7.7
				c0.5-0.6,1-1.2,1.7-1.6c0.5-0.2,1-0.5,1.5-0.5c0.7,0,1,0.4,0.7,1c-0.1,0.4-0.4,0.7-0.6,1c-1.8,2.3-3.7,4.6-5.6,6.8
				c-1.5,1.7-3,3.4-4.4,5.1c-0.7,0.8-1.4,1.6-2.3,2.3c-1.9,1.3-4.7,1.3-6.6-0.2c-1.3-1.1-2-2.5-2.2-4.3c-0.1-2.8,0.4-5.5,1.3-8.1
				c1-3.1,2-6.2,3.2-9.2c0.3-0.6,0.5-1.3,0.7-2c0.1-0.2,0.2-0.3,0.1-0.5c-0.2-0.1-0.4,0.2-0.5,0.2c-2.6,2.5-5,5.1-7.2,7.9
				c-2.8,3.5-5.4,7.2-8.1,10.9c-0.9,1.2-1.8,2.5-2.6,3.7c-1.4,2-3.4,2.2-5.1,1.8c-1.5-0.4-2.2-1.4-2.1-3c0.2-2.3,0.7-4.5,1.4-6.7
				c1.7-5.5,3.5-10.9,5.6-16.2c0.4-1,0.9-2.1,1.4-3.1c0.3-0.6,0.7-1.1,1.3-1.3c2.1-1,4.1-1,6.2,0c0.3,0.1,0.5,0.3,0.7,0.5
				c0.4,0.4,0.6,0.9,0.5,1.4c-0.1,1-0.5,1.9-0.8,2.8c-0.8,1.9-1.4,4-2.3,5.8C447.4,377.8,447.3,377.8,447.4,377.9z"/>
		</g>
		<g>
			<path class="st8" d="M154,240.3c0.3-0.4,0.7-0.9,0.9-1.3c6.3-9.6,13.3-18.9,20.3-28c6.4-8.2,13.2-16,20.4-23.2
				c5.5-5.5,11-10.6,16.8-15.6c2.3-2.1,4.9-4,7.8-5.4c3.7-1.9,7.8-2.3,11.9-1.4c0.7,0.1,1.3,0.2,1.8,0.5c3.3,1.3,5.1,3.6,5.1,7.2
				c0,3-0.4,5.8-1.3,8.5c-2.1,8.3-4.7,16.3-7.4,24.4c-2.8,8.6-5.2,17.3-7.5,26c-2.7,10.8-5.5,21.7-7.8,32.5
				c-1.2,5.1-2.5,10.2-2.9,15.5c-0.6,5.1-0.8,10.2,0.1,15.2c0.4,1.7,1,3.3,1.8,5c0.9,1.6,2.1,3.1,3.7,4.2c4.1,3,8.7,5.4,13.6,6.5
				c2.6,0.7,5.1,0.9,7.7,0.5c2.5-0.4,5.2-0.4,7.7,0.2c0.7,0.1,1.4,0.4,2,0.9c1,0.8,1.4,1.9,0.6,3.1c-0.4,0.9-1.1,1.5-1.9,1.9
				c-2.3,1.7-5.1,2.3-7.9,2.8c-8.8,1.4-17.1,0-25.3-3.3c-5.9-2.3-11.2-5.5-16-9.8c-2-1.6-3.5-3.5-4.5-5.8c-1.4-3-2.3-6.2-2.7-9.4
				c-0.4-3.5-0.9-6.9-0.8-10.4c0.1-7.6,0.6-15.1,2-22.6c1-5.4,2.3-10.7,3.9-15.9c3.1-11,6.9-21.7,10.7-32.5c3-8.2,6-16.3,9.1-24.4
				c0.1-0.6,0.2-1,0.2-1.6c-1.1,1-2.2,1.9-3.1,3c-4.6,4.6-8.8,9.6-12.9,14.5c-4.1,4.8-8.4,9.8-12.4,14.8c-4.2,5.4-8.5,11-12.4,16.6
				c-6.2,8.7-12.5,17.5-18.7,26.2c-8.3,11.9-15.9,24.4-22.5,37.5c-1.8,3.5-3.6,7.1-4.7,10.9c-0.2,0.7-0.6,1.4-0.9,2.2
				c-0.6,2-2,3.2-4,3.7c-2.5,0.5-5.2,0.7-7.6-0.4c-1.7-0.8-2.5-1.9-2.6-3.7c-0.1-2.2,0.2-4.4,0.5-6.6c1.3-8.4,2.9-16.9,4.6-25.3
				c2.3-10.9,5.5-21.5,9.5-32c3-7.7,5.9-15.5,8.7-23.4c2.2-6.4,4-13.1,5.4-19.8c0.9-4.4,2-8.7,2.5-12.9c0.5-3.7,0.9-7.2,0.2-10.8
				c-0.2-1.7-0.9-3.2-1.8-4.7c-0.8-1.1-1.8-1.7-3.3-1.5c-1.7,0.1-3.2,0.4-4.9,1.1c-7.9,2.6-14.9,6.7-20.8,12.6
				c-3.8,3.7-6.8,8.1-8.5,13.1c-1.5,4.3-1.6,8.5,0.9,12.6c0.9,1.6,2.2,2.9,3.6,3.9c0.6,0.5,1.2,0.9,1.8,1.5c0.9,0.9,0.8,1.9-0.1,2.8
				c-0.9,0.9-1.9,1.2-3.2,1.4c-4.7,1.1-9.1,0.3-13-2.5c-4.8-3.4-6.7-8.3-6-14.2c0.7-6.2,3.2-11.7,6.8-16.6
				c8.4-11.8,19.9-19.5,33.7-23.5c6.9-1.9,13.9-2.3,21-0.7c6.8,1.5,11.5,5.7,13.8,12.3c0.8,2.1,1,4.3,1,6.6
				c-0.1,7.6-1.8,15-3.5,22.4c-1.2,5-2.8,9.8-4.1,14.8c-1.8,6-3.5,12.1-5.2,18.1c-0.3,0.6-0.4,1.1-0.5,1.7
				C153.8,240.1,153.8,240.1,154,240.3z"/>
			<path class="st8" d="M280.3,250.1c-1,2-1.9,4.1-2.9,6.2c-2.2,4.3-4.2,8.5-6.3,12.8c-1,1.9-2.2,3.8-3.7,5.4
				c-2.3,2.6-5.1,4.5-8.5,5.5c-3.1,0.9-6.3,1.3-9.7,0.7c-5.7-0.9-9.3-4.6-11.7-9.5c-1.5-2.9-2.1-6.1-2.3-9.3
				c-0.7-8.3,0.5-16.5,2.5-24.5c1.1-4,2.8-7.7,4.7-11.3c1.9-3.4,3.9-6.7,6.4-9.7c3.7-4.3,8.4-7,13.6-8.9c4.2-1.2,8.5-1.8,12.8-1.8
				c3.7,0.1,7,1.2,9.8,3.6c0.3,0.2,0.5,0.5,0.8,0.7c0.8,0.7,0.9,0.6,1.4-0.4c0.3-0.8,0.6-1.5,0.9-2.1c0.6-1.4,1.3-2.6,2.4-3.7
				c2.6-2.4,5.9-3.2,9.3-3.3c1.7-0.1,3.2,0.2,4.5,0.8c1.5,0.8,2.3,1.9,2.5,3.4c0.2,1.4,0.1,2.7-0.1,3.9c-0.4,1.9-0.8,3.8-1.2,5.6
				c-0.8,4.1-1.7,8.2-2.6,12.4c-0.5,2.1-0.6,4.1-0.9,6.1c-0.5,4.9-1.7,9.5-2.2,14.5c-0.7,5.2-1,10.6,0,15.8c0.1,0.7,0.4,1.5,0.7,2.3
				c0.2,0.7,0.5,0.8,1,0.3c0.8-0.5,1.2-1.2,1.7-1.8c2.7-3.4,4.8-7.3,6.7-11.2c3.6-6.7,7.2-13.5,10.8-20.2c1.1-2,2.4-3.5,4.4-4.4
				c0.9-0.4,1.7-0.7,2.7-0.1c0.8,0.9,0.9,1.9,0.6,2.8c-0.4,1.9-1.3,3.5-2,5.2c-3.7,7.9-7.9,15.4-12,23c-1.5,2.9-2.9,6-4.9,8.6
				c-3.6,4.8-8.7,7.1-14.7,6.5c-5.3-0.6-9.1-3.5-11.4-8.4c-1.5-3-2-6.5-2.3-9.9c-0.1-1.8-0.4-3.6-0.6-5.3
				C280.6,250.1,280.5,250.1,280.3,250.1z M282.5,224.6c-2.4-0.6-3.3-2.2-4.4-3.7c-0.9-1.4-1.8-2.7-2.9-3.8c-2.6-2.7-4.1-2.8-7-0.2
				c-0.2,0.3-0.5,0.5-0.7,0.8c-2,2.5-3.7,5.1-5,8.1c-2,5.2-3.6,10.5-4.6,16c-1.3,7-1.5,14-1,21.1c0.1,2.1,0,4.3,0.9,6.3
				c0.2,0.5,0.1,1.3,0.8,1.3c0.6,0.2,0.8-0.5,1.1-1c2.5-3.2,4.3-6.9,6.1-10.7c3.8-8.2,7.5-16.4,11.1-24.8
				C278.2,230.7,279.4,227.3,282.5,224.6z"/>
			<path class="st8" d="M347.1,254c0.8-0.4,1.1-0.9,1.3-1.4c2.4-3.9,4.1-8.1,5.9-12.2c2.7-6,5.4-11.9,8.2-17.7
				c0.8-1.4,1.4-2.9,2.3-4.2c0.8-0.9,1.7-1.8,2.9-2.1c1.6-0.6,3,0.3,3.1,2c0,1.2-0.2,2.3-0.7,3.3c-1.4,3.8-3,7.4-4.5,11.2
				c-2.8,6.9-6.1,13.9-8.9,20.8c-1.3,3.1-3.1,6.1-5.8,8.4c-3.4,2.9-7.3,4.1-11.8,3.7c-2.6-0.3-4.6-1.5-6.5-3.4
				c-3.6-3.8-5.6-8.5-6.7-13.6c-1.4-8.1-1.8-16-1.6-24.1c0.1-5.2-0.4-10.3-0.5-15.4c0-17.4,0.1-25.6,0.1-33.8c0-1.9,0.1-1.6-1.8-1.1
				c-56.9,17.3-61.6,20.2-66,23.7c-1.7,1.4-3.3,2.8-4.5,4.5c-0.8,0.9-0.7,1.1,0.3,1.7c1.2,0.7,1.2,1.3,0.5,2.3
				c-0.7,1.1-1.8,1.7-3.1,2c-3.8,0.6-7.3,0-10.5-2c-2.9-1.8-3.8-4-3.1-7.2c0.6-2.6,1.8-4.8,3.4-6.8c2.5-3.1,5.6-5.5,8.8-7.6
				c4.6-2.8,9.4-4.9,14.4-6.7c2.9-1,5.9-1.8,60.9-17.5c1.1-0.3,1.7-0.8,1.7-2.1c0.4-3.6,3.8-20.5,3.8-20.5c0.4-1.7,1-3.5,1.9-5.1
				c0.8-1.4,1.7-2.4,2.9-3.2c2.7-1.7,5.8-2.5,9-2.3c3.2,0.1,4.9,1.7,5.3,4.8c0.5,3.2,0.4,6.5,0,9.7l-0.7,8.1c-0.1,1.1-0.3,2.1-0.3,3
				c-0.1,1.6-0.1,1.8,1.6,1.4c1.4-0.2,2.7-0.3,4-0.7c49.3-14.2,55.3-14.9,61.2-14.6c2.7,0.3,5.5,0.8,8.1,1.8
				c1.2,0.5,2.4,1.2,3.4,2.1c2,2,1.5,4.4-1.2,5.3c-1.3,0.5-2.7,0.6-4.1,0.3c-4.3-1.3-8.6-0.3-12.8,0.3
				c-48.6,14.2-53.7,15.3-58.6,16.4c-2.7,0.6-2.4,0.4-2.5,2.9c-0.7,15.9-1.1,40.7-1.4,56.4c0,5.6-0.2,11,0.3,16.4
				c0.4,3.5,0.9,6.9,1.6,10.2C346.5,252.4,346.8,253.3,347.1,254z"/>
			<path class="st8" d="M428.6,226.5c0.6-0.5,0.8-1,1-1.5c3.7-7.1,6.9-14.5,10.5-21.8c1.6-3.3,3-6.6,5-9.6c0.9-1.5,1.9-2.7,3.3-3.6
				c0.4-0.1,0.6-0.4,1-0.5c1.4-0.6,2.7,0.2,2.8,1.8c0,0.9-0.2,1.7-0.5,2.5c-0.6,1.4-1.1,2.9-1.8,4.4c-4,9-8,18-12.5,26.9
				c-1.5,2.7-2.6,5.6-4.4,8.4c-1.4,2.1-3.2,3.8-5.6,4.9c-4.2,2-9.2,1.2-12.6-2c-2.1-2-3.5-4.3-4.5-7c-0.9-2.2-1.3-4.6-1.8-6.9
				c0-0.4,0-1-0.4-1.3c-0.5,0.2-0.5,0.6-0.7,1.1c-1.5,3.1-2.8,6.4-4.1,9.6c-2.3,5.2-4.8,10.1-8.4,14.6c-3.3,4-7.7,5.9-12.8,6.1
				c-4,0.1-7.1-1.5-9.6-4.6c-1.8-2.4-3.1-4.9-4.4-7.5c-1.8-4-2.4-8.1-2.8-12.2c-0.8-7.6-0.7-15.2-0.2-22.7
				c0.5-5.8,0.8-11.5,1.2-17.2c0-0.9,0.3-1.7,0.3-2.6c0.4-4.3,2.7-7.1,6.4-8.9c2.2-1,4.3-1.7,6.6-2c1.3-0.1,2.6-0.1,3.9,0.2
				c2.8,0.4,4.2,2,4.5,4.7c0.3,3.6,0.3,7.3,0.2,10.9c-0.4,6.5-1,12.8-1.3,19.2c-0.3,8.1-0.4,16.1,0.6,24.1c0.1,1.2,0.2,2.3,0.6,3.5
				c0.6-0.4,0.8-0.8,0.9-1.3c4.9-9.7,8.9-19.8,13.1-29.9c1.6-3.6,3.2-7.4,4.8-11c0.4-1,0.7-2,0.7-2.9c0.2-7,1.1-13.8,1.8-20.6
				c0.5-4.4,2.8-7.3,6.6-9.1c2.8-1.4,5.7-2,8.8-2c0.6,0.1,1.4,0.1,2,0.4c2.6,0.6,3.5,1.8,3.7,4.4c0.3,3.7,0.4,7.6,0,11.4
				c-0.9,11.7-1.8,23.4-2.2,35c-0.2,4.4-0.1,8.6,0.1,13C428.5,225.3,428.5,225.8,428.6,226.5z"/>
			<path class="st8" d="M466.3,156.8c1-0.9,1.8-1.8,2.6-2.6c3.5-3.7,7.6-6.7,12.5-8.5c5.5-2.1,11.2-2.6,16.7,0.2
				c3.8,1.9,6.4,5.2,7.2,9.4c0.9,5.2-0.4,10-2.7,14.5c-0.4,0.7-0.8,1.3-1,1.8c-3.2,5.2-7.9,7-13.6,6.8c-1,0-2-0.2-2.8-0.9
				c-1.5-0.9-1.8-1.9-1.3-3.6c0.1-0.5,0.3-0.8,0.5-1.2c1-1.9,1.2-4.1,0.8-6.2c-0.2-2.6-0.6-5.1-1.3-7.7c-0.2-0.5-0.3-1.1-0.7-1.6
				c-0.3-0.5-0.6-0.5-1.1-0.2c-0.7,0.7-1.3,1.3-2,2c-2.1,2.2-4,4.4-5.8,7.1c-2.6,3.8-5,7.7-7.6,11.6c-0.6,0.9-0.8,2-0.9,3.1
				c-0.3,9.1-1.2,18.1-1.3,28.5c0.3,6.7-0.3,10-0.6,13.2c-0.4,4.1-2.8,6.5-6.5,7.7c-1.8,0.4-3.5,1-5.3,0.8c-0.6,0-1.3,0-2-0.1
				c-2.8-0.6-4.4-2.1-4.5-5.2c-0.1-5-0.5-13.4-0.6-18.4c-0.7-10.7-0.5-20.2-0.1-29.7c0.1-5.2,0.3-10.4,1-15.7
				c0.2-1.6,0.5-3.1,1.1-4.5c0.6-1.8,1.7-3.1,3.1-4.1c3.4-2.1,7-3,11-2.5c0.8,0.2,1.6,0.4,2.3,0.7c1.2,0.6,2.1,1.5,2.5,2.9
				C465.8,155.2,465.9,155.9,466.3,156.8z"/>
			<path class="st8" d="M556.6,170.2c-0.9,2-1.7,4.2-2.6,6.3c-2,4.4-3.8,8.7-5.7,13.1c-0.9,1.9-2.1,3.9-3.4,5.6
				c-2.2,2.7-4.9,4.7-8.2,5.9c-3.1,1.1-6.3,1.6-9.6,1.1c-5.7-0.7-9.5-4.2-12.2-9c-1.6-2.8-2.4-6-2.8-9.2c-1.1-8.2-0.2-16.5,1.4-24.6
				c0.9-4.1,2.4-7.8,4.2-11.5c1.7-3.5,3.6-6.9,6-10c3.5-4.5,8.1-7.4,13.2-9.5c4.1-1.4,8.4-2.2,12.7-2.3c3.7,0,7.1,0.8,10,3.1
				c0.3,0.2,0.5,0.5,0.9,0.7c0.9,0.7,1,0.5,1.3-0.4c0.3-0.8,0.5-1.5,0.8-2.2c0.6-1.4,1.2-2.7,2.2-3.8c2.5-2.5,5.7-3.5,9.1-3.7
				c1.7-0.2,3.2,0.1,4.6,0.6c1.6,0.7,2.4,1.8,2.7,3.3c0.3,1.4,0.3,2.7,0.1,3.9c-0.3,1.9-0.6,3.9-1,5.7c-0.6,4.1-1.3,8.3-2,12.5
				c-0.4,2.1-0.4,4.1-0.6,6.2c-0.3,4.9-1.3,9.6-1.6,14.5c-0.5,5.3-0.5,10.6,0.7,15.8c0.1,0.7,0.4,1.5,0.8,2.3c0.3,0.7,0.6,0.7,1,0.2
				c0.7-0.6,1.2-1.2,1.6-1.9c2.6-3.5,4.5-7.5,6.2-11.5c3.3-6.9,6.6-13.9,9.9-20.7c1-2.1,2.3-3.6,4.2-4.6c0.9-0.5,1.7-0.8,2.7-0.3
				c0.9,0.8,0.9,1.8,0.7,2.7c-0.3,1.9-1.1,3.5-1.8,5.2c-3.4,8-7.2,15.7-10.9,23.5c-1.4,3-2.6,6.1-4.5,8.8c-3.4,5-8.3,7.5-14.4,7.1
				c-5.4-0.3-9.2-3.1-11.8-7.9c-1.6-3-2.3-6.4-2.7-9.8c-0.2-1.8-0.6-3.6-0.8-5.3C556.9,170.2,556.7,170.2,556.6,170.2z M557.6,144.6
				c-2.4-0.5-3.4-2-4.6-3.5c-1-1.4-2-2.6-3.1-3.7c-2.7-2.6-4.3-2.6-7,0.1c-0.2,0.3-0.5,0.5-0.7,0.9c-1.9,2.5-3.5,5.3-4.6,8.3
				c-1.8,5.2-3.1,10.7-3.8,16.2c-1,7.1-0.8,14.1-0.1,21.1c0.2,2.1,0.2,4.3,1.1,6.2c0.3,0.5,0.1,1.3,0.8,1.3c0.6,0.2,0.7-0.6,1.1-1.1
				c2.3-3.4,4-7.1,5.6-10.9c3.4-8.3,6.7-16.8,10-25.3C553.6,150.9,554.6,147.5,557.6,144.6z"/>
			<path class="st8" d="M614,181.7c1.2-0.9,2.2-1.9,3-2.7c2.5-2.4,4.5-5.3,6.7-8c4.5-5.7,9.1-11.3,13.9-16.9c0.8-1,1.6-1.9,2.7-2.6
				c0.8-0.6,1.8-1,2.8-1.2c1.8-0.3,3.1,1.1,2.7,2.8c-0.3,1-0.7,1.8-1.2,2.6c-2.6,3.7-5.2,7.3-7.9,10.7c-4.8,6.2-9.5,12.3-14.4,18.5
				c-2,2.6-4.7,4.9-8,6.1c-4.7,1.7-9.2,1.5-13.5-1.4c-1.7-1.1-2.7-2.6-3.5-4.3c-2.2-4.4-2.9-9.2-2.6-14.1c0.5-7.5,2-14.8,4-22
				c1.7-5.8,2.7-11.7,4.2-17.5c2.4-9.8,4.9-19.7,8-29.3c1.8-5.9,4.2-11.6,6.3-17.4c1.8-5.2,4-10.2,6.2-15.2c1.5-3.1,3.1-6.3,4.7-9.3
				c0.7-1.1,1.5-2.3,2.4-3.4c1.1-1,2.2-1.9,3.6-2.3c3.2-1.1,6.4-1.1,9.5-0.1c3,1.1,4.3,3,3.9,6.1c-0.2,1.8-0.8,3.7-1.3,5.4
				c-1.5,5.8-3.8,11.2-5.9,16.6c-3.4,8.9-6.5,17.9-9.2,26.8c-4.6,15-9,30-13.1,45.2c-1.7,5.8-3.1,11.7-3.8,17.7
				c-0.4,2.5-0.4,5.1-0.5,7.5C613.8,180.3,613.9,180.9,614,181.7z"/>
			<path class="st8" d="M656.3,170.1c-0.5,2.5-0.4,5.2,0.2,8c0.1,1.2,0.6,2.2,1,3.3c0.9,1.7,2.1,2.5,4,2.5c3.6-0.1,7.1-0.9,10.4-1.9
				c7.8-2.2,15-5.3,22-9.5c6.6-3.9,13.4-7.7,19.9-11.8c1.5-0.9,3.2-1.7,5.2-1.6c0.6-0.1,1.1,0,1.7,0.2c1.2,0.7,1.5,1.8,0.7,2.9
				c-0.4,0.7-1,1.3-1.7,1.8c-3.6,2.8-7.3,5.1-11.2,7.4c-9.4,5.5-18.9,10.8-28.7,15.6c-5.3,2.8-11.1,4.3-17.2,4.6
				c-7.1,0.5-13.6-1.3-19.2-5.9c-3.7-3.1-6.1-6.9-7.3-11.6c-0.8-3.5-1-7.1-0.5-10.7c0.5-3.3,1.3-6.6,2.7-9.7
				c3.7-8.6,9.1-15.8,16.1-21.8c4.5-3.8,9.4-6.8,14.9-8.9c4.8-1.8,9.7-2.7,14.9-2.5c3.9,0.1,7.8,0.8,11.4,2.3
				c2.8,1.1,5.5,2.3,7.4,4.7c2.3,2.6,3.6,5.6,3.1,9.2c-0.3,2.1-0.8,3.9-1.8,5.7c-1.8,4.1-4.3,7.8-7.4,10.9
				c-7.2,7.1-15.6,10.7-25.6,10.4c-4.1-0.1-8.3-0.4-12.3-1.5c-0.8-0.3-1.2,0.1-1.4,0.8C657.2,165.2,656.7,167.4,656.3,170.1z
				 M686.6,135.3c-0.1-0.6-0.1-1.3,0-1.8c0-0.7-0.4-0.9-0.9-0.7c-0.4-0.1-0.7,0-1,0.1c-2.8,1-5.4,2.4-7.8,4.1
				c-4.2,3.1-7.9,6.9-11,11c-1.4,1.8-2.6,3.6-3.6,5.5c-0.5,0.8-0.4,1.1,0.6,1.1c1.1,0,2.3-0.1,3.4-0.1c3.1-0.1,5.9-1,8.5-3
				c4.1-3,7.7-6.6,10.1-11.1C685.7,138.7,686.1,137.1,686.6,135.3z"/>
			<path class="st8" d="M759.7,139.2c4.6,1.4,8.6,3.9,11.7,7.8c2.5,3.1,3.5,6.7,2.9,10.6c-0.3,2.3-1.1,4.5-2.4,6.6
				c-3.3,5.6-8.2,9-14.7,9.9c-3.5,0.4-6.7-0.6-9.7-2.4c-0.9-0.4-1.5-1.1-2.2-1.9c-1.2-1.7-1-3.3,0.9-4.3c1.4-0.7,2.6-1.6,3.9-2.7
				c2-1.4,3.3-3.3,4.4-5.5c1.2-2.3,1.3-4.8,1.1-7.2c0-0.8-0.4-0.9-1.1-0.8c-2.5,0.4-4.8,1.4-6.8,2.7c-4,2.7-7,6.3-9.1,10.4
				c-2.9,5.7-3.4,11.8-2.9,18c0.4,3.6,0.9,7.1,1.4,10.7c0.1,1.5,0.2,1.6,1.8,1.2c10.9-2.1,21.7-4.6,32.6-6.8
				c2.4-0.5,4.8-1.1,7.2-1.6c1.6-0.4,3.2-0.4,5-0.3c0.9,0,1.8,0.3,2.6,0.7c1.5,0.8,1.6,2.2,0.3,3.2c-0.8,0.6-1.8,1-2.8,1.3
				c-4.1,1.1-8.1,2-12.1,3c-10,2.4-19.9,4.3-30,6.4c-0.8,0.2-1.6,0.5-2.6,0.6c-0.8,0.2-1.1,0.7-1,1.6c0.2,2.1,0.2,4.4,0.2,6.6
				c-0.1,4.3-0.9,8.4-2.2,12.6c-2.9,9-11.5,14.7-20.1,15c-8.4,0.3-15.6-3-21.5-8.7c-2.6-2.5-4.2-5.7-4.5-9.4
				c-0.5-3.4,0.6-6.3,3.1-8.8c2.4-2.2,4.9-3.7,7.7-5c5.4-2.5,11.2-4.1,16.9-5.9c1.3-0.4,1.3-0.4,1.1-1.9c-0.9-5.3-1.5-10.9-2.3-16.4
				c-0.9-6.2-0.7-12.4,0.6-18.5c1.3-6.4,4.7-11.3,9.5-15.4c8-6.7,17.2-8.5,27-7.4c1.2,0.1,2.1,0.3,3.2,0.5
				C757.8,138.4,758.7,138.8,759.7,139.2z M718.7,215.4c0.6-1.4,0.9-2.7,1.1-4.1c0.2-1.9,0.3-3.9,0-5.8c0.1-0.7-0.1-0.9-0.8-0.7
				c-0.4,0.2-0.7,0.2-1,0.3c-3.9,1.4-7.6,3.2-11.2,5.1c-1.2,0.6-2.3,1.5-3.2,2.5c-0.7,0.7-1.3,1.3-1.6,2.3
				c-1.7,3.6,0.3,8.8,5.2,10.5c0.5,0.2,1.3,0.1,1.8-0.1c3.2-1.2,6.2-2.7,7.9-5.9C717.6,218.2,718.4,216.8,718.7,215.4z"/>
		</g>
		<g>
			<path class="st8" d="M290.2,588.4c-0.5,0.3-0.6,0.8-0.9,1.2c-8.4,17.2-17.3,34.1-25.2,51.5c-5.7,12.7-10.7,25.5-15.6,38.3
				c-2.4,6.1-4.3,12.3-6.5,18.3c-0.9,2.6-2.8,4.4-5.5,5.6c-3.8,1.7-7.4,2.3-11.4,1.8c-2.4-0.4-4.3-1.6-5.7-3.4
				c-1.6-2.2-2.6-4.7-3.6-7.4c-1.8-5.3-3-10.6-3.9-16.1c-1-5.1-1.4-10.2-1.7-15.3c-0.5-11.2-0.9-22.5-0.7-33.9
				c0.3-6.2,0.5-12.6,1.1-18.9c-0.1-0.5,0-1,0-1.8c-0.5,0.3-0.6,0.6-0.7,1c-6.7,13.4-13,26.8-19.5,40.1
				c-7.1,14.1-13.8,28.3-21.5,42.1c-5.3,9.6-11,19.2-17.9,28.3c-1.4,2-3.1,3.6-5,5.2c-2.8,2.4-6.2,4-10.1,4.1
				c-0.9,0.1-1.7,0.1-2.5-0.2c-1.8-0.6-2.4-1.5-1.7-3.2c0.6-0.8,1-1.5,1.5-2.3c8.8-12.6,15.8-25.9,22.9-39.1
				c4-7.7,8.1-15.5,11.9-23.3c4-8.5,8.1-17.1,12.1-25.6c7.7-16.2,15.3-32.2,23-48.4c4.3-8.9,7.9-18,11.8-27.2c1-2.3,2.1-4.5,2.9-7
				c1.3-3.4,4-5.5,7.4-6.9c3.8-1.5,7.6-2.1,11.6-1.7c3.9,0.6,5.9,2,6.5,5.5c0.6,3.3,0.4,6.6,0.4,9.8c-0.1,8.4-0.8,17-1.1,25.5
				c-0.4,12.7-0.7,25.4-1.3,38.2c-0.6,13.7-1,27.4-1.2,41.1c0.1,0.3-0.2,0.5,0.2,0.9c0.4-0.7,0.6-1.3,1.1-1.9
				c6.8-15.3,13.6-30.5,20.8-45.8c6.9-14.7,14.1-29.3,21-44.1c4.2-8.7,8-17.4,11-26.5c1.3-4.2,4.1-6.5,8.5-8.1
				c2.8-1,5.7-1.5,8.5-1.5c1.3-0.1,2.5,0.1,3.6,0.3c3.6,0.8,5.3,2.7,5.9,5.8c0.6,4.1,0.4,8.3,0.5,12.5c0,8.3-0.9,16.6-1.4,24.9
				c-1,12.7-2.2,25.3-2.9,38.1c-0.3,9.3-0.6,18.6,0,27.8c0.3,6.1,1.4,11.8,3.1,17.6c0.8,2.6,1.9,4.9,3,7.2c1,1.7,2.2,3.1,3.6,4.2
				c5.8,4.8,12.3,8.6,20.2,10.7c4,1.2,8.1,1,12.2-0.7c2.4-0.9,5.1-1.7,7.8-2.3c0.9-0.1,1.6-0.2,2.6-0.1c2.2,0,3.5,1.3,2.9,3.4
				c-0.4,0.9-0.9,1.7-1.7,2.5c-2.6,2.4-5.8,4.1-9.3,5.4c-11.1,4-22.2,4-33.1,1c-9.6-2.6-18-7.2-25.3-13.3c-0.9-0.5-1.6-1.1-2.3-1.7
				c-4-2.8-6.2-6.7-8.2-10.9c-3-7.1-4.1-14.6-4.4-22.3c-1-15.8-0.4-31.7,1.2-47.7c0.3-3.5,0.6-7,0.8-10.4
				C290.5,588.9,290.6,588.6,290.2,588.4z"/>
			<path class="st8" d="M392.9,596.9c-0.9,2.5-1.8,5.1-2.7,7.6c-2.1,5.4-4,10.5-6.1,15.9c-1,2.3-2.3,4.8-3.9,7
				c-2.5,3.5-5.8,6.3-10,8.2c-3.8,1.8-7.9,3-12.3,3.1c-7.4,0.3-12.6-2.9-16.5-7.8c-2.3-2.9-3.6-6.3-4.5-9.8
				c-2.3-9.1-2-18.5-0.7-27.9c0.7-4.7,2.3-9.3,4.3-13.8c1.8-4.3,3.9-8.5,6.7-12.4c4.1-5.7,9.6-9.9,16.1-13.2
				c5.2-2.4,10.6-4.1,16.1-5.1c4.8-0.8,9.1-0.4,13.1,1.6c0.4,0.2,0.7,0.4,1.2,0.6c1.2,0.6,1.3,0.4,1.7-0.7c0.3-0.9,0.5-1.8,0.9-2.6
				c0.6-1.7,1.2-3.2,2.5-4.7c2.9-3.3,7-5,11.3-6c2.1-0.6,4.1-0.5,5.9-0.2c2.1,0.5,3.2,1.6,3.8,3.2c0.5,1.5,0.6,3,0.5,4.3
				c-0.2,2.2-0.4,4.5-0.7,6.6c-0.3,4.8-0.8,9.6-1.3,14.4c-0.3,2.4-0.2,4.7-0.1,7c0.1,5.6-0.7,11.1-0.6,16.7c-0.1,6,0.4,12,2.4,17.7
				c0.3,0.7,0.7,1.6,1.2,2.4c0.4,0.7,0.8,0.7,1.4,0c0.9-0.8,1.4-1.6,1.9-2.5c2.9-4.5,5-9.3,6.9-14.1c3.6-8.4,7.1-16.9,10.7-25.2
				c1.1-2.5,2.5-4.5,4.9-6c1.1-0.7,2.1-1.2,3.4-0.8c1.2,0.8,1.4,1.9,1.2,2.9c-0.2,2.2-1.1,4.2-1.8,6.3c-3.5,9.7-7.7,19.1-11.7,28.6
				c-1.5,3.7-2.7,7.4-4.9,10.8c-3.9,6.3-10,10-17.8,10.8c-6.9,0.7-12.2-1.7-16-6.6c-2.4-3-3.6-6.8-4.5-10.5c-0.5-2-1.1-3.9-1.6-5.8
				C393.2,596.8,393.1,596.8,392.9,596.9z M391.7,567.8c-3.1-0.1-4.6-1.6-6.2-3.1c-1.4-1.4-2.8-2.6-4.3-3.6c-3.7-2.4-5.7-2.1-9,1.5
				c-0.2,0.4-0.5,0.7-0.8,1.1c-2.2,3.2-4,6.7-5.1,10.2c-1.8,6.3-2.9,12.6-3.3,18.9c-0.5,8.2,0.4,16,2,23.8c0.4,2.4,0.6,4.8,2.1,6.8
				c0.4,0.5,0.3,1.4,1.2,1.3c0.8,0.1,0.9-0.8,1.3-1.4c2.6-4.2,4.4-8.8,6.1-13.4c3.6-10,7-20.1,10.3-30.4
				C387.1,575.7,388.1,571.7,391.7,567.8z M393.8,490.7c2.4-1,4.6-1.2,7-1.2c3.2,0.4,5.2,2.1,5.7,4.9c1.2,5.3-0.8,10.3-3.9,15
				c-1.3,1.9-2.8,3.8-4.5,5.5c-3.2,3.2-6,6.8-9.1,10.2c-2.2,2.1-4.4,4.3-6.8,6.1c-2.4,2-5.2,3.4-8.5,4c-1.7,0.2-3.4,0.3-4.9-0.3
				s-2.1-1.6-1.1-3.3c1-1.7,2.4-3.1,3.6-4.7c2.3-2.9,4.7-5.7,7-8.5c3.2-3.7,4.9-7.8,6.1-12.2c0.9-3,1.9-6,2.8-9.1
				C387.9,493.9,390.2,491.6,393.8,490.7z"/>
			<path class="st8" d="M503,513.4c0.7-0.9,0.5-1.5,0.7-2.1c0.6-5.8,4.4-9.6,10.6-11.8c2.6-1,5.2-1.7,8.1-1.7c0.4,0,0.9-0.1,1.5,0
				c3.5,0.2,5.2,1.6,5.6,4.8c0.3,3.4,0.5,6.8,0.3,10.2c-0.2,8.7-1.2,17.5-2.1,26.3c-0.2,2.9-0.4,5.9-0.7,8.9c0.1,0.3-0.1,0.7,0.3,1
				c0.5-0.2,0.9-0.8,1.3-1.3c6.2-6.2,12.4-12.7,19.1-18.8c1.6-1.5,3.5-3,5.6-4c1.2-0.6,2.3-0.7,3.6-0.9c1.8,0.1,2.5,1,1.8,2.6
				c-0.4,1-1.1,1.9-2,2.7c-8.8,9.6-17.9,18.7-27,28.1c-3.7,3.5-3.7,3.5-4.1,8.2c-1,11-1.4,22.1-2,33.1c-0.6,10-1.3,19.9-2.7,29.8
				c-0.4,3.3-1.1,6.5-2.8,9.7c-4.3,9.2-14.8,13.6-23.6,13.2c-4.3-0.2-8-1.3-11.2-3.6c-4.7-3.2-9-6.7-12.2-11.1
				c-4.2-5.7-4.8-12.2-2.1-19.1c1.8-4.4,4.3-8.6,7.1-12.5c5.7-8.4,12.6-16.1,19.4-23.7c0.8-0.9,1.5-2,1.5-3.1
				c0.2-3.5,0.4-6.9,0.6-10.5c0-0.5,0.2-1.1,0.1-1.5c-0.6,0.4-0.7,0.9-0.7,1.2c-1.4,3.4-2.7,6.9-3.9,10.3c-1.4,3.4-3,6.6-5,10
				c-5.8,9.4-18.6,13.2-27,11.8c-4.9-0.7-8.4-3.2-11.4-6.4c-1.7-1.8-2.9-4-3.9-6.4c-2.4-6.2-3.2-12.6-3.1-19.3
				c0-5.2,0.3-10.2,1.3-15.2c1.1-5.4,3.4-10.3,5.5-15.3c1.7-3.6,3.7-7,6.3-10.2c4-5,8.9-8.8,14.7-11.5c5.6-2.9,11.6-4.7,17.7-5.4
				c5.4-0.6,10.1,0.3,14.2,3.3C502.5,513.2,502.7,513.1,503,513.4z M499,529.3c-1.9-0.4-3.2-0.9-4.5-1.8c-0.9-0.9-1.9-1.7-2.7-2.4
				c-1.5-1.5-3.2-2.6-4.9-3.7c-1.9-1-3.5-0.5-5,0.5c-1.1,0.9-2.1,1.9-2.7,2.9c-2.2,3.2-4.3,6.8-5.4,10.4c-2.5,8.7-3.7,17.5-3.5,26.2
				c0.1,6.3,0.9,12.2,2.2,18.2c0.4,1.9,1,3.7,2,5.3c0.1,0.4,0.3,1,0.9,1c0.8,0.1,0.9-0.6,1.2-1.1c1.7-2.9,3.3-5.9,4.6-9
				c4.1-10.8,7.8-21.9,11.5-32.9C494.1,538.4,495.1,533.4,499,529.3z M496.6,596.6c-0.9,0.3-0.9,0.6-1.2,0.9c-1,1.7-2.2,3.2-3.4,4.9
				c-2.8,4.4-5.6,8.7-7.3,13.4c-2.2,6.1-0.8,11.1,3.4,15.5c2.1,2.1,4.6,4,7.1,5.8c0.3,0.2,0.6,0.8,1.5,0.5
				C497,624.1,496.5,610.4,496.6,596.6z"/>
			<path class="st8" d="M553.9,553.6c-1.3-7.3-2.6-14.9-1.7-22.5c0.7-5.6,1.4-11.4,2.6-17c1.5-6.4,3.9-12.7,6.9-18.9
				c0.7-1.1,1.4-2.1,2.4-2.9c4.8-3.9,10.4-5.6,16.7-4.5c3.5,0.6,4.8,2.2,4.8,5.3c0.1,2.2-0.4,4.4-0.9,6.6c-1,4.9-2.1,9.6-3.4,14.4
				c-0.4,2.4-1,4.9-1.2,7.5c-0.6,6.2-2.1,12.4-2.9,18.5c-0.7,6.4-0.9,12.8,0.8,19c0.3,0.7,0.2,1.7,1.2,2c1,0.1,1.5-1,1.9-1.5
				c2.6-3,4.9-6,6.7-9.3c5.1-8.8,10-17.7,15-26.5c1-1.7,1.9-3.3,3.1-4.8c1-1.3,2.5-2.3,4.1-2.9c1.2-0.6,2.3-0.8,3.3-0.2
				c1.1,0.7,1.1,1.7,0.8,2.9c-0.2,1-0.7,2.1-1.1,3c-3.7,8-8.3,15.8-12.7,23.5c-2.5,4.4-5.1,9-7.5,13.5c-1.1,1.8-2.4,3.6-4,5.2
				c-4.6,4.7-10.7,6.9-17.5,6.7c-7.3-0.1-12.2-3.6-15.2-9.1c-0.6-1-1.2-2-1.4-3.1C554.4,556.9,554.3,555.3,553.9,553.6z M567.2,473
				c-0.5-2.5-0.4-4.7,0-6.9c1-6.7,3.3-12.9,6.7-19.1c3.2-6,9.8-8.8,16.8-7.2c0.8,0.2,1.6,0.5,2.4,0.8c1.1,0.7,1.6,1.6,1.7,2.9
				c-0.2,2-0.7,3.9-1.2,5.9c-1.7,5.5-3.1,11.1-4.3,16.9c-0.7,3-1.7,6-3.2,9c-0.5,1.2-1.4,2.2-3,2.9c-3.5,1.9-7.2,2.2-11,1.3
				c-1.7-0.3-3-1.1-3.7-2.6C568.1,475.4,567.4,474.1,567.2,473z"/>
			<path class="st8" d="M662.7,524.8c-1.5,2.2-3,4.5-4.5,6.6c-3.4,4.7-6.5,9.1-9.9,13.8c-1.5,2-3.4,4-5.5,5.7
				c-3.3,2.8-7.2,4.6-11.8,5.4c-4.2,0.8-8.4,0.9-12.7-0.1c-7.3-1.6-11.4-6-14-11.7c-1.5-3.4-1.9-7-1.8-10.6
				c0.1-9.3,2.8-18.4,6.4-27.2c1.9-4.4,4.6-8.4,7.6-12.2c2.9-3.7,5.9-7.2,9.6-10.3c5.4-4.5,11.8-7.1,18.9-8.7
				c5.6-1,11.3-1.2,16.8-0.8c4.8,0.5,8.9,1.9,12.3,4.9c0.4,0.3,0.6,0.6,1,0.9c1,0.9,1.2,0.7,1.8-0.3c0.5-0.8,1-1.6,1.5-2.3
				c1-1.5,2-2.8,3.6-3.9c3.7-2.5,8.1-3.1,12.5-2.9c2.2,0,4.1,0.5,5.8,1.3c1.9,1,2.7,2.3,2.8,4.1c0.1,1.6-0.2,3-0.6,4.3
				c-0.8,2.1-1.6,4.2-2.3,6.2c-1.5,4.5-3.2,9.1-5,13.6c-0.9,2.3-1.3,4.5-1.9,6.8c-1.3,5.5-3.5,10.5-4.8,16
				c-1.6,5.8-2.7,11.7-2.1,17.7c0.1,0.8,0.3,1.7,0.5,2.7c0.2,0.8,0.6,0.9,1.3,0.4c1.1-0.5,1.8-1.2,2.4-1.9c4-3.6,7.2-7.8,10.2-11.9
				c5.6-7.2,11.1-14.5,16.7-21.7c1.7-2.2,3.6-3.7,6.3-4.5c1.3-0.4,2.3-0.6,3.5,0.1c1,1,0.9,2.2,0.4,3.1c-0.8,2.1-2.1,3.8-3.3,5.6
				c-5.9,8.5-12.3,16.5-18.5,24.7c-2.4,3.2-4.5,6.5-7.5,9.2c-5.4,5.1-12.2,7.1-20,5.9c-6.9-1.1-11.3-4.8-13.7-10.5
				c-1.5-3.5-1.8-7.5-1.7-11.3c0-2.1-0.1-4.1,0-6C663,524.8,662.9,524.8,662.7,524.8z M668.8,496.4c-3-0.9-4-2.7-5.3-4.5
				c-1-1.7-2.1-3.2-3.2-4.5c-3-3.3-5-3.5-9.1-0.8c-0.3,0.3-0.7,0.5-1,0.9c-3,2.6-5.5,5.4-7.5,8.6c-3.3,5.6-6,11.5-8,17.5
				c-2.6,7.8-3.7,15.6-4.1,23.5c-0.2,2.4-0.6,4.8,0.3,7.1c0.2,0.6-0.1,1.4,0.8,1.5c0.8,0.3,1.1-0.5,1.6-1.1
				c3.6-3.4,6.5-7.4,9.3-11.4c6-8.8,11.8-17.7,17.7-26.8C662.5,502.8,664.4,499.2,668.8,496.4z"/>
		</g>
		<g>
			<path class="st9" d="M41.6,97.2c0-1.4,0-2.7,0.1-4.1c0.2-4.4,0.6-8.9,1.5-13.2c0.6-3.4,1.5-6.7,3-9.9c0.6-1.2,1.2-2.3,2-3.4
				c1.5-2,3.5-3.5,5.9-4.3c0.6-0.2,1.3-0.3,2-0.3c1.2,0,2.3,0.3,3.2,1c0.6,0.5,1.1,1,1.5,1.7c1.3,1.7,2,3.6,2.7,5.6
				c1.2,3.2,2,6.5,2.4,9.8c0.3,2.1,0.4,4.2,0.1,6.4c-0.5,3.2-2,5.9-4.7,7.9c-1.5,1.1-3.1,1.9-4.8,2.7c-0.2,0-0.4,0.1-0.5,0.2
				c-0.1,0.1-0.1,0.2,0,0.3c0.1,0,0.1,0,0.2,0.1c2.5,1,4.6,2.6,6.7,4.2c2,1.6,4,3.3,6.1,4.8c1.1,0.8,2.3,1.2,3.7,1.2
				c2.2,0,4.4-0.2,6.5-1c1.1-0.4,2.1-1,3.1-1.7c0.7-0.6,1.5-1,2.4-1.2c0.2-0.1,0.6-0.1,0.9-0.1c0.5,0.1,0.7,0.4,0.6,1
				c-0.1,0.5-0.3,0.9-0.7,1.2c-0.5,0.6-1.1,1-1.7,1.5c-2.1,1.5-4.4,2.3-6.8,3c-3.5,0.9-7.1,1-10.5,0.4c-1.9-0.3-3.7-1-5.5-1.9
				c-1.7-0.9-3.3-2-4.8-3.1c-1.4-1-2.8-2.1-4.3-3c-1.3-0.9-2.8-1.6-4.4-2c-0.2,0-0.3-0.1-0.5-0.1c-0.5,0-0.7,0.1-0.7,0.6
				c0.1,2.9,0.1,5.8,0.2,8.8c0,2.9,0.1,5.8,0,8.8c0,0.6,0,1.1-0.1,1.7c-0.2,1.1-0.7,2.1-1.6,2.8c-0.9,0.6-1.8,1.1-2.9,1.1
				c-0.8,0.1-1.4-0.2-1.9-0.8c-0.6-0.8-0.9-1.6-1.2-2.5c-1.2-3.2-2-6.5-2.7-9.8c-1-4.8-1.8-9.6-2.4-14.5c-0.2-2.2-0.3-4.4-0.5-6.5
				c-0.3-2.6-0.6-5.3-0.8-7.9c-0.1-1.7-0.2-3.3-0.4-5c0-0.4-0.1-0.8-0.1-1.2c-0.1-0.4,0-0.9,0.4-1.3c1-1.2,2.2-2,3.8-2.1
				c0.9-0.1,1.5,0.4,1.8,1.1c0.5,1.1,0.9,2.3,1.1,3.5c0.8,3.4,1.1,6.9,1.5,10.4c0.3,2.9,0.6,5.9,1,8.8
				C41.5,96.9,41.5,97.1,41.6,97.2C41.6,97.2,41.6,97.2,41.6,97.2z M46.6,91.5c0.2-0.2,0.4-0.4,0.6-0.5c0.9-0.7,2.2-0.6,3,0.2
				c0.3,0.3,0.5,0.7,0.7,1.1c0.4,0.8,1,1.1,1.8,1.2c0.9,0,1.7-0.2,2.5-0.4c0.9-0.3,1.4-0.8,1.8-1.6c0.6-1.2,0.9-2.6,1.1-4
				c0.2-2,0-3.9-0.3-5.9c-0.6-3.4-1.5-6.6-2.7-9.8c-0.4-1.1-0.9-2.1-1.4-3.1c-0.3-0.6-0.6-1-1-1.5c-0.2-0.2-0.3-0.2-0.5,0.1
				c-0.1,0.1-0.2,0.3-0.3,0.4c-0.5,0.7-1,1.6-1.4,2.4c-1.1,2.4-1.8,4.9-2.4,7.4c-1.1,4.6-1.4,9.2-1.7,13.8
				C46.5,91.3,46.5,91.4,46.6,91.5z"/>
			<path class="st9" d="M79.7,89.5c0.2,0.8,0.7,1.6,1.3,2.4c0.2,0.3,0.5,0.6,0.8,0.8c0.6,0.4,1.1,0.4,1.7,0.1c1.1-0.6,2.1-1.4,3-2.3
				c2.1-1.9,3.9-4,5.5-6.4c1.5-2.3,3-4.5,4.5-6.8c0.3-0.5,0.8-1,1.4-1.3c0.2-0.1,0.4-0.2,0.6-0.2c0.5,0,0.7,0.3,0.7,0.8
				c0,0.3-0.1,0.6-0.2,0.8c-0.7,1.4-1.5,2.7-2.4,4c-2.1,3.2-4.3,6.3-6.7,9.3c-1.3,1.7-2.8,3.1-4.7,4.2c-2.2,1.3-4.5,1.8-7,1.4
				C76.4,96,75,95.2,73.9,94c-0.8-0.9-1.4-2-1.9-3.1c-0.4-1.1-0.6-2.2-0.7-3.3c-0.2-3.2,0.4-6.2,1.7-9.1c0.8-1.9,1.9-3.6,3.3-5.1
				c1.2-1.3,2.7-2.4,4.4-3.2c1.3-0.6,2.6-1,4-1.2c1.1-0.1,2.1-0.2,3.1,0.2c1.2,0.4,2,1.1,2.5,2.2c0.2,0.7,0.4,1.3,0.3,2
				c0.1,1.5-0.1,3-0.6,4.5c-1.2,3.3-3.3,5.7-6.5,7.3c-1.3,0.6-2.7,1.2-4.1,1.5C79,86.7,79,86.9,79,87.1
				C79.2,87.9,79.4,88.6,79.7,89.5z M83.8,74.1c-0.1-0.2-0.2-0.4-0.3-0.5c-0.1-0.2-0.3-0.2-0.4-0.1c-0.1,0.1-0.2,0.1-0.3,0.2
				c-0.7,0.8-1.3,1.6-1.8,2.5c-0.9,1.6-1.4,3.3-1.8,5.1c-0.2,0.8-0.3,1.5-0.3,2.2c0,0.3,0,0.4,0.3,0.2c0.4-0.2,0.7-0.4,1.1-0.6
				c1-0.6,1.7-1.3,2.2-2.3c0.8-1.6,1.4-3.2,1.5-5C84.1,75.3,83.9,74.8,83.8,74.1z"/>
			<path class="st9" d="M108,87.4c-0.9,0.3-1.9,0.4-2.9,0.4c-2.7,0.1-4.7-1.1-6.1-3.2c-1.3-2-1.8-4.2-1.7-6.6
				c0.2-3.7,1.3-7.2,3.5-10.3c1.6-2.4,3.8-4.2,6.6-5.3c1.5-0.6,3.1-1.1,4.8-1.1c1.6,0,2.9,0.4,4.1,1.4c0.7,0.6,1.1,1.3,1.4,2.3
				c0.5,1.9,0.2,3.7-0.9,5.3c-1.1,1.7-2.8,2.3-4.8,2.3c-0.3,0-0.5-0.1-0.7-0.2c-0.6-0.2-0.8-0.7-0.7-1.3c0.1-0.3,0.3-0.6,0.4-0.9
				c0.7-1.5,0.5-2.9-0.2-4.3c-0.3-0.6-0.4-0.6-0.9-0.1c-1.1,1.1-2,2.3-2.7,3.7c-1.4,3.1-2.1,6.3-2,9.7c0.1,1.3,0.3,2.6,0.8,3.8
				c0.2,0.5,0.6,1,1,1.4c0.4,0.3,0.8,0.4,1.3,0.3c1.5-0.3,2.8-1.1,4-2.1c1.3-1.1,2.4-2.2,3.5-3.4c2.3-2.7,4.6-5.4,6.9-8.2
				c0.5-0.6,1-1.1,1.7-1.5c0.3-0.1,0.6-0.2,0.8-0.2c0.5,0,0.8,0.3,0.7,0.9c-0.1,0.3-0.2,0.6-0.4,0.8c-0.9,1.4-2,2.7-3,4
				c-1.8,2.4-3.8,4.7-5.9,6.9c-2,2.2-4.4,4-7.3,5.1C108.9,87.2,108.5,87.2,108,87.4z"/>
			<path class="st9" d="M131.5,74.8c0.1,0.9,0.4,1.7,0.9,2.6c0.2,0.4,0.4,0.7,0.7,1c0.5,0.5,1,0.6,1.6,0.4c1.2-0.4,2.3-1,3.4-1.7
				c2.5-1.5,4.6-3.3,6.6-5.3c1.9-1.9,3.8-3.8,5.6-5.8c0.4-0.5,0.9-0.9,1.6-1c0.2-0.1,0.4-0.1,0.6-0.1c0.5,0.1,0.7,0.4,0.5,0.9
				c-0.1,0.3-0.2,0.5-0.4,0.7c-1,1.3-2,2.4-3.1,3.5c-2.7,2.7-5.4,5.4-8.3,7.9c-1.5,1.5-3.4,2.5-5.4,3.2c-2.4,0.9-4.8,1-7.2,0
				c-1.6-0.6-2.8-1.6-3.7-3c-0.6-1.1-1.1-2.2-1.3-3.4c-0.2-1.1-0.2-2.3,0-3.4c0.4-3.1,1.5-6,3.3-8.7c1.2-1.7,2.5-3.2,4.2-4.4
				c1.5-1.1,3.1-1.8,4.9-2.3c1.4-0.4,2.8-0.5,4.2-0.4c1.1,0.1,2.1,0.2,3,0.8c1.1,0.6,1.8,1.4,2,2.7c0.1,0.7,0.1,1.3,0,2
				c-0.2,1.5-0.7,3-1.4,4.3c-1.8,3-4.3,5-7.7,6c-1.4,0.4-2.9,0.7-4.4,0.8c-0.3,0-0.4,0.2-0.4,0.4C131.4,73.2,131.4,73.9,131.5,74.8z
				 M138.4,60.5c-0.1-0.2-0.2-0.4-0.2-0.6c-0.1-0.2-0.2-0.2-0.4-0.1c-0.1,0-0.2,0.1-0.3,0.2c-0.9,0.6-1.6,1.3-2.3,2.1
				c-1.1,1.4-2,3-2.7,4.7c-0.3,0.7-0.5,1.4-0.7,2.1c-0.1,0.3,0,0.4,0.3,0.3c0.4-0.1,0.8-0.3,1.2-0.4c1.1-0.4,1.9-0.9,2.6-1.8
				c1.1-1.4,2-2.9,2.4-4.6C138.5,61.7,138.4,61.1,138.4,60.5z"/>
			<path class="st9" d="M157.5,75.4c0.3-0.1,0.4-0.2,0.6-0.4c1.1-1.2,2-2.4,2.9-3.7c1.3-1.8,2.7-3.6,4.1-5.4
				c0.4-0.4,0.7-0.9,1.1-1.2c0.3-0.3,0.7-0.5,1.2-0.5c0.6-0.1,1,0.3,0.9,0.9c-0.1,0.4-0.2,0.7-0.5,1c-0.8,1.2-1.6,2.3-2.4,3.5
				c-1.5,2.1-3.1,4.2-4.6,6.4c-0.7,1-1.5,1.9-2.6,2.4c-1.4,0.7-2.8,0.9-4.4,0.5c-0.9-0.3-1.5-0.8-2.1-1.5c-1-1.5-1.4-3.2-1.4-4.9
				c0.1-2.8,0.5-5.4,1.1-8.1c0.4-1.7,0.5-3.4,0.9-5.1c1.2-5.8,1.8-8.5,2.4-11.2c0.1-0.6,0.2-0.5-0.5-0.5c-21.2,2.2-23,2.9-24.8,3.8
				c-0.7,0.3-1.3,0.7-1.9,1.2c-0.3,0.3-0.3,0.3,0,0.6c0.4,0.3,0.3,0.5,0,0.8c-0.3,0.3-0.8,0.5-1.2,0.5c-1.4,0-2.6-0.4-3.5-1.3
				c-0.9-0.8-1-1.6-0.6-2.6c0.4-0.8,1-1.5,1.7-2.1c1.1-0.9,2.3-1.5,3.6-2c1.8-0.6,3.6-1,5.5-1.4c1.1-0.1,2.2-0.2,22.6-2.1
				c0.4,0,0.6-0.2,0.8-0.6c0.4-1.2,2.7-6.6,2.7-6.6c0.3-0.5,0.6-1.1,1-1.6c0.4-0.4,0.7-0.7,1.2-0.9c1.1-0.4,2.2-0.5,3.3-0.2
				c1.1,0.2,1.6,0.9,1.5,1.9c-0.1,1.1-0.3,2.2-0.7,3.2l-0.8,2.7c-0.1,0.3-0.2,0.7-0.3,1c-0.2,0.5-0.1,0.6,0.5,0.6c0.5,0,1,0.1,1.5,0
				c18.3-1.7,20.4-1.6,22.5-1.1c0.9,0.3,1.9,0.6,2.7,1.1c0.4,0.3,0.8,0.6,1,0.9c0.6,0.8,0.2,1.6-0.8,1.7c-0.5,0.1-1,0-1.5-0.2
				c-1.4-0.7-3-0.6-4.5-0.7c-18.1,1.7-19.9,1.8-21.7,1.9c-1,0-0.9,0-1.1,0.8c-1.3,5.2-3.2,13.5-4.4,18.7c-0.4,1.8-0.8,3.7-1,5.5
				c-0.1,1.2-0.1,2.4-0.1,3.5C157.4,74.8,157.5,75.1,157.5,75.4z"/>
			<path class="st9" d="M181.7,67.7c-0.4,0.6-0.9,1.3-1.3,1.9c-1,1.3-1.9,2.6-2.9,4c-0.4,0.6-1,1.2-1.6,1.6c-0.9,0.8-2,1.3-3.3,1.4
				c-1.2,0.2-2.3,0.1-3.5-0.2c-2-0.6-3-2-3.7-3.8c-0.4-1-0.4-2.1-0.4-3.2c0.2-2.8,1-5.5,2.1-8.1c0.6-1.3,1.4-2.4,2.3-3.6
				c0.8-1.1,1.7-2.1,2.8-2.9c1.5-1.3,3.3-2,5.3-2.3c1.6-0.2,3.1-0.2,4.6,0c1.3,0.2,2.4,0.7,3.3,1.7c0.1,0.1,0.2,0.2,0.3,0.3
				c0.3,0.3,0.3,0.2,0.5-0.1c0.1-0.2,0.3-0.5,0.4-0.7c0.3-0.4,0.6-0.8,1-1.1c1-0.7,2.2-0.8,3.5-0.7c0.6,0,1.1,0.2,1.6,0.5
				c0.5,0.3,0.7,0.8,0.7,1.3c0,0.5-0.1,0.9-0.2,1.3c-0.2,0.6-0.5,1.2-0.7,1.8c-0.5,1.3-1,2.7-1.5,4c-0.3,0.7-0.4,1.3-0.6,2
				c-0.4,1.6-1.1,3.1-1.5,4.7c-0.5,1.7-0.9,3.5-0.8,5.3c0,0.2,0.1,0.5,0.1,0.8c0.1,0.2,0.2,0.3,0.4,0.1c0.3-0.1,0.5-0.3,0.7-0.5
				c1.1-1,2.1-2.2,3-3.4c1.6-2.1,3.3-4.2,4.9-6.3c0.5-0.6,1-1.1,1.8-1.3c0.4-0.1,0.6-0.2,1,0.1c0.3,0.3,0.2,0.7,0.1,1
				c-0.2,0.6-0.6,1.1-1,1.6c-1.7,2.5-3.6,4.8-5.4,7.1c-0.7,0.9-1.3,1.9-2.2,2.7c-1.5,1.4-3.4,2-5.6,1.5c-1.9-0.4-3-1.6-3.6-3.4
				c-0.4-1.1-0.4-2.3-0.3-3.4c0-0.6,0-1.2,0.1-1.8C181.8,67.7,181.8,67.7,181.7,67.7z M183.8,59.3c-0.8-0.3-1.1-0.9-1.4-1.5
				c-0.3-0.5-0.5-1-0.8-1.4c-0.8-1-1.3-1.1-2.5-0.4c-0.1,0.1-0.2,0.1-0.3,0.2c-0.8,0.7-1.6,1.5-2.2,2.5c-1,1.6-1.8,3.4-2.4,5.1
				c-0.8,2.3-1.2,4.6-1.5,7c-0.1,0.7-0.2,1.4,0,2.1c0.1,0.2,0,0.4,0.2,0.5c0.2,0.1,0.3-0.1,0.4-0.3c1-1,1.9-2.1,2.7-3.3
				c1.8-2.5,3.5-5.1,5.2-7.8C182,61.1,182.6,60.1,183.8,59.3z"/>
			<path class="st9" d="M209.9,53.1c1.7,0.1,3.3,0.6,4.8,1.6c1.1,0.8,1.8,1.9,2,3.2c0.1,0.8,0,1.6-0.2,2.4c-0.7,2.1-2,3.6-4.2,4.5
				c-1.2,0.4-2.4,0.4-3.6,0c-0.3-0.1-0.6-0.2-0.9-0.4c-0.6-0.5-0.6-1-0.1-1.5c0.4-0.4,0.8-0.8,1.1-1.2c0.5-0.6,0.9-1.4,1-2.2
				c0.2-0.8,0-1.7-0.3-2.5c-0.1-0.2-0.2-0.3-0.4-0.2c-0.8,0.3-1.5,0.8-2.1,1.5c-1.1,1.2-1.9,2.6-2.2,4.2c-0.5,2.1-0.1,4.1,0.6,6.1
				c0.5,1.1,0.9,2.3,1.5,3.4c0.2,0.5,0.2,0.5,0.7,0.2c3.6-1.6,7.1-3.3,10.7-4.9c0.8-0.4,1.6-0.7,2.3-1.1c0.5-0.2,1.1-0.4,1.7-0.5
				c0.3-0.1,0.7,0,1,0c0.6,0.1,0.8,0.6,0.4,1c-0.2,0.3-0.5,0.5-0.9,0.7c-1.3,0.7-2.6,1.3-3.9,2c-3.2,1.6-6.5,3.1-9.8,4.6
				c-0.3,0.1-0.5,0.3-0.8,0.4c-0.3,0.1-0.3,0.3-0.2,0.6c0.3,0.7,0.5,1.4,0.6,2.1c0.4,1.4,0.4,2.8,0.4,4.3c-0.2,3.2-2.6,5.8-5.6,6.6
				c-2.9,0.8-5.7,0.3-8.2-1.1c-1.1-0.6-2-1.5-2.4-2.7c-0.5-1.1-0.3-2.1,0.3-3.1c0.6-0.9,1.4-1.6,2.2-2.3c1.7-1.3,3.5-2.3,5.3-3.3
				c0.4-0.3,0.4-0.3,0.2-0.7c-0.8-1.7-1.5-3.4-2.3-5.2c-0.9-2-1.4-4-1.5-6.1c-0.1-2.2,0.6-4.1,1.9-5.8c2.2-2.8,5.2-4.2,8.7-4.7
				c0.4-0.1,0.8-0.1,1.2-0.1C209.1,53,209.5,53.1,209.9,53.1z M202.6,81.6c0.1-0.5,0.1-0.9,0-1.4c-0.1-0.6-0.3-1.3-0.5-1.9
				c0-0.2-0.1-0.3-0.3-0.2c-0.1,0.1-0.2,0.1-0.3,0.2c-1.2,0.8-2.3,1.7-3.4,2.6c-0.4,0.3-0.7,0.7-0.9,1.1c-0.2,0.3-0.3,0.5-0.4,0.9
				c-0.2,1.3,0.9,2.9,2.8,3c0.2,0,0.5-0.1,0.6-0.2c1-0.6,1.9-1.4,2.2-2.6C202.4,82.6,202.6,82,202.6,81.6z"/>
		</g>
	</g>
	<g id="subtitulo">
		<g>
			<path class="st9" d="M330.9,768.7c0.1-0.6,0.5-0.9,1.2-1l1.8-0.1c0.3,0,0.5,0.1,0.7,0.3c0.2,0.2,0.3,0.4,0.3,0.7
				c0,0.2,0,0.4-0.1,0.6c-0.3,0.9-0.8,1.7-1.6,2.4c-0.7,0.7-1.6,1.3-2.6,1.7c-1,0.4-2,0.7-3,0.8c-1.8,0.2-3.6-0.2-5.2-1
				c-1.6-0.8-2.9-2.1-3.9-3.8c-1-1.7-1.6-3.7-1.8-6c-0.1-1.8,0-3.5,0.3-5.1c0.4-1.6,0.9-3.1,1.7-4.4s1.7-2.4,2.8-3.2
				c1.1-0.8,2.3-1.3,3.6-1.4c0.9-0.1,1.8,0,2.7,0.3c0.9,0.3,1.9,0.7,2.7,1.3c0.9,0.6,1.6,1.2,2.3,1.9c0.7,0.7,1.2,1.5,1.5,2.3
				c0,0,0,0.1,0,0.2c0,0.1,0,0.1,0,0.2c0,0.3,0,0.5-0.2,0.7c-0.2,0.2-0.4,0.3-0.7,0.4l-2,0.2c-0.6,0.1-1-0.3-1.2-0.9
				c-0.3-0.8-0.6-1.5-1.2-2.2c-0.5-0.7-1.1-1.3-1.8-1.8s-1.4-0.7-2.1-0.6c-0.9,0.1-1.6,0.5-2.2,1.2c-0.6,0.7-1.1,1.7-1.5,2.8
				c-0.4,1.2-0.6,2.4-0.8,3.8c-0.1,1.4-0.2,2.7,0,4c0.1,1.4,0.4,2.6,0.8,3.8c0.4,1.2,1,2.1,1.6,3c0.6,0.8,1.3,1.5,2.1,1.9
				c0.7,0.4,1.4,0.6,2.2,0.6c0.4,0,0.8-0.2,1.3-0.4c0.5-0.2,0.9-0.6,1.3-1C330.4,770.1,330.7,769.5,330.9,768.7z"/>
			<path class="st9" d="M343.4,756.2c1.6,0,3,0.3,4.2,1.1s2.1,1.8,2.8,3.1c0.7,1.3,1,2.8,1.1,4.4c0,1.6-0.3,3-0.9,4.3
				c-0.6,1.3-1.5,2.3-2.6,3c-1.1,0.7-2.4,1.1-4,1.1c-1.6,0-3-0.3-4.2-1.1c-1.2-0.7-2.2-1.7-2.9-3c-0.7-1.3-1-2.7-1.1-4.3
				c0-1.6,0.3-3.1,0.9-4.4c0.6-1.3,1.5-2.3,2.6-3C340.6,756.6,341.9,756.3,343.4,756.2z M343.5,758.2c-0.8,0-1.5,0.3-2.1,0.9
				s-1,1.4-1.3,2.4c-0.3,1-0.5,2.1-0.4,3.4c0,2.3,0.5,3.9,1.3,5c0.9,1,1.9,1.6,3.2,1.5c1,0,1.7-0.3,2.3-1c0.6-0.6,1-1.4,1.2-2.4
				c0.2-1,0.4-2,0.3-3.1c0-2-0.4-3.6-1.2-4.8C345.9,758.8,344.8,758.2,343.5,758.2z"/>
			<path class="st9" d="M352.5,769.5c-0.1-0.1-0.1-0.2-0.1-0.4c0-0.3,0.1-0.5,0.4-0.6c0.2-0.2,0.5-0.3,0.8-0.2l1.9,0.1
				c0.5,0,0.8,0.3,1,0.9c0.1,0.6,0.5,1.1,1.1,1.6c0.6,0.4,1.5,0.6,2.8,0.7c1.4,0.1,2.3-0.2,2.9-0.6c0.5-0.5,0.8-1.2,0.9-2.1
				c0-0.9-0.3-1.7-1-2.3c-0.7-0.6-1.7-0.9-2.9-0.9c-1.8,0-3.2-0.3-4.2-0.7s-1.8-1-2.2-1.6c-0.4-0.7-0.6-1.4-0.6-2.2
				c0.1-1.5,0.8-2.7,2.2-3.5c1.4-0.8,3.3-1.2,5.8-1.1c2.8,0.1,4.8,0.8,6.2,2c0.6,0.5,0.8,0.9,0.8,1.3c0,0.2-0.1,0.4-0.3,0.5
				l-0.6,0.4c-0.2,0.1-0.4,0.2-0.6,0.2c-0.2,0-0.4-0.1-0.5-0.2c-0.9-0.7-1.7-1.3-2.6-1.6c-0.8-0.4-1.7-0.6-2.6-0.6
				c-1.2,0-2.1,0.2-2.8,0.7c-0.7,0.5-1,1.2-1,2.1c0,0.8,0.2,1.4,0.6,1.8c0.5,0.4,1.3,0.6,2.4,0.6c1.5,0.1,2.8,0.3,4,0.7
				c1.2,0.4,2.2,1,2.9,1.8c0.7,0.8,1.1,1.7,1,2.7c0,0.9-0.4,1.7-1.1,2.4c-0.7,0.7-1.6,1.2-2.8,1.6c-1.2,0.4-2.5,0.5-4,0.4
				c-1.9-0.1-3.6-0.5-5-1.3C353.8,771.4,352.9,770.5,352.5,769.5z"/>
			<path class="st9" d="M391.8,774.5c0,0.3-0.2,0.6-0.4,0.8c-0.2,0.2-0.5,0.3-0.8,0.2l-1.9-0.2c-0.3,0-0.5-0.2-0.7-0.4
				c-0.2-0.2-0.3-0.5-0.2-0.9c0.2-2.5,0.4-4.5,0.6-6.2c0.1-1.6,0.2-3,0.2-4c0-1,0-1.7-0.1-2.2c-0.1-0.5-0.3-0.8-0.6-1
				c-0.3-0.2-0.6-0.3-1-0.3c-0.8-0.1-1.5,0.1-2,0.6c-0.6,0.5-0.9,1.4-1,2.6l-1,10c-0.1,0.5-0.3,0.8-0.9,0.9c0,0,0,0-0.1,0
				c0,0-0.1,0-0.1,0c0,0,0,0,0,0c0,0-0.1,0-0.2,0l-1.6-0.2l0,0c0,0-0.1,0-0.1,0c0,0-0.1,0-0.1,0l0,0c-0.5-0.2-0.7-0.6-0.7-1.1l0-0.1
				c0.2-2.5,0.4-4.6,0.5-6.2c0.1-1.7,0.2-3,0.1-4c0-1-0.1-1.7-0.2-2.2c-0.1-0.5-0.4-0.8-0.7-1c-0.3-0.2-0.7-0.3-1.1-0.3
				c-0.8-0.1-1.4,0.1-1.9,0.7s-0.8,1.4-0.9,2.7l-1,10c0,0.3-0.2,0.5-0.4,0.7c-0.2,0.2-0.5,0.3-0.8,0.2l-1.9-0.2
				c-0.3,0-0.5-0.2-0.7-0.4c-0.2-0.2-0.3-0.5-0.2-0.8l1.4-14.4c0-0.3,0.2-0.5,0.4-0.7c0.2-0.2,0.5-0.3,0.8-0.2l1.9,0.2
				c0.3,0,0.6,0.2,0.8,0.5c0.8-0.2,1.7-0.2,2.7-0.1c1.1,0.1,2,0.3,2.8,0.6s1.3,0.7,1.7,1.2c1.3-0.8,2.8-1.1,4.6-0.9
				c1.3,0.1,2.3,0.4,3.1,0.7c0.8,0.3,1.4,0.9,1.7,1.6c0.4,0.7,0.6,1.6,0.7,2.8c0.1,1.2,0,2.7-0.1,4.5
				C392.2,769.8,392,772,391.8,774.5z"/>
			<path class="st9" d="M407.2,776c-0.8,0.5-1.7,1-2.8,1.3s-2.2,0.4-3.4,0.2c-2.6-0.4-4.5-1.5-5.7-3.2c-1.2-1.7-1.6-3.9-1.2-6.4
				c0.3-1.6,0.8-3,1.7-4.1c0.9-1.2,1.9-2,3.2-2.6s2.7-0.7,4.2-0.5c1.6,0.3,2.9,0.8,4,1.7c1.1,0.9,1.9,1.9,2.4,3.2
				c0.5,1.3,0.6,2.7,0.4,4.2c0,0.3-0.2,0.5-0.4,0.7c-0.2,0.2-0.5,0.2-0.8,0.2l-11.3-1.8c-0.2,1.9,0,3.4,0.8,4.6
				c0.7,1.2,1.8,1.9,3.1,2.1c0.7,0.1,1.2,0,1.7-0.3s0.9-0.7,1.4-1.3c0.3-0.4,0.7-0.5,1.2-0.4l1.1,0.5c0.6,0.3,0.9,0.7,0.8,1.3
				C407.6,775.7,407.5,775.9,407.2,776z M403,762.6c-0.6-0.1-1.2,0-1.9,0.4c-0.7,0.4-1.3,0.9-1.8,1.6c-0.6,0.7-1,1.5-1.3,2.4
				l8.2,1.3c0.1-1.5-0.1-2.8-0.6-3.9S404.1,762.8,403,762.6z M408.4,754c0.3,0.1,0.5,0.2,0.4,0.6c0,0.2-0.1,0.3-0.2,0.5
				c-0.1,0.1-0.2,0.3-0.5,0.6s-0.6,0.6-0.9,1c-0.4,0.4-0.7,0.7-1,1c-0.3,0.3-0.5,0.5-0.6,0.6c-0.2,0.2-0.4,0.4-0.7,0.7
				c-0.3,0.2-0.5,0.4-0.7,0.3l-1.9-0.3c-0.3,0-0.4-0.2-0.3-0.5c0-0.2,0.1-0.5,0.3-0.7c0.1-0.1,0.2-0.3,0.5-0.6
				c0.2-0.3,0.5-0.6,0.8-1c0.3-0.4,0.5-0.7,0.8-1c0.2-0.3,0.4-0.5,0.5-0.6c0.2-0.2,0.4-0.4,0.6-0.6c0.2-0.2,0.4-0.2,0.7-0.2
				L408.4,754z"/>
			<path class="st9" d="M416.8,779.4c-0.1,0.7-0.5,1-1.2,0.8l-1.6-0.3c-0.7-0.1-1-0.5-0.8-1.2l2.6-13.4l-3-0.6
				c-0.7-0.1-1-0.5-0.9-1.1c0.1-0.6,0.5-0.9,1.2-0.7l3,0.6l1.3-6.8c0.1-0.7,0.5-1,1.2-0.8l1.6,0.3c0.7,0.1,1,0.5,0.8,1.2l-1.3,6.8
				l3,0.6c0.7,0.1,1,0.5,0.9,1.1c-0.1,0.6-0.5,0.9-1.2,0.7l-3-0.6L416.8,779.4z"/>
			<path class="st9" d="M426.7,780.8c-0.1,0.3-0.2,0.5-0.4,0.7c-0.2,0.2-0.5,0.2-0.8,0.2l-1.9-0.3c-0.3-0.1-0.5-0.2-0.7-0.4
				c-0.2-0.2-0.2-0.5-0.2-0.8l2.5-13.9c0.1-0.3,0.2-0.5,0.4-0.7c0.2-0.2,0.5-0.2,0.8-0.2l1.9,0.3c0.3,0.1,0.5,0.2,0.7,0.4
				c0.2,0.2,0.2,0.5,0.2,0.8L426.7,780.8z M430.1,761.8c-0.1,0.3-0.2,0.5-0.4,0.7c-0.2,0.2-0.5,0.2-0.8,0.2l-1.9-0.3
				c-0.3-0.1-0.5-0.2-0.7-0.4c-0.2-0.2-0.2-0.5-0.2-0.8l0.3-1.9c0.1-0.3,0.2-0.5,0.4-0.7c0.2-0.2,0.5-0.2,0.8-0.2l1.9,0.3
				c0.3,0.1,0.5,0.2,0.7,0.4c0.2,0.2,0.2,0.5,0.2,0.8L430.1,761.8z"/>
			<path class="st9" d="M446.4,773c0,0.2,0.1,0.3,0,0.4c0,0.3-0.2,0.5-0.4,0.6c-0.2,0.1-0.5,0.2-0.8,0.2l-1.7-0.1
				c-0.3,0-0.5-0.1-0.6-0.3c-0.2-0.2-0.3-0.4-0.3-0.7c-0.2-1.1-0.5-2-1-2.8c-0.5-0.8-1.3-1.2-2.2-1.3c-0.7-0.1-1.4,0.1-2,0.6
				s-1.2,1.2-1.7,2.2s-0.8,2-1,3.2c-0.3,2-0.2,3.7,0.3,4.9c0.5,1.2,1.5,2,2.9,2.2c0.9,0.1,1.7-0.1,2.4-0.7s1.3-1.5,1.7-2.8
				c0.2-0.6,0.7-0.8,1.2-0.7l1.8,0.4c0.3,0.1,0.5,0.2,0.7,0.4s0.2,0.5,0.2,0.7c0,0.1-0.1,0.2-0.1,0.3c-0.7,1.5-1.8,2.6-3.2,3.4
				c-1.4,0.8-3.1,1-5,0.7c-2.6-0.4-4.5-1.5-5.7-3.2c-1.2-1.7-1.6-3.9-1.2-6.4c0.2-1.6,0.8-3,1.7-4.1s1.9-2,3.2-2.6
				c1.3-0.6,2.7-0.7,4.2-0.5c1.2,0.2,2.2,0.6,3.1,1.1s1.7,1.3,2.4,2.1C445.8,771.2,446.2,772.1,446.4,773z"/>
			<path class="st9" d="M452.9,786.2c-1.4-0.2-2.5-0.7-3.3-1.5c-0.9-0.8-1.5-1.9-1.8-3.2c-0.3-1.3-0.4-2.8-0.2-4.4
				c0.2-1.6,0.7-3,1.4-4.2c0.7-1.2,1.7-2.1,2.8-2.8s2.4-0.9,3.8-0.7c1.8,0.2,3.3,0.8,4.4,1.7c1.1,0.9,1.9,2,2.3,3.3
				c0.4,1.3,0.6,2.6,0.4,4c0,0.1,0,0.2,0,0.3c0,1.4,0,2.7,0,3.9c0,1.2,0.1,2.2,0.2,2.9c0,0.1,0,0.2,0,0.3c-0.1,0.6-0.5,1-1.1,1
				l-1.8,0c-0.6,0-0.9-0.3-1-0.9c0-0.3-0.1-0.7-0.1-1.1c-0.8,0.5-1.7,0.9-2.7,1.1S454.1,786.3,452.9,786.2z M453.1,784.3
				c1,0.1,1.9-0.1,2.7-0.7c0.8-0.6,1.4-1.4,1.9-2.4c0.5-1,0.8-2.1,0.9-3.2c0,0,0-0.1,0-0.1c0-0.1,0-0.2,0-0.4c0-0.1,0-0.2,0-0.3
				c0.1-0.9,0-1.8-0.2-2.7c-0.2-0.9-0.6-1.6-1.1-2.1c-0.5-0.6-1.2-0.9-2-1c-0.4-0.1-0.9,0.2-1.5,0.8s-1,1.4-1.4,2.4s-0.7,2-0.8,3.1
				s-0.1,2.2,0,3.2c0.1,1,0.3,1.8,0.6,2.5C452.5,783.9,452.8,784.2,453.1,784.3z"/>
			<path class="st9" d="M493.5,766.9c0.1-0.7,0.5-1,1.2-0.9l1.3,0.1c0.7,0.1,1,0.5,0.9,1.2l-2.4,22.1c-0.1,0.7-0.5,1-1.2,0.9
				l-2.3-0.2c-0.6-0.1-1-0.4-1.2-0.9l-7.2-19.1l-1.9,17.8c-0.1,0.7-0.5,1-1.2,0.9l-1.3-0.1c-0.7-0.1-1-0.5-0.9-1.2l2.4-22.1
				c0.1-0.7,0.5-1,1.2-0.9l2.3,0.2c0.6,0.1,1,0.4,1.2,0.9l7.2,19.1L493.5,766.9z"/>
			<path class="st9" d="M503.1,791.8c-1.4-0.2-2.5-0.7-3.3-1.5c-0.9-0.8-1.4-1.9-1.8-3.2c-0.3-1.3-0.4-2.8-0.2-4.4
				c0.2-1.6,0.7-3,1.4-4.2c0.7-1.2,1.7-2.1,2.8-2.8c1.1-0.6,2.4-0.9,3.8-0.7c1.8,0.2,3.3,0.8,4.4,1.7c1.1,0.9,1.9,2,2.3,3.3
				s0.6,2.6,0.4,4c0,0.1,0,0.2,0,0.3c0,1.4,0,2.7,0,3.9c0,1.2,0.1,2.2,0.2,2.9c0,0.1,0,0.2,0,0.3c-0.1,0.6-0.5,1-1.1,1l-1.8,0
				c-0.6,0-0.9-0.3-1-0.9c0-0.3-0.1-0.7-0.1-1.1c-0.8,0.5-1.7,0.9-2.7,1.1C505.4,791.9,504.3,791.9,503.1,791.8z M503.3,789.9
				c1,0.1,1.9-0.1,2.7-0.7c0.8-0.6,1.4-1.4,1.9-2.4c0.5-1,0.8-2.1,0.9-3.2c0,0,0-0.1,0-0.1c0-0.1,0-0.2,0-0.4c0-0.1,0-0.2,0-0.3
				c0.1-0.9,0-1.8-0.2-2.7c-0.2-0.9-0.6-1.6-1.1-2.1c-0.5-0.6-1.2-0.9-2-1c-0.4-0.1-0.9,0.2-1.5,0.8c-0.5,0.6-1,1.4-1.4,2.4
				s-0.7,2-0.8,3.1c-0.1,1.1-0.2,2.2,0,3.2c0.1,1,0.3,1.8,0.6,2.5C502.7,789.5,503,789.8,503.3,789.9z"/>
			<path class="st9" d="M521.3,793c-0.1,0.7-0.5,1-1.2,0.9l-1.7-0.2c-0.7-0.1-1-0.5-0.9-1.2l1.5-13.6l-3-0.3c-0.7-0.1-1-0.4-0.9-1.1
				c0.1-0.6,0.5-0.9,1.2-0.8l3,0.3l0.8-6.9c0.1-0.7,0.5-1,1.2-0.9l1.7,0.2c0.7,0.1,1,0.5,0.9,1.2l-0.8,6.9l3,0.3
				c0.7,0.1,1,0.4,0.9,1.1c-0.1,0.6-0.5,0.9-1.2,0.8l-3-0.3L521.3,793z"/>
			<path class="st9" d="M543.1,793.9c0,0.3-0.1,0.6-0.3,0.8c-0.2,0.2-0.5,0.3-0.8,0.3l-1.6-0.1c-0.3,0-0.5-0.1-0.7-0.3
				s-0.3-0.4-0.3-0.6c-0.7,0.3-1.5,0.6-2.3,0.8s-1.8,0.3-2.7,0.2c-1.5-0.1-2.7-0.3-3.5-0.8s-1.4-1.3-1.8-2.5
				c-0.4-1.2-0.5-2.8-0.6-4.8c0-2,0-4.5,0.1-7.6c0-0.3,0.1-0.6,0.4-0.8s0.5-0.3,0.8-0.3l1.6,0.1c0.3,0,0.5,0.1,0.8,0.4
				c0.2,0.2,0.3,0.5,0.3,0.9c-0.1,2.4-0.1,4.4-0.1,6c0,1.6,0.1,2.9,0.2,3.9c0.1,1,0.2,1.8,0.4,2.3c0.2,0.5,0.4,0.9,0.7,1.1
				c0.3,0.2,0.6,0.3,0.9,0.3c1,0,1.8-0.2,2.6-0.6s1.4-1.1,1.8-1.9c0.5-0.8,0.7-1.7,0.8-2.8l0.3-8.2c0-0.3,0.1-0.6,0.3-0.8
				c0.2-0.2,0.5-0.3,0.8-0.3l1.6,0.1c0.3,0,0.5,0.1,0.8,0.3c0.2,0.2,0.3,0.5,0.3,0.8L543.1,793.9z"/>
			<path class="st9" d="M558.2,779.1c0.3,0.2,0.5,0.4,0.7,0.6c0.2,0.2,0.3,0.4,0.3,0.6c0,0.1-0.1,0.3-0.2,0.4l-0.6,0.4
				c-0.2,0.2-0.4,0.2-0.6,0.2c-0.2,0-0.4-0.1-0.5-0.2c-0.6-0.5-1-0.8-1.4-0.9c-0.4-0.2-0.8-0.2-1.2-0.2c-0.7,0-1.4,0.4-2,1
				c-0.6,0.7-1.1,1.6-1.5,2.7c-0.4,1.1-0.6,2.3-0.5,3.6l0.1,6.4c0,0.7-0.3,1.1-1,1.1l-1.6,0c-0.3,0-0.6-0.1-0.8-0.3
				c-0.2-0.2-0.3-0.5-0.3-0.8l-0.3-14.2c0-0.7,0.3-1.1,1-1.1l1.7,0c0.7,0,1.1,0.3,1.1,0.9c0.6-0.4,1.2-0.7,1.9-0.9s1.5-0.4,2.3-0.4
				c0.7,0,1.3,0,1.9,0.2C557.2,778.5,557.7,778.7,558.2,779.1z"/>
			<path class="st9" d="M566.8,794.6c-1.4,0.1-2.5-0.2-3.5-0.8c-1-0.7-1.8-1.6-2.4-2.8s-0.9-2.6-1-4.3c-0.1-1.6,0.1-3.1,0.6-4.4
				c0.5-1.3,1.3-2.4,2.2-3.3s2.2-1.3,3.6-1.4c1.8-0.1,3.4,0.2,4.6,0.9c1.3,0.7,2.2,1.6,2.9,2.8c0.7,1.2,1.1,2.5,1.1,3.9
				c0,0.1,0,0.2,0,0.3c0.2,1.4,0.5,2.7,0.8,3.8c0.3,1.1,0.5,2.1,0.8,2.9c0,0.1,0,0.1,0,0.3c0,0.6-0.3,1-0.9,1.2l-1.8,0.3
				c-0.6,0.1-1-0.1-1.2-0.7c-0.1-0.3-0.2-0.7-0.3-1c-0.7,0.7-1.5,1.2-2.4,1.6C569.1,794.3,568,794.5,566.8,794.6z M566.7,792.7
				c1-0.1,1.9-0.5,2.5-1.2s1.1-1.6,1.4-2.7c0.3-1.1,0.4-2.2,0.3-3.3c0,0,0-0.1,0-0.1c0-0.1,0-0.2-0.1-0.3c0-0.1,0-0.2,0-0.3
				c-0.1-0.9-0.4-1.8-0.7-2.6c-0.4-0.8-0.9-1.4-1.5-1.9s-1.3-0.7-2.2-0.6c-0.4,0-0.9,0.4-1.3,1.1c-0.4,0.7-0.7,1.5-1,2.6
				c-0.2,1-0.3,2.1-0.2,3.2c0.1,1.1,0.3,2.1,0.5,3.1c0.3,1,0.6,1.7,1,2.3C566,792.4,566.3,792.7,566.7,792.7z"/>
			<path class="st9" d="M578.3,770.1c0-0.3,0.1-0.6,0.4-0.8c0.3-0.2,0.6-0.4,1-0.4l1.1-0.1c0.4,0,0.8,0,1,0.2
				c0.3,0.2,0.5,0.4,0.5,0.7l2,22.4c0,0.3-0.1,0.6-0.3,0.8c-0.3,0.2-0.6,0.4-1,0.4l-1.1,0.1c-0.4,0-0.8,0-1.1-0.2
				c-0.3-0.2-0.5-0.4-0.5-0.7L578.3,770.1z"/>
		</g>
		<g>
			<path class="st9" d="M503.6,855.2c-0.1,0.4-0.4,0.6-0.9,0.6l-0.9,0c-0.5,0-0.7-0.2-0.7-0.5c0-0.1,0-0.2,0.1-0.3l1.4-4
				c-0.1-0.1-0.2-0.2-0.3-0.4l-5.2-10.6c-0.1-0.1-0.1-0.2-0.1-0.4c0-0.4,0.2-0.5,0.7-0.5l1.4,0c0.4,0,0.7,0.2,0.9,0.6l3.5,8.2
				l2.9-8.3c0.1-0.4,0.4-0.6,0.9-0.6l1.2,0c0.5,0,0.7,0.2,0.7,0.5c0,0.1,0,0.2-0.1,0.3L503.6,855.2z"/>
			<path class="st9" d="M520.1,833.9c0-0.5,0.2-0.8,0.8-0.8c0.7-0.1,1.3-0.1,1.9-0.2c0.6,0,1.1-0.1,1.7-0.1c1.7,0,3.2,0.1,4.2,0.5
				c1.1,0.4,1.8,0.9,2.3,1.6c0.5,0.7,0.8,1.5,0.8,2.4c0,0.9-0.2,1.7-0.7,2.4c-0.5,0.7-1.4,1.2-2.7,1.6c2.6,0.8,3.9,2.2,4,4.1
				c0,1.1-0.2,2-0.7,2.7s-1.3,1.4-2.4,1.8s-2.6,0.7-4.5,0.7c-0.5,0-1,0-1.6,0c-0.6,0-1.2,0-1.8-0.1c-0.6,0-0.8-0.3-0.8-0.8
				L520.1,833.9z M522.9,834.2l0.2,6.4c1.5-0.1,2.8-0.2,3.7-0.5s1.5-0.7,1.9-1.1c0.4-0.5,0.6-1,0.6-1.7c0-0.6-0.2-1.2-0.4-1.7
				c-0.3-0.5-0.7-0.9-1.4-1.2c-0.6-0.3-1.5-0.4-2.6-0.4c-0.2,0-0.5,0-0.9,0C523.5,834.2,523.2,834.2,522.9,834.2z M523.2,849.4
				c0.2,0,0.5,0,0.8,0c0.3,0,0.5,0,0.7,0c1.6,0,2.8-0.4,3.6-1s1.2-1.6,1.2-2.8c0-1.2-0.5-2-1.5-2.6s-2.6-0.9-4.9-0.9L523.2,849.4z"
				/>
			<path class="st9" d="M537.3,835.5c0,0.2-0.1,0.4-0.2,0.6c-0.2,0.2-0.3,0.2-0.6,0.2l-1.5,0c-0.2,0-0.4-0.1-0.6-0.2
				c-0.2-0.1-0.3-0.3-0.3-0.5l0-1.4c0-0.2,0.1-0.4,0.2-0.6c0.2-0.2,0.3-0.2,0.6-0.2l1.5,0c0.2,0,0.4,0.1,0.6,0.2
				c0.2,0.1,0.3,0.3,0.3,0.5L537.3,835.5z M537.7,849.4c0,0.2-0.1,0.4-0.2,0.6s-0.3,0.2-0.6,0.2l-1.5,0c-0.2,0-0.4-0.1-0.6-0.2
				c-0.2-0.1-0.3-0.3-0.3-0.5l-0.3-10.2c0-0.2,0.1-0.4,0.2-0.6c0.2-0.2,0.3-0.2,0.6-0.2l1.5,0c0.2,0,0.4,0.1,0.6,0.2
				c0.2,0.1,0.3,0.3,0.3,0.5L537.7,849.4z"/>
			<path class="st9" d="M550.6,848.1c-0.5,0.5-1.1,0.9-1.9,1.3s-1.6,0.6-2.5,0.6c-2,0.1-3.6-0.4-4.7-1.4c-1.2-1-1.8-2.5-1.8-4.4
				c0-1.2,0.2-2.2,0.6-3.2c0.5-0.9,1.1-1.7,2-2.3c0.9-0.6,1.9-0.9,3.1-0.9c1.2-0.1,2.3,0.2,3.2,0.6s1.7,1.1,2.2,1.9
				c0.6,0.8,0.9,1.8,0.9,2.9c0,0.2-0.1,0.4-0.2,0.5c-0.1,0.1-0.3,0.2-0.6,0.2l-8.7,0.4c0.1,1.4,0.5,2.4,1.3,3.1s1.6,1.1,2.6,1
				c0.5,0,0.9-0.2,1.2-0.4c0.3-0.3,0.6-0.7,0.9-1.1c0.2-0.3,0.4-0.5,0.8-0.4l0.9,0.2c0.5,0.1,0.8,0.4,0.8,0.8
				C550.8,847.8,550.7,847.9,550.6,848.1z M545.4,839.3c-0.5,0-0.9,0.2-1.4,0.6c-0.4,0.3-0.8,0.8-1.1,1.4c-0.3,0.6-0.5,1.2-0.6,1.9
				l6.3-0.3c-0.1-1.1-0.5-2-1.1-2.6S546.3,839.2,545.4,839.3z"/>
			<path class="st9" d="M564.8,848c0,0.2-0.1,0.4-0.2,0.6s-0.3,0.2-0.6,0.3l-1.4,0.1c-0.2,0-0.4-0.1-0.6-0.2
				c-0.2-0.2-0.3-0.4-0.3-0.6c-0.1-1.1-0.1-2-0.1-2.6c0-0.6-0.1-1.1-0.1-1.4s0-0.6-0.1-0.8c-0.1-1.5-0.3-2.7-0.7-3.5s-1-1.2-1.8-1.2
				c-1,0.1-1.7,0.3-2.2,0.7c-0.4,0.4-0.6,1.1-0.6,2l0.4,7.2c0,0.2-0.1,0.4-0.2,0.6c-0.2,0.2-0.3,0.2-0.6,0.3l-1.5,0.1
				c-0.2,0-0.4-0.1-0.6-0.2c-0.2-0.1-0.3-0.3-0.3-0.5l-0.6-10.4c0-0.2,0.1-0.4,0.2-0.6s0.3-0.2,0.6-0.3l1.5-0.1
				c0.4,0,0.6,0.1,0.8,0.4c0.9-0.3,1.9-0.5,3-0.6c1.1-0.1,2.1,0.1,2.8,0.4c0.7,0.3,1.2,0.7,1.6,1.3c0.4,0.6,0.7,1.2,0.8,2
				c0.2,0.7,0.3,1.5,0.4,2.4c0,0.2,0.1,0.5,0.1,0.8s0,0.8,0.1,1.4S564.7,846.9,564.8,848z"/>
			<path class="st9" d="M576.6,846.5c-0.5,0.5-1.1,1-1.8,1.4c-0.7,0.4-1.6,0.6-2.5,0.7c-2,0.1-3.6-0.3-4.8-1.3c-1.2-1-1.8-2.4-2-4.3
				c-0.1-1.2,0.1-2.2,0.5-3.2c0.4-1,1.1-1.7,2-2.3c0.9-0.6,1.9-0.9,3.1-1c1.2-0.1,2.3,0.1,3.2,0.5c0.9,0.4,1.7,1,2.3,1.9
				c0.6,0.8,0.9,1.8,1,2.9c0,0.2,0,0.4-0.2,0.5c-0.1,0.1-0.3,0.2-0.6,0.2l-8.7,0.6c0.2,1.4,0.6,2.4,1.4,3.1c0.7,0.7,1.6,1,2.7,1
				c0.5,0,0.9-0.2,1.2-0.5c0.3-0.3,0.6-0.7,0.8-1.2c0.2-0.3,0.4-0.5,0.8-0.4l0.9,0.1c0.5,0.1,0.8,0.3,0.8,0.7
				C576.7,846.2,576.7,846.3,576.6,846.5z M571.2,837.8c-0.5,0-0.9,0.2-1.3,0.6s-0.8,0.8-1.1,1.4c-0.3,0.6-0.5,1.2-0.6,1.9l6.2-0.5
				c-0.2-1.1-0.6-1.9-1.1-2.6C572.7,838,572,837.8,571.2,837.8z"/>
			<path class="st9" d="M578.9,845.5c-0.1-0.1-0.1-0.2-0.1-0.2c0-0.2,0.1-0.3,0.2-0.5c0.2-0.1,0.4-0.2,0.6-0.2l1.4-0.1
				c0.4,0,0.7,0.2,0.8,0.6c0.2,0.4,0.5,0.8,1,1s1.2,0.3,2.1,0.2c1-0.1,1.7-0.3,2.1-0.7c0.4-0.4,0.5-0.9,0.5-1.6
				c-0.1-0.7-0.4-1.2-0.9-1.5c-0.6-0.3-1.3-0.5-2.3-0.3c-1.4,0.2-2.4,0.1-3.3-0.1c-0.8-0.2-1.4-0.5-1.8-1s-0.6-1-0.7-1.5
				c-0.1-1.1,0.3-2,1.3-2.7c1-0.7,2.4-1.2,4.3-1.3c2.1-0.2,3.7,0.1,4.9,0.8c0.5,0.3,0.7,0.6,0.7,0.8c0,0.2,0,0.3-0.2,0.4l-0.4,0.3
				c-0.2,0.1-0.3,0.2-0.4,0.2c-0.2,0-0.3,0-0.4-0.1c-0.7-0.4-1.4-0.7-2.1-0.9c-0.7-0.2-1.3-0.3-2-0.2c-0.9,0.1-1.6,0.3-2,0.8
				s-0.6,1-0.6,1.6c0.1,0.6,0.3,1,0.7,1.2c0.4,0.2,1,0.3,1.9,0.2c1.1-0.1,2.1-0.1,3.1,0.1c1,0.2,1.7,0.5,2.4,1s0.9,1.1,1,1.8
				c0.1,0.7-0.1,1.3-0.6,1.8s-1.1,1-2,1.4c-0.9,0.4-1.8,0.6-3,0.7c-1.5,0.1-2.8,0-3.9-0.4S579.3,846.1,578.9,845.5z"/>
			<path class="st9" d="M597.5,845.6c0.1,0.5-0.2,0.8-0.7,0.8l-1.3,0.1c-0.5,0.1-0.8-0.2-0.9-0.7l-1-9.8l-2.3,0.2
				c-0.5,0.1-0.8-0.1-0.9-0.6c0-0.5,0.2-0.7,0.7-0.8l2.3-0.2l-0.5-5c-0.1-0.5,0.2-0.8,0.7-0.8l1.3-0.1c0.5-0.1,0.8,0.2,0.9,0.7
				l0.5,5l2.3-0.2c0.5-0.1,0.8,0.1,0.9,0.6c0,0.5-0.2,0.7-0.7,0.8l-2.3,0.2L597.5,845.6z"/>
			<path class="st9" d="M605.6,845.4c-1,0.1-1.9,0-2.7-0.5s-1.4-1.1-1.9-1.9c-0.5-0.9-0.8-1.9-0.9-3c-0.1-1.1,0-2.2,0.3-3.2
				c0.3-1,0.9-1.8,1.6-2.4c0.7-0.6,1.6-1,2.7-1.2c1.4-0.2,2.6,0,3.5,0.4c1,0.4,1.8,1.1,2.3,1.9c0.6,0.8,0.9,1.7,1,2.7
				c0,0.1,0,0.1,0,0.2c0.2,1,0.5,1.9,0.7,2.7s0.5,1.5,0.7,2c0,0,0,0.1,0,0.2c0.1,0.5-0.2,0.8-0.7,0.9l-1.4,0.3
				c-0.4,0.1-0.7,0-0.9-0.4c-0.1-0.2-0.2-0.5-0.3-0.7c-0.5,0.5-1.1,0.9-1.8,1.3C607.3,845.1,606.5,845.3,605.6,845.4z M605.5,844
				c0.8-0.1,1.4-0.4,1.9-1c0.5-0.6,0.8-1.2,0.9-2c0.2-0.8,0.2-1.6,0.1-2.4c0,0,0,0,0-0.1c0-0.1,0-0.2-0.1-0.2c0-0.1,0-0.1,0-0.2
				c-0.1-0.7-0.3-1.3-0.7-1.8c-0.3-0.6-0.7-1-1.2-1.3c-0.5-0.3-1-0.4-1.7-0.3c-0.3,0-0.6,0.3-0.9,0.8c-0.3,0.5-0.5,1.1-0.6,1.9
				c-0.1,0.8-0.2,1.5-0.1,2.3c0.1,0.8,0.3,1.5,0.5,2.2s0.6,1.2,0.9,1.6C604.9,843.9,605.2,844.1,605.5,844z"/>
			<path class="st9" d="M621.8,831.7c0.2,0.1,0.4,0.2,0.6,0.4c0.2,0.1,0.2,0.3,0.3,0.4c0,0.1,0,0.2-0.1,0.3l-0.4,0.4
				c-0.1,0.1-0.3,0.2-0.4,0.2c-0.1,0-0.3,0-0.4-0.1c-0.5-0.3-0.8-0.4-1.2-0.5c-0.3-0.1-0.6-0.1-0.9,0c-0.5,0.1-1,0.4-1.4,0.9
				c-0.4,0.5-0.7,1.2-0.9,2s-0.2,1.7-0.1,2.6l0.7,4.6c0.1,0.5-0.2,0.8-0.7,0.9l-1.2,0.2c-0.2,0-0.4,0-0.6-0.1s-0.3-0.3-0.3-0.5
				l-1.4-10.1c-0.1-0.5,0.2-0.8,0.7-0.9l1.2-0.2c0.5-0.1,0.8,0.1,0.9,0.6c0.4-0.3,0.9-0.6,1.4-0.8c0.5-0.2,1.1-0.4,1.7-0.5
				c0.5-0.1,1-0.1,1.4-0.1C621,831.4,621.4,831.5,621.8,831.7z"/>
			<path class="st9" d="M644.5,837.7c0.5-0.1,0.8,0.1,0.9,0.5c0.1,0.5-0.1,0.7-0.7,0.8l-9.3,1.8c-0.5,0.1-0.8-0.1-0.9-0.6l-3-15.7
				c-0.1-0.5,0.1-0.8,0.6-0.9l9.3-1.8c0.5-0.1,0.8,0.1,0.9,0.5s-0.1,0.7-0.7,0.8l-7,1.3l1.3,6.7l6.4-1.2c0.5-0.1,0.8,0.1,0.9,0.5
				c0.1,0.5-0.1,0.7-0.7,0.8l-6.4,1.2l1.2,6.4L644.5,837.7z"/>
			<path class="st9" d="M663.4,834.2c0.1,0.2,0,0.5-0.1,0.6c-0.1,0.2-0.3,0.3-0.5,0.4l-1.4,0.3c-0.2,0-0.4,0-0.6-0.1
				c-0.2-0.1-0.3-0.3-0.4-0.5c-0.4-1.8-0.7-3.2-1-4.4c-0.3-1.2-0.5-2.1-0.7-2.7c-0.2-0.7-0.4-1.2-0.6-1.5s-0.4-0.5-0.6-0.6
				c-0.2-0.1-0.5-0.1-0.8,0c-0.6,0.1-1,0.4-1.3,0.9c-0.3,0.5-0.3,1.2-0.1,2l1.6,7c0.1,0.4-0.1,0.7-0.4,0.8c0,0,0,0,0,0
				c0,0-0.1,0-0.1,0c0,0,0,0,0,0c0,0-0.1,0-0.1,0l-1.2,0.3l0,0c0,0-0.1,0-0.1,0c0,0-0.1,0-0.1,0l0,0c-0.4,0-0.7-0.2-0.8-0.6l0-0.1
				c-0.4-1.8-0.7-3.2-1-4.4c-0.3-1.2-0.6-2.1-0.8-2.7s-0.5-1.2-0.7-1.5c-0.2-0.3-0.5-0.5-0.7-0.5c-0.3-0.1-0.5,0-0.9,0
				c-0.6,0.1-1,0.4-1.2,0.9c-0.2,0.5-0.2,1.1,0,2l1.6,7c0,0.2,0,0.4-0.1,0.6c-0.1,0.2-0.3,0.3-0.5,0.4l-1.4,0.3
				c-0.2,0-0.4,0-0.6-0.1c-0.2-0.1-0.3-0.3-0.4-0.5l-2.3-10.1c0-0.2,0-0.4,0.1-0.6c0.1-0.2,0.3-0.3,0.5-0.4l1.4-0.3
				c0.3-0.1,0.5,0,0.7,0.1c0.6-0.3,1.2-0.5,1.9-0.7c0.8-0.2,1.5-0.3,2.1-0.3c0.6,0,1.1,0.2,1.5,0.4c0.7-0.8,1.8-1.4,3.1-1.7
				c0.9-0.2,1.7-0.3,2.4-0.2c0.6,0.1,1.2,0.3,1.6,0.7c0.4,0.4,0.8,1,1.2,1.8c0.3,0.8,0.6,1.8,1,3.1
				C662.7,830.8,663,832.4,663.4,834.2z"/>
			<path class="st9" d="M667.3,821.6c1.2-0.3,2.2-0.3,3.3,0c1,0.3,1.9,0.8,2.6,1.6c0.7,0.8,1.2,1.7,1.5,2.9c0.3,1.1,0.3,2.1,0.1,3.1
				s-0.7,1.9-1.4,2.6c-0.7,0.7-1.6,1.2-2.7,1.5c-1.2,0.3-2.3,0.3-3.3,0c-1-0.3-1.9-0.8-2.6-1.6c-0.7-0.8-1.2-1.7-1.5-2.8
				c-0.3-1.1-0.3-2.2-0.1-3.2s0.7-1.9,1.4-2.6S666.2,821.9,667.3,821.6z M667.7,823c-0.6,0.2-1.1,0.5-1.4,1s-0.5,1.1-0.6,1.9
				c-0.1,0.8,0,1.6,0.2,2.4c0.4,1.6,1,2.7,1.8,3.2c0.8,0.6,1.7,0.7,2.6,0.5c0.7-0.2,1.2-0.5,1.5-1.1c0.3-0.5,0.5-1.2,0.5-1.9
				s-0.1-1.5-0.3-2.2c-0.3-1.4-0.9-2.4-1.7-3.1C669.6,823,668.7,822.7,667.7,823z"/>
			<path class="st9" d="M686.5,819.9c0.1,0.1,0.1,0.2,0.2,0.3c0.1,0.2,0,0.4-0.1,0.5c-0.1,0.2-0.3,0.3-0.5,0.4l-1.2,0.5
				c-0.2,0.1-0.4,0.1-0.5,0s-0.3-0.2-0.4-0.3c-0.4-0.7-1-1.2-1.6-1.5c-0.6-0.3-1.2-0.4-1.9-0.2c-0.5,0.1-0.9,0.5-1.2,1
				c-0.3,0.5-0.5,1.2-0.5,1.9s0,1.6,0.3,2.4c0.4,1.4,1,2.4,1.7,3.1c0.8,0.6,1.6,0.8,2.7,0.5c0.7-0.2,1.2-0.6,1.5-1.2
				c0.3-0.6,0.4-1.4,0.3-2.3c0-0.5,0.2-0.7,0.7-0.8l1.4-0.3c0.2,0,0.4,0,0.6,0.1c0.2,0.1,0.3,0.2,0.4,0.4c0,0.1,0,0.1,0,0.2
				c0,1.2-0.4,2.3-1.2,3.2c-0.8,0.9-1.8,1.6-3.2,2c-1.9,0.5-3.6,0.4-4.9-0.3c-1.4-0.8-2.3-2-2.8-3.8c-0.3-1.1-0.4-2.2-0.1-3.2
				c0.2-1,0.7-1.9,1.4-2.7c0.7-0.8,1.6-1.3,2.8-1.6c0.9-0.2,1.7-0.3,2.5-0.2c0.8,0.1,1.6,0.3,2.3,0.6
				C685.5,819,686,819.4,686.5,819.9z"/>
			<path class="st9" d="M689.5,812.7c0.1,0.2,0,0.4-0.1,0.6c-0.1,0.2-0.3,0.3-0.5,0.4l-1.4,0.4c-0.2,0.1-0.4,0-0.6-0.1
				c-0.2-0.1-0.3-0.3-0.4-0.5l-0.4-1.3c-0.1-0.2,0-0.4,0.1-0.6c0.1-0.2,0.3-0.3,0.5-0.4l1.4-0.4c0.2-0.1,0.4,0,0.6,0.1
				s0.3,0.3,0.4,0.5L689.5,812.7z M693.5,825.9c0.1,0.2,0,0.4-0.1,0.6s-0.3,0.3-0.5,0.4l-1.4,0.4c-0.2,0.1-0.4,0-0.6-0.1
				s-0.3-0.3-0.4-0.5l-2.9-9.7c-0.1-0.2,0-0.4,0.1-0.6c0.1-0.2,0.3-0.3,0.5-0.4l1.4-0.4c0.2-0.1,0.4,0,0.6,0.1
				c0.2,0.1,0.3,0.3,0.4,0.5L693.5,825.9z"/>
			<path class="st9" d="M697.6,813c1.1-0.4,2.2-0.4,3.3-0.2c1,0.2,1.9,0.7,2.7,1.5c0.8,0.7,1.3,1.7,1.7,2.8c0.3,1.1,0.4,2.1,0.2,3.1
				c-0.2,1-0.6,1.9-1.3,2.6c-0.7,0.8-1.5,1.3-2.6,1.7c-1.2,0.4-2.3,0.4-3.3,0.2s-1.9-0.7-2.7-1.4c-0.8-0.7-1.3-1.6-1.7-2.7
				c-0.4-1.1-0.4-2.2-0.3-3.2s0.6-1.9,1.3-2.7C695.6,813.9,696.5,813.3,697.6,813z M698.1,814.3c-0.6,0.2-1.1,0.5-1.4,1.1
				c-0.3,0.5-0.5,1.2-0.5,1.9s0.1,1.6,0.4,2.4c0.5,1.5,1.2,2.6,2,3.1c0.8,0.5,1.7,0.6,2.6,0.4c0.7-0.2,1.2-0.6,1.5-1.2
				c0.3-0.6,0.4-1.2,0.4-1.9c0-0.7-0.2-1.5-0.4-2.2c-0.4-1.3-1.1-2.4-1.9-3C700,814.1,699,814,698.1,814.3z"/>
			<path class="st9" d="M718.9,817.6c0.1,0.2,0.1,0.4,0,0.6s-0.3,0.3-0.5,0.4l-1.3,0.4c-0.2,0.1-0.4,0.1-0.6,0
				c-0.2-0.1-0.3-0.3-0.4-0.5c-0.4-1.1-0.7-1.9-0.9-2.5c-0.2-0.6-0.4-1-0.5-1.3c-0.1-0.3-0.2-0.6-0.3-0.8c-0.5-1.5-1-2.5-1.6-3.2
				c-0.6-0.7-1.3-0.9-2-0.6c-0.9,0.3-1.6,0.8-1.9,1.3c-0.3,0.5-0.3,1.2,0,2.1l2.3,6.8c0.1,0.2,0.1,0.4-0.1,0.6
				c-0.1,0.2-0.3,0.3-0.5,0.4l-1.4,0.5c-0.2,0.1-0.4,0.1-0.6,0s-0.3-0.2-0.4-0.4l-3.4-9.8c-0.1-0.2-0.1-0.4,0.1-0.6
				c0.1-0.2,0.3-0.3,0.5-0.4l1.4-0.5c0.3-0.1,0.6-0.1,0.9,0.2c0.7-0.6,1.6-1,2.7-1.4c1.1-0.4,2-0.5,2.8-0.4c0.8,0.1,1.4,0.4,1.9,0.8
				c0.5,0.4,1,1,1.3,1.7c0.4,0.7,0.7,1.4,1,2.2c0.1,0.2,0.2,0.5,0.3,0.8c0.1,0.3,0.3,0.8,0.5,1.3
				C718.2,815.7,718.5,816.5,718.9,817.6z"/>
			<path class="st9" d="M725.1,816.5c-1,0.4-1.9,0.4-2.7,0.2c-0.9-0.2-1.6-0.7-2.3-1.4c-0.7-0.7-1.2-1.6-1.6-2.7
				c-0.4-1.1-0.5-2.1-0.4-3.2c0.1-1,0.4-1.9,1-2.7s1.3-1.4,2.3-1.7c1.3-0.5,2.5-0.6,3.5-0.4c1.1,0.2,2,0.7,2.7,1.3
				c0.7,0.7,1.3,1.5,1.6,2.4c0,0.1,0,0.1,0.1,0.2c0.5,0.9,0.9,1.8,1.3,2.5c0.4,0.7,0.8,1.3,1.1,1.8c0,0,0.1,0.1,0.1,0.2
				c0.2,0.4,0,0.8-0.4,1l-1.2,0.6c-0.4,0.2-0.7,0.1-1-0.2c-0.1-0.2-0.3-0.4-0.4-0.7c-0.4,0.6-0.8,1.2-1.4,1.6
				C726.7,815.8,725.9,816.2,725.1,816.5z M724.6,815.2c0.7-0.3,1.3-0.7,1.6-1.4c0.3-0.6,0.5-1.4,0.5-2.2c0-0.8-0.2-1.6-0.4-2.4
				c0,0,0,0,0-0.1c0-0.1-0.1-0.1-0.1-0.2c0-0.1,0-0.1-0.1-0.2c-0.3-0.6-0.6-1.2-1.1-1.6c-0.4-0.5-0.9-0.8-1.4-1s-1.1-0.2-1.7,0
				c-0.3,0.1-0.6,0.5-0.7,1c-0.2,0.6-0.2,1.2-0.2,2c0,0.8,0.2,1.5,0.5,2.3c0.3,0.7,0.6,1.4,1,2c0.4,0.6,0.8,1.1,1.2,1.4
				C724,815.2,724.4,815.3,724.6,815.2z"/>
			<path class="st9" d="M728.5,797.1c-0.1-0.2,0-0.4,0.1-0.6c0.1-0.2,0.4-0.4,0.7-0.5l0.7-0.3c0.3-0.1,0.6-0.1,0.8-0.1
				c0.3,0.1,0.4,0.2,0.5,0.4l5.8,15.1c0.1,0.2,0,0.4-0.1,0.6c-0.1,0.2-0.4,0.4-0.6,0.5l-0.7,0.3c-0.3,0.1-0.6,0.1-0.8,0.1
				s-0.4-0.2-0.5-0.4L728.5,797.1z"/>
		</g>
	</g>
</g>
</svg>
