<svg xmlns="http://www.w3.org/2000/svg" version="1.1" xmlns:xlink="http://www.w3.org/1999/xlink" width="512" height="512" x="0" y="0" viewBox="0 0 512 512" style="enable-background:new 0 0 512 512" xml:space="preserve" class=""><g><path d="M434.528 222.057c11.356 0 20.594-9.238 20.594-20.594V174.04c0-11.355-9.238-20.594-20.594-20.594h-19.013V84.028c0-15.008-12.211-27.219-27.219-27.219H97.431c-25.225 0-45.747 20.522-45.747 45.747v363.697c0 25.225 20.522 45.747 45.747 45.747h290.865c15.009 0 27.219-12.21 27.219-27.219v-60.344h19.013c11.356 0 20.594-9.238 20.594-20.594V376.42c0-3.858-1.086-7.459-2.939-10.549a20.434 20.434 0 0 0 2.939-10.549v-27.423c0-11.355-9.238-20.594-20.594-20.594h-19.013v-85.251h19.013zm0-48.52c.278 0 .504.226.504.504v27.423a.504.504 0 0 1-.504.504h-19.013v-28.43h19.013zM109.793 446.68h144.374a6.028 6.028 0 0 0 0-12.054H109.793v-10.072h285.633v10.072h-55.031a6.028 6.028 0 0 0 0 12.054h55.031v11.528a11.048 11.048 0 0 1-7.085 2.562h-274.1a4.453 4.453 0 0 1-4.448-4.449zM395.425 84.028v320.435H120.268V76.9h268.028c3.931 0 7.129 3.198 7.129 7.128zM97.431 76.9h10.783v327.564H97.219a45.277 45.277 0 0 0-25.445 7.79V102.557c0-14.148 11.509-25.657 25.657-25.657zm290.865 415.01H97.431c-14.147 0-25.657-11.51-25.657-25.657v-16.254c0-14.031 11.415-25.445 25.445-25.445h.519v31.767c0 9.099 7.403 16.503 16.502 16.503h274.1c2.471 0 4.85-.393 7.085-1.113v13.07a7.137 7.137 0 0 1-7.129 7.129zm46.736-88.066a.504.504 0 0 1-.504.504h-19.013v-28.43h19.013c.278 0 .504.226.504.504zm-.504-76.446c.278 0 .504.226.504.504v27.423a.504.504 0 0 1-.504.504h-19.013v-28.43h19.013z" fill="#ffffff" opacity="1" data-original="#000000" class=""></path><path d="M144.833 360.498c13.676 0 24.803 11.126 24.803 24.802a6.027 6.027 0 0 0 6.027 6.027h164.762a6.027 6.027 0 0 0 6.027-6.027c0-13.676 11.127-24.802 24.803-24.802a6.028 6.028 0 0 0 6.027-6.027V127.798a6.028 6.028 0 0 0-6.027-6.027c-13.676 0-24.803-11.127-24.803-24.803a6.027 6.027 0 0 0-6.027-6.027H175.663a6.027 6.027 0 0 0-6.027 6.027c0 13.676-11.126 24.803-24.803 24.803a6.027 6.027 0 0 0-6.027 6.027V354.47a6.028 6.028 0 0 0 6.027 6.028zm6.027-227.165c15.505-2.561 27.776-14.832 30.337-30.337H334.89c2.561 15.505 14.832 27.776 30.337 30.337v215.603c-15.505 2.561-27.776 14.832-30.337 30.337H181.197c-2.561-15.505-14.832-27.776-30.337-30.337z" fill="#ffffff" opacity="1" data-original="#000000" class=""></path><path d="M206.54 332.088a51.083 51.083 0 0 0 4.64 21.358 6.028 6.028 0 0 0 10.966 0c6.404-14.03 20.495-23.095 35.898-23.095s29.494 9.065 35.898 23.095a6.028 6.028 0 0 0 10.966 0 51.09 51.09 0 0 0 4.64-21.358c0-19.679-11.099-36.808-27.361-45.477 16.262-8.668 27.361-25.798 27.361-45.477s-11.099-36.808-27.361-45.476c16.262-8.668 27.361-25.798 27.361-45.477a51.091 51.091 0 0 0-4.64-21.359 6.028 6.028 0 0 0-10.966 0c-6.404 14.03-20.494 23.095-35.898 23.095s-29.494-9.066-35.898-23.095a6.028 6.028 0 0 0-10.966 0 51.091 51.091 0 0 0-4.64 21.359c0 19.679 11.098 36.808 27.361 45.477-16.262 8.668-27.361 25.798-27.361 45.476 0 19.679 11.098 36.808 27.361 45.477-16.262 8.669-27.361 25.798-27.361 45.477zm12.054-181.906c0-1.462.079-2.912.236-4.348 9.649 11.31 23.937 18.138 39.213 18.138s29.564-6.828 39.213-18.138c.157 1.435.236 2.886.236 4.348 0 21.753-17.697 39.45-39.45 39.45-21.751-.001-39.448-17.698-39.448-39.45zm0 90.952c0-21.752 17.697-39.449 39.45-39.449s39.45 17.697 39.45 39.449c0 21.753-17.697 39.45-39.45 39.45s-39.45-17.697-39.45-39.45zm39.45 51.504c21.753 0 39.45 17.697 39.45 39.45 0 1.462-.079 2.912-.236 4.348-9.649-11.309-23.937-18.138-39.213-18.138s-29.564 6.829-39.213 18.138a39.708 39.708 0 0 1-.236-4.348c-.002-21.753 17.695-39.45 39.448-39.45zM320.38 296.394a6.028 6.028 0 0 0 6.027-6.027v-9.965a6.028 6.028 0 0 0-12.054 0v9.965a6.028 6.028 0 0 0 6.027 6.027zM342.413 256.699a6.028 6.028 0 0 0 6.027-6.027v-9.965a6.028 6.028 0 0 0-12.054 0v9.965a6.027 6.027 0 0 0 6.027 6.027zM179.855 323.682a6.028 6.028 0 0 0 6.027-6.027v-9.965a6.028 6.028 0 0 0-12.054 0v9.965a6.027 6.027 0 0 0 6.027 6.027zM174.174 241.4c-5.548 0-10.045-4.497-10.045-10.045v-32.467c0-5.548 4.497-10.045 10.045-10.045s10.045 4.497 10.045 10.045v32.467c0 5.548-4.497 10.045-10.045 10.045zM174.174 176.257c-5.548 0-10.045-4.497-10.045-10.045v-2.72c0-5.548 4.497-10.045 10.045-10.045s10.045 4.497 10.045 10.045v2.72c0 5.548-4.497 10.045-10.045 10.045zM467.136 2.458l-8.251 23.201c-.353.993-1.053 1.781-1.935 2.178l-20.614 9.287c-2.912 1.312-2.912 5.952 0 7.264l20.614 9.287c.882.398 1.582 1.185 1.935 2.178l8.251 23.202c1.166 3.278 5.288 3.278 6.454 0l8.251-23.202c.353-.993 1.053-1.781 1.935-2.178l20.614-9.287c2.912-1.312 2.912-5.952 0-7.264l-20.614-9.287c-.883-.398-1.582-1.185-1.935-2.178L473.59 2.458c-1.166-3.277-5.289-3.277-6.454 0zM474.52 248.746c0 9.951 8.067 18.017 18.017 18.017 9.951 0 18.017-8.067 18.017-18.017 0-9.951-8.066-18.018-18.017-18.018-9.95.001-18.017 8.067-18.017 18.018zM165.778 7.534a7.534 7.534 0 1 0 15.068 0 7.534 7.534 0 0 0-15.068 0zM25.913 2.715l-6.121 17.21c-.262.737-.781 1.321-1.436 1.616l-15.291 6.89c-2.16.973-2.16 4.415 0 5.388l15.291 6.889c.655.295 1.174.879 1.436 1.616l6.121 17.211c.865 2.431 3.923 2.431 4.787 0l6.121-17.211c.262-.737.781-1.321 1.436-1.616l15.291-6.889c2.16-.973 2.16-4.415 0-5.388l-15.291-6.889c-.655-.295-1.174-.879-1.436-1.616L30.7 2.715c-.865-2.431-3.923-2.431-4.787 0z" fill="#ffffff" opacity="1" data-original="#000000" class=""></path></g></svg>