<svg xmlns="http://www.w3.org/2000/svg" version="1.1" xmlns:xlink="http://www.w3.org/1999/xlink" width="512" height="512" x="0" y="0" viewBox="0 0 64 64" style="enable-background:new 0 0 512 512" xml:space="preserve"><g><path d="M63 32s-2.64.5-7.59 1-12.2 1-21.41 1c0 18.42-2 29-2 29s-.5-2.64-1-7.59-1-12.2-1-21.41c-18.42 0-29-2-29-2s2.64-.5 7.59-1 12.2-1 21.41-1c0-18.42 2-29 2-29s2 10.58 2 29c18.42 0 29 2 29 2z" fill="#ffffff" opacity="1" data-original="#000000"></path><path d="M34 28c6-8 12-10 12-10a43.274 43.274 0 0 1-10 12M28 30c-8-6-10-12-10-12a43.274 43.274 0 0 1 12 10M30 36c-6 8-12 10-12 10a43.274 43.274 0 0 1 10-12M36 34c8 6 10 12 10 12a43.274 43.274 0 0 1-12-10" fill="#ffffff" opacity="1" data-original="#000000"></path><circle cx="32" cy="32" r="5" fill="#ffffff" opacity="1" data-original="#000000"></circle></g></svg>