<svg xmlns="http://www.w3.org/2000/svg" version="1.1" xmlns:xlink="http://www.w3.org/1999/xlink" width="512" height="512" x="0" y="0" viewBox="0 0 512 512" style="enable-background:new 0 0 512 512" xml:space="preserve" class=""><g><path d="M184.314 470.927a168.132 168.132 0 0 1-37.729-4.277c-39.953-9.207-77.152-32.9-104.742-66.718C17.851 370.525 3.16 335.471.476 301.226c-2.872-36.631 7.259-75.915 29.301-113.604 2.164-3.702 4.59-7.576 7.364-11.754l-3.255-67.859a13.765 13.765 0 0 1 6.131-12.124c36.286-24.105 76.788-36.327 120.381-36.327 8.844 0 17.81.522 26.701 1.553.603-.22 1.207-.435 1.816-.641 35.009-11.864 76.128-18.399 115.784-18.399 12.453 0 24.741.651 36.549 1.936 30.241-2.549 58.152-2.934 72.214-2.934 5.568 0 8.757.061 8.757.061a13.767 13.767 0 0 1 13.122 10.548l6.072 25.285c19.87 12.934 35.739 29.241 47.227 48.545 29.648 49.815 31.177 119.057 3.994 173.039a13.746 13.746 0 0 1-2.32 4.433c-18.335 33.873-46.13 57.529-80.514 68.487-9.31 2.966-18.699 4.838-27.779 6.648-11.246 2.241-21.868 4.358-31.544 8.328-16.816 6.893-30.987 19.407-45.99 32.653-10.772 9.51-21.911 19.346-34.541 27.452-24.844 15.946-54.454 24.376-85.629 24.376l-.003-.001z" style="" fill="#ffffff" data-original="#ffffff"></path><path d="M181.917 77.934C123.993 100.302 72.96 141.308 41.636 194.871c-18.644 31.881-30.347 68.761-27.46 105.581 2.614 33.345 17.166 65.164 38.31 91.08 24.736 30.319 59.039 53.22 97.169 62.007s79.905 2.867 112.834-18.27c28.991-18.609 50.87-48.189 82.744-61.259 19.234-7.887 40.558-9.042 60.365-15.355 89.764-28.607 115.993-150.527 71.193-225.806C423.67 43.59 279.375 44.638 193.31 73.806a288.793 288.793 0 0 0-11.393 4.128z" style="" fill="#9b48db" data-original="#977bff" class="" opacity="1"></path><path d="m479.461 294.79-1.776.342-2.482.471c-.021-.021-.064-.021-.085 0h-.043l-2.524.513c-.021 0-.043 0-.064.021l-2.246.471c-.022-.021-.022-.021-.043 0-.021-.021-.021-.021-.043 0-.021-.021-.021-.021-.043 0l-6.161 1.177c-.043 0-.064 0-.107.021l-180.274 34.87-.963-1.112-.77-.877-2.61-2.995-.727-.834-3.38-3.893-.727-.834-2.781-3.209-.727-.834-.663-.749-.171-.214-.342-.385-.021-.021-.278-.342-.342-.385-.064-.064-.107.022-.941.15-.299.043-.449.086-.407.064-.171.022-2.439.406-1.305.214-194.224 31.679-2.588.428-1.733.278-1.776.3-1.027.171-.963.15-1.305.214h-.021l-.107-2.118-11.531-240.388c87.688-58.252 176.68-24.965 186.906-20.815.642.257.984.406.984.406.235-.257.492-.513.749-.727 34.955-34.185 185.686-31.318 185.686-31.318l54.444 226.717.235 1.048 2.139 8.856.257 1.07.128.556v.021l.322 1.327z" style="" fill="#f7ede5" data-original="#f7ede5"></path><path d="M270.05 315.755c.021.193 0 .385-.043.556h-.021c0 .064-.043.107-.064.15a.677.677 0 0 1-.235.257l-.278-.342-.342-.385c-.064-.021-.107-.043-.171-.043l-.941.15-.299.043-.449.086c-.128-.064-.278-.128-.428-.214-1.241-.577-3.166-1.412-5.712-2.417-.021 0-.064-.021-.085-.021-15.937-6.204-56.369-18.055-113.23-7.338-63.065 11.873-82.168 35.619-86.447 42.443-.321.535-.578.963-.727 1.262l-1.305.214h-.021l-.107-2.118c3.893-6.717 22.312-31.49 88.222-43.919 66.509-12.515 110.877 5.584 120.29 9.948L234.432 87.412c-.021-.214 0-.406.086-.578.128-.342.449-.578.834-.642.342-.043.684.086.898.321.15.15.257.342.299.578l33.287 227.23.214 1.434z" style="" fill="#302945" data-original="#302945"></path><path d="m479.461 294.79-1.776.342a111.3 111.3 0 0 0-6.632-2.738 146.574 146.574 0 0 0-3.487-1.219c-8.814-3.016-22.505-6.653-40.025-8.257a175.575 175.575 0 0 0-7.06-.513c-13.221-.706-28.345-.214-44.988 2.524-58.166 9.541-99.582 28.837-105.336 31.618h-.021c-.193.086-.321.15-.428.193l-.021-.021-.278-.342-.342-.385c-.064-.021-.107-.043-.171-.043l-.941.15a.72.72 0 0 1 .022-.428v-.021c.064-.278.257-.535.535-.685.043-.022.492-.235 1.326-.642 7.723-3.658 48.625-22.227 105.315-31.511 22.655-3.701 42.528-3.359 58.701-1.327 1.968.214 3.893.492 5.755.792 16.665 2.567 28.794 6.717 35.191 9.284 1.155.471 2.118.877 2.888 1.241.599.257 1.091.47 1.455.642v.021l.318 1.325z" style="" fill="#302945" data-original="#302945"></path><path d="M439.607 282.276c-3.979.128-8.001.342-12.065.642-16.066 1.091-32.709 3.273-49.844 6.525-37.95 7.188-74.788 18.868-106.085 29.479l-.727-.834c31.404-10.696 68.434-22.419 106.62-29.671 14.697-2.781 29.03-4.792 42.978-6.011a366.89 366.89 0 0 1 13.37-.92c1.966.212 3.892.491 5.753.79z" style="" fill="#302945" data-original="#302945"></path><path d="M477.685 292.801c-2.203-.15-4.428-.3-6.632-.407-66.723-3.573-133.938 6.867-195.933 30.57l-.727-.834c61.118-23.425 127.349-33.971 193.174-30.955 2.417.107 4.813.235 7.231.385 1.155.471 2.117.877 2.887 1.241z" style="" fill="#302945" data-original="#302945"></path><path d="m475.075 295.603-2.524.513c-.021 0-.043 0-.064.021l-2.246.471c-.022-.021-.022-.021-.043 0-.021-.021-.021-.021-.043 0-.021-.021-.021-.021-.043 0-1.433-.043-2.845-.021-4.257 0h-.021c-63.364.299-127.135 10.889-186.606 31.083l-.727-.834c62.572-21.328 129.916-32.002 196.574-31.254z" style="" fill="#302945" data-original="#302945"></path><path d="m472.487 296.138-2.246.471c-.022-.021-.022-.021-.043 0-.021-.021-.021-.021-.043 0-.021-.021-.021-.021-.043 0l-6.161 1.177c-.043 0-.064 0-.107.021-56.112 4.45-114.514 15.339-181.237 33.758l-.77-.877c67.835-18.718 127.071-29.735 183.996-34.078h.021a332.65 332.65 0 0 1 6.633-.472zM268.895 315.948l-.941.15-.299.043-.449.086-.407.064-.171.022c-.086-.022-.15-.043-.235-.064-.535-.171-1.091-.342-1.626-.513-34.057-10.161-70.424-12.472-105.486-6.61-35.126 5.861-68.841 19.874-97.742 40.667l-.963.15-1.305.214a44.095 44.095 0 0 1 2.033-1.476c28.965-20.729 62.658-34.72 97.806-40.581 33.821-5.648 68.841-3.744 101.871 5.476.021 0 .064.021.085.021a195.93 195.93 0 0 1 6.91 2.054v.021c.32.083.62.169.919.276zM270.179 316.589c.022.107.043.214 0 .321a.44.44 0 0 1-.128.214l-.342-.385-.021-.021-.278-.342-.342-.385c.257.085.535.171.791.257l.128.064h.021c.064.064.129.15.15.235-.001-.001.021-.001.021.042z" style="" fill="#302945" data-original="#302945"></path><path d="m267.654 316.14-.449.086-.407.064-.171.022-2.439.406a309.601 309.601 0 0 0-17.178-1.84c-60.198-4.942-121.423 6.118-176.103 31.832-1.604.749-3.23 1.519-4.835 2.332l-1.733.278-1.776.3c62.081-31.19 133.318-43.127 202.201-33.886.663.086 1.348.171 2.011.278.302.021.58.064.879.128zM270.371 317.06a.443.443 0 0 1-.15.278l-.171-.214-.342-.385-.021-.021-.278-.342c.171.022.342.064.513.086h.021c.085.021.15.043.193.085h.021s.021 0 .021.043c.15.085.215.256.193.47z" style="" fill="#302945" data-original="#302945"></path><path d="m266.799 316.29-.171.022-2.439.406-1.305.214c-27.425-2.631-57.182-.749-90.725 5.712-31.639 6.097-67.621 14.975-98.726 24.366a89.38 89.38 0 0 0-4.771 1.604l-2.588.428-1.733.278a61.704 61.704 0 0 1 6.567-2.61 93.805 93.805 0 0 1 2.225-.706c31.147-9.391 67.151-18.269 98.833-24.387 27.233-5.263 51.984-7.487 75.045-6.739 6.589.214 13.049.663 19.382 1.369.127 0 .277.021.406.043zM268.996 151.505a.536.536 0 0 1-.176-1.041c.772-.27 78.13-26.923 150.234-21.876a.533.533 0 1 1-.074 1.066c-71.871-5.038-149.038 21.55-149.808 21.82a.518.518 0 0 1-.176.031zM271.314 163.125a.536.536 0 0 1-.176-1.04c.773-.27 78.132-26.925 150.233-21.876.295.02.517.275.496.57a.532.532 0 0 1-.57.496c-71.891-5.034-149.037 21.55-149.807 21.82a.547.547 0 0 1-.176.03zM273.631 174.744a.536.536 0 0 1-.176-1.041c.773-.27 78.131-26.927 150.233-21.876.295.02.518.276.496.57a.538.538 0 0 1-.57.496c-71.886-5.028-149.035 21.55-149.807 21.82a.518.518 0 0 1-.176.031zM275.949 186.363a.536.536 0 0 1-.176-1.041c.773-.27 78.132-26.928 150.233-21.876.295.02.518.275.496.57a.528.528 0 0 1-.57.496c-71.894-5.037-149.036 21.55-149.807 21.82a.523.523 0 0 1-.176.031zM278.265 197.982a.536.536 0 0 1-.176-1.041c.772-.27 78.123-26.93 150.233-21.876a.533.533 0 1 1-.074 1.066c-71.889-5.038-149.036 21.55-149.807 21.82a.518.518 0 0 1-.176.031zM280.582 209.601a.536.536 0 0 1-.176-1.041c.773-.269 78.134-26.931 150.233-21.876.295.02.518.275.496.57a.523.523 0 0 1-.57.496c-71.885-5.035-149.036 21.55-149.807 21.82a.514.514 0 0 1-.176.031zM282.9 221.219a.536.536 0 0 1-.176-1.04c.773-.269 78.135-26.919 150.233-21.876.295.02.517.276.496.57a.548.548 0 0 1-.57.496c-71.894-5.033-149.035 21.551-149.807 21.82a.543.543 0 0 1-.176.03zM285.216 232.838a.536.536 0 0 1-.176-1.041c.772-.271 78.126-26.934 150.233-21.876.295.02.518.276.496.57a.536.536 0 0 1-.57.496c-71.889-5.032-149.037 21.55-149.807 21.82a.514.514 0 0 1-.176.031zM287.534 244.457a.536.536 0 0 1-.176-1.041c.772-.27 78.127-26.936 150.233-21.876.295.02.517.275.496.57a.542.542 0 0 1-.57.496c-71.885-5.042-149.037 21.55-149.807 21.82a.523.523 0 0 1-.176.031zM289.851 256.076a.536.536 0 0 1-.176-1.041c.773-.27 78.138-26.923 150.233-21.876a.533.533 0 1 1-.074 1.066c-71.894-5.029-149.035 21.55-149.807 21.82a.514.514 0 0 1-.176.031zM292.169 267.695a.536.536 0 0 1-.176-1.041c.773-.27 78.14-26.925 150.233-21.876.295.02.517.275.496.57a.538.538 0 0 1-.57.496c-71.891-5.04-149.037 21.55-149.807 21.82a.523.523 0 0 1-.176.031zM294.485 279.315a.536.536 0 0 1-.176-1.041c.773-.27 78.131-26.928 150.233-21.876.295.02.518.276.496.57a.529.529 0 0 1-.57.496c-71.875-5.023-149.035 21.55-149.807 21.82a.518.518 0 0 1-.176.031zM332.719 128.928c-15.956 0-28.937-12.98-28.937-28.936s12.981-28.937 28.937-28.937c15.956 0 28.936 12.981 28.936 28.937s-12.98 28.936-28.936 28.936zm0-56.803c-15.367 0-27.868 12.502-27.868 27.868 0 15.366 12.501 27.867 27.868 27.867 15.366 0 27.867-12.502 27.867-27.867 0-15.367-12.502-27.868-27.867-27.868z" style="" fill="#302945" data-original="#302945"></path><path d="M320.521 126.38a.534.534 0 0 1-.526-.629l3.196-17.97-19.065-7.29a.535.535 0 0 1 .075-1.022l21.318-4.777 4.125-23.197a.537.537 0 0 1 .45-.436.538.538 0 0 1 .555.29l9.979 19.958 18.01-4.036a.535.535 0 0 1 .494.9L345.73 101.51l8.588 17.174a.535.535 0 0 1-.67.739l-18.725-7.16-14.024 13.958a.522.522 0 0 1-.378.159zm3.686-18.209-2.863 16.102 12.482-12.424-9.619-3.678zm11.546 3.269 16.992 6.497-7.815-15.63-9.177 9.133zm-11.355-4.341 10.26 3.923 9.768-9.723-4.382-8.764-13.598 3.047-2.048 11.517zm-18.234-6.972 17.216 6.582 1.935-10.873-19.151 4.291zm34.956-7.833 4.105 8.21 11.84-11.784-15.945 3.574zm-10.706-19.02-3.765 21.167 12.902-2.891-9.137-18.276z" style="" fill="#302945" data-original="#302945"></path><path d="M149.557 264.411c-.213-22.106-15.21-41.285-19.863-62.897-3.151-14.635-1.435-29.891 1.584-44.553 3.699-17.966 9.507-35.869 20.334-50.676 10.049 27.578 17.379 56.973 13.686 86.091-3.043 24.001-13.334 47.962-15.741 72.035z" style="" fill="#9dd1a9" data-original="#9dd1a9"></path><g style="opacity:0.41;"><path d="M149.557 264.411c-.213-22.106-15.21-41.285-19.863-62.897-3.151-14.635-1.435-29.891 1.584-44.553 3.699-17.966 9.507-35.869 20.334-50.676 10.049 27.578 17.379 56.973 13.686 86.091-3.043 24.001-13.334 47.962-15.741 72.035z" style="" fill="#302945" data-original="#302945"></path></g><path d="m148.329 284.975-.049-.002a.56.56 0 0 1-.51-.606c.022-.258 2.23-25.964 3.721-42.148.302-3.281.821-7.906 1.423-13.26 2.374-21.145 6.346-56.535 4.293-75.711-2.545-23.758-6.114-46.648-6.149-46.876a.56.56 0 0 1 1.107-.173c.036.229 3.608 23.142 6.156 46.93 2.067 19.297-1.915 54.764-4.293 75.954-.6 5.348-1.119 9.969-1.42 13.239-1.491 16.18-3.699 41.884-3.721 42.142a.562.562 0 0 1-.558.511z" style="" fill="#302945" data-original="#302945"></path><path d="M144.995 268.486c11.232-19.042 8.289-43.209 15.463-64.121 4.858-14.16 14.204-26.34 24.359-37.338 12.444-13.477 26.662-25.81 43.579-32.901-5.632 28.807-14.532 57.765-32.729 80.796-14.997 18.983-36.181 34.19-50.672 53.564z" style="" fill="#9dd1a9" data-original="#9dd1a9"></path><g style="opacity:0.41;"><path d="M144.995 268.486c11.232-19.042 8.289-43.209 15.463-64.121 4.858-14.16 14.204-26.34 24.359-37.338 12.444-13.477 26.662-25.81 43.579-32.901-5.632 28.807-14.532 57.765-32.729 80.796-14.997 18.983-36.181 34.19-50.672 53.564z" style="" fill="#302945" data-original="#302945"></path></g><path d="M133.615 285.543a.561.561 0 0 1-.453-.889c.152-.209 15.316-21.084 24.949-34.174 1.955-2.657 4.791-6.353 8.074-10.633 12.947-16.88 34.617-45.132 42.757-62.61 10.088-21.662 18.85-43.107 18.938-43.321a.56.56 0 1 1 1.037.423c-.087.214-8.86 21.683-18.96 43.37-8.191 17.59-29.908 45.903-42.883 62.819-3.28 4.275-6.111 7.969-8.059 10.615-9.632 13.088-24.793 33.96-24.946 34.17a.567.567 0 0 1-.454.23z" style="" fill="#302945" data-original="#302945"></path><path d="M151.983 267.708c-11.172-19.077-33.718-28.264-48.498-44.705-10.008-11.133-16.102-25.224-20.77-39.448-5.72-17.429-9.579-35.85-7.543-54.08 22.427 18.936 43.397 40.799 54.666 67.902 9.289 22.34 12.269 48.246 22.145 70.331z" style="" fill="#9dd1a9" data-original="#9dd1a9"></path><g style="opacity:0.41;"><path d="M151.983 267.708c-11.172-19.077-33.718-28.264-48.498-44.705-10.008-11.133-16.102-25.224-20.77-39.448-5.72-17.429-9.579-35.85-7.543-54.08 22.427 18.936 43.397 40.799 54.666 67.902 9.289 22.34 12.269 48.246 22.145 70.331z" style="" fill="#302945" data-original="#302945"></path></g><path d="M160.86 286.237a.558.558 0 0 1-.507-.325c-.11-.234-10.97-23.639-17.722-38.423-1.369-2.999-3.218-7.272-5.359-12.22-8.449-19.526-22.59-52.206-33.902-67.823-14.017-19.351-28.49-37.439-28.634-37.62a.56.56 0 0 1 .873-.701c.145.181 14.634 18.29 28.668 37.665 11.384 15.716 25.555 48.468 34.022 68.035 2.139 4.943 3.986 9.212 5.351 12.199 6.75 14.782 17.609 38.183 17.718 38.418a.558.558 0 0 1-.508.795z" style="" fill="#302945" data-original="#302945"></path><path d="M151.4 268.586c-7.154-20.918-27.422-34.406-38.636-53.459-7.593-12.901-10.763-27.923-12.508-42.791-2.139-18.218-2.256-37.039 3.365-54.5 18.213 23.018 34.414 48.617 40.067 77.419 4.659 23.741 2.427 49.723 7.712 73.331z" style="" fill="#9dd1a9" data-original="#9dd1a9"></path><path d="M156.525 288.522a.557.557 0 0 1-.544-.43c-.061-.252-6.05-25.349-9.724-41.181-.746-3.211-1.708-7.768-2.822-13.044-4.396-20.816-11.754-55.655-19.733-73.21-9.889-21.752-20.473-42.359-20.58-42.564a.561.561 0 0 1 .242-.755.567.567 0 0 1 .755.242c.105.206 10.701 20.835 20.602 42.613 8.03 17.667 15.404 52.582 19.809 73.443 1.113 5.269 2.074 9.821 2.817 13.021 3.674 15.828 9.662 40.922 9.721 41.174a.558.558 0 0 1-.543.691z" style="" fill="#302945" data-original="#302945"></path><path d="M145.999 269.284c8.222-20.522 1.658-43.966 5.586-65.722 2.66-14.732 10.056-28.185 18.431-40.593 10.262-15.204 22.45-29.546 38.1-39.114-1.21 29.327-5.627 59.298-20.13 84.816-11.954 21.034-30.594 39.271-41.987 60.613z" style="" fill="#9dd1a9" data-original="#9dd1a9"></path><path d="M137.245 287.874a.558.558 0 0 1-.498-.817c.119-.231 11.95-23.159 19.491-37.557 1.529-2.92 3.771-6.999 6.368-11.724 10.247-18.645 27.395-49.854 32.799-68.366 6.695-22.938 12.113-45.462 12.167-45.687a.55.55 0 0 1 .676-.413c.3.072.486.374.413.675-.054.225-5.477 22.774-12.18 45.738-5.438 18.631-22.624 49.905-32.893 68.592-2.593 4.719-4.832 8.794-6.357 11.704-7.539 14.394-19.37 37.321-19.489 37.55a.556.556 0 0 1-.497.305z" style="" fill="#302945" data-original="#302945"></path><path d="m174.255 239.326-.047-.001-55.761-2.287a1.118 1.118 0 0 1-1.072-1.056 1.117 1.117 0 0 1 .948-1.169l56.658-8.699-71.528-1.989a1.119 1.119 0 0 1-.093-2.233l75.875-8.458-83.914-.7a1.12 1.12 0 0 1-.221-2.216L203.13 187.8l-121.852-4.523c-.618-.022-1.101-.542-1.078-1.16s.572-1.12 1.16-1.078l130.967 4.861a1.119 1.119 0 0 1 .189 2.215l-106.829 22.464 92.309.771c.592.006 1.079.47 1.11 1.063a1.123 1.123 0 0 1-.995 1.171l-78.492 8.749 67.819 1.886a1.12 1.12 0 0 1 .138 2.227l-57.498 8.829 44.221 1.813a1.12 1.12 0 0 1-.044 2.238z" style="" fill="#ffffff" data-original="#ffffff"></path><path d="M145.181 260.213a.56.56 0 0 1-.07-1.115l9.627-1.239a.56.56 0 0 1 .143 1.111l-9.627 1.239a.595.595 0 0 1-.073.004zM154.839 262.003l-.036-.001-9.686-.625a.56.56 0 0 1-.523-.595c.019-.309.249-.58.595-.523l9.686.625a.56.56 0 0 1-.036 1.119zM154.839 264.099l-.036-.001-9.686-.625a.56.56 0 0 1-.523-.595c.019-.309.249-.575.595-.523l9.686.625a.56.56 0 0 1-.036 1.119zM154.839 265.911l-.036-.001-9.686-.625a.56.56 0 0 1-.523-.595c.019-.308.249-.558.595-.523l9.686.625a.56.56 0 0 1-.036 1.119z" style="" fill="#302945" data-original="#302945"></path><path d="m301.711 399.178-13.764.597-1.766-10.254-22.848 2.638-4.382-31.932 21.564-2.937 2.201 2.331 1.904-2.856-.779-9.705 14.062-1.767z" style="" fill="#ffa352" data-original="#ffa352"></path><path d="M125.189 440.749a.57.57 0 0 1-.567-.489l-13.601-90.411a.567.567 0 0 1 .111-.432.57.57 0 0 1 .388-.222l136.018-16.403a.576.576 0 0 1 .605.365l7.443 19.59 21.963-2.353a.572.572 0 0 1 .632.516l4.4 46.406a.573.573 0 0 1-.466.617l-18.767 3.521-1.167 15.96a.575.575 0 0 1-.478.524l-136.419 22.803a.609.609 0 0 1-.095.008zm-12.946-90.487 13.427 89.251 135.399-22.633 1.166-15.951a.574.574 0 0 1 .467-.522l18.687-3.505-4.296-45.307-21.825 2.339a.576.576 0 0 1-.598-.366l-7.441-19.584-134.986 16.278z" style="" fill="#302945" data-original="#302945"></path><path d="M125.189 440.749a.574.574 0 0 1-.535-.779c.119-.308 11.795-31.134 5.764-53.82-6.041-22.721-19.102-35.848-19.233-35.978a.573.573 0 1 1 .807-.815c.133.132 13.415 13.479 19.536 36.497 6.126 23.048-5.682 54.215-5.802 54.528a.577.577 0 0 1-.537.367zM270.074 404.877a.575.575 0 0 1-.567-.492l-8.054-55.787a.574.574 0 0 1 .486-.65.583.583 0 0 1 .65.486l8.054 55.787a.575.575 0 0 1-.569.656zM276.809 404.877a.575.575 0 0 1-.567-.492l-8.052-55.787a.574.574 0 0 1 .486-.65.58.58 0 0 1 .65.486l8.052 55.787a.575.575 0 0 1-.569.656zM286.181 389.521l-5.666-32.231 4.106-.55z" style="" fill="#302945" data-original="#302945"></path><path d="M171.857 370.773c5.773-6.202 11.588-12.441 18.39-17.492 3.234-2.402 6.695-4.532 10.438-6.021 7.4-2.944 15.637-3.263 23.527-2.183 7.891 1.081 15.527 3.503 23.117 5.915-3.277 9.809-11.002 18.219-20.423 22.485-6.811 3.084-14.439 4.078-21.907 3.717-7.468-.361-14.814-2.033-22.003-4.09-3.823-1.095-7.174-2.652-11.139-2.331z" style="" fill="#9dd1a9" data-original="#9dd1a9"></path><path d="M168.703 372.654a.508.508 0 0 1-.271-.938c.225-.142 22.737-14.277 37.528-17.888 14.774-3.609 41.109-3.346 41.375-3.345a.509.509 0 0 1 .503.514c-.003.281-.229.556-.514.503-.262-.007-26.471-.262-41.122 3.315-14.632 3.572-37.004 17.619-37.228 17.76a.499.499 0 0 1-.271.079z" style="" fill="#302945" data-original="#302945"></path><path d="M171.907 365.539c8.473.064 17.001.133 25.322 1.732 3.956.76 7.865 1.872 11.492 3.624 7.171 3.465 12.974 9.319 17.51 15.865 4.537 6.546 7.912 13.811 11.264 21.036-9.444 4.214-20.863 4.205-30.375.145-6.876-2.936-12.765-7.885-17.546-13.634-4.781-5.748-8.514-12.293-11.857-18.981-1.777-3.559-2.893-7.081-5.81-9.787z" style="" fill="#9dd1a9" data-original="#9dd1a9"></path><g style="opacity:0.27;"><path d="M171.907 365.539c8.473.064 17.001.133 25.322 1.732 3.956.76 7.865 1.872 11.492 3.624 7.171 3.465 12.974 9.319 17.51 15.865 4.537 6.546 7.912 13.811 11.264 21.036-9.444 4.214-20.863 4.205-30.375.145-6.876-2.936-12.765-7.885-17.546-13.634-4.781-5.748-8.514-12.293-11.857-18.981-1.777-3.559-2.893-7.081-5.81-9.787z" style="" fill="#302945" data-original="#302945"></path></g><path d="M237.495 408.305a.51.51 0 0 1-.379-.169c-.176-.196-17.7-19.689-30.236-28.069-12.522-8.368-37.995-15.365-38.25-15.434a.508.508 0 1 1 .267-.981c.258.07 25.889 7.109 38.548 15.57 12.644 8.45 30.253 28.037 30.429 28.234a.509.509 0 0 1-.379.849z" style="" fill="#302945" data-original="#302945"></path><path d="M163.88 352.255c2.587 8.068 5.186 16.191 6.267 24.595.514 3.995.68 8.056.148 12.049-1.051 7.895-4.799 15.236-9.6 21.591-4.801 6.355-10.648 11.831-16.463 17.273-6.954-7.655-10.514-18.505-9.628-28.809.64-7.449 3.502-14.59 7.469-20.927 3.967-6.338 9.017-11.929 14.326-17.194 2.826-2.801 5.823-4.962 7.481-8.578z" style="" fill="#9dd1a9" data-original="#9dd1a9"></path><path d="M144.233 428.272a.507.507 0 0 1-.44-.761c.131-.228 13.172-22.965 17.215-37.493 4.037-14.509 2.723-40.893 2.71-41.157a.508.508 0 0 1 .481-.534.49.49 0 0 1 .534.48c.015.267 1.336 26.815-2.745 41.484-4.076 14.651-17.181 37.498-17.314 37.726a.51.51 0 0 1-.441.255z" style="" fill="#302945" data-original="#302945"></path><path d="m226.059 407.474 22.942-3.578a4.556 4.556 0 0 1 5.214 3.874l.176 1.266a4.555 4.555 0 0 1-4.059 5.159l-23.118 2.312a4.554 4.554 0 0 1-1.155-9.033zM213.75 412.406a5.125 5.125 0 1 1-10.25 0 5.125 5.125 0 0 1 10.25 0z" style="" fill="#ffffff" data-original="#ffffff"></path><path d="m386.65 314.267 2.176-35.539 1.692 35.781 8.946-7.253-5.319 8.462 19.099 2.417-18.616 2.418 5.319 7.495-8.945-4.836-2.418 30.946-1.934-30.462-9.187 3.868 5.802-7.011-23.209-3.143 22.967-.967-5.318-7.978zM44.604 278.345l2.176-35.54 1.692 35.781 8.946-7.252-5.319 8.461 19.099 2.418-18.616 2.418 5.319 7.494-8.945-4.835-2.418 30.946-1.934-30.463-9.187 3.869 5.802-7.011-23.209-3.143 22.967-.967-5.318-7.979zM458.217 158.51l2.176-35.54 1.692 35.782 8.946-7.253-5.319 8.462 19.099 2.417-18.616 2.418 5.319 7.494-8.945-4.835-2.418 30.946-1.934-30.462-9.187 3.868 5.802-7.011-23.209-3.143 22.967-.967-5.318-7.979z" style="" fill="#dbb0ff" data-original="#dbb0ff"></path><path d="m106.943 378.544-11.403 4.098a1.208 1.208 0 0 0-.726.726l-4.098 11.403c-.382 1.063-1.884 1.063-2.266 0l-4.097-11.403a1.208 1.208 0 0 0-.726-.726l-11.403-4.098c-1.063-.382-1.063-1.885 0-2.266l11.403-4.098c.338-.122.604-.388.726-.726l4.097-11.403c.382-1.062 1.885-1.062 2.266 0l4.098 11.403c.121.338.388.604.726.726l11.403 4.098c1.062.382 1.062 1.885 0 2.266zM345.221 348.714l-11.403 4.097a1.208 1.208 0 0 0-.726.726l-4.098 11.403c-.382 1.062-1.884 1.062-2.266 0l-4.098-11.403a1.205 1.205 0 0 0-.726-.726l-11.403-4.097c-1.063-.382-1.063-1.885 0-2.267l11.403-4.098c.338-.121.604-.388.726-.726l4.098-11.403c.382-1.063 1.884-1.063 2.266 0l4.098 11.403c.122.338.388.604.726.726l11.403 4.098c1.062.383 1.062 1.885 0 2.267zM284.309 80.075l-11.403 4.098a1.205 1.205 0 0 0-.726.726l-4.098 11.403c-.382 1.063-1.884 1.063-2.266 0l-4.098-11.403a1.205 1.205 0 0 0-.726-.726l-11.403-4.098c-1.062-.382-1.062-1.884 0-2.266l11.403-4.098c.338-.122.604-.388.726-.726l4.098-11.403c.382-1.062 1.884-1.062 2.266 0l4.098 11.403c.122.338.388.604.726.726l11.403 4.098c1.062.382 1.062 1.884 0 2.266z" style="" fill="#ffffff" data-original="#ffffff"></path></g></svg>