<svg xmlns="http://www.w3.org/2000/svg" version="1.1" xmlns:xlink="http://www.w3.org/1999/xlink" width="512" height="512" x="0" y="0" viewBox="0 0 512 512" style="enable-background:new 0 0 512 512" xml:space="preserve" class=""><g><path d="M91.38 223.64a166.747 166.747 0 0 1 23.441-58.258M115.497 347.66a166.749 166.749 0 0 1-24.458-61.098M224.736 420.83a166.748 166.748 0 0 1-60.853-24.627M347.484 396.618a166.738 166.738 0 0 1-59.695 24.112M420.896 286.915a166.774 166.774 0 0 1-24.352 60.684M397.199 165.413a166.737 166.737 0 0 1 23.712 59.755M287.112 91.141a166.761 166.761 0 0 1 60.349 24.226M163.775 115.868a166.765 166.765 0 0 1 60.918-24.69" style="stroke-width:22;stroke-miterlimit:10;" fill="none" stroke="#9b48db" stroke-width="22" stroke-miterlimit="10" data-original="#000000" opacity="1" class=""></path><circle cx="137.391" cy="374.609" r="30.498" style="stroke-width:22;stroke-linecap:round;stroke-linejoin:round;stroke-miterlimit:10;" fill="none" stroke="#9b48db" stroke-width="22" stroke-linecap="round" stroke-linejoin="round" stroke-miterlimit="10" data-original="#000000" opacity="1" class=""></circle><circle cx="374.609" cy="137.391" r="30.498" style="stroke-width:22;stroke-linecap:round;stroke-linejoin:round;stroke-miterlimit:10;" fill="none" stroke="#9b48db" stroke-width="22" stroke-linecap="round" stroke-linejoin="round" stroke-miterlimit="10" data-original="#000000" opacity="1" class=""></circle><circle cx="137.391" cy="137.391" r="30.498" style="stroke-width:22;stroke-linecap:round;stroke-linejoin:round;stroke-miterlimit:10;" fill="none" stroke="#9b48db" stroke-width="22" stroke-linecap="round" stroke-linejoin="round" stroke-miterlimit="10" data-original="#000000" opacity="1" class=""></circle><circle cx="374.609" cy="374.609" r="30.498" style="stroke-width:22;stroke-linecap:round;stroke-linejoin:round;stroke-miterlimit:10;" fill="none" stroke="#9b48db" stroke-width="22" stroke-linecap="round" stroke-linejoin="round" stroke-miterlimit="10" data-original="#000000" opacity="1" class=""></circle><path d="M11 256.001c68.639-44.682 161.457-36.91 221.684 23.317 60.226 60.226 67.999 153.041 23.319 221.68l-.008-.005c-44.676-68.638-36.901-161.45 23.323-221.674 60.226-60.226 153.043-67.999 221.681-23.318l.001.002c-68.638 44.681-161.456 36.909-221.682-23.318-60.224-60.224-67.998-153.035-23.324-221.673l.008-.009c44.681 68.638 36.908 161.455-23.318 221.681C172.459 292.908 79.638 300.677 11 256.001z" style="stroke-width:22;stroke-linecap:round;stroke-linejoin:round;stroke-miterlimit:10;" fill="none" stroke="#ffffff" stroke-width="22" stroke-linecap="round" stroke-linejoin="round" stroke-miterlimit="10" data-original="#33cccc" opacity="1" class=""></path></g></svg>