<svg xmlns="http://www.w3.org/2000/svg" version="1.1" xmlns:xlink="http://www.w3.org/1999/xlink" width="512" height="512" x="0" y="0" viewBox="0 0 512 512" style="enable-background:new 0 0 512 512" xml:space="preserve" class=""><g><path d="M282.458 512c-19.697 0-39.892-2.024-58.399-5.854a302.489 302.489 0 0 1-35.195-9.539c-4.8 2.943-8.851 4.219-12.997 4.219-2.221 0-4.375-.396-6.4-1.177-7.691-2.986-11.18-10.016-12.9-16.241-19.267-9.375-36.636-20.777-51.716-33.958-58.169-50.853-86.763-137.612-74.623-226.421 1.458-10.688 3.549-20.582 6.213-29.401 15.951-52.649 52.38-101.286 102.577-136.964a295.966 295.966 0 0 1 17.601-11.623C197.752 19.738 244.617 3.972 288.531.676 294.499.228 300.501 0 306.365 0c12.573 0 24.991 1.043 36.909 3.099 8.668 1.503 17.111 3.605 25.105 6.252 2.72.878 5.71 1.945 9.033 3.227.565.218 1.115.443 1.665.668l.669.272c2.253.91 4.478 1.857 6.681 2.854.907.411 1.795.821 2.679 1.242 2.2 1.044 4.375 2.145 6.526 3.287l.648.337c.524.273 1.049.546 1.567.831a155.85 155.85 0 0 1 8.178 4.818c.123.074.706.445.879.566 6.873 4.413 13.317 9.32 19.162 14.592 18.968 17.09 34.22 40.268 44.105 67.023 1.564 4.162 3.016 8.544 4.408 13.312 10.946 37.551 12.929 79.787 5.584 118.937-2.293 12.206-5.463 24.152-8.53 35.706-4.684 17.65-9.11 34.322-10.472 51.301-.669 8.361-.604 16.877-.533 25.893.112 14.441.229 29.375-2.81 44.516-9.394 46.877-40.723 81.198-90.672 99.403a17.725 17.725 0 0 1-3.687 1.948 17.735 17.735 0 0 1-5.476 1.152C335.288 508.284 309.248 512 282.458 512z" style="" fill="#ffffff" data-original="#ffffff"></path><path d="M465.813 239.144c-5.59 29.755-16.797 58.454-19.218 88.621-1.829 22.851 1.417 46.139-3.091 68.604-19.115 95.396-136.667 111.626-215.472 95.319-40.961-8.501-80.66-25.659-112.167-53.198-59.201-51.756-79.862-136.744-69.48-212.69 1.237-9.068 3.04-18.239 5.693-27.024 15.947-52.631 52.297-97.251 96.736-128.835a278.923 278.923 0 0 1 16.694-11.026c37.148-22.851 81.072-38.849 125.022-42.146 17.132-1.288 34.237-.644 50.957 2.241 7.729 1.34 15.406 3.22 22.876 5.693 12.16 3.942 9.525 19.598 20.242 26.425 6.209 3.967 21.893 18.075 27.406 23.021 18.214 16.41 35.975 17.869 44.502 40.952a171.706 171.706 0 0 1 4.07 12.288c10.408 35.707 12.082 75.225 5.23 111.755z" style="" fill="#9b48db" data-original="#977bff" class="" opacity="1"></path><g style="opacity:0.25;"><path d="M416.015 197.874c-5.358 18.806-19.888 33.928-36.556 44.182-9.686 5.951-20.48 10.562-31.816 11.464-16.797 1.314-33.258-5.539-50.081-5.358a60.018 60.018 0 0 0-24.242 5.384c-7.188 3.246-13.886 8.115-17.93 14.865-4.07 6.775-5.101 15.638-1.417 22.593 6.492 12.237 23.34 13.757 37.071 11.902 13.731-1.829 28.853-5.152 40.523 2.318 11.515 7.394 15.019 23.624 10.588 36.582-4.405 12.958-15.148 22.851-26.895 29.858-19.733 11.773-43.383 16.848-66.208 14.169-18.342-2.164-37.174-10.331-48.922-25.015-5.152-6.44-9.687-13.68-7.832-22.13 2.241-10.279 10.691-18.007 7.162-29.343-3.555-11.438-16.591-16.281-27.179-21.846-20.919-10.949-37.664-31.584-39.415-55.13-1.778-23.521 14.375-48.407 37.638-52.4 16.668-2.86 36.376 3.916 49.231-7.11 5.668-4.869 8.579-12.778 7.419-20.146-1.546-9.867-9.506-17.492-18.007-22.748-8.501-5.23-18.008-8.94-25.762-15.225-15.56-12.597-21.82-34.572-18.214-54.28.103-.515.206-1.03.335-1.546 37.148-22.851 81.072-38.849 125.022-42.146 17.132-1.288 34.237-.644 50.957 2.241 7.729 1.34 15.406 3.22 22.876 5.693 12.16 3.942 23.855 9.3 34.572 16.127-4.895 7.754-12.778 13.705-20.635 18.78-30.373 19.579-66.594 33.696-86.122 64.121-4.328 6.724-7.574 15.843-2.988 22.387 4.817 6.93 15.096 6.544 23.314 4.689 14.684-3.349 28.776-9.094 43.589-11.825 14.813-2.731 31.12-2.061 43.538 6.44 16.128 11.079 21.745 33.647 16.386 52.453z" style="" fill="#f7ede5" data-original="#f7ede5" class=""></path></g><path d="M230.231 250.728c-6.939 5.484-11.88 13.444-13.715 22.096-1.835 8.652-.551 17.932 3.565 25.761 6.282-5.945 11.661-12.848 13.773-21.236 2.169-8.606-1.419-18.024-3.623-26.621zM239.904 264.735c-1.898 8.639-.682 17.928 3.376 25.786 4.058 7.859 10.928 14.228 19.071 17.681 1.098-8.579.89-17.328-2.786-25.157-3.771-8.034-12.512-13.052-19.661-18.31zM233.788 293.641c-6.03 6.471-9.71 15.086-10.215 23.916-.505 8.83 2.168 17.809 7.421 24.925 5.311-6.827 9.583-14.464 10.403-23.075.841-8.835-4.13-17.602-7.609-25.766z" style="" fill="#9dd1a9" data-original="#9dd1a9" class=""></path><path d="m419.673 86.866 4.843 17.518c-9.3 4.714-16.951 8.527-21.279 10.536-19.734 9.223-29.6 42.765-36.195 51.318-6.569 8.553-42.739 13.808-64.456 29.6-8.785 6.415-19.914 18.059-30.09 29.677-5.256 6.003-13.499 6.338-17.75 11.593-6.363 7.832-7.857 19.656-9.429 21.743-.386.515-.592.773-.592.773-12.185-12.16-7.033-34.495-5.59-39.699-1.159 3.607-5.23 15.741-10.202 24.577-5.925 10.537-22.361 7.909-22.361 7.909s7.213-16.153 7.239-16.281c.283-2.138-2.473-4.792-4.096-22.361-.206-2.473.129-4.946.129-7.419 0-22.361-7.883-59.845 1.314-71.025 9.223-11.181 30.27-46.037 37.509-55.259 7.239-9.197 73.653-5.256 119.045-24.989 5.771-2.499 11.542-5.513 17.209-8.811l34.752 40.6z" style="" fill="#f4c0c0" data-original="#ff9191" class="" opacity="1"></path><path d="m456.513 115.101-47.35 31.404c-20.403-26.973 2.628-61.184 2.628-61.184s-36.17 23.031-46.037 5.281c-9.867-17.775 15.122-32.228 15.122-32.228-28.287 1.314-36.17-21.717-36.17-21.717l19.656-11.953c19.218 6.209 37.226 15.998 52.194 29.497 18.214 16.409 31.43 37.818 39.957 60.9zM213.615 242.596c-1.236 3.658-3.143 7.239-6.312 9.429l-.695.18c.283-2.138 2.602-19.785 3.117-38.437 3.22 2.654 4.766 7.007 5.41 11.181.901 5.874.386 12.006-1.52 17.647zM272.506 225.516c-13.087 14.968-24.551 29.858-27.179 33.336 1.237-7.625 1.443-17.209 5.977-22.877 4.663-5.847 13.654-8.578 21.202-10.459z" style="" fill="#302945" data-original="#302945" class=""></path><path d="M245.052 262.238c-.336 0-.672-.131-.923-.39-9.863-10.153-9.403-16.594-8.642-27.268.137-1.913.284-3.979.385-6.245.57-12.808 20.953-36.492 34.44-52.164 2.57-2.986 4.85-5.637 6.633-7.798 10.711-12.981 18.631-23.527 18.71-23.631a1.287 1.287 0 1 1 2.06 1.545c-.079.106-8.036 10.699-18.783 23.727-1.792 2.171-4.084 4.835-6.668 7.837-12.451 14.468-33.289 38.682-33.819 50.598-.102 2.293-.25 4.381-.389 6.316-.758 10.629-1.14 15.964 7.919 25.288a1.289 1.289 0 0 1-.923 2.185z" style="" fill="#302945" data-original="#302945" class=""></path><path d="M283.53 163.246c-.318 0-.637-.117-.885-.352-9.375-8.866-19.303-16.261-33.194-24.727a1.289 1.289 0 0 1 1.341-2.199c14.053 8.564 24.109 16.057 33.624 25.054a1.288 1.288 0 0 1-.886 2.224z" style="" fill="#302945" data-original="#302945" class=""></path><path d="M207.02 253.693c-.311 0-.486-.006-.506-.008a1.29 1.29 0 0 1-1.228-1.345 1.279 1.279 0 0 1 1.345-1.229c.849.045 20.806.71 26.344-16.214 5.762-17.612 2.282-49.127 2.247-49.444a1.293 1.293 0 0 1 .114-.696l20.391-43.082a1.287 1.287 0 0 1 1.716-.614 1.29 1.29 0 0 1 .614 1.716l-20.236 42.752c.406 3.784 3.268 32.858-2.398 50.168-5.637 17.225-25.016 17.996-28.403 17.996zM250.315 203.37a1.288 1.288 0 0 1-1.285-1.398l1.316-15.457c.016-.19.074-.374.17-.537l20.061-34.532a1.286 1.286 0 0 1 1.76-.467c.615.357.825 1.145.467 1.76l-19.915 34.283-1.292 15.169a1.287 1.287 0 0 1-1.282 1.179zM427.539 330.716c-20.774-22.898-57.226 1.813-69.248 23.727-6.647-2.834-11.284-4.044-11.284-4.044l30.27-30.244c-55.016 1.174-165.699 1.174-220.701 0l23.778 23.752 29.672 4.771c-5.499.529-31.417 2.295-38.972 7.827-11.929-22.069-48.567-47.006-69.429-24.037-14.638 23.356 5.797 57.82 28.828 68.759-8.382 28.381 8.484 50.371 39.751 59.871 1.035 32.755 6.57 29.908 29.523 7.6 23.418 4.302 46.99 5.487 60.901 5.771v.026c-.951.051 13.516.053 12.598 0v-.026c13.963-.283 37.664-1.469 61.159-5.822 25.31 27.721 28.389 27.936 30.038-7.806 32.633-9.634 48.341-34.663 37.922-63.374 20.983-11.86 39.225-44.832 25.194-66.751zm-295.617 65.512c-19.968-10.729-38.157-38.175-26.201-60.643 18.757-19.157 50.277 4.463 60.748 23.263-12.778 6.956-27.977 18.755-34.547 37.38zm294.999-43.82c-2.164 16.513-12.366 31.481-26.406 40.188-8.063-18.626-24.86-29.884-37.509-36.015 11.881-25.603 67.662-49.57 63.915-4.173z" style="" fill="#302945" data-original="#302945" class=""></path><path d="M310.865 365.761a47.132 47.132 0 0 1 2.705 15.766c0 26.148-21.202 47.35-47.35 47.35-26.174 0-47.376-21.202-47.376-47.35 0-5.513.953-10.82 2.705-15.766 6.492 18.394 24.036 31.558 44.671 31.558 20.61 0 38.154-13.164 44.645-31.558zM179.968 352.894c4.096-1.546 6.878-2.495 6.878-2.495l-6.492-6.492 95.293 7.497-95.679 1.49z" style="" fill="#dbb0ff" data-original="#dbb0ff"></path><path d="M347.116 375.12c-2.399 5.99-.94 13.004 2.439 18.502a29.4 29.4 0 0 0 6.751 7.614c2.831 2.248 6.163 3.991 9.752 4.42 3.59.429 7.45-.591 9.974-3.179 3.538-3.626 3.769-9.385 2.63-14.321-1.843-7.987-6.845-15.372-13.677-19.936-6.562-4.384-15.052-.133-17.869 6.9z" style="" fill="#f7ede5" data-original="#f7ede5" class=""></path><circle cx="381.206" cy="419.467" r="9.866" style="" transform="rotate(-77.631 381.208 419.463)" fill="#f7ede5" data-original="#f7ede5" class=""></circle><path d="M343.145 312.418c8.735-15.262 12.235-32.883 15.329-50.193 3.094-17.31 6-34.953 13.744-50.74 7.744-15.788 21.248-29.758 38.434-33.483.36 18.435-1.164 36.351-5.896 54.172-4.732 17.821-13.838 34.903-28.073 46.623-5.934 4.886-12.638 8.758-18.69 13.497-6.054 4.739-12.448 12.822-14.848 20.124z" style="" fill="#9dd1a9" data-original="#9dd1a9" class=""></path><path d="M343.385 311.911a.645.645 0 0 1-.585-.914c.477-1.033 1.024-2.029 1.496-2.868 4.715-8.381 10.955-15.754 16.991-22.883 3.971-4.691 8.077-9.54 11.7-14.623 8.2-11.504 14.989-25.189 22.015-44.376 6.562-17.923 11.628-33.009 15.021-48.383a.645.645 0 0 1 1.258.276c-3.409 15.445-8.49 30.578-15.068 48.549-7.067 19.3-13.906 33.08-22.176 44.681-3.654 5.127-7.778 9.998-11.765 14.707-5.996 7.083-12.197 14.408-16.852 22.683-.459.816-.99 1.785-1.448 2.777a.649.649 0 0 1-.587.374z" style="" fill="#302945" data-original="#302945" class=""></path><path d="M343.227 313.956c1.089-17.832-11.289-33.245-18.342-49.66-9.265-21.564-9.274-46.926-.023-68.497 9.923 14.03 20.538 26.797 24.467 43.526 2.767 11.78 2.294 24.07 1.21 36.122-1.179 13.123-2.176 26.375-7.312 38.509z" style="" fill="#9dd1a9" data-original="#9dd1a9" class=""></path><path d="M342.22 319.512a.643.643 0 0 1-.628-.786c1.911-8.439 2.123-17.007 2.096-23.528-.133-30.761-6.762-64.023-19.703-98.863a.646.646 0 0 1 .38-.828.64.64 0 0 1 .828.38c12.993 34.981 19.648 68.393 19.783 99.306.028 6.589-.189 15.251-2.128 23.817a.644.644 0 0 1-.628.502z" style="" fill="#302945" data-original="#302945" class=""></path><path d="M351.59 310.214c11.045-13.086 23.535-25.33 38.689-33.303s33.324-11.318 49.661-6.186c-5.652 16.118-21.774 26.664-37.979 32.062-16.204 5.399-33.329 6.276-50.371 7.427z" style="" fill="#9dd1a9" data-original="#9dd1a9" class=""></path><path d="M345.122 317.752a.644.644 0 0 1-.46-1.096c10.88-11.047 25.264-19.957 45.267-28.039 8.289-3.348 16.876-6.315 25.179-9.183 8.232-2.844 16.744-5.785 24.951-9.093a.644.644 0 1 1 .481 1.195c-8.235 3.321-16.763 6.267-25.011 9.115-8.287 2.864-16.858 5.824-25.116 9.161-19.835 8.013-34.08 16.831-44.832 27.747a.638.638 0 0 1-.459.193z" style="" fill="#302945" data-original="#302945" class=""></path><path d="M163.168 286.766c-8.735-15.262-12.235-32.883-15.329-50.193-3.093-17.311-6-34.953-13.744-50.74-7.744-15.788-21.248-29.758-38.434-33.483-.36 18.435 1.164 36.351 5.896 54.172s13.838 34.904 28.073 46.623c5.934 4.886 12.638 8.758 18.69 13.497 6.053 4.738 12.447 12.822 14.848 20.124z" style="" fill="#9dd1a9" data-original="#9dd1a9" class=""></path><path d="M162.928 286.259a.645.645 0 0 1-.585-.374c-.45-.976-.962-1.912-1.448-2.777-4.654-8.273-10.855-15.597-16.85-22.679-3.989-4.711-8.113-9.583-11.768-14.711-8.274-11.607-15.114-25.387-22.175-44.681-6.579-17.968-11.66-33.1-15.07-48.549a.643.643 0 1 1 1.258-.276c3.395 15.378 8.461 30.464 15.022 48.383 7.02 19.18 13.811 32.867 22.015 44.376 3.623 5.084 7.73 9.935 11.701 14.626 6.035 7.129 12.276 14.5 16.989 22.88a41.733 41.733 0 0 1 1.496 2.868.647.647 0 0 1-.585.914z" style="" fill="#302945" data-original="#302945" class=""></path><path d="M163.085 288.304c-1.089-17.832 11.289-33.245 18.342-49.66 9.265-21.564 9.274-46.926.023-68.497-9.923 14.03-20.538 26.797-24.467 43.526-2.767 11.78-2.294 24.07-1.211 36.122 1.181 13.123 2.178 26.375 7.313 38.509z" style="" fill="#9dd1a9" data-original="#9dd1a9" class=""></path><path d="M164.091 293.859a.643.643 0 0 1-.628-.502c-1.94-8.568-2.155-17.228-2.127-23.817.133-30.91 6.789-64.321 19.783-99.306a.645.645 0 0 1 1.208.448c-12.941 34.843-19.57 68.105-19.702 98.863-.028 6.521.185 15.087 2.094 23.528a.642.642 0 0 1-.628.786z" style="" fill="#302945" data-original="#302945" class=""></path><path d="M154.722 284.562c-11.045-13.086-23.535-25.33-38.689-33.303-15.155-7.973-33.324-11.318-49.661-6.186 5.651 16.118 21.774 26.663 37.979 32.062 16.205 5.399 33.33 6.276 50.371 7.427z" style="" fill="#9dd1a9" data-original="#9dd1a9" class=""></path><path d="M161.191 292.099a.643.643 0 0 1-.459-.192c-10.75-10.915-24.996-19.732-44.832-27.747-8.258-3.337-16.827-6.297-25.115-9.16-8.248-2.849-16.777-5.795-25.012-9.116a.642.642 0 0 1-.357-.838.643.643 0 0 1 .838-.357c8.206 3.309 16.72 6.249 24.953 9.093 8.302 2.868 16.889 5.834 25.177 9.183 20.004 8.085 34.388 16.993 45.267 28.039a.644.644 0 0 1-.46 1.095z" style="" fill="#302945" data-original="#302945" class=""></path><path d="m173.128 113.077 2.691-43.946 2.093 44.245 11.061-8.969-6.577 10.464 23.617 2.989-23.019 2.99 6.576 9.267-11.06-5.979-2.99 38.266-2.392-37.668-11.36 4.783 7.175-8.669-28.699-3.887 28.4-1.196-6.577-9.865zM407.008 353.613l2.69-43.946 2.093 44.245 11.061-8.969-6.577 10.464 23.617 2.989-23.019 2.989 6.577 9.268-11.061-5.979-2.99 38.265-2.391-37.667-11.36 4.783 7.175-8.67-28.7-3.886 28.4-1.196-6.576-9.865z" style="" fill="#f7ede5" data-original="#f7ede5" class=""></path><path d="m454.746 164.766-12.805 4.602a1.35 1.35 0 0 0-.815.815l-4.602 12.806c-.428 1.193-2.116 1.193-2.545 0l-4.602-12.806a1.35 1.35 0 0 0-.815-.815l-12.805-4.602c-1.193-.429-1.193-2.116 0-2.545l12.805-4.602a1.35 1.35 0 0 0 .815-.815l4.602-12.805c.429-1.193 2.117-1.193 2.545 0l4.602 12.805c.137.38.435.679.815.815l12.805 4.602c1.193.429 1.193 2.116 0 2.545zM114.032 314.075l-12.805 4.602a1.35 1.35 0 0 0-.815.815l-4.602 12.806c-.428 1.193-2.116 1.193-2.545 0l-4.602-12.806a1.35 1.35 0 0 0-.815-.815l-12.805-4.602c-1.194-.429-1.194-2.116 0-2.545l12.805-4.602c.38-.136.679-.435.815-.815l4.602-12.805c.429-1.193 2.117-1.193 2.545 0l4.602 12.805c.137.38.435.679.815.815l12.805 4.602c1.193.428 1.193 2.116 0 2.545z" style="" fill="#ffffff" data-original="#ffffff"></path></g></svg>